<?xml version="1.0" encoding="UTF-8" standalone="no"?>
<!-- Created with Inkscape (http://www.inkscape.org/) -->

<svg
   xmlns:dc="http://purl.org/dc/elements/1.1/"
   xmlns:cc="http://creativecommons.org/ns#"
   xmlns:rdf="http://www.w3.org/1999/02/22-rdf-syntax-ns#"
   xmlns:svg="http://www.w3.org/2000/svg"
   xmlns="http://www.w3.org/2000/svg"
   xmlns:xlink="http://www.w3.org/1999/xlink"
   xmlns:sodipodi="http://sodipodi.sourceforge.net/DTD/sodipodi-0.dtd"
   xmlns:inkscape="http://www.inkscape.org/namespaces/inkscape"
   width="171.64113mm"
   height="96.60112mm"
   viewBox="0 0 608.17722 342.28735"
   id="svg2"
   version="1.1"
   inkscape:version="0.91 r13725"
   sodipodi:docname="cf-mf.svg">
  <defs
     id="defs4">
    <marker
       inkscape:stockid="Arrow1Mend"
       orient="auto"
       refY="0"
       refX="0"
       id="marker57801"
       style="overflow:visible"
       inkscape:isstock="true">
      <path
         inkscape:connector-curvature="0"
         id="path57803"
         d="M 0,0 5,-5 -12.5,0 5,5 0,0 Z"
         style="fill:#000000;fill-opacity:1;fill-rule:evenodd;stroke:#000000;stroke-width:1pt;stroke-opacity:1"
         transform="matrix(-0.4,0,0,-0.4,-4,0)" />
    </marker>
    <marker
       inkscape:stockid="Arrow1Mstart"
       orient="auto"
       refY="0"
       refX="0"
       id="marker57497"
       style="overflow:visible"
       inkscape:isstock="true">
      <path
         id="path57499"
         d="M 0,0 5,-5 -12.5,0 5,5 0,0 Z"
         style="fill:#000000;fill-opacity:1;fill-rule:evenodd;stroke:#000000;stroke-width:1pt;stroke-opacity:1"
         transform="matrix(0.4,0,0,0.4,4,0)"
         inkscape:connector-curvature="0" />
    </marker>
    <marker
       inkscape:stockid="Arrow1Lend"
       orient="auto"
       refY="0"
       refX="0"
       id="marker54959"
       style="overflow:visible"
       inkscape:isstock="true">
      <path
         id="path54961"
         d="M 0,0 5,-5 -12.5,0 5,5 0,0 Z"
         style="fill:#000000;fill-opacity:1;fill-rule:evenodd;stroke:#000000;stroke-width:1pt;stroke-opacity:1"
         transform="matrix(-0.8,0,0,-0.8,-10,0)"
         inkscape:connector-curvature="0" />
    </marker>
    <marker
       inkscape:stockid="Arrow1Mend"
       orient="auto"
       refY="0"
       refX="0"
       id="marker54215"
       style="overflow:visible"
       inkscape:isstock="true">
      <path
         inkscape:connector-curvature="0"
         id="path54217"
         d="M 0,0 5,-5 -12.5,0 5,5 0,0 Z"
         style="fill:#000000;fill-opacity:1;fill-rule:evenodd;stroke:#000000;stroke-width:1pt;stroke-opacity:1"
         transform="matrix(-0.4,0,0,-0.4,-4,0)" />
    </marker>
    <marker
       inkscape:stockid="Arrow1Lend"
       orient="auto"
       refY="0"
       refX="0"
       id="marker54022"
       style="overflow:visible"
       inkscape:isstock="true">
      <path
         id="path54024"
         d="M 0,0 5,-5 -12.5,0 5,5 0,0 Z"
         style="fill:#000000;fill-opacity:1;fill-rule:evenodd;stroke:#000000;stroke-width:1pt;stroke-opacity:1"
         transform="matrix(-0.8,0,0,-0.8,-10,0)"
         inkscape:connector-curvature="0" />
    </marker>
    <marker
       inkscape:stockid="Arrow1Mend"
       orient="auto"
       refY="0"
       refX="0"
       id="marker37744"
       style="overflow:visible"
       inkscape:isstock="true">
      <path
         id="path37746"
         d="M 0,0 5,-5 -12.5,0 5,5 0,0 Z"
         style="fill:#000000;fill-opacity:1;fill-rule:evenodd;stroke:#000000;stroke-width:1pt;stroke-opacity:1"
         transform="matrix(-0.4,0,0,-0.4,-4,0)"
         inkscape:connector-curvature="0" />
    </marker>
    <marker
       inkscape:stockid="Arrow1Mend"
       orient="auto"
       refY="0"
       refX="0"
       id="marker37342"
       style="overflow:visible"
       inkscape:isstock="true">
      <path
         id="path37344"
         d="M 0,0 5,-5 -12.5,0 5,5 0,0 Z"
         style="fill:#000000;fill-opacity:1;fill-rule:evenodd;stroke:#000000;stroke-width:1pt;stroke-opacity:1"
         transform="matrix(-0.4,0,0,-0.4,-4,0)"
         inkscape:connector-curvature="0" />
    </marker>
    <marker
       inkscape:stockid="Arrow1Mend"
       orient="auto"
       refY="0"
       refX="0"
       id="marker36995"
       style="overflow:visible"
       inkscape:isstock="true">
      <path
         id="path36997"
         d="M 0,0 5,-5 -12.5,0 5,5 0,0 Z"
         style="fill:#000000;fill-opacity:1;fill-rule:evenodd;stroke:#000000;stroke-width:1pt;stroke-opacity:1"
         transform="matrix(-0.4,0,0,-0.4,-4,0)"
         inkscape:connector-curvature="0" />
    </marker>
    <marker
       inkscape:isstock="true"
       style="overflow:visible"
       id="marker36215"
       refX="0"
       refY="0"
       orient="auto"
       inkscape:stockid="Arrow1Mend">
      <path
         transform="matrix(-0.4,0,0,-0.4,-4,0)"
         style="fill:#000000;fill-opacity:1;fill-rule:evenodd;stroke:#000000;stroke-width:1pt;stroke-opacity:1"
         d="M 0,0 5,-5 -12.5,0 5,5 0,0 Z"
         id="path36217"
         inkscape:connector-curvature="0" />
    </marker>
    <marker
       inkscape:stockid="Arrow1Mend"
       orient="auto"
       refY="0"
       refX="0"
       id="marker35855"
       style="overflow:visible"
       inkscape:isstock="true">
      <path
         id="path35857"
         d="M 0,0 5,-5 -12.5,0 5,5 0,0 Z"
         style="fill:#000000;fill-opacity:1;fill-rule:evenodd;stroke:#000000;stroke-width:1pt;stroke-opacity:1"
         transform="matrix(-0.4,0,0,-0.4,-4,0)"
         inkscape:connector-curvature="0" />
    </marker>
    <marker
       inkscape:stockid="Arrow1Mend"
       orient="auto"
       refY="0"
       refX="0"
       id="Arrow1Mend"
       style="overflow:visible"
       inkscape:isstock="true">
      <path
         id="path30874"
         d="M 0,0 5,-5 -12.5,0 5,5 0,0 Z"
         style="fill-rule:evenodd;stroke:#000000;stroke-width:1pt"
         transform="matrix(-0.4,0,0,-0.4,-4,0)"
         inkscape:connector-curvature="0" />
    </marker>
    <marker
       inkscape:isstock="true"
       style="overflow:visible"
       id="marker32847"
       refX="0"
       refY="0"
       orient="auto"
       inkscape:stockid="Arrow1Mend">
      <path
         transform="matrix(-0.4,0,0,-0.4,-4,0)"
         style="fill:#000000;fill-opacity:1;fill-rule:evenodd;stroke:#000000;stroke-width:1pt;stroke-opacity:1"
         d="M 0,0 5,-5 -12.5,0 5,5 0,0 Z"
         id="path32849"
         inkscape:connector-curvature="0" />
    </marker>
    <marker
       inkscape:stockid="Arrow1Mend"
       orient="auto"
       refY="0"
       refX="0"
       id="marker32603"
       style="overflow:visible"
       inkscape:isstock="true">
      <path
         id="path32605"
         d="M 0,0 5,-5 -12.5,0 5,5 0,0 Z"
         style="fill:#000000;fill-opacity:1;fill-rule:evenodd;stroke:#000000;stroke-width:1pt;stroke-opacity:1"
         transform="matrix(-0.4,0,0,-0.4,-4,0)"
         inkscape:connector-curvature="0" />
    </marker>
    <marker
       inkscape:stockid="Arrow1Mend"
       orient="auto"
       refY="0"
       refX="0"
       id="marker32299"
       style="overflow:visible"
       inkscape:isstock="true">
      <path
         id="path32301"
         d="M 0,0 5,-5 -12.5,0 5,5 0,0 Z"
         style="fill:#000000;fill-opacity:1;fill-rule:evenodd;stroke:#000000;stroke-width:1pt;stroke-opacity:1"
         transform="matrix(-0.4,0,0,-0.4,-4,0)"
         inkscape:connector-curvature="0" />
    </marker>
    <marker
       inkscape:stockid="Arrow1Mend"
       orient="auto"
       refY="0"
       refX="0"
       id="marker19145"
       style="overflow:visible"
       inkscape:isstock="true">
      <path
         inkscape:connector-curvature="0"
         id="path19147"
         d="M 0,0 5,-5 -12.5,0 5,5 0,0 Z"
         style="fill:#000000;fill-opacity:1;fill-rule:evenodd;stroke:#000000;stroke-width:1pt;stroke-opacity:1"
         transform="matrix(-0.4,0,0,-0.4,-4,0)" />
    </marker>
    <marker
       inkscape:isstock="true"
       style="overflow:visible"
       id="marker39180"
       refX="0"
       refY="0"
       orient="auto"
       inkscape:stockid="Arrow1Lend">
      <path
         inkscape:connector-curvature="0"
         transform="matrix(-0.8,0,0,-0.8,-10,0)"
         style="fill:#000000;fill-opacity:1;fill-rule:evenodd;stroke:#000000;stroke-width:1pt;stroke-opacity:1"
         d="M 0,0 5,-5 -12.5,0 5,5 0,0 Z"
         id="path39182" />
    </marker>
    <marker
       inkscape:stockid="Arrow1Lend"
       orient="auto"
       refY="0"
       refX="0"
       id="marker38846"
       style="overflow:visible"
       inkscape:isstock="true">
      <path
         id="path38848"
         d="M 0,0 5,-5 -12.5,0 5,5 0,0 Z"
         style="fill:#000000;fill-opacity:1;fill-rule:evenodd;stroke:#000000;stroke-width:1pt;stroke-opacity:1"
         transform="matrix(-0.8,0,0,-0.8,-10,0)"
         inkscape:connector-curvature="0" />
    </marker>
    <marker
       inkscape:isstock="true"
       style="overflow:visible"
       id="marker38119"
       refX="0"
       refY="0"
       orient="auto"
       inkscape:stockid="Arrow1Lend">
      <path
         inkscape:connector-curvature="0"
         transform="matrix(-0.8,0,0,-0.8,-10,0)"
         style="fill:#000000;fill-opacity:1;fill-rule:evenodd;stroke:#000000;stroke-width:1pt;stroke-opacity:1"
         d="M 0,0 5,-5 -12.5,0 5,5 0,0 Z"
         id="path38121" />
    </marker>
    <marker
       inkscape:isstock="true"
       style="overflow:visible"
       id="marker26755"
       refX="0"
       refY="0"
       orient="auto"
       inkscape:stockid="Arrow1Mend">
      <path
         transform="matrix(-0.4,0,0,-0.4,-4,0)"
         style="fill:#000000;fill-opacity:1;fill-rule:evenodd;stroke:#000000;stroke-width:1pt;stroke-opacity:1"
         d="M 0,0 5,-5 -12.5,0 5,5 0,0 Z"
         id="path26757"
         inkscape:connector-curvature="0" />
    </marker>
    <marker
       inkscape:isstock="true"
       style="overflow:visible"
       id="marker26571"
       refX="0"
       refY="0"
       orient="auto"
       inkscape:stockid="Arrow1Mend">
      <path
         transform="matrix(-0.4,0,0,-0.4,-4,0)"
         style="fill:#000000;fill-opacity:1;fill-rule:evenodd;stroke:#000000;stroke-width:1pt;stroke-opacity:1"
         d="M 0,0 5,-5 -12.5,0 5,5 0,0 Z"
         id="path26573"
         inkscape:connector-curvature="0" />
    </marker>
    <marker
       inkscape:isstock="true"
       style="overflow:visible"
       id="marker26393"
       refX="0"
       refY="0"
       orient="auto"
       inkscape:stockid="Arrow1Mend">
      <path
         transform="matrix(-0.4,0,0,-0.4,-4,0)"
         style="fill:#000000;fill-opacity:1;fill-rule:evenodd;stroke:#000000;stroke-width:1pt;stroke-opacity:1"
         d="M 0,0 5,-5 -12.5,0 5,5 0,0 Z"
         id="path26395"
         inkscape:connector-curvature="0" />
    </marker>
    <marker
       inkscape:isstock="true"
       style="overflow:visible"
       id="marker26221"
       refX="0"
       refY="0"
       orient="auto"
       inkscape:stockid="Arrow1Mend">
      <path
         transform="matrix(-0.4,0,0,-0.4,-4,0)"
         style="fill:#000000;fill-opacity:1;fill-rule:evenodd;stroke:#000000;stroke-width:1pt;stroke-opacity:1"
         d="M 0,0 5,-5 -12.5,0 5,5 0,0 Z"
         id="path26223"
         inkscape:connector-curvature="0" />
    </marker>
    <marker
       inkscape:isstock="true"
       style="overflow:visible"
       id="marker25885"
       refX="0"
       refY="0"
       orient="auto"
       inkscape:stockid="Arrow1Lend">
      <path
         inkscape:connector-curvature="0"
         transform="matrix(-0.8,0,0,-0.8,-10,0)"
         style="fill:#000000;fill-opacity:1;fill-rule:evenodd;stroke:#000000;stroke-width:1pt;stroke-opacity:1"
         d="M 0,0 5,-5 -12.5,0 5,5 0,0 Z"
         id="path25887" />
    </marker>
    <marker
       inkscape:isstock="true"
       style="overflow:visible"
       id="marker25731"
       refX="0"
       refY="0"
       orient="auto"
       inkscape:stockid="Arrow1Lend">
      <path
         inkscape:connector-curvature="0"
         transform="matrix(-0.8,0,0,-0.8,-10,0)"
         style="fill:#000000;fill-opacity:1;fill-rule:evenodd;stroke:#000000;stroke-width:1pt;stroke-opacity:1"
         d="M 0,0 5,-5 -12.5,0 5,5 0,0 Z"
         id="path25733" />
    </marker>
    <marker
       inkscape:isstock="true"
       style="overflow:visible"
       id="marker25551"
       refX="0"
       refY="0"
       orient="auto"
       inkscape:stockid="Arrow1Lend">
      <path
         inkscape:connector-curvature="0"
         transform="matrix(-0.8,0,0,-0.8,-10,0)"
         style="fill:#000000;fill-opacity:1;fill-rule:evenodd;stroke:#000000;stroke-width:1pt;stroke-opacity:1"
         d="M 0,0 5,-5 -12.5,0 5,5 0,0 Z"
         id="path25553" />
    </marker>
    <marker
       inkscape:isstock="true"
       style="overflow:visible"
       id="marker24955"
       refX="0"
       refY="0"
       orient="auto"
       inkscape:stockid="Arrow1Lend">
      <path
         transform="matrix(-0.8,0,0,-0.8,-10,0)"
         style="fill:#000000;fill-opacity:1;fill-rule:evenodd;stroke:#000000;stroke-width:1pt;stroke-opacity:1"
         d="M 0,0 5,-5 -12.5,0 5,5 0,0 Z"
         id="path24957"
         inkscape:connector-curvature="0" />
    </marker>
    <marker
       inkscape:stockid="Arrow1Lend"
       orient="auto"
       refY="0"
       refX="0"
       id="marker24543"
       style="overflow:visible"
       inkscape:isstock="true">
      <path
         id="path24545"
         d="M 0,0 5,-5 -12.5,0 5,5 0,0 Z"
         style="fill:#000000;fill-opacity:1;fill-rule:evenodd;stroke:#000000;stroke-width:1pt;stroke-opacity:1"
         transform="matrix(-0.8,0,0,-0.8,-10,0)"
         inkscape:connector-curvature="0" />
    </marker>
    <marker
       inkscape:stockid="Arrow1Lend"
       orient="auto"
       refY="0"
       refX="0"
       id="marker24245"
       style="overflow:visible"
       inkscape:isstock="true">
      <path
         inkscape:connector-curvature="0"
         id="path24247"
         d="M 0,0 5,-5 -12.5,0 5,5 0,0 Z"
         style="fill:#000000;fill-opacity:1;fill-rule:evenodd;stroke:#000000;stroke-width:1pt;stroke-opacity:1"
         transform="matrix(-0.8,0,0,-0.8,-10,0)" />
    </marker>
    <marker
       inkscape:isstock="true"
       style="overflow:visible"
       id="marker24113"
       refX="0"
       refY="0"
       orient="auto"
       inkscape:stockid="Arrow1Lend">
      <path
         inkscape:connector-curvature="0"
         transform="matrix(-0.8,0,0,-0.8,-10,0)"
         style="fill:#000000;fill-opacity:1;fill-rule:evenodd;stroke:#000000;stroke-width:1pt;stroke-opacity:1"
         d="M 0,0 5,-5 -12.5,0 5,5 0,0 Z"
         id="path24115" />
    </marker>
    <marker
       inkscape:stockid="Arrow1Lend"
       orient="auto"
       refY="0"
       refX="0"
       id="marker24304"
       style="overflow:visible"
       inkscape:isstock="true">
      <path
         id="path24306"
         d="M 0,0 5,-5 -12.5,0 5,5 0,0 Z"
         style="fill:#000000;fill-opacity:1;fill-rule:evenodd;stroke:#000000;stroke-width:1pt;stroke-opacity:1"
         transform="matrix(-0.8,0,0,-0.8,-10,0)"
         inkscape:connector-curvature="0" />
    </marker>
    <marker
       inkscape:isstock="true"
       style="overflow:visible"
       id="marker22042"
       refX="0"
       refY="0"
       orient="auto"
       inkscape:stockid="Arrow1Lend">
      <path
         inkscape:connector-curvature="0"
         transform="matrix(-0.8,0,0,-0.8,-10,0)"
         style="fill:#000000;fill-opacity:1;fill-rule:evenodd;stroke:#000000;stroke-width:1pt;stroke-opacity:1"
         d="M 0,0 5,-5 -12.5,0 5,5 0,0 Z"
         id="path22044" />
    </marker>
    <marker
       inkscape:stockid="Arrow1Lend"
       orient="auto"
       refY="0"
       refX="0"
       id="marker21055"
       style="overflow:visible"
       inkscape:isstock="true">
      <path
         id="path21057"
         d="M 0,0 5,-5 -12.5,0 5,5 0,0 Z"
         style="fill:#000000;fill-opacity:1;fill-rule:evenodd;stroke:#000000;stroke-width:1pt;stroke-opacity:1"
         transform="matrix(-0.8,0,0,-0.8,-10,0)"
         inkscape:connector-curvature="0" />
    </marker>
    <marker
       inkscape:isstock="true"
       style="overflow:visible"
       id="marker34054"
       refX="0"
       refY="0"
       orient="auto"
       inkscape:stockid="Arrow1Lend">
      <path
         inkscape:connector-curvature="0"
         transform="matrix(-0.8,0,0,-0.8,-10,0)"
         style="fill:#000000;fill-opacity:1;fill-rule:evenodd;stroke:#000000;stroke-width:1pt;stroke-opacity:1"
         d="M 0,0 5,-5 -12.5,0 5,5 0,0 Z"
         id="path34056" />
    </marker>
    <marker
       inkscape:isstock="true"
       style="overflow:visible"
       id="marker34130"
       refX="0"
       refY="0"
       orient="auto"
       inkscape:stockid="Arrow1Lend">
      <path
         inkscape:connector-curvature="0"
         transform="matrix(-0.8,0,0,-0.8,-10,0)"
         style="fill:#000000;fill-opacity:1;fill-rule:evenodd;stroke:#000000;stroke-width:1pt;stroke-opacity:1"
         d="M 0,0 5,-5 -12.5,0 5,5 0,0 Z"
         id="path34132" />
    </marker>
    <marker
       inkscape:stockid="Arrow1Lend"
       orient="auto"
       refY="0"
       refX="0"
       id="marker33821"
       style="overflow:visible"
       inkscape:isstock="true">
      <path
         id="path33823"
         d="M 0,0 5,-5 -12.5,0 5,5 0,0 Z"
         style="fill:#000000;fill-opacity:1;fill-rule:evenodd;stroke:#000000;stroke-width:1pt;stroke-opacity:1"
         transform="matrix(-0.8,0,0,-0.8,-10,0)"
         inkscape:connector-curvature="0" />
    </marker>
    <marker
       inkscape:stockid="Arrow1Lend"
       orient="auto"
       refY="0"
       refX="0"
       id="marker33769"
       style="overflow:visible"
       inkscape:isstock="true">
      <path
         id="path33771"
         d="M 0,0 5,-5 -12.5,0 5,5 0,0 Z"
         style="fill:#000000;fill-opacity:1;fill-rule:evenodd;stroke:#000000;stroke-width:1pt;stroke-opacity:1"
         transform="matrix(-0.8,0,0,-0.8,-10,0)"
         inkscape:connector-curvature="0" />
    </marker>
    <marker
       inkscape:stockid="Arrow1Lend"
       orient="auto"
       refY="0"
       refX="0"
       id="marker33723"
       style="overflow:visible"
       inkscape:isstock="true">
      <path
         id="path33725"
         d="M 0,0 5,-5 -12.5,0 5,5 0,0 Z"
         style="fill:#000000;fill-opacity:1;fill-rule:evenodd;stroke:#000000;stroke-width:1pt;stroke-opacity:1"
         transform="matrix(-0.8,0,0,-0.8,-10,0)"
         inkscape:connector-curvature="0" />
    </marker>
    <marker
       inkscape:stockid="Arrow1Lend"
       orient="auto"
       refY="0"
       refX="0"
       id="marker33879"
       style="overflow:visible"
       inkscape:isstock="true">
      <path
         id="path33881"
         d="M 0,0 5,-5 -12.5,0 5,5 0,0 Z"
         style="fill:#000000;fill-opacity:1;fill-rule:evenodd;stroke:#000000;stroke-width:1pt;stroke-opacity:1"
         transform="matrix(-0.8,0,0,-0.8,-10,0)"
         inkscape:connector-curvature="0" />
    </marker>
    <marker
       inkscape:isstock="true"
       style="overflow:visible"
       id="marker25551-3"
       refX="0"
       refY="0"
       orient="auto"
       inkscape:stockid="Arrow1Lend">
      <path
         inkscape:connector-curvature="0"
         transform="matrix(-0.8,0,0,-0.8,-10,0)"
         style="fill:#000000;fill-opacity:1;fill-rule:evenodd;stroke:#000000;stroke-width:1pt;stroke-opacity:1"
         d="M 0,0 5,-5 -12.5,0 5,5 0,0 Z"
         id="path25553-6" />
    </marker>
    <marker
       inkscape:isstock="true"
       style="overflow:visible"
       id="marker24955-7"
       refX="0"
       refY="0"
       orient="auto"
       inkscape:stockid="Arrow1Lend">
      <path
         transform="matrix(-0.8,0,0,-0.8,-10,0)"
         style="fill:#000000;fill-opacity:1;fill-rule:evenodd;stroke:#000000;stroke-width:1pt;stroke-opacity:1"
         d="M 0,0 5,-5 -12.5,0 5,5 0,0 Z"
         id="path24957-5"
         inkscape:connector-curvature="0" />
    </marker>
    <marker
       inkscape:stockid="Arrow1Lend"
       orient="auto"
       refY="0"
       refX="0"
       id="marker24543-3"
       style="overflow:visible"
       inkscape:isstock="true">
      <path
         id="path24545-5"
         d="M 0,0 5,-5 -12.5,0 5,5 0,0 Z"
         style="fill:#000000;fill-opacity:1;fill-rule:evenodd;stroke:#000000;stroke-width:1pt;stroke-opacity:1"
         transform="matrix(-0.8,0,0,-0.8,-10,0)"
         inkscape:connector-curvature="0" />
    </marker>
    <marker
       inkscape:stockid="Arrow1Lend"
       orient="auto"
       refY="0"
       refX="0"
       id="marker24245-6"
       style="overflow:visible"
       inkscape:isstock="true">
      <path
         inkscape:connector-curvature="0"
         id="path24247-2"
         d="M 0,0 5,-5 -12.5,0 5,5 0,0 Z"
         style="fill:#000000;fill-opacity:1;fill-rule:evenodd;stroke:#000000;stroke-width:1pt;stroke-opacity:1"
         transform="matrix(-0.8,0,0,-0.8,-10,0)" />
    </marker>
    <marker
       inkscape:isstock="true"
       style="overflow:visible"
       id="marker24113-9"
       refX="0"
       refY="0"
       orient="auto"
       inkscape:stockid="Arrow1Lend">
      <path
         inkscape:connector-curvature="0"
         transform="matrix(-0.8,0,0,-0.8,-10,0)"
         style="fill:#000000;fill-opacity:1;fill-rule:evenodd;stroke:#000000;stroke-width:1pt;stroke-opacity:1"
         d="M 0,0 5,-5 -12.5,0 5,5 0,0 Z"
         id="path24115-1" />
    </marker>
  </defs>
  <sodipodi:namedview
     id="base"
     pagecolor="#ffffff"
     bordercolor="#666666"
     borderopacity="1.0"
     inkscape:pageopacity="0.0"
     inkscape:pageshadow="2"
     inkscape:zoom="2.7973735"
     inkscape:cx="299.48156"
     inkscape:cy="183.05137"
     inkscape:document-units="px"
     inkscape:current-layer="layer1"
     showgrid="false"
     inkscape:window-width="2495"
     inkscape:window-height="1416"
     inkscape:window-x="65"
     inkscape:window-y="24"
     inkscape:window-maximized="1"
     fit-margin-top="0"
     fit-margin-left="0"
     fit-margin-right="0"
     fit-margin-bottom="0" />
  <metadata
     id="metadata7">
    <rdf:RDF>
      <cc:Work
         rdf:about="">
        <dc:format>image/svg+xml</dc:format>
        <dc:type
           rdf:resource="http://purl.org/dc/dcmitype/StillImage" />
        <dc:title></dc:title>
      </cc:Work>
    </rdf:RDF>
  </metadata>
  <g
     inkscape:label="Layer 1"
     inkscape:groupmode="layer"
     id="layer1"
     transform="translate(147.04358,-102.95722)">
    <rect
       style="opacity:1;fill:#ffffff;fill-opacity:1;stroke:none;stroke-width:1.02900004;stroke-miterlimit:4;stroke-dasharray:none;stroke-dashoffset:0;stroke-opacity:1"
       id="rect74307"
       width="608.17725"
       height="342.28745"
       x="-147.04358"
       y="102.95718" />
    <rect
       style="opacity:1;fill:#ffcfcf;fill-opacity:1;stroke:none;stroke-width:1;stroke-miterlimit:4;stroke-dasharray:none;stroke-dashoffset:0;stroke-opacity:1"
       id="rect25955"
       width="105.91283"
       height="25.02475"
       x="125.44816"
       y="223.81656" />
    <rect
       style="fill:none;fill-opacity:1;stroke:#000000;stroke-width:1.02978384;stroke-miterlimit:4;stroke-dasharray:none;stroke-dashoffset:0;stroke-opacity:1"
       id="rect4136-5"
       width="105.38855"
       height="251.09947"
       x="126.00954"
       y="160.37634" />
    <use
       height="100%"
       width="100%"
       id="use29148"
       y="66"
       xlink:href="#g0-87"
       x="56.624802"
       transform="matrix(1.4072251,0,0,1.407225,-113.96522,-38.602192)" />
    <use
       height="100%"
       width="100%"
       id="use29150"
       y="61.0453"
       xlink:href="#g1-104"
       x="70.756798"
       transform="matrix(1.4072251,0,0,1.407225,-113.96522,-38.602192)" />
    <use
       height="100%"
       width="100%"
       id="use29152"
       y="66"
       xlink:href="#g0-87"
       x="76.154999"
       transform="matrix(1.4072251,0,0,1.407225,-113.96522,-38.602192)" />
    <use
       height="100%"
       width="100%"
       id="use29154"
       y="61.0453"
       xlink:href="#g1-111"
       x="90.286903"
       transform="matrix(1.4072251,0,0,1.407225,-113.96522,-38.602192)" />
    <g
       id="g18971"
       transform="translate(27.600364,-260.9103)">
      <path
         id="path18949"
         d="m 79.020995,494.89553 0,0.72613 c 1.046975,0 1.165182,0 1.165182,0.65858 l 0,3.30979 c 0,1.28339 -0.759902,2.31348 -2.077064,2.31348 -1.266503,0 -1.334049,-0.42217 -1.334049,-1.35094 l 0,-5.79214 -3.005833,0.1351 0,0.72613 c 1.046976,0 1.165183,0 1.165183,0.65858 l 0,4.00215 c 0,1.68867 1.131408,2.17838 2.938285,2.17838 0.405281,0 1.654897,0 2.381025,-1.36782 l 0.01689,0 0,1.36782 2.921399,-0.10132 0,-0.72613 c -1.046975,0 -1.165182,0 -1.165182,-0.65859 l 0,-6.2143 -3.005833,0.13509 z"
         inkscape:connector-curvature="0" />
      <path
         id="path18953"
         d="m 86.969001,499.50925 c 0,-0.24767 -0.180125,-0.42779 -0.439055,-0.42779 -0.292702,0 -0.619178,0.27018 -0.619178,0.60792 0,0.24767 0.180125,0.42779 0.439053,0.42779 0.292704,0 0.61918,-0.27018 0.61918,-0.60792 z m -1.643639,4.13162 -0.607921,1.55357 c -0.05629,0.16887 -0.112578,0.30396 -0.112578,0.49535 0,0.55163 0.427797,0.95691 1.02446,0.95691 1.092006,0 1.553576,-1.57609 1.553576,-1.72244 0,-0.11258 -0.09006,-0.14635 -0.168868,-0.14635 -0.135092,0 -0.157608,0.0788 -0.191382,0.19138 -0.258929,0.90062 -0.720499,1.36219 -1.17081,1.36219 -0.135094,0 -0.270187,-0.0563 -0.270187,-0.36025 0,-0.27018 0.07881,-0.47283 0.225156,-0.82182 0.112577,-0.30396 0.225155,-0.60792 0.348991,-0.91188 l 0.348991,-0.91188 c 0.101325,-0.25893 0.236414,-0.60792 0.236414,-0.7993 0,-0.56289 -0.450311,-0.95692 -1.024459,-0.95692 -1.092006,0 -1.564834,1.57609 -1.564834,1.72245 0,0.10132 0.07881,0.14635 0.168867,0.14635 0.146351,0 0.157609,-0.0675 0.191383,-0.18013 0.315218,-1.06949 0.833077,-1.37345 1.170811,-1.37345 0.157609,0 0.270187,0.0563 0.270187,0.37151 0,0.11257 -0.01126,0.27019 -0.123836,0.60792 l -0.303961,0.77679 z"
         inkscape:connector-curvature="0" />
    </g>
    <g
       transform="matrix(1.2500001,0,0,1.2500001,135.48974,230.47904)"
       id="g22627">
      <path
         inkscape:connector-curvature="0"
         d="m 4.3677609,4.7762371 c 0.1756217,0.7565242 0.824071,0.9186365 1.1482956,0.9186365 0.4322996,0 0.7565242,-0.2836966 0.972674,-0.7430148 0.2296591,-0.486337 0.4052808,-1.2833892 0.4052808,-1.3239173 0,-0.067547 -0.054037,-0.1215842 -0.1350936,-0.1215842 -0.1215843,0 -0.1350936,0.067547 -0.1891311,0.2701872 -0.2431685,0.9321458 -0.4863369,1.6481419 -1.0267113,1.6481419 -0.4052808,0 -0.4052808,-0.4458089 -0.4052808,-0.6214306 0,-0.3107152 0.040528,-0.4458088 0.1756216,-1.013202 C 5.4079817,3.4253011 5.5025472,3.0605484 5.5836033,2.6822863 L 6.1374871,0.48026064 c 0.094565,-0.337734 0.094565,-0.36475272 0.094565,-0.4052808 0,-0.2026404 -0.1621123,-0.337734 -0.3647527,-0.337734 -0.3917714,0 -0.486337,0.337734 -0.5673931,0.675468 C 5.1648132,0.93957888 4.4353077,3.8440913 4.3407422,4.3169189 c -0.013509,0 -0.5403744,1.1077675 -1.5265577,1.1077675 -0.7024867,0 -0.8375803,-0.6079212 -0.8375803,-1.1077675 0,-0.7700335 0.3782621,-1.8507823 0.7295055,-2.7559095 0.1621123,-0.4322995 0.2296591,-0.60792116 0.2296591,-0.87810836 0,-0.58090248 -0.4187902,-1.0807488 -1.0672395,-1.0807488 -1.24286107,0 -1.74270739,1.95885716 -1.74270739,2.06693206 0,0.054037 0.0540374,0.1215843 0.14860296,0.1215843 0.12158424,0 0.1350936,-0.054037 0.18913104,-0.2431685 0.32422464,-1.16180498 0.85108969,-1.67516066 1.36444539,-1.67516066 0.1350936,0 0.3512433,0.0135094 0.3512433,0.44580888 0,0.35124336 -0.1486029,0.74301478 -0.3512433,1.25637048 -0.5944119,1.6076138 -0.6619587,2.1209695 -0.6619587,2.5262503 0,1.3779547 1.0402207,1.5941045 1.5941045,1.5941045 0.864599,0 1.3374266,-0.5944118 1.6076138,-0.9186365 z"
         id="use21977" />
      <path
         inkscape:connector-curvature="0"
         d="m 9.9734665,1.9662937 c 0,-0.1981373 -0.1440998,-0.3422371 -0.3512434,-0.3422371 -0.2341622,0 -0.4953432,0.2161497 -0.4953432,0.4863369 0,0.1981373 0.1440999,0.3422371 0.3512434,0.3422371 0.2341622,0 0.4953432,-0.2161497 0.4953432,-0.4863369 z m -1.314911,3.3052901 -0.486337,1.2428611 c -0.045031,0.1350936 -0.090062,0.2431685 -0.090062,0.3962745 0,0.4413058 0.3422371,0.7655304 0.8195678,0.7655304 0.8736053,0 1.2428607,-1.2608736 1.2428607,-1.3779547 0,-0.090062 -0.07205,-0.1170811 -0.135094,-0.1170811 -0.108074,0 -0.1260865,0.063044 -0.1531052,0.1531061 -0.2071435,0.7204992 -0.5763994,1.089755 -0.936649,1.089755 -0.1080749,0 -0.2161497,-0.045031 -0.2161497,-0.2881997 0,-0.2161497 0.063044,-0.378262 0.1801248,-0.6574555 C 8.9737739,6.2352514 9.0638363,5.992083 9.1629049,5.7489145 L 9.4420983,5.019409 c 0.081056,-0.2071435 0.1891311,-0.4863369 0.1891311,-0.639443 0,-0.450312 -0.3602496,-0.7655304 -0.8195679,-0.7655304 -0.8736052,0 -1.2518673,1.2608736 -1.2518673,1.3779547 0,0.081056 0.063044,0.1170811 0.1350936,0.1170811 0.1170811,0 0.1260873,-0.054037 0.1531061,-0.1440998 0.2521747,-0.8555928 0.6664617,-1.0987613 0.9366489,-1.0987613 0.1260874,0 0.2161498,0.045031 0.2161498,0.2972059 0,0.090062 -0.00901,0.2161498 -0.099069,0.486337 L 8.6585555,5.2715838 Z"
         id="use21979" />
      <path
         inkscape:connector-curvature="0"
         d="m 12.231782,7.4510938 c 0,0.5854056 -0.126087,1.0987613 -0.684474,1.6571482 -0.03602,0.027019 -0.05404,0.045031 -0.05404,0.090062 0,0.07205 0.07205,0.1260874 0.135093,0.1260874 0.108075,0 0.855593,-0.711493 0.855593,-1.7652231 0,-0.5763993 -0.21615,-0.9726739 -0.612424,-0.9726739 -0.315219,0 -0.495343,0.2521747 -0.495343,0.4953432 0,0.2521747 0.171118,0.5043494 0.504349,0.5043494 0.21615,0 0.351243,-0.1260873 0.351243,-0.1350936 z"
         id="use21981" />
      <path
         inkscape:connector-curvature="0"
         d="m 17.609745,4.7131969 c 0,-0.9636677 -0.09907,-1.5490733 -0.396274,-2.1254727 -0.396275,-0.7925491 -1.12578,-0.9906864 -1.621124,-0.9906864 -1.134786,0 -1.549073,0.8465866 -1.67516,1.0987613 -0.324225,0.6574555 -0.342237,1.5490733 -0.342237,2.0173978 0,0.5944118 0.02702,1.5040421 0.459318,2.2245413 0.414287,0.6664617 1.080749,0.8375803 1.558079,0.8375803 0.4323,0 1.206837,-0.1350936 1.657149,-1.0267114 0.33323,-0.6484493 0.360249,-1.4500046 0.360249,-2.0354102 z m -2.017398,2.8099469 c -0.306212,0 -0.927642,-0.1440999 -1.116773,-1.0897551 -0.09907,-0.5133557 -0.09907,-1.3599422 -0.09907,-1.8282667 0,-0.6214306 0,-1.2518674 0.09907,-1.7472106 0.189131,-0.9186364 0.891617,-1.0086988 1.116773,-1.0086988 0.306213,0 0.927643,0.153106 1.107768,0.9726739 0.108075,0.4953432 0.108075,1.1708112 0.108075,1.7832355 0,0.5313682 0,1.3419298 -0.108075,1.8462792 -0.189131,0.9456552 -0.810562,1.0717426 -1.107768,1.0717426 z"
         id="use21983" />
    </g>
    <g
       transform="matrix(1.2500001,0,0,1.2500001,169.48974,230.47904)"
       id="g22633">
      <path
         inkscape:connector-curvature="0"
         d="m 23.159952,4.7762371 c 0.175622,0.7565242 0.824071,0.9186365 1.148296,0.9186365 0.432299,0 0.756524,-0.2836966 0.972674,-0.7430148 0.229659,-0.486337 0.40528,-1.2833892 0.40528,-1.3239173 0,-0.067547 -0.05404,-0.1215842 -0.135093,-0.1215842 -0.121584,0 -0.135094,0.067547 -0.189131,0.2701872 -0.243169,0.9321458 -0.486337,1.6481419 -1.026712,1.6481419 -0.40528,0 -0.40528,-0.4458089 -0.40528,-0.6214306 0,-0.3107152 0.04053,-0.4458088 0.175621,-1.013202 0.09457,-0.3647527 0.189131,-0.7295054 0.270188,-1.1077675 l 0.553883,-2.20202566 c 0.09457,-0.337734 0.09457,-0.36475272 0.09457,-0.4052808 0,-0.2026404 -0.162112,-0.337734 -0.364753,-0.337734 -0.391771,0 -0.486337,0.337734 -0.567393,0.675468 -0.135094,0.52686504 -0.864599,3.43137746 -0.959165,3.90420506 -0.01351,0 -0.540374,1.1077675 -1.526557,1.1077675 -0.702487,0 -0.837581,-0.6079212 -0.837581,-1.1077675 0,-0.7700335 0.378263,-1.8507823 0.729506,-2.7559095 0.162112,-0.4322995 0.229659,-0.60792116 0.229659,-0.87810836 0,-0.58090248 -0.41879,-1.0807488 -1.067239,-1.0807488 -1.242862,0 -1.742708,1.95885716 -1.742708,2.06693206 0,0.054037 0.05404,0.1215843 0.148603,0.1215843 0.121584,0 0.135094,-0.054037 0.189131,-0.2431685 0.324225,-1.16180498 0.85109,-1.67516066 1.364445,-1.67516066 0.135094,0 0.351244,0.0135094 0.351244,0.44580888 0,0.35124336 -0.148603,0.74301478 -0.351244,1.25637048 -0.594411,1.6076138 -0.661958,2.1209695 -0.661958,2.5262503 0,1.3779547 1.040221,1.5941045 1.594104,1.5941045 0.864599,0 1.337427,-0.5944118 1.607614,-0.9186365 z"
         id="use21985" />
      <path
         inkscape:connector-curvature="0"
         d="m 28.765662,1.9662937 c 0,-0.1981373 -0.1441,-0.3422371 -0.351243,-0.3422371 -0.234163,0 -0.495344,0.2161497 -0.495344,0.4863369 0,0.1981373 0.1441,0.3422371 0.351244,0.3422371 0.234162,0 0.495343,-0.2161497 0.495343,-0.4863369 z m -1.314911,3.3052901 -0.486337,1.2428611 c -0.04503,0.1350936 -0.09006,0.2431685 -0.09006,0.3962745 0,0.4413058 0.342237,0.7655304 0.819567,0.7655304 0.873606,0 1.242862,-1.2608736 1.242862,-1.3779547 0,-0.090062 -0.07205,-0.1170811 -0.135094,-0.1170811 -0.108075,0 -0.126087,0.063044 -0.153106,0.1531061 -0.207144,0.7204992 -0.576399,1.089755 -0.936649,1.089755 -0.108075,0 -0.21615,-0.045031 -0.21615,-0.2881997 0,-0.2161497 0.06304,-0.378262 0.180125,-0.6574555 C 27.765969,6.2352514 27.856032,5.992083 27.9551,5.7489145 L 28.234294,5.019409 c 0.08106,-0.2071435 0.189131,-0.4863369 0.189131,-0.639443 0,-0.450312 -0.36025,-0.7655304 -0.819568,-0.7655304 -0.873605,0 -1.251867,1.2608736 -1.251867,1.3779547 0,0.081056 0.06304,0.1170811 0.135093,0.1170811 0.117081,0 0.126088,-0.054037 0.153106,-0.1440998 0.252175,-0.8555928 0.666462,-1.0987613 0.936649,-1.0987613 0.126088,0 0.21615,0.045031 0.21615,0.2972059 0,0.090062 -0.009,0.2161498 -0.09907,0.486337 L 27.45075,5.2715838 Z"
         id="use21987" />
      <path
         inkscape:connector-curvature="0"
         d="m 31.023982,7.4510938 c 0,0.5854056 -0.126087,1.0987613 -0.684474,1.6571482 -0.03602,0.027019 -0.05404,0.045031 -0.05404,0.090062 0,0.07205 0.07205,0.1260874 0.135094,0.1260874 0.108075,0 0.855593,-0.711493 0.855593,-1.7652231 0,-0.5763993 -0.21615,-0.9726739 -0.612424,-0.9726739 -0.315219,0 -0.495344,0.2521747 -0.495344,0.4953432 0,0.2521747 0.171119,0.5043494 0.50435,0.5043494 0.21615,0 0.351243,-0.1260873 0.351243,-0.1350936 z"
         id="use21989" />
      <path
         inkscape:connector-curvature="0"
         d="m 36.843251,1.6060441 c 0.009,-0.018012 0.03602,-0.1350936 0.03602,-0.1440999 0,-0.045031 -0.03602,-0.1260873 -0.1441,-0.1260873 -0.03603,0 -0.315219,0.027019 -0.522362,0.045031 l -0.50435,0.036025 c -0.198137,0.018012 -0.288199,0.027019 -0.288199,0.1891311 0,0.1260873 0.126087,0.1260873 0.234162,0.1260873 0.4323,0 0.4323,0.054037 0.4323,0.1350936 0,0.054038 -0.07205,0.3512434 -0.117082,0.5313682 L 35.52834,4.15481 C 35.44728,4.0017039 35.186103,3.6144356 34.636722,3.6144356 c -1.071743,0 -2.25156,1.2518674 -2.25156,2.5847909 0,0.9366489 0.603418,1.4770233 1.296898,1.4770233 0.5764,0 1.071743,-0.4593182 1.233855,-0.639443 0.162113,0.6214306 0.774537,0.639443 0.882612,0.639443 0.414287,0 0.62143,-0.3422371 0.69348,-0.4953432 0.180125,-0.3242246 0.306212,-0.8465865 0.306212,-0.8826115 0,-0.054037 -0.03602,-0.1170811 -0.144099,-0.1170811 -0.108075,0 -0.126088,0.054037 -0.180125,0.2791934 -0.126088,0.4953432 -0.297206,0.9636677 -0.648449,0.9636677 -0.207144,0 -0.2882,-0.1711185 -0.2882,-0.4232933 0,-0.1711185 0.02702,-0.2701872 0.05404,-0.3872683 l 1.251868,-5.0074694 z m -1.927336,5.0074694 c -0.450312,0.6214306 -0.918636,0.8105616 -1.206836,0.8105616 -0.414287,0 -0.62143,-0.3782621 -0.62143,-0.8465865 0,-0.4232933 0.243168,-1.386961 0.441305,-1.7832356 0.261181,-0.5493806 0.702487,-0.9276427 1.116774,-0.9276427 0.585406,0 0.756524,0.6574555 0.756524,0.7655304 0,0.036025 -0.225156,0.9186365 -0.279193,1.1527987 -0.117081,0.4232933 -0.117081,0.4413058 -0.207144,0.8285741 z"
         id="use21991" />
      <path
         inkscape:connector-curvature="0"
         d="m 43.217074,5.541771 c 0.1441,0 0.342237,0 0.342237,-0.2071436 0,-0.2071435 -0.198137,-0.2071435 -0.342237,-0.2071435 l -5.160575,0 c -0.1441,0 -0.342238,0 -0.342238,0.2071435 0,0.2071436 0.198138,0.2071436 0.342238,0.2071436 l 5.160575,0 z"
         id="use21993" />
      <path
         inkscape:connector-curvature="0"
         d="m 47.192427,1.8492126 c 0,-0.2431685 -0.01801,-0.2521748 -0.261181,-0.2521748 -0.369256,0.3602496 -0.846587,0.5763994 -1.70218,0.5763994 l 0,0.2972059 c 0.243169,0 0.729506,0 1.251868,-0.2431685 l 0,4.6202012 c 0,0.3332308 -0.02702,0.4413057 -0.882612,0.4413057 l -0.315218,0 0,0.2972059 c 0.369256,-0.027019 1.143792,-0.027019 1.549073,-0.027019 0.405281,0 1.188824,0 1.55808,0.027019 l 0,-0.2972059 -0.315219,0 c -0.855593,0 -0.882611,-0.1080749 -0.882611,-0.4413057 l 0,-4.9984632 z"
         id="use21995" />
    </g>
    <g
       transform="matrix(1.25,0,0,1.2500001,112.90488,127.83236)"
       id="g10718">
      <path
         inkscape:connector-curvature="0"
         d="m 44.456838,86.95253 c 0,-0.391771 -0.324225,-0.661958 -0.64845,-0.661958 -0.391771,0 -0.661958,0.324224 -0.661958,0.648449 0,0.391772 0.324224,0.661959 0.648449,0.661959 0.391771,0 0.661959,-0.324225 0.661959,-0.64845 z"
         id="use9890" />
      <path
         inkscape:connector-curvature="0"
         d="m 50.38272,86.95253 c 0,-0.391771 -0.324224,-0.661958 -0.648449,-0.661958 -0.391772,0 -0.661959,0.324224 -0.661959,0.648449 0,0.391772 0.324225,0.661959 0.64845,0.661959 0.391771,0 0.661958,-0.324225 0.661958,-0.64845 z"
         id="use9892" />
      <path
         inkscape:connector-curvature="0"
         d="m 56.308594,86.95253 c 0,-0.391771 -0.324224,-0.661958 -0.648449,-0.661958 -0.391772,0 -0.661959,0.324224 -0.661959,0.648449 0,0.391772 0.324225,0.661959 0.64845,0.661959 0.391771,0 0.661958,-0.324225 0.661958,-0.64845 z"
         id="use9894" />
    </g>
    <rect
       style="opacity:1;fill:#cfffcf;fill-opacity:1;stroke:none;stroke-width:1;stroke-miterlimit:4;stroke-dasharray:none;stroke-dashoffset:0;stroke-opacity:1"
       id="rect53508"
       width="39.685715"
       height="92.768532"
       x="348.90146"
       y="160.04195" />
    <rect
       style="fill:none;fill-opacity:1;stroke:#000000;stroke-width:0.98500532;stroke-miterlimit:4;stroke-dasharray:none;stroke-dashoffset:0;stroke-opacity:1"
       id="rect53510"
       width="188.84915"
       height="92.906952"
       x="264.50797"
       y="159.96083" />
    <text
       xml:space="preserve"
       style="font-style:normal;font-weight:normal;font-size:27.67419624px;line-height:125%;font-family:sans-serif;letter-spacing:0px;word-spacing:0px;fill:#000000;fill-opacity:1;stroke:none;stroke-width:1px;stroke-linecap:butt;stroke-linejoin:miter;stroke-opacity:1"
       x="338.01904"
       y="134.54184"
       id="text53512"
       sodipodi:linespacing="125%"><tspan
         sodipodi:role="line"
         id="tspan53514"
         x="338.01904"
         y="134.54184"
         style="font-size:25px">item</tspan></text>
    <g
       transform="translate(254.57543,-352.47653)"
       id="g53518">
      <path
         inkscape:connector-curvature="0"
         d="m 113.49786,495.97628 c 0.1182,-0.2533 0.18576,-0.3884 1.24962,-0.3884 l 0,-0.72613 c -0.60792,0.0338 -0.6417,0.0338 -1.33405,0.0338 -0.45594,0 -0.48972,0 -1.45226,-0.0338 l 0,0.72613 c 0.45594,0 0.82745,0.0844 0.82745,0.20264 0,0.0169 0,0.0338 -0.0844,0.20264 l -1.97574,4.33989 -2.17839,-4.74517 0.92877,0 0,-0.72613 c -0.38839,0.0338 -1.57046,0.0338 -2.0264,0.0338 -0.48972,0 -1.46914,0 -1.9082,-0.0338 l 0,0.72613 1.06386,0 2.97206,6.45072 c 0.15198,0.32085 0.18576,0.40528 0.57415,0.40528 0.27019,0 0.40528,-0.0338 0.55726,-0.3715 l 2.78631,-6.0961 z"
         id="path53520" />
      <path
         inkscape:connector-curvature="0"
         d="m 119.81489,497.86759 c 0,-0.2139 -0.16886,-0.42779 -0.43905,-0.42779 -0.33773,0 -0.63044,0.31521 -0.63044,0.60792 0,0.21389 0.16887,0.42779 0.43906,0.42779 0.33773,0 0.63043,-0.31522 0.63043,-0.60792 z m -2.35288,7.58776 c -0.16886,0.68673 -0.72049,1.41848 -1.40722,1.41848 -0.18013,0 -0.34899,-0.045 -0.37151,-0.0563 0.34899,-0.16887 0.39402,-0.47283 0.39402,-0.57415 0,-0.27019 -0.20264,-0.41654 -0.43905,-0.41654 -0.32648,0 -0.63044,0.28144 -0.63044,0.65295 0,0.4278 0.41654,0.70924 1.05824,0.70924 0.68672,0 1.92508,-0.42779 2.26281,-1.77873 l 1.01321,-4.03029 c 0.0338,-0.1351 0.0563,-0.22516 0.0563,-0.39403 0,-0.61917 -0.49534,-1.05823 -1.14829,-1.05823 -1.19333,0 -1.89131,1.57609 -1.89131,1.72244 0,0.10133 0.0788,0.14636 0.16887,0.14636 0.12383,0 0.13509,-0.0338 0.21389,-0.20264 0.33774,-0.77679 0.91189,-1.35094 1.47478,-1.35094 0.23641,0 0.3715,0.15761 0.3715,0.52912 0,0.15761 -0.0338,0.31521 -0.0675,0.47282 l -1.05823,4.21042 z"
         id="path53522" />
    </g>
    <g
       id="g53526"
       transform="matrix(1.2500001,0,0,1.2500001,295.11731,167.39768)">
      <path
         id="path53528"
         d="m 55.885932,0.50727936 c 0,-0.85108968 -0.4323,-0.90512712 -0.540375,-0.90512712 -0.324224,0 -0.62143,0.32422464 -0.62143,0.59441184 0,0.16211232 0.09456,0.25667784 0.148603,0.31071528 0.135093,0.12158424 0.486337,0.48633696 0.486337,1.18882364 0,0.5673932 -0.810562,3.7285834 -2.431685,3.7285834 -0.824071,0 -0.986183,-0.6889774 -0.986183,-1.1888237 0,-0.675468 0.310715,-1.6211232 0.675468,-2.5937971 0.216149,-0.5538838 0.270187,-0.68897736 0.270187,-0.95916456 0,-0.56739312 -0.405281,-1.0807488 -1.06724,-1.0807488 -1.242861,0 -1.742707,1.95885716 -1.742707,2.06693206 0,0.054037 0.05404,0.1215843 0.148603,0.1215843 0.121584,0 0.135093,-0.054037 0.189131,-0.2431685 0.324225,-1.16180498 0.85109,-1.67516066 1.364445,-1.67516066 0.121585,0 0.351244,0 0.351244,0.44580888 0,0.35124336 -0.148603,0.74301478 -0.351244,1.25637048 -0.648449,1.7291981 -0.648449,2.1479882 -0.648449,2.4722129 0,0.2972059 0.04053,0.8510897 0.459318,1.2293517 0.486337,0.4187902 1.161805,0.4187902 1.283389,0.4187902 2.242554,0 3.012588,-4.4175607 3.012588,-5.18759424 z"
         inkscape:connector-curvature="0" />
      <path
         id="path53530"
         d="m 59.826162,1.9662937 c 0,-0.1711186 -0.135094,-0.3422371 -0.351243,-0.3422371 -0.270188,0 -0.50435,0.2521747 -0.50435,0.4863369 0,0.1711186 0.135094,0.3422371 0.351244,0.3422371 0.270187,0 0.504349,-0.2521747 0.504349,-0.4863369 z m -1.882304,6.0702057 c -0.135094,0.5493807 -0.576399,1.1347863 -1.12578,1.1347863 -0.1441,0 -0.279194,-0.036025 -0.297206,-0.045031 0.279193,-0.1350936 0.315218,-0.3782621 0.315218,-0.4593183 0,-0.2161497 -0.162112,-0.3332308 -0.351243,-0.3332308 -0.261181,0 -0.504349,0.225156 -0.504349,0.5223619 0,0.3422371 0.33323,0.5673931 0.846586,0.5673931 0.549381,0 1.540067,-0.3422371 1.810254,-1.4229859 L 59.4479,4.7762406 c 0.02702,-0.1080749 0.04503,-0.1801248 0.04503,-0.3152184 0,-0.4953432 -0.396274,-0.8465866 -0.918636,-0.8465866 -0.954662,0 -1.513049,1.2608736 -1.513049,1.3779547 0,0.081056 0.06304,0.1170811 0.135094,0.1170811 0.09907,0 0.108075,-0.027019 0.171119,-0.1621123 0.270187,-0.6214305 0.729505,-1.0807488 1.179817,-1.0807488 0.189131,0 0.297206,0.1260874 0.297206,0.4232933 0,0.1260874 -0.02702,0.2521747 -0.05404,0.3782621 l -0.846586,3.3683337 z"
         inkscape:connector-curvature="0" />
      <path
         id="path53532"
         d="m 61.648793,7.4510938 c 0,0.5854056 -0.126087,1.0987613 -0.684474,1.6571482 -0.03603,0.027019 -0.05404,0.045031 -0.05404,0.090062 0,0.07205 0.07205,0.1260874 0.135093,0.1260874 0.108075,0 0.855593,-0.711493 0.855593,-1.7652231 0,-0.5763993 -0.21615,-0.9726739 -0.612424,-0.9726739 -0.315219,0 -0.495343,0.2521747 -0.495343,0.4953432 0,0.2521747 0.171118,0.5043494 0.504349,0.5043494 0.21615,0 0.351243,-0.1260873 0.351243,-0.1350936 z"
         inkscape:connector-curvature="0" />
      <path
         id="path53534"
         d="m 67.026645,4.7131969 c 0,-0.9636677 -0.09907,-1.5490733 -0.396275,-2.1254727 -0.396275,-0.7925491 -1.12578,-0.9906864 -1.621123,-0.9906864 -1.134786,0 -1.549073,0.8465866 -1.675161,1.0987613 -0.324224,0.6574555 -0.342237,1.5490733 -0.342237,2.0173978 0,0.5944118 0.02702,1.5040421 0.459318,2.2245413 0.414287,0.6664617 1.080749,0.8375803 1.55808,0.8375803 0.432299,0 1.206836,-0.1350936 1.657148,-1.0267114 0.333231,-0.6484493 0.36025,-1.4500046 0.36025,-2.0354102 z m -2.017398,2.8099469 c -0.306212,0 -0.927643,-0.1440999 -1.116774,-1.0897551 -0.09907,-0.5133557 -0.09907,-1.3599422 -0.09907,-1.8282667 0,-0.6214306 0,-1.2518674 0.09907,-1.7472106 0.189131,-0.9186364 0.891618,-1.0086988 1.116774,-1.0086988 0.306212,0 0.927643,0.153106 1.107767,0.9726739 0.108075,0.4953432 0.108075,1.1708112 0.108075,1.7832355 0,0.5313682 0,1.3419298 -0.108075,1.8462792 -0.189131,0.9456552 -0.810561,1.0717426 -1.107767,1.0717426 z"
         inkscape:connector-curvature="0" />
    </g>
    <g
       id="g53536"
       transform="matrix(1.2500001,0,0,1.2500001,265.03196,232.74008)">
      <path
         id="path53538"
         d="m 74.143826,0.50727936 c 0,-0.85108968 -0.4323,-0.90512712 -0.540375,-0.90512712 -0.324224,0 -0.62143,0.32422464 -0.62143,0.59441184 0,0.16211232 0.09457,0.25667784 0.148603,0.31071528 0.135093,0.12158424 0.486337,0.48633696 0.486337,1.18882364 0,0.5673932 -0.810562,3.7285834 -2.431685,3.7285834 -0.824071,0 -0.986183,-0.6889774 -0.986183,-1.1888237 0,-0.675468 0.310715,-1.6211232 0.675468,-2.5937971 0.216149,-0.5538838 0.270187,-0.68897736 0.270187,-0.95916456 0,-0.56739312 -0.405281,-1.0807488 -1.06724,-1.0807488 -1.242861,0 -1.742707,1.95885716 -1.742707,2.06693206 0,0.054037 0.05404,0.1215843 0.148603,0.1215843 0.121584,0 0.135094,-0.054037 0.189131,-0.2431685 0.324225,-1.16180498 0.85109,-1.67516066 1.364445,-1.67516066 0.121585,0 0.351244,0 0.351244,0.44580888 0,0.35124336 -0.148603,0.74301478 -0.351244,1.25637048 -0.648449,1.7291981 -0.648449,2.1479882 -0.648449,2.4722129 0,0.2972059 0.04053,0.8510897 0.459318,1.2293517 0.486337,0.4187902 1.161805,0.4187902 1.283389,0.4187902 2.242554,0 3.012588,-4.4175607 3.012588,-5.18759424 z"
         inkscape:connector-curvature="0" />
      <path
         id="path53540"
         d="m 78.084056,1.9662937 c 0,-0.1711186 -0.135093,-0.3422371 -0.351243,-0.3422371 -0.270187,0 -0.50435,0.2521747 -0.50435,0.4863369 0,0.1711186 0.135094,0.3422371 0.351244,0.3422371 0.270187,0 0.504349,-0.2521747 0.504349,-0.4863369 z m -1.882304,6.0702057 c -0.135094,0.5493807 -0.576399,1.1347863 -1.12578,1.1347863 -0.1441,0 -0.279193,-0.036025 -0.297206,-0.045031 0.279193,-0.1350936 0.315218,-0.3782621 0.315218,-0.4593183 0,-0.2161497 -0.162112,-0.3332308 -0.351243,-0.3332308 -0.261181,0 -0.504349,0.225156 -0.504349,0.5223619 0,0.3422371 0.333231,0.5673931 0.846586,0.5673931 0.549381,0 1.540067,-0.3422371 1.810254,-1.4229859 l 0.810562,-3.2242339 c 0.02702,-0.1080749 0.04503,-0.1801248 0.04503,-0.3152184 0,-0.4953432 -0.396274,-0.8465866 -0.918636,-0.8465866 -0.954662,0 -1.513049,1.2608736 -1.513049,1.3779547 0,0.081056 0.06304,0.1170811 0.135094,0.1170811 0.09907,0 0.108075,-0.027019 0.171119,-0.1621123 0.270187,-0.6214305 0.729505,-1.0807488 1.179817,-1.0807488 0.189131,0 0.297206,0.1260874 0.297206,0.4232933 0,0.1260874 -0.02702,0.2521747 -0.05404,0.3782621 l -0.846587,3.3683337 z"
         inkscape:connector-curvature="0" />
      <path
         id="path53542"
         d="m 79.906696,7.4510938 c 0,0.5854056 -0.126087,1.0987613 -0.684474,1.6571482 -0.03602,0.027019 -0.05404,0.045031 -0.05404,0.090062 0,0.07205 0.07205,0.1260874 0.135094,0.1260874 0.108075,0 0.855593,-0.711493 0.855593,-1.7652231 0,-0.5763993 -0.21615,-0.9726739 -0.612424,-0.9726739 -0.315219,0 -0.495344,0.2521747 -0.495344,0.4953432 0,0.2521747 0.171119,0.5043494 0.50435,0.5043494 0.21615,0 0.351243,-0.1260873 0.351243,-0.1350936 z"
         inkscape:connector-curvature="0" />
      <path
         id="path53544"
         d="m 85.725853,1.6060441 c 0.009,-0.018012 0.03602,-0.1350936 0.03602,-0.1440999 0,-0.045031 -0.03602,-0.1260873 -0.1441,-0.1260873 -0.03602,0 -0.315218,0.027019 -0.522362,0.045031 l -0.504349,0.036025 c -0.198137,0.018012 -0.2882,0.027019 -0.2882,0.1891311 0,0.1260873 0.126087,0.1260873 0.234162,0.1260873 0.4323,0 0.4323,0.054037 0.4323,0.1350936 0,0.054038 -0.07205,0.3512434 -0.117081,0.5313682 L 84.410942,4.15481 c -0.08106,-0.1531061 -0.342237,-0.5403744 -0.891618,-0.5403744 -1.071742,0 -2.25156,1.2518674 -2.25156,2.5847909 0,0.9366489 0.603418,1.4770233 1.296899,1.4770233 0.576399,0 1.071742,-0.4593182 1.233855,-0.639443 0.162112,0.6214306 0.774536,0.639443 0.882611,0.639443 0.414287,0 0.621431,-0.3422371 0.693481,-0.4953432 0.180124,-0.3242246 0.306212,-0.8465865 0.306212,-0.8826115 0,-0.054037 -0.03603,-0.1170811 -0.1441,-0.1170811 -0.108075,0 -0.126087,0.054037 -0.180125,0.2791934 -0.126087,0.4953432 -0.297206,0.9636677 -0.648449,0.9636677 -0.207144,0 -0.2882,-0.1711185 -0.2882,-0.4232933 0,-0.1711185 0.02702,-0.2701872 0.05404,-0.3872683 l 1.251867,-5.0074694 z m -1.927335,5.0074694 c -0.450312,0.6214306 -0.918637,0.8105616 -1.206836,0.8105616 -0.414288,0 -0.621431,-0.3782621 -0.621431,-0.8465865 0,-0.4232933 0.243168,-1.386961 0.441306,-1.7832356 0.261181,-0.5493806 0.702486,-0.9276427 1.116773,-0.9276427 0.585406,0 0.756525,0.6574555 0.756525,0.7655304 0,0.036025 -0.225156,0.9186365 -0.279194,1.1527987 -0.117081,0.4232933 -0.117081,0.4413058 -0.207143,0.8285741 z"
         inkscape:connector-curvature="0" />
      <path
         id="path53546"
         d="m 92.100011,5.541771 c 0.1441,0 0.342238,0 0.342238,-0.2071436 0,-0.2071435 -0.198138,-0.2071435 -0.342238,-0.2071435 l -5.160575,0 c -0.1441,0 -0.342237,0 -0.342237,0.2071435 0,0.2071436 0.198137,0.2071436 0.342237,0.2071436 l 5.160575,0 z"
         inkscape:connector-curvature="0" />
      <path
         id="path53548"
         d="m 96.075149,1.8492126 c 0,-0.2431685 -0.01801,-0.2521748 -0.261181,-0.2521748 -0.369256,0.3602496 -0.846586,0.5763994 -1.702179,0.5763994 l 0,0.2972059 c 0.243168,0 0.729505,0 1.251867,-0.2431685 l 0,4.6202012 c 0,0.3332308 -0.02702,0.4413057 -0.882611,0.4413057 l -0.315219,0 0,0.2972059 c 0.369256,-0.027019 1.143793,-0.027019 1.549074,-0.027019 0.40528,0 1.188823,0 1.558079,0.027019 l 0,-0.2972059 -0.315218,0 c -0.855593,0 -0.882612,-0.1080749 -0.882612,-0.4413057 l 0,-4.9984632 z"
         inkscape:connector-curvature="0" />
    </g>
    <g
       transform="matrix(1.25,0,0,1.2500001,307.07385,97.550462)"
       id="g53550">
      <path
         inkscape:connector-curvature="0"
         d="m 44.456838,86.95253 c 0,-0.391771 -0.324225,-0.661958 -0.64845,-0.661958 -0.391771,0 -0.661958,0.324224 -0.661958,0.648449 0,0.391772 0.324224,0.661959 0.648449,0.661959 0.391771,0 0.661959,-0.324225 0.661959,-0.64845 z"
         id="path53552" />
      <path
         inkscape:connector-curvature="0"
         d="m 50.38272,86.95253 c 0,-0.391771 -0.324224,-0.661958 -0.648449,-0.661958 -0.391772,0 -0.661959,0.324224 -0.661959,0.648449 0,0.391772 0.324225,0.661959 0.64845,0.661959 0.391771,0 0.661958,-0.324225 0.661958,-0.64845 z"
         id="path53554" />
      <path
         inkscape:connector-curvature="0"
         d="m 56.308594,86.95253 c 0,-0.391771 -0.324224,-0.661958 -0.648449,-0.661958 -0.391772,0 -0.661959,0.324224 -0.661959,0.648449 0,0.391772 0.324225,0.661959 0.64845,0.661959 0.391771,0 0.661958,-0.324225 0.661958,-0.64845 z"
         id="path53556" />
    </g>
    <rect
       style="fill:none;fill-opacity:1;stroke:#000000;stroke-width:1.43008029;stroke-miterlimit:4;stroke-dasharray:none;stroke-dashoffset:0;stroke-opacity:1"
       id="rect4136-5-3"
       width="203.5706"
       height="250.69917"
       x="-134.82724"
       y="160.09464" />
    <text
       xml:space="preserve"
       style="font-style:normal;font-weight:normal;font-size:40px;line-height:125%;font-family:sans-serif;letter-spacing:0px;word-spacing:0px;fill:#000000;fill-opacity:1;stroke:none;stroke-width:1px;stroke-linecap:butt;stroke-linejoin:miter;stroke-opacity:1"
       x="550.11053"
       y="7.5297475"
       id="text3852"
       sodipodi:linespacing="125%"><tspan
         sodipodi:role="line"
         id="tspan3854"
         x="550.11053"
         y="7.5297475" /></text>
    <text
       xml:space="preserve"
       style="font-style:normal;font-weight:normal;font-size:27.67419624px;line-height:125%;font-family:sans-serif;letter-spacing:0px;word-spacing:0px;fill:#000000;fill-opacity:1;stroke:none;stroke-width:1px;stroke-linecap:butt;stroke-linejoin:miter;stroke-opacity:1"
       x="151.4151"
       y="131.77847"
       id="text53512-6"
       sodipodi:linespacing="125%"><tspan
         sodipodi:role="line"
         id="tspan53514-7"
         x="151.4151"
         y="131.77847"
         style="font-size:25px">user</tspan></text>
    <text
       xml:space="preserve"
       style="font-style:normal;font-weight:normal;font-size:25px;line-height:125%;font-family:sans-serif;letter-spacing:0px;word-spacing:0px;fill:#000000;fill-opacity:1;stroke:none;stroke-width:1px;stroke-linecap:butt;stroke-linejoin:miter;stroke-opacity:1"
       x="-76.334793"
       y="133.85956"
       id="text53512-5"
       sodipodi:linespacing="125%"><tspan
         sodipodi:role="line"
         id="tspan53514-3"
         x="-76.334793"
         y="133.85956">ratings</tspan></text>
    <rect
       style="opacity:1;fill:#ffcfcf;fill-opacity:1;stroke:none;stroke-width:1;stroke-miterlimit:4;stroke-dasharray:none;stroke-dashoffset:0;stroke-opacity:1"
       id="rect25955-5"
       width="201.96742"
       height="25.02475"
       x="-134.07535"
       y="224.02666" />
    <rect
       style="opacity:1;fill:#cfffcf;fill-opacity:1;stroke:none;stroke-width:1;stroke-miterlimit:4;stroke-dasharray:none;stroke-dashoffset:0;stroke-opacity:1"
       id="rect53508-6"
       width="31.091356"
       height="248.47809"
       x="-21.660238"
       y="161.20517" />
    <use
       height="100%"
       width="100%"
       id="use10"
       y="66"
       xlink:href="#g0-82"
       x="56.624802"
       transform="matrix(1.407225,0,0,1.4072249,-237.74812,-115.23912)" />
    <use
       height="100%"
       width="100%"
       id="use12"
       y="66"
       xlink:href="#g0-85"
       x="65.667099"
       transform="matrix(1.407225,0,0,1.4072249,-227.02608,-129.72328)" />
    <use
       height="100%"
       width="100%"
       id="use14"
       y="66"
       xlink:href="#g0-86"
       x="74.900703"
       transform="matrix(1.407225,0,0,1.4072249,-227.02608,-129.72328)" />
    <use
       height="100%"
       width="100%"
       id="use10-2"
       y="66"
       xlink:href="#g0-82"
       x="56.624802"
       transform="matrix(1.407225,0,0,1.4072249,-237.74812,-115.23912)" />
    <use
       height="100%"
       width="100%"
       id="use12-9"
       y="66"
       xlink:href="#g0-85"
       x="65.667099"
       transform="matrix(1.407225,0,0,1.4072249,-227.02608,-129.72328)" />
    <use
       height="100%"
       width="100%"
       id="use14-1"
       y="66"
       xlink:href="#g0-86"
       x="74.900703"
       transform="matrix(1.407225,0,0,1.4072249,-227.02608,-129.72328)" />
    <use
       height="100%"
       width="100%"
       id="use10-3"
       y="66"
       xlink:href="#g0-82"
       x="56.624802"
       transform="matrix(1.407225,0,0,1.4072249,738.33401,318.43931)" />
    <use
       height="100%"
       width="100%"
       id="use12-6"
       y="66"
       xlink:href="#g0-85"
       x="65.667099"
       transform="matrix(1.407225,0,0,1.4072249,749.05606,303.95515)" />
    <use
       height="100%"
       width="100%"
       id="use14-0"
       y="66"
       xlink:href="#g0-86"
       x="74.900703"
       transform="matrix(1.407225,0,0,1.4072249,749.05606,303.95515)" />
    <use
       height="100%"
       width="100%"
       id="use10-6"
       y="66"
       xlink:href="#g0-82"
       x="56.624802"
       transform="matrix(1.407225,0,0,1.4072249,738.33401,318.43931)" />
    <use
       height="100%"
       width="100%"
       id="use12-2"
       y="66"
       xlink:href="#g0-85"
       x="65.667099"
       transform="matrix(1.407225,0,0,1.4072249,749.05606,303.95515)" />
    <use
       height="100%"
       width="100%"
       id="use14-6"
       y="66"
       xlink:href="#g0-86"
       x="74.900703"
       transform="matrix(1.407225,0,0,1.4072249,749.05606,303.95515)" />
    <g
       id="g7352"
       transform="matrix(1.2078635,0,0,1.2078635,-18.93925,-332.24311)">
      <g
         transform="matrix(1.25,0,0,1.25,0.96938526,473.51599)"
         style="fill:#000000;fill-opacity:1"
         id="use6631">
        <path
           inkscape:connector-curvature="0"
           style="stroke:none"
           d="m 0.875,-0.59375 c -0.03125,0.15625 -0.09375,0.390625 -0.09375,0.4375 0,0.171875 0.140625,0.265625 0.296875,0.265625 0.125,0 0.296875,-0.078125 0.375,-0.28125 C 1.46875,-0.203125 1.796875,-1.5625 1.84375,-1.75 c 0.078125,-0.328125 0.265625,-1.015625 0.3125,-1.296875 0.046875,-0.125 0.328125,-0.59375 0.5625,-0.8125 0.078125,-0.0625 0.375,-0.328125 0.796875,-0.328125 0.265625,0 0.40625,0.125 0.421875,0.125 -0.296875,0.046875 -0.515625,0.28125 -0.515625,0.546875 0,0.15625 0.109375,0.34375 0.375,0.34375 0.265625,0 0.546875,-0.234375 0.546875,-0.59375 0,-0.34375 -0.3125,-0.640625 -0.828125,-0.640625 C 2.875,-4.40625 2.4375,-3.921875 2.25,-3.640625 2.15625,-4.09375 1.796875,-4.40625 1.328125,-4.40625 0.875,-4.40625 0.6875,-4.015625 0.59375,-3.84375 0.421875,-3.5 0.296875,-2.90625 0.296875,-2.875 c 0,0.109375 0.09375,0.109375 0.109375,0.109375 0.109375,0 0.109375,-0.015625 0.171875,-0.234375 0.171875,-0.703125 0.375,-1.1875 0.734375,-1.1875 0.15625,0 0.296875,0.078125 0.296875,0.453125 0,0.21875 -0.03125,0.328125 -0.15625,0.84375 z m 0,0"
           id="path7296" />
      </g>
      <g
         transform="matrix(1.25,0,0,1.25,6.5831553,475.38366)"
         style="fill:#000000;fill-opacity:1"
         id="use6635">
        <path
           inkscape:connector-curvature="0"
           style="stroke:none"
           d="m 2.265625,-4.359375 c 0,-0.109375 -0.09375,-0.265625 -0.28125,-0.265625 -0.1875,0 -0.390625,0.1875 -0.390625,0.390625 0,0.109375 0.078125,0.265625 0.28125,0.265625 0.1875,0 0.390625,-0.203125 0.390625,-0.390625 z M 0.84375,-0.8125 c -0.03125,0.09375 -0.0625,0.171875 -0.0625,0.296875 0,0.328125 0.265625,0.578125 0.65625,0.578125 0.6875,0 1,-0.953125 1,-1.0625 0,-0.09375 -0.09375,-0.09375 -0.109375,-0.09375 -0.09375,0 -0.109375,0.046875 -0.140625,0.125 -0.15625,0.5625 -0.453125,0.84375 -0.734375,0.84375 -0.140625,0 -0.171875,-0.09375 -0.171875,-0.25 0,-0.15625 0.046875,-0.28125 0.109375,-0.4375 C 1.46875,-1 1.546875,-1.1875 1.609375,-1.375 1.671875,-1.546875 1.9375,-2.171875 1.953125,-2.265625 1.984375,-2.328125 2,-2.40625 2,-2.484375 2,-2.8125 1.71875,-3.078125 1.34375,-3.078125 0.640625,-3.078125 0.328125,-2.125 0.328125,-2 c 0,0.078125 0.09375,0.078125 0.125,0.078125 0.09375,0 0.09375,-0.03125 0.125,-0.109375 C 0.75,-2.625 1.0625,-2.875 1.3125,-2.875 c 0.109375,0 0.171875,0.046875 0.171875,0.234375 0,0.171875 -0.03125,0.265625 -0.203125,0.703125 z m 0,0"
           id="path7292" />
      </g>
      <g
         transform="matrix(1.25,0,0,1.25,10.104955,475.38366)"
         style="fill:#000000;fill-opacity:1"
         id="use6637">
        <path
           inkscape:connector-curvature="0"
           style="stroke:none"
           d="m 1.46875,-0.109375 c 0,0.375 -0.0625,0.828125 -0.546875,1.265625 C 0.90625,1.1875 0.875,1.21875 0.875,1.25 c 0,0.046875 0.0625,0.09375 0.09375,0.09375 0.109375,0 0.703125,-0.5625 0.703125,-1.390625 0,-0.421875 -0.171875,-0.75 -0.5,-0.75 -0.21875,0 -0.390625,0.171875 -0.390625,0.390625 C 0.78125,-0.1875 0.9375,0 1.1875,0 1.359375,0 1.46875,-0.109375 1.46875,-0.109375 Z m 0,0"
           id="path7288" />
      </g>
      <g
         transform="matrix(1.25,0,0,1.25,13.063705,475.38366)"
         style="fill:#000000;fill-opacity:1"
         id="use6641">
        <path
           inkscape:connector-curvature="0"
           style="stroke:none"
           d="M 3.0625,-4.359375 C 3.0625,-4.46875 2.96875,-4.625 2.78125,-4.625 c -0.203125,0 -0.390625,0.203125 -0.390625,0.390625 0,0.109375 0.078125,0.265625 0.28125,0.265625 0.1875,0 0.390625,-0.1875 0.390625,-0.390625 z M 1.578125,0.34375 C 1.46875,0.828125 1.09375,1.21875 0.6875,1.21875 c -0.09375,0 -0.171875,0 -0.25,-0.03125 0.171875,-0.09375 0.234375,-0.25 0.234375,-0.359375 0,-0.171875 -0.140625,-0.25 -0.28125,-0.25 C 0.1875,0.578125 0,0.765625 0,0.984375 c 0,0.265625 0.265625,0.4375 0.6875,0.4375 0.421875,0 1.234375,-0.25 1.453125,-1.09375 l 0.625,-2.5 c 0.015625,-0.078125 0.03125,-0.140625 0.03125,-0.25 0,-0.375 -0.328125,-0.65625 -0.734375,-0.65625 -0.78125,0 -1.21875,0.96875 -1.21875,1.078125 0,0.078125 0.09375,0.078125 0.109375,0.078125 0.078125,0 0.09375,-0.015625 0.140625,-0.125 C 1.265625,-2.453125 1.625,-2.875 2.03125,-2.875 c 0.171875,0 0.234375,0.109375 0.234375,0.34375 0,0.078125 0,0.171875 -0.015625,0.203125 z m 0,0"
           id="path7284" />
      </g>
    </g>
    <g
       id="use6645"
       style="fill:#000000;fill-opacity:1"
       transform="matrix(3.2608575,0,0,3.2608575,-50.077925,437.18215)">
      <path
         id="path7280"
         d="m 3.734375,-6.125 c 0.0625,-0.234375 0.09375,-0.328125 0.28125,-0.359375 C 4.109375,-6.5 4.421875,-6.5 4.625,-6.5 c 0.703125,0 1.8125,0 1.8125,0.984375 0,0.34375 -0.15625,1.03125 -0.546875,1.421875 -0.265625,0.25 -0.78125,0.578125 -1.6875,0.578125 l -1.109375,0 z m 1.4375,2.734375 c 1.015625,-0.21875 2.1875,-0.921875 2.1875,-1.921875 0,-0.859375 -0.890625,-1.5 -2.203125,-1.5 l -2.828125,0 c -0.203125,0 -0.296875,0 -0.296875,0.203125 C 2.03125,-6.5 2.125,-6.5 2.3125,-6.5 c 0.015625,0 0.203125,0 0.375,0.015625 0.1875,0.03125 0.265625,0.03125 0.265625,0.171875 0,0.03125 0,0.0625 -0.03125,0.1875 l -1.34375,5.34375 C 1.484375,-0.390625 1.46875,-0.3125 0.671875,-0.3125 0.5,-0.3125 0.40625,-0.3125 0.40625,-0.109375 0.40625,0 0.53125,0 0.546875,0 c 0.28125,0 0.984375,-0.03125 1.25,-0.03125 0.28125,0 1,0.03125 1.28125,0.03125 0.078125,0 0.1875,0 0.1875,-0.203125 0,-0.109375 -0.078125,-0.109375 -0.28125,-0.109375 -0.359375,0 -0.640625,0 -0.640625,-0.171875 0,-0.0625 0.015625,-0.109375 0.03125,-0.171875 l 0.65625,-2.640625 1.1875,0 c 0.90625,0 1.078125,0.5625 1.078125,0.90625 0,0.140625 -0.078125,0.453125 -0.140625,0.6875 C 5.09375,-1.421875 5,-1.0625 5,-0.859375 5,0.21875 6.203125,0.21875 6.328125,0.21875 c 0.84375,0 1.203125,-1 1.203125,-1.140625 0,-0.125 -0.109375,-0.125 -0.125,-0.125 -0.09375,0 -0.109375,0.0625 -0.125,0.140625 C 7.03125,-0.171875 6.59375,0 6.375,0 6.046875,0 5.96875,-0.21875 5.96875,-0.609375 c 0,-0.3125 0.0625,-0.8125 0.109375,-1.140625 0.015625,-0.140625 0.03125,-0.328125 0.03125,-0.46875 0,-0.765625 -0.671875,-1.078125 -0.9375,-1.171875 z m 0,0"
         style="stroke:none"
         inkscape:connector-curvature="0" />
    </g>
    <g
       id="use6649"
       style="fill:#000000;fill-opacity:1"
       transform="matrix(3.2608575,0,0,3.2608575,167.3625,438.35394)">
      <path
         id="path7276"
         d="M 6.328125,-5.765625 C 6.4375,-6.171875 6.609375,-6.46875 7.40625,-6.5 c 0.046875,0 0.171875,-0.015625 0.171875,-0.203125 0,0 0,-0.109375 -0.125,-0.109375 -0.328125,0 -0.6875,0.03125 -1.015625,0.03125 -0.34375,0 -0.71875,-0.03125 -1.046875,-0.03125 -0.0625,0 -0.171875,0 -0.171875,0.203125 C 5.21875,-6.5 5.3125,-6.5 5.390625,-6.5 c 0.578125,0.015625 0.6875,0.21875 0.6875,0.4375 0,0.03125 -0.03125,0.1875 -0.03125,0.203125 l -0.90625,3.5625 C 4.8125,-0.953125 3.65625,-0.09375 2.65625,-0.09375 c -0.671875,0 -1.203125,-0.4375 -1.203125,-1.296875 0,-0.015625 0,-0.328125 0.109375,-0.765625 L 2.515625,-6.046875 C 2.609375,-6.40625 2.625,-6.5 3.359375,-6.5 c 0.265625,0 0.34375,0 0.34375,-0.203125 0,-0.109375 -0.109375,-0.109375 -0.140625,-0.109375 -0.28125,0 -1,0.03125 -1.28125,0.03125 -0.28125,0 -1,-0.03125 -1.28125,-0.03125 -0.078125,0 -0.1875,0 -0.1875,0.203125 C 0.8125,-6.5 0.890625,-6.5 1.09375,-6.5 c 0.015625,0 0.203125,0 0.375,0.015625 0.171875,0.03125 0.265625,0.03125 0.265625,0.171875 0,0.046875 -0.109375,0.46875 -0.171875,0.703125 l -0.21875,0.875 C 1.25,-4.34375 0.78125,-2.46875 0.734375,-2.265625 0.671875,-2 0.671875,-1.84375 0.671875,-1.6875 c 0,1.203125 0.90625,1.90625 1.953125,1.90625 1.25,0 2.484375,-1.125 2.8125,-2.4375 z m 0,0"
         style="stroke:none"
         inkscape:connector-curvature="0" />
    </g>
    <g
       id="use6653"
       style="fill:#000000;fill-opacity:1"
       transform="matrix(3.2608575,0,0,3.2608575,346.26861,278.88629)">
      <path
         id="path7272"
         d="M 6.265625,-5.671875 C 6.75,-6.453125 7.171875,-6.484375 7.53125,-6.5 c 0.125,-0.015625 0.140625,-0.171875 0.140625,-0.1875 0,-0.078125 -0.0625,-0.125 -0.140625,-0.125 -0.25,0 -0.546875,0.03125 -0.8125,0.03125 -0.328125,0 -0.671875,-0.03125 -0.984375,-0.03125 -0.0625,0 -0.1875,0 -0.1875,0.1875 0,0.109375 0.078125,0.125 0.15625,0.125 0.265625,0.015625 0.453125,0.125 0.453125,0.328125 0,0.15625 -0.140625,0.375 -0.140625,0.375 l -3.0625,4.875 -0.6875,-5.28125 C 2.265625,-6.375 2.5,-6.5 2.953125,-6.5 c 0.140625,0 0.25,0 0.25,-0.203125 0,-0.078125 -0.078125,-0.109375 -0.125,-0.109375 -0.40625,0 -0.828125,0.03125 -1.25,0.03125 -0.171875,0 -0.359375,0 -0.546875,0 -0.171875,0 -0.359375,-0.03125 -0.53125,-0.03125 -0.078125,0 -0.1875,0 -0.1875,0.1875 0,0.125 0.078125,0.125 0.25,0.125 0.546875,0 0.5625,0.09375 0.59375,0.34375 L 2.1875,-0.015625 C 2.21875,0.1875 2.265625,0.21875 2.390625,0.21875 c 0.15625,0 0.203125,-0.046875 0.28125,-0.171875 z m 0,0"
         style="stroke:none"
         inkscape:connector-curvature="0" />
    </g>
  </g>
</svg>
