<?xml version="1.0" encoding="utf-8" standalone="no"?>
<!DOCTYPE svg PUBLIC "-//W3C//DTD SVG 1.1//EN"
  "http://www.w3.org/Graphics/SVG/1.1/DTD/svg11.dtd">
<!-- Created with matplotlib (http://matplotlib.org/) -->
<svg height="345pt" version="1.1" viewBox="0 0 460 345" width="460pt" xmlns="http://www.w3.org/2000/svg" xmlns:xlink="http://www.w3.org/1999/xlink">
 <defs>
  <style type="text/css">
*{stroke-linecap:butt;stroke-linejoin:round;}
  </style>
 </defs>
 <g id="figure_1">
  <g id="patch_1">
   <path d="M 0 345.6 
L 460.8 345.6 
L 460.8 0 
L 0 0 
z
" style="fill:#ffffff;"/>
  </g>
  <g id="axes_1">
   <g id="patch_2">
    <path d="M 57.6 307.584 
L 414.72 307.584 
L 414.72 41.472 
L 57.6 41.472 
z
" style="fill:#ffffff;"/>
   </g>
   <g id="matplotlib.axis_1">
    <g id="xtick_1">
     <g id="line2d_1">
      <defs>
       <path d="M 0 0 
L 0 3.5 
" id="mb14c9f4bd4" style="stroke:#000000;stroke-width:0.8;"/>
      </defs>
      <g>
       <use style="stroke:#000000;stroke-width:0.8;" x="73.832727" xlink:href="#mb14c9f4bd4" y="307.584"/>
      </g>
     </g>
     <g id="text_1">
      <!-- 0 -->
      <defs>
       <path d="M 31.78125 66.40625 
Q 24.171875 66.40625 20.328125 58.90625 
Q 16.5 51.421875 16.5 36.375 
Q 16.5 21.390625 20.328125 13.890625 
Q 24.171875 6.390625 31.78125 6.390625 
Q 39.453125 6.390625 43.28125 13.890625 
Q 47.125 21.390625 47.125 36.375 
Q 47.125 51.421875 43.28125 58.90625 
Q 39.453125 66.40625 31.78125 66.40625 
M 31.78125 74.21875 
Q 44.046875 74.21875 50.515625 64.515625 
Q 56.984375 54.828125 56.984375 36.375 
Q 56.984375 17.96875 50.515625 8.265625 
Q 44.046875 -1.421875 31.78125 -1.421875 
Q 19.53125 -1.421875 13.0625 8.265625 
Q 6.59375 17.96875 6.59375 36.375 
Q 6.59375 54.828125 13.0625 64.515625 
Q 19.53125 74.21875 31.78125 74.21875 
" id="DejaVuSans-30"/>
      </defs>
      <g transform="translate(70.651477 322.182437)scale(0.1 -0.1)">
       <use xlink:href="#DejaVuSans-30"/>
      </g>
     </g>
    </g>
    <g id="xtick_2">
     <g id="line2d_2">
      <g>
       <use style="stroke:#000000;stroke-width:0.8;" x="139.024403" xlink:href="#mb14c9f4bd4" y="307.584"/>
      </g>
     </g>
     <g id="text_2">
      <!-- 50 -->
      <defs>
       <path d="M 10.796875 72.90625 
L 49.515625 72.90625 
L 49.515625 64.59375 
L 19.828125 64.59375 
L 19.828125 46.734375 
Q 21.96875 47.46875 24.109375 47.828125 
Q 26.265625 48.1875 28.421875 48.1875 
Q 40.625 48.1875 47.75 41.5 
Q 54.890625 34.8125 54.890625 23.390625 
Q 54.890625 11.625 47.5625 5.09375 
Q 40.234375 -1.421875 26.90625 -1.421875 
Q 22.3125 -1.421875 17.546875 -0.640625 
Q 12.796875 0.140625 7.71875 1.703125 
L 7.71875 11.625 
Q 12.109375 9.234375 16.796875 8.0625 
Q 21.484375 6.890625 26.703125 6.890625 
Q 35.15625 6.890625 40.078125 11.328125 
Q 45.015625 15.765625 45.015625 23.390625 
Q 45.015625 31 40.078125 35.4375 
Q 35.15625 39.890625 26.703125 39.890625 
Q 22.75 39.890625 18.8125 39.015625 
Q 14.890625 38.140625 10.796875 36.28125 
z
" id="DejaVuSans-35"/>
      </defs>
      <g transform="translate(132.661903 322.182437)scale(0.1 -0.1)">
       <use xlink:href="#DejaVuSans-35"/>
       <use x="63.623047" xlink:href="#DejaVuSans-30"/>
      </g>
     </g>
    </g>
    <g id="xtick_3">
     <g id="line2d_3">
      <g>
       <use style="stroke:#000000;stroke-width:0.8;" x="204.216079" xlink:href="#mb14c9f4bd4" y="307.584"/>
      </g>
     </g>
     <g id="text_3">
      <!-- 100 -->
      <defs>
       <path d="M 12.40625 8.296875 
L 28.515625 8.296875 
L 28.515625 63.921875 
L 10.984375 60.40625 
L 10.984375 69.390625 
L 28.421875 72.90625 
L 38.28125 72.90625 
L 38.28125 8.296875 
L 54.390625 8.296875 
L 54.390625 0 
L 12.40625 0 
z
" id="DejaVuSans-31"/>
      </defs>
      <g transform="translate(194.672329 322.182437)scale(0.1 -0.1)">
       <use xlink:href="#DejaVuSans-31"/>
       <use x="63.623047" xlink:href="#DejaVuSans-30"/>
       <use x="127.246094" xlink:href="#DejaVuSans-30"/>
      </g>
     </g>
    </g>
    <g id="xtick_4">
     <g id="line2d_4">
      <g>
       <use style="stroke:#000000;stroke-width:0.8;" x="269.407755" xlink:href="#mb14c9f4bd4" y="307.584"/>
      </g>
     </g>
     <g id="text_4">
      <!-- 150 -->
      <g transform="translate(259.864005 322.182437)scale(0.1 -0.1)">
       <use xlink:href="#DejaVuSans-31"/>
       <use x="63.623047" xlink:href="#DejaVuSans-35"/>
       <use x="127.246094" xlink:href="#DejaVuSans-30"/>
      </g>
     </g>
    </g>
    <g id="xtick_5">
     <g id="line2d_5">
      <g>
       <use style="stroke:#000000;stroke-width:0.8;" x="334.59943" xlink:href="#mb14c9f4bd4" y="307.584"/>
      </g>
     </g>
     <g id="text_5">
      <!-- 200 -->
      <defs>
       <path d="M 19.1875 8.296875 
L 53.609375 8.296875 
L 53.609375 0 
L 7.328125 0 
L 7.328125 8.296875 
Q 12.9375 14.109375 22.625 23.890625 
Q 32.328125 33.6875 34.8125 36.53125 
Q 39.546875 41.84375 41.421875 45.53125 
Q 43.3125 49.21875 43.3125 52.78125 
Q 43.3125 58.59375 39.234375 62.25 
Q 35.15625 65.921875 28.609375 65.921875 
Q 23.96875 65.921875 18.8125 64.3125 
Q 13.671875 62.703125 7.8125 59.421875 
L 7.8125 69.390625 
Q 13.765625 71.78125 18.9375 73 
Q 24.125 74.21875 28.421875 74.21875 
Q 39.75 74.21875 46.484375 68.546875 
Q 53.21875 62.890625 53.21875 53.421875 
Q 53.21875 48.921875 51.53125 44.890625 
Q 49.859375 40.875 45.40625 35.40625 
Q 44.1875 33.984375 37.640625 27.21875 
Q 31.109375 20.453125 19.1875 8.296875 
" id="DejaVuSans-32"/>
      </defs>
      <g transform="translate(325.05568 322.182437)scale(0.1 -0.1)">
       <use xlink:href="#DejaVuSans-32"/>
       <use x="63.623047" xlink:href="#DejaVuSans-30"/>
       <use x="127.246094" xlink:href="#DejaVuSans-30"/>
      </g>
     </g>
    </g>
    <g id="xtick_6">
     <g id="line2d_6">
      <g>
       <use style="stroke:#000000;stroke-width:0.8;" x="399.791106" xlink:href="#mb14c9f4bd4" y="307.584"/>
      </g>
     </g>
     <g id="text_6">
      <!-- 250 -->
      <g transform="translate(390.247356 322.182437)scale(0.1 -0.1)">
       <use xlink:href="#DejaVuSans-32"/>
       <use x="63.623047" xlink:href="#DejaVuSans-35"/>
       <use x="127.246094" xlink:href="#DejaVuSans-30"/>
      </g>
     </g>
    </g>
    <g id="text_7">
     <!-- epoch -->
     <defs>
      <path d="M 56.203125 29.59375 
L 56.203125 25.203125 
L 14.890625 25.203125 
Q 15.484375 15.921875 20.484375 11.0625 
Q 25.484375 6.203125 34.421875 6.203125 
Q 39.59375 6.203125 44.453125 7.46875 
Q 49.3125 8.734375 54.109375 11.28125 
L 54.109375 2.78125 
Q 49.265625 0.734375 44.1875 -0.34375 
Q 39.109375 -1.421875 33.890625 -1.421875 
Q 20.796875 -1.421875 13.15625 6.1875 
Q 5.515625 13.8125 5.515625 26.8125 
Q 5.515625 40.234375 12.765625 48.109375 
Q 20.015625 56 32.328125 56 
Q 43.359375 56 49.78125 48.890625 
Q 56.203125 41.796875 56.203125 29.59375 
M 47.21875 32.234375 
Q 47.125 39.59375 43.09375 43.984375 
Q 39.0625 48.390625 32.421875 48.390625 
Q 24.90625 48.390625 20.390625 44.140625 
Q 15.875 39.890625 15.1875 32.171875 
z
" id="DejaVuSans-65"/>
      <path d="M 18.109375 8.203125 
L 18.109375 -20.796875 
L 9.078125 -20.796875 
L 9.078125 54.6875 
L 18.109375 54.6875 
L 18.109375 46.390625 
Q 20.953125 51.265625 25.265625 53.625 
Q 29.59375 56 35.59375 56 
Q 45.5625 56 51.78125 48.09375 
Q 58.015625 40.1875 58.015625 27.296875 
Q 58.015625 14.40625 51.78125 6.484375 
Q 45.5625 -1.421875 35.59375 -1.421875 
Q 29.59375 -1.421875 25.265625 0.953125 
Q 20.953125 3.328125 18.109375 8.203125 
M 48.6875 27.296875 
Q 48.6875 37.203125 44.609375 42.84375 
Q 40.53125 48.484375 33.40625 48.484375 
Q 26.265625 48.484375 22.1875 42.84375 
Q 18.109375 37.203125 18.109375 27.296875 
Q 18.109375 17.390625 22.1875 11.75 
Q 26.265625 6.109375 33.40625 6.109375 
Q 40.53125 6.109375 44.609375 11.75 
Q 48.6875 17.390625 48.6875 27.296875 
" id="DejaVuSans-70"/>
      <path d="M 30.609375 48.390625 
Q 23.390625 48.390625 19.1875 42.75 
Q 14.984375 37.109375 14.984375 27.296875 
Q 14.984375 17.484375 19.15625 11.84375 
Q 23.34375 6.203125 30.609375 6.203125 
Q 37.796875 6.203125 41.984375 11.859375 
Q 46.1875 17.53125 46.1875 27.296875 
Q 46.1875 37.015625 41.984375 42.703125 
Q 37.796875 48.390625 30.609375 48.390625 
M 30.609375 56 
Q 42.328125 56 49.015625 48.375 
Q 55.71875 40.765625 55.71875 27.296875 
Q 55.71875 13.875 49.015625 6.21875 
Q 42.328125 -1.421875 30.609375 -1.421875 
Q 18.84375 -1.421875 12.171875 6.21875 
Q 5.515625 13.875 5.515625 27.296875 
Q 5.515625 40.765625 12.171875 48.375 
Q 18.84375 56 30.609375 56 
" id="DejaVuSans-6f"/>
      <path d="M 48.78125 52.59375 
L 48.78125 44.1875 
Q 44.96875 46.296875 41.140625 47.34375 
Q 37.3125 48.390625 33.40625 48.390625 
Q 24.65625 48.390625 19.8125 42.84375 
Q 14.984375 37.3125 14.984375 27.296875 
Q 14.984375 17.28125 19.8125 11.734375 
Q 24.65625 6.203125 33.40625 6.203125 
Q 37.3125 6.203125 41.140625 7.25 
Q 44.96875 8.296875 48.78125 10.40625 
L 48.78125 2.09375 
Q 45.015625 0.34375 40.984375 -0.53125 
Q 36.96875 -1.421875 32.421875 -1.421875 
Q 20.0625 -1.421875 12.78125 6.34375 
Q 5.515625 14.109375 5.515625 27.296875 
Q 5.515625 40.671875 12.859375 48.328125 
Q 20.21875 56 33.015625 56 
Q 37.15625 56 41.109375 55.140625 
Q 45.0625 54.296875 48.78125 52.59375 
" id="DejaVuSans-63"/>
      <path d="M 54.890625 33.015625 
L 54.890625 0 
L 45.90625 0 
L 45.90625 32.71875 
Q 45.90625 40.484375 42.875 44.328125 
Q 39.84375 48.1875 33.796875 48.1875 
Q 26.515625 48.1875 22.3125 43.546875 
Q 18.109375 38.921875 18.109375 30.90625 
L 18.109375 0 
L 9.078125 0 
L 9.078125 75.984375 
L 18.109375 75.984375 
L 18.109375 46.1875 
Q 21.34375 51.125 25.703125 53.5625 
Q 30.078125 56 35.796875 56 
Q 45.21875 56 50.046875 50.171875 
Q 54.890625 44.34375 54.890625 33.015625 
" id="DejaVuSans-68"/>
     </defs>
     <g transform="translate(220.931875 335.860562)scale(0.1 -0.1)">
      <use xlink:href="#DejaVuSans-65"/>
      <use x="61.523438" xlink:href="#DejaVuSans-70"/>
      <use x="125" xlink:href="#DejaVuSans-6f"/>
      <use x="186.181641" xlink:href="#DejaVuSans-63"/>
      <use x="241.162109" xlink:href="#DejaVuSans-68"/>
     </g>
    </g>
   </g>
   <g id="matplotlib.axis_2">
    <g id="ytick_1">
     <g id="line2d_7">
      <defs>
       <path d="M 0 0 
L -3.5 0 
" id="m11104470f9" style="stroke:#000000;stroke-width:0.8;"/>
      </defs>
      <g>
       <use style="stroke:#000000;stroke-width:0.8;" x="57.6" xlink:href="#m11104470f9" y="307.584"/>
      </g>
     </g>
     <g id="text_8">
      <!-- 0.0 -->
      <defs>
       <path d="M 10.6875 12.40625 
L 21 12.40625 
L 21 0 
L 10.6875 0 
z
" id="DejaVuSans-2e"/>
      </defs>
      <g transform="translate(34.696875 311.383219)scale(0.1 -0.1)">
       <use xlink:href="#DejaVuSans-30"/>
       <use x="63.623047" xlink:href="#DejaVuSans-2e"/>
       <use x="95.410156" xlink:href="#DejaVuSans-30"/>
      </g>
     </g>
    </g>
    <g id="ytick_2">
     <g id="line2d_8">
      <g>
       <use style="stroke:#000000;stroke-width:0.8;" x="57.6" xlink:href="#m11104470f9" y="252.144"/>
      </g>
     </g>
     <g id="text_9">
      <!-- 0.5 -->
      <g transform="translate(34.696875 255.943219)scale(0.1 -0.1)">
       <use xlink:href="#DejaVuSans-30"/>
       <use x="63.623047" xlink:href="#DejaVuSans-2e"/>
       <use x="95.410156" xlink:href="#DejaVuSans-35"/>
      </g>
     </g>
    </g>
    <g id="ytick_3">
     <g id="line2d_9">
      <g>
       <use style="stroke:#000000;stroke-width:0.8;" x="57.6" xlink:href="#m11104470f9" y="196.704"/>
      </g>
     </g>
     <g id="text_10">
      <!-- 1.0 -->
      <g transform="translate(34.696875 200.503219)scale(0.1 -0.1)">
       <use xlink:href="#DejaVuSans-31"/>
       <use x="63.623047" xlink:href="#DejaVuSans-2e"/>
       <use x="95.410156" xlink:href="#DejaVuSans-30"/>
      </g>
     </g>
    </g>
    <g id="ytick_4">
     <g id="line2d_10">
      <g>
       <use style="stroke:#000000;stroke-width:0.8;" x="57.6" xlink:href="#m11104470f9" y="141.264"/>
      </g>
     </g>
     <g id="text_11">
      <!-- 1.5 -->
      <g transform="translate(34.696875 145.063219)scale(0.1 -0.1)">
       <use xlink:href="#DejaVuSans-31"/>
       <use x="63.623047" xlink:href="#DejaVuSans-2e"/>
       <use x="95.410156" xlink:href="#DejaVuSans-35"/>
      </g>
     </g>
    </g>
    <g id="ytick_5">
     <g id="line2d_11">
      <g>
       <use style="stroke:#000000;stroke-width:0.8;" x="57.6" xlink:href="#m11104470f9" y="85.824"/>
      </g>
     </g>
     <g id="text_12">
      <!-- 2.0 -->
      <g transform="translate(34.696875 89.623219)scale(0.1 -0.1)">
       <use xlink:href="#DejaVuSans-32"/>
       <use x="63.623047" xlink:href="#DejaVuSans-2e"/>
       <use x="95.410156" xlink:href="#DejaVuSans-30"/>
      </g>
     </g>
    </g>
    <g id="text_13">
     <!-- loss -->
     <defs>
      <path d="M 9.421875 75.984375 
L 18.40625 75.984375 
L 18.40625 0 
L 9.421875 0 
z
" id="DejaVuSans-6c"/>
      <path d="M 44.28125 53.078125 
L 44.28125 44.578125 
Q 40.484375 46.53125 36.375 47.5 
Q 32.28125 48.484375 27.875 48.484375 
Q 21.1875 48.484375 17.84375 46.4375 
Q 14.5 44.390625 14.5 40.28125 
Q 14.5 37.15625 16.890625 35.375 
Q 19.28125 33.59375 26.515625 31.984375 
L 29.59375 31.296875 
Q 39.15625 29.25 43.1875 25.515625 
Q 47.21875 21.78125 47.21875 15.09375 
Q 47.21875 7.46875 41.1875 3.015625 
Q 35.15625 -1.421875 24.609375 -1.421875 
Q 20.21875 -1.421875 15.453125 -0.5625 
Q 10.6875 0.296875 5.421875 2 
L 5.421875 11.28125 
Q 10.40625 8.6875 15.234375 7.390625 
Q 20.0625 6.109375 24.8125 6.109375 
Q 31.15625 6.109375 34.5625 8.28125 
Q 37.984375 10.453125 37.984375 14.40625 
Q 37.984375 18.0625 35.515625 20.015625 
Q 33.0625 21.96875 24.703125 23.78125 
L 21.578125 24.515625 
Q 13.234375 26.265625 9.515625 29.90625 
Q 5.8125 33.546875 5.8125 39.890625 
Q 5.8125 47.609375 11.28125 51.796875 
Q 16.75 56 26.8125 56 
Q 31.78125 56 36.171875 55.265625 
Q 40.578125 54.546875 44.28125 53.078125 
" id="DejaVuSans-73"/>
     </defs>
     <g transform="translate(28.617188 184.185812)rotate(-90)scale(0.1 -0.1)">
      <use xlink:href="#DejaVuSans-6c"/>
      <use x="27.783203" xlink:href="#DejaVuSans-6f"/>
      <use x="88.964844" xlink:href="#DejaVuSans-73"/>
      <use x="141.064453" xlink:href="#DejaVuSans-73"/>
     </g>
    </g>
   </g>
   <g id="line2d_12">
    <path clip-path="url(#pec2c944ccf)" d="M 73.832727 53.031789 
L 75.136561 56.498284 
L 77.744228 62.839555 
L 79.048061 66.457619 
L 80.351895 70.712853 
L 81.655728 75.490888 
L 84.263395 86.339021 
L 86.871062 98.481287 
L 89.478729 112.293903 
L 92.086396 127.272829 
L 98.605564 165.983631 
L 101.213231 178.696678 
L 102.517065 184.437267 
L 105.124732 194.249585 
L 107.732399 202.608894 
L 110.340066 209.640814 
L 112.947733 215.76391 
L 116.859233 223.412998 
L 119.4669 227.680996 
L 124.682234 235.183802 
L 125.986068 236.640931 
L 127.289901 238.294079 
L 129.897568 241.1048 
L 131.201402 242.322563 
L 132.505235 243.774336 
L 140.328237 250.892417 
L 149.455071 258.122622 
L 150.758905 258.9454 
L 153.366572 260.794443 
L 155.974239 262.58111 
L 157.278072 263.309842 
L 158.581906 264.215241 
L 162.493406 266.421918 
L 163.79724 267.030688 
L 167.70874 269.351817 
L 170.316407 270.717366 
L 172.924074 272.053987 
L 175.531742 273.316941 
L 178.139409 274.574639 
L 179.443242 275.10977 
L 180.747076 275.810955 
L 184.658576 277.438826 
L 187.266243 278.492917 
L 189.87391 279.629845 
L 192.481577 280.516211 
L 195.089244 281.615155 
L 196.393078 281.954938 
L 197.696911 282.530755 
L 209.431413 286.26412 
L 212.03908 286.923765 
L 215.950581 288.091964 
L 223.773582 290.035025 
L 225.077415 290.296202 
L 227.685082 290.978023 
L 243.331084 294.087746 
L 244.634918 294.243909 
L 245.938751 294.559299 
L 248.546418 294.885304 
L 251.154085 295.343339 
L 270.711588 298.102529 
L 274.623089 298.543428 
L 281.142256 299.285498 
L 288.965257 300.061383 
L 296.788258 300.729843 
L 321.561095 302.423053 
L 358.068434 303.959597 
L 398.487273 304.996685 
L 398.487273 304.996685 
" style="fill:none;stroke:#1f77b4;stroke-linecap:square;stroke-width:1.5;"/>
   </g>
   <g id="line2d_13">
    <path clip-path="url(#pec2c944ccf)" d="M 73.832727 54.677464 
L 76.440394 60.349865 
L 77.744228 63.637124 
L 79.048061 67.527901 
L 81.655728 76.945609 
L 84.263395 87.633276 
L 86.871062 99.406301 
L 89.478729 112.572707 
L 92.086396 126.582988 
L 95.997897 148.24476 
L 97.301731 154.91392 
L 99.909398 166.777467 
L 102.517065 176.770277 
L 103.820898 181.009193 
L 106.428565 187.961177 
L 107.732399 191.233381 
L 110.340066 196.434977 
L 114.251566 201.926875 
L 115.5554 203.413751 
L 116.859233 204.224081 
L 118.163067 205.620061 
L 119.4669 206.712095 
L 120.770734 207.389602 
L 122.074567 208.283526 
L 123.378401 208.715709 
L 125.986068 210.088789 
L 127.289901 210.834425 
L 132.505235 212.680443 
L 133.809069 212.459187 
L 135.112903 213.18176 
L 136.416736 212.892177 
L 137.72057 213.452811 
L 141.63207 214.04271 
L 142.935904 213.847917 
L 144.239737 213.460796 
L 145.543571 213.963505 
L 146.847404 213.523244 
L 148.151238 213.994861 
L 149.455071 214.141583 
L 150.758905 213.709929 
L 152.062738 214.192363 
L 154.670405 213.907639 
L 155.974239 214.437579 
L 157.278072 214.08798 
L 158.581906 214.054093 
L 159.885739 213.887226 
L 161.189573 214.242432 
L 162.493406 213.452133 
L 167.70874 213.113699 
L 169.012574 213.197813 
L 170.316407 212.429395 
L 171.620241 212.984635 
L 174.227908 211.834423 
L 175.531742 211.645678 
L 176.835575 211.019108 
L 178.139409 211.417458 
L 179.443242 210.938026 
L 180.747076 211.288031 
L 182.050909 210.342653 
L 183.354743 210.248031 
L 184.658576 210.34772 
L 185.96241 209.679243 
L 187.266243 209.205313 
L 188.570077 208.955754 
L 189.87391 208.977232 
L 191.177744 208.246574 
L 192.481577 208.659963 
L 193.785411 207.753161 
L 195.089244 207.351552 
L 197.696911 207.327855 
L 199.000745 207.136552 
L 200.304578 206.023196 
L 201.608412 205.71926 
L 202.912245 206.055711 
L 204.216079 205.347147 
L 205.519912 204.849464 
L 206.823746 204.963657 
L 208.127579 204.358825 
L 209.431413 204.008527 
L 210.735246 204.119997 
L 212.03908 203.712274 
L 213.342913 203.044432 
L 214.646747 202.134327 
L 217.254414 202.136078 
L 218.558248 201.811326 
L 219.862081 200.624354 
L 221.165915 200.661654 
L 223.773582 199.432817 
L 225.077415 199.617 
L 226.381249 199.57968 
L 227.685082 198.437688 
L 231.596583 197.604074 
L 232.900416 197.622294 
L 234.20425 197.195649 
L 235.508083 196.632033 
L 236.811917 196.354688 
L 238.11575 195.782882 
L 239.419584 195.030249 
L 240.723417 195.24393 
L 242.027251 194.686271 
L 243.331084 194.681007 
L 245.938751 193.480443 
L 248.546418 193.077907 
L 249.850252 192.515782 
L 252.457919 191.929817 
L 253.761752 191.216071 
L 255.065586 191.381339 
L 256.369419 191.195529 
L 257.673253 190.516449 
L 258.977087 190.300637 
L 260.28092 189.879485 
L 261.584754 189.189717 
L 262.888587 189.119848 
L 264.192421 188.792952 
L 265.496254 187.948665 
L 268.103921 187.863293 
L 269.407755 187.11514 
L 272.015422 186.772618 
L 273.319255 186.044668 
L 275.926922 185.577019 
L 278.534589 185.073119 
L 279.838423 184.446861 
L 281.142256 184.314481 
L 282.44609 183.712956 
L 283.749923 183.374695 
L 285.053757 183.455192 
L 286.35759 182.785259 
L 287.661424 182.465604 
L 288.965257 181.820829 
L 290.269091 182.168986 
L 291.572924 181.499244 
L 292.876758 181.096777 
L 294.180591 181.245586 
L 295.484425 180.456686 
L 296.788258 180.004922 
L 298.092092 179.93787 
L 299.395926 179.47489 
L 302.003593 178.978318 
L 303.307426 178.73579 
L 304.61126 178.786642 
L 305.915093 178.000305 
L 307.218927 177.587635 
L 308.52276 177.45563 
L 309.826594 177.819981 
L 311.130427 177.227638 
L 312.434261 177.238781 
L 313.738094 176.685003 
L 316.345761 176.249077 
L 317.649595 175.605908 
L 318.953428 175.84119 
L 320.257262 175.206611 
L 321.561095 174.843387 
L 322.864929 174.903559 
L 324.168762 174.767655 
L 325.472596 174.437074 
L 326.776429 173.910293 
L 328.080263 173.63368 
L 330.68793 173.412029 
L 331.991763 172.907556 
L 333.295597 172.702201 
L 334.59943 172.824293 
L 337.207097 172.183832 
L 338.510931 171.870283 
L 341.118598 171.556719 
L 342.422432 171.336569 
L 343.726265 171.234522 
L 345.030099 170.64324 
L 346.333932 170.841221 
L 347.637766 170.641123 
L 348.941599 170.161949 
L 350.245433 170.070268 
L 351.549266 169.577629 
L 352.8531 169.745282 
L 354.156933 169.371576 
L 358.068434 168.751239 
L 359.372267 168.814388 
L 367.195268 167.333455 
L 371.106769 166.733423 
L 372.410602 166.376411 
L 373.714436 166.478404 
L 376.322103 166.01873 
L 377.625936 166.087217 
L 378.92977 165.626617 
L 380.233604 165.613901 
L 381.537437 165.452022 
L 384.145104 164.740043 
L 385.448938 164.787104 
L 388.056605 164.511496 
L 389.360438 164.149765 
L 393.271939 163.590718 
L 394.575772 163.263248 
L 397.183439 163.120305 
L 398.487273 163.186333 
L 398.487273 163.186333 
" style="fill:none;stroke:#1f77b4;stroke-dasharray:5.6,2.4;stroke-dashoffset:0;stroke-width:1.5;"/>
   </g>
   <g id="line2d_14">
    <path clip-path="url(#pec2c944ccf)" d="M 73.832727 51.710911 
L 75.136561 57.608349 
L 77.744228 65.775968 
L 79.048061 68.280018 
L 80.351895 73.327618 
L 81.655728 80.612434 
L 82.959562 84.673504 
L 84.263395 86.618688 
L 85.567229 89.647039 
L 86.871062 93.668251 
L 88.174896 96.40923 
L 89.478729 102.065424 
L 90.782563 104.032119 
L 92.086396 105.682572 
L 93.39023 107.6546 
L 94.694064 113.45926 
L 95.997897 112.995465 
L 97.301731 116.933759 
L 98.605564 118.561864 
L 101.213231 126.911188 
L 102.517065 128.14484 
L 103.820898 129.834943 
L 105.124732 132.211067 
L 106.428565 131.416828 
L 107.732399 135.21495 
L 109.036232 134.185161 
L 110.340066 143.993704 
L 111.643899 141.003722 
L 112.947733 145.409743 
L 115.5554 148.069669 
L 116.859233 145.662666 
L 118.163067 151.38303 
L 119.4669 150.341392 
L 120.770734 146.211076 
L 122.074567 153.148279 
L 123.378401 160.728998 
L 124.682234 154.947628 
L 125.986068 155.219602 
L 127.289901 158.026062 
L 128.593735 157.579386 
L 129.897568 160.474711 
L 131.201402 161.125533 
L 132.505235 174.610212 
L 133.809069 158.388744 
L 135.112903 168.243347 
L 136.416736 169.520861 
L 137.72057 165.544267 
L 139.024403 171.354926 
L 140.328237 168.767361 
L 141.63207 170.341231 
L 142.935904 169.30576 
L 144.239737 176.686676 
L 145.543571 172.627501 
L 146.847404 176.740023 
L 148.151238 177.301971 
L 149.455071 170.701807 
L 150.758905 174.893751 
L 152.062738 177.943389 
L 153.366572 178.604465 
L 154.670405 184.427766 
L 155.974239 180.596024 
L 157.278072 181.20471 
L 158.581906 182.237448 
L 159.885739 184.628044 
L 161.189573 181.208479 
L 162.493406 186.393736 
L 163.79724 183.594361 
L 166.404907 187.71799 
L 167.70874 187.785989 
L 169.012574 179.860266 
L 170.316407 187.647709 
L 171.620241 188.128273 
L 172.924074 188.262476 
L 174.227908 189.572999 
L 175.531742 185.076359 
L 176.835575 185.333571 
L 178.139409 183.798001 
L 179.443242 187.298783 
L 180.747076 186.070483 
L 182.050909 187.149772 
L 183.354743 195.491278 
L 184.658576 189.024897 
L 185.96241 190.359048 
L 187.266243 196.54906 
L 188.570077 194.004625 
L 189.87391 200.124806 
L 191.177744 191.97795 
L 192.481577 195.909941 
L 193.785411 194.768089 
L 195.089244 195.92517 
L 196.393078 196.902781 
L 197.696911 195.034443 
L 199.000745 198.603896 
L 200.304578 195.738811 
L 201.608412 200.685976 
L 202.912245 202.182538 
L 204.216079 203.48047 
L 205.519912 193.55038 
L 206.823746 201.797153 
L 208.127579 202.593969 
L 209.431413 204.385986 
L 210.735246 200.572591 
L 212.03908 201.604174 
L 213.342913 206.752661 
L 214.646747 201.388611 
L 215.950581 199.029901 
L 217.254414 199.490584 
L 218.558248 203.216152 
L 219.862081 204.383159 
L 221.165915 209.474583 
L 222.469748 207.459283 
L 223.773582 205.087359 
L 225.077415 203.743907 
L 226.381249 206.265707 
L 227.685082 207.698342 
L 228.988916 204.713411 
L 230.292749 210.23061 
L 231.596583 207.476183 
L 232.900416 209.076831 
L 234.20425 207.450192 
L 235.508083 209.403196 
L 236.811917 203.562379 
L 238.11575 209.25562 
L 239.419584 205.658375 
L 240.723417 211.58213 
L 242.027251 213.863938 
L 243.331084 207.689958 
L 244.634918 210.790019 
L 245.938751 207.975375 
L 247.242585 209.071972 
L 248.546418 211.28378 
L 249.850252 209.989609 
L 251.154085 215.327279 
L 252.457919 213.503994 
L 253.761752 210.891012 
L 255.065586 212.603182 
L 256.369419 212.701728 
L 257.673253 218.93145 
L 258.977087 212.769503 
L 260.28092 212.664076 
L 261.584754 213.160702 
L 262.888587 216.886736 
L 264.192421 214.046518 
L 265.496254 215.267582 
L 266.800088 216.797177 
L 268.103921 217.17482 
L 269.407755 217.093782 
L 270.711588 217.627508 
L 272.015422 214.96696 
L 273.319255 217.724751 
L 274.623089 221.582279 
L 275.926922 215.96527 
L 277.230756 217.723868 
L 278.534589 213.312456 
L 279.838423 219.151352 
L 281.142256 221.738399 
L 282.44609 214.793963 
L 283.749923 222.584986 
L 285.053757 215.86917 
L 286.35759 222.01608 
L 287.661424 222.112168 
L 288.965257 227.391911 
L 290.269091 224.422038 
L 291.572924 220.213798 
L 292.876758 217.046515 
L 294.180591 225.889005 
L 295.484425 219.596602 
L 296.788258 222.433522 
L 298.092092 220.083318 
L 299.395926 222.489979 
L 300.699759 220.470382 
L 302.003593 220.039272 
L 303.307426 228.059238 
L 304.61126 222.786072 
L 305.915093 221.799474 
L 307.218927 228.106945 
L 308.52276 222.154516 
L 309.826594 222.796688 
L 311.130427 221.980315 
L 312.434261 223.583786 
L 313.738094 226.151907 
L 315.041928 227.534866 
L 316.345761 220.883737 
L 317.649595 228.674444 
L 318.953428 226.694218 
L 320.257262 222.875647 
L 321.561095 224.867303 
L 322.864929 224.460974 
L 324.168762 225.37971 
L 325.472596 225.415307 
L 326.776429 226.342672 
L 328.080263 226.228679 
L 329.384096 226.667056 
L 330.68793 225.681314 
L 331.991763 225.384253 
L 333.295597 222.946808 
L 334.59943 227.938943 
L 335.903264 231.58733 
L 337.207097 232.823211 
L 338.510931 225.623897 
L 339.814765 225.324587 
L 341.118598 229.609855 
L 342.422432 227.742861 
L 343.726265 228.715926 
L 345.030099 229.497782 
L 346.333932 226.097942 
L 347.637766 230.29563 
L 348.941599 230.961524 
L 350.245433 234.251906 
L 351.549266 232.447061 
L 352.8531 230.929221 
L 354.156933 229.151363 
L 355.460767 229.493382 
L 356.7646 229.126617 
L 358.068434 227.494974 
L 359.372267 231.599314 
L 360.676101 226.466208 
L 361.979934 232.442987 
L 363.283768 232.139658 
L 364.587601 230.408583 
L 365.891435 237.035127 
L 367.195268 231.585598 
L 368.499102 227.626797 
L 371.106769 234.243311 
L 372.410602 225.374666 
L 373.714436 230.013925 
L 375.018269 233.103409 
L 376.322103 231.695961 
L 377.625936 227.860336 
L 378.92977 229.781023 
L 380.233604 235.293042 
L 381.537437 235.372699 
L 382.841271 235.771065 
L 384.145104 234.172013 
L 385.448938 235.9234 
L 386.752771 234.784434 
L 388.056605 227.534455 
L 389.360438 243.675977 
L 390.664272 232.239698 
L 391.968105 230.925131 
L 393.271939 235.319923 
L 394.575772 233.77895 
L 395.879606 234.225298 
L 398.487273 239.090538 
L 398.487273 239.090538 
" style="fill:none;stroke:#ff7f0e;stroke-linecap:square;stroke-width:1.5;"/>
   </g>
   <g id="line2d_15">
    <path clip-path="url(#pec2c944ccf)" d="M 73.832727 56.40028 
L 76.440394 66.314481 
L 79.048061 76.458404 
L 84.263395 96.256672 
L 89.478729 112.926415 
L 90.782563 116.711823 
L 93.39023 123.157794 
L 95.997897 129.319693 
L 101.213231 141.478358 
L 107.732399 154.264648 
L 109.036232 156.538448 
L 110.340066 159.598443 
L 111.643899 160.954124 
L 112.947733 163.809528 
L 114.251566 165.558495 
L 115.5554 167.519601 
L 118.163067 170.43225 
L 120.770734 172.348325 
L 122.074567 173.771214 
L 123.378401 176.009682 
L 125.986068 178.485332 
L 127.289901 179.364255 
L 128.593735 180.579457 
L 129.897568 181.538287 
L 132.505235 185.043109 
L 133.809069 185.743594 
L 135.112903 187.251293 
L 136.416736 188.263546 
L 137.72057 188.678522 
L 140.328237 191.125692 
L 141.63207 191.86322 
L 142.935904 192.225753 
L 145.543571 193.409073 
L 146.847404 194.876466 
L 149.455071 196.299473 
L 150.758905 196.611007 
L 152.062738 196.737617 
L 153.366572 197.633185 
L 154.670405 198.095628 
L 155.974239 198.939813 
L 157.278072 199.497747 
L 158.581906 199.916622 
L 159.885739 200.795466 
L 161.189573 200.793521 
L 162.493406 201.973468 
L 163.79724 202.503409 
L 165.101073 202.652612 
L 166.404907 204.000737 
L 169.012574 204.998681 
L 170.316407 204.962856 
L 171.620241 205.801635 
L 172.924074 205.941483 
L 174.227908 206.671267 
L 176.835575 207.29494 
L 178.139409 207.316483 
L 180.747076 208.188874 
L 182.050909 207.633221 
L 183.354743 207.884513 
L 184.658576 208.474543 
L 185.96241 208.771089 
L 187.266243 209.76641 
L 188.570077 210.299195 
L 189.87391 210.689043 
L 191.177744 210.321596 
L 192.481577 210.188098 
L 193.785411 211.105826 
L 195.089244 211.264238 
L 196.393078 210.875162 
L 197.696911 211.020836 
L 199.000745 211.574984 
L 201.608412 211.822279 
L 202.912245 211.341125 
L 204.216079 212.017355 
L 205.519912 212.294461 
L 208.127579 213.708426 
L 209.431413 213.174437 
L 210.735246 213.113142 
L 212.03908 212.165207 
L 213.342913 213.49361 
L 214.646747 213.733859 
L 215.950581 213.79516 
L 217.254414 213.438672 
L 218.558248 213.74986 
L 219.862081 213.631359 
L 221.165915 214.402839 
L 222.469748 214.199211 
L 223.773582 214.808632 
L 225.077415 214.886987 
L 226.381249 214.491947 
L 227.685082 214.947571 
L 228.988916 214.682435 
L 230.292749 215.220416 
L 231.596583 214.503156 
L 232.900416 216.060761 
L 234.20425 215.067526 
L 235.508083 215.485637 
L 236.811917 215.587009 
L 238.11575 215.279035 
L 239.419584 216.526831 
L 240.723417 216.023789 
L 242.027251 216.6268 
L 243.331084 216.185886 
L 244.634918 216.018326 
L 245.938751 216.197165 
L 247.242585 215.750042 
L 248.546418 215.820892 
L 249.850252 216.378497 
L 251.154085 216.604051 
L 252.457919 217.391553 
L 253.761752 217.33653 
L 255.065586 217.742827 
L 256.369419 217.018801 
L 257.673253 217.091836 
L 258.977087 217.282186 
L 260.28092 216.974965 
L 261.584754 217.389224 
L 262.888587 216.891643 
L 264.192421 216.707782 
L 265.496254 217.203809 
L 266.800088 216.109787 
L 268.103921 215.94196 
L 269.407755 215.497671 
L 270.711588 216.278194 
L 272.015422 216.156364 
L 273.319255 215.666961 
L 274.623089 216.780396 
L 275.926922 216.687423 
L 277.230756 217.434988 
L 278.534589 217.529191 
L 279.838423 217.050807 
L 281.142256 217.246639 
L 282.44609 217.290032 
L 283.749923 216.128675 
L 285.053757 216.687431 
L 287.661424 216.655305 
L 288.965257 216.245698 
L 290.269091 216.719579 
L 291.572924 216.953119 
L 292.876758 217.610473 
L 294.180591 217.3656 
L 295.484425 216.207254 
L 296.788258 217.122553 
L 298.092092 216.518581 
L 300.699759 217.889706 
L 302.003593 217.47958 
L 303.307426 217.455402 
L 304.61126 217.002194 
L 305.915093 217.50917 
L 307.218927 217.800459 
L 308.52276 216.75828 
L 309.826594 216.842886 
L 311.130427 217.539718 
L 312.434261 216.911373 
L 313.738094 216.815338 
L 315.041928 217.284884 
L 316.345761 216.809952 
L 317.649595 216.847216 
L 318.953428 216.682293 
L 320.257262 216.969269 
L 321.561095 216.604637 
L 322.864929 217.178834 
L 324.168762 215.704242 
L 325.472596 217.746911 
L 326.776429 217.484692 
L 328.080263 217.472288 
L 329.384096 216.643083 
L 330.68793 217.826995 
L 331.991763 217.039208 
L 333.295597 217.177189 
L 334.59943 215.806269 
L 335.903264 216.314098 
L 337.207097 214.967247 
L 338.510931 215.675049 
L 339.814765 215.796169 
L 341.118598 216.649806 
L 342.422432 215.892178 
L 343.726265 215.697268 
L 345.030099 216.937753 
L 346.333932 216.826552 
L 347.637766 215.944218 
L 348.941599 216.500954 
L 350.245433 214.693004 
L 351.549266 216.124662 
L 352.8531 217.099673 
L 354.156933 215.516313 
L 355.460767 214.436446 
L 356.7646 215.008379 
L 358.068434 216.053401 
L 359.372267 215.547478 
L 360.676101 216.584407 
L 361.979934 215.503521 
L 363.283768 215.272995 
L 364.587601 215.36001 
L 365.891435 215.187526 
L 367.195268 215.332719 
L 368.499102 215.760795 
L 369.802935 215.152356 
L 371.106769 215.012224 
L 372.410602 215.584331 
L 373.714436 215.886189 
L 375.018269 214.236947 
L 376.322103 214.932194 
L 377.625936 213.05032 
L 378.92977 215.228727 
L 380.233604 214.263592 
L 381.537437 212.425286 
L 382.841271 213.874028 
L 384.145104 213.01203 
L 385.448938 214.381563 
L 386.752771 213.484773 
L 388.056605 212.037351 
L 389.360438 212.735106 
L 390.664272 212.895212 
L 391.968105 213.813194 
L 393.271939 214.058407 
L 394.575772 214.101711 
L 395.879606 214.542054 
L 397.183439 213.690563 
L 398.487273 213.179195 
L 398.487273 213.179195 
" style="fill:none;stroke:#ff7f0e;stroke-dasharray:5.6,2.4;stroke-dashoffset:0;stroke-width:1.5;"/>
   </g>
   <g id="patch_3">
    <path d="M 57.6 307.584 
L 57.6 41.472 
" style="fill:none;stroke:#000000;stroke-linecap:square;stroke-linejoin:miter;stroke-width:0.8;"/>
   </g>
   <g id="patch_4">
    <path d="M 414.72 307.584 
L 414.72 41.472 
" style="fill:none;stroke:#000000;stroke-linecap:square;stroke-linejoin:miter;stroke-width:0.8;"/>
   </g>
   <g id="patch_5">
    <path d="M 57.6 307.584 
L 414.72 307.584 
" style="fill:none;stroke:#000000;stroke-linecap:square;stroke-linejoin:miter;stroke-width:0.8;"/>
   </g>
   <g id="patch_6">
    <path d="M 57.6 41.472 
L 414.72 41.472 
" style="fill:none;stroke:#000000;stroke-linecap:square;stroke-linejoin:miter;stroke-width:0.8;"/>
   </g>
   <g id="text_14">
    <!-- MLP with 3 hidden layers and noisy labels -->
    <defs>
     <path d="M 9.8125 72.90625 
L 24.515625 72.90625 
L 43.109375 23.296875 
L 61.8125 72.90625 
L 76.515625 72.90625 
L 76.515625 0 
L 66.890625 0 
L 66.890625 64.015625 
L 48.09375 14.015625 
L 38.1875 14.015625 
L 19.390625 64.015625 
L 19.390625 0 
L 9.8125 0 
z
" id="DejaVuSans-4d"/>
     <path d="M 9.8125 72.90625 
L 19.671875 72.90625 
L 19.671875 8.296875 
L 55.171875 8.296875 
L 55.171875 0 
L 9.8125 0 
z
" id="DejaVuSans-4c"/>
     <path d="M 19.671875 64.796875 
L 19.671875 37.40625 
L 32.078125 37.40625 
Q 38.96875 37.40625 42.71875 40.96875 
Q 46.484375 44.53125 46.484375 51.125 
Q 46.484375 57.671875 42.71875 61.234375 
Q 38.96875 64.796875 32.078125 64.796875 
z
M 9.8125 72.90625 
L 32.078125 72.90625 
Q 44.34375 72.90625 50.609375 67.359375 
Q 56.890625 61.8125 56.890625 51.125 
Q 56.890625 40.328125 50.609375 34.8125 
Q 44.34375 29.296875 32.078125 29.296875 
L 19.671875 29.296875 
L 19.671875 0 
L 9.8125 0 
z
" id="DejaVuSans-50"/>
     <path id="DejaVuSans-20"/>
     <path d="M 4.203125 54.6875 
L 13.1875 54.6875 
L 24.421875 12.015625 
L 35.59375 54.6875 
L 46.1875 54.6875 
L 57.421875 12.015625 
L 68.609375 54.6875 
L 77.59375 54.6875 
L 63.28125 0 
L 52.6875 0 
L 40.921875 44.828125 
L 29.109375 0 
L 18.5 0 
z
" id="DejaVuSans-77"/>
     <path d="M 9.421875 54.6875 
L 18.40625 54.6875 
L 18.40625 0 
L 9.421875 0 
z
M 9.421875 75.984375 
L 18.40625 75.984375 
L 18.40625 64.59375 
L 9.421875 64.59375 
z
" id="DejaVuSans-69"/>
     <path d="M 18.3125 70.21875 
L 18.3125 54.6875 
L 36.8125 54.6875 
L 36.8125 47.703125 
L 18.3125 47.703125 
L 18.3125 18.015625 
Q 18.3125 11.328125 20.140625 9.421875 
Q 21.96875 7.515625 27.59375 7.515625 
L 36.8125 7.515625 
L 36.8125 0 
L 27.59375 0 
Q 17.1875 0 13.234375 3.875 
Q 9.28125 7.765625 9.28125 18.015625 
L 9.28125 47.703125 
L 2.6875 47.703125 
L 2.6875 54.6875 
L 9.28125 54.6875 
L 9.28125 70.21875 
z
" id="DejaVuSans-74"/>
     <path d="M 40.578125 39.3125 
Q 47.65625 37.796875 51.625 33 
Q 55.609375 28.21875 55.609375 21.1875 
Q 55.609375 10.40625 48.1875 4.484375 
Q 40.765625 -1.421875 27.09375 -1.421875 
Q 22.515625 -1.421875 17.65625 -0.515625 
Q 12.796875 0.390625 7.625 2.203125 
L 7.625 11.71875 
Q 11.71875 9.328125 16.59375 8.109375 
Q 21.484375 6.890625 26.8125 6.890625 
Q 36.078125 6.890625 40.9375 10.546875 
Q 45.796875 14.203125 45.796875 21.1875 
Q 45.796875 27.640625 41.28125 31.265625 
Q 36.765625 34.90625 28.71875 34.90625 
L 20.21875 34.90625 
L 20.21875 43.015625 
L 29.109375 43.015625 
Q 36.375 43.015625 40.234375 45.921875 
Q 44.09375 48.828125 44.09375 54.296875 
Q 44.09375 59.90625 40.109375 62.90625 
Q 36.140625 65.921875 28.71875 65.921875 
Q 24.65625 65.921875 20.015625 65.03125 
Q 15.375 64.15625 9.8125 62.3125 
L 9.8125 71.09375 
Q 15.4375 72.65625 20.34375 73.4375 
Q 25.25 74.21875 29.59375 74.21875 
Q 40.828125 74.21875 47.359375 69.109375 
Q 53.90625 64.015625 53.90625 55.328125 
Q 53.90625 49.265625 50.4375 45.09375 
Q 46.96875 40.921875 40.578125 39.3125 
" id="DejaVuSans-33"/>
     <path d="M 45.40625 46.390625 
L 45.40625 75.984375 
L 54.390625 75.984375 
L 54.390625 0 
L 45.40625 0 
L 45.40625 8.203125 
Q 42.578125 3.328125 38.25 0.953125 
Q 33.9375 -1.421875 27.875 -1.421875 
Q 17.96875 -1.421875 11.734375 6.484375 
Q 5.515625 14.40625 5.515625 27.296875 
Q 5.515625 40.1875 11.734375 48.09375 
Q 17.96875 56 27.875 56 
Q 33.9375 56 38.25 53.625 
Q 42.578125 51.265625 45.40625 46.390625 
M 14.796875 27.296875 
Q 14.796875 17.390625 18.875 11.75 
Q 22.953125 6.109375 30.078125 6.109375 
Q 37.203125 6.109375 41.296875 11.75 
Q 45.40625 17.390625 45.40625 27.296875 
Q 45.40625 37.203125 41.296875 42.84375 
Q 37.203125 48.484375 30.078125 48.484375 
Q 22.953125 48.484375 18.875 42.84375 
Q 14.796875 37.203125 14.796875 27.296875 
" id="DejaVuSans-64"/>
     <path d="M 54.890625 33.015625 
L 54.890625 0 
L 45.90625 0 
L 45.90625 32.71875 
Q 45.90625 40.484375 42.875 44.328125 
Q 39.84375 48.1875 33.796875 48.1875 
Q 26.515625 48.1875 22.3125 43.546875 
Q 18.109375 38.921875 18.109375 30.90625 
L 18.109375 0 
L 9.078125 0 
L 9.078125 54.6875 
L 18.109375 54.6875 
L 18.109375 46.1875 
Q 21.34375 51.125 25.703125 53.5625 
Q 30.078125 56 35.796875 56 
Q 45.21875 56 50.046875 50.171875 
Q 54.890625 44.34375 54.890625 33.015625 
" id="DejaVuSans-6e"/>
     <path d="M 34.28125 27.484375 
Q 23.390625 27.484375 19.1875 25 
Q 14.984375 22.515625 14.984375 16.5 
Q 14.984375 11.71875 18.140625 8.90625 
Q 21.296875 6.109375 26.703125 6.109375 
Q 34.1875 6.109375 38.703125 11.40625 
Q 43.21875 16.703125 43.21875 25.484375 
L 43.21875 27.484375 
z
M 52.203125 31.203125 
L 52.203125 0 
L 43.21875 0 
L 43.21875 8.296875 
Q 40.140625 3.328125 35.546875 0.953125 
Q 30.953125 -1.421875 24.3125 -1.421875 
Q 15.921875 -1.421875 10.953125 3.296875 
Q 6 8.015625 6 15.921875 
Q 6 25.140625 12.171875 29.828125 
Q 18.359375 34.515625 30.609375 34.515625 
L 43.21875 34.515625 
L 43.21875 35.40625 
Q 43.21875 41.609375 39.140625 45 
Q 35.0625 48.390625 27.6875 48.390625 
Q 23 48.390625 18.546875 47.265625 
Q 14.109375 46.140625 10.015625 43.890625 
L 10.015625 52.203125 
Q 14.9375 54.109375 19.578125 55.046875 
Q 24.21875 56 28.609375 56 
Q 40.484375 56 46.34375 49.84375 
Q 52.203125 43.703125 52.203125 31.203125 
" id="DejaVuSans-61"/>
     <path d="M 32.171875 -5.078125 
Q 28.375 -14.84375 24.75 -17.8125 
Q 21.140625 -20.796875 15.09375 -20.796875 
L 7.90625 -20.796875 
L 7.90625 -13.28125 
L 13.1875 -13.28125 
Q 16.890625 -13.28125 18.9375 -11.515625 
Q 21 -9.765625 23.484375 -3.21875 
L 25.09375 0.875 
L 2.984375 54.6875 
L 12.5 54.6875 
L 29.59375 11.921875 
L 46.6875 54.6875 
L 56.203125 54.6875 
z
" id="DejaVuSans-79"/>
     <path d="M 41.109375 46.296875 
Q 39.59375 47.171875 37.8125 47.578125 
Q 36.03125 48 33.890625 48 
Q 26.265625 48 22.1875 43.046875 
Q 18.109375 38.09375 18.109375 28.8125 
L 18.109375 0 
L 9.078125 0 
L 9.078125 54.6875 
L 18.109375 54.6875 
L 18.109375 46.1875 
Q 20.953125 51.171875 25.484375 53.578125 
Q 30.03125 56 36.53125 56 
Q 37.453125 56 38.578125 55.875 
Q 39.703125 55.765625 41.0625 55.515625 
z
" id="DejaVuSans-72"/>
     <path d="M 48.6875 27.296875 
Q 48.6875 37.203125 44.609375 42.84375 
Q 40.53125 48.484375 33.40625 48.484375 
Q 26.265625 48.484375 22.1875 42.84375 
Q 18.109375 37.203125 18.109375 27.296875 
Q 18.109375 17.390625 22.1875 11.75 
Q 26.265625 6.109375 33.40625 6.109375 
Q 40.53125 6.109375 44.609375 11.75 
Q 48.6875 17.390625 48.6875 27.296875 
M 18.109375 46.390625 
Q 20.953125 51.265625 25.265625 53.625 
Q 29.59375 56 35.59375 56 
Q 45.5625 56 51.78125 48.09375 
Q 58.015625 40.1875 58.015625 27.296875 
Q 58.015625 14.40625 51.78125 6.484375 
Q 45.5625 -1.421875 35.59375 -1.421875 
Q 29.59375 -1.421875 25.265625 0.953125 
Q 20.953125 3.328125 18.109375 8.203125 
L 18.109375 0 
L 9.078125 0 
L 9.078125 75.984375 
L 18.109375 75.984375 
z
" id="DejaVuSans-62"/>
    </defs>
    <g transform="translate(110.624063 35.472)scale(0.12 -0.12)">
     <use xlink:href="#DejaVuSans-4d"/>
     <use x="86.279297" xlink:href="#DejaVuSans-4c"/>
     <use x="141.992188" xlink:href="#DejaVuSans-50"/>
     <use x="202.294922" xlink:href="#DejaVuSans-20"/>
     <use x="234.082031" xlink:href="#DejaVuSans-77"/>
     <use x="315.869141" xlink:href="#DejaVuSans-69"/>
     <use x="343.652344" xlink:href="#DejaVuSans-74"/>
     <use x="382.861328" xlink:href="#DejaVuSans-68"/>
     <use x="446.240234" xlink:href="#DejaVuSans-20"/>
     <use x="478.027344" xlink:href="#DejaVuSans-33"/>
     <use x="541.650391" xlink:href="#DejaVuSans-20"/>
     <use x="573.4375" xlink:href="#DejaVuSans-68"/>
     <use x="636.816406" xlink:href="#DejaVuSans-69"/>
     <use x="664.599609" xlink:href="#DejaVuSans-64"/>
     <use x="728.076172" xlink:href="#DejaVuSans-64"/>
     <use x="791.552734" xlink:href="#DejaVuSans-65"/>
     <use x="853.076172" xlink:href="#DejaVuSans-6e"/>
     <use x="916.455078" xlink:href="#DejaVuSans-20"/>
     <use x="948.242188" xlink:href="#DejaVuSans-6c"/>
     <use x="976.025391" xlink:href="#DejaVuSans-61"/>
     <use x="1037.304688" xlink:href="#DejaVuSans-79"/>
     <use x="1096.484375" xlink:href="#DejaVuSans-65"/>
     <use x="1158.007812" xlink:href="#DejaVuSans-72"/>
     <use x="1199.121094" xlink:href="#DejaVuSans-73"/>
     <use x="1251.220703" xlink:href="#DejaVuSans-20"/>
     <use x="1283.007812" xlink:href="#DejaVuSans-61"/>
     <use x="1344.287109" xlink:href="#DejaVuSans-6e"/>
     <use x="1407.666016" xlink:href="#DejaVuSans-64"/>
     <use x="1471.142578" xlink:href="#DejaVuSans-20"/>
     <use x="1502.929688" xlink:href="#DejaVuSans-6e"/>
     <use x="1566.308594" xlink:href="#DejaVuSans-6f"/>
     <use x="1627.490234" xlink:href="#DejaVuSans-69"/>
     <use x="1655.273438" xlink:href="#DejaVuSans-73"/>
     <use x="1707.373047" xlink:href="#DejaVuSans-79"/>
     <use x="1766.552734" xlink:href="#DejaVuSans-20"/>
     <use x="1798.339844" xlink:href="#DejaVuSans-6c"/>
     <use x="1826.123047" xlink:href="#DejaVuSans-61"/>
     <use x="1887.402344" xlink:href="#DejaVuSans-62"/>
     <use x="1950.878906" xlink:href="#DejaVuSans-65"/>
     <use x="2012.402344" xlink:href="#DejaVuSans-6c"/>
     <use x="2040.185547" xlink:href="#DejaVuSans-73"/>
    </g>
   </g>
   <g id="legend_1">
    <g id="patch_7">
     <path d="M 247.02 108.1845 
L 407.72 108.1845 
Q 409.72 108.1845 409.72 106.1845 
L 409.72 48.472 
Q 409.72 46.472 407.72 46.472 
L 247.02 46.472 
Q 245.02 46.472 245.02 48.472 
L 245.02 106.1845 
Q 245.02 108.1845 247.02 108.1845 
z
" style="fill:#ffffff;opacity:0.8;stroke:#cccccc;stroke-linejoin:miter;"/>
    </g>
    <g id="line2d_16">
     <path d="M 249.02 54.570438 
L 269.02 54.570438 
" style="fill:none;stroke:#1f77b4;stroke-linecap:square;stroke-width:1.5;"/>
    </g>
    <g id="line2d_17"/>
    <g id="text_15">
     <!-- train, no dropout -->
     <defs>
      <path d="M 11.71875 12.40625 
L 22.015625 12.40625 
L 22.015625 4 
L 14.015625 -11.625 
L 7.71875 -11.625 
L 11.71875 4 
z
" id="DejaVuSans-2c"/>
      <path d="M 8.5 21.578125 
L 8.5 54.6875 
L 17.484375 54.6875 
L 17.484375 21.921875 
Q 17.484375 14.15625 20.5 10.265625 
Q 23.53125 6.390625 29.59375 6.390625 
Q 36.859375 6.390625 41.078125 11.03125 
Q 45.3125 15.671875 45.3125 23.6875 
L 45.3125 54.6875 
L 54.296875 54.6875 
L 54.296875 0 
L 45.3125 0 
L 45.3125 8.40625 
Q 42.046875 3.421875 37.71875 1 
Q 33.40625 -1.421875 27.6875 -1.421875 
Q 18.265625 -1.421875 13.375 4.4375 
Q 8.5 10.296875 8.5 21.578125 
M 31.109375 56 
z
" id="DejaVuSans-75"/>
     </defs>
     <g transform="translate(277.02 58.070438)scale(0.1 -0.1)">
      <use xlink:href="#DejaVuSans-74"/>
      <use x="39.208984" xlink:href="#DejaVuSans-72"/>
      <use x="80.322266" xlink:href="#DejaVuSans-61"/>
      <use x="141.601562" xlink:href="#DejaVuSans-69"/>
      <use x="169.384766" xlink:href="#DejaVuSans-6e"/>
      <use x="232.763672" xlink:href="#DejaVuSans-2c"/>
      <use x="264.550781" xlink:href="#DejaVuSans-20"/>
      <use x="296.337891" xlink:href="#DejaVuSans-6e"/>
      <use x="359.716797" xlink:href="#DejaVuSans-6f"/>
      <use x="420.898438" xlink:href="#DejaVuSans-20"/>
      <use x="452.685547" xlink:href="#DejaVuSans-64"/>
      <use x="516.162109" xlink:href="#DejaVuSans-72"/>
      <use x="557.244141" xlink:href="#DejaVuSans-6f"/>
      <use x="618.425781" xlink:href="#DejaVuSans-70"/>
      <use x="681.902344" xlink:href="#DejaVuSans-6f"/>
      <use x="743.083984" xlink:href="#DejaVuSans-75"/>
      <use x="806.462891" xlink:href="#DejaVuSans-74"/>
     </g>
    </g>
    <g id="line2d_18">
     <path d="M 249.02 69.248563 
L 269.02 69.248563 
" style="fill:none;stroke:#1f77b4;stroke-dasharray:5.6,2.4;stroke-dashoffset:0;stroke-width:1.5;"/>
    </g>
    <g id="line2d_19"/>
    <g id="text_16">
     <!-- validation, no dropout -->
     <defs>
      <path d="M 2.984375 54.6875 
L 12.5 54.6875 
L 29.59375 8.796875 
L 46.6875 54.6875 
L 56.203125 54.6875 
L 35.6875 0 
L 23.484375 0 
z
" id="DejaVuSans-76"/>
     </defs>
     <g transform="translate(277.02 72.748563)scale(0.1 -0.1)">
      <use xlink:href="#DejaVuSans-76"/>
      <use x="59.179688" xlink:href="#DejaVuSans-61"/>
      <use x="120.458984" xlink:href="#DejaVuSans-6c"/>
      <use x="148.242188" xlink:href="#DejaVuSans-69"/>
      <use x="176.025391" xlink:href="#DejaVuSans-64"/>
      <use x="239.501953" xlink:href="#DejaVuSans-61"/>
      <use x="300.78125" xlink:href="#DejaVuSans-74"/>
      <use x="339.990234" xlink:href="#DejaVuSans-69"/>
      <use x="367.773438" xlink:href="#DejaVuSans-6f"/>
      <use x="428.955078" xlink:href="#DejaVuSans-6e"/>
      <use x="492.333984" xlink:href="#DejaVuSans-2c"/>
      <use x="524.121094" xlink:href="#DejaVuSans-20"/>
      <use x="555.908203" xlink:href="#DejaVuSans-6e"/>
      <use x="619.287109" xlink:href="#DejaVuSans-6f"/>
      <use x="680.46875" xlink:href="#DejaVuSans-20"/>
      <use x="712.255859" xlink:href="#DejaVuSans-64"/>
      <use x="775.732422" xlink:href="#DejaVuSans-72"/>
      <use x="816.814453" xlink:href="#DejaVuSans-6f"/>
      <use x="877.996094" xlink:href="#DejaVuSans-70"/>
      <use x="941.472656" xlink:href="#DejaVuSans-6f"/>
      <use x="1002.654297" xlink:href="#DejaVuSans-75"/>
      <use x="1066.033203" xlink:href="#DejaVuSans-74"/>
     </g>
    </g>
    <g id="line2d_20">
     <path d="M 249.02 83.926688 
L 269.02 83.926688 
" style="fill:none;stroke:#ff7f0e;stroke-linecap:square;stroke-width:1.5;"/>
    </g>
    <g id="line2d_21"/>
    <g id="text_17">
     <!-- train, dropout p=0.2 -->
     <defs>
      <path d="M 10.59375 45.40625 
L 73.1875 45.40625 
L 73.1875 37.203125 
L 10.59375 37.203125 
z
M 10.59375 25.484375 
L 73.1875 25.484375 
L 73.1875 17.1875 
L 10.59375 17.1875 
z
" id="DejaVuSans-3d"/>
     </defs>
     <g transform="translate(277.02 87.426688)scale(0.1 -0.1)">
      <use xlink:href="#DejaVuSans-74"/>
      <use x="39.208984" xlink:href="#DejaVuSans-72"/>
      <use x="80.322266" xlink:href="#DejaVuSans-61"/>
      <use x="141.601562" xlink:href="#DejaVuSans-69"/>
      <use x="169.384766" xlink:href="#DejaVuSans-6e"/>
      <use x="232.763672" xlink:href="#DejaVuSans-2c"/>
      <use x="264.550781" xlink:href="#DejaVuSans-20"/>
      <use x="296.337891" xlink:href="#DejaVuSans-64"/>
      <use x="359.814453" xlink:href="#DejaVuSans-72"/>
      <use x="400.896484" xlink:href="#DejaVuSans-6f"/>
      <use x="462.078125" xlink:href="#DejaVuSans-70"/>
      <use x="525.554688" xlink:href="#DejaVuSans-6f"/>
      <use x="586.736328" xlink:href="#DejaVuSans-75"/>
      <use x="650.115234" xlink:href="#DejaVuSans-74"/>
      <use x="689.324219" xlink:href="#DejaVuSans-20"/>
      <use x="721.111328" xlink:href="#DejaVuSans-70"/>
      <use x="784.587891" xlink:href="#DejaVuSans-3d"/>
      <use x="868.376953" xlink:href="#DejaVuSans-30"/>
      <use x="932" xlink:href="#DejaVuSans-2e"/>
      <use x="963.787109" xlink:href="#DejaVuSans-32"/>
     </g>
    </g>
    <g id="line2d_22">
     <path d="M 249.02 98.604813 
L 269.02 98.604813 
" style="fill:none;stroke:#ff7f0e;stroke-dasharray:5.6,2.4;stroke-dashoffset:0;stroke-width:1.5;"/>
    </g>
    <g id="line2d_23"/>
    <g id="text_18">
     <!-- validation, dropout p=0.2 -->
     <g transform="translate(277.02 102.104813)scale(0.1 -0.1)">
      <use xlink:href="#DejaVuSans-76"/>
      <use x="59.179688" xlink:href="#DejaVuSans-61"/>
      <use x="120.458984" xlink:href="#DejaVuSans-6c"/>
      <use x="148.242188" xlink:href="#DejaVuSans-69"/>
      <use x="176.025391" xlink:href="#DejaVuSans-64"/>
      <use x="239.501953" xlink:href="#DejaVuSans-61"/>
      <use x="300.78125" xlink:href="#DejaVuSans-74"/>
      <use x="339.990234" xlink:href="#DejaVuSans-69"/>
      <use x="367.773438" xlink:href="#DejaVuSans-6f"/>
      <use x="428.955078" xlink:href="#DejaVuSans-6e"/>
      <use x="492.333984" xlink:href="#DejaVuSans-2c"/>
      <use x="524.121094" xlink:href="#DejaVuSans-20"/>
      <use x="555.908203" xlink:href="#DejaVuSans-64"/>
      <use x="619.384766" xlink:href="#DejaVuSans-72"/>
      <use x="660.466797" xlink:href="#DejaVuSans-6f"/>
      <use x="721.648438" xlink:href="#DejaVuSans-70"/>
      <use x="785.125" xlink:href="#DejaVuSans-6f"/>
      <use x="846.306641" xlink:href="#DejaVuSans-75"/>
      <use x="909.685547" xlink:href="#DejaVuSans-74"/>
      <use x="948.894531" xlink:href="#DejaVuSans-20"/>
      <use x="980.681641" xlink:href="#DejaVuSans-70"/>
      <use x="1044.158203" xlink:href="#DejaVuSans-3d"/>
      <use x="1127.947266" xlink:href="#DejaVuSans-30"/>
      <use x="1191.570312" xlink:href="#DejaVuSans-2e"/>
      <use x="1223.357422" xlink:href="#DejaVuSans-32"/>
     </g>
    </g>
   </g>
  </g>
 </g>
 <defs>
  <clipPath id="pec2c944ccf">
   <rect height="266.112" width="357.12" x="57.6" y="41.472"/>
  </clipPath>
 </defs>
</svg>
