<?xml version="1.0" encoding="utf-8" standalone="no"?>
<!DOCTYPE svg PUBLIC "-//W3C//DTD SVG 1.1//EN"
  "http://www.w3.org/Graphics/SVG/1.1/DTD/svg11.dtd">
<!-- Created with matplotlib (http://matplotlib.org/) -->
<svg height="345pt" version="1.1" viewBox="0 0 460 345" width="460pt" xmlns="http://www.w3.org/2000/svg" xmlns:xlink="http://www.w3.org/1999/xlink">
 <defs>
  <style type="text/css">
*{stroke-linecap:butt;stroke-linejoin:round;}
  </style>
 </defs>
 <g id="figure_1">
  <g id="patch_1">
   <path d="M 0 345.6 
L 460.8 345.6 
L 460.8 0 
L 0 0 
z
" style="fill:#ffffff;"/>
  </g>
  <g id="axes_1">
   <g id="patch_2">
    <path d="M 57.6 307.584 
L 414.72 307.584 
L 414.72 41.472 
L 57.6 41.472 
z
" style="fill:#ffffff;"/>
   </g>
   <g id="matplotlib.axis_1">
    <g id="xtick_1">
     <g id="line2d_1">
      <defs>
       <path d="M 0 0 
L 0 3.5 
" id="m3e84788ffc" style="stroke:#000000;stroke-width:0.8;"/>
      </defs>
      <g>
       <use style="stroke:#000000;stroke-width:0.8;" x="73.832727" xlink:href="#m3e84788ffc" y="307.584"/>
      </g>
     </g>
     <g id="text_1">
      <!-- 0 -->
      <defs>
       <path d="M 31.78125 66.40625 
Q 24.171875 66.40625 20.328125 58.90625 
Q 16.5 51.421875 16.5 36.375 
Q 16.5 21.390625 20.328125 13.890625 
Q 24.171875 6.390625 31.78125 6.390625 
Q 39.453125 6.390625 43.28125 13.890625 
Q 47.125 21.390625 47.125 36.375 
Q 47.125 51.421875 43.28125 58.90625 
Q 39.453125 66.40625 31.78125 66.40625 
M 31.78125 74.21875 
Q 44.046875 74.21875 50.515625 64.515625 
Q 56.984375 54.828125 56.984375 36.375 
Q 56.984375 17.96875 50.515625 8.265625 
Q 44.046875 -1.421875 31.78125 -1.421875 
Q 19.53125 -1.421875 13.0625 8.265625 
Q 6.59375 17.96875 6.59375 36.375 
Q 6.59375 54.828125 13.0625 64.515625 
Q 19.53125 74.21875 31.78125 74.21875 
" id="DejaVuSans-30"/>
      </defs>
      <g transform="translate(70.651477 322.182437)scale(0.1 -0.1)">
       <use xlink:href="#DejaVuSans-30"/>
      </g>
     </g>
    </g>
    <g id="xtick_2">
     <g id="line2d_2">
      <g>
       <use style="stroke:#000000;stroke-width:0.8;" x="139.024403" xlink:href="#m3e84788ffc" y="307.584"/>
      </g>
     </g>
     <g id="text_2">
      <!-- 50 -->
      <defs>
       <path d="M 10.796875 72.90625 
L 49.515625 72.90625 
L 49.515625 64.59375 
L 19.828125 64.59375 
L 19.828125 46.734375 
Q 21.96875 47.46875 24.109375 47.828125 
Q 26.265625 48.1875 28.421875 48.1875 
Q 40.625 48.1875 47.75 41.5 
Q 54.890625 34.8125 54.890625 23.390625 
Q 54.890625 11.625 47.5625 5.09375 
Q 40.234375 -1.421875 26.90625 -1.421875 
Q 22.3125 -1.421875 17.546875 -0.640625 
Q 12.796875 0.140625 7.71875 1.703125 
L 7.71875 11.625 
Q 12.109375 9.234375 16.796875 8.0625 
Q 21.484375 6.890625 26.703125 6.890625 
Q 35.15625 6.890625 40.078125 11.328125 
Q 45.015625 15.765625 45.015625 23.390625 
Q 45.015625 31 40.078125 35.4375 
Q 35.15625 39.890625 26.703125 39.890625 
Q 22.75 39.890625 18.8125 39.015625 
Q 14.890625 38.140625 10.796875 36.28125 
z
" id="DejaVuSans-35"/>
      </defs>
      <g transform="translate(132.661903 322.182437)scale(0.1 -0.1)">
       <use xlink:href="#DejaVuSans-35"/>
       <use x="63.623047" xlink:href="#DejaVuSans-30"/>
      </g>
     </g>
    </g>
    <g id="xtick_3">
     <g id="line2d_3">
      <g>
       <use style="stroke:#000000;stroke-width:0.8;" x="204.216079" xlink:href="#m3e84788ffc" y="307.584"/>
      </g>
     </g>
     <g id="text_3">
      <!-- 100 -->
      <defs>
       <path d="M 12.40625 8.296875 
L 28.515625 8.296875 
L 28.515625 63.921875 
L 10.984375 60.40625 
L 10.984375 69.390625 
L 28.421875 72.90625 
L 38.28125 72.90625 
L 38.28125 8.296875 
L 54.390625 8.296875 
L 54.390625 0 
L 12.40625 0 
z
" id="DejaVuSans-31"/>
      </defs>
      <g transform="translate(194.672329 322.182437)scale(0.1 -0.1)">
       <use xlink:href="#DejaVuSans-31"/>
       <use x="63.623047" xlink:href="#DejaVuSans-30"/>
       <use x="127.246094" xlink:href="#DejaVuSans-30"/>
      </g>
     </g>
    </g>
    <g id="xtick_4">
     <g id="line2d_4">
      <g>
       <use style="stroke:#000000;stroke-width:0.8;" x="269.407755" xlink:href="#m3e84788ffc" y="307.584"/>
      </g>
     </g>
     <g id="text_4">
      <!-- 150 -->
      <g transform="translate(259.864005 322.182437)scale(0.1 -0.1)">
       <use xlink:href="#DejaVuSans-31"/>
       <use x="63.623047" xlink:href="#DejaVuSans-35"/>
       <use x="127.246094" xlink:href="#DejaVuSans-30"/>
      </g>
     </g>
    </g>
    <g id="xtick_5">
     <g id="line2d_5">
      <g>
       <use style="stroke:#000000;stroke-width:0.8;" x="334.59943" xlink:href="#m3e84788ffc" y="307.584"/>
      </g>
     </g>
     <g id="text_5">
      <!-- 200 -->
      <defs>
       <path d="M 19.1875 8.296875 
L 53.609375 8.296875 
L 53.609375 0 
L 7.328125 0 
L 7.328125 8.296875 
Q 12.9375 14.109375 22.625 23.890625 
Q 32.328125 33.6875 34.8125 36.53125 
Q 39.546875 41.84375 41.421875 45.53125 
Q 43.3125 49.21875 43.3125 52.78125 
Q 43.3125 58.59375 39.234375 62.25 
Q 35.15625 65.921875 28.609375 65.921875 
Q 23.96875 65.921875 18.8125 64.3125 
Q 13.671875 62.703125 7.8125 59.421875 
L 7.8125 69.390625 
Q 13.765625 71.78125 18.9375 73 
Q 24.125 74.21875 28.421875 74.21875 
Q 39.75 74.21875 46.484375 68.546875 
Q 53.21875 62.890625 53.21875 53.421875 
Q 53.21875 48.921875 51.53125 44.890625 
Q 49.859375 40.875 45.40625 35.40625 
Q 44.1875 33.984375 37.640625 27.21875 
Q 31.109375 20.453125 19.1875 8.296875 
" id="DejaVuSans-32"/>
      </defs>
      <g transform="translate(325.05568 322.182437)scale(0.1 -0.1)">
       <use xlink:href="#DejaVuSans-32"/>
       <use x="63.623047" xlink:href="#DejaVuSans-30"/>
       <use x="127.246094" xlink:href="#DejaVuSans-30"/>
      </g>
     </g>
    </g>
    <g id="xtick_6">
     <g id="line2d_6">
      <g>
       <use style="stroke:#000000;stroke-width:0.8;" x="399.791106" xlink:href="#m3e84788ffc" y="307.584"/>
      </g>
     </g>
     <g id="text_6">
      <!-- 250 -->
      <g transform="translate(390.247356 322.182437)scale(0.1 -0.1)">
       <use xlink:href="#DejaVuSans-32"/>
       <use x="63.623047" xlink:href="#DejaVuSans-35"/>
       <use x="127.246094" xlink:href="#DejaVuSans-30"/>
      </g>
     </g>
    </g>
    <g id="text_7">
     <!-- epoch -->
     <defs>
      <path d="M 56.203125 29.59375 
L 56.203125 25.203125 
L 14.890625 25.203125 
Q 15.484375 15.921875 20.484375 11.0625 
Q 25.484375 6.203125 34.421875 6.203125 
Q 39.59375 6.203125 44.453125 7.46875 
Q 49.3125 8.734375 54.109375 11.28125 
L 54.109375 2.78125 
Q 49.265625 0.734375 44.1875 -0.34375 
Q 39.109375 -1.421875 33.890625 -1.421875 
Q 20.796875 -1.421875 13.15625 6.1875 
Q 5.515625 13.8125 5.515625 26.8125 
Q 5.515625 40.234375 12.765625 48.109375 
Q 20.015625 56 32.328125 56 
Q 43.359375 56 49.78125 48.890625 
Q 56.203125 41.796875 56.203125 29.59375 
M 47.21875 32.234375 
Q 47.125 39.59375 43.09375 43.984375 
Q 39.0625 48.390625 32.421875 48.390625 
Q 24.90625 48.390625 20.390625 44.140625 
Q 15.875 39.890625 15.1875 32.171875 
z
" id="DejaVuSans-65"/>
      <path d="M 18.109375 8.203125 
L 18.109375 -20.796875 
L 9.078125 -20.796875 
L 9.078125 54.6875 
L 18.109375 54.6875 
L 18.109375 46.390625 
Q 20.953125 51.265625 25.265625 53.625 
Q 29.59375 56 35.59375 56 
Q 45.5625 56 51.78125 48.09375 
Q 58.015625 40.1875 58.015625 27.296875 
Q 58.015625 14.40625 51.78125 6.484375 
Q 45.5625 -1.421875 35.59375 -1.421875 
Q 29.59375 -1.421875 25.265625 0.953125 
Q 20.953125 3.328125 18.109375 8.203125 
M 48.6875 27.296875 
Q 48.6875 37.203125 44.609375 42.84375 
Q 40.53125 48.484375 33.40625 48.484375 
Q 26.265625 48.484375 22.1875 42.84375 
Q 18.109375 37.203125 18.109375 27.296875 
Q 18.109375 17.390625 22.1875 11.75 
Q 26.265625 6.109375 33.40625 6.109375 
Q 40.53125 6.109375 44.609375 11.75 
Q 48.6875 17.390625 48.6875 27.296875 
" id="DejaVuSans-70"/>
      <path d="M 30.609375 48.390625 
Q 23.390625 48.390625 19.1875 42.75 
Q 14.984375 37.109375 14.984375 27.296875 
Q 14.984375 17.484375 19.15625 11.84375 
Q 23.34375 6.203125 30.609375 6.203125 
Q 37.796875 6.203125 41.984375 11.859375 
Q 46.1875 17.53125 46.1875 27.296875 
Q 46.1875 37.015625 41.984375 42.703125 
Q 37.796875 48.390625 30.609375 48.390625 
M 30.609375 56 
Q 42.328125 56 49.015625 48.375 
Q 55.71875 40.765625 55.71875 27.296875 
Q 55.71875 13.875 49.015625 6.21875 
Q 42.328125 -1.421875 30.609375 -1.421875 
Q 18.84375 -1.421875 12.171875 6.21875 
Q 5.515625 13.875 5.515625 27.296875 
Q 5.515625 40.765625 12.171875 48.375 
Q 18.84375 56 30.609375 56 
" id="DejaVuSans-6f"/>
      <path d="M 48.78125 52.59375 
L 48.78125 44.1875 
Q 44.96875 46.296875 41.140625 47.34375 
Q 37.3125 48.390625 33.40625 48.390625 
Q 24.65625 48.390625 19.8125 42.84375 
Q 14.984375 37.3125 14.984375 27.296875 
Q 14.984375 17.28125 19.8125 11.734375 
Q 24.65625 6.203125 33.40625 6.203125 
Q 37.3125 6.203125 41.140625 7.25 
Q 44.96875 8.296875 48.78125 10.40625 
L 48.78125 2.09375 
Q 45.015625 0.34375 40.984375 -0.53125 
Q 36.96875 -1.421875 32.421875 -1.421875 
Q 20.0625 -1.421875 12.78125 6.34375 
Q 5.515625 14.109375 5.515625 27.296875 
Q 5.515625 40.671875 12.859375 48.328125 
Q 20.21875 56 33.015625 56 
Q 37.15625 56 41.109375 55.140625 
Q 45.0625 54.296875 48.78125 52.59375 
" id="DejaVuSans-63"/>
      <path d="M 54.890625 33.015625 
L 54.890625 0 
L 45.90625 0 
L 45.90625 32.71875 
Q 45.90625 40.484375 42.875 44.328125 
Q 39.84375 48.1875 33.796875 48.1875 
Q 26.515625 48.1875 22.3125 43.546875 
Q 18.109375 38.921875 18.109375 30.90625 
L 18.109375 0 
L 9.078125 0 
L 9.078125 75.984375 
L 18.109375 75.984375 
L 18.109375 46.1875 
Q 21.34375 51.125 25.703125 53.5625 
Q 30.078125 56 35.796875 56 
Q 45.21875 56 50.046875 50.171875 
Q 54.890625 44.34375 54.890625 33.015625 
" id="DejaVuSans-68"/>
     </defs>
     <g transform="translate(220.931875 335.860562)scale(0.1 -0.1)">
      <use xlink:href="#DejaVuSans-65"/>
      <use x="61.523438" xlink:href="#DejaVuSans-70"/>
      <use x="125" xlink:href="#DejaVuSans-6f"/>
      <use x="186.181641" xlink:href="#DejaVuSans-63"/>
      <use x="241.162109" xlink:href="#DejaVuSans-68"/>
     </g>
    </g>
   </g>
   <g id="matplotlib.axis_2">
    <g id="ytick_1">
     <g id="line2d_7">
      <defs>
       <path d="M 0 0 
L -3.5 0 
" id="m68895aaa9d" style="stroke:#000000;stroke-width:0.8;"/>
      </defs>
      <g>
       <use style="stroke:#000000;stroke-width:0.8;" x="57.6" xlink:href="#m68895aaa9d" y="307.584"/>
      </g>
     </g>
     <g id="text_8">
      <!-- 0.0 -->
      <defs>
       <path d="M 10.6875 12.40625 
L 21 12.40625 
L 21 0 
L 10.6875 0 
z
" id="DejaVuSans-2e"/>
      </defs>
      <g transform="translate(34.696875 311.383219)scale(0.1 -0.1)">
       <use xlink:href="#DejaVuSans-30"/>
       <use x="63.623047" xlink:href="#DejaVuSans-2e"/>
       <use x="95.410156" xlink:href="#DejaVuSans-30"/>
      </g>
     </g>
    </g>
    <g id="ytick_2">
     <g id="line2d_8">
      <g>
       <use style="stroke:#000000;stroke-width:0.8;" x="57.6" xlink:href="#m68895aaa9d" y="252.144"/>
      </g>
     </g>
     <g id="text_9">
      <!-- 0.5 -->
      <g transform="translate(34.696875 255.943219)scale(0.1 -0.1)">
       <use xlink:href="#DejaVuSans-30"/>
       <use x="63.623047" xlink:href="#DejaVuSans-2e"/>
       <use x="95.410156" xlink:href="#DejaVuSans-35"/>
      </g>
     </g>
    </g>
    <g id="ytick_3">
     <g id="line2d_9">
      <g>
       <use style="stroke:#000000;stroke-width:0.8;" x="57.6" xlink:href="#m68895aaa9d" y="196.704"/>
      </g>
     </g>
     <g id="text_10">
      <!-- 1.0 -->
      <g transform="translate(34.696875 200.503219)scale(0.1 -0.1)">
       <use xlink:href="#DejaVuSans-31"/>
       <use x="63.623047" xlink:href="#DejaVuSans-2e"/>
       <use x="95.410156" xlink:href="#DejaVuSans-30"/>
      </g>
     </g>
    </g>
    <g id="ytick_4">
     <g id="line2d_10">
      <g>
       <use style="stroke:#000000;stroke-width:0.8;" x="57.6" xlink:href="#m68895aaa9d" y="141.264"/>
      </g>
     </g>
     <g id="text_11">
      <!-- 1.5 -->
      <g transform="translate(34.696875 145.063219)scale(0.1 -0.1)">
       <use xlink:href="#DejaVuSans-31"/>
       <use x="63.623047" xlink:href="#DejaVuSans-2e"/>
       <use x="95.410156" xlink:href="#DejaVuSans-35"/>
      </g>
     </g>
    </g>
    <g id="ytick_5">
     <g id="line2d_11">
      <g>
       <use style="stroke:#000000;stroke-width:0.8;" x="57.6" xlink:href="#m68895aaa9d" y="85.824"/>
      </g>
     </g>
     <g id="text_12">
      <!-- 2.0 -->
      <g transform="translate(34.696875 89.623219)scale(0.1 -0.1)">
       <use xlink:href="#DejaVuSans-32"/>
       <use x="63.623047" xlink:href="#DejaVuSans-2e"/>
       <use x="95.410156" xlink:href="#DejaVuSans-30"/>
      </g>
     </g>
    </g>
    <g id="text_13">
     <!-- loss -->
     <defs>
      <path d="M 9.421875 75.984375 
L 18.40625 75.984375 
L 18.40625 0 
L 9.421875 0 
z
" id="DejaVuSans-6c"/>
      <path d="M 44.28125 53.078125 
L 44.28125 44.578125 
Q 40.484375 46.53125 36.375 47.5 
Q 32.28125 48.484375 27.875 48.484375 
Q 21.1875 48.484375 17.84375 46.4375 
Q 14.5 44.390625 14.5 40.28125 
Q 14.5 37.15625 16.890625 35.375 
Q 19.28125 33.59375 26.515625 31.984375 
L 29.59375 31.296875 
Q 39.15625 29.25 43.1875 25.515625 
Q 47.21875 21.78125 47.21875 15.09375 
Q 47.21875 7.46875 41.1875 3.015625 
Q 35.15625 -1.421875 24.609375 -1.421875 
Q 20.21875 -1.421875 15.453125 -0.5625 
Q 10.6875 0.296875 5.421875 2 
L 5.421875 11.28125 
Q 10.40625 8.6875 15.234375 7.390625 
Q 20.0625 6.109375 24.8125 6.109375 
Q 31.15625 6.109375 34.5625 8.28125 
Q 37.984375 10.453125 37.984375 14.40625 
Q 37.984375 18.0625 35.515625 20.015625 
Q 33.0625 21.96875 24.703125 23.78125 
L 21.578125 24.515625 
Q 13.234375 26.265625 9.515625 29.90625 
Q 5.8125 33.546875 5.8125 39.890625 
Q 5.8125 47.609375 11.28125 51.796875 
Q 16.75 56 26.8125 56 
Q 31.78125 56 36.171875 55.265625 
Q 40.578125 54.546875 44.28125 53.078125 
" id="DejaVuSans-73"/>
     </defs>
     <g transform="translate(28.617188 184.185812)rotate(-90)scale(0.1 -0.1)">
      <use xlink:href="#DejaVuSans-6c"/>
      <use x="27.783203" xlink:href="#DejaVuSans-6f"/>
      <use x="88.964844" xlink:href="#DejaVuSans-73"/>
      <use x="141.064453" xlink:href="#DejaVuSans-73"/>
     </g>
    </g>
   </g>
   <g id="line2d_12">
    <path clip-path="url(#p53ba7d2136)" d="M 73.832727 53.031789 
L 75.136561 56.498284 
L 77.744228 62.839555 
L 79.048061 66.457619 
L 80.351895 70.712853 
L 81.655728 75.490888 
L 84.263395 86.339021 
L 86.871062 98.481287 
L 89.478729 112.293903 
L 92.086396 127.272829 
L 98.605564 165.983631 
L 101.213231 178.696678 
L 102.517065 184.437267 
L 105.124732 194.249585 
L 107.732399 202.608894 
L 110.340066 209.640814 
L 112.947733 215.76391 
L 116.859233 223.412998 
L 119.4669 227.680996 
L 124.682234 235.183802 
L 125.986068 236.640931 
L 127.289901 238.294079 
L 129.897568 241.1048 
L 131.201402 242.322563 
L 132.505235 243.774336 
L 140.328237 250.892417 
L 149.455071 258.122622 
L 150.758905 258.9454 
L 153.366572 260.794443 
L 155.974239 262.58111 
L 157.278072 263.309842 
L 158.581906 264.215241 
L 162.493406 266.421918 
L 163.79724 267.030688 
L 167.70874 269.351817 
L 170.316407 270.717366 
L 172.924074 272.053987 
L 175.531742 273.316941 
L 178.139409 274.574639 
L 179.443242 275.10977 
L 180.747076 275.810955 
L 184.658576 277.438826 
L 187.266243 278.492917 
L 189.87391 279.629845 
L 192.481577 280.516211 
L 195.089244 281.615155 
L 196.393078 281.954938 
L 197.696911 282.530755 
L 209.431413 286.26412 
L 212.03908 286.923765 
L 215.950581 288.091964 
L 223.773582 290.035025 
L 225.077415 290.296202 
L 227.685082 290.978023 
L 243.331084 294.087746 
L 244.634918 294.243909 
L 245.938751 294.559299 
L 248.546418 294.885304 
L 251.154085 295.343339 
L 270.711588 298.102529 
L 274.623089 298.543428 
L 281.142256 299.285498 
L 288.965257 300.061383 
L 296.788258 300.729843 
L 321.561095 302.423053 
L 358.068434 303.959597 
L 398.487273 304.996685 
L 398.487273 304.996685 
" style="fill:none;stroke:#1f77b4;stroke-linecap:square;stroke-width:1.5;"/>
   </g>
   <g id="line2d_13">
    <path clip-path="url(#p53ba7d2136)" d="M 73.832727 54.677464 
L 76.440394 60.349865 
L 77.744228 63.637124 
L 79.048061 67.527901 
L 81.655728 76.945609 
L 84.263395 87.633276 
L 86.871062 99.406301 
L 89.478729 112.572707 
L 92.086396 126.582988 
L 95.997897 148.24476 
L 97.301731 154.91392 
L 99.909398 166.777467 
L 102.517065 176.770277 
L 103.820898 181.009193 
L 106.428565 187.961177 
L 107.732399 191.233381 
L 110.340066 196.434977 
L 114.251566 201.926875 
L 115.5554 203.413751 
L 116.859233 204.224081 
L 118.163067 205.620061 
L 119.4669 206.712095 
L 120.770734 207.389602 
L 122.074567 208.283526 
L 123.378401 208.715709 
L 125.986068 210.088789 
L 127.289901 210.834425 
L 132.505235 212.680443 
L 133.809069 212.459187 
L 135.112903 213.18176 
L 136.416736 212.892177 
L 137.72057 213.452811 
L 141.63207 214.04271 
L 142.935904 213.847917 
L 144.239737 213.460796 
L 145.543571 213.963505 
L 146.847404 213.523244 
L 148.151238 213.994861 
L 149.455071 214.141583 
L 150.758905 213.709929 
L 152.062738 214.192363 
L 154.670405 213.907639 
L 155.974239 214.437579 
L 157.278072 214.08798 
L 158.581906 214.054093 
L 159.885739 213.887226 
L 161.189573 214.242432 
L 162.493406 213.452133 
L 167.70874 213.113699 
L 169.012574 213.197813 
L 170.316407 212.429395 
L 171.620241 212.984635 
L 174.227908 211.834423 
L 175.531742 211.645678 
L 176.835575 211.019108 
L 178.139409 211.417458 
L 179.443242 210.938026 
L 180.747076 211.288031 
L 182.050909 210.342653 
L 183.354743 210.248031 
L 184.658576 210.34772 
L 185.96241 209.679243 
L 187.266243 209.205313 
L 188.570077 208.955754 
L 189.87391 208.977232 
L 191.177744 208.246574 
L 192.481577 208.659963 
L 193.785411 207.753161 
L 195.089244 207.351552 
L 197.696911 207.327855 
L 199.000745 207.136552 
L 200.304578 206.023196 
L 201.608412 205.71926 
L 202.912245 206.055711 
L 204.216079 205.347147 
L 205.519912 204.849464 
L 206.823746 204.963657 
L 208.127579 204.358825 
L 209.431413 204.008527 
L 210.735246 204.119997 
L 212.03908 203.712274 
L 213.342913 203.044432 
L 214.646747 202.134327 
L 217.254414 202.136078 
L 218.558248 201.811326 
L 219.862081 200.624354 
L 221.165915 200.661654 
L 223.773582 199.432817 
L 225.077415 199.617 
L 226.381249 199.57968 
L 227.685082 198.437688 
L 231.596583 197.604074 
L 232.900416 197.622294 
L 234.20425 197.195649 
L 235.508083 196.632033 
L 236.811917 196.354688 
L 238.11575 195.782882 
L 239.419584 195.030249 
L 240.723417 195.24393 
L 242.027251 194.686271 
L 243.331084 194.681007 
L 245.938751 193.480443 
L 248.546418 193.077907 
L 249.850252 192.515782 
L 252.457919 191.929817 
L 253.761752 191.216071 
L 255.065586 191.381339 
L 256.369419 191.195529 
L 257.673253 190.516449 
L 258.977087 190.300637 
L 260.28092 189.879485 
L 261.584754 189.189717 
L 262.888587 189.119848 
L 264.192421 188.792952 
L 265.496254 187.948665 
L 268.103921 187.863293 
L 269.407755 187.11514 
L 272.015422 186.772618 
L 273.319255 186.044668 
L 275.926922 185.577019 
L 278.534589 185.073119 
L 279.838423 184.446861 
L 281.142256 184.314481 
L 282.44609 183.712956 
L 283.749923 183.374695 
L 285.053757 183.455192 
L 286.35759 182.785259 
L 287.661424 182.465604 
L 288.965257 181.820829 
L 290.269091 182.168986 
L 291.572924 181.499244 
L 292.876758 181.096777 
L 294.180591 181.245586 
L 295.484425 180.456686 
L 296.788258 180.004922 
L 298.092092 179.93787 
L 299.395926 179.47489 
L 302.003593 178.978318 
L 303.307426 178.73579 
L 304.61126 178.786642 
L 305.915093 178.000305 
L 307.218927 177.587635 
L 308.52276 177.45563 
L 309.826594 177.819981 
L 311.130427 177.227638 
L 312.434261 177.238781 
L 313.738094 176.685003 
L 316.345761 176.249077 
L 317.649595 175.605908 
L 318.953428 175.84119 
L 320.257262 175.206611 
L 321.561095 174.843387 
L 322.864929 174.903559 
L 324.168762 174.767655 
L 325.472596 174.437074 
L 326.776429 173.910293 
L 328.080263 173.63368 
L 330.68793 173.412029 
L 331.991763 172.907556 
L 333.295597 172.702201 
L 334.59943 172.824293 
L 337.207097 172.183832 
L 338.510931 171.870283 
L 341.118598 171.556719 
L 342.422432 171.336569 
L 343.726265 171.234522 
L 345.030099 170.64324 
L 346.333932 170.841221 
L 347.637766 170.641123 
L 348.941599 170.161949 
L 350.245433 170.070268 
L 351.549266 169.577629 
L 352.8531 169.745282 
L 354.156933 169.371576 
L 358.068434 168.751239 
L 359.372267 168.814388 
L 367.195268 167.333455 
L 371.106769 166.733423 
L 372.410602 166.376411 
L 373.714436 166.478404 
L 376.322103 166.01873 
L 377.625936 166.087217 
L 378.92977 165.626617 
L 380.233604 165.613901 
L 381.537437 165.452022 
L 384.145104 164.740043 
L 385.448938 164.787104 
L 388.056605 164.511496 
L 389.360438 164.149765 
L 393.271939 163.590718 
L 394.575772 163.263248 
L 397.183439 163.120305 
L 398.487273 163.186333 
L 398.487273 163.186333 
" style="fill:none;stroke:#1f77b4;stroke-dasharray:5.6,2.4;stroke-dashoffset:0;stroke-width:1.5;"/>
   </g>
   <g id="line2d_14">
    <path clip-path="url(#p53ba7d2136)" d="M 73.832727 11.810052 
L 75.136561 40.125113 
L 76.440394 38.735443 
L 77.744228 46.854009 
L 79.048061 47.672731 
L 80.351895 48.856535 
L 81.655728 51.558536 
L 82.959562 52.306506 
L 84.263395 50.169711 
L 85.567229 51.780597 
L 86.871062 52.247835 
L 88.174896 51.543149 
L 89.478729 52.018522 
L 90.782563 51.564173 
L 92.086396 51.789412 
L 93.39023 50.932375 
L 94.694064 50.827858 
L 95.997897 52.134299 
L 97.301731 51.823283 
L 98.605564 53.32237 
L 99.909398 51.335399 
L 101.213231 52.214133 
L 102.517065 51.291411 
L 103.820898 51.809445 
L 105.124732 52.515712 
L 106.428565 51.713392 
L 107.732399 51.848701 
L 109.036232 53.168536 
L 110.340066 53.50057 
L 111.643899 52.07872 
L 112.947733 53.246513 
L 114.251566 53.004406 
L 115.5554 52.27737 
L 116.859233 53.044378 
L 118.163067 53.061034 
L 119.4669 53.610881 
L 120.770734 52.241782 
L 122.074567 54.076854 
L 123.378401 52.977351 
L 124.682234 52.130101 
L 125.986068 52.538375 
L 127.289901 53.18867 
L 128.593735 52.856255 
L 129.897568 52.748668 
L 131.201402 53.483821 
L 132.505235 53.6284 
L 133.809069 51.552788 
L 136.416736 53.193081 
L 137.72057 54.245047 
L 139.024403 52.939677 
L 140.328237 53.343238 
L 142.935904 53.334519 
L 144.239737 52.846101 
L 145.543571 53.960929 
L 146.847404 52.750724 
L 148.151238 52.417853 
L 149.455071 53.37312 
L 150.758905 53.18395 
L 152.062738 52.745108 
L 153.366572 52.760604 
L 154.670405 53.194641 
L 155.974239 53.472567 
L 157.278072 52.524153 
L 158.581906 53.768201 
L 159.885739 54.096051 
L 161.189573 53.908815 
L 162.493406 52.89483 
L 163.79724 53.787028 
L 165.101073 51.860154 
L 166.404907 53.077284 
L 167.70874 53.876242 
L 169.012574 53.239904 
L 170.316407 53.176953 
L 171.620241 52.80728 
L 172.924074 53.151522 
L 174.227908 53.110883 
L 175.531742 53.386259 
L 176.835575 53.226966 
L 178.139409 53.754277 
L 179.443242 52.298195 
L 180.747076 53.547614 
L 182.050909 53.128229 
L 183.354743 53.359117 
L 184.658576 52.334676 
L 185.96241 53.014069 
L 187.266243 53.391712 
L 188.570077 54.568179 
L 189.87391 53.502568 
L 191.177744 53.806221 
L 192.481577 53.791452 
L 193.785411 53.495564 
L 195.089244 53.655362 
L 196.393078 53.976863 
L 197.696911 53.937613 
L 199.000745 54.047407 
L 200.304578 54.545173 
L 201.608412 52.731881 
L 202.912245 53.645027 
L 204.216079 54.360285 
L 205.519912 53.437621 
L 206.823746 54.381414 
L 210.735246 54.250697 
L 212.03908 54.073108 
L 213.342913 53.678943 
L 214.646747 52.944419 
L 215.950581 54.101602 
L 217.254414 53.156151 
L 218.558248 53.722849 
L 219.862081 54.44931 
L 221.165915 54.518778 
L 222.469748 53.828914 
L 223.773582 54.526472 
L 225.077415 54.74824 
L 227.685082 53.779439 
L 228.988916 54.641703 
L 230.292749 53.700829 
L 231.596583 53.21182 
L 232.900416 54.613322 
L 234.20425 54.354556 
L 235.508083 54.592845 
L 236.811917 54.081601 
L 238.11575 53.154334 
L 239.419584 53.423777 
L 240.723417 54.875922 
L 242.027251 53.790336 
L 243.331084 52.547567 
L 244.634918 54.447584 
L 247.242585 55.060801 
L 248.546418 54.210143 
L 249.850252 54.471119 
L 251.154085 55.101478 
L 252.457919 55.317506 
L 253.761752 54.479089 
L 255.065586 54.705842 
L 256.369419 54.149568 
L 257.673253 54.43465 
L 258.977087 53.834162 
L 261.584754 55.319112 
L 262.888587 54.737612 
L 264.192421 54.948382 
L 265.496254 54.180343 
L 266.800088 54.272556 
L 268.103921 54.666477 
L 269.407755 54.301055 
L 270.711588 54.16136 
L 272.015422 56.253101 
L 273.319255 54.806618 
L 274.623089 54.68922 
L 275.926922 55.656237 
L 277.230756 52.629657 
L 278.534589 54.764286 
L 279.838423 55.45423 
L 281.142256 54.600796 
L 282.44609 55.986084 
L 283.749923 54.354028 
L 285.053757 54.894066 
L 286.35759 55.255557 
L 287.661424 54.720851 
L 288.965257 55.525057 
L 290.269091 54.589708 
L 292.876758 53.364438 
L 294.180591 55.894525 
L 296.788258 53.976115 
L 299.395926 54.711349 
L 300.699759 54.888486 
L 302.003593 52.538864 
L 303.307426 55.010938 
L 304.61126 54.055443 
L 305.915093 54.049382 
L 307.218927 55.449751 
L 308.52276 54.766722 
L 309.826594 55.121222 
L 311.130427 55.292215 
L 312.434261 55.764726 
L 313.738094 55.353392 
L 315.041928 52.964474 
L 316.345761 56.807854 
L 317.649595 55.022872 
L 318.953428 53.047772 
L 320.257262 56.637299 
L 321.561095 55.155628 
L 322.864929 54.770501 
L 324.168762 56.284128 
L 325.472596 54.652103 
L 326.776429 56.241714 
L 328.080263 54.97824 
L 329.384096 55.365462 
L 330.68793 54.570284 
L 331.991763 56.728346 
L 333.295597 55.906708 
L 334.59943 54.257114 
L 335.903264 55.904816 
L 337.207097 53.650314 
L 338.510931 58.0956 
L 339.814765 54.995713 
L 341.118598 53.504171 
L 342.422432 55.250902 
L 343.726265 54.767225 
L 345.030099 55.896875 
L 346.333932 55.331893 
L 347.637766 54.156117 
L 348.941599 54.522567 
L 350.245433 55.099293 
L 351.549266 54.276209 
L 352.8531 53.944176 
L 354.156933 56.444218 
L 355.460767 55.502087 
L 358.068434 55.010581 
L 359.372267 54.090162 
L 361.979934 56.087677 
L 363.283768 55.027577 
L 365.891435 54.461358 
L 367.195268 56.932972 
L 368.499102 55.364125 
L 369.802935 55.91537 
L 371.106769 54.546293 
L 372.410602 55.263027 
L 373.714436 56.606383 
L 375.018269 56.628453 
L 376.322103 54.879706 
L 377.625936 56.182085 
L 378.92977 54.862326 
L 380.233604 54.908762 
L 381.537437 55.119904 
L 382.841271 54.321874 
L 384.145104 57.872982 
L 385.448938 56.150901 
L 386.752771 53.831638 
L 388.056605 54.569464 
L 389.360438 56.160463 
L 390.664272 55.221406 
L 391.968105 56.462775 
L 393.271939 55.6698 
L 394.575772 55.685598 
L 395.879606 55.581351 
L 397.183439 56.796289 
L 398.487273 56.312155 
L 398.487273 56.312155 
" style="fill:none;stroke:#ff7f0e;stroke-linecap:square;stroke-width:1.5;"/>
   </g>
   <g id="line2d_15">
    <path clip-path="url(#p53ba7d2136)" d="M 73.832727 53.170307 
L 75.136561 52.780494 
L 77.744228 52.508517 
L 81.655728 52.54647 
L 90.782563 52.301449 
L 95.997897 52.232449 
L 103.820898 52.211952 
L 118.163067 52.230313 
L 124.682234 52.361 
L 127.289901 52.333742 
L 129.897568 52.404923 
L 141.63207 52.577172 
L 142.935904 52.665244 
L 144.239737 52.632241 
L 146.847404 52.693844 
L 148.151238 52.567306 
L 158.581906 52.627299 
L 167.70874 52.89798 
L 171.620241 52.812421 
L 176.835575 52.973107 
L 183.354743 53.105172 
L 184.658576 53.024872 
L 185.96241 53.185981 
L 197.696911 53.452098 
L 200.304578 53.536655 
L 204.216079 53.716413 
L 209.431413 54.098467 
L 210.735246 54.165531 
L 217.254414 53.847535 
L 218.558248 53.82573 
L 219.862081 54.006035 
L 223.773582 54.089583 
L 228.988916 54.338719 
L 232.900416 54.215997 
L 238.11575 54.403057 
L 239.419584 54.303871 
L 242.027251 54.468672 
L 243.331084 54.173486 
L 248.546418 54.437153 
L 249.850252 54.375773 
L 255.065586 54.646759 
L 258.977087 54.632899 
L 264.192421 55.340795 
L 266.800088 55.458578 
L 268.103921 55.210589 
L 269.407755 55.364459 
L 270.711588 55.290111 
L 273.319255 55.551482 
L 274.623089 55.4094 
L 275.926922 55.539491 
L 277.230756 55.254414 
L 278.534589 55.270798 
L 279.838423 55.514276 
L 281.142256 55.434123 
L 283.749923 55.537828 
L 285.053757 55.495796 
L 286.35759 55.632035 
L 287.661424 55.574871 
L 290.269091 55.804854 
L 291.572924 55.660758 
L 292.876758 55.404592 
L 294.180591 55.361087 
L 295.484425 55.476761 
L 298.092092 55.414503 
L 300.699759 55.809418 
L 302.003593 55.310996 
L 303.307426 55.434543 
L 305.915093 55.160456 
L 307.218927 55.362307 
L 309.826594 55.312913 
L 312.434261 55.69765 
L 313.738094 55.976281 
L 315.041928 55.575314 
L 316.345761 55.87074 
L 318.953428 55.46318 
L 320.257262 55.717925 
L 321.561095 55.766548 
L 324.168762 55.664948 
L 326.776429 56.002421 
L 330.68793 55.76461 
L 331.991763 56.000006 
L 334.59943 56.130284 
L 337.207097 56.045226 
L 338.510931 56.354331 
L 342.422432 56.519062 
L 343.726265 56.285911 
L 345.030099 56.357335 
L 346.333932 56.571151 
L 348.941599 56.562416 
L 350.245433 56.463846 
L 351.549266 56.109712 
L 352.8531 56.13495 
L 354.156933 56.429399 
L 355.460767 56.477354 
L 358.068434 56.257413 
L 359.372267 56.17596 
L 360.676101 56.207962 
L 361.979934 56.368 
L 364.587601 56.199511 
L 365.891435 56.101324 
L 367.195268 56.470073 
L 369.802935 56.827617 
L 371.106769 56.68016 
L 373.714436 56.926085 
L 375.018269 57.128651 
L 376.322103 56.928774 
L 377.625936 56.972164 
L 380.233604 56.634187 
L 382.841271 56.432314 
L 384.145104 56.916771 
L 385.448938 56.840938 
L 386.752771 56.406893 
L 388.056605 56.395119 
L 389.360438 56.714808 
L 390.664272 56.625427 
L 391.968105 56.877012 
L 394.575772 56.943142 
L 395.879606 56.960919 
L 397.183439 57.384549 
L 398.487273 57.45489 
L 398.487273 57.45489 
" style="fill:none;stroke:#ff7f0e;stroke-dasharray:5.6,2.4;stroke-dashoffset:0;stroke-width:1.5;"/>
   </g>
   <g id="patch_3">
    <path d="M 57.6 307.584 
L 57.6 41.472 
" style="fill:none;stroke:#000000;stroke-linecap:square;stroke-linejoin:miter;stroke-width:0.8;"/>
   </g>
   <g id="patch_4">
    <path d="M 414.72 307.584 
L 414.72 41.472 
" style="fill:none;stroke:#000000;stroke-linecap:square;stroke-linejoin:miter;stroke-width:0.8;"/>
   </g>
   <g id="patch_5">
    <path d="M 57.6 307.584 
L 414.72 307.584 
" style="fill:none;stroke:#000000;stroke-linecap:square;stroke-linejoin:miter;stroke-width:0.8;"/>
   </g>
   <g id="patch_6">
    <path d="M 57.6 41.472 
L 414.72 41.472 
" style="fill:none;stroke:#000000;stroke-linecap:square;stroke-linejoin:miter;stroke-width:0.8;"/>
   </g>
   <g id="text_14">
    <!-- MLP with 3 hidden layers and noisy labels -->
    <defs>
     <path d="M 9.8125 72.90625 
L 24.515625 72.90625 
L 43.109375 23.296875 
L 61.8125 72.90625 
L 76.515625 72.90625 
L 76.515625 0 
L 66.890625 0 
L 66.890625 64.015625 
L 48.09375 14.015625 
L 38.1875 14.015625 
L 19.390625 64.015625 
L 19.390625 0 
L 9.8125 0 
z
" id="DejaVuSans-4d"/>
     <path d="M 9.8125 72.90625 
L 19.671875 72.90625 
L 19.671875 8.296875 
L 55.171875 8.296875 
L 55.171875 0 
L 9.8125 0 
z
" id="DejaVuSans-4c"/>
     <path d="M 19.671875 64.796875 
L 19.671875 37.40625 
L 32.078125 37.40625 
Q 38.96875 37.40625 42.71875 40.96875 
Q 46.484375 44.53125 46.484375 51.125 
Q 46.484375 57.671875 42.71875 61.234375 
Q 38.96875 64.796875 32.078125 64.796875 
z
M 9.8125 72.90625 
L 32.078125 72.90625 
Q 44.34375 72.90625 50.609375 67.359375 
Q 56.890625 61.8125 56.890625 51.125 
Q 56.890625 40.328125 50.609375 34.8125 
Q 44.34375 29.296875 32.078125 29.296875 
L 19.671875 29.296875 
L 19.671875 0 
L 9.8125 0 
z
" id="DejaVuSans-50"/>
     <path id="DejaVuSans-20"/>
     <path d="M 4.203125 54.6875 
L 13.1875 54.6875 
L 24.421875 12.015625 
L 35.59375 54.6875 
L 46.1875 54.6875 
L 57.421875 12.015625 
L 68.609375 54.6875 
L 77.59375 54.6875 
L 63.28125 0 
L 52.6875 0 
L 40.921875 44.828125 
L 29.109375 0 
L 18.5 0 
z
" id="DejaVuSans-77"/>
     <path d="M 9.421875 54.6875 
L 18.40625 54.6875 
L 18.40625 0 
L 9.421875 0 
z
M 9.421875 75.984375 
L 18.40625 75.984375 
L 18.40625 64.59375 
L 9.421875 64.59375 
z
" id="DejaVuSans-69"/>
     <path d="M 18.3125 70.21875 
L 18.3125 54.6875 
L 36.8125 54.6875 
L 36.8125 47.703125 
L 18.3125 47.703125 
L 18.3125 18.015625 
Q 18.3125 11.328125 20.140625 9.421875 
Q 21.96875 7.515625 27.59375 7.515625 
L 36.8125 7.515625 
L 36.8125 0 
L 27.59375 0 
Q 17.1875 0 13.234375 3.875 
Q 9.28125 7.765625 9.28125 18.015625 
L 9.28125 47.703125 
L 2.6875 47.703125 
L 2.6875 54.6875 
L 9.28125 54.6875 
L 9.28125 70.21875 
z
" id="DejaVuSans-74"/>
     <path d="M 40.578125 39.3125 
Q 47.65625 37.796875 51.625 33 
Q 55.609375 28.21875 55.609375 21.1875 
Q 55.609375 10.40625 48.1875 4.484375 
Q 40.765625 -1.421875 27.09375 -1.421875 
Q 22.515625 -1.421875 17.65625 -0.515625 
Q 12.796875 0.390625 7.625 2.203125 
L 7.625 11.71875 
Q 11.71875 9.328125 16.59375 8.109375 
Q 21.484375 6.890625 26.8125 6.890625 
Q 36.078125 6.890625 40.9375 10.546875 
Q 45.796875 14.203125 45.796875 21.1875 
Q 45.796875 27.640625 41.28125 31.265625 
Q 36.765625 34.90625 28.71875 34.90625 
L 20.21875 34.90625 
L 20.21875 43.015625 
L 29.109375 43.015625 
Q 36.375 43.015625 40.234375 45.921875 
Q 44.09375 48.828125 44.09375 54.296875 
Q 44.09375 59.90625 40.109375 62.90625 
Q 36.140625 65.921875 28.71875 65.921875 
Q 24.65625 65.921875 20.015625 65.03125 
Q 15.375 64.15625 9.8125 62.3125 
L 9.8125 71.09375 
Q 15.4375 72.65625 20.34375 73.4375 
Q 25.25 74.21875 29.59375 74.21875 
Q 40.828125 74.21875 47.359375 69.109375 
Q 53.90625 64.015625 53.90625 55.328125 
Q 53.90625 49.265625 50.4375 45.09375 
Q 46.96875 40.921875 40.578125 39.3125 
" id="DejaVuSans-33"/>
     <path d="M 45.40625 46.390625 
L 45.40625 75.984375 
L 54.390625 75.984375 
L 54.390625 0 
L 45.40625 0 
L 45.40625 8.203125 
Q 42.578125 3.328125 38.25 0.953125 
Q 33.9375 -1.421875 27.875 -1.421875 
Q 17.96875 -1.421875 11.734375 6.484375 
Q 5.515625 14.40625 5.515625 27.296875 
Q 5.515625 40.1875 11.734375 48.09375 
Q 17.96875 56 27.875 56 
Q 33.9375 56 38.25 53.625 
Q 42.578125 51.265625 45.40625 46.390625 
M 14.796875 27.296875 
Q 14.796875 17.390625 18.875 11.75 
Q 22.953125 6.109375 30.078125 6.109375 
Q 37.203125 6.109375 41.296875 11.75 
Q 45.40625 17.390625 45.40625 27.296875 
Q 45.40625 37.203125 41.296875 42.84375 
Q 37.203125 48.484375 30.078125 48.484375 
Q 22.953125 48.484375 18.875 42.84375 
Q 14.796875 37.203125 14.796875 27.296875 
" id="DejaVuSans-64"/>
     <path d="M 54.890625 33.015625 
L 54.890625 0 
L 45.90625 0 
L 45.90625 32.71875 
Q 45.90625 40.484375 42.875 44.328125 
Q 39.84375 48.1875 33.796875 48.1875 
Q 26.515625 48.1875 22.3125 43.546875 
Q 18.109375 38.921875 18.109375 30.90625 
L 18.109375 0 
L 9.078125 0 
L 9.078125 54.6875 
L 18.109375 54.6875 
L 18.109375 46.1875 
Q 21.34375 51.125 25.703125 53.5625 
Q 30.078125 56 35.796875 56 
Q 45.21875 56 50.046875 50.171875 
Q 54.890625 44.34375 54.890625 33.015625 
" id="DejaVuSans-6e"/>
     <path d="M 34.28125 27.484375 
Q 23.390625 27.484375 19.1875 25 
Q 14.984375 22.515625 14.984375 16.5 
Q 14.984375 11.71875 18.140625 8.90625 
Q 21.296875 6.109375 26.703125 6.109375 
Q 34.1875 6.109375 38.703125 11.40625 
Q 43.21875 16.703125 43.21875 25.484375 
L 43.21875 27.484375 
z
M 52.203125 31.203125 
L 52.203125 0 
L 43.21875 0 
L 43.21875 8.296875 
Q 40.140625 3.328125 35.546875 0.953125 
Q 30.953125 -1.421875 24.3125 -1.421875 
Q 15.921875 -1.421875 10.953125 3.296875 
Q 6 8.015625 6 15.921875 
Q 6 25.140625 12.171875 29.828125 
Q 18.359375 34.515625 30.609375 34.515625 
L 43.21875 34.515625 
L 43.21875 35.40625 
Q 43.21875 41.609375 39.140625 45 
Q 35.0625 48.390625 27.6875 48.390625 
Q 23 48.390625 18.546875 47.265625 
Q 14.109375 46.140625 10.015625 43.890625 
L 10.015625 52.203125 
Q 14.9375 54.109375 19.578125 55.046875 
Q 24.21875 56 28.609375 56 
Q 40.484375 56 46.34375 49.84375 
Q 52.203125 43.703125 52.203125 31.203125 
" id="DejaVuSans-61"/>
     <path d="M 32.171875 -5.078125 
Q 28.375 -14.84375 24.75 -17.8125 
Q 21.140625 -20.796875 15.09375 -20.796875 
L 7.90625 -20.796875 
L 7.90625 -13.28125 
L 13.1875 -13.28125 
Q 16.890625 -13.28125 18.9375 -11.515625 
Q 21 -9.765625 23.484375 -3.21875 
L 25.09375 0.875 
L 2.984375 54.6875 
L 12.5 54.6875 
L 29.59375 11.921875 
L 46.6875 54.6875 
L 56.203125 54.6875 
z
" id="DejaVuSans-79"/>
     <path d="M 41.109375 46.296875 
Q 39.59375 47.171875 37.8125 47.578125 
Q 36.03125 48 33.890625 48 
Q 26.265625 48 22.1875 43.046875 
Q 18.109375 38.09375 18.109375 28.8125 
L 18.109375 0 
L 9.078125 0 
L 9.078125 54.6875 
L 18.109375 54.6875 
L 18.109375 46.1875 
Q 20.953125 51.171875 25.484375 53.578125 
Q 30.03125 56 36.53125 56 
Q 37.453125 56 38.578125 55.875 
Q 39.703125 55.765625 41.0625 55.515625 
z
" id="DejaVuSans-72"/>
     <path d="M 48.6875 27.296875 
Q 48.6875 37.203125 44.609375 42.84375 
Q 40.53125 48.484375 33.40625 48.484375 
Q 26.265625 48.484375 22.1875 42.84375 
Q 18.109375 37.203125 18.109375 27.296875 
Q 18.109375 17.390625 22.1875 11.75 
Q 26.265625 6.109375 33.40625 6.109375 
Q 40.53125 6.109375 44.609375 11.75 
Q 48.6875 17.390625 48.6875 27.296875 
M 18.109375 46.390625 
Q 20.953125 51.265625 25.265625 53.625 
Q 29.59375 56 35.59375 56 
Q 45.5625 56 51.78125 48.09375 
Q 58.015625 40.1875 58.015625 27.296875 
Q 58.015625 14.40625 51.78125 6.484375 
Q 45.5625 -1.421875 35.59375 -1.421875 
Q 29.59375 -1.421875 25.265625 0.953125 
Q 20.953125 3.328125 18.109375 8.203125 
L 18.109375 0 
L 9.078125 0 
L 9.078125 75.984375 
L 18.109375 75.984375 
z
" id="DejaVuSans-62"/>
    </defs>
    <g transform="translate(110.624063 35.472)scale(0.12 -0.12)">
     <use xlink:href="#DejaVuSans-4d"/>
     <use x="86.279297" xlink:href="#DejaVuSans-4c"/>
     <use x="141.992188" xlink:href="#DejaVuSans-50"/>
     <use x="202.294922" xlink:href="#DejaVuSans-20"/>
     <use x="234.082031" xlink:href="#DejaVuSans-77"/>
     <use x="315.869141" xlink:href="#DejaVuSans-69"/>
     <use x="343.652344" xlink:href="#DejaVuSans-74"/>
     <use x="382.861328" xlink:href="#DejaVuSans-68"/>
     <use x="446.240234" xlink:href="#DejaVuSans-20"/>
     <use x="478.027344" xlink:href="#DejaVuSans-33"/>
     <use x="541.650391" xlink:href="#DejaVuSans-20"/>
     <use x="573.4375" xlink:href="#DejaVuSans-68"/>
     <use x="636.816406" xlink:href="#DejaVuSans-69"/>
     <use x="664.599609" xlink:href="#DejaVuSans-64"/>
     <use x="728.076172" xlink:href="#DejaVuSans-64"/>
     <use x="791.552734" xlink:href="#DejaVuSans-65"/>
     <use x="853.076172" xlink:href="#DejaVuSans-6e"/>
     <use x="916.455078" xlink:href="#DejaVuSans-20"/>
     <use x="948.242188" xlink:href="#DejaVuSans-6c"/>
     <use x="976.025391" xlink:href="#DejaVuSans-61"/>
     <use x="1037.304688" xlink:href="#DejaVuSans-79"/>
     <use x="1096.484375" xlink:href="#DejaVuSans-65"/>
     <use x="1158.007812" xlink:href="#DejaVuSans-72"/>
     <use x="1199.121094" xlink:href="#DejaVuSans-73"/>
     <use x="1251.220703" xlink:href="#DejaVuSans-20"/>
     <use x="1283.007812" xlink:href="#DejaVuSans-61"/>
     <use x="1344.287109" xlink:href="#DejaVuSans-6e"/>
     <use x="1407.666016" xlink:href="#DejaVuSans-64"/>
     <use x="1471.142578" xlink:href="#DejaVuSans-20"/>
     <use x="1502.929688" xlink:href="#DejaVuSans-6e"/>
     <use x="1566.308594" xlink:href="#DejaVuSans-6f"/>
     <use x="1627.490234" xlink:href="#DejaVuSans-69"/>
     <use x="1655.273438" xlink:href="#DejaVuSans-73"/>
     <use x="1707.373047" xlink:href="#DejaVuSans-79"/>
     <use x="1766.552734" xlink:href="#DejaVuSans-20"/>
     <use x="1798.339844" xlink:href="#DejaVuSans-6c"/>
     <use x="1826.123047" xlink:href="#DejaVuSans-61"/>
     <use x="1887.402344" xlink:href="#DejaVuSans-62"/>
     <use x="1950.878906" xlink:href="#DejaVuSans-65"/>
     <use x="2012.402344" xlink:href="#DejaVuSans-6c"/>
     <use x="2040.185547" xlink:href="#DejaVuSans-73"/>
    </g>
   </g>
   <g id="legend_1">
    <g id="patch_7">
     <path d="M 64.6 205.38425 
L 225.3 205.38425 
Q 227.3 205.38425 227.3 203.38425 
L 227.3 145.67175 
Q 227.3 143.67175 225.3 143.67175 
L 64.6 143.67175 
Q 62.6 143.67175 62.6 145.67175 
L 62.6 203.38425 
Q 62.6 205.38425 64.6 205.38425 
z
" style="fill:#ffffff;opacity:0.8;stroke:#cccccc;stroke-linejoin:miter;"/>
    </g>
    <g id="line2d_16">
     <path d="M 66.6 151.770188 
L 86.6 151.770188 
" style="fill:none;stroke:#1f77b4;stroke-linecap:square;stroke-width:1.5;"/>
    </g>
    <g id="line2d_17"/>
    <g id="text_15">
     <!-- train, no dropout -->
     <defs>
      <path d="M 11.71875 12.40625 
L 22.015625 12.40625 
L 22.015625 4 
L 14.015625 -11.625 
L 7.71875 -11.625 
L 11.71875 4 
z
" id="DejaVuSans-2c"/>
      <path d="M 8.5 21.578125 
L 8.5 54.6875 
L 17.484375 54.6875 
L 17.484375 21.921875 
Q 17.484375 14.15625 20.5 10.265625 
Q 23.53125 6.390625 29.59375 6.390625 
Q 36.859375 6.390625 41.078125 11.03125 
Q 45.3125 15.671875 45.3125 23.6875 
L 45.3125 54.6875 
L 54.296875 54.6875 
L 54.296875 0 
L 45.3125 0 
L 45.3125 8.40625 
Q 42.046875 3.421875 37.71875 1 
Q 33.40625 -1.421875 27.6875 -1.421875 
Q 18.265625 -1.421875 13.375 4.4375 
Q 8.5 10.296875 8.5 21.578125 
M 31.109375 56 
z
" id="DejaVuSans-75"/>
     </defs>
     <g transform="translate(94.6 155.270188)scale(0.1 -0.1)">
      <use xlink:href="#DejaVuSans-74"/>
      <use x="39.208984" xlink:href="#DejaVuSans-72"/>
      <use x="80.322266" xlink:href="#DejaVuSans-61"/>
      <use x="141.601562" xlink:href="#DejaVuSans-69"/>
      <use x="169.384766" xlink:href="#DejaVuSans-6e"/>
      <use x="232.763672" xlink:href="#DejaVuSans-2c"/>
      <use x="264.550781" xlink:href="#DejaVuSans-20"/>
      <use x="296.337891" xlink:href="#DejaVuSans-6e"/>
      <use x="359.716797" xlink:href="#DejaVuSans-6f"/>
      <use x="420.898438" xlink:href="#DejaVuSans-20"/>
      <use x="452.685547" xlink:href="#DejaVuSans-64"/>
      <use x="516.162109" xlink:href="#DejaVuSans-72"/>
      <use x="557.244141" xlink:href="#DejaVuSans-6f"/>
      <use x="618.425781" xlink:href="#DejaVuSans-70"/>
      <use x="681.902344" xlink:href="#DejaVuSans-6f"/>
      <use x="743.083984" xlink:href="#DejaVuSans-75"/>
      <use x="806.462891" xlink:href="#DejaVuSans-74"/>
     </g>
    </g>
    <g id="line2d_18">
     <path d="M 66.6 166.448313 
L 86.6 166.448313 
" style="fill:none;stroke:#1f77b4;stroke-dasharray:5.6,2.4;stroke-dashoffset:0;stroke-width:1.5;"/>
    </g>
    <g id="line2d_19"/>
    <g id="text_16">
     <!-- validation, no dropout -->
     <defs>
      <path d="M 2.984375 54.6875 
L 12.5 54.6875 
L 29.59375 8.796875 
L 46.6875 54.6875 
L 56.203125 54.6875 
L 35.6875 0 
L 23.484375 0 
z
" id="DejaVuSans-76"/>
     </defs>
     <g transform="translate(94.6 169.948313)scale(0.1 -0.1)">
      <use xlink:href="#DejaVuSans-76"/>
      <use x="59.179688" xlink:href="#DejaVuSans-61"/>
      <use x="120.458984" xlink:href="#DejaVuSans-6c"/>
      <use x="148.242188" xlink:href="#DejaVuSans-69"/>
      <use x="176.025391" xlink:href="#DejaVuSans-64"/>
      <use x="239.501953" xlink:href="#DejaVuSans-61"/>
      <use x="300.78125" xlink:href="#DejaVuSans-74"/>
      <use x="339.990234" xlink:href="#DejaVuSans-69"/>
      <use x="367.773438" xlink:href="#DejaVuSans-6f"/>
      <use x="428.955078" xlink:href="#DejaVuSans-6e"/>
      <use x="492.333984" xlink:href="#DejaVuSans-2c"/>
      <use x="524.121094" xlink:href="#DejaVuSans-20"/>
      <use x="555.908203" xlink:href="#DejaVuSans-6e"/>
      <use x="619.287109" xlink:href="#DejaVuSans-6f"/>
      <use x="680.46875" xlink:href="#DejaVuSans-20"/>
      <use x="712.255859" xlink:href="#DejaVuSans-64"/>
      <use x="775.732422" xlink:href="#DejaVuSans-72"/>
      <use x="816.814453" xlink:href="#DejaVuSans-6f"/>
      <use x="877.996094" xlink:href="#DejaVuSans-70"/>
      <use x="941.472656" xlink:href="#DejaVuSans-6f"/>
      <use x="1002.654297" xlink:href="#DejaVuSans-75"/>
      <use x="1066.033203" xlink:href="#DejaVuSans-74"/>
     </g>
    </g>
    <g id="line2d_20">
     <path d="M 66.6 181.126438 
L 86.6 181.126438 
" style="fill:none;stroke:#ff7f0e;stroke-linecap:square;stroke-width:1.5;"/>
    </g>
    <g id="line2d_21"/>
    <g id="text_17">
     <!-- train, dropout p=0.8 -->
     <defs>
      <path d="M 10.59375 45.40625 
L 73.1875 45.40625 
L 73.1875 37.203125 
L 10.59375 37.203125 
z
M 10.59375 25.484375 
L 73.1875 25.484375 
L 73.1875 17.1875 
L 10.59375 17.1875 
z
" id="DejaVuSans-3d"/>
      <path d="M 31.78125 34.625 
Q 24.75 34.625 20.71875 30.859375 
Q 16.703125 27.09375 16.703125 20.515625 
Q 16.703125 13.921875 20.71875 10.15625 
Q 24.75 6.390625 31.78125 6.390625 
Q 38.8125 6.390625 42.859375 10.171875 
Q 46.921875 13.96875 46.921875 20.515625 
Q 46.921875 27.09375 42.890625 30.859375 
Q 38.875 34.625 31.78125 34.625 
M 21.921875 38.8125 
Q 15.578125 40.375 12.03125 44.71875 
Q 8.5 49.078125 8.5 55.328125 
Q 8.5 64.0625 14.71875 69.140625 
Q 20.953125 74.21875 31.78125 74.21875 
Q 42.671875 74.21875 48.875 69.140625 
Q 55.078125 64.0625 55.078125 55.328125 
Q 55.078125 49.078125 51.53125 44.71875 
Q 48 40.375 41.703125 38.8125 
Q 48.828125 37.15625 52.796875 32.3125 
Q 56.78125 27.484375 56.78125 20.515625 
Q 56.78125 9.90625 50.3125 4.234375 
Q 43.84375 -1.421875 31.78125 -1.421875 
Q 19.734375 -1.421875 13.25 4.234375 
Q 6.78125 9.90625 6.78125 20.515625 
Q 6.78125 27.484375 10.78125 32.3125 
Q 14.796875 37.15625 21.921875 38.8125 
M 18.3125 54.390625 
Q 18.3125 48.734375 21.84375 45.5625 
Q 25.390625 42.390625 31.78125 42.390625 
Q 38.140625 42.390625 41.71875 45.5625 
Q 45.3125 48.734375 45.3125 54.390625 
Q 45.3125 60.0625 41.71875 63.234375 
Q 38.140625 66.40625 31.78125 66.40625 
Q 25.390625 66.40625 21.84375 63.234375 
Q 18.3125 60.0625 18.3125 54.390625 
" id="DejaVuSans-38"/>
     </defs>
     <g transform="translate(94.6 184.626438)scale(0.1 -0.1)">
      <use xlink:href="#DejaVuSans-74"/>
      <use x="39.208984" xlink:href="#DejaVuSans-72"/>
      <use x="80.322266" xlink:href="#DejaVuSans-61"/>
      <use x="141.601562" xlink:href="#DejaVuSans-69"/>
      <use x="169.384766" xlink:href="#DejaVuSans-6e"/>
      <use x="232.763672" xlink:href="#DejaVuSans-2c"/>
      <use x="264.550781" xlink:href="#DejaVuSans-20"/>
      <use x="296.337891" xlink:href="#DejaVuSans-64"/>
      <use x="359.814453" xlink:href="#DejaVuSans-72"/>
      <use x="400.896484" xlink:href="#DejaVuSans-6f"/>
      <use x="462.078125" xlink:href="#DejaVuSans-70"/>
      <use x="525.554688" xlink:href="#DejaVuSans-6f"/>
      <use x="586.736328" xlink:href="#DejaVuSans-75"/>
      <use x="650.115234" xlink:href="#DejaVuSans-74"/>
      <use x="689.324219" xlink:href="#DejaVuSans-20"/>
      <use x="721.111328" xlink:href="#DejaVuSans-70"/>
      <use x="784.587891" xlink:href="#DejaVuSans-3d"/>
      <use x="868.376953" xlink:href="#DejaVuSans-30"/>
      <use x="932" xlink:href="#DejaVuSans-2e"/>
      <use x="963.787109" xlink:href="#DejaVuSans-38"/>
     </g>
    </g>
    <g id="line2d_22">
     <path d="M 66.6 195.804563 
L 86.6 195.804563 
" style="fill:none;stroke:#ff7f0e;stroke-dasharray:5.6,2.4;stroke-dashoffset:0;stroke-width:1.5;"/>
    </g>
    <g id="line2d_23"/>
    <g id="text_18">
     <!-- validation, dropout p=0.8 -->
     <g transform="translate(94.6 199.304563)scale(0.1 -0.1)">
      <use xlink:href="#DejaVuSans-76"/>
      <use x="59.179688" xlink:href="#DejaVuSans-61"/>
      <use x="120.458984" xlink:href="#DejaVuSans-6c"/>
      <use x="148.242188" xlink:href="#DejaVuSans-69"/>
      <use x="176.025391" xlink:href="#DejaVuSans-64"/>
      <use x="239.501953" xlink:href="#DejaVuSans-61"/>
      <use x="300.78125" xlink:href="#DejaVuSans-74"/>
      <use x="339.990234" xlink:href="#DejaVuSans-69"/>
      <use x="367.773438" xlink:href="#DejaVuSans-6f"/>
      <use x="428.955078" xlink:href="#DejaVuSans-6e"/>
      <use x="492.333984" xlink:href="#DejaVuSans-2c"/>
      <use x="524.121094" xlink:href="#DejaVuSans-20"/>
      <use x="555.908203" xlink:href="#DejaVuSans-64"/>
      <use x="619.384766" xlink:href="#DejaVuSans-72"/>
      <use x="660.466797" xlink:href="#DejaVuSans-6f"/>
      <use x="721.648438" xlink:href="#DejaVuSans-70"/>
      <use x="785.125" xlink:href="#DejaVuSans-6f"/>
      <use x="846.306641" xlink:href="#DejaVuSans-75"/>
      <use x="909.685547" xlink:href="#DejaVuSans-74"/>
      <use x="948.894531" xlink:href="#DejaVuSans-20"/>
      <use x="980.681641" xlink:href="#DejaVuSans-70"/>
      <use x="1044.158203" xlink:href="#DejaVuSans-3d"/>
      <use x="1127.947266" xlink:href="#DejaVuSans-30"/>
      <use x="1191.570312" xlink:href="#DejaVuSans-2e"/>
      <use x="1223.357422" xlink:href="#DejaVuSans-38"/>
     </g>
    </g>
   </g>
  </g>
 </g>
 <defs>
  <clipPath id="p53ba7d2136">
   <rect height="266.112" width="357.12" x="57.6" y="41.472"/>
  </clipPath>
 </defs>
</svg>
