<?xml version="1.0" encoding="UTF-8" standalone="no"?>
<!-- Created with Inkscape (http://www.inkscape.org/) -->

<svg
   xmlns:dc="http://purl.org/dc/elements/1.1/"
   xmlns:cc="http://creativecommons.org/ns#"
   xmlns:rdf="http://www.w3.org/1999/02/22-rdf-syntax-ns#"
   xmlns:svg="http://www.w3.org/2000/svg"
   xmlns="http://www.w3.org/2000/svg"
   xmlns:sodipodi="http://sodipodi.sourceforge.net/DTD/sodipodi-0.dtd"
   xmlns:inkscape="http://www.inkscape.org/namespaces/inkscape"
   width="119.50694mm"
   height="46.187904mm"
   viewBox="0 0 423.44979 163.65793"
   id="svg2"
   version="1.1"
   inkscape:version="0.91 r13725"
   sodipodi:docname="artificial_neuron.svg">
  <defs
     id="defs4">
    <marker
       inkscape:stockid="Arrow1Lend"
       orient="auto"
       refY="0"
       refX="0"
       id="marker37521"
       style="overflow:visible"
       inkscape:isstock="true">
      <path
         id="path37523"
         d="M 0,0 5,-5 -12.5,0 5,5 0,0 Z"
         style="fill:#000000;fill-opacity:1;fill-rule:evenodd;stroke:#000000;stroke-width:1pt;stroke-opacity:1"
         transform="matrix(-0.8,0,0,-0.8,-10,0)"
         inkscape:connector-curvature="0" />
    </marker>
    <marker
       inkscape:stockid="Arrow1Lend"
       orient="auto"
       refY="0"
       refX="0"
       id="marker23129"
       style="overflow:visible"
       inkscape:isstock="true">
      <path
         id="path23131"
         d="M 0,0 5,-5 -12.5,0 5,5 0,0 Z"
         style="fill:#000000;fill-opacity:1;fill-rule:evenodd;stroke:#000000;stroke-width:1pt;stroke-opacity:1"
         transform="matrix(-0.8,0,0,-0.8,-10,0)"
         inkscape:connector-curvature="0" />
    </marker>
    <marker
       inkscape:isstock="true"
       style="overflow:visible"
       id="marker17938"
       refX="0"
       refY="0"
       orient="auto"
       inkscape:stockid="Arrow1Lend"
       inkscape:collect="always">
      <path
         transform="matrix(-0.8,0,0,-0.8,-10,0)"
         style="fill:#000000;fill-opacity:1;fill-rule:evenodd;stroke:#000000;stroke-width:1pt;stroke-opacity:1"
         d="M 0,0 5,-5 -12.5,0 5,5 0,0 Z"
         id="path17940"
         inkscape:connector-curvature="0" />
    </marker>
    <marker
       inkscape:stockid="Arrow1Lend"
       orient="auto"
       refY="0"
       refX="0"
       id="Arrow1Lend"
       style="overflow:visible"
       inkscape:isstock="true"
       inkscape:collect="always">
      <path
         id="path17495"
         d="M 0,0 5,-5 -12.5,0 5,5 0,0 Z"
         style="fill:#000000;fill-opacity:1;fill-rule:evenodd;stroke:#000000;stroke-width:1pt;stroke-opacity:1"
         transform="matrix(-0.8,0,0,-0.8,-10,0)"
         inkscape:connector-curvature="0" />
    </marker>
    <marker
       inkscape:isstock="true"
       style="overflow:visible"
       id="marker22221"
       refX="0"
       refY="0"
       orient="auto"
       inkscape:stockid="Arrow1Lend">
      <path
         inkscape:connector-curvature="0"
         transform="matrix(-0.8,0,0,-0.8,-10,0)"
         style="fill:#000000;fill-opacity:1;fill-rule:evenodd;stroke:#000000;stroke-width:1pt;stroke-opacity:1"
         d="M 0,0 5,-5 -12.5,0 5,5 0,0 Z"
         id="path22223" />
    </marker>
    <marker
       inkscape:isstock="true"
       style="overflow:visible"
       id="marker21117"
       refX="0"
       refY="0"
       orient="auto"
       inkscape:stockid="Arrow1Lend"
       inkscape:collect="always">
      <path
         inkscape:connector-curvature="0"
         transform="matrix(-0.8,0,0,-0.8,-10,0)"
         style="fill:#000000;fill-opacity:1;fill-rule:evenodd;stroke:#000000;stroke-width:1pt;stroke-opacity:1"
         d="M 0,0 5,-5 -12.5,0 5,5 0,0 Z"
         id="path21119" />
    </marker>
    <marker
       inkscape:isstock="true"
       style="overflow:visible"
       id="marker34054"
       refX="0"
       refY="0"
       orient="auto"
       inkscape:stockid="Arrow1Lend">
      <path
         inkscape:connector-curvature="0"
         transform="matrix(-0.8,0,0,-0.8,-10,0)"
         style="fill:#000000;fill-opacity:1;fill-rule:evenodd;stroke:#000000;stroke-width:1pt;stroke-opacity:1"
         d="M 0,0 5,-5 -12.5,0 5,5 0,0 Z"
         id="path34056" />
    </marker>
    <marker
       inkscape:isstock="true"
       style="overflow:visible"
       id="marker34130"
       refX="0"
       refY="0"
       orient="auto"
       inkscape:stockid="Arrow1Lend">
      <path
         inkscape:connector-curvature="0"
         transform="matrix(-0.8,0,0,-0.8,-10,0)"
         style="fill:#000000;fill-opacity:1;fill-rule:evenodd;stroke:#000000;stroke-width:1pt;stroke-opacity:1"
         d="M 0,0 5,-5 -12.5,0 5,5 0,0 Z"
         id="path34132" />
    </marker>
    <marker
       inkscape:stockid="Arrow1Lend"
       orient="auto"
       refY="0"
       refX="0"
       id="marker33821"
       style="overflow:visible"
       inkscape:isstock="true">
      <path
         id="path33823"
         d="M 0,0 5,-5 -12.5,0 5,5 0,0 Z"
         style="fill:#000000;fill-opacity:1;fill-rule:evenodd;stroke:#000000;stroke-width:1pt;stroke-opacity:1"
         transform="matrix(-0.8,0,0,-0.8,-10,0)"
         inkscape:connector-curvature="0" />
    </marker>
    <marker
       inkscape:stockid="Arrow1Lend"
       orient="auto"
       refY="0"
       refX="0"
       id="marker33769"
       style="overflow:visible"
       inkscape:isstock="true">
      <path
         id="path33771"
         d="M 0,0 5,-5 -12.5,0 5,5 0,0 Z"
         style="fill:#000000;fill-opacity:1;fill-rule:evenodd;stroke:#000000;stroke-width:1pt;stroke-opacity:1"
         transform="matrix(-0.8,0,0,-0.8,-10,0)"
         inkscape:connector-curvature="0" />
    </marker>
    <marker
       inkscape:stockid="Arrow1Lend"
       orient="auto"
       refY="0"
       refX="0"
       id="marker33723"
       style="overflow:visible"
       inkscape:isstock="true">
      <path
         id="path33725"
         d="M 0,0 5,-5 -12.5,0 5,5 0,0 Z"
         style="fill:#000000;fill-opacity:1;fill-rule:evenodd;stroke:#000000;stroke-width:1pt;stroke-opacity:1"
         transform="matrix(-0.8,0,0,-0.8,-10,0)"
         inkscape:connector-curvature="0" />
    </marker>
    <marker
       inkscape:stockid="Arrow1Lend"
       orient="auto"
       refY="0"
       refX="0"
       id="marker33879"
       style="overflow:visible"
       inkscape:isstock="true">
      <path
         id="path33881"
         d="M 0,0 5,-5 -12.5,0 5,5 0,0 Z"
         style="fill:#000000;fill-opacity:1;fill-rule:evenodd;stroke:#000000;stroke-width:1pt;stroke-opacity:1"
         transform="matrix(-0.8,0,0,-0.8,-10,0)"
         inkscape:connector-curvature="0" />
    </marker>
  </defs>
  <sodipodi:namedview
     id="base"
     pagecolor="#ffffff"
     bordercolor="#666666"
     borderopacity="1.0"
     inkscape:pageopacity="0.0"
     inkscape:pageshadow="2"
     inkscape:zoom="3.3584761"
     inkscape:cx="131.24463"
     inkscape:cy="102.96562"
     inkscape:document-units="px"
     inkscape:current-layer="layer1"
     showgrid="false"
     inkscape:window-width="2495"
     inkscape:window-height="1416"
     inkscape:window-x="65"
     inkscape:window-y="24"
     inkscape:window-maximized="1"
     fit-margin-top="0"
     fit-margin-left="0"
     fit-margin-right="0"
     fit-margin-bottom="0" />
  <metadata
     id="metadata7">
    <rdf:RDF>
      <cc:Work
         rdf:about="">
        <dc:format>image/svg+xml</dc:format>
        <dc:type
           rdf:resource="http://purl.org/dc/dcmitype/StillImage" />
        <dc:title />
      </cc:Work>
    </rdf:RDF>
  </metadata>
  <g
     inkscape:label="Layer 1"
     inkscape:groupmode="layer"
     id="layer1"
     transform="translate(-56.539589,-79.178362)">
    <g
       id="g17474"
       transform="matrix(0.67046312,0,0,0.67046312,105.52619,46.860766)">
      <path
         sodipodi:nodetypes="cccc"
         inkscape:connector-curvature="0"
         id="path17468"
         d="m 355.46731,190.5841 c 0,0 0.63396,0.20884 14.17673,0 20.31692,-0.32633 26.78043,-32.29281 42.30832,-32.83116 l 15.65437,0"
         style="fill:none;fill-rule:evenodd;stroke:#000000;stroke-width:1.5;stroke-linecap:butt;stroke-linejoin:miter;stroke-miterlimit:4;stroke-dasharray:none;stroke-opacity:1" />
      <path
         inkscape:connector-curvature="0"
         id="path17470"
         d="m 392.87484,155.55024 0,36.73992"
         style="fill:none;fill-rule:evenodd;stroke:#000000;stroke-width:0.69999999;stroke-linecap:butt;stroke-linejoin:miter;stroke-miterlimit:4;stroke-dasharray:none;stroke-opacity:1" />
      <path
         sodipodi:nodetypes="cc"
         style="fill:none;fill-rule:evenodd;stroke:#000000;stroke-width:0.69999999;stroke-linecap:butt;stroke-linejoin:miter;stroke-miterlimit:4;stroke-dasharray:none;stroke-opacity:1"
         d="m 356.71392,173.9202 70.21641,0"
         id="path17472"
         inkscape:connector-curvature="0" />
    </g>
    <path
       sodipodi:nodetypes="cc"
       inkscape:connector-curvature="0"
       id="path17486"
       d="m 121.90495,101.9668 99.58729,45.26695"
       style="opacity:0.5;fill:none;fill-rule:evenodd;stroke:#000000;stroke-width:1;stroke-linecap:butt;stroke-linejoin:miter;stroke-miterlimit:4;stroke-dasharray:none;stroke-dashoffset:0;stroke-opacity:1;marker-end:url(#Arrow1Lend)" />
    <path
       style="opacity:0.5;fill:none;fill-rule:evenodd;stroke:#000000;stroke-width:1;stroke-linecap:butt;stroke-linejoin:miter;stroke-miterlimit:4;stroke-dasharray:none;stroke-dashoffset:0;stroke-opacity:1;marker-end:url(#marker17938)"
       d="m 121.90495,226.18774 99.79783,-46.31967"
       id="path17936"
       inkscape:connector-curvature="0"
       sodipodi:nodetypes="cc" />
    <path
       style="opacity:0.5;fill:none;fill-rule:evenodd;stroke:#000000;stroke-width:0.398;stroke-linecap:butt;stroke-linejoin:miter;stroke-miterlimit:4;stroke-dasharray:none;stroke-dashoffset:0;stroke-opacity:1;marker-end:url(#marker23129)"
       d="m 257.35277,117.01401 -0.0851,11.10914"
       id="path22219"
       inkscape:connector-curvature="0"
       sodipodi:nodetypes="cc" />
    <path
       style="opacity:0.5;fill:none;fill-rule:evenodd;stroke:#000000;stroke-width:0.7206502;stroke-linecap:butt;stroke-linejoin:miter;stroke-miterlimit:4;stroke-dasharray:none;stroke-dashoffset:0;stroke-opacity:1;marker-end:url(#marker21117)"
       d="m 287.79467,162.88565 47.79874,0.32471"
       id="path21115"
       inkscape:connector-curvature="0"
       sodipodi:nodetypes="cc" />
    <rect
       style="fill:#ffffff;fill-opacity:1;stroke:#000000;stroke-width:0.80000001;stroke-miterlimit:4;stroke-dasharray:none;stroke-dashoffset:0;stroke-opacity:1"
       id="rect4136-1"
       width="30.291298"
       height="162.85793"
       x="82.303917"
       y="79.578362" />
    <circle
       style="fill:none;fill-opacity:1;stroke:#000000;stroke-width:0.90056282;stroke-miterlimit:4;stroke-dasharray:none;stroke-dashoffset:0;stroke-opacity:1"
       id="path4138-0"
       cx="256.13687"
       cy="162.24854"
       r="31.909409" />
    <g
       id="g29382"
       transform="matrix(1.1,0,0,1.1,-260.5438,121.5751)">
      <path
         inkscape:connector-curvature="0"
         d="m 325.23605,-29.932627 c -0.54038,0.101325 -0.74302,0.506601 -0.74302,0.827449 0,0.40528 0.32084,0.540374 0.55725,0.540374 0.50662,0 0.86123,-0.439054 0.86123,-0.894996 0,-0.709241 -0.81056,-1.030088 -1.5198,-1.030088 -1.03009,0 -1.60424,1.013202 -1.75621,1.33405 -0.3884,-1.266503 -1.43538,-1.33405 -1.73934,-1.33405 -1.72244,0 -2.63433,2.212157 -2.63433,2.583665 0,0.06755 0.0675,0.151981 0.18575,0.151981 0.1351,0 0.16888,-0.101325 0.20265,-0.168867 0.57415,-1.874424 1.70555,-2.229046 2.19527,-2.229046 0.75991,0 0.91188,0.709243 0.91188,1.114523 0,0.371508 -0.10137,0.759901 -0.30396,1.570464 l -0.57415,2.313477 c -0.2533,1.013203 -0.74301,1.94197 -1.63801,1.94197 -0.0844,0 -0.5066,0 -0.86121,-0.219526 0.60791,-0.118212 0.74301,-0.624809 0.74301,-0.827449 0,-0.337734 -0.2533,-0.540374 -0.57415,-0.540374 -0.40528,0 -0.84434,0.35462 -0.84434,0.894995 0,0.709242 0.79368,1.030089 1.51981,1.030089 0.81055,0 1.3847,-0.641695 1.73933,-1.33405 0.27019,0.996315 1.11452,1.33405 1.73932,1.33405 1.72245,0 2.63433,-2.212159 2.63433,-2.583665 0,-0.08444 -0.0675,-0.151981 -0.16886,-0.151981 -0.15198,0 -0.16887,0.08444 -0.21953,0.219527 -0.45594,1.48603 -1.43537,2.178384 -2.19527,2.178384 -0.59104,0 -0.91188,-0.439053 -0.91188,-1.131409 0,-0.371507 0.0675,-0.641693 0.33773,-1.756216 l 0.59103,-2.296591 c 0.2533,-1.013202 0.82745,-1.756218 1.60424,-1.756218 0.0337,0 0.5066,0 0.86123,0.219528 z"
         id="use28720" />
      <path
         inkscape:connector-curvature="0"
         d="m 332.13286,-24.101082 c 0,-1.204585 -0.12388,-1.936341 -0.49535,-2.656841 -0.49534,-0.990686 -1.40723,-1.238358 -2.0264,-1.238358 -1.41849,0 -1.93634,1.058233 -2.09395,1.373452 -0.40529,0.821819 -0.4278,1.936341 -0.4278,2.521747 0,0.743015 0.0337,1.880053 0.57415,2.780676 0.51786,0.833078 1.35094,1.046976 1.9476,1.046976 0.54037,0 1.50855,-0.168867 2.07144,-1.283389 0.41653,-0.810562 0.45031,-1.812507 0.45031,-2.544263 z m -2.52175,3.512434 c -0.38276,0 -1.15955,-0.180125 -1.39596,-1.362194 -0.12388,-0.641695 -0.12388,-1.699929 -0.12388,-2.285334 0,-0.776789 0,-1.564834 0.12388,-2.184013 0.23641,-1.148295 1.11451,-1.260873 1.39596,-1.260873 0.38276,0 1.15955,0.191383 1.38471,1.215841 0.13509,0.61918 0.13509,1.463515 0.13509,2.229045 0,0.66421 0,1.677413 -0.13509,2.307849 -0.23641,1.182069 -1.0132,1.339679 -1.38471,1.339679 z"
         id="use28722" />
    </g>
    <g
       id="g29386"
       transform="matrix(1.1,0,0,1.1,-278.20856,156.46989)">
      <path
         inkscape:connector-curvature="0"
         d="m 341.31641,-29.932627 c -0.54038,0.101325 -0.74301,0.506601 -0.74301,0.827449 0,0.40528 0.32083,0.540374 0.55725,0.540374 0.50661,0 0.86122,-0.439054 0.86122,-0.894996 0,-0.709241 -0.81056,-1.030088 -1.5198,-1.030088 -1.03009,0 -1.60424,1.013202 -1.75621,1.33405 -0.3884,-1.266503 -1.43538,-1.33405 -1.73934,-1.33405 -1.72244,0 -2.63432,2.212157 -2.63432,2.583665 0,0.06755 0.0675,0.151981 0.18576,0.151981 0.13509,0 0.16886,-0.101325 0.20264,-0.168867 0.57415,-1.874424 1.70555,-2.229046 2.19526,-2.229046 0.75991,0 0.91189,0.709243 0.91189,1.114523 0,0.371508 -0.10138,0.759901 -0.30397,1.570464 l -0.57415,2.313477 c -0.2533,1.013203 -0.74301,1.94197 -1.638,1.94197 -0.0844,0 -0.50661,0 -0.86122,-0.219526 0.60791,-0.118212 0.74301,-0.624809 0.74301,-0.827449 0,-0.337734 -0.2533,-0.540374 -0.57415,-0.540374 -0.40527,0 -0.84434,0.35462 -0.84434,0.894995 0,0.709242 0.79368,1.030089 1.51982,1.030089 0.81055,0 1.3847,-0.641695 1.73932,-1.33405 0.27019,0.996315 1.11453,1.33405 1.73933,1.33405 1.72245,0 2.63432,-2.212159 2.63432,-2.583665 0,-0.08444 -0.0675,-0.151981 -0.16886,-0.151981 -0.15198,0 -0.16886,0.08444 -0.21952,0.219527 -0.45594,1.48603 -1.43538,2.178384 -2.19528,2.178384 -0.59104,0 -0.91188,-0.439053 -0.91188,-1.131409 0,-0.371507 0.0675,-0.641693 0.33773,-1.756216 l 0.59104,-2.296591 c 0.2533,-1.013202 0.82745,-1.756218 1.60424,-1.756218 0.0337,0 0.5066,0 0.86122,0.219528 z"
         id="use28724" />
      <path
         inkscape:connector-curvature="0"
         d="m 346.24311,-27.681062 c 0,-0.303961 -0.0225,-0.315219 -0.32649,-0.315219 -0.46156,0.450312 -1.05822,0.720499 -2.12771,0.720499 l 0,0.371508 c 0.30395,0 0.91187,0 1.56482,-0.30396 l 0,5.775251 c 0,0.416539 -0.0337,0.551632 -1.10326,0.551632 l -0.39402,0 0,0.371507 c 0.46157,-0.03378 1.42975,-0.03378 1.93635,-0.03378 0.5066,0 1.48602,0 1.9476,0.03378 l 0,-0.371507 -0.39403,0 c -1.0695,0 -1.10326,-0.135093 -1.10326,-0.551632 l 0,-6.248079 z"
         id="use28726" />
    </g>
    <g
       id="g29390"
       transform="matrix(1.1,0,0,1.1,-295.98984,253.52995)">
      <path
         inkscape:connector-curvature="0"
         d="m 357.39677,-29.932627 c -0.54037,0.101325 -0.74301,0.506601 -0.74301,0.827449 0,0.40528 0.32084,0.540374 0.55726,0.540374 0.5066,0 0.86121,-0.439054 0.86121,-0.894996 0,-0.709241 -0.81056,-1.030088 -1.51979,-1.030088 -1.03009,0 -1.60424,1.013202 -1.75622,1.33405 -0.3884,-1.266503 -1.43537,-1.33405 -1.73934,-1.33405 -1.72243,0 -2.63432,2.212157 -2.63432,2.583665 0,0.06755 0.0675,0.151981 0.18576,0.151981 0.13509,0 0.16886,-0.101325 0.20264,-0.168867 0.57415,-1.874424 1.70555,-2.229046 2.19526,-2.229046 0.75991,0 0.91189,0.709243 0.91189,1.114523 0,0.371508 -0.10138,0.759901 -0.30396,1.570464 l -0.57415,2.313477 c -0.2533,1.013203 -0.74302,1.94197 -1.638,1.94197 -0.0845,0 -0.50662,0 -0.86123,-0.219526 0.60791,-0.118212 0.74302,-0.624809 0.74302,-0.827449 0,-0.337734 -0.2533,-0.540374 -0.57416,-0.540374 -0.40527,0 -0.84433,0.35462 -0.84433,0.894995 0,0.709242 0.79367,1.030089 1.51981,1.030089 0.81056,0 1.3847,-0.641695 1.73933,-1.33405 0.27018,0.996315 1.11452,1.33405 1.73932,1.33405 1.72245,0 2.63433,-2.212159 2.63433,-2.583665 0,-0.08444 -0.0675,-0.151981 -0.16887,-0.151981 -0.15197,0 -0.16886,0.08444 -0.21952,0.219527 -0.45594,1.48603 -1.43538,2.178384 -2.19528,2.178384 -0.59104,0 -0.91187,-0.439053 -0.91187,-1.131409 0,-0.371507 0.0675,-0.641693 0.33772,-1.756216 l 0.59104,-2.296591 c 0.2533,-1.013202 0.82745,-1.756218 1.60424,-1.756218 0.0337,0 0.5066,0 0.86122,0.219528 z"
         id="use28728" />
      <path
         inkscape:connector-curvature="0"
         d="m 361.04007,-22.356123 c 0.0337,-0.168868 0.14636,-0.596664 0.18013,-0.76553 0.15761,-0.607921 0.15761,-0.619179 0.41655,-0.990687 0.3715,-0.551632 0.90061,-1.046976 1.65488,-1.046976 0.40529,0 0.6417,0.236414 0.6417,0.765531 0,0.619179 -0.47282,1.902568 -0.68672,2.454201 -0.14635,0.371507 -0.14635,0.439053 -0.14635,0.585405 0,0.641695 0.52911,0.956914 1.0132,0.956914 1.10326,0 1.56484,-1.576093 1.56484,-1.722444 0,-0.112575 -0.09,-0.146352 -0.16888,-0.146352 -0.13508,0 -0.15761,0.0788 -0.19137,0.191383 -0.27019,0.92314 -0.74303,1.362194 -1.17081,1.362194 -0.18013,0 -0.27019,-0.112575 -0.27019,-0.371508 0,-0.258929 0.09,-0.506601 0.20264,-0.788046 0.16886,-0.427796 0.66421,-1.722443 0.66421,-2.35288 0,-0.844335 -0.58541,-1.249615 -1.39598,-1.249615 -0.91187,0 -1.49728,0.551631 -1.82376,0.979427 -0.0788,-0.619179 -0.57415,-0.979427 -1.14829,-0.979427 -0.40528,0 -0.68672,0.258928 -0.86685,0.607921 -0.27018,0.529116 -0.38277,1.092006 -0.38277,1.114521 0,0.101325 0.0788,0.146352 0.16887,0.146352 0.14635,0 0.1576,-0.04502 0.23642,-0.337734 0.13508,-0.551633 0.33773,-1.215843 0.81056,-1.215843 0.2927,0 0.36025,0.281445 0.36025,0.529118 0,0.20264 -0.0562,0.416537 -0.14635,0.788045 -0.0225,0.09006 -0.19139,0.754272 -0.23641,0.911882 l -0.41656,1.68867 c -0.045,0.168867 -0.11262,0.450312 -0.11262,0.495343 0,0.25893 0.2139,0.348993 0.36025,0.348993 0.20264,0 0.37151,-0.135094 0.45031,-0.270188 0.0338,-0.06755 0.12388,-0.450313 0.18013,-0.686726 l 0.25892,-1.001944 z"
         id="use28730" />
    </g>
    <g
       id="g35345"
       transform="translate(468.28292,-55.764295)">
      <rect
         y="149.77156"
         x="-222.97652"
         height="23.522575"
         width="23.522575"
         id="rect20371-5"
         style="fill:none;fill-opacity:1;stroke:#000000;stroke-width:1;stroke-miterlimit:4;stroke-dasharray:none;stroke-dashoffset:0;stroke-opacity:1" />
      <g
         id="g29544"
         transform="matrix(1.25,0,0,1.2500001,-666.91944,150.80095)">
        <path
           id="use27611"
           d="m 364.16866,4.0598181 c 0.0135,-0.054037 0.0405,-0.1350936 0.0405,-0.2026404 0,-0.1350936 -0.13509,-0.1350936 -0.16211,-0.1350936 -0.0135,0 -0.49985,0.040528 -0.74301,0.067547 -0.22966,0.013509 -0.4323,0.040528 -0.67547,0.054037 -0.32423,0.027019 -0.41879,0.040528 -0.41879,0.2836966 0,0.1350936 0.13509,0.1350936 0.27018,0.1350936 0.68898,0 0.68898,0.1215842 0.68898,0.2566778 0,0.094565 -0.10807,0.486337 -0.16211,0.7295054 l -0.32422,1.2968986 c -0.1351,0.5403744 -0.90513,3.6069989 -0.95917,3.8501679 -0.0675,0.337734 -0.0675,0.567393 -0.0675,0.743014 0,1.377956 0.77004,2.093952 1.64815,2.093952 1.56708,0 3.1882,-2.012895 3.1882,-3.9717525 0,-1.2428612 -0.70248,-2.1209696 -1.71568,-2.1209696 -0.70249,0 -1.33743,0.5809025 -1.59411,0.8510897 l 0.98618,-3.9312237 z m -0.85109,8.9026679 c -0.43229,0 -0.90512,-0.324224 -0.90512,-1.377954 0,-0.445809 0.0405,-0.702487 0.28369,-1.6481423 0.0405,-0.1756217 0.25668,-1.0402208 0.31072,-1.2158424 0.027,-0.1080749 0.82407,-1.310408 1.74271,-1.310408 0.59441,0 0.8646,0.5944119 0.8646,1.2968986 0,0.6484493 -0.37827,2.1750071 -0.716,2.8774941 -0.33773,0.729505 -0.95916,1.377954 -1.5806,1.377954 z"
           inkscape:connector-curvature="0" />
      </g>
    </g>
    <path
       id="use27503"
       d="m 65.013808,160.04223 3.081553,-3.53315 c 0.29221,-0.34535 0.5313,-0.55786 2.73619,-0.55786 l 0,-1.1423 c -1.48764,0.0532 -1.54077,0.0532 -2.44398,0.0532 -0.770393,0 -1.912683,0 -2.656503,-0.0532 l 0,1.1423 c 0.50473,0 1.0626,0.13277 1.0626,0.31878 0,0.0532 -0.13282,0.23908 -0.18596,0.29221 l -2.31115,2.60337 -2.62994,-3.21436 1.11573,0 0,-1.1423 c -0.611,0.0532 -2.41742,0.0532 -3.13468,0.0532 -0.79695,0 -2.23146,0 -2.97528,-0.0532 l 0,1.1423 1.88612,0 4.14414,5.04735 -3.45345,3.90505 c -0.31878,0.37192 -0.50474,0.55788 -2.70964,0.55788 l 0,1.14229 c 1.59391,-0.0532 1.64704,-0.0532 2.47055,-0.0532 0.77039,0 1.88612,0 2.62994,0.0532 l 0,-1.14229 c -0.50474,0 -1.0626,-0.13277 -1.0626,-0.31879 0,-0.0266 0,-0.0532 0.18595,-0.26564 l 2.65651,-3.00186 2.94872,3.58629 -1.11574,0 0,1.14229 c 0.63757,-0.0532 2.41742,-0.0532 3.161253,-0.0532 0.79695,0 2.20489,0 2.94871,0.0532 l 0,-1.14229 -1.85955,0 -4.489493,-5.41927 z"
       inkscape:connector-curvature="0" />
    <path
       id="use35780"
       d="m 266.77147,172.28284 2.04329,-5.40374 -0.42217,0 c -0.65858,1.75621 -2.44857,2.90451 -4.39054,3.41111 -0.35462,0.0844 -2.00952,0.52349 -5.25176,0.52349 l -10.18268,0 8.59533,-10.08136 c 0.1182,-0.13509 0.15198,-0.18575 0.15198,-0.27019 0,-0.0338 0,-0.0844 -0.11821,-0.2533 l -7.8692,-10.75683 9.25391,0 c 2.26282,0 3.79951,0.23642 3.95149,0.27019 0.91188,0.13509 2.38102,0.42217 3.71507,1.2665 0.42217,0.27019 1.57047,1.03009 2.14462,2.39791 l 0.42216,0 -2.04329,-4.74516 -19.96008,0 c -0.38839,0 -0.40528,0.0169 -0.45594,0.11821 -0.0169,0.0507 -0.0169,0.37151 -0.0169,0.55726 l 8.93307,12.22597 -8.74732,10.25023 c -0.16886,0.20264 -0.16886,0.28707 -0.16886,0.30396 0,0.18575 0.15198,0.18575 0.45594,0.18575 l 19.96008,0 z"
       inkscape:connector-curvature="0" />
    <g
       transform="matrix(1.7793621,0,0,1.779362,397.31379,142.47607)"
       id="g36369">
      <path
         inkscape:connector-curvature="0"
         d="m 27.551395,8.5262952 c 0.270188,0 0.378262,0 0.378262,-0.2566778 0,-0.1350936 -0.108074,-0.1350936 -0.351243,-0.1350936 l -1.094258,0 C 26.740834,6.7430597 26.929965,5.7838951 27.03804,5.3515956 27.1191,5.027371 27.402792,4.7166557 27.754036,4.7166557 c 0.283696,0 0.567393,0.1215842 0.702486,0.2431685 -0.526865,0.054037 -0.688977,0.4458089 -0.688977,0.675468 0,0.2701872 0.20264,0.4322995 0.459318,0.4322995 0.270188,0 0.675468,-0.2296591 0.675468,-0.7430148 0,-0.5673931 -0.567393,-0.8781084 -1.161805,-0.8781084 -0.580902,0 -1.148295,0.4322995 -1.418482,0.9591646 -0.243169,0.4728276 -0.378263,0.9591645 -0.688978,2.7288907 l -0.905127,0 c -0.256678,0 -0.391771,0 -0.391771,0.2431685 0,0.1486029 0.08106,0.1486029 0.351243,0.1486029 l 0.864599,0 c -0.243168,1.2563705 -0.797052,4.3094858 -1.107767,5.7549878 -0.22966,1.175314 -0.4323,2.161497 -1.107768,2.161497 -0.04053,0 -0.4323,0 -0.675468,-0.256678 0.688977,-0.05404 0.688977,-0.648449 0.688977,-0.661958 0,-0.270188 -0.20264,-0.4323 -0.459318,-0.4323 -0.270187,0 -0.675468,0.229659 -0.675468,0.743015 0,0.580902 0.594412,0.878108 1.121277,0.878108 1.377955,0 1.945348,-2.472213 2.093951,-3.147681 0.243168,-1.04022 0.905127,-4.63371 0.972674,-5.0389908 l 1.148295,0 z"
         id="use35782" />
      <path
         inkscape:connector-curvature="0"
         d="m 33.879179,17.239832 c 0,-0.04053 0,-0.06755 -0.229659,-0.297206 -1.350936,-1.364445 -2.10746,-3.593489 -2.10746,-6.349399 0,-2.6208155 0.63494,-4.8768787 2.202026,-6.4709831 0.135093,-0.1215843 0.135093,-0.148603 0.135093,-0.1891311 0,-0.081056 -0.06755,-0.1080749 -0.121584,-0.1080749 -0.175622,0 -1.283389,0.972674 -1.945348,2.2965912 -0.688977,1.3644454 -0.999693,2.8099469 -0.999693,4.4715979 0,1.202333 0.189132,2.809947 0.891618,4.255449 0.797052,1.621123 1.90482,2.499231 2.053423,2.499231 0.05404,0 0.121584,-0.02702 0.121584,-0.108075 z"
         id="use35784" />
      <path
         inkscape:connector-curvature="0"
         d="m 39.185436,10.620246 1.567086,-1.7967449 c 0.148603,-0.1756216 0.270187,-0.2836965 1.391464,-0.2836965 l 0,-0.5809025 c -0.756524,0.027019 -0.783543,0.027019 -1.242861,0.027019 -0.391772,0 -0.972674,0 -1.350936,-0.027019 l 0,0.5809025 c 0.256677,0 0.540374,0.067547 0.540374,0.1621123 0,0.027019 -0.06755,0.1215842 -0.09457,0.148603 l -1.175314,1.3239171 -1.337427,-1.6346324 0.567394,0 0,-0.5809025 c -0.310716,0.027019 -1.229352,0.027019 -1.594105,0.027019 -0.405281,0 -1.134786,0 -1.513048,-0.027019 l 0,0.5809025 0.959164,0 2.107461,2.5667784 -1.756217,1.985876 c -0.162113,0.189131 -0.256678,0.283696 -1.377955,0.283696 l 0,0.580903 c 0.810562,-0.02702 0.83758,-0.02702 1.25637,-0.02702 0.391772,0 0.959165,0 1.337427,0.02702 l 0,-0.580903 c -0.256678,0 -0.540374,-0.06755 -0.540374,-0.162112 0,-0.01351 0,-0.02702 0.09457,-0.135093 l 1.350936,-1.526558 1.499539,1.823763 -0.567393,0 0,0.580903 c 0.324225,-0.02702 1.229352,-0.02702 1.607614,-0.02702 0.405281,0 1.121277,0 1.499539,0.02702 l 0,-0.580903 -0.945655,0 -2.283082,-2.755909 z"
         id="use35786" />
      <path
         inkscape:connector-curvature="0"
         d="m 46.463604,10.593227 c 0,-1.0267111 -0.135094,-2.7018717 -0.891618,-4.2689575 -0.797052,-1.6211232 -1.90482,-2.4992316 -2.053423,-2.4992316 -0.05404,0 -0.121584,0.027019 -0.121584,0.1080749 0,0.040528 0,0.067547 0.229659,0.2972059 1.350936,1.3644454 2.10746,3.5934898 2.10746,6.3493993 0,2.620816 -0.63494,4.876879 -2.202026,6.470983 -0.135093,0.121585 -0.135093,0.148603 -0.135093,0.189131 0,0.08106 0.06755,0.108075 0.121584,0.108075 0.175622,0 1.283389,-0.972674 1.945348,-2.296591 0.688977,-1.377955 0.999693,-2.836966 0.999693,-4.458089 z"
         id="use35788" />
    </g>
    <path
       id="use35792"
       d="m 311.18565,196.15814 c 0,-0.0507 0,-0.0844 -0.28707,-0.37151 -1.68867,-1.70556 -2.63433,-4.49186 -2.63433,-7.93675 0,-3.27602 0.79368,-6.0961 2.75254,-8.08873 0.16886,-0.15198 0.16886,-0.18575 0.16886,-0.23641 0,-0.10132 -0.0844,-0.13509 -0.15198,-0.13509 -0.21952,0 -1.60423,1.21584 -2.43168,2.87074 -0.86122,1.70555 -1.24962,3.51243 -1.24962,5.58949 0,1.50292 0.23642,3.51244 1.11453,5.31931 0.99631,2.02641 2.38102,3.12404 2.56677,3.12404 0.0676,0 0.15198,-0.0338 0.15198,-0.13509 z"
       inkscape:connector-curvature="0" />
    <path
       id="use35794"
       d="m 317.81791,187.88366 1.95885,-2.24593 c 0.18576,-0.21953 0.33774,-0.35463 1.73933,-0.35463 l 0,-0.72612 c -0.94565,0.0338 -0.97943,0.0338 -1.55357,0.0338 -0.48972,0 -1.21585,0 -1.68867,-0.0338 l 0,0.72612 c 0.32084,0 0.67546,0.0844 0.67546,0.20265 0,0.0338 -0.0844,0.15198 -0.11821,0.18575 l -1.46914,1.6549 -1.67178,-2.0433 0.70924,0 0,-0.72612 c -0.3884,0.0338 -1.53669,0.0338 -1.99263,0.0338 -0.5066,0 -1.41849,0 -1.89131,-0.0338 l 0,0.72612 1.19895,0 2.63433,3.20848 -2.19527,2.48234 c -0.20264,0.23642 -0.32085,0.35462 -1.72245,0.35462 l 0,0.72613 c 1.01321,-0.0338 1.04698,-0.0338 1.57047,-0.0338 0.48971,0 1.19895,0 1.67178,0.0338 l 0,-0.72613 c -0.32085,0 -0.67547,-0.0844 -0.67547,-0.20264 0,-0.0169 0,-0.0338 0.1182,-0.16886 l 1.68867,-1.9082 1.87443,2.2797 -0.70925,0 0,0.72613 c 0.40529,-0.0338 1.5367,-0.0338 2.00952,-0.0338 0.5066,0 1.4016,0 1.87443,0.0338 l 0,-0.72613 -1.18207,0 -2.85385,-3.44488 z"
       inkscape:connector-curvature="0" />
    <path
       id="use35796"
       d="m 326.91561,187.84988 c 0,-1.28339 -0.16886,-3.37734 -1.11452,-5.33619 -0.99631,-2.02641 -2.38102,-3.12404 -2.56677,-3.12404 -0.0676,0 -0.15198,0.0338 -0.15198,0.13509 0,0.0507 0,0.0844 0.28707,0.37151 1.68867,1.70555 2.63432,4.49186 2.63432,7.93675 0,3.27602 -0.79367,6.09609 -2.75253,8.08872 -0.16886,0.15199 -0.16886,0.18576 -0.16886,0.23642 0,0.10132 0.0844,0.13509 0.15198,0.13509 0.21952,0 1.60423,-1.21584 2.43168,-2.87074 0.86122,-1.72244 1.24961,-3.5462 1.24961,-5.57261 z"
       inkscape:connector-curvature="0" />
    <circle
       r="31.909409"
       cy="162.24854"
       cx="369.61481"
       id="circle36431"
       style="fill:none;fill-opacity:1;stroke:#000000;stroke-width:0.90056282;stroke-miterlimit:4;stroke-dasharray:none;stroke-dashoffset:0;stroke-opacity:1" />
    <path
       sodipodi:nodetypes="cc"
       inkscape:connector-curvature="0"
       id="path37519"
       d="m 402.75166,162.88565 28.00761,0.32471"
       style="opacity:0.5;fill:none;fill-rule:evenodd;stroke:#000000;stroke-width:0.7206502;stroke-linecap:butt;stroke-linejoin:miter;stroke-miterlimit:4;stroke-dasharray:none;stroke-dashoffset:0;stroke-opacity:1;marker-end:url(#marker37521)" />
    <path
       id="use28666"
       d="m 184.91379,223.33551 c 0.0337,-0.16886 0.14636,-0.59666 0.18012,-0.76553 0.15761,-0.60792 0.15761,-0.61918 0.41655,-0.99068 0.3715,-0.55164 0.90061,-1.04698 1.65489,-1.04698 0.40529,0 0.6417,0.23641 0.6417,0.76553 0,0.61918 -0.47283,1.90257 -0.68673,2.4542 -0.14635,0.37151 -0.14635,0.43906 -0.14635,0.58541 0,0.64169 0.52912,0.95691 1.0132,0.95691 1.10327,0 1.56484,-1.57609 1.56484,-1.72244 0,-0.11258 -0.09,-0.14635 -0.16887,-0.14635 -0.13509,0 -0.15762,0.0788 -0.19138,0.19138 -0.27019,0.92314 -0.74302,1.36219 -1.17081,1.36219 -0.18013,0 -0.27019,-0.11257 -0.27019,-0.37151 0,-0.25892 0.09,-0.5066 0.20264,-0.78804 0.16886,-0.4278 0.66421,-1.72244 0.66421,-2.35288 0,-0.84434 -0.58541,-1.24962 -1.39597,-1.24962 -0.91188,0 -1.49729,0.55163 -1.82377,0.97943 -0.0787,-0.61918 -0.57415,-0.97943 -1.14828,-0.97943 -0.40529,0 -0.68673,0.25893 -0.86685,0.60792 -0.27019,0.52912 -0.38278,1.09201 -0.38278,1.11453 0,0.10132 0.0788,0.14635 0.16888,0.14635 0.14635,0 0.1576,-0.045 0.23641,-0.33774 0.13509,-0.55163 0.33774,-1.21584 0.81056,-1.21584 0.2927,0 0.36025,0.28144 0.36025,0.52912 0,0.20264 -0.0563,0.41654 -0.14635,0.78804 -0.0225,0.0901 -0.19139,0.75428 -0.23641,0.91189 l -0.41655,1.68867 c -0.045,0.16886 -0.11263,0.45031 -0.11263,0.49534 0,0.25893 0.2139,0.34899 0.36025,0.34899 0.20264,0 0.37152,-0.13509 0.45032,-0.27019 0.0337,-0.0676 0.12387,-0.45031 0.18012,-0.68672 l 0.25893,-1.00195 z"
       inkscape:connector-curvature="0" />
    <path
       id="use28650"
       d="m 187.5964,116.25666 c 0,-1.20459 -0.12388,-1.93634 -0.49534,-2.65684 -0.49534,-0.99069 -1.40723,-1.23836 -2.0264,-1.23836 -1.41849,0 -1.93635,1.05824 -2.09395,1.37345 -0.40529,0.82182 -0.4278,1.93634 -0.4278,2.52175 0,0.74301 0.0337,1.88005 0.57415,2.78068 0.51785,0.83307 1.35094,1.04697 1.9476,1.04697 0.54037,0 1.50854,-0.16886 2.07144,-1.28339 0.41653,-0.81056 0.4503,-1.8125 0.4503,-2.54426 z m -2.52174,3.51243 c -0.38278,0 -1.15956,-0.18012 -1.39598,-1.36219 -0.12387,-0.6417 -0.12387,-1.69993 -0.12387,-2.28533 0,-0.77679 0,-1.56484 0.12387,-2.18402 0.23642,-1.14829 1.11453,-1.26087 1.39598,-1.26087 0.38276,0 1.15955,0.19138 1.3847,1.21584 0.1351,0.61918 0.1351,1.46352 0.1351,2.22905 0,0.66421 0,1.67741 -0.1351,2.30785 -0.23641,1.18206 -1.0132,1.33967 -1.3847,1.33967 z"
       inkscape:connector-curvature="0" />
    <path
       id="use9054"
       d="m 299.08925,190.78722 c 0.72613,-0.82745 1.31716,-1.35094 2.1615,-2.11084 1.0132,-0.87811 1.45226,-1.30027 1.68867,-1.55357 1.18207,-1.16519 1.7731,-2.14461 1.7731,-2.27971 0,-0.13509 -0.13509,-0.13509 -0.16886,-0.13509 -0.11821,0 -0.15198,0.0676 -0.23642,0.18575 -0.42216,0.72613 -0.82745,1.08075 -1.2665,1.08075 -0.35462,0 -0.54037,-0.15198 -0.86122,-0.55726 -0.35462,-0.42217 -0.6417,-0.70924 -1.13141,-0.70924 -1.23273,0 -1.97574,1.53669 -1.97574,1.89131 0,0.0507 0.0169,0.15198 0.16886,0.15198 0.1351,0 0.15198,-0.0676 0.20264,-0.18575 0.28708,-0.67547 1.09764,-0.79368 1.41849,-0.79368 0.35462,0 0.69235,0.1182 1.04697,0.27019 0.6417,0.27018 0.91188,0.27018 1.08075,0.27018 0.11821,0 0.18575,0 0.27019,-0.0169 -0.55726,0.65859 -1.46915,1.46915 -2.22905,2.1615 l -1.70555,1.57047 c -1.03009,1.04697 -1.6549,2.04329 -1.6549,2.16149 0,0.10133 0.0844,0.1351 0.18575,0.1351 0.10132,0 0.11821,-0.0169 0.23642,-0.21953 0.27018,-0.42217 0.81056,-1.04698 1.43537,-1.04698 0.35462,0 0.52348,0.11822 0.86122,0.54038 0.32085,0.37151 0.60792,0.72613 1.14829,0.72613 1.6549,0 2.60056,-2.14461 2.60056,-2.53301 0,-0.0676 -0.0169,-0.16887 -0.18576,-0.16887 -0.13509,0 -0.15198,0.0675 -0.20264,0.23642 -0.37151,0.99631 -1.36782,1.40159 -2.0264,1.40159 -0.35462,0 -0.69236,-0.11821 -1.04698,-0.27018 -0.67547,-0.27019 -0.86122,-0.27019 -1.08075,-0.27019 -0.16886,0 -0.35462,0 -0.5066,0.0676 z"
       inkscape:connector-curvature="0" />
    <path
       id="use3515"
       d="m 173.85906,114.05847 c 0.48771,1.33011 1.86213,1.57397 2.70454,1.57397 1.68479,0 2.68236,-1.46311 3.30309,-2.99274 0.50987,-1.28576 1.3301,-4.21198 1.3301,-5.5199 0,-1.35229 -0.68722,-1.48528 -0.88675,-1.48528 -0.53203,0 -1.01975,0.53202 -1.01975,0.97539 0,0.26603 0.1552,0.42122 0.26604,0.50989 0.19951,0.1995 0.7759,0.79804 0.7759,1.9508 0,0.75374 -0.62073,2.83754 -1.08627,3.87946 -0.6207,1.35228 -1.44093,2.23901 -2.59368,2.23901 -1.24143,0 -1.64045,-0.93108 -1.64045,-1.95082 0,-0.64288 0.1995,-1.41877 0.28816,-1.79564 l 0.93109,-3.72426 c 0.11079,-0.44338 0.31035,-1.21928 0.31035,-1.30794 0,-0.33254 -0.26602,-0.55422 -0.59855,-0.55422 -0.64289,0 -0.79806,0.55422 -0.93105,1.08627 -0.2217,0.86455 -1.15277,4.611 -1.24144,5.0987 -0.0886,0.37687 -0.0886,0.62072 -0.0886,1.10842 0,0.53204 -0.7094,1.37444 -0.73156,1.41878 -0.24386,0.24385 -0.59853,0.62071 -1.28576,0.62071 -1.7513,0 -1.7513,-1.66263 -1.7513,-2.03949 0,-0.70938 0.15517,-1.6848 1.15275,-4.32282 0.26603,-0.68724 0.37686,-0.97541 0.37686,-1.41879 0,-0.93106 -0.66505,-1.77345 -1.75129,-1.77345 -2.0395,0 -2.85973,3.2144 -2.85973,3.39175 0,0.0886 0.0887,0.19952 0.24387,0.19952 0.19951,0 0.22167,-0.0887 0.31034,-0.39903 0.55422,-1.95082 1.41878,-2.74889 2.23901,-2.74889 0.22168,0 0.5764,0.0222 0.5764,0.73155 0,0.1108 0,0.5764 -0.37688,1.5518 -1.04192,2.77104 -1.2636,3.67994 -1.2636,4.52234 0,2.32768 1.90648,2.74888 3.03706,2.74888 0.37686,0 1.37443,0 2.26118,-1.57397 z"
       inkscape:connector-curvature="0" />
    <path
       inkscape:connector-curvature="0"
       d="m 175.85906,220.05847 c 0.48771,1.33011 1.86213,1.57397 2.70454,1.57397 1.68479,0 2.68236,-1.46311 3.30309,-2.99274 0.50987,-1.28576 1.3301,-4.21198 1.3301,-5.5199 0,-1.35229 -0.68722,-1.48528 -0.88675,-1.48528 -0.53203,0 -1.01975,0.53202 -1.01975,0.97539 0,0.26603 0.1552,0.42122 0.26604,0.50989 0.19951,0.1995 0.7759,0.79804 0.7759,1.9508 0,0.75374 -0.62073,2.83754 -1.08627,3.87946 -0.6207,1.35228 -1.44093,2.23901 -2.59368,2.23901 -1.24143,0 -1.64045,-0.93108 -1.64045,-1.95082 0,-0.64288 0.1995,-1.41877 0.28816,-1.79564 l 0.93109,-3.72426 c 0.11079,-0.44338 0.31035,-1.21928 0.31035,-1.30794 0,-0.33254 -0.26602,-0.55422 -0.59855,-0.55422 -0.64289,0 -0.79806,0.55422 -0.93105,1.08627 -0.2217,0.86455 -1.15277,4.611 -1.24144,5.0987 -0.0886,0.37687 -0.0886,0.62072 -0.0886,1.10842 0,0.53204 -0.7094,1.37444 -0.73156,1.41878 -0.24386,0.24385 -0.59853,0.62071 -1.28576,0.62071 -1.7513,0 -1.7513,-1.66263 -1.7513,-2.03949 0,-0.70938 0.15517,-1.6848 1.15275,-4.32282 0.26603,-0.68724 0.37686,-0.97541 0.37686,-1.41879 0,-0.93106 -0.66505,-1.77345 -1.75129,-1.77345 -2.0395,0 -2.85973,3.2144 -2.85973,3.39175 0,0.0886 0.0887,0.19952 0.24387,0.19952 0.19951,0 0.22167,-0.0887 0.31034,-0.39903 0.55422,-1.95082 1.41878,-2.74889 2.23901,-2.74889 0.22168,0 0.5764,0.0222 0.5764,0.73155 0,0.1108 0,0.5764 -0.37688,1.5518 -1.04192,2.77104 -1.2636,3.67994 -1.2636,4.52234 0,2.32768 1.90648,2.74888 3.03706,2.74888 0.37686,0 1.37443,0 2.26118,-1.57397 z"
       id="path12765" />
  </g>
</svg>
