<?xml version="1.0" encoding="UTF-8" standalone="no"?>
<!-- Created with Inkscape (http://www.inkscape.org/) -->

<svg
   xmlns:dc="http://purl.org/dc/elements/1.1/"
   xmlns:cc="http://creativecommons.org/ns#"
   xmlns:rdf="http://www.w3.org/1999/02/22-rdf-syntax-ns#"
   xmlns:svg="http://www.w3.org/2000/svg"
   xmlns="http://www.w3.org/2000/svg"
   xmlns:sodipodi="http://sodipodi.sourceforge.net/DTD/sodipodi-0.dtd"
   xmlns:inkscape="http://www.inkscape.org/namespaces/inkscape"
   width="115.36166mm"
   height="55.804249mm"
   viewBox="0 0 408.76181 197.73159"
   id="svg7843"
   version="1.1"
   inkscape:version="0.91 r13725"
   sodipodi:docname="chain_rule.svg">
  <defs
     id="defs7845">
    <marker
       inkscape:stockid="Arrow1Mend"
       orient="auto"
       refY="0"
       refX="0"
       id="marker12256"
       style="overflow:visible"
       inkscape:isstock="true">
      <path
         id="path12258"
         d="M 0,0 5,-5 -12.5,0 5,5 0,0 Z"
         style="fill:#000000;fill-opacity:1;fill-rule:evenodd;stroke:#000000;stroke-width:1pt;stroke-opacity:1"
         transform="matrix(-0.4,0,0,-0.4,-4,0)"
         inkscape:connector-curvature="0" />
    </marker>
    <marker
       inkscape:isstock="true"
       style="overflow:visible"
       id="marker11632"
       refX="0"
       refY="0"
       orient="auto"
       inkscape:stockid="Arrow1Mend">
      <path
         transform="matrix(-0.4,0,0,-0.4,-4,0)"
         style="fill:#000000;fill-opacity:1;fill-rule:evenodd;stroke:#000000;stroke-width:1pt;stroke-opacity:1"
         d="M 0,0 5,-5 -12.5,0 5,5 0,0 Z"
         id="path11634"
         inkscape:connector-curvature="0" />
    </marker>
    <marker
       inkscape:isstock="true"
       style="overflow:visible"
       id="marker10165"
       refX="0"
       refY="0"
       orient="auto"
       inkscape:stockid="Arrow1Mend"
       inkscape:collect="always">
      <path
         transform="matrix(-0.4,0,0,-0.4,-4,0)"
         style="fill:#000000;fill-opacity:1;fill-rule:evenodd;stroke:#000000;stroke-width:1pt;stroke-opacity:1"
         d="M 0,0 5,-5 -12.5,0 5,5 0,0 Z"
         id="path10167"
         inkscape:connector-curvature="0" />
    </marker>
    <marker
       inkscape:stockid="Arrow1Mend"
       orient="auto"
       refY="0"
       refX="0"
       id="Arrow1Mend"
       style="overflow:visible"
       inkscape:isstock="true"
       inkscape:collect="always">
      <path
         id="path4155"
         d="M 0,0 5,-5 -12.5,0 5,5 0,0 Z"
         style="fill:#000000;fill-opacity:1;fill-rule:evenodd;stroke:#000000;stroke-width:1pt;stroke-opacity:1"
         transform="matrix(-0.4,0,0,-0.4,-4,0)"
         inkscape:connector-curvature="0" />
    </marker>
  </defs>
  <sodipodi:namedview
     id="base"
     pagecolor="#ffffff"
     bordercolor="#666666"
     borderopacity="1.0"
     inkscape:pageopacity="0.0"
     inkscape:pageshadow="2"
     inkscape:zoom="3.959798"
     inkscape:cx="165.86057"
     inkscape:cy="105.9476"
     inkscape:document-units="px"
     inkscape:current-layer="layer1"
     showgrid="false"
     inkscape:window-width="2495"
     inkscape:window-height="1416"
     inkscape:window-x="65"
     inkscape:window-y="24"
     inkscape:window-maximized="1"
     fit-margin-top="0"
     fit-margin-left="0"
     fit-margin-right="0"
     fit-margin-bottom="0" />
  <metadata
     id="metadata7848">
    <rdf:RDF>
      <cc:Work
         rdf:about="">
        <dc:format>image/svg+xml</dc:format>
        <dc:type
           rdf:resource="http://purl.org/dc/dcmitype/StillImage" />
        <dc:title />
      </cc:Work>
    </rdf:RDF>
  </metadata>
  <g
     inkscape:label="Layer 1"
     inkscape:groupmode="layer"
     id="layer1"
     transform="translate(-21.376673,-20.790775)">
    <rect
       style="fill:none;fill-opacity:1;stroke:#000000;stroke-width:0.69999999;stroke-miterlimit:4;stroke-dasharray:none;stroke-dashoffset:0;stroke-opacity:1"
       id="rect8682"
       width="14.934119"
       height="74.417473"
       x="102.71151"
       y="21.145144" />
    <rect
       y="21.145144"
       x="26.282951"
       height="74.417473"
       width="20.648413"
       id="rect8686"
       style="fill:none;fill-opacity:1;stroke:#000000;stroke-width:0.70873785;stroke-miterlimit:4;stroke-dasharray:none;stroke-dashoffset:0;stroke-opacity:1" />
    <path
       inkscape:connector-curvature="0"
       d="m 37.701324,108.84858 1.95886,-2.24593 c 0.18575,-0.21953 0.33774,-0.35462 1.73933,-0.35462 l 0,-0.72613 c -0.94565,0.0338 -0.97943,0.0338 -1.55358,0.0338 -0.48971,0 -1.21584,0 -1.68866,-0.0338 l 0,0.72613 c 0.32084,0 0.67546,0.0844 0.67546,0.20264 0,0.0338 -0.0844,0.15198 -0.11825,0.18575 l -1.46915,1.6549 -1.67179,-2.04329 0.70925,0 0,-0.72613 c -0.3884,0.0338 -1.53669,0.0338 -1.99264,0.0338 -0.5066,0 -1.41847,0 -1.89131,-0.0338 l 0,0.72613 1.19896,0 2.63433,3.20847 -2.19528,2.48235 c -0.20263,0.23641 -0.32085,0.35462 -1.72243,0.35462 l 0,0.72613 c 1.0132,-0.0338 1.04697,-0.0338 1.57046,-0.0338 0.48971,0 1.19895,0 1.67179,0.0338 l 0,-0.72613 c -0.32085,0 -0.67548,-0.0844 -0.67548,-0.20264 0,-0.0169 0,-0.0338 0.11825,-0.16887 l 1.68866,-1.9082 1.87443,2.27971 -0.70924,0 0,0.72613 c 0.40528,-0.0338 1.53669,-0.0338 2.00951,-0.0338 0.50661,0 1.4016,0 1.87443,0.0338 l 0,-0.72613 -1.18206,0 -2.85387,-3.44489 z"
       id="path8726" />
    <g
       id="g10094"
       transform="translate(-47.500006,-167.5)">
      <path
         inkscape:connector-curvature="0"
         d="m 148.6046,273.03865 c 0.11821,-0.2533 0.18575,-0.38839 1.24961,-0.38839 l 0,-0.72613 c -0.60792,0.0338 -0.64169,0.0338 -1.33405,0.0338 -0.45594,0 -0.48971,0 -1.45225,-0.0338 l 0,0.72613 c 0.45594,0 0.82745,0.0844 0.82745,0.20264 0,0.0169 0,0.0338 -0.0844,0.20264 l -1.97575,4.33988 -2.17838,-4.74516 0.92877,0 0,-0.72613 c -0.3884,0.0338 -1.57047,0.0338 -2.02641,0.0338 -0.48971,0 -1.46914,0 -1.90819,-0.0338 l 0,0.72613 1.06386,0 2.97206,6.45072 c 0.15198,0.32084 0.18575,0.40528 0.57415,0.40528 0.27018,0 0.40528,-0.0338 0.55726,-0.37151 l 2.7863,-6.0961 z"
         id="use9046" />
      <path
         inkscape:connector-curvature="0"
         d="m 156.0249,283.52529 c 0,-0.0507 0,-0.0844 -0.28708,-0.3715 -1.68867,-1.70556 -2.63432,-4.49187 -2.63432,-7.93675 0,-3.27602 0.79367,-6.0961 2.75253,-8.08873 0.16887,-0.15198 0.16887,-0.18576 0.16887,-0.23642 0,-0.10132 -0.0844,-0.13509 -0.15198,-0.13509 -0.21953,0 -1.60424,1.21584 -2.43169,2.87074 -0.86122,1.70556 -1.24961,3.51243 -1.24961,5.5895 0,1.50291 0.23641,3.51243 1.11452,5.31931 0.99632,2.0264 2.38102,3.12404 2.56678,3.12404 0.0675,0 0.15198,-0.0338 0.15198,-0.1351 z"
         id="use9048" />
      <path
         inkscape:connector-curvature="0"
         d="m 162.65714,275.25081 1.95887,-2.24593 c 0.18575,-0.21953 0.33773,-0.35462 1.73932,-0.35462 l 0,-0.72613 c -0.94565,0.0338 -0.97942,0.0338 -1.55357,0.0338 -0.48972,0 -1.21584,0 -1.68867,-0.0338 l 0,0.72613 c 0.32085,0 0.67547,0.0844 0.67547,0.20264 0,0.0338 -0.0844,0.15198 -0.11825,0.18575 l -1.46915,1.6549 -1.67178,-2.04329 0.70924,0 0,-0.72613 c -0.3884,0.0338 -1.53669,0.0338 -1.99263,0.0338 -0.5066,0 -1.41849,0 -1.89131,-0.0338 l 0,0.72613 1.19895,0 2.63433,3.20847 -2.19527,2.48235 c -0.20264,0.23641 -0.32085,0.35462 -1.72245,0.35462 l 0,0.72612 c 1.01321,-0.0338 1.04698,-0.0338 1.57047,-0.0338 0.48971,0 1.19895,0 1.67178,0.0338 l 0,-0.72612 c -0.32085,0 -0.67547,-0.0844 -0.67547,-0.20264 0,-0.0169 0,-0.0338 0.11821,-0.16887 l 1.68866,-1.9082 1.87443,2.27971 -0.70924,0 0,0.72612 c 0.40528,-0.0338 1.53669,-0.0338 2.00951,-0.0338 0.5066,0 1.4016,0 1.87443,0.0338 l 0,-0.72612 -1.18206,0 -2.85387,-3.44489 z"
         id="use9050" />
      <path
         inkscape:connector-curvature="0"
         d="m 171.75484,275.21704 c 0,-1.28339 -0.16886,-3.37734 -1.11451,-5.3362 -0.99632,-2.0264 -2.38102,-3.12404 -2.56679,-3.12404 -0.0675,0 -0.15197,0.0338 -0.15197,0.13509 0,0.0507 0,0.0844 0.28707,0.37151 1.68867,1.70556 2.63433,4.49186 2.63433,7.93675 0,3.27602 -0.79368,6.0961 -2.75254,8.08873 -0.16886,0.15198 -0.16886,0.18575 -0.16886,0.23641 0,0.10133 0.0845,0.1351 0.15197,0.1351 0.21954,0 1.60424,-1.21585 2.43169,-2.87074 0.86123,-1.72245 1.24961,-3.54621 1.24961,-5.57261 z"
         id="use9052" />
    </g>
    <path
       id="use9054"
       d="m 196.15609,63.10162 c 0.72613,-0.82744 1.31717,-1.35093 2.1615,-2.11083 1.0132,-0.87811 1.45226,-1.30028 1.68867,-1.55358 1.18207,-1.16518 1.77311,-2.14461 1.77311,-2.2797 0,-0.1351 -0.1351,-0.1351 -0.16887,-0.1351 -0.11821,0 -0.15198,0.0675 -0.23641,0.18576 -0.42217,0.72612 -0.82745,1.08074 -1.26651,1.08074 -0.35462,0 -0.54037,-0.15198 -0.86122,-0.55726 -0.35462,-0.42216 -0.64169,-0.70924 -1.13141,-0.70924 -1.23273,0 -1.97574,1.53669 -1.97574,1.89131 0,0.0507 0.0169,0.15198 0.16887,0.15198 0.13509,0 0.15198,-0.0675 0.20264,-0.18575 0.28707,-0.67547 1.09763,-0.79368 1.41848,-0.79368 0.35462,0 0.69235,0.1182 1.04697,0.27019 0.6417,0.27019 0.91189,0.27019 1.08075,0.27019 0.11821,0 0.18576,0 0.27019,-0.0169 -0.55726,0.65858 -1.46914,1.46914 -2.22904,2.1615 l -1.70556,1.57046 c -1.03009,1.04697 -1.6549,2.04329 -1.6549,2.1615 0,0.10132 0.0844,0.13509 0.18576,0.13509 0.10132,0 0.1182,-0.0169 0.23641,-0.21953 0.27019,-0.42216 0.81056,-1.04697 1.43537,-1.04697 0.35462,0 0.52349,0.11821 0.86122,0.54037 0.32085,0.37151 0.60792,0.72613 1.1483,0.72613 1.65489,0 2.60055,-2.14461 2.60055,-2.533 0,-0.0675 -0.0169,-0.16887 -0.18575,-0.16887 -0.1351,0 -0.15198,0.0676 -0.20265,0.23641 -0.3715,0.99632 -1.36782,1.4016 -2.0264,1.4016 -0.35462,0 -0.69235,-0.11821 -1.04698,-0.27019 -0.67546,-0.27019 -0.86122,-0.27019 -1.08074,-0.27019 -0.16887,0 -0.35462,0 -0.5066,0.0675 z"
       inkscape:connector-curvature="0" />
    <path
       id="use9056"
       d="m 218.53421,58.99816 c 0.23641,0 0.54038,0 0.54038,-0.30396 0,-0.32085 -0.28708,-0.32085 -0.54038,-0.32085 l -9.94627,0 c -0.23641,0 -0.54037,0 -0.54037,0.30396 0,0.32085 0.28707,0.32085 0.54037,0.32085 l 9.94627,0 z m 0,3.14092 c 0.23641,0 0.54038,0 0.54038,-0.30396 0,-0.32085 -0.28708,-0.32085 -0.54038,-0.32085 l -9.94627,0 c -0.23641,0 -0.54037,0 -0.54037,0.30396 0,0.32085 0.28707,0.32085 0.54037,0.32085 l 9.94627,0 z"
       inkscape:connector-curvature="0" />
    <path
       id="use9058"
       d="m 230.4451,63.49002 c 0.21953,0.94565 1.03009,1.14829 1.43537,1.14829 0.54038,0 0.94566,-0.35462 1.21584,-0.92876 0.28708,-0.60793 0.50661,-1.60424 0.50661,-1.6549 0,-0.0844 -0.0676,-0.15198 -0.16887,-0.15198 -0.15198,0 -0.16887,0.0844 -0.23642,0.33773 -0.30396,1.16518 -0.60792,2.06018 -1.28338,2.06018 -0.50661,0 -0.50661,-0.55726 -0.50661,-0.77679 0,-0.38839 0.0507,-0.55726 0.21953,-1.2665 0.1182,-0.45594 0.23642,-0.91188 0.33774,-1.38471 l 0.69235,-2.75253 c 0.1182,-0.42217 0.1182,-0.45594 0.1182,-0.5066 0,-0.2533 -0.20264,-0.42217 -0.45594,-0.42217 -0.48971,0 -0.60792,0.42217 -0.70924,0.84433 -0.16887,0.65859 -1.08075,4.28923 -1.19896,4.88026 -0.0169,0 -0.67547,1.38471 -1.90819,1.38471 -0.87811,0 -1.04698,-0.7599 -1.04698,-1.38471 0,-0.96254 0.47283,-2.31348 0.91188,-3.44489 0.20264,-0.54037 0.28708,-0.7599 0.28708,-1.09763 0,-0.72613 -0.52349,-1.35094 -1.33405,-1.35094 -1.55358,0 -2.17839,2.44857 -2.17839,2.58367 0,0.0675 0.0675,0.15198 0.18576,0.15198 0.15198,0 0.16886,-0.0675 0.23641,-0.30396 0.40528,-1.45226 1.06386,-2.09395 1.70556,-2.09395 0.16886,0 0.43905,0.0169 0.43905,0.55726 0,0.43905 -0.18575,0.92877 -0.43905,1.57046 -0.74302,2.00952 -0.82745,2.65121 -0.82745,3.15781 0,1.72245 1.30027,1.99263 1.99263,1.99263 1.08075,0 1.67178,-0.74301 2.00952,-1.14829 z"
       inkscape:connector-curvature="0" />
    <path
       id="use9060"
       d="m 239.58559,68.57291 c 0,-0.0507 0,-0.0844 -0.28707,-0.3715 -1.68867,-1.70556 -2.63433,-4.49186 -2.63433,-7.93675 0,-3.27602 0.79368,-6.0961 2.75254,-8.08873 0.16886,-0.15198 0.16886,-0.18575 0.16886,-0.23641 0,-0.10133 -0.0844,-0.1351 -0.15198,-0.1351 -0.21952,0 -1.60423,1.21584 -2.43168,2.87074 -0.86122,1.70556 -1.24962,3.51243 -1.24962,5.5895 0,1.50291 0.23642,3.51243 1.11452,5.31931 0.99632,2.0264 2.38103,3.12404 2.56678,3.12404 0.0676,0 0.15198,-0.0338 0.15198,-0.1351 z"
       inkscape:connector-curvature="0" />
    <path
       id="use9070"
       d="m 276.77602,60.26466 c 0,-1.28339 -0.16887,-3.37734 -1.11453,-5.3362 -0.99631,-2.0264 -2.38102,-3.12404 -2.56677,-3.12404 -0.0675,0 -0.15198,0.0338 -0.15198,0.1351 0,0.0507 0,0.0844 0.28707,0.3715 1.68867,1.70556 2.63432,4.49187 2.63432,7.93675 0,3.27602 -0.79367,6.0961 -2.75253,8.08873 -0.16886,0.15198 -0.16886,0.18575 -0.16886,0.23641 0,0.10133 0.0844,0.1351 0.15198,0.1351 0.21952,0 1.60423,-1.21584 2.43168,-2.87074 0.86122,-1.72244 1.24962,-3.54621 1.24962,-5.57261 z"
       inkscape:connector-curvature="0" />
    <g
       id="g13099"
       transform="translate(-46.071436,-250.57143)">
      <path
         inkscape:connector-curvature="0"
         d="m 157.80644,310.86669 c 0,-1.06387 -0.54037,-1.13141 -0.67546,-1.13141 -0.40528,0 -0.77679,0.40528 -0.77679,0.74301 0,0.20264 0.11821,0.32085 0.18575,0.3884 0.16887,0.15198 0.60792,0.60792 0.60792,1.48603 0,0.70924 -1.0132,4.66072 -3.0396,4.66072 -1.03009,0 -1.23273,-0.86122 -1.23273,-1.48602 0,-0.84434 0.38839,-2.02641 0.84433,-3.24225 0.27019,-0.69236 0.33774,-0.86122 0.33774,-1.19896 0,-0.70924 -0.5066,-1.35093 -1.33405,-1.35093 -1.55358,0 -2.17839,2.44857 -2.17839,2.58366 0,0.0675 0.0675,0.15198 0.18576,0.15198 0.15198,0 0.16886,-0.0675 0.23641,-0.30396 0.40528,-1.45225 1.06386,-2.09395 1.70556,-2.09395 0.15198,0 0.43905,0 0.43905,0.55726 0,0.43906 -0.18575,0.92877 -0.43905,1.57047 -0.81056,2.16149 -0.81056,2.68498 -0.81056,3.09026 0,0.37151 0.0507,1.06386 0.57414,1.53669 0.60793,0.52349 1.45226,0.52349 1.60424,0.52349 2.80319,0 3.76573,-5.52195 3.76573,-6.48449 z"
         id="use9104" />
      <path
         inkscape:connector-curvature="0"
         d="m 161.03181,312.24014 c 0.0113,-0.0225 0.045,-0.16887 0.045,-0.18012 0,-0.0563 -0.045,-0.15761 -0.18012,-0.15761 l -1.13704,0.0901 c -0.41654,0.0338 -0.5066,0.045 -0.5066,0.24767 0,0.15761 0.15761,0.15761 0.2927,0.15761 0.54037,0 0.54037,0.0675 0.54037,0.16887 0,0.0338 0,0.0563 -0.0563,0.25893 l -1.39597,5.58387 c -0.045,0.18012 -0.045,0.34899 -0.045,0.36024 0,0.69799 0.57415,1.05824 1.13704,1.05824 0.48409,0 0.74302,-0.38277 0.86685,-0.63044 0.20264,-0.37151 0.37151,-1.03572 0.37151,-1.09201 0,-0.0675 -0.0338,-0.14635 -0.18012,-0.14635 -0.10133,0 -0.1351,0.0563 -0.1351,0.0675 -0.0225,0.0338 -0.0788,0.23642 -0.11257,0.36025 -0.16887,0.65296 -0.38277,1.12578 -0.78805,1.12578 -0.27019,0 -0.34899,-0.25893 -0.34899,-0.52911 0,-0.2139 0.0338,-0.33774 0.0676,-0.48409 l 1.56483,-6.25934 z"
         id="use9106" />
    </g>
    <path
       style="fill:none;fill-opacity:1;stroke:#000000;stroke-width:0.69999999;stroke-miterlimit:4;stroke-dasharray:none;stroke-dashoffset:0;stroke-opacity:1"
       id="path10119"
       sodipodi:type="arc"
       sodipodi:cx="174.10713"
       sodipodi:cy="59.683632"
       sodipodi:rx="7.6785712"
       sodipodi:ry="7.6785712"
       sodipodi:start="0.012217305"
       sodipodi:end="0"
       sodipodi:open="true"
       d="m 181.78513,59.777441 a 7.6785712,7.6785712 0 0 1 -7.74836,7.58444 7.6785712,7.6785712 0 0 1 -7.60807,-7.725155 7.6785712,7.6785712 0 0 1 7.70188,-7.63163 7.6785712,7.6785712 0 0 1 7.65512,7.678536" />
    <rect
       y="61.859436"
       x="402.71155"
       height="77.988899"
       width="27.076939"
       id="rect10121"
       style="fill:none;fill-opacity:1;stroke:#000000;stroke-width:0.69999999;stroke-miterlimit:4;stroke-dasharray:none;stroke-dashoffset:0;stroke-opacity:1" />
    <path
       style="fill:none;fill-rule:evenodd;stroke:#000000;stroke-width:1px;stroke-linecap:butt;stroke-linejoin:miter;stroke-opacity:1;marker-end:url(#Arrow1Mend)"
       d="M 47.857134,48.433633 101.07141,28.07649"
       id="path10135"
       inkscape:connector-curvature="0"
       sodipodi:nodetypes="cc" />
    <path
       sodipodi:nodetypes="cc"
       inkscape:connector-curvature="0"
       id="path10163"
       d="M 47.857134,50.219347 101.07141,92.005062"
       style="fill:none;fill-rule:evenodd;stroke:#000000;stroke-width:1px;stroke-linecap:butt;stroke-linejoin:miter;stroke-opacity:1;marker-end:url(#marker10165)" />
    <g
       id="g12932"
       transform="translate(218.21429,-36.071432)">
      <path
         id="path11593"
         d="m 200.47772,184.22934 c 0.0337,-0.0507 0.0844,-0.16887 0.0844,-0.23641 0,-0.11821 -0.0169,-0.1351 -0.40527,-0.1351 l -11.65183,0 c -0.38838,0 -0.40527,0.0169 -0.40527,0.1351 0,0.0675 0.0506,0.18575 0.0844,0.23641 l 5.69083,11.39852 c 0.11825,0.21953 0.16886,0.32085 0.45594,0.32085 0.28707,0 0.33773,-0.10132 0.45593,-0.32085 l 5.69083,-11.39852 z m -10.284,0.84434 9.2708,0 -4.62696,9.28768 -4.64384,-9.28768 z"
         inkscape:connector-curvature="0" />
      <path
         id="path11595"
         d="m 207.13671,194.41202 c 0.21952,0.94566 1.03008,1.1483 1.43536,1.1483 0.54037,0 0.94566,-0.35462 1.21585,-0.92877 0.28707,-0.60792 0.5066,-1.60424 0.5066,-1.6549 0,-0.0844 -0.0675,-0.15198 -0.16888,-0.15198 -0.15197,0 -0.16886,0.0844 -0.23641,0.33774 -0.30395,1.16518 -0.60791,2.06017 -1.28339,2.06017 -0.5066,0 -0.5066,-0.55726 -0.5066,-0.77678 0,-0.3884 0.0506,-0.55727 0.21953,-1.26651 0.11825,-0.45594 0.23641,-0.91188 0.33774,-1.38471 l 0.69235,-2.75253 c 0.11825,-0.42217 0.11825,-0.45594 0.11825,-0.5066 0,-0.2533 -0.20264,-0.42217 -0.45594,-0.42217 -0.48971,0 -0.60793,0.42217 -0.70925,0.84434 -0.16886,0.65858 -1.08075,4.28922 -1.19895,4.88025 -0.0169,0 -0.67548,1.38471 -1.9082,1.38471 -0.87811,0 -1.04698,-0.7599 -1.04698,-1.38471 0,-0.96254 0.47283,-2.31347 0.91189,-3.44488 0.20264,-0.54038 0.28708,-0.7599 0.28708,-1.09764 0,-0.72613 -0.52349,-1.35093 -1.33405,-1.35093 -1.55358,0 -2.17839,2.44857 -2.17839,2.58366 0,0.0675 0.0675,0.15198 0.18575,0.15198 0.15199,0 0.16887,-0.0675 0.23641,-0.30396 0.40529,-1.45226 1.06386,-2.09395 1.70556,-2.09395 0.16887,0 0.43905,0.0169 0.43905,0.55726 0,0.43905 -0.18575,0.92877 -0.43905,1.57046 -0.74301,2.00952 -0.82745,2.65122 -0.82745,3.15782 0,1.72244 1.30028,1.99263 1.99263,1.99263 1.08075,0 1.67179,-0.74302 2.00952,-1.1483 z"
         inkscape:connector-curvature="0" />
    </g>
    <g
       id="g11620"
       transform="translate(-197.2143,-153.92857)">
      <path
         id="path11607"
         d="m 234.72254,200.08596 c -0.54037,0.10132 -0.74301,0.5066 -0.74301,0.82744 0,0.40529 0.32084,0.54038 0.55725,0.54038 0.50661,0 0.86123,-0.43906 0.86123,-0.895 0,-0.70924 -0.81057,-1.03009 -1.5198,-1.03009 -1.03009,0 -1.60424,1.01321 -1.75622,1.33405 -0.3884,-1.2665 -1.43537,-1.33405 -1.73933,-1.33405 -1.72244,0 -2.63433,2.21216 -2.63433,2.58367 0,0.0675 0.0675,0.15198 0.18575,0.15198 0.1351,0 0.16888,-0.10132 0.20265,-0.16887 0.57415,-1.87442 1.70555,-2.22904 2.19526,-2.22904 0.75992,0 0.91189,0.70924 0.91189,1.11452 0,0.37151 -0.10137,0.7599 -0.30396,1.57046 l -0.57415,2.31348 c -0.2533,1.0132 -0.74301,1.94197 -1.63801,1.94197 -0.0844,0 -0.5066,0 -0.86122,-0.21952 0.60792,-0.11822 0.74302,-0.62481 0.74302,-0.82745 0,-0.33774 -0.2533,-0.54038 -0.57415,-0.54038 -0.40528,0 -0.84434,0.35462 -0.84434,0.895 0,0.70924 0.79367,1.03009 1.51981,1.03009 0.81055,0 1.3847,-0.6417 1.73933,-1.33405 0.27018,0.99631 1.11452,1.33405 1.73932,1.33405 1.72245,0 2.63433,-2.21216 2.63433,-2.58367 0,-0.0844 -0.0675,-0.15198 -0.16887,-0.15198 -0.15197,0 -0.16886,0.0844 -0.21952,0.21953 -0.45594,1.48603 -1.43538,2.17838 -2.19528,2.17838 -0.59103,0 -0.91187,-0.43905 -0.91187,-1.13141 0,-0.3715 0.0675,-0.64169 0.33772,-1.75621 l 0.59104,-2.29659 c 0.2533,-1.01321 0.82745,-1.75622 1.60424,-1.75622 0.0337,0 0.5066,0 0.86122,0.21953 z"
         inkscape:connector-curvature="0" />
      <path
         id="path11609"
         d="m 239.46912,202.48387 c 0,-0.24767 -0.18013,-0.42779 -0.43906,-0.42779 -0.2927,0 -0.61918,0.27018 -0.61918,0.60792 0,0.24767 0.18013,0.42779 0.43905,0.42779 0.2927,0 0.61919,-0.27018 0.61919,-0.60792 z m -1.64365,4.13161 -0.60791,1.55358 c -0.0563,0.16887 -0.11263,0.30396 -0.11263,0.49534 0,0.55164 0.42779,0.95692 1.02445,0.95692 1.09201,0 1.55358,-1.5761 1.55358,-1.72245 0,-0.11257 -0.09,-0.14635 -0.16887,-0.14635 -0.13508,0 -0.15761,0.0788 -0.19138,0.19138 -0.25893,0.90063 -0.72049,1.3622 -1.1708,1.3622 -0.1351,0 -0.27019,-0.0563 -0.27019,-0.36025 0,-0.27019 0.0788,-0.47283 0.22515,-0.82182 0.11262,-0.30396 0.22516,-0.60792 0.34899,-0.91188 l 0.349,-0.91188 c 0.10137,-0.25893 0.23641,-0.60793 0.23641,-0.79931 0,-0.56289 -0.45031,-0.95691 -1.02446,-0.95691 -1.092,0 -1.56484,1.57609 -1.56484,1.72244 0,0.10133 0.0789,0.14635 0.16887,0.14635 0.14635,0 0.1576,-0.0675 0.19138,-0.18012 0.31522,-1.06949 0.83307,-1.37345 1.17081,-1.37345 0.15761,0 0.27019,0.0563 0.27019,0.3715 0,0.11258 -0.0112,0.27019 -0.12388,0.60793 l -0.30396,0.77678 z"
         inkscape:connector-curvature="0" />
    </g>
    <path
       sodipodi:nodetypes="cc"
       inkscape:connector-curvature="0"
       id="path11630"
       d="m 119.2857,27.719347 45.71428,28.214286"
       style="fill:none;fill-rule:evenodd;stroke:#000000;stroke-width:1px;stroke-linecap:butt;stroke-linejoin:miter;stroke-opacity:1;marker-end:url(#marker11632)" />
    <path
       style="fill:none;fill-rule:evenodd;stroke:#000000;stroke-width:1px;stroke-linecap:butt;stroke-linejoin:miter;stroke-opacity:1;marker-end:url(#marker12256)"
       d="m 119.85713,90.933633 44.99999,-27.5"
       id="path12254"
       inkscape:connector-curvature="0"
       sodipodi:nodetypes="cc" />
    <g
       id="g13007"
       transform="matrix(0.72547367,0,0,0.72547367,325.9747,-61.192369)">
      <path
         id="path12956"
         d="m 123.781,211.54215 c -0.10133,-0.94565 -0.69236,-2.07706 -2.21216,-2.07706 -2.38102,0 -4.81271,2.4148 -4.81271,5.09978 0,1.03009 0.70924,2.97206 3.00583,2.97206 3.98527,0 5.69082,-5.80902 5.69082,-8.1225 0,-2.43169 -1.36782,-4.30611 -3.52932,-4.30611 -2.44857,0 -3.1747,2.14461 -3.1747,2.60055 0,0.15198 0.10133,0.52349 0.57415,0.52349 0.59103,0 0.84434,-0.54037 0.84434,-0.82745 0,-0.52349 -0.52349,-0.52349 -0.74302,-0.52349 0.69236,-1.24961 1.97574,-1.36782 2.43169,-1.36782 1.48602,0 2.43168,1.18207 2.43168,3.07338 0,1.08075 -0.32085,2.33037 -0.48971,2.95517 l -0.0169,0 z m -3.96838,5.53884 c -1.58735,0 -1.85753,-1.24961 -1.85753,-1.95886 0,-0.74301 0.47283,-2.48234 0.72613,-3.10715 0.21952,-0.5066 1.18206,-2.21216 2.93828,-2.21216 1.53669,0 1.89131,1.33405 1.89131,2.24593 0,1.24962 -1.09763,5.03224 -3.69819,5.03224 z"
         inkscape:connector-curvature="0" />
      <path
         id="path12958"
         d="m 127.90572,215.81449 c 0.72613,-0.82745 1.31716,-1.35094 2.1615,-2.11084 1.0132,-0.87811 1.45225,-1.30027 1.68867,-1.55357 1.18207,-1.16519 1.7731,-2.14462 1.7731,-2.27971 0,-0.13509 -0.13509,-0.13509 -0.16887,-0.13509 -0.11821,0 -0.15198,0.0675 -0.23641,0.18575 -0.42217,0.72613 -0.82745,1.08075 -1.2665,1.08075 -0.35462,0 -0.54038,-0.15198 -0.86122,-0.55726 -0.35462,-0.42217 -0.6417,-0.70924 -1.13141,-0.70924 -1.23273,0 -1.97575,1.53669 -1.97575,1.89131 0,0.0507 0.0169,0.15198 0.16887,0.15198 0.13509,0 0.15198,-0.0676 0.20264,-0.18576 0.28707,-0.67546 1.09764,-0.79367 1.41848,-0.79367 0.35462,0 0.69236,0.1182 1.04698,0.27019 0.64169,0.27018 0.91188,0.27018 1.08075,0.27018 0.11821,0 0.18575,0 0.27018,-0.0169 -0.55726,0.65859 -1.46914,1.46915 -2.22904,2.1615 l -1.70556,1.57047 c -1.03008,1.04697 -1.65489,2.04329 -1.65489,2.16149 0,0.10133 0.0844,0.1351 0.18575,0.1351 0.10133,0 0.11821,-0.0169 0.23641,-0.21953 0.27019,-0.42217 0.81057,-1.04698 1.43537,-1.04698 0.35462,0 0.52349,0.11822 0.86123,0.54038 0.32084,0.37151 0.60792,0.72613 1.14829,0.72613 1.6549,0 2.60055,-2.14462 2.60055,-2.53301 0,-0.0675 -0.0169,-0.16887 -0.18575,-0.16887 -0.13509,0 -0.15198,0.0675 -0.20264,0.23642 -0.37151,0.99631 -1.36782,1.40159 -2.0264,1.40159 -0.35463,0 -0.69236,-0.11821 -1.04698,-0.27018 -0.67547,-0.27019 -0.86122,-0.27019 -1.08075,-0.27019 -0.16887,0 -0.35462,0 -0.5066,0.0675 z"
         inkscape:connector-curvature="0" />
      <rect
         id="rect12960"
         y="224.04688"
         x="114.13054"
         width="22.048262"
         height="0.67543983" />
      <path
         id="path12962"
         d="m 121.7971,234.54986 c -0.10133,-0.94565 -0.69236,-2.07706 -2.21216,-2.07706 -2.38103,0 -4.81271,2.4148 -4.81271,5.09978 0,1.03009 0.70924,2.97206 3.00583,2.97206 3.98526,0 5.69082,-5.80902 5.69082,-8.1225 0,-2.43169 -1.36782,-4.30611 -3.52932,-4.30611 -2.44857,0 -3.1747,2.14461 -3.1747,2.60055 0,0.15198 0.10133,0.52349 0.57415,0.52349 0.59103,0 0.84433,-0.54038 0.84433,-0.82745 0,-0.52349 -0.52348,-0.52349 -0.74301,-0.52349 0.69235,-1.24961 1.97574,-1.36782 2.43168,-1.36782 1.48603,0 2.43169,1.18207 2.43169,3.07338 0,1.08075 -0.32085,2.33036 -0.48972,2.95517 l -0.0169,0 z m -3.96838,5.53884 c -1.58735,0 -1.85753,-1.24962 -1.85753,-1.95886 0,-0.74301 0.47282,-2.48234 0.72612,-3.10715 0.21953,-0.5066 1.18207,-2.21216 2.93829,-2.21216 1.53669,0 1.89131,1.33405 1.89131,2.24593 0,1.24962 -1.09764,5.03224 -3.69819,5.03224 z"
         inkscape:connector-curvature="0" />
      <path
         id="path12964"
         d="m 131.49556,233.87439 c 0,-1.06386 -0.54038,-1.13141 -0.67547,-1.13141 -0.40528,0 -0.77679,0.40529 -0.77679,0.74302 0,0.20264 0.11821,0.32085 0.18575,0.38839 0.16887,0.15198 0.60792,0.60793 0.60792,1.48603 0,0.70924 -1.0132,4.66073 -3.0396,4.66073 -1.03009,0 -1.23273,-0.86122 -1.23273,-1.48603 0,-0.84433 0.38839,-2.0264 0.84433,-3.24224 0.27019,-0.69236 0.33774,-0.86123 0.33774,-1.19896 0,-0.70924 -0.5066,-1.35094 -1.33405,-1.35094 -1.55358,0 -2.17839,2.44858 -2.17839,2.58367 0,0.0675 0.0676,0.15198 0.18576,0.15198 0.15198,0 0.16887,-0.0675 0.23641,-0.30396 0.40528,-1.45226 1.06386,-2.09395 1.70556,-2.09395 0.15198,0 0.43905,0 0.43905,0.55726 0,0.43905 -0.18575,0.92877 -0.43905,1.57046 -0.81056,2.1615 -0.81056,2.68499 -0.81056,3.09027 0,0.37151 0.0507,1.06386 0.57415,1.53669 0.60792,0.52349 1.45225,0.52349 1.60423,0.52349 2.80319,0 3.76574,-5.52195 3.76574,-6.4845 z"
         inkscape:connector-curvature="0" />
      <path
         id="path12966"
         d="m 134.72091,235.24785 c 0.0112,-0.0225 0.045,-0.16887 0.045,-0.18013 0,-0.0563 -0.045,-0.1576 -0.18013,-0.1576 l -1.13704,0.0901 c -0.41654,0.0338 -0.5066,0.045 -0.5066,0.24767 0,0.15761 0.15761,0.15761 0.2927,0.15761 0.54038,0 0.54038,0.0675 0.54038,0.16886 0,0.0338 0,0.0563 -0.0563,0.25893 l -1.39597,5.58387 c -0.045,0.18013 -0.045,0.34899 -0.045,0.36025 0,0.69798 0.57415,1.05823 1.13704,1.05823 0.48408,0 0.74301,-0.38276 0.86685,-0.63043 0.20264,-0.37151 0.37151,-1.03572 0.37151,-1.09201 0,-0.0676 -0.0338,-0.14635 -0.18013,-0.14635 -0.10132,0 -0.13509,0.0563 -0.13509,0.0676 -0.0225,0.0338 -0.0788,0.23641 -0.11258,0.36025 -0.16886,0.65295 -0.38276,1.12578 -0.78804,1.12578 -0.27019,0 -0.34899,-0.25893 -0.34899,-0.52912 0,-0.2139 0.0338,-0.33773 0.0676,-0.48408 l 1.56483,-6.25934 z"
         inkscape:connector-curvature="0" />
    </g>
    <g
       id="g13062"
       transform="matrix(0.67890383,0,0,0.67890383,249.09667,-49.854791)">
      <path
         id="path12968"
         d="m 148.10785,211.54215 c -0.10133,-0.94565 -0.69236,-2.07706 -2.21216,-2.07706 -2.38103,0 -4.81271,2.4148 -4.81271,5.09978 0,1.03009 0.70924,2.97206 3.00583,2.97206 3.98526,0 5.69082,-5.80902 5.69082,-8.1225 0,-2.43169 -1.36782,-4.30611 -3.52932,-4.30611 -2.44857,0 -3.1747,2.14461 -3.1747,2.60055 0,0.15198 0.10132,0.52349 0.57415,0.52349 0.59103,0 0.84433,-0.54037 0.84433,-0.82745 0,-0.52349 -0.52349,-0.52349 -0.74301,-0.52349 0.69235,-1.24961 1.97574,-1.36782 2.43168,-1.36782 1.48603,0 2.43169,1.18207 2.43169,3.07338 0,1.08075 -0.32085,2.33037 -0.48972,2.95517 l -0.0169,0 z m -3.96838,5.53884 c -1.58735,0 -1.85754,-1.24961 -1.85754,-1.95886 0,-0.74301 0.47283,-2.48234 0.72613,-3.10715 0.21953,-0.5066 1.18207,-2.21216 2.93829,-2.21216 1.53669,0 1.89131,1.33405 1.89131,2.24593 0,1.24962 -1.09764,5.03224 -3.69819,5.03224 z"
         inkscape:connector-curvature="0" />
      <path
         id="path12970"
         d="m 157.80644,210.86669 c 0,-1.06387 -0.54037,-1.13141 -0.67546,-1.13141 -0.40528,0 -0.77679,0.40528 -0.77679,0.74301 0,0.20264 0.11821,0.32085 0.18575,0.3884 0.16887,0.15198 0.60792,0.60792 0.60792,1.48603 0,0.70924 -1.0132,4.66072 -3.0396,4.66072 -1.03009,0 -1.23273,-0.86122 -1.23273,-1.48602 0,-0.84434 0.38839,-2.02641 0.84433,-3.24225 0.27019,-0.69236 0.33774,-0.86122 0.33774,-1.19896 0,-0.70924 -0.5066,-1.35093 -1.33405,-1.35093 -1.55358,0 -2.17839,2.44857 -2.17839,2.58366 0,0.0675 0.0675,0.15198 0.18576,0.15198 0.15198,0 0.16886,-0.0675 0.23641,-0.30396 0.40528,-1.45225 1.06386,-2.09395 1.70556,-2.09395 0.15198,0 0.43905,0 0.43905,0.55726 0,0.43906 -0.18575,0.92877 -0.43905,1.57047 -0.81056,2.16149 -0.81056,2.68498 -0.81056,3.09026 0,0.37151 0.0507,1.06386 0.57414,1.53669 0.60793,0.52349 1.45226,0.52349 1.60424,0.52349 2.80319,0 3.76573,-5.52195 3.76573,-6.48449 z"
         inkscape:connector-curvature="0" />
      <path
         id="path12972"
         d="m 161.03181,212.24014 c 0.0113,-0.0225 0.045,-0.16887 0.045,-0.18012 0,-0.0563 -0.045,-0.15761 -0.18012,-0.15761 l -1.13704,0.0901 c -0.41654,0.0338 -0.5066,0.045 -0.5066,0.24767 0,0.15761 0.15761,0.15761 0.2927,0.15761 0.54037,0 0.54037,0.0675 0.54037,0.16887 0,0.0338 0,0.0563 -0.0563,0.25893 l -1.39597,5.58387 c -0.045,0.18012 -0.045,0.34899 -0.045,0.36024 0,0.69799 0.57415,1.05824 1.13704,1.05824 0.48409,0 0.74302,-0.38277 0.86685,-0.63044 0.20264,-0.37151 0.37151,-1.03572 0.37151,-1.09201 0,-0.0675 -0.0338,-0.14635 -0.18012,-0.14635 -0.10133,0 -0.1351,0.0563 -0.1351,0.0675 -0.0225,0.0338 -0.0788,0.23642 -0.11257,0.36025 -0.16887,0.65296 -0.38277,1.12578 -0.78805,1.12578 -0.27019,0 -0.34899,-0.25893 -0.34899,-0.52911 0,-0.2139 0.0338,-0.33774 0.0676,-0.48409 l 1.56483,-6.25934 z"
         inkscape:connector-curvature="0" />
      <rect
         id="rect12974"
         y="224.04688"
         x="139.55615"
         width="23.819393"
         height="0.67543983" />
      <path
         id="path12976"
         d="m 147.2227,234.54986 c -0.10132,-0.94565 -0.69235,-2.07706 -2.21215,-2.07706 -2.38103,0 -4.81271,2.4148 -4.81271,5.09978 0,1.03009 0.70924,2.97206 3.00583,2.97206 3.98526,0 5.69082,-5.80902 5.69082,-8.1225 0,-2.43169 -1.36782,-4.30611 -3.52932,-4.30611 -2.44857,0 -3.1747,2.14461 -3.1747,2.60055 0,0.15198 0.10132,0.52349 0.57415,0.52349 0.59103,0 0.84433,-0.54038 0.84433,-0.82745 0,-0.52349 -0.52349,-0.52349 -0.74301,-0.52349 0.69235,-1.24961 1.97574,-1.36782 2.43168,-1.36782 1.48603,0 2.43169,1.18207 2.43169,3.07338 0,1.08075 -0.32085,2.33036 -0.48972,2.95517 l -0.0169,0 z m -3.96837,5.53884 c -1.58735,0 -1.85754,-1.24962 -1.85754,-1.95886 0,-0.74301 0.47283,-2.48234 0.72613,-3.10715 0.21953,-0.5066 1.18207,-2.21216 2.93829,-2.21216 1.53669,0 1.89131,1.33405 1.89131,2.24593 0,1.24962 -1.09764,5.03224 -3.69819,5.03224 z"
         inkscape:connector-curvature="0" />
      <path
         id="path12978"
         d="m 157.20837,233.30025 c -0.54038,0.10132 -0.74302,0.5066 -0.74302,0.82744 0,0.40529 0.32085,0.54038 0.55726,0.54038 0.5066,0 0.86122,-0.43906 0.86122,-0.895 0,-0.70924 -0.81056,-1.03009 -1.5198,-1.03009 -1.03009,0 -1.60424,1.01321 -1.75622,1.33405 -0.38839,-1.2665 -1.43536,-1.33405 -1.73933,-1.33405 -1.72244,0 -2.63432,2.21216 -2.63432,2.58367 0,0.0675 0.0676,0.15198 0.18575,0.15198 0.1351,0 0.16887,-0.10132 0.20264,-0.16887 0.57415,-1.87442 1.70556,-2.22904 2.19527,-2.22904 0.75991,0 0.91189,0.70924 0.91189,1.11452 0,0.37151 -0.10133,0.7599 -0.30396,1.57046 l -0.57415,2.31348 c -0.2533,1.0132 -0.74302,1.94197 -1.63801,1.94197 -0.0844,0 -0.5066,0 -0.86122,-0.21952 0.60792,-0.11822 0.74301,-0.62481 0.74301,-0.82745 0,-0.33774 -0.2533,-0.54038 -0.57415,-0.54038 -0.40528,0 -0.84433,0.35462 -0.84433,0.895 0,0.70924 0.79367,1.03009 1.5198,1.03009 0.81056,0 1.38471,-0.6417 1.73933,-1.33405 0.27019,0.99631 1.11452,1.33405 1.73933,1.33405 1.72244,0 2.63433,-2.21216 2.63433,-2.58367 0,-0.0844 -0.0675,-0.15198 -0.16887,-0.15198 -0.15198,0 -0.16887,0.0844 -0.21953,0.21953 -0.45594,1.48603 -1.43537,2.17838 -2.19527,2.17838 -0.59103,0 -0.91188,-0.43905 -0.91188,-1.13141 0,-0.3715 0.0675,-0.64169 0.33773,-1.75621 l 0.59104,-2.29659 c 0.2533,-1.01321 0.82745,-1.75622 1.60423,-1.75622 0.0338,0 0.50661,0 0.86123,0.21953 z"
         inkscape:connector-curvature="0" />
      <path
         id="path12980"
         d="m 161.95494,235.69816 c 0,-0.24767 -0.18012,-0.42779 -0.43906,-0.42779 -0.2927,0 -0.61917,0.27018 -0.61917,0.60792 0,0.24767 0.18012,0.42779 0.43905,0.42779 0.2927,0 0.61918,-0.27018 0.61918,-0.60792 z m -1.64364,4.13161 -0.60792,1.55358 c -0.0563,0.16887 -0.11258,0.30396 -0.11258,0.49534 0,0.55164 0.4278,0.95692 1.02446,0.95692 1.09201,0 1.55357,-1.5761 1.55357,-1.72245 0,-0.11257 -0.0901,-0.14635 -0.16886,-0.14635 -0.13509,0 -0.15761,0.0788 -0.19139,0.19138 -0.25892,0.90063 -0.72049,1.3622 -1.1708,1.3622 -0.13509,0 -0.27019,-0.0563 -0.27019,-0.36025 0,-0.27019 0.0788,-0.47283 0.22516,-0.82182 0.11257,-0.30396 0.22515,-0.60792 0.34899,-0.91188 l 0.34899,-0.91188 c 0.10125,-0.25893 0.23641,-0.60793 0.23641,-0.79931 0,-0.56289 -0.45031,-0.95691 -1.02445,-0.95691 -1.09201,0 -1.56484,1.57609 -1.56484,1.72244 0,0.10133 0.0788,0.14635 0.16887,0.14635 0.14635,0 0.15761,-0.0675 0.19138,-0.18012 0.31522,-1.06949 0.83308,-1.37345 1.17081,-1.37345 0.15761,0 0.27019,0.0563 0.27019,0.3715 0,0.11258 -0.0113,0.27019 -0.12384,0.60793 l -0.30396,0.77678 z"
         inkscape:connector-curvature="0" />
    </g>
    <g
       id="g13032"
       transform="translate(123.57143,-159.64286)">
      <path
         id="path13034"
         d="m 226.67744,311.54215 c -0.10137,-0.94565 -0.69235,-2.07706 -2.21215,-2.07706 -2.38102,0 -4.81271,2.4148 -4.81271,5.09978 0,1.03009 0.70924,2.97206 3.00584,2.97206 3.98526,0 5.69081,-5.80902 5.69081,-8.1225 0,-2.43169 -1.36782,-4.30611 -3.52931,-4.30611 -2.44858,0 -3.1747,2.14461 -3.1747,2.60055 0,0.15198 0.10125,0.52349 0.57414,0.52349 0.59103,0 0.84433,-0.54037 0.84433,-0.82745 0,-0.52349 -0.52348,-0.52349 -0.74301,-0.52349 0.69235,-1.24961 1.97575,-1.36782 2.43169,-1.36782 1.48602,0 2.43169,1.18207 2.43169,3.07338 0,1.08075 -0.32085,2.33037 -0.48973,2.95517 l -0.0169,0 z m -3.96836,5.53884 c -1.58735,0 -1.85754,-1.24961 -1.85754,-1.95886 0,-0.74301 0.47283,-2.48234 0.72613,-3.10715 0.21952,-0.5066 1.18206,-2.21216 2.93829,-2.21216 1.53668,0 1.89131,1.33405 1.89131,2.24593 0,1.24962 -1.09764,5.03224 -3.69819,5.03224 z"
         inkscape:connector-curvature="0" />
      <path
         id="path13036"
         d="m 237.01772,310.79914 c 0.11825,-0.2533 0.18576,-0.38839 1.24961,-0.38839 l 0,-0.72613 c -0.60791,0.0338 -0.64169,0.0338 -1.33404,0.0338 -0.45595,0 -0.48972,0 -1.45226,-0.0338 l 0,0.72613 c 0.45594,0 0.82745,0.0844 0.82745,0.20264 0,0.0169 0,0.0338 -0.0844,0.20264 l -1.97574,4.33988 -2.17839,-4.74516 0.92876,0 0,-0.72613 c -0.38838,0.0338 -1.57046,0.0338 -2.0264,0.0338 -0.48971,0 -1.46913,0 -1.9082,-0.0338 l 0,0.72613 1.06387,0 2.97206,6.45071 c 0.15197,0.32085 0.18575,0.40529 0.57415,0.40529 0.27019,0 0.40527,-0.0338 0.55726,-0.37151 l 2.7863,-6.0961 z"
         inkscape:connector-curvature="0" />
      <rect
         id="rect13038"
         y="324.04688"
         x="217.07031"
         width="23.819393"
         height="0.67543983" />
      <path
         id="path13040"
         d="m 224.73687,334.54986 c -0.10138,-0.94565 -0.69235,-2.07706 -2.21216,-2.07706 -2.38103,0 -4.8127,2.4148 -4.8127,5.09978 0,1.03009 0.70923,2.97206 3.00582,2.97206 3.98526,0 5.69083,-5.80902 5.69083,-8.1225 0,-2.43169 -1.36783,-4.30611 -3.52933,-4.30611 -2.44857,0 -3.1747,2.14461 -3.1747,2.60055 0,0.15198 0.10138,0.52349 0.57415,0.52349 0.59104,0 0.84434,-0.54038 0.84434,-0.82745 0,-0.52349 -0.52349,-0.52349 -0.74303,-0.52349 0.69237,-1.24961 1.97575,-1.36782 2.43169,-1.36782 1.48604,0 2.43169,1.18207 2.43169,3.07338 0,1.08075 -0.32085,2.33036 -0.48971,2.95517 l -0.0169,0 z m -3.96838,5.53884 c -1.58735,0 -1.85753,-1.24962 -1.85753,-1.95886 0,-0.74301 0.47282,-2.48234 0.72612,-3.10715 0.21953,-0.5066 1.18208,-2.21216 2.93829,-2.21216 1.53669,0 1.89131,1.33405 1.89131,2.24593 0,1.24962 -1.09764,5.03224 -3.69819,5.03224 z"
         inkscape:connector-curvature="0" />
      <path
         id="path13042"
         d="m 234.72254,333.30025 c -0.54037,0.10132 -0.74301,0.5066 -0.74301,0.82744 0,0.40529 0.32084,0.54038 0.55725,0.54038 0.50661,0 0.86123,-0.43906 0.86123,-0.895 0,-0.70924 -0.81057,-1.03009 -1.5198,-1.03009 -1.03009,0 -1.60424,1.01321 -1.75622,1.33405 -0.3884,-1.2665 -1.43537,-1.33405 -1.73933,-1.33405 -1.72244,0 -2.63433,2.21216 -2.63433,2.58367 0,0.0675 0.0675,0.15198 0.18575,0.15198 0.1351,0 0.16888,-0.10132 0.20265,-0.16887 0.57415,-1.87442 1.70555,-2.22904 2.19526,-2.22904 0.75992,0 0.91189,0.70924 0.91189,1.11452 0,0.37151 -0.10137,0.7599 -0.30396,1.57046 l -0.57415,2.31348 c -0.2533,1.0132 -0.74301,1.94197 -1.63801,1.94197 -0.0844,0 -0.5066,0 -0.86122,-0.21952 0.60792,-0.11822 0.74302,-0.62481 0.74302,-0.82745 0,-0.33774 -0.2533,-0.54038 -0.57415,-0.54038 -0.40528,0 -0.84434,0.35462 -0.84434,0.895 0,0.70924 0.79367,1.03009 1.51981,1.03009 0.81055,0 1.3847,-0.6417 1.73933,-1.33405 0.27018,0.99631 1.11452,1.33405 1.73932,1.33405 1.72245,0 2.63433,-2.21216 2.63433,-2.58367 0,-0.0844 -0.0675,-0.15198 -0.16887,-0.15198 -0.15197,0 -0.16886,0.0844 -0.21952,0.21953 -0.45594,1.48603 -1.43538,2.17838 -2.19528,2.17838 -0.59103,0 -0.91187,-0.43905 -0.91187,-1.13141 0,-0.3715 0.0675,-0.64169 0.33772,-1.75621 l 0.59104,-2.29659 c 0.2533,-1.01321 0.82745,-1.75622 1.60424,-1.75622 0.0337,0 0.5066,0 0.86122,0.21953 z"
         inkscape:connector-curvature="0" />
      <path
         id="path13044"
         d="m 239.46912,335.69816 c 0,-0.24767 -0.18013,-0.42779 -0.43906,-0.42779 -0.2927,0 -0.61918,0.27018 -0.61918,0.60792 0,0.24767 0.18013,0.42779 0.43905,0.42779 0.2927,0 0.61919,-0.27018 0.61919,-0.60792 z m -1.64365,4.13161 -0.60791,1.55358 c -0.0563,0.16887 -0.11263,0.30396 -0.11263,0.49534 0,0.55164 0.42779,0.95692 1.02445,0.95692 1.09201,0 1.55358,-1.5761 1.55358,-1.72245 0,-0.11257 -0.09,-0.14635 -0.16887,-0.14635 -0.13508,0 -0.15761,0.0788 -0.19138,0.19138 -0.25893,0.90063 -0.72049,1.3622 -1.1708,1.3622 -0.1351,0 -0.27019,-0.0563 -0.27019,-0.36025 0,-0.27019 0.0788,-0.47283 0.22515,-0.82182 0.11262,-0.30396 0.22516,-0.60792 0.34899,-0.91188 l 0.349,-0.91188 c 0.10137,-0.25893 0.23641,-0.60793 0.23641,-0.79931 0,-0.56289 -0.45031,-0.95691 -1.02446,-0.95691 -1.092,0 -1.56484,1.57609 -1.56484,1.72244 0,0.10133 0.0789,0.14635 0.16887,0.14635 0.14635,0 0.1576,-0.0675 0.19138,-0.18012 0.31522,-1.06949 0.83307,-1.37345 1.17081,-1.37345 0.15761,0 0.27019,0.0563 0.27019,0.3715 0,0.11258 -0.0112,0.27019 -0.12388,0.60793 l -0.30396,0.77678 z"
         inkscape:connector-curvature="0" />
    </g>
    <rect
       style="fill:none;fill-opacity:1;stroke:#000000;stroke-width:0.69999999;stroke-miterlimit:4;stroke-dasharray:none;stroke-dashoffset:0;stroke-opacity:1"
       id="rect13046"
       width="27.076939"
       height="77.988899"
       x="338.71155"
       y="61.859436" />
    <rect
       style="fill:#cdcdcd;fill-opacity:1;stroke:#000000;stroke-width:0.69999999;stroke-miterlimit:4;stroke-dasharray:none;stroke-dashoffset:0;stroke-opacity:1"
       id="rect13578"
       width="214.28572"
       height="85.357132"
       x="21.726673"
       y="132.81523" />
    <g
       transform="matrix(1.2500001,0,0,1.2500001,24.17229,129.448)"
       id="g13373">
      <path
         inkscape:connector-curvature="0"
         d="M 9.6150691,35.587744 C 9.5340129,34.83122 9.0611853,33.926092 7.8453429,33.926092 c -1.9048197,0 -3.8501676,1.931839 -3.8501676,4.079827 0,0.824071 0.5673931,2.377647 2.4046661,2.377647 3.188209,0 4.5526546,-4.647219 4.5526546,-6.498002 0,-1.945348 -1.0942584,-3.444886 -2.8234565,-3.444886 -1.9588572,0 -2.5397597,1.715688 -2.5397597,2.080441 0,0.121584 0.081056,0.41879 0.4593182,0.41879 0.4728276,0 0.675468,-0.432299 0.675468,-0.661959 0,-0.41879 -0.4187901,-0.41879 -0.5944118,-0.41879 0.5538838,-0.999692 1.5805951,-1.094258 1.9453478,-1.094258 1.1888237,0 1.945348,0.945655 1.945348,2.458704 0,0.864599 -0.256678,1.864291 -0.3917716,2.364138 l -0.013509,0 z m -3.1746996,4.43107 c -1.2698799,0 -1.4860296,-0.999693 -1.4860296,-1.567086 0,-0.594412 0.3782621,-1.985876 0.5809025,-2.485722 0.1756216,-0.405281 0.9456552,-1.769726 2.3506286,-1.769726 1.2293518,0 1.5130483,1.067239 1.5130483,1.796744 0,0.999693 -0.8781084,4.02579 -2.9585498,4.02579 z"
         id="use9072" />
      <path
         inkscape:connector-curvature="0"
         d="m 12.915297,39.005612 c 0.580902,-0.661959 1.05373,-1.080749 1.729198,-1.68867 0.810561,-0.702487 1.161805,-1.040221 1.350936,-1.242861 0.945655,-0.932146 1.418482,-1.715689 1.418482,-1.823764 0,-0.108075 -0.108074,-0.108075 -0.135093,-0.108075 -0.09457,0 -0.121584,0.05404 -0.189131,0.148603 -0.337734,0.580903 -0.661959,0.864599 -1.013202,0.864599 -0.283697,0 -0.4323,-0.121584 -0.688978,-0.445809 -0.283696,-0.337734 -0.513355,-0.567393 -0.905127,-0.567393 -0.986183,0 -1.580595,1.229352 -1.580595,1.513048 0,0.04053 0.01351,0.121585 0.135094,0.121585 0.108075,0 0.121584,-0.05404 0.162112,-0.148603 0.229659,-0.540375 0.878109,-0.63494 1.134786,-0.63494 0.283697,0 0.553884,0.09456 0.837581,0.21615 0.513355,0.216149 0.729505,0.216149 0.864599,0.216149 0.09457,0 0.148603,0 0.21615,-0.01351 -0.445809,0.526865 -1.175315,1.175314 -1.783236,1.729198 l -1.364445,1.256371 c -0.824071,0.83758 -1.323918,1.634632 -1.323918,1.729198 0,0.08106 0.06755,0.108075 0.148603,0.108075 0.08106,0 0.09457,-0.01351 0.189131,-0.175622 0.21615,-0.337734 0.64845,-0.83758 1.148296,-0.83758 0.283697,0 0.41879,0.09457 0.688977,0.432299 0.256678,0.297206 0.486337,0.580903 0.918637,0.580903 1.323917,0 2.080441,-1.715689 2.080441,-2.026404 0,-0.05404 -0.01351,-0.135094 -0.148603,-0.135094 -0.108075,0 -0.121584,0.05404 -0.162112,0.189131 -0.297206,0.797052 -1.094258,1.121277 -1.621123,1.121277 -0.283697,0 -0.553884,-0.09457 -0.837581,-0.21615 -0.540374,-0.21615 -0.688977,-0.21615 -0.864599,-0.21615 -0.135093,0 -0.283696,0 -0.40528,0.05404 z"
         id="use9074" />
      <rect
         height="0.54035187"
         width="19.055515"
         x="1.1863569"
         y="45.591541"
         id="rect9076" />
      <path
         inkscape:connector-curvature="0"
         d="m 7.3196063,53.99391 c -0.081056,-0.756524 -0.5538838,-1.661651 -1.7697262,-1.661651 -1.9048197,0 -3.8501676,1.931838 -3.8501676,4.079826 0,0.824071 0.5673932,2.377648 2.4046661,2.377648 3.188209,0 4.5526543,-4.64722 4.5526543,-6.498002 0,-1.945348 -1.0942581,-3.444887 -2.8234562,-3.444887 -1.9588572,0 -2.5397597,1.715689 -2.5397597,2.080441 0,0.121585 0.081056,0.41879 0.4593183,0.41879 0.4728276,0 0.675468,-0.432299 0.675468,-0.661958 0,-0.41879 -0.4187902,-0.41879 -0.5944119,-0.41879 0.5538838,-0.999693 1.5805951,-1.094259 1.9453479,-1.094259 1.1888236,0 1.9453478,0.945656 1.9453478,2.458704 0,0.864599 -0.2566778,1.864292 -0.3917714,2.364138 l -0.013509,0 z m -3.1746996,4.43107 c -1.2698798,0 -1.4860296,-0.999693 -1.4860296,-1.567086 0,-0.594412 0.3782621,-1.985876 0.5809025,-2.485722 0.1756217,-0.405281 0.9456552,-1.769726 2.3506286,-1.769726 1.2293518,0 1.5130483,1.067239 1.5130483,1.796745 0,0.999692 -0.8781084,4.025789 -2.9585498,4.025789 z"
         id="use9078" />
      <path
         inkscape:connector-curvature="0"
         d="m 15.307577,52.994217 c -0.432299,0.08106 -0.594411,0.405281 -0.594411,0.661959 0,0.324225 0.256677,0.4323 0.445809,0.4323 0.40528,0 0.688977,-0.351244 0.688977,-0.715997 0,-0.567393 -0.648449,-0.824071 -1.215843,-0.824071 -0.82407,0 -1.283389,0.810562 -1.404973,1.06724 -0.310715,-1.013202 -1.148296,-1.06724 -1.391464,-1.06724 -1.377955,0 -2.1074602,1.769727 -2.1074602,2.066933 0,0.05404 0.054037,0.121584 0.1486029,0.121584 0.1080749,0 0.1350933,-0.08106 0.1621123,-0.135094 0.459318,-1.499539 1.364445,-1.783235 1.756217,-1.783235 0.607921,0 0.729505,0.567393 0.729505,0.891617 0,0.297206 -0.08106,0.607922 -0.243168,1.256371 l -0.459318,1.850782 c -0.202641,0.810562 -0.594412,1.553577 -1.310408,1.553577 -0.06755,0 -0.405281,0 -0.6889777,-0.175622 0.4863367,-0.09457 0.5944117,-0.499846 0.5944117,-0.661959 0,-0.270187 -0.20264,-0.432299 -0.4593181,-0.432299 -0.3242246,0 -0.675468,0.283696 -0.675468,0.715996 0,0.567393 0.6349399,0.824071 1.2158421,0.824071 0.64845,0 1.107768,-0.513356 1.391464,-1.06724 0.21615,0.797053 0.891618,1.06724 1.391464,1.06724 1.377955,0 2.107461,-1.769726 2.107461,-2.066932 0,-0.06755 -0.05404,-0.121584 -0.135094,-0.121584 -0.121584,0 -0.135094,0.06755 -0.175622,0.175621 -0.364752,1.188824 -1.148295,1.742708 -1.756216,1.742708 -0.472828,0 -0.729506,-0.351244 -0.729506,-0.905127 0,-0.297206 0.05404,-0.513356 0.270187,-1.404974 l 0.472828,-1.837273 c 0.20264,-0.810561 0.661959,-1.404973 1.283389,-1.404973 0.02702,0 0.405281,0 0.688977,0.175621 z"
         id="use9080" />
      <path
         inkscape:connector-curvature="0"
         d="m 19.104831,54.91255 c 0,-0.198137 -0.1441,-0.342237 -0.351243,-0.342237 -0.234162,0 -0.495343,0.21615 -0.495343,0.486337 0,0.198137 0.1441,0.342237 0.351243,0.342237 0.234162,0 0.495343,-0.21615 0.495343,-0.486337 z m -1.314911,3.30529 -0.486337,1.242861 c -0.04503,0.135094 -0.09006,0.243169 -0.09006,0.396275 0,0.441305 0.342237,0.76553 0.819568,0.76553 0.873605,0 1.242861,-1.260874 1.242861,-1.377955 0,-0.09006 -0.07205,-0.117081 -0.135094,-0.117081 -0.108075,0 -0.126087,0.06304 -0.153106,0.153106 -0.207143,0.7205 -0.576399,1.089755 -0.936649,1.089755 -0.108075,0 -0.21615,-0.04503 -0.21615,-0.288199 0,-0.21615 0.06304,-0.378262 0.180125,-0.657456 0.09006,-0.243168 0.180125,-0.486337 0.279194,-0.729505 l 0.279193,-0.729506 c 0.08106,-0.207143 0.189131,-0.486337 0.189131,-0.639443 0,-0.450312 -0.360249,-0.76553 -0.819568,-0.76553 -0.873605,0 -1.251867,1.260873 -1.251867,1.377955 0,0.08106 0.06304,0.117081 0.135094,0.117081 0.117081,0 0.126087,-0.05404 0.153106,-0.1441 0.252174,-0.855593 0.666461,-1.098761 0.936649,-1.098761 0.126087,0 0.216149,0.04503 0.216149,0.297205 0,0.09006 -0.009,0.21615 -0.09907,0.486337 L 17.78992,58.21784 Z"
         id="use9082" />
      <path
         inkscape:connector-curvature="0"
         d="m 34.464073,44.86158 c 0.189131,0 0.4323,0 0.4323,-0.243168 0,-0.256678 -0.229659,-0.256678 -0.4323,-0.256678 l -7.957013,0 c -0.189131,0 -0.432299,0 -0.432299,0.243168 0,0.256678 0.229659,0.256678 0.432299,0.256678 l 7.957013,0 z m 0,2.512741 c 0.189131,0 0.4323,0 0.4323,-0.243168 0,-0.256678 -0.229659,-0.256678 -0.4323,-0.256678 l -7.957013,0 c -0.189131,0 -0.432299,0 -0.432299,0.243168 0,0.256678 0.229659,0.256678 0.432299,0.256678 l 7.957013,0 z"
         id="use9084" />
      <path
         inkscape:connector-curvature="0"
         d="m 56.488945,55.318167 1.634633,-4.322996 -0.337734,0 c -0.526865,1.404974 -1.958858,2.32361 -3.512434,2.728891 -0.283697,0.06755 -1.607614,0.41879 -4.201411,0.41879 l -8.146144,0 6.876264,-8.065088 c 0.09457,-0.108075 0.121584,-0.148603 0.121584,-0.216149 0,-0.02702 0,-0.06755 -0.09457,-0.202641 l -6.295362,-8.605462 7.403129,0 c 1.810255,0 3.039606,0.189131 3.161191,0.21615 0.729505,0.108074 1.904819,0.337734 2.972059,1.013202 0.337734,0.216149 1.25637,0.824071 1.715689,1.918329 l 0.337734,0 -1.634633,-3.79613 -15.968063,0 c -0.310716,0 -0.324225,0.01351 -0.364753,0.09457 -0.01351,0.04053 -0.01351,0.297206 -0.01351,0.445809 l 7.146452,9.780777 -6.997849,8.200181 c -0.135093,0.162112 -0.135093,0.229659 -0.135093,0.243169 0,0.148603 0.121584,0.148603 0.364753,0.148603 l 15.968063,0 z"
         id="use9086" />
      <path
         inkscape:connector-curvature="0"
         d="m 50.021002,59.195018 c 0.009,-0.01801 0.03602,-0.135094 0.03602,-0.1441 0,-0.04503 -0.03602,-0.126088 -0.1441,-0.126088 l -0.90963,0.07205 c -0.333231,0.02702 -0.405281,0.03603 -0.405281,0.198138 0,0.126087 0.126087,0.126087 0.234162,0.126087 0.4323,0 0.4323,0.05404 0.4323,0.135094 0,0.02702 0,0.04503 -0.04503,0.207143 l -1.116773,4.467095 c -0.03603,0.1441 -0.03603,0.279194 -0.03603,0.2882 0,0.558387 0.459318,0.846586 0.90963,0.846586 0.387268,0 0.594412,-0.306212 0.69348,-0.504349 0.162113,-0.297206 0.297206,-0.828574 0.297206,-0.873605 0,-0.05404 -0.02702,-0.117081 -0.1441,-0.117081 -0.08106,0 -0.108074,0.04503 -0.108074,0.05404 -0.01801,0.02702 -0.06304,0.189131 -0.09006,0.2882 -0.135093,0.522362 -0.306212,0.900624 -0.630437,0.900624 -0.216149,0 -0.279193,-0.207144 -0.279193,-0.423294 0,-0.171118 0.02702,-0.270187 0.05404,-0.387268 L 50.021,59.195021 Z"
         id="use9088" />
      <path
         inkscape:connector-curvature="0"
         d="m 70.222448,35.587744 c -0.08106,-0.756524 -0.553884,-1.661652 -1.769726,-1.661652 -1.90482,0 -3.850168,1.931839 -3.850168,4.079827 0,0.824071 0.567393,2.377647 2.404666,2.377647 3.188209,0 4.552654,-4.647219 4.552654,-6.498002 0,-1.945348 -1.094258,-3.444886 -2.823456,-3.444886 -1.958857,0 -2.539759,1.715688 -2.539759,2.080441 0,0.121584 0.08106,0.41879 0.459318,0.41879 0.472827,0 0.675468,-0.432299 0.675468,-0.661959 0,-0.41879 -0.41879,-0.41879 -0.594412,-0.41879 0.553884,-0.999692 1.580595,-1.094258 1.945348,-1.094258 1.188823,0 1.945348,0.945655 1.945348,2.458704 0,0.864599 -0.256678,1.864291 -0.391772,2.364138 l -0.01351,0 z m -3.1747,4.43107 c -1.26988,0 -1.486029,-0.999693 -1.486029,-1.567086 0,-0.594412 0.378262,-1.985876 0.580902,-2.485722 0.175622,-0.405281 0.945655,-1.769726 2.350629,-1.769726 1.229352,0 1.513048,1.067239 1.513048,1.796744 0,0.999693 -0.878108,4.02579 -2.95855,4.02579 z"
         id="use9090" />
      <path
         inkscape:connector-curvature="0"
         d="m 73.522224,39.005612 c 0.580903,-0.661959 1.053731,-1.080749 1.729199,-1.68867 0.810561,-0.702487 1.161805,-1.040221 1.350936,-1.242861 0.945655,-0.932146 1.418482,-1.715689 1.418482,-1.823764 0,-0.108075 -0.108075,-0.108075 -0.135093,-0.108075 -0.09457,0 -0.121584,0.05404 -0.189131,0.148603 -0.337734,0.580903 -0.661959,0.864599 -1.013202,0.864599 -0.283697,0 -0.4323,-0.121584 -0.688978,-0.445809 -0.283696,-0.337734 -0.513355,-0.567393 -0.905127,-0.567393 -0.986183,0 -1.580595,1.229352 -1.580595,1.513048 0,0.04053 0.01351,0.121585 0.135094,0.121585 0.108075,0 0.121584,-0.05404 0.162112,-0.148603 0.229659,-0.540375 0.878108,-0.63494 1.134786,-0.63494 0.283697,0 0.553884,0.09456 0.837581,0.21615 0.513355,0.216149 0.729505,0.216149 0.864599,0.216149 0.09457,0 0.148603,0 0.216149,-0.01351 -0.445808,0.526865 -1.175314,1.175314 -1.783235,1.729198 l -1.364445,1.256371 c -0.824071,0.83758 -1.323918,1.634632 -1.323918,1.729198 0,0.08106 0.06755,0.108075 0.148603,0.108075 0.08106,0 0.09457,-0.01351 0.189131,-0.175622 0.21615,-0.337734 0.64845,-0.83758 1.148296,-0.83758 0.283696,0 0.41879,0.09457 0.688977,0.432299 0.256678,0.297206 0.486337,0.580903 0.918637,0.580903 1.323917,0 2.080441,-1.715689 2.080441,-2.026404 0,-0.05404 -0.01351,-0.135094 -0.148603,-0.135094 -0.108075,0 -0.121584,0.05404 -0.162112,0.189131 -0.297206,0.797052 -1.094258,1.121277 -1.621123,1.121277 -0.283697,0 -0.553884,-0.09457 -0.837581,-0.21615 -0.540374,-0.21615 -0.688977,-0.21615 -0.864599,-0.21615 -0.135093,0 -0.283696,0 -0.405281,0.05404 z"
         id="use9092" />
      <rect
         height="0.54035187"
         width="17.638609"
         x="62.502075"
         y="45.591541"
         id="rect9094" />
      <path
         inkscape:connector-curvature="0"
         d="m 68.635326,53.99391 c -0.08106,-0.756524 -0.553884,-1.661651 -1.769726,-1.661651 -1.90482,0 -3.850168,1.931838 -3.850168,4.079826 0,0.824071 0.567393,2.377648 2.404666,2.377648 3.188209,0 4.552654,-4.64722 4.552654,-6.498002 0,-1.945348 -1.094258,-3.444887 -2.823456,-3.444887 -1.958857,0 -2.539759,1.715689 -2.539759,2.080441 0,0.121585 0.08106,0.41879 0.459318,0.41879 0.472827,0 0.675468,-0.432299 0.675468,-0.661958 0,-0.41879 -0.41879,-0.41879 -0.594412,-0.41879 0.553884,-0.999693 1.580595,-1.094259 1.945348,-1.094259 1.188823,0 1.945348,0.945656 1.945348,2.458704 0,0.864599 -0.256678,1.864292 -0.391772,2.364138 l -0.01351,0 z m -3.1747,4.43107 c -1.26988,0 -1.486029,-0.999693 -1.486029,-1.567086 0,-0.594412 0.378262,-1.985876 0.580902,-2.485722 0.175622,-0.405281 0.945655,-1.769726 2.350629,-1.769726 1.229352,0 1.513048,1.067239 1.513048,1.796745 0,0.999692 -0.878108,4.025789 -2.95855,4.025789 z"
         id="use9096" />
      <path
         inkscape:connector-curvature="0"
         d="m 76.394093,53.453536 c 0,-0.85109 -0.432299,-0.905128 -0.540374,-0.905128 -0.324225,0 -0.621431,0.324225 -0.621431,0.594412 0,0.162113 0.09457,0.256678 0.148603,0.310716 0.135094,0.121584 0.486337,0.486337 0.486337,1.188823 0,0.567393 -0.810562,3.728584 -2.431685,3.728584 -0.824071,0 -0.986183,-0.688978 -0.986183,-1.188824 0,-0.675468 0.310715,-1.621123 0.675468,-2.593797 0.21615,-0.553884 0.270187,-0.688978 0.270187,-0.959165 0,-0.567393 -0.405281,-1.080749 -1.067239,-1.080749 -1.242861,0 -1.742708,1.958858 -1.742708,2.066933 0,0.05404 0.05404,0.121584 0.148603,0.121584 0.121584,0 0.135094,-0.05404 0.189131,-0.243169 0.324225,-1.161805 0.85109,-1.67516 1.364446,-1.67516 0.121584,0 0.351243,0 0.351243,0.445809 0,0.351243 -0.148603,0.743014 -0.351243,1.25637 -0.64845,1.729198 -0.64845,2.147988 -0.64845,2.472213 0,0.297206 0.04053,0.85109 0.459319,1.229352 0.486337,0.41879 1.161805,0.41879 1.283389,0.41879 2.242554,0 3.012587,-4.417561 3.012587,-5.187594 z"
         id="use9098" />
      <path
         inkscape:connector-curvature="0"
         d="m 78.974373,54.5523 c 0.009,-0.01801 0.03602,-0.135093 0.03602,-0.1441 0,-0.04503 -0.03602,-0.126087 -0.1441,-0.126087 l -0.909631,0.07205 c -0.33323,0.02702 -0.40528,0.03603 -0.40528,0.198137 0,0.126088 0.126087,0.126088 0.234162,0.126088 0.432299,0 0.432299,0.05404 0.432299,0.135093 0,0.02702 0,0.04503 -0.04503,0.207144 l -1.116774,4.467095 c -0.03602,0.1441 -0.03602,0.279193 -0.03602,0.2882 0,0.558386 0.459318,0.846586 0.90963,0.846586 0.387268,0 0.594412,-0.306212 0.69348,-0.504349 0.162113,-0.297206 0.297206,-0.828574 0.297206,-0.873606 0,-0.05404 -0.02702,-0.117081 -0.1441,-0.117081 -0.08106,0 -0.108075,0.04503 -0.108075,0.05404 -0.01801,0.02702 -0.06304,0.189131 -0.09006,0.288199 -0.135094,0.522362 -0.306212,0.900624 -0.630437,0.900624 -0.21615,0 -0.279193,-0.207143 -0.279193,-0.423293 0,-0.171118 0.02702,-0.270187 0.05404,-0.387268 l 1.251868,-5.00747 z"
         id="use9100" />
      <path
         inkscape:connector-curvature="0"
         d="m 89.683921,35.587744 c -0.08106,-0.756524 -0.553884,-1.661652 -1.769726,-1.661652 -1.90482,0 -3.850168,1.931839 -3.850168,4.079827 0,0.824071 0.567394,2.377647 2.404667,2.377647 3.188209,0 4.552654,-4.647219 4.552654,-6.498002 0,-1.945348 -1.094258,-3.444886 -2.823456,-3.444886 -1.958858,0 -2.53976,1.715688 -2.53976,2.080441 0,0.121584 0.08106,0.41879 0.459318,0.41879 0.472828,0 0.675468,-0.432299 0.675468,-0.661959 0,-0.41879 -0.41879,-0.41879 -0.594412,-0.41879 0.553884,-0.999692 1.580595,-1.094258 1.945348,-1.094258 1.188824,0 1.945348,0.945655 1.945348,2.458704 0,0.864599 -0.256678,1.864291 -0.391771,2.364138 l -0.01351,0 z m -3.174699,4.43107 c -1.26988,0 -1.48603,-0.999693 -1.48603,-1.567086 0,-0.594412 0.378262,-1.985876 0.580903,-2.485722 0.175621,-0.405281 0.945655,-1.769726 2.350628,-1.769726 1.229352,0 1.513048,1.067239 1.513048,1.796744 0,0.999693 -0.878108,4.02579 -2.958549,4.02579 z"
         id="use9102" />
      <path
         inkscape:connector-curvature="0"
         d="m 97.4428,35.047369 c 0,-0.851089 -0.432299,-0.905127 -0.540374,-0.905127 -0.324225,0 -0.621431,0.324225 -0.621431,0.594412 0,0.162112 0.09457,0.256678 0.148603,0.310715 0.135094,0.121585 0.486337,0.486337 0.486337,1.188824 0,0.567393 -0.810561,3.728583 -2.431685,3.728583 -0.824071,0 -0.986183,-0.688977 -0.986183,-1.188823 0,-0.675468 0.310715,-1.621124 0.675468,-2.593797 0.21615,-0.553884 0.270187,-0.688978 0.270187,-0.959165 0,-0.567393 -0.405281,-1.080749 -1.067239,-1.080749 -1.242861,0 -1.742708,1.958857 -1.742708,2.066932 0,0.05404 0.05404,0.121584 0.148603,0.121584 0.121585,0 0.135094,-0.05404 0.189131,-0.243168 0.324225,-1.161805 0.85109,-1.675161 1.364446,-1.675161 0.121584,0 0.351243,0 0.351243,0.445809 0,0.351244 -0.148603,0.743015 -0.351243,1.256371 -0.64845,1.729198 -0.64845,2.147988 -0.64845,2.472213 0,0.297206 0.04053,0.851089 0.459319,1.229351 0.486337,0.418791 1.161805,0.418791 1.283389,0.418791 2.242554,0 3.012587,-4.417561 3.012587,-5.187595 z"
         id="use9104-3" />
      <path
         inkscape:connector-curvature="0"
         d="m 100.02309,36.146134 c 0.009,-0.01801 0.036,-0.135094 0.036,-0.1441 0,-0.04503 -0.036,-0.126087 -0.144097,-0.126087 l -0.90963,0.07205 c -0.333231,0.02702 -0.405281,0.03603 -0.405281,0.198137 0,0.126087 0.126088,0.126087 0.234163,0.126087 0.432299,0 0.432299,0.05404 0.432299,0.135094 0,0.02702 0,0.04503 -0.04503,0.207143 l -1.116774,4.467096 c -0.03602,0.144099 -0.03602,0.279193 -0.03602,0.288199 0,0.558387 0.459318,0.846587 0.90963,0.846587 0.387269,0 0.594412,-0.306212 0.693481,-0.50435 0.162112,-0.297206 0.297206,-0.828574 0.297206,-0.873605 0,-0.05404 -0.02702,-0.117081 -0.1441,-0.117081 -0.08106,0 -0.108075,0.04503 -0.108075,0.05404 -0.01801,0.02702 -0.06304,0.189131 -0.09006,0.2882 -0.135094,0.522362 -0.306212,0.900624 -0.630437,0.900624 -0.21615,0 -0.279194,-0.207143 -0.279194,-0.423293 0,-0.171119 0.02702,-0.270187 0.05404,-0.387269 l 1.251869,-5.007469 z"
         id="use9106-6" />
      <rect
         height="0.54035187"
         width="19.055515"
         x="82.84256"
         y="45.591541"
         id="rect9108" />
      <path
         inkscape:connector-curvature="0"
         d="m 88.975808,53.99391 c -0.08106,-0.756524 -0.553884,-1.661651 -1.769726,-1.661651 -1.90482,0 -3.850168,1.931838 -3.850168,4.079826 0,0.824071 0.567393,2.377648 2.404666,2.377648 3.188209,0 4.552655,-4.64722 4.552655,-6.498002 0,-1.945348 -1.094258,-3.444887 -2.823456,-3.444887 -1.958858,0 -2.53976,1.715689 -2.53976,2.080441 0,0.121585 0.08106,0.41879 0.459318,0.41879 0.472828,0 0.675468,-0.432299 0.675468,-0.661958 0,-0.41879 -0.41879,-0.41879 -0.594412,-0.41879 0.553884,-0.999693 1.580595,-1.094259 1.945348,-1.094259 1.188824,0 1.945348,0.945656 1.945348,2.458704 0,0.864599 -0.256678,1.864292 -0.391772,2.364138 l -0.01351,0 z m -3.174699,4.43107 c -1.26988,0 -1.48603,-0.999693 -1.48603,-1.567086 0,-0.594412 0.378262,-1.985876 0.580902,-2.485722 0.175622,-0.405281 0.945656,-1.769726 2.350629,-1.769726 1.229352,0 1.513048,1.067239 1.513048,1.796745 0,0.999692 -0.878108,4.025789 -2.958549,4.025789 z"
         id="use9110" />
      <path
         inkscape:connector-curvature="0"
         d="m 96.964338,52.994217 c -0.4323,0.08106 -0.594412,0.405281 -0.594412,0.661959 0,0.324225 0.256678,0.4323 0.445809,0.4323 0.40528,0 0.688977,-0.351244 0.688977,-0.715997 0,-0.567393 -0.648449,-0.824071 -1.215842,-0.824071 -0.824071,0 -1.28339,0.810562 -1.404974,1.06724 -0.310715,-1.013202 -1.148295,-1.06724 -1.391464,-1.06724 -1.377955,0 -2.10746,1.769727 -2.10746,2.066933 0,0.05404 0.05404,0.121584 0.148603,0.121584 0.108075,0 0.135093,-0.08106 0.162112,-0.135094 0.459318,-1.499539 1.364446,-1.783235 1.756217,-1.783235 0.607921,0 0.729505,0.567393 0.729505,0.891617 0,0.297206 -0.08106,0.607922 -0.243168,1.256371 l -0.459318,1.850782 c -0.202641,0.810562 -0.594412,1.553577 -1.310408,1.553577 -0.06755,0 -0.405281,0 -0.688978,-0.175622 0.486337,-0.09457 0.594412,-0.499846 0.594412,-0.661959 0,-0.270187 -0.20264,-0.432299 -0.459318,-0.432299 -0.324225,0 -0.675468,0.283696 -0.675468,0.715996 0,0.567393 0.63494,0.824071 1.215842,0.824071 0.64845,0 1.107768,-0.513356 1.391464,-1.06724 0.21615,0.797053 0.891618,1.06724 1.391465,1.06724 1.377954,0 2.10746,-1.769726 2.10746,-2.066932 0,-0.06755 -0.05404,-0.121584 -0.135094,-0.121584 -0.121584,0 -0.135093,0.06755 -0.175622,0.175621 -0.364752,1.188824 -1.148295,1.742708 -1.756216,1.742708 -0.472828,0 -0.729506,-0.351244 -0.729506,-0.905127 0,-0.297206 0.05404,-0.513356 0.270187,-1.404974 l 0.472828,-1.837273 c 0.20264,-0.810561 0.661959,-1.404973 1.283389,-1.404973 0.02702,0 0.405281,0 0.688978,0.175621 z"
         id="use9112" />
      <path
         inkscape:connector-curvature="0"
         d="m 100.7616,54.91255 c 0,-0.198137 -0.1441,-0.342237 -0.35125,-0.342237 -0.23416,0 -0.495341,0.21615 -0.495341,0.486337 0,0.198137 0.144101,0.342237 0.351241,0.342237 0.23416,0 0.49535,-0.21615 0.49535,-0.486337 z m -1.314915,3.30529 -0.486337,1.242861 c -0.04503,0.135094 -0.09006,0.243169 -0.09006,0.396275 0,0.441305 0.342237,0.76553 0.819568,0.76553 0.873604,0 1.242854,-1.260874 1.242854,-1.377955 0,-0.09006 -0.0721,-0.117081 -0.13509,-0.117081 -0.10807,0 -0.12609,0.06304 -0.15311,0.153106 -0.20714,0.7205 -0.57639,1.089755 -0.936641,1.089755 -0.108075,0 -0.21615,-0.04503 -0.21615,-0.288199 0,-0.21615 0.06304,-0.378262 0.180125,-0.657456 0.09006,-0.243168 0.180124,-0.486337 0.279193,-0.729505 l 0.279193,-0.729506 c 0.081,-0.207143 0.18913,-0.486337 0.18913,-0.639443 0,-0.450312 -0.36025,-0.76553 -0.819566,-0.76553 -0.873606,0 -1.251868,1.260873 -1.251868,1.377955 0,0.08106 0.06304,0.117081 0.135094,0.117081 0.117081,0 0.126087,-0.05404 0.153106,-0.1441 0.252175,-0.855593 0.666462,-1.098761 0.936649,-1.098761 0.126087,0 0.21615,0.04503 0.21615,0.297205 0,0.09006 -0.009,0.21615 -0.09907,0.486337 l -0.243168,0.621431 z"
         id="use9114" />
      <path
         inkscape:connector-curvature="0"
         d="m 116.12061,44.86158 c 0.18913,0 0.4323,0 0.4323,-0.243168 0,-0.256678 -0.22966,-0.256678 -0.4323,-0.256678 l -7.95702,0 c -0.18913,0 -0.4323,0 -0.4323,0.243168 0,0.256678 0.22966,0.256678 0.4323,0.256678 l 7.95702,0 z m 0,2.512741 c 0.18913,0 0.4323,0 0.4323,-0.243168 0,-0.256678 -0.22966,-0.256678 -0.4323,-0.256678 l -7.95702,0 c -0.18913,0 -0.4323,0 -0.4323,0.243168 0,0.256678 0.22966,0.256678 0.4323,0.256678 l 7.95702,0 z"
         id="use9116" />
      <path
         inkscape:connector-curvature="0"
         d="m 131.57982,40.308926 c 0.027,-0.04053 0.0675,-0.135094 0.0675,-0.189131 0,-0.09457 -0.0135,-0.108075 -0.32422,-0.108075 l -9.32146,0 c -0.31071,0 -0.32422,0.01351 -0.32422,0.108075 0,0.05404 0.0405,0.148603 0.0675,0.189131 l 4.55266,9.118818 c 0.0946,0.175621 0.13509,0.256678 0.36475,0.256678 0.22966,0 0.27019,-0.08106 0.36475,-0.256678 l 4.55266,-9.118818 z m -8.2272,0.675468 7.41664,0 -3.70157,7.430148 -3.71507,-7.430148 z"
         id="use9118" />
      <path
         inkscape:connector-curvature="0"
         d="m 136.90701,48.45507 c 0.17562,0.756524 0.82407,0.918636 1.14829,0.918636 0.4323,0 0.75653,-0.283696 0.97268,-0.743014 0.22966,-0.486337 0.40528,-1.28339 0.40528,-1.323918 0,-0.06755 -0.054,-0.121584 -0.1351,-0.121584 -0.12158,0 -0.13509,0.06755 -0.18913,0.270187 -0.24316,0.932146 -0.48633,1.648142 -1.02671,1.648142 -0.40528,0 -0.40528,-0.445809 -0.40528,-0.62143 0,-0.310716 0.0405,-0.445809 0.17562,-1.013202 0.0946,-0.364753 0.18913,-0.729506 0.27019,-1.107768 l 0.55388,-2.202026 c 0.0946,-0.337734 0.0946,-0.364752 0.0946,-0.40528 0,-0.202641 -0.16211,-0.337734 -0.36475,-0.337734 -0.39177,0 -0.48634,0.337734 -0.5674,0.675468 -0.13509,0.526865 -0.8646,3.431377 -0.95916,3.904205 -0.0135,0 -0.54038,1.107767 -1.52656,1.107767 -0.70249,0 -0.83758,-0.607921 -0.83758,-1.107767 0,-0.770034 0.37826,-1.850783 0.72951,-2.75591 0.16211,-0.432299 0.22966,-0.607921 0.22966,-0.878108 0,-0.580903 -0.41879,-1.080749 -1.06724,-1.080749 -1.24286,0 -1.74271,1.958857 -1.74271,2.066932 0,0.05404 0.054,0.121584 0.1486,0.121584 0.12159,0 0.1351,-0.05404 0.18913,-0.243168 0.32423,-1.161805 0.85109,-1.675161 1.36445,-1.675161 0.13509,0 0.35124,0.01351 0.35124,0.445809 0,0.351243 -0.1486,0.743015 -0.35124,1.256371 -0.59441,1.607613 -0.66196,2.120969 -0.66196,2.52625 0,1.377955 1.04022,1.594104 1.5941,1.594104 0.8646,0 1.33743,-0.594412 1.60762,-0.918636 z"
         id="use9120" />
      <path
         inkscape:connector-curvature="0"
         d="m 142.31414,48.590163 c 0,-0.391771 -0.32422,-0.661958 -0.64845,-0.661958 -0.39177,0 -0.66196,0.324224 -0.66196,0.648449 0,0.391772 0.32423,0.661959 0.64845,0.661959 0.39178,0 0.66196,-0.324225 0.66196,-0.64845 z"
         id="use9122" />
      <path
         inkscape:connector-curvature="0"
         d="m 152.5396,35.587744 c -0.0811,-0.756524 -0.55388,-1.661652 -1.76972,-1.661652 -1.90482,0 -3.85017,1.931839 -3.85017,4.079827 0,0.824071 0.56739,2.377647 2.40467,2.377647 3.18821,0 4.55265,-4.647219 4.55265,-6.498002 0,-1.945348 -1.09426,-3.444886 -2.82345,-3.444886 -1.95886,0 -2.53976,1.715688 -2.53976,2.080441 0,0.121584 0.081,0.41879 0.45931,0.41879 0.47283,0 0.67547,-0.432299 0.67547,-0.661959 0,-0.41879 -0.41879,-0.41879 -0.59441,-0.41879 0.55388,-0.999692 1.5806,-1.094258 1.94535,-1.094258 1.18882,0 1.94535,0.945655 1.94535,2.458704 0,0.864599 -0.25668,1.864291 -0.39178,2.364138 l -0.0135,0 z m -3.17469,4.43107 c -1.26988,0 -1.48603,-0.999693 -1.48603,-1.567086 0,-0.594412 0.37826,-1.985876 0.5809,-2.485722 0.17562,-0.405281 0.94565,-1.769726 2.35063,-1.769726 1.22935,0 1.51305,1.067239 1.51305,1.796744 0,0.999693 -0.87811,4.02579 -2.95855,4.02579 z"
         id="use9124" />
      <path
         inkscape:connector-curvature="0"
         d="m 160.81182,34.993332 c 0.0946,-0.202641 0.14861,-0.310715 0.99969,-0.310715 l 0,-0.580903 c -0.48633,0.02702 -0.51335,0.02702 -1.06723,0.02702 -0.36476,0 -0.39178,0 -1.16181,-0.02702 l 0,0.580903 c 0.36475,0 0.66196,0.06755 0.66196,0.162112 0,0.01351 0,0.02702 -0.0675,0.162112 l -1.58059,3.471906 -1.74271,-3.79613 0.74301,0 0,-0.580903 c -0.31071,0.02702 -1.25637,0.02702 -1.62112,0.02702 -0.39177,0 -1.17531,0 -1.52656,-0.02702 l 0,0.580903 0.85109,0 2.37765,5.160575 c 0.12158,0.256678 0.1486,0.324225 0.45932,0.324225 0.21615,0 0.32422,-0.02702 0.44581,-0.297206 l 2.22904,-4.876879 z"
         id="use9126" />
      <rect
         height="0.54035187"
         width="19.055515"
         x="144.8539"
         y="45.591541"
         id="rect9128" />
      <path
         inkscape:connector-curvature="0"
         d="m 150.98714,53.99391 c -0.0811,-0.756524 -0.55388,-1.661651 -1.76973,-1.661651 -1.90482,0 -3.85016,1.931838 -3.85016,4.079826 0,0.824071 0.56739,2.377648 2.40466,2.377648 3.18821,0 4.55266,-4.64722 4.55266,-6.498002 0,-1.945348 -1.09426,-3.444887 -2.82346,-3.444887 -1.95886,0 -2.53976,1.715689 -2.53976,2.080441 0,0.121585 0.0811,0.41879 0.45932,0.41879 0.47283,0 0.67547,-0.432299 0.67547,-0.661958 0,-0.41879 -0.41879,-0.41879 -0.59442,-0.41879 0.55389,-0.999693 1.5806,-1.094259 1.94535,-1.094259 1.18883,0 1.94535,0.945656 1.94535,2.458704 0,0.864599 -0.25668,1.864292 -0.39177,2.364138 l -0.0135,0 z m -3.1747,4.43107 c -1.26988,0 -1.48603,-0.999693 -1.48603,-1.567086 0,-0.594412 0.37826,-1.985876 0.5809,-2.485722 0.17562,-0.405281 0.94566,-1.769726 2.35063,-1.769726 1.22935,0 1.51305,1.067239 1.51305,1.796745 0,0.999692 -0.87811,4.025789 -2.95855,4.025789 z"
         id="use9130" />
      <path
         inkscape:connector-curvature="0"
         d="m 158.97568,52.994217 c -0.4323,0.08106 -0.59441,0.405281 -0.59441,0.661959 0,0.324225 0.25667,0.4323 0.4458,0.4323 0.40529,0 0.68898,-0.351244 0.68898,-0.715997 0,-0.567393 -0.64845,-0.824071 -1.21584,-0.824071 -0.82407,0 -1.28339,0.810562 -1.40497,1.06724 -0.31072,-1.013202 -1.1483,-1.06724 -1.39147,-1.06724 -1.37795,0 -2.10746,1.769727 -2.10746,2.066933 0,0.05404 0.054,0.121584 0.1486,0.121584 0.10808,0 0.1351,-0.08106 0.16212,-0.135094 0.45932,-1.499539 1.36444,-1.783235 1.75621,-1.783235 0.60793,0 0.72951,0.567393 0.72951,0.891617 0,0.297206 -0.0811,0.607922 -0.24317,1.256371 l -0.45932,1.850782 c -0.20264,0.810562 -0.59441,1.553577 -1.31041,1.553577 -0.0675,0 -0.40528,0 -0.68897,-0.175622 0.48633,-0.09457 0.59441,-0.499846 0.59441,-0.661959 0,-0.270187 -0.20264,-0.432299 -0.45932,-0.432299 -0.32422,0 -0.67547,0.283696 -0.67547,0.715996 0,0.567393 0.63494,0.824071 1.21585,0.824071 0.64844,0 1.10776,-0.513356 1.39146,-1.06724 0.21615,0.797053 0.89162,1.06724 1.39146,1.06724 1.37796,0 2.10746,-1.769726 2.10746,-2.066932 0,-0.06755 -0.054,-0.121584 -0.13509,-0.121584 -0.12158,0 -0.13509,0.06755 -0.17562,0.175621 -0.36475,1.188824 -1.1483,1.742708 -1.75622,1.742708 -0.47283,0 -0.7295,-0.351244 -0.7295,-0.905127 0,-0.297206 0.054,-0.513356 0.27018,-1.404974 l 0.47283,-1.837273 c 0.20264,-0.810561 0.66196,-1.404973 1.28339,-1.404973 0.027,0 0.40528,0 0.68898,0.175621 z"
         id="use9132" />
      <path
         inkscape:connector-curvature="0"
         d="m 162.77294,54.91255 c 0,-0.198137 -0.1441,-0.342237 -0.35125,-0.342237 -0.23416,0 -0.49534,0.21615 -0.49534,0.486337 0,0.198137 0.1441,0.342237 0.35124,0.342237 0.23416,0 0.49535,-0.21615 0.49535,-0.486337 z m -1.31492,3.30529 -0.48633,1.242861 c -0.045,0.135094 -0.0901,0.243169 -0.0901,0.396275 0,0.441305 0.34223,0.76553 0.81956,0.76553 0.87361,0 1.24286,-1.260874 1.24286,-1.377955 0,-0.09006 -0.072,-0.117081 -0.13509,-0.117081 -0.10807,0 -0.12609,0.06304 -0.15311,0.153106 -0.20714,0.7205 -0.57639,1.089755 -0.93664,1.089755 -0.10808,0 -0.21615,-0.04503 -0.21615,-0.288199 0,-0.21615 0.063,-0.378262 0.18012,-0.657456 0.0901,-0.243168 0.18013,-0.486337 0.27919,-0.729505 l 0.2792,-0.729506 c 0.0811,-0.207143 0.18913,-0.486337 0.18913,-0.639443 0,-0.450312 -0.36025,-0.76553 -0.81957,-0.76553 -0.8736,0 -1.25187,1.260873 -1.25187,1.377955 0,0.08106 0.0631,0.117081 0.1351,0.117081 0.11708,0 0.12608,-0.05404 0.1531,-0.1441 0.25218,-0.855593 0.66646,-1.098761 0.93665,-1.098761 0.12609,0 0.21615,0.04503 0.21615,0.297205 0,0.09006 -0.009,0.21615 -0.0991,0.486337 l -0.24317,0.621431 z"
         id="use9134" />
    </g>
    <text
       xml:space="preserve"
       style="font-style:normal;font-weight:normal;font-size:21.76176834px;line-height:125%;font-family:sans-serif;letter-spacing:0px;word-spacing:0px;fill:#000000;fill-opacity:1;stroke:none;stroke-width:1px;stroke-linecap:butt;stroke-linejoin:miter;stroke-opacity:1"
       x="28.090124"
       y="151.64493"
       id="text13580"
       sodipodi:linespacing="125%"><tspan
         sodipodi:role="line"
         id="tspan13582"
         x="28.090124"
         y="151.64493"
         style="font-style:normal;font-variant:normal;font-weight:normal;font-stretch:normal;font-family:Arial;-inkscape-font-specification:Arial">chain-rule</tspan></text>
    <g
       transform="translate(98.6977,-214.80874)"
       id="g21030">
      <path
         id="path21032"
         d="m 148.6046,273.03865 c 0.11821,-0.2533 0.18575,-0.38839 1.24961,-0.38839 l 0,-0.72613 c -0.60792,0.0338 -0.64169,0.0338 -1.33405,0.0338 -0.45594,0 -0.48971,0 -1.45225,-0.0338 l 0,0.72613 c 0.45594,0 0.82745,0.0844 0.82745,0.20264 0,0.0169 0,0.0338 -0.0844,0.20264 l -1.97575,4.33988 -2.17838,-4.74516 0.92877,0 0,-0.72613 c -0.3884,0.0338 -1.57047,0.0338 -2.02641,0.0338 -0.48971,0 -1.46914,0 -1.90819,-0.0338 l 0,0.72613 1.06386,0 2.97206,6.45072 c 0.15198,0.32084 0.18575,0.40528 0.57415,0.40528 0.27018,0 0.40528,-0.0338 0.55726,-0.37151 l 2.7863,-6.0961 z"
         inkscape:connector-curvature="0" />
      <path
         id="path21034"
         d="m 156.0249,283.52529 c 0,-0.0507 0,-0.0844 -0.28708,-0.3715 -1.68867,-1.70556 -2.63432,-4.49187 -2.63432,-7.93675 0,-3.27602 0.79367,-6.0961 2.75253,-8.08873 0.16887,-0.15198 0.16887,-0.18576 0.16887,-0.23642 0,-0.10132 -0.0844,-0.13509 -0.15198,-0.13509 -0.21953,0 -1.60424,1.21584 -2.43169,2.87074 -0.86122,1.70556 -1.24961,3.51243 -1.24961,5.5895 0,1.50291 0.23641,3.51243 1.11452,5.31931 0.99632,2.0264 2.38102,3.12404 2.56678,3.12404 0.0675,0 0.15198,-0.0338 0.15198,-0.1351 z"
         inkscape:connector-curvature="0" />
      <path
         id="path21036"
         d="m 162.65714,275.25081 1.95887,-2.24593 c 0.18575,-0.21953 0.33773,-0.35462 1.73932,-0.35462 l 0,-0.72613 c -0.94565,0.0338 -0.97942,0.0338 -1.55357,0.0338 -0.48972,0 -1.21584,0 -1.68867,-0.0338 l 0,0.72613 c 0.32085,0 0.67547,0.0844 0.67547,0.20264 0,0.0338 -0.0844,0.15198 -0.11825,0.18575 l -1.46915,1.6549 -1.67178,-2.04329 0.70924,0 0,-0.72613 c -0.3884,0.0338 -1.53669,0.0338 -1.99263,0.0338 -0.5066,0 -1.41849,0 -1.89131,-0.0338 l 0,0.72613 1.19895,0 2.63433,3.20847 -2.19527,2.48235 c -0.20264,0.23641 -0.32085,0.35462 -1.72245,0.35462 l 0,0.72612 c 1.01321,-0.0338 1.04698,-0.0338 1.57047,-0.0338 0.48971,0 1.19895,0 1.67178,0.0338 l 0,-0.72612 c -0.32085,0 -0.67547,-0.0844 -0.67547,-0.20264 0,-0.0169 0,-0.0338 0.11821,-0.16887 l 1.68866,-1.9082 1.87443,2.27971 -0.70924,0 0,0.72612 c 0.40528,-0.0338 1.53669,-0.0338 2.00951,-0.0338 0.5066,0 1.4016,0 1.87443,0.0338 l 0,-0.72612 -1.18206,0 -2.85387,-3.44489 z"
         inkscape:connector-curvature="0" />
      <path
         id="path21038"
         d="m 171.75484,275.21704 c 0,-1.28339 -0.16886,-3.37734 -1.11451,-5.3362 -0.99632,-2.0264 -2.38102,-3.12404 -2.56679,-3.12404 -0.0675,0 -0.15197,0.0338 -0.15197,0.13509 0,0.0507 0,0.0844 0.28707,0.37151 1.68867,1.70556 2.63433,4.49186 2.63433,7.93675 0,3.27602 -0.79368,6.0961 -2.75254,8.08873 -0.16886,0.15198 -0.16886,0.18575 -0.16886,0.23641 0,0.10133 0.0845,0.1351 0.15197,0.1351 0.21954,0 1.60424,-1.21585 2.43169,-2.87074 0.86123,-1.72245 1.24961,-3.54621 1.24961,-5.57261 z"
         inkscape:connector-curvature="0" />
    </g>
  </g>
</svg>
