<?xml version="1.0" encoding="UTF-8" standalone="no"?>
<!-- Created with Inkscape (http://www.inkscape.org/) -->

<svg
   xmlns:dc="http://purl.org/dc/elements/1.1/"
   xmlns:cc="http://creativecommons.org/ns#"
   xmlns:rdf="http://www.w3.org/1999/02/22-rdf-syntax-ns#"
   xmlns:svg="http://www.w3.org/2000/svg"
   xmlns="http://www.w3.org/2000/svg"
   xmlns:sodipodi="http://sodipodi.sourceforge.net/DTD/sodipodi-0.dtd"
   xmlns:inkscape="http://www.inkscape.org/namespaces/inkscape"
   width="115.36166mm"
   height="55.804249mm"
   viewBox="0 0 408.76181 197.73159"
   id="svg7843"
   version="1.1"
   inkscape:version="0.91 r13725"
   sodipodi:docname="chain_rule_simple._0.svg">
  <defs
     id="defs7845">
    <marker
       inkscape:stockid="Arrow1Mend"
       orient="auto"
       refY="0"
       refX="0"
       id="marker12256"
       style="overflow:visible"
       inkscape:isstock="true">
      <path
         id="path12258"
         d="M 0,0 5,-5 -12.5,0 5,5 0,0 Z"
         style="fill:#000000;fill-opacity:1;fill-rule:evenodd;stroke:#000000;stroke-width:1pt;stroke-opacity:1"
         transform="matrix(-0.4,0,0,-0.4,-4,0)"
         inkscape:connector-curvature="0" />
    </marker>
    <marker
       inkscape:isstock="true"
       style="overflow:visible"
       id="marker11632"
       refX="0"
       refY="0"
       orient="auto"
       inkscape:stockid="Arrow1Mend">
      <path
         transform="matrix(-0.4,0,0,-0.4,-4,0)"
         style="fill:#000000;fill-opacity:1;fill-rule:evenodd;stroke:#000000;stroke-width:1pt;stroke-opacity:1"
         d="M 0,0 5,-5 -12.5,0 5,5 0,0 Z"
         id="path11634"
         inkscape:connector-curvature="0" />
    </marker>
    <marker
       inkscape:isstock="true"
       style="overflow:visible"
       id="marker10165"
       refX="0"
       refY="0"
       orient="auto"
       inkscape:stockid="Arrow1Mend"
       inkscape:collect="always">
      <path
         transform="matrix(-0.4,0,0,-0.4,-4,0)"
         style="fill:#000000;fill-opacity:1;fill-rule:evenodd;stroke:#000000;stroke-width:1pt;stroke-opacity:1"
         d="M 0,0 5,-5 -12.5,0 5,5 0,0 Z"
         id="path10167"
         inkscape:connector-curvature="0" />
    </marker>
    <marker
       inkscape:stockid="Arrow1Mend"
       orient="auto"
       refY="0"
       refX="0"
       id="Arrow1Mend"
       style="overflow:visible"
       inkscape:isstock="true"
       inkscape:collect="always">
      <path
         id="path4155"
         d="M 0,0 5,-5 -12.5,0 5,5 0,0 Z"
         style="fill:#000000;fill-opacity:1;fill-rule:evenodd;stroke:#000000;stroke-width:1pt;stroke-opacity:1"
         transform="matrix(-0.4,0,0,-0.4,-4,0)"
         inkscape:connector-curvature="0" />
    </marker>
  </defs>
  <sodipodi:namedview
     id="base"
     pagecolor="#ffffff"
     bordercolor="#666666"
     borderopacity="1.0"
     inkscape:pageopacity="0.0"
     inkscape:pageshadow="2"
     inkscape:zoom="3.959798"
     inkscape:cx="207.73768"
     inkscape:cy="127.97659"
     inkscape:document-units="px"
     inkscape:current-layer="layer1"
     showgrid="false"
     inkscape:window-width="2495"
     inkscape:window-height="1416"
     inkscape:window-x="65"
     inkscape:window-y="24"
     inkscape:window-maximized="1"
     fit-margin-top="0"
     fit-margin-left="0"
     fit-margin-right="0"
     fit-margin-bottom="0" />
  <metadata
     id="metadata7848">
    <rdf:RDF>
      <cc:Work
         rdf:about="">
        <dc:format>image/svg+xml</dc:format>
        <dc:type
           rdf:resource="http://purl.org/dc/dcmitype/StillImage" />
        <dc:title></dc:title>
      </cc:Work>
    </rdf:RDF>
  </metadata>
  <g
     inkscape:label="Layer 1"
     inkscape:groupmode="layer"
     id="layer1"
     transform="translate(-21.376673,-20.790775)">
    <rect
       style="fill:none;fill-opacity:1;stroke:#000000;stroke-width:0.69999999;stroke-miterlimit:4;stroke-dasharray:none;stroke-dashoffset:0;stroke-opacity:1"
       id="rect8682"
       width="14.934119"
       height="74.417473"
       x="102.71151"
       y="21.145144" />
    <g
       id="g10094"
       transform="translate(-47.500006,-167.5)">
      <path
         inkscape:connector-curvature="0"
         d="m 148.6046,273.03865 c 0.11821,-0.2533 0.18575,-0.38839 1.24961,-0.38839 l 0,-0.72613 c -0.60792,0.0338 -0.64169,0.0338 -1.33405,0.0338 -0.45594,0 -0.48971,0 -1.45225,-0.0338 l 0,0.72613 c 0.45594,0 0.82745,0.0844 0.82745,0.20264 0,0.0169 0,0.0338 -0.0844,0.20264 l -1.97575,4.33988 -2.17838,-4.74516 0.92877,0 0,-0.72613 c -0.3884,0.0338 -1.57047,0.0338 -2.02641,0.0338 -0.48971,0 -1.46914,0 -1.90819,-0.0338 l 0,0.72613 1.06386,0 2.97206,6.45072 c 0.15198,0.32084 0.18575,0.40528 0.57415,0.40528 0.27018,0 0.40528,-0.0338 0.55726,-0.37151 l 2.7863,-6.0961 z"
         id="use9046" />
      <path
         inkscape:connector-curvature="0"
         d="m 156.0249,283.52529 c 0,-0.0507 0,-0.0844 -0.28708,-0.3715 -1.68867,-1.70556 -2.63432,-4.49187 -2.63432,-7.93675 0,-3.27602 0.79367,-6.0961 2.75253,-8.08873 0.16887,-0.15198 0.16887,-0.18576 0.16887,-0.23642 0,-0.10132 -0.0844,-0.13509 -0.15198,-0.13509 -0.21953,0 -1.60424,1.21584 -2.43169,2.87074 -0.86122,1.70556 -1.24961,3.51243 -1.24961,5.5895 0,1.50291 0.23641,3.51243 1.11452,5.31931 0.99632,2.0264 2.38102,3.12404 2.56678,3.12404 0.0675,0 0.15198,-0.0338 0.15198,-0.1351 z"
         id="use9048" />
      <path
         inkscape:connector-curvature="0"
         d="m 171.75484,275.21704 c 0,-1.28339 -0.16886,-3.37734 -1.11451,-5.3362 -0.99632,-2.0264 -2.38102,-3.12404 -2.56679,-3.12404 -0.0675,0 -0.15197,0.0338 -0.15197,0.13509 0,0.0507 0,0.0844 0.28707,0.37151 1.68867,1.70556 2.63433,4.49186 2.63433,7.93675 0,3.27602 -0.79368,6.0961 -2.75254,8.08873 -0.16886,0.15198 -0.16886,0.18575 -0.16886,0.23641 0,0.10133 0.0845,0.1351 0.15197,0.1351 0.21954,0 1.60424,-1.21585 2.43169,-2.87074 0.86123,-1.72245 1.24961,-3.54621 1.24961,-5.57261 z"
         id="use9052" />
    </g>
    <path
       id="use9054"
       d="m 196.15609,63.10162 c 0.72613,-0.82744 1.31717,-1.35093 2.1615,-2.11083 1.0132,-0.87811 1.45226,-1.30028 1.68867,-1.55358 1.18207,-1.16518 1.77311,-2.14461 1.77311,-2.2797 0,-0.1351 -0.1351,-0.1351 -0.16887,-0.1351 -0.11821,0 -0.15198,0.0675 -0.23641,0.18576 -0.42217,0.72612 -0.82745,1.08074 -1.26651,1.08074 -0.35462,0 -0.54037,-0.15198 -0.86122,-0.55726 -0.35462,-0.42216 -0.64169,-0.70924 -1.13141,-0.70924 -1.23273,0 -1.97574,1.53669 -1.97574,1.89131 0,0.0507 0.0169,0.15198 0.16887,0.15198 0.13509,0 0.15198,-0.0675 0.20264,-0.18575 0.28707,-0.67547 1.09763,-0.79368 1.41848,-0.79368 0.35462,0 0.69235,0.1182 1.04697,0.27019 0.6417,0.27019 0.91189,0.27019 1.08075,0.27019 0.11821,0 0.18576,0 0.27019,-0.0169 -0.55726,0.65858 -1.46914,1.46914 -2.22904,2.1615 l -1.70556,1.57046 c -1.03009,1.04697 -1.6549,2.04329 -1.6549,2.1615 0,0.10132 0.0844,0.13509 0.18576,0.13509 0.10132,0 0.1182,-0.0169 0.23641,-0.21953 0.27019,-0.42216 0.81056,-1.04697 1.43537,-1.04697 0.35462,0 0.52349,0.11821 0.86122,0.54037 0.32085,0.37151 0.60792,0.72613 1.1483,0.72613 1.65489,0 2.60055,-2.14461 2.60055,-2.533 0,-0.0675 -0.0169,-0.16887 -0.18575,-0.16887 -0.1351,0 -0.15198,0.0676 -0.20265,0.23641 -0.3715,0.99632 -1.36782,1.4016 -2.0264,1.4016 -0.35462,0 -0.69235,-0.11821 -1.04698,-0.27019 -0.67546,-0.27019 -0.86122,-0.27019 -1.08074,-0.27019 -0.16887,0 -0.35462,0 -0.5066,0.0675 z"
       inkscape:connector-curvature="0" />
    <path
       id="use9056"
       d="m 218.53421,58.99816 c 0.23641,0 0.54038,0 0.54038,-0.30396 0,-0.32085 -0.28708,-0.32085 -0.54038,-0.32085 l -9.94627,0 c -0.23641,0 -0.54037,0 -0.54037,0.30396 0,0.32085 0.28707,0.32085 0.54037,0.32085 l 9.94627,0 z m 0,3.14092 c 0.23641,0 0.54038,0 0.54038,-0.30396 0,-0.32085 -0.28708,-0.32085 -0.54038,-0.32085 l -9.94627,0 c -0.23641,0 -0.54037,0 -0.54037,0.30396 0,0.32085 0.28707,0.32085 0.54037,0.32085 l 9.94627,0 z"
       inkscape:connector-curvature="0" />
    <path
       id="use9058"
       d="m 230.4451,63.49002 c 0.21953,0.94565 1.03009,1.14829 1.43537,1.14829 0.54038,0 0.94566,-0.35462 1.21584,-0.92876 0.28708,-0.60793 0.50661,-1.60424 0.50661,-1.6549 0,-0.0844 -0.0676,-0.15198 -0.16887,-0.15198 -0.15198,0 -0.16887,0.0844 -0.23642,0.33773 -0.30396,1.16518 -0.60792,2.06018 -1.28338,2.06018 -0.50661,0 -0.50661,-0.55726 -0.50661,-0.77679 0,-0.38839 0.0507,-0.55726 0.21953,-1.2665 0.1182,-0.45594 0.23642,-0.91188 0.33774,-1.38471 l 0.69235,-2.75253 c 0.1182,-0.42217 0.1182,-0.45594 0.1182,-0.5066 0,-0.2533 -0.20264,-0.42217 -0.45594,-0.42217 -0.48971,0 -0.60792,0.42217 -0.70924,0.84433 -0.16887,0.65859 -1.08075,4.28923 -1.19896,4.88026 -0.0169,0 -0.67547,1.38471 -1.90819,1.38471 -0.87811,0 -1.04698,-0.7599 -1.04698,-1.38471 0,-0.96254 0.47283,-2.31348 0.91188,-3.44489 0.20264,-0.54037 0.28708,-0.7599 0.28708,-1.09763 0,-0.72613 -0.52349,-1.35094 -1.33405,-1.35094 -1.55358,0 -2.17839,2.44857 -2.17839,2.58367 0,0.0675 0.0675,0.15198 0.18576,0.15198 0.15198,0 0.16886,-0.0675 0.23641,-0.30396 0.40528,-1.45226 1.06386,-2.09395 1.70556,-2.09395 0.16886,0 0.43905,0.0169 0.43905,0.55726 0,0.43905 -0.18575,0.92877 -0.43905,1.57046 -0.74302,2.00952 -0.82745,2.65121 -0.82745,3.15781 0,1.72245 1.30027,1.99263 1.99263,1.99263 1.08075,0 1.67178,-0.74301 2.00952,-1.14829 z"
       inkscape:connector-curvature="0" />
    <path
       id="use9060"
       d="m 239.58559,68.57291 c 0,-0.0507 0,-0.0844 -0.28707,-0.3715 -1.68867,-1.70556 -2.63433,-4.49186 -2.63433,-7.93675 0,-3.27602 0.79368,-6.0961 2.75254,-8.08873 0.16886,-0.15198 0.16886,-0.18575 0.16886,-0.23641 0,-0.10133 -0.0844,-0.1351 -0.15198,-0.1351 -0.21952,0 -1.60423,1.21584 -2.43168,2.87074 -0.86122,1.70556 -1.24962,3.51243 -1.24962,5.5895 0,1.50291 0.23642,3.51243 1.11452,5.31931 0.99632,2.0264 2.38103,3.12404 2.56678,3.12404 0.0676,0 0.15198,-0.0338 0.15198,-0.1351 z"
       inkscape:connector-curvature="0" />
    <path
       id="use9070"
       d="m 276.77602,60.26466 c 0,-1.28339 -0.16887,-3.37734 -1.11453,-5.3362 -0.99631,-2.0264 -2.38102,-3.12404 -2.56677,-3.12404 -0.0675,0 -0.15198,0.0338 -0.15198,0.1351 0,0.0507 0,0.0844 0.28707,0.3715 1.68867,1.70556 2.63432,4.49187 2.63432,7.93675 0,3.27602 -0.79367,6.0961 -2.75253,8.08873 -0.16886,0.15198 -0.16886,0.18575 -0.16886,0.23641 0,0.10133 0.0844,0.1351 0.15198,0.1351 0.21952,0 1.60423,-1.21584 2.43168,-2.87074 0.86122,-1.72244 1.24962,-3.54621 1.24962,-5.57261 z"
       inkscape:connector-curvature="0" />
    <g
       id="g13099"
       transform="translate(-46.071436,-250.57143)">
      <path
         inkscape:connector-curvature="0"
         d="m 157.80644,310.86669 c 0,-1.06387 -0.54037,-1.13141 -0.67546,-1.13141 -0.40528,0 -0.77679,0.40528 -0.77679,0.74301 0,0.20264 0.11821,0.32085 0.18575,0.3884 0.16887,0.15198 0.60792,0.60792 0.60792,1.48603 0,0.70924 -1.0132,4.66072 -3.0396,4.66072 -1.03009,0 -1.23273,-0.86122 -1.23273,-1.48602 0,-0.84434 0.38839,-2.02641 0.84433,-3.24225 0.27019,-0.69236 0.33774,-0.86122 0.33774,-1.19896 0,-0.70924 -0.5066,-1.35093 -1.33405,-1.35093 -1.55358,0 -2.17839,2.44857 -2.17839,2.58366 0,0.0675 0.0675,0.15198 0.18576,0.15198 0.15198,0 0.16886,-0.0675 0.23641,-0.30396 0.40528,-1.45225 1.06386,-2.09395 1.70556,-2.09395 0.15198,0 0.43905,0 0.43905,0.55726 0,0.43906 -0.18575,0.92877 -0.43905,1.57047 -0.81056,2.16149 -0.81056,2.68498 -0.81056,3.09026 0,0.37151 0.0507,1.06386 0.57414,1.53669 0.60793,0.52349 1.45226,0.52349 1.60424,0.52349 2.80319,0 3.76573,-5.52195 3.76573,-6.48449 z"
         id="use9104" />
      <path
         inkscape:connector-curvature="0"
         d="m 161.03181,312.24014 c 0.0113,-0.0225 0.045,-0.16887 0.045,-0.18012 0,-0.0563 -0.045,-0.15761 -0.18012,-0.15761 l -1.13704,0.0901 c -0.41654,0.0338 -0.5066,0.045 -0.5066,0.24767 0,0.15761 0.15761,0.15761 0.2927,0.15761 0.54037,0 0.54037,0.0675 0.54037,0.16887 0,0.0338 0,0.0563 -0.0563,0.25893 l -1.39597,5.58387 c -0.045,0.18012 -0.045,0.34899 -0.045,0.36024 0,0.69799 0.57415,1.05824 1.13704,1.05824 0.48409,0 0.74302,-0.38277 0.86685,-0.63044 0.20264,-0.37151 0.37151,-1.03572 0.37151,-1.09201 0,-0.0675 -0.0338,-0.14635 -0.18012,-0.14635 -0.10133,0 -0.1351,0.0563 -0.1351,0.0675 -0.0225,0.0338 -0.0788,0.23642 -0.11257,0.36025 -0.16887,0.65296 -0.38277,1.12578 -0.78805,1.12578 -0.27019,0 -0.34899,-0.25893 -0.34899,-0.52911 0,-0.2139 0.0338,-0.33774 0.0676,-0.48409 l 1.56483,-6.25934 z"
         id="use9106" />
    </g>
    <path
       style="fill:none;fill-opacity:1;stroke:#000000;stroke-width:0.69999999;stroke-miterlimit:4;stroke-dasharray:none;stroke-dashoffset:0;stroke-opacity:1"
       id="path10119"
       sodipodi:type="arc"
       sodipodi:cx="174.10713"
       sodipodi:cy="59.683632"
       sodipodi:rx="7.6785712"
       sodipodi:ry="7.6785712"
       sodipodi:start="0.012217305"
       sodipodi:end="0"
       sodipodi:open="true"
       d="m 181.78513,59.777441 a 7.6785712,7.6785712 0 0 1 -7.74836,7.58444 7.6785712,7.6785712 0 0 1 -7.60807,-7.725155 7.6785712,7.6785712 0 0 1 7.70188,-7.63163 7.6785712,7.6785712 0 0 1 7.65512,7.678536" />
    <path
       style="fill:none;fill-rule:evenodd;stroke:#000000;stroke-width:1px;stroke-linecap:butt;stroke-linejoin:miter;stroke-opacity:1;marker-end:url(#Arrow1Mend)"
       d="M 47.857134,59.797849 101.07141,24.793494"
       id="path10135"
       inkscape:connector-curvature="0"
       sodipodi:nodetypes="cc" />
    <path
       sodipodi:nodetypes="cc"
       inkscape:connector-curvature="0"
       id="path10163"
       d="M 47.857134,60.320873 101.07141,92.005062"
       style="fill:none;fill-rule:evenodd;stroke:#000000;stroke-width:1px;stroke-linecap:butt;stroke-linejoin:miter;stroke-opacity:1;marker-end:url(#marker10165)" />
    <path
       inkscape:connector-curvature="0"
       d="m 41.50824,57.57966 c -0.54037,0.10132 -0.74301,0.5066 -0.74301,0.82744 0,0.40529 0.32084,0.54038 0.55725,0.54038 0.50661,0 0.86123,-0.43906 0.86123,-0.895 0,-0.70924 -0.81057,-1.03009 -1.5198,-1.03009 -1.03009,0 -1.60424,1.01321 -1.75622,1.33405 -0.3884,-1.2665 -1.43537,-1.33405 -1.73933,-1.33405 -1.72244,0 -2.63433,2.21216 -2.63433,2.58367 0,0.0675 0.0675,0.15198 0.18575,0.15198 0.1351,0 0.16888,-0.10132 0.20265,-0.16887 0.57415,-1.87442 1.70555,-2.22904 2.19526,-2.22904 0.75992,0 0.91189,0.70924 0.91189,1.11452 0,0.37151 -0.10137,0.7599 -0.30396,1.57046 l -0.57415,2.31348 c -0.2533,1.0132 -0.74301,1.94197 -1.63801,1.94197 -0.0844,0 -0.5066,0 -0.86122,-0.21952 0.60792,-0.11822 0.74302,-0.62481 0.74302,-0.82745 0,-0.33774 -0.2533,-0.54038 -0.57415,-0.54038 -0.40528,0 -0.84434,0.35462 -0.84434,0.895 0,0.70924 0.79367,1.03009 1.51981,1.03009 0.81055,0 1.3847,-0.6417 1.73933,-1.33405 0.27018,0.99631 1.11452,1.33405 1.73932,1.33405 1.72245,0 2.63433,-2.21216 2.63433,-2.58367 0,-0.0844 -0.0675,-0.15198 -0.16887,-0.15198 -0.15197,0 -0.16886,0.0844 -0.21952,0.21953 -0.45594,1.48603 -1.43538,2.17838 -2.19528,2.17838 -0.59103,0 -0.91187,-0.43905 -0.91187,-1.13141 0,-0.3715 0.0675,-0.64169 0.33772,-1.75621 l 0.59104,-2.29659 c 0.2533,-1.01321 0.82745,-1.75622 1.60424,-1.75622 0.0337,0 0.5066,0 0.86122,0.21953 z"
       id="path11607" />
    <path
       sodipodi:nodetypes="cc"
       inkscape:connector-curvature="0"
       id="path11630"
       d="m 119.2857,27.719347 45.71428,28.214286"
       style="fill:none;fill-rule:evenodd;stroke:#000000;stroke-width:1px;stroke-linecap:butt;stroke-linejoin:miter;stroke-opacity:1;marker-end:url(#marker11632)" />
    <path
       style="fill:none;fill-rule:evenodd;stroke:#000000;stroke-width:1px;stroke-linecap:butt;stroke-linejoin:miter;stroke-opacity:1;marker-end:url(#marker12256)"
       d="m 119.85713,90.933633 44.99999,-27.5"
       id="path12254"
       inkscape:connector-curvature="0"
       sodipodi:nodetypes="cc" />
    <rect
       style="fill:#cdcdcd;fill-opacity:1;stroke:#000000;stroke-width:0.69999999;stroke-miterlimit:4;stroke-dasharray:none;stroke-dashoffset:0;stroke-opacity:1"
       id="rect13578"
       width="214.28572"
       height="85.357132"
       x="21.726673"
       y="132.81523" />
    <path
       id="use9072"
       d="m 36.191127,173.93268 c -0.10132,-0.94565 -0.692354,-2.07706 -2.212158,-2.07706 -2.381024,0 -4.812709,2.4148 -4.812709,5.09978 0,1.03009 0.709241,2.97206 3.005832,2.97206 3.985262,0 5.690819,-5.80902 5.690819,-8.1225 0,-2.43169 -1.367823,-4.30611 -3.529321,-4.30611 -2.448572,0 -3.1747,2.14461 -3.1747,2.60055 0,0.15198 0.10132,0.52349 0.574148,0.52349 0.591035,0 0.844335,-0.54037 0.844335,-0.82745 0,-0.52349 -0.523487,-0.52349 -0.743015,-0.52349 0.692355,-1.24961 1.975744,-1.36782 2.431685,-1.36782 1.48603,0 2.431686,1.18207 2.431686,3.07338 0,1.08075 -0.320848,2.33036 -0.489715,2.95517 l -0.01689,0 z m -3.968374,5.53884 c -1.58735,0 -1.857538,-1.24961 -1.857538,-1.95886 0,-0.74301 0.472828,-2.48234 0.726129,-3.10715 0.219527,-0.5066 1.182069,-2.21216 2.938286,-2.21216 1.536689,0 1.89131,1.33405 1.89131,2.24593 0,1.24962 -1.097636,5.03224 -3.698187,5.03224 z"
       inkscape:connector-curvature="0" />
    <path
       id="use9074"
       d="m 40.316413,178.20502 c 0.726127,-0.82745 1.317162,-1.35094 2.161497,-2.11084 1.013202,-0.87811 1.452257,-1.30028 1.68867,-1.55358 1.182069,-1.16518 1.773103,-2.14461 1.773103,-2.2797 0,-0.13509 -0.135093,-0.13509 -0.168866,-0.13509 -0.118213,0 -0.15198,0.0676 -0.236414,0.18575 -0.422168,0.72613 -0.827449,1.08075 -1.266503,1.08075 -0.354621,0 -0.540375,-0.15198 -0.861222,-0.55726 -0.35462,-0.42217 -0.641694,-0.70924 -1.131409,-0.70924 -1.232729,0 -1.975744,1.53669 -1.975744,1.89131 0,0.0507 0.01689,0.15198 0.168868,0.15198 0.135093,0 0.15198,-0.0675 0.20264,-0.18576 0.287073,-0.67547 1.097636,-0.79367 1.418482,-0.79367 0.354621,0 0.692355,0.1182 1.046977,0.27019 0.641693,0.27018 0.911881,0.27018 1.080748,0.27018 0.118213,0 0.185754,0 0.270188,-0.0169 -0.557261,0.65859 -1.469144,1.46915 -2.229045,2.1615 l -1.705557,1.57047 c -1.030089,1.04697 -1.654897,2.04329 -1.654897,2.16149 0,0.10133 0.08444,0.1351 0.185753,0.1351 0.101325,0 0.118213,-0.0169 0.236414,-0.21953 0.270188,-0.42217 0.810563,-1.04697 1.43537,-1.04697 0.354622,0 0.523488,0.11821 0.861222,0.54037 0.320847,0.37151 0.607921,0.72613 1.148296,0.72613 1.654896,0 2.600551,-2.14461 2.600551,-2.53301 0,-0.0675 -0.01689,-0.16886 -0.185753,-0.16886 -0.135094,0 -0.15198,0.0676 -0.20264,0.23641 -0.371508,0.99631 -1.367823,1.4016 -2.026404,1.4016 -0.354622,0 -0.692355,-0.11822 -1.046977,-0.27019 -0.675467,-0.27019 -0.861221,-0.27019 -1.080748,-0.27019 -0.168867,0 -0.35462,0 -0.5066,0.0675 z"
       inkscape:connector-curvature="0" />
    <rect
       id="rect9076"
       y="186.43742"
       x="25.655237"
       width="23.819395"
       height="0.67543989" />
    <path
       id="use9078"
       d="m 33.321799,196.94039 c -0.10132,-0.94565 -0.692355,-2.07706 -2.212158,-2.07706 -2.381025,0 -4.81271,2.4148 -4.81271,5.09978 0,1.03009 0.709241,2.97206 3.005833,2.97206 3.985261,0 5.690818,-5.80902 5.690818,-8.1225 0,-2.43169 -1.367823,-4.30611 -3.529321,-4.30611 -2.448571,0 -3.174699,2.14461 -3.174699,2.60055 0,0.15198 0.10132,0.52349 0.574148,0.52349 0.591034,0 0.844335,-0.54037 0.844335,-0.82745 0,-0.52349 -0.523488,-0.52349 -0.743015,-0.52349 0.692354,-1.24961 1.975744,-1.36782 2.431685,-1.36782 1.486029,0 2.431685,1.18207 2.431685,3.07338 0,1.08075 -0.320848,2.33037 -0.489715,2.95517 l -0.01689,0 z m -3.968375,5.53884 c -1.58735,0 -1.857537,-1.24962 -1.857537,-1.95886 0,-0.74301 0.472827,-2.48234 0.726128,-3.10715 0.219527,-0.5066 1.182069,-2.21216 2.938286,-2.21216 1.53669,0 1.89131,1.33405 1.89131,2.24593 0,1.24962 -1.097635,5.03224 -3.698187,5.03224 z"
       inkscape:connector-curvature="0" />
    <path
       id="use9080"
       d="m 44.506319,195.69078 c -0.540374,0.10132 -0.743014,0.5066 -0.743014,0.82745 0,0.40528 0.320846,0.54037 0.557261,0.54037 0.5066,0 0.861222,-0.43905 0.861222,-0.895 0,-0.70924 -0.810562,-1.03008 -1.519804,-1.03008 -1.030088,0 -1.604237,1.0132 -1.756217,1.33405 -0.388393,-1.26651 -1.43537,-1.33405 -1.73933,-1.33405 -1.722444,0 -2.634325,2.21215 -2.634325,2.58366 0,0.0675 0.06755,0.15198 0.185753,0.15198 0.135094,0 0.168867,-0.10132 0.202641,-0.16887 0.574147,-1.87442 1.705556,-2.22904 2.195271,-2.22904 0.759901,0 0.911882,0.70924 0.911882,1.11452 0,0.37151 -0.101326,0.7599 -0.303961,1.57047 l -0.574147,2.31347 c -0.253301,1.01321 -0.743015,1.94197 -1.63801,1.94197 -0.08444,0 -0.506601,0 -0.861222,-0.21952 0.607921,-0.11822 0.743014,-0.62481 0.743014,-0.82745 0,-0.33774 -0.2533,-0.54038 -0.574147,-0.54038 -0.405281,0 -0.844335,0.35462 -0.844335,0.895 0,0.70924 0.793674,1.03009 1.519802,1.03009 0.810563,0 1.38471,-0.6417 1.73933,-1.33405 0.270188,0.99631 1.114523,1.33405 1.739331,1.33405 1.722443,0 2.634326,-2.21216 2.634326,-2.58367 0,-0.0844 -0.06755,-0.15198 -0.168867,-0.15198 -0.15198,0 -0.168868,0.0844 -0.219528,0.21953 -0.45594,1.48603 -1.435369,2.17838 -2.19527,2.17838 -0.591035,0 -0.911883,-0.43905 -0.911883,-1.1314 0,-0.37151 0.06755,-0.6417 0.337734,-1.75622 l 0.591035,-2.29659 c 0.2533,-1.0132 0.827449,-1.75622 1.604236,-1.75622 0.03377,0 0.506602,0 0.861222,0.21953 z"
       inkscape:connector-curvature="0" />
    <path
       id="use9084"
       d="m 67.252385,185.52498 c 0.236413,0 0.540375,0 0.540375,-0.30396 0,-0.32085 -0.287074,-0.32085 -0.540375,-0.32085 l -9.946267,0 c -0.236414,0 -0.540374,0 -0.540374,0.30396 0,0.32085 0.287074,0.32085 0.540374,0.32085 l 9.946267,0 z m 0,3.14093 c 0.236413,0 0.540375,0 0.540375,-0.30396 0,-0.32085 -0.287074,-0.32085 -0.540375,-0.32085 l -9.946267,0 c -0.236414,0 -0.540374,0 -0.540374,0.30396 0,0.32085 0.287074,0.32085 0.540374,0.32085 l 9.946267,0 z"
       inkscape:connector-curvature="0" />
    <path
       id="use9086"
       d="m 94.783477,198.59571 2.043291,-5.40374 -0.422167,0 c -0.658582,1.75622 -2.448573,2.90451 -4.390543,3.41111 -0.354621,0.0844 -2.009518,0.52349 -5.251764,0.52349 l -10.182681,0 8.595331,-10.08136 c 0.118212,-0.13509 0.15198,-0.18575 0.15198,-0.27019 0,-0.0338 0,-0.0844 -0.118213,-0.2533 l -7.869203,-10.75683 9.253912,0 c 2.262819,0 3.799508,0.23642 3.951489,0.27019 0.911881,0.13509 2.381024,0.42217 3.715074,1.2665 0.422168,0.27019 1.570463,1.03009 2.144612,2.39792 l 0.422167,0 -2.043291,-4.74517 -19.960081,0 c -0.388395,0 -0.405281,0.0169 -0.455941,0.11821 -0.01689,0.0507 -0.01689,0.37151 -0.01689,0.55727 l 8.933065,12.22597 -8.747312,10.25023 c -0.168866,0.20264 -0.168866,0.28707 -0.168866,0.30396 0,0.18575 0.15198,0.18575 0.455941,0.18575 l 19.960081,0 z"
       inkscape:connector-curvature="0" />
    <path
       id="use9088"
       d="m 86.698548,203.44178 c 0.01125,-0.0225 0.04502,-0.16887 0.04502,-0.18013 0,-0.0563 -0.04502,-0.15761 -0.180126,-0.15761 l -1.137037,0.0901 c -0.416539,0.0338 -0.506601,0.045 -0.506601,0.24767 0,0.15761 0.157608,0.15761 0.292702,0.15761 0.540375,0 0.540375,0.0676 0.540375,0.16886 0,0.0338 0,0.0563 -0.05629,0.25893 l -1.395967,5.58387 c -0.04504,0.18013 -0.04504,0.349 -0.04504,0.36025 0,0.69799 0.574147,1.05824 1.137037,1.05824 0.484085,0 0.743015,-0.38277 0.86685,-0.63044 0.202642,-0.37151 0.371508,-1.03572 0.371508,-1.09201 0,-0.0675 -0.03377,-0.14635 -0.180125,-0.14635 -0.101325,0 -0.135093,0.0563 -0.135093,0.0675 -0.02251,0.0338 -0.0788,0.23642 -0.112575,0.36025 -0.168866,0.65295 -0.382765,1.12578 -0.788046,1.12578 -0.270186,0 -0.348991,-0.25893 -0.348991,-0.52912 0,-0.21389 0.03378,-0.33773 0.06755,-0.48408 l 1.564835,-6.25934 z"
       inkscape:connector-curvature="0" />
    <path
       id="use9090"
       d="m 111.95036,173.93268 c -0.10133,-0.94565 -0.69236,-2.07706 -2.21216,-2.07706 -2.38103,0 -4.81271,2.4148 -4.81271,5.09978 0,1.03009 0.70924,2.97206 3.00583,2.97206 3.98526,0 5.69082,-5.80902 5.69082,-8.1225 0,-2.43169 -1.36782,-4.30611 -3.52932,-4.30611 -2.44857,0 -3.1747,2.14461 -3.1747,2.60055 0,0.15198 0.10133,0.52349 0.57415,0.52349 0.59103,0 0.84433,-0.54037 0.84433,-0.82745 0,-0.52349 -0.52348,-0.52349 -0.74301,-0.52349 0.69235,-1.24961 1.97574,-1.36782 2.43168,-1.36782 1.48603,0 2.43169,1.18207 2.43169,3.07338 0,1.08075 -0.32085,2.33036 -0.48972,2.95517 l -0.0169,0 z m -3.96838,5.53884 c -1.58735,0 -1.85753,-1.24961 -1.85753,-1.95886 0,-0.74301 0.47282,-2.48234 0.72612,-3.10715 0.21953,-0.5066 1.18207,-2.21216 2.93829,-2.21216 1.53669,0 1.89131,1.33405 1.89131,2.24593 0,1.24962 -1.09764,5.03224 -3.69819,5.03224 z"
       inkscape:connector-curvature="0" />
    <path
       id="use9092"
       d="m 116.07508,178.20502 c 0.72613,-0.82745 1.31716,-1.35094 2.1615,-2.11084 1.0132,-0.87811 1.45225,-1.30028 1.68867,-1.55358 1.18207,-1.16518 1.7731,-2.14461 1.7731,-2.2797 0,-0.13509 -0.13509,-0.13509 -0.16887,-0.13509 -0.11821,0 -0.15198,0.0676 -0.23641,0.18575 -0.42217,0.72613 -0.82745,1.08075 -1.2665,1.08075 -0.35462,0 -0.54038,-0.15198 -0.86123,-0.55726 -0.35462,-0.42217 -0.64169,-0.70924 -1.1314,-0.70924 -1.23273,0 -1.97575,1.53669 -1.97575,1.89131 0,0.0507 0.0169,0.15198 0.16887,0.15198 0.13509,0 0.15198,-0.0675 0.20264,-0.18576 0.28707,-0.67547 1.09763,-0.79367 1.41848,-0.79367 0.35462,0 0.69236,0.1182 1.04698,0.27019 0.64169,0.27018 0.91188,0.27018 1.08075,0.27018 0.11821,0 0.18575,0 0.27018,-0.0169 -0.55726,0.65859 -1.46914,1.46915 -2.22904,2.1615 l -1.70556,1.57047 c -1.03009,1.04697 -1.6549,2.04329 -1.6549,2.16149 0,0.10133 0.0844,0.1351 0.18576,0.1351 0.10132,0 0.11821,-0.0169 0.23641,-0.21953 0.27019,-0.42217 0.81056,-1.04697 1.43537,-1.04697 0.35462,0 0.52349,0.11821 0.86122,0.54037 0.32085,0.37151 0.60793,0.72613 1.1483,0.72613 1.6549,0 2.60055,-2.14461 2.60055,-2.53301 0,-0.0675 -0.0169,-0.16886 -0.18575,-0.16886 -0.1351,0 -0.15198,0.0676 -0.20264,0.23641 -0.37151,0.99631 -1.36782,1.4016 -2.02641,1.4016 -0.35462,0 -0.69235,-0.11822 -1.04697,-0.27019 -0.67547,-0.27019 -0.86122,-0.27019 -1.08075,-0.27019 -0.16887,0 -0.35462,0 -0.5066,0.0675 z"
       inkscape:connector-curvature="0" />
    <rect
       id="rect9094"
       y="186.43742"
       x="102.29989"
       width="22.048264"
       height="0.67543989" />
    <path
       id="use9096"
       d="m 109.96645,196.94039 c -0.10132,-0.94565 -0.69235,-2.07706 -2.21215,-2.07706 -2.38103,0 -4.81271,2.4148 -4.81271,5.09978 0,1.03009 0.70924,2.97206 3.00583,2.97206 3.98526,0 5.69082,-5.80902 5.69082,-8.1225 0,-2.43169 -1.36783,-4.30611 -3.52932,-4.30611 -2.44857,0 -3.1747,2.14461 -3.1747,2.60055 0,0.15198 0.10132,0.52349 0.57415,0.52349 0.59103,0 0.84433,-0.54037 0.84433,-0.82745 0,-0.52349 -0.52349,-0.52349 -0.74301,-0.52349 0.69235,-1.24961 1.97574,-1.36782 2.43168,-1.36782 1.48603,0 2.43169,1.18207 2.43169,3.07338 0,1.08075 -0.32085,2.33037 -0.48972,2.95517 l -0.0169,0 z m -3.96837,5.53884 c -1.58735,0 -1.85754,-1.24962 -1.85754,-1.95886 0,-0.74301 0.47283,-2.48234 0.72613,-3.10715 0.21953,-0.5066 1.18207,-2.21216 2.93829,-2.21216 1.53669,0 1.89131,1.33405 1.89131,2.24593 0,1.24962 -1.09764,5.03224 -3.69819,5.03224 z"
       inkscape:connector-curvature="0" />
    <path
       id="use9098"
       d="m 119.66491,196.26493 c 0,-1.06387 -0.54037,-1.13141 -0.67546,-1.13141 -0.40528,0 -0.77679,0.40528 -0.77679,0.74301 0,0.20264 0.11821,0.32085 0.18575,0.3884 0.16887,0.15198 0.60792,0.60792 0.60792,1.48602 0,0.70925 -1.0132,4.66073 -3.0396,4.66073 -1.03009,0 -1.23273,-0.86122 -1.23273,-1.48603 0,-0.84433 0.38839,-2.0264 0.84433,-3.24224 0.27019,-0.69236 0.33774,-0.86122 0.33774,-1.19896 0,-0.70924 -0.50661,-1.35093 -1.33405,-1.35093 -1.55358,0 -2.17839,2.44857 -2.17839,2.58366 0,0.0675 0.0675,0.15198 0.18576,0.15198 0.15198,0 0.16886,-0.0675 0.23641,-0.30396 0.40528,-1.45226 1.06386,-2.09395 1.70556,-2.09395 0.15198,0 0.43905,0 0.43905,0.55726 0,0.43906 -0.18575,0.92877 -0.43905,1.57046 -0.81057,2.1615 -0.81057,2.68499 -0.81057,3.09027 0,0.37151 0.0507,1.06386 0.57415,1.53669 0.60792,0.52349 1.45226,0.52349 1.60424,0.52349 2.80319,0 3.76573,-5.52195 3.76573,-6.48449 z"
       inkscape:connector-curvature="0" />
    <path
       id="use9100"
       d="m 122.89026,197.63838 c 0.0113,-0.0225 0.045,-0.16887 0.045,-0.18012 0,-0.0563 -0.045,-0.15761 -0.18013,-0.15761 l -1.13703,0.0901 c -0.41654,0.0338 -0.5066,0.045 -0.5066,0.24767 0,0.15761 0.1576,0.15761 0.2927,0.15761 0.54037,0 0.54037,0.0676 0.54037,0.16887 0,0.0338 0,0.0563 -0.0563,0.25893 l -1.39596,5.58387 c -0.045,0.18012 -0.045,0.34899 -0.045,0.36025 0,0.69798 0.57415,1.05823 1.13704,1.05823 0.48408,0 0.74301,-0.38277 0.86685,-0.63044 0.20264,-0.37151 0.37151,-1.03572 0.37151,-1.09201 0,-0.0676 -0.0338,-0.14635 -0.18013,-0.14635 -0.10132,0 -0.13509,0.0563 -0.13509,0.0676 -0.0225,0.0338 -0.0788,0.23642 -0.11258,0.36025 -0.16886,0.65295 -0.38276,1.12578 -0.78804,1.12578 -0.27019,0 -0.34899,-0.25893 -0.34899,-0.52911 0,-0.2139 0.0338,-0.33774 0.0675,-0.48409 l 1.56483,-6.25934 z"
       inkscape:connector-curvature="0" />
    <path
       id="use9102"
       d="m 136.2772,173.93268 c -0.10132,-0.94565 -0.69235,-2.07706 -2.21216,-2.07706 -2.38102,0 -4.81271,2.4148 -4.81271,5.09978 0,1.03009 0.70924,2.97206 3.00584,2.97206 3.98526,0 5.69081,-5.80902 5.69081,-8.1225 0,-2.43169 -1.36782,-4.30611 -3.52932,-4.30611 -2.44857,0 -3.1747,2.14461 -3.1747,2.60055 0,0.15198 0.10133,0.52349 0.57415,0.52349 0.59104,0 0.84434,-0.54037 0.84434,-0.82745 0,-0.52349 -0.52349,-0.52349 -0.74302,-0.52349 0.69236,-1.24961 1.97575,-1.36782 2.43169,-1.36782 1.48603,0 2.43168,1.18207 2.43168,3.07338 0,1.08075 -0.32085,2.33036 -0.48971,2.95517 l -0.0169,0 z m -3.96837,5.53884 c -1.58735,0 -1.85754,-1.24961 -1.85754,-1.95886 0,-0.74301 0.47283,-2.48234 0.72613,-3.10715 0.21952,-0.5066 1.18207,-2.21216 2.93828,-2.21216 1.53669,0 1.89131,1.33405 1.89131,2.24593 0,1.24962 -1.09763,5.03224 -3.69818,5.03224 z"
       inkscape:connector-curvature="0" />
    <path
       id="use9104-3"
       d="m 145.9758,173.25721 c 0,-1.06386 -0.54037,-1.1314 -0.67547,-1.1314 -0.40528,0 -0.77679,0.40528 -0.77679,0.74301 0,0.20264 0.11822,0.32085 0.18576,0.38839 0.16886,0.15199 0.60792,0.60793 0.60792,1.48603 0,0.70925 -1.0132,4.66073 -3.03961,4.66073 -1.03009,0 -1.23273,-0.86122 -1.23273,-1.48602 0,-0.84434 0.3884,-2.02641 0.84434,-3.24225 0.27019,-0.69236 0.33773,-0.86122 0.33773,-1.19896 0,-0.70924 -0.5066,-1.35093 -1.33405,-1.35093 -1.55357,0 -2.17838,2.44857 -2.17838,2.58366 0,0.0675 0.0676,0.15198 0.18575,0.15198 0.15198,0 0.16887,-0.0675 0.23642,-0.30396 0.40528,-1.45226 1.06386,-2.09395 1.70555,-2.09395 0.15198,0 0.43906,0 0.43906,0.55726 0,0.43906 -0.18576,0.92877 -0.43906,1.57046 -0.81056,2.1615 -0.81056,2.68499 -0.81056,3.09027 0,0.37151 0.0507,1.06386 0.57415,1.53669 0.60792,0.52349 1.45226,0.52349 1.60424,0.52349 2.80319,0 3.76573,-5.52195 3.76573,-6.4845 z"
       inkscape:connector-curvature="0" />
    <path
       id="use9106-6"
       d="m 149.20116,174.63067 c 0.0113,-0.0225 0.045,-0.16887 0.045,-0.18012 0,-0.0563 -0.045,-0.15761 -0.18012,-0.15761 l -1.13704,0.0901 c -0.41654,0.0338 -0.5066,0.045 -0.5066,0.24767 0,0.15761 0.15761,0.15761 0.29271,0.15761 0.54037,0 0.54037,0.0676 0.54037,0.16887 0,0.0338 0,0.0563 -0.0563,0.25893 l -1.39597,5.58387 c -0.045,0.18012 -0.045,0.34899 -0.045,0.36025 0,0.69798 0.57415,1.05823 1.13704,1.05823 0.48408,0 0.74301,-0.38277 0.86685,-0.63044 0.20264,-0.37151 0.37151,-1.03572 0.37151,-1.092 0,-0.0676 -0.0338,-0.14636 -0.18013,-0.14636 -0.10132,0 -0.13509,0.0563 -0.13509,0.0676 -0.0225,0.0338 -0.0788,0.23642 -0.11258,0.36025 -0.16887,0.65296 -0.38276,1.12578 -0.78804,1.12578 -0.27019,0 -0.349,-0.25892 -0.349,-0.52911 0,-0.2139 0.0338,-0.33774 0.0676,-0.48409 l 1.56484,-6.25934 z"
       inkscape:connector-curvature="0" />
    <rect
       id="rect9108"
       y="186.43742"
       x="127.72549"
       width="23.819395"
       height="0.67543989" />
    <path
       id="use9110"
       d="m 135.39206,196.94039 c -0.10133,-0.94565 -0.69236,-2.07706 -2.21216,-2.07706 -2.38102,0 -4.81271,2.4148 -4.81271,5.09978 0,1.03009 0.70924,2.97206 3.00583,2.97206 3.98527,0 5.69082,-5.80902 5.69082,-8.1225 0,-2.43169 -1.36782,-4.30611 -3.52932,-4.30611 -2.44857,0 -3.1747,2.14461 -3.1747,2.60055 0,0.15198 0.10133,0.52349 0.57415,0.52349 0.59103,0 0.84433,-0.54037 0.84433,-0.82745 0,-0.52349 -0.52348,-0.52349 -0.74301,-0.52349 0.69235,-1.24961 1.97574,-1.36782 2.43168,-1.36782 1.48604,0 2.43169,1.18207 2.43169,3.07338 0,1.08075 -0.32085,2.33037 -0.48971,2.95517 l -0.0169,0 z m -3.96838,5.53884 c -1.58735,0 -1.85753,-1.24962 -1.85753,-1.95886 0,-0.74301 0.47282,-2.48234 0.72612,-3.10715 0.21953,-0.5066 1.18207,-2.21216 2.93829,-2.21216 1.53669,0 1.89131,1.33405 1.89131,2.24593 0,1.24962 -1.09763,5.03224 -3.69819,5.03224 z"
       inkscape:connector-curvature="0" />
    <path
       id="use9112"
       d="m 146.2616,195.69078 c -0.54037,0.10132 -0.74301,0.5066 -0.74301,0.82745 0,0.40528 0.32084,0.54037 0.55726,0.54037 0.5066,0 0.86122,-0.43905 0.86122,-0.895 0,-0.70924 -0.81056,-1.03008 -1.5198,-1.03008 -1.03009,0 -1.60424,1.0132 -1.75622,1.33405 -0.38839,-1.26651 -1.43537,-1.33405 -1.73933,-1.33405 -1.72244,0 -2.63433,2.21215 -2.63433,2.58366 0,0.0675 0.0675,0.15198 0.18576,0.15198 0.13509,0 0.16886,-0.10132 0.20264,-0.16887 0.57415,-1.87442 1.70556,-2.22904 2.19527,-2.22904 0.7599,0 0.91188,0.70924 0.91188,1.11452 0,0.37151 -0.10132,0.7599 -0.30396,1.57047 l -0.57415,2.31347 c -0.2533,1.01321 -0.74301,1.94197 -1.63801,1.94197 -0.0844,0 -0.5066,0 -0.86122,-0.21952 0.60792,-0.11822 0.74302,-0.62481 0.74302,-0.82745 0,-0.33774 -0.2533,-0.54038 -0.57415,-0.54038 -0.40528,0 -0.84434,0.35462 -0.84434,0.895 0,0.70924 0.79368,1.03009 1.51981,1.03009 0.81056,0 1.38471,-0.6417 1.73933,-1.33405 0.27018,0.99631 1.11452,1.33405 1.73933,1.33405 1.72244,0 2.63432,-2.21216 2.63432,-2.58367 0,-0.0844 -0.0676,-0.15198 -0.16887,-0.15198 -0.15198,0 -0.16886,0.0844 -0.21952,0.21953 -0.45594,1.48603 -1.43537,2.17838 -2.19527,2.17838 -0.59104,0 -0.91189,-0.43905 -0.91189,-1.1314 0,-0.37151 0.0676,-0.6417 0.33774,-1.75622 l 0.59103,-2.29659 c 0.2533,-1.0132 0.82745,-1.75622 1.60424,-1.75622 0.0338,0 0.5066,0 0.86122,0.21953 z"
       inkscape:connector-curvature="0" />
    <text
       xml:space="preserve"
       style="font-style:normal;font-weight:normal;font-size:21.76176834px;line-height:125%;font-family:sans-serif;letter-spacing:0px;word-spacing:0px;fill:#000000;fill-opacity:1;stroke:none;stroke-width:1px;stroke-linecap:butt;stroke-linejoin:miter;stroke-opacity:1"
       x="28.090124"
       y="151.64493"
       id="text13580"
       sodipodi:linespacing="125%"><tspan
         sodipodi:role="line"
         id="tspan13582"
         x="28.090124"
         y="151.64493"
         style="font-style:normal;font-variant:normal;font-weight:normal;font-stretch:normal;font-family:Arial;-inkscape-font-specification:Arial">chain-rule</tspan></text>
    <path
       inkscape:connector-curvature="0"
       d="m 247.3023,58.22991 c 0.11821,-0.2533 0.18575,-0.38839 1.24961,-0.38839 l 0,-0.72613 c -0.60792,0.0338 -0.64169,0.0338 -1.33405,0.0338 -0.45594,0 -0.48971,0 -1.45225,-0.0338 l 0,0.72613 c 0.45594,0 0.82745,0.0844 0.82745,0.20264 0,0.0169 0,0.0338 -0.0844,0.20264 l -1.97575,4.33988 -2.17838,-4.74516 0.92877,0 0,-0.72613 c -0.3884,0.0338 -1.57047,0.0338 -2.02641,0.0338 -0.48971,0 -1.46914,0 -1.90819,-0.0338 l 0,0.72613 1.06386,0 2.97206,6.45072 c 0.15198,0.32084 0.18575,0.40528 0.57415,0.40528 0.27018,0 0.40528,-0.0338 0.55726,-0.37151 l 2.7863,-6.0961 z"
       id="path21032" />
    <path
       inkscape:connector-curvature="0"
       d="m 254.7226,68.71655 c 0,-0.0507 0,-0.0844 -0.28708,-0.3715 -1.68867,-1.70556 -2.63432,-4.49187 -2.63432,-7.93675 0,-3.27602 0.79367,-6.0961 2.75253,-8.08873 0.16887,-0.15198 0.16887,-0.18576 0.16887,-0.23642 0,-0.10132 -0.0844,-0.13509 -0.15198,-0.13509 -0.21953,0 -1.60424,1.21584 -2.43169,2.87074 -0.86122,1.70556 -1.24961,3.51243 -1.24961,5.5895 0,1.50291 0.23641,3.51243 1.11452,5.31931 0.99632,2.0264 2.38102,3.12404 2.56678,3.12404 0.0675,0 0.15198,-0.0338 0.15198,-0.1351 z"
       id="path21034" />
    <path
       inkscape:connector-curvature="0"
       d="m 270.45254,60.4083 c 0,-1.28339 -0.16886,-3.37734 -1.11451,-5.3362 -0.99632,-2.0264 -2.38102,-3.12404 -2.56679,-3.12404 -0.0675,0 -0.15197,0.0338 -0.15197,0.13509 0,0.0507 0,0.0844 0.28707,0.37151 1.68867,1.70556 2.63433,4.49186 2.63433,7.93675 0,3.27602 -0.79368,6.0961 -2.75254,8.08873 -0.16886,0.15198 -0.16886,0.18575 -0.16886,0.23641 0,0.10133 0.0845,0.1351 0.15197,0.1351 0.21954,0 1.60424,-1.21585 2.43169,-2.87074 0.86123,-1.72245 1.24961,-3.54621 1.24961,-5.57261 z"
       id="path21038" />
    <path
       id="path4282"
       d="m 263.50824,57.57966 c -0.54037,0.10132 -0.74301,0.5066 -0.74301,0.82744 0,0.40529 0.32084,0.54038 0.55725,0.54038 0.50661,0 0.86123,-0.43906 0.86123,-0.895 0,-0.70924 -0.81057,-1.03009 -1.5198,-1.03009 -1.03009,0 -1.60424,1.01321 -1.75622,1.33405 -0.3884,-1.2665 -1.43537,-1.33405 -1.73933,-1.33405 -1.72244,0 -2.63433,2.21216 -2.63433,2.58367 0,0.0675 0.0675,0.15198 0.18575,0.15198 0.1351,0 0.16888,-0.10132 0.20265,-0.16887 0.57415,-1.87442 1.70555,-2.22904 2.19526,-2.22904 0.75992,0 0.91189,0.70924 0.91189,1.11452 0,0.37151 -0.10137,0.7599 -0.30396,1.57046 l -0.57415,2.31348 c -0.2533,1.0132 -0.74301,1.94197 -1.63801,1.94197 -0.0844,0 -0.5066,0 -0.86122,-0.21952 0.60792,-0.11822 0.74302,-0.62481 0.74302,-0.82745 0,-0.33774 -0.2533,-0.54038 -0.57415,-0.54038 -0.40528,0 -0.84434,0.35462 -0.84434,0.895 0,0.70924 0.79367,1.03009 1.51981,1.03009 0.81055,0 1.3847,-0.6417 1.73933,-1.33405 0.27018,0.99631 1.11452,1.33405 1.73932,1.33405 1.72245,0 2.63433,-2.21216 2.63433,-2.58367 0,-0.0844 -0.0675,-0.15198 -0.16887,-0.15198 -0.15197,0 -0.16886,0.0844 -0.21952,0.21953 -0.45594,1.48603 -1.43538,2.17838 -2.19528,2.17838 -0.59103,0 -0.91187,-0.43905 -0.91187,-1.13141 0,-0.3715 0.0675,-0.64169 0.33772,-1.75621 l 0.59104,-2.29659 c 0.2533,-1.01321 0.82745,-1.75622 1.60424,-1.75622 0.0337,0 0.5066,0 0.86122,0.21953 z"
       inkscape:connector-curvature="0" />
    <path
       id="path4506"
       d="m 117.76078,104.52668 c -0.54037,0.10132 -0.74301,0.5066 -0.74301,0.82744 0,0.40529 0.32084,0.54038 0.55725,0.54038 0.50661,0 0.86123,-0.43906 0.86123,-0.895 0,-0.70924 -0.81057,-1.03009 -1.5198,-1.03009 -1.03009,0 -1.60424,1.01321 -1.75622,1.33405 -0.3884,-1.2665 -1.43537,-1.33405 -1.73933,-1.33405 -1.72244,0 -2.63433,2.21216 -2.63433,2.58367 0,0.0675 0.0675,0.15198 0.18575,0.15198 0.1351,0 0.16888,-0.10132 0.20265,-0.16887 0.57415,-1.87442 1.70555,-2.22904 2.19526,-2.22904 0.75992,0 0.91189,0.70924 0.91189,1.11452 0,0.37151 -0.10137,0.7599 -0.30396,1.57046 l -0.57415,2.31348 c -0.2533,1.0132 -0.74301,1.94197 -1.63801,1.94197 -0.0844,0 -0.5066,0 -0.86122,-0.21952 0.60792,-0.11822 0.74302,-0.62481 0.74302,-0.82745 0,-0.33774 -0.2533,-0.54038 -0.57415,-0.54038 -0.40528,0 -0.84434,0.35462 -0.84434,0.895 0,0.70924 0.79367,1.03009 1.51981,1.03009 0.81055,0 1.3847,-0.6417 1.73933,-1.33405 0.27018,0.99631 1.11452,1.33405 1.73932,1.33405 1.72245,0 2.63433,-2.21216 2.63433,-2.58367 0,-0.0844 -0.0675,-0.15198 -0.16887,-0.15198 -0.15197,0 -0.16886,0.0844 -0.21952,0.21953 -0.45594,1.48603 -1.43538,2.17838 -2.19528,2.17838 -0.59103,0 -0.91187,-0.43905 -0.91187,-1.13141 0,-0.3715 0.0675,-0.64169 0.33772,-1.75621 l 0.59104,-2.29659 c 0.2533,-1.01321 0.82745,-1.75622 1.60424,-1.75622 0.0337,0 0.5066,0 0.86122,0.21953 z"
       inkscape:connector-curvature="0" />
  </g>
</svg>
