<?xml version="1.0" encoding="UTF-8" standalone="no"?>
<!-- Created with Inkscape (http://www.inkscape.org/) -->

<svg
   xmlns:dc="http://purl.org/dc/elements/1.1/"
   xmlns:cc="http://creativecommons.org/ns#"
   xmlns:rdf="http://www.w3.org/1999/02/22-rdf-syntax-ns#"
   xmlns:svg="http://www.w3.org/2000/svg"
   xmlns="http://www.w3.org/2000/svg"
   xmlns:sodipodi="http://sodipodi.sourceforge.net/DTD/sodipodi-0.dtd"
   xmlns:inkscape="http://www.inkscape.org/namespaces/inkscape"
   width="83.3563mm"
   height="48.531731mm"
   viewBox="0 0 295.357 171.96282"
   id="svg7843"
   version="1.1"
   inkscape:version="0.91 r13725"
   sodipodi:docname="nll_explained.svg">
  <defs
     id="defs7845">
    <marker
       inkscape:stockid="Arrow1Mend"
       orient="auto"
       refY="0"
       refX="0"
       id="marker12256"
       style="overflow:visible"
       inkscape:isstock="true">
      <path
         id="path12258"
         d="M 0,0 5,-5 -12.5,0 5,5 0,0 Z"
         style="fill:#ff0606;fill-opacity:1;fill-rule:evenodd;stroke:#ff0606;stroke-width:1pt;stroke-opacity:1"
         transform="matrix(-0.4,0,0,-0.4,-4,0)"
         inkscape:connector-curvature="0" />
    </marker>
    <marker
       inkscape:isstock="true"
       style="overflow:visible"
       id="marker11632"
       refX="0"
       refY="0"
       orient="auto"
       inkscape:stockid="Arrow1Mend">
      <path
         transform="matrix(-0.4,0,0,-0.4,-4,0)"
         style="fill:#000000;fill-opacity:1;fill-rule:evenodd;stroke:#000000;stroke-width:1pt;stroke-opacity:1"
         d="M 0,0 5,-5 -12.5,0 5,5 0,0 Z"
         id="path11634"
         inkscape:connector-curvature="0" />
    </marker>
  </defs>
  <sodipodi:namedview
     id="base"
     pagecolor="#ffffff"
     bordercolor="#666666"
     borderopacity="1.0"
     inkscape:pageopacity="0.0"
     inkscape:pageshadow="2"
     inkscape:zoom="2.8"
     inkscape:cx="299.85211"
     inkscape:cy="22.539527"
     inkscape:document-units="px"
     inkscape:current-layer="layer1"
     showgrid="false"
     inkscape:window-width="2495"
     inkscape:window-height="1416"
     inkscape:window-x="65"
     inkscape:window-y="24"
     inkscape:window-maximized="1"
     fit-margin-top="0"
     fit-margin-left="0"
     fit-margin-right="0"
     fit-margin-bottom="0" />
  <metadata
     id="metadata7848">
    <rdf:RDF>
      <cc:Work
         rdf:about="">
        <dc:format>image/svg+xml</dc:format>
        <dc:type
           rdf:resource="http://purl.org/dc/dcmitype/StillImage" />
        <dc:title></dc:title>
      </cc:Work>
    </rdf:RDF>
  </metadata>
  <g
     inkscape:label="Layer 1"
     inkscape:groupmode="layer"
     id="layer1"
     transform="translate(244.78572,-1.6713033)">
    <path
       style="fill:none;fill-rule:evenodd;stroke:#ff0606;stroke-width:2.00000024;stroke-linecap:butt;stroke-linejoin:miter;stroke-miterlimit:4;stroke-dasharray:none;stroke-opacity:1;marker-end:url(#marker12256)"
       d="m -2.4999833,25.134173 0,-19.642857"
       id="path26198"
       inkscape:connector-curvature="0"
       sodipodi:nodetypes="cc" />
    <rect
       style="opacity:1;fill:#dfdfdf;fill-opacity:1;stroke:none;stroke-width:1;stroke-miterlimit:4;stroke-dasharray:none;stroke-dashoffset:0;stroke-opacity:1"
       id="rect27605"
       width="295.35699"
       height="149.28569"
       x="-244.78572"
       y="24.348457" />
    <g
       id="g27299"
       transform="translate(-269.28573,-32.500004)">
      <path
         inkscape:connector-curvature="0"
         d="m 177.70168,192.31047 1.92508,0 0,-0.72613 -2.00952,0 0,-1.73933 c 0,-1.75622 1.11453,-2.0264 1.67179,-2.0264 0.18575,0 0.21952,0.0169 0.32085,0.0507 -0.25331,0.16886 -0.40529,0.45594 -0.40529,0.81056 0,0.67547 0.54038,0.97943 0.97943,0.97943 0.37151,0 0.97943,-0.2533 0.97943,-0.99632 0,-0.69235 -0.60792,-1.40159 -1.80688,-1.40159 -1.53669,0 -3.41111,0.64169 -3.41111,2.60055 l 0,1.72244 -1.24962,0 0,0.72613 1.24962,0 0,6.04544 -1.16518,0 0,0.72613 c 0.38839,-0.0338 1.65489,-0.0338 2.12772,-0.0338 0.48972,0 1.85754,0 2.26282,0.0338 l 0,-0.72613 -1.46914,0 0,-6.04544 z"
         id="use26455" />
      <path
         inkscape:connector-curvature="0"
         d="m 187.06,203.1855 c 0,-0.0507 0,-0.0844 -0.28708,-0.3715 -1.68867,-1.70556 -2.63432,-4.49186 -2.63432,-7.93675 0,-3.27602 0.79367,-6.0961 2.75253,-8.08873 0.16887,-0.15198 0.16887,-0.18575 0.16887,-0.23641 0,-0.10132 -0.0844,-0.1351 -0.15198,-0.1351 -0.21953,0 -1.60424,1.21584 -2.43169,2.87074 -0.86122,1.70556 -1.24961,3.51243 -1.24961,5.5895 0,1.50292 0.23641,3.51243 1.11452,5.31931 0.99631,2.0264 2.38102,3.12404 2.56678,3.12404 0.0675,0 0.15198,-0.0338 0.15198,-0.1351 z"
         id="use26457" />
      <path
         inkscape:connector-curvature="0"
         d="m 193.69282,194.91102 1.95886,-2.24593 c 0.18575,-0.21953 0.33773,-0.35462 1.73933,-0.35462 l 0,-0.72613 c -0.94566,0.0338 -0.97943,0.0338 -1.55358,0.0338 -0.48971,0 -1.21584,0 -1.68867,-0.0338 l 0,0.72613 c 0.32085,0 0.67547,0.0844 0.67547,0.20264 0,0.0338 -0.0844,0.15198 -0.11821,0.18575 l -1.46915,1.6549 -1.67178,-2.04329 0.70924,0 0,-0.72613 c -0.38839,0.0338 -1.53669,0.0338 -1.99263,0.0338 -0.5066,0 -1.41848,0 -1.89131,-0.0338 l 0,0.72613 1.19896,0 2.63432,3.20847 -2.19527,2.48235 c -0.20264,0.23641 -0.32085,0.35462 -1.72244,0.35462 l 0,0.72613 c 1.0132,-0.0338 1.04697,-0.0338 1.57046,-0.0338 0.48971,0 1.19896,0 1.67178,0.0338 l 0,-0.72613 c -0.32084,0 -0.67547,-0.0844 -0.67547,-0.20264 0,-0.0169 0,-0.0338 0.11822,-0.16887 l 1.68867,-1.9082 1.87442,2.27971 -0.70924,0 0,0.72613 c 0.40528,-0.0338 1.53669,-0.0338 2.00952,-0.0338 0.5066,0 1.40159,0 1.87442,0.0338 l 0,-0.72613 -1.18207,0 -2.85385,-3.44489 z"
         id="use26459" />
      <path
         inkscape:connector-curvature="0"
         d="m 202.56593,187.87673 c -0.25893,0.045 -0.49534,0.24767 -0.49534,0.52911 0,0.20264 0.13509,0.34899 0.38276,0.34899 0.16887,0 0.51786,-0.12383 0.51786,-0.63043 0,-0.69799 -0.73175,-0.97943 -1.42974,-0.97943 -1.50854,0 -1.98137,1.06949 -1.98137,1.64364 0,0.11257 0,0.51786 0.41654,0.83307 0.25893,0.20265 0.45031,0.23642 1.03572,0.349 0.39402,0.0788 1.03571,0.19138 1.03571,0.77678 0,0.29271 -0.21389,0.66421 -0.52911,0.87811 -0.41654,0.27019 -0.96817,0.28145 -1.1483,0.28145 -0.27019,0 -1.03572,-0.045 -1.31716,-0.49535 0.57415,-0.0225 0.65295,-0.48408 0.65295,-0.61917 0,-0.33774 -0.30396,-0.41654 -0.43905,-0.41654 -0.18013,0 -0.6417,0.13509 -0.6417,0.75427 0,0.66421 0.69799,1.09201 1.74496,1.09201 1.95886,0 2.3754,-1.38471 2.3754,-1.85754 0,-1.0132 -1.10327,-1.2271 -1.51981,-1.30591 -0.54037,-0.10132 -0.97942,-0.18012 -0.97942,-0.65295 0,-0.20264 0.19138,-0.94565 1.28338,-0.94565 0.4278,0 0.86686,0.12383 1.03572,0.41654 z"
         id="use26461" />
      <path
         inkscape:connector-curvature="0"
         d="m 207.3702,192.61443 c 0,-0.45594 -0.3884,-0.81056 -0.81056,-0.81056 -0.48972,0 -0.82745,0.38839 -0.82745,0.81056 0,0.5066 0.42217,0.82745 0.81056,0.82745 0.45594,0 0.82745,-0.35462 0.82745,-0.82745 z m -0.28708,6.29874 c 0,0.59103 0,1.78999 -1.03008,3.05649 -0.10133,0.1351 -0.10133,0.16887 -0.10133,0.20264 0,0.0844 0.0844,0.16887 0.16887,0.16887 0.11821,0 1.30027,-1.24962 1.30027,-3.22536 0,-0.62481 -0.0507,-1.67178 -0.8781,-1.67178 -0.48972,0 -0.81057,0.3715 -0.81057,0.81056 0,0.45594 0.32085,0.82745 0.82745,0.82745 0.32085,0 0.43906,-0.10132 0.52349,-0.16887 z"
         id="use26463" />
      <path
         inkscape:connector-curvature="0"
         d="m 219.15149,190.58803 c 0,-1.72245 -0.54038,-3.39423 -1.92509,-3.39423 -2.36413,0 -4.88025,4.9478 -4.88025,8.66288 0,0.77679 0.16886,3.39422 1.94197,3.39422 2.29659,0 4.86337,-4.82959 4.86337,-8.66287 z m -5.11667,2.38102 c 0.2533,-0.99631 0.60792,-2.4148 1.28339,-3.61375 0.55726,-1.0132 1.14829,-1.82377 1.89131,-1.82377 0.55726,0 0.92877,0.47283 0.92877,2.09395 0,0.60793 -0.0507,1.45226 -0.54038,3.34357 l -3.56309,0 z m 3.44488,0.5066 c -0.42216,1.6549 -0.77678,2.71876 -1.38471,3.78262 -0.48971,0.86123 -1.08074,1.6549 -1.78999,1.6549 -0.52348,0 -0.94565,-0.40528 -0.94565,-2.07706 0,-1.09764 0.27019,-2.24594 0.54037,-3.36046 l 3.57998,0 z"
         id="use26465" />
      <path
         inkscape:connector-curvature="0"
         d="m 224.59745,194.87725 c 0,-1.28339 -0.16887,-3.37734 -1.11452,-5.3362 -0.99632,-2.0264 -2.38103,-3.12404 -2.56678,-3.12404 -0.0675,0 -0.15198,0.0338 -0.15198,0.1351 0,0.0507 0,0.0844 0.28707,0.3715 1.68867,1.70556 2.63433,4.49187 2.63433,7.93675 0,3.27602 -0.79368,6.0961 -2.75253,8.08873 -0.16887,0.15198 -0.16887,0.18575 -0.16887,0.23641 0,0.10133 0.0844,0.1351 0.15198,0.1351 0.21953,0 1.60424,-1.21584 2.43169,-2.87074 0.86122,-1.72244 1.24961,-3.54621 1.24961,-5.57261 z"
         id="use26467" />
    </g>
    <g
       id="g27470">
      <g
         transform="translate(79.642862,-28.57143)"
         id="g27372">
        <path
           id="use26473"
           d="m -238.75221,81.02096 c -0.45595,0.6417 -1.11453,1.21584 -1.94197,1.21584 -0.20265,0 -1.01321,-0.0338 -1.26651,-0.81056 0.0507,0.0169 0.1351,0.0169 0.16887,0.0169 0.5066,0 0.84433,-0.43905 0.84433,-0.82744 0,-0.3884 -0.32084,-0.52349 -0.57414,-0.52349 -0.27019,0 -0.86122,0.20264 -0.86122,1.03009 0,0.86122 0.72612,1.45225 1.68867,1.45225 1.68867,0 3.39422,-1.55357 3.86705,-3.428 l 1.6549,-6.58581 c 0.0169,-0.0844 0.0507,-0.18575 0.0507,-0.28707 0,-0.25331 -0.20264,-0.42217 -0.45594,-0.42217 -0.15199,0 -0.50661,0.0676 -0.6417,0.57415 l -1.24962,4.96469 c -0.0844,0.30396 -0.0844,0.33773 -0.21952,0.52348 -0.33774,0.47283 -0.895,1.04698 -1.70556,1.04698 -0.94565,0 -1.03009,-0.92877 -1.03009,-1.38471 0,-0.96254 0.45594,-2.26282 0.91188,-3.47866 0.18576,-0.48972 0.28708,-0.72613 0.28708,-1.06386 0,-0.70924 -0.5066,-1.35094 -1.33405,-1.35094 -1.55358,0 -2.17839,2.44857 -2.17839,2.58367 0,0.0676 0.0675,0.15198 0.18576,0.15198 0.15198,0 0.16887,-0.0675 0.23641,-0.30396 0.40528,-1.41849 1.04698,-2.09396 1.70556,-2.09396 0.15198,0 0.43905,0 0.43905,0.55727 0,0.43905 -0.18575,0.92876 -0.43905,1.57046 -0.82745,2.21216 -0.82745,2.76942 -0.82745,3.1747 0,1.60424 1.1483,1.97574 1.99263,1.97574 0.48972,0 1.09764,-0.15198 1.68867,-0.77679 l 0.0169,0.0169 c -0.2533,0.99632 -0.42217,1.6549 -1.0132,2.48235 z"
           inkscape:connector-curvature="0" />
        <path
           id="use26475"
           d="m -229.98843,67.92434 c -0.25893,0.045 -0.49535,0.24768 -0.49535,0.52912 0,0.20264 0.1351,0.34899 0.38277,0.34899 0.16886,0 0.51786,-0.12383 0.51786,-0.63043 0,-0.69799 -0.73176,-0.97943 -1.42974,-0.97943 -1.50855,0 -1.98138,1.06949 -1.98138,1.64364 0,0.11257 0,0.51786 0.41654,0.83307 0.25893,0.20264 0.45031,0.23642 1.03572,0.349 0.39402,0.0788 1.03572,0.19138 1.03572,0.77678 0,0.29271 -0.2139,0.66421 -0.52912,0.87811 -0.41654,0.27019 -0.96817,0.28145 -1.1483,0.28145 -0.27018,0 -1.03571,-0.045 -1.31716,-0.49535 0.57415,-0.0225 0.65295,-0.48408 0.65295,-0.61917 0,-0.33774 -0.30396,-0.41654 -0.43905,-0.41654 -0.18013,0 -0.6417,0.13509 -0.6417,0.75427 0,0.66421 0.69799,1.09201 1.74496,1.09201 1.95886,0 2.3754,-1.38471 2.3754,-1.85754 0,-1.0132 -1.10326,-1.2271 -1.5198,-1.30591 -0.54038,-0.10132 -0.97943,-0.18012 -0.97943,-0.65295 0,-0.20264 0.19138,-0.94566 1.28339,-0.94566 0.42779,0 0.86685,0.12384 1.03572,0.41654 z"
           inkscape:connector-curvature="0" />
      </g>
      <path
         inkscape:connector-curvature="0"
         d="m -132.55853,45.08693 c 0.23641,0 0.54037,0 0.54037,-0.30396 0,-0.32085 -0.28707,-0.32085 -0.54037,-0.32085 l -9.94627,0 c -0.23642,0 -0.54038,0 -0.54038,0.30396 0,0.32085 0.28708,0.32085 0.54038,0.32085 l 9.94627,0 z m 0,3.14093 c 0.23641,0 0.54037,0 0.54037,-0.30396 0,-0.32085 -0.28707,-0.32085 -0.54037,-0.32085 l -9.94627,0 c -0.23642,0 -0.54038,0 -0.54038,0.30396 0,0.32085 0.28708,0.32085 0.54038,0.32085 l 9.94627,0 z"
         id="use26477" />
      <path
         inkscape:connector-curvature="0"
         d="m -123.29885,44.4959 c -0.28707,0.0169 -0.35462,0.0338 -0.35462,0.18575 0,0.16887 0.0844,0.16887 0.38839,0.16887 l 0.77679,0 c 1.43537,0 2.07707,1.18207 2.07707,2.80319 0,2.21216 -1.1483,2.80319 -1.97575,2.80319 -0.81056,0 -2.19527,-0.38839 -2.68498,-1.50292 0.54037,0.0844 1.03009,-0.21952 1.03009,-0.82744 0,-0.48972 -0.35462,-0.82745 -0.82745,-0.82745 -0.40528,0 -0.84434,0.23641 -0.84434,0.87811 0,1.50291 1.50292,2.73564 3.37734,2.73564 2.00952,0 3.49555,-1.53669 3.49555,-3.24225 0,-1.55357 -1.24962,-2.76941 -2.87074,-3.05649 1.46914,-0.42217 2.4148,-1.65489 2.4148,-2.97206 0,-1.33405 -1.38471,-2.31347 -3.02272,-2.31347 -1.68867,0 -2.93829,1.03008 -2.93829,2.26281 0,0.67547 0.52349,0.81056 0.77679,0.81056 0.35462,0 0.7599,-0.2533 0.7599,-0.7599 0,-0.54037 -0.40528,-0.77679 -0.77678,-0.77679 -0.10133,0 -0.1351,0 -0.18576,0.0169 0.6417,-1.14829 2.22905,-1.14829 2.31348,-1.14829 0.55726,0 1.6549,0.2533 1.6549,1.9082 0,0.32084 -0.0507,1.2665 -0.54038,1.99263 -0.5066,0.74301 -1.08075,0.79367 -1.53669,0.81056 l -0.5066,0.0507 z"
         id="use26479" />
    </g>
    <text
       xml:space="preserve"
       style="font-style:normal;font-weight:normal;font-size:14.80767155px;line-height:125%;font-family:sans-serif;letter-spacing:0px;word-spacing:0px;fill:#000000;fill-opacity:1;stroke:none;stroke-width:1px;stroke-linecap:butt;stroke-linejoin:miter;stroke-opacity:1"
       x="-236.10999"
       y="51.160088"
       id="text27348"
       sodipodi:linespacing="125%"><tspan
         sodipodi:role="line"
         id="tspan27350"
         x="-236.10999"
         y="51.160088">example</tspan></text>
    <g
       transform="translate(-352.35716,-94.28572)"
       id="g27352">
      <path
         id="path27354"
         d="m 177.70168,192.31047 1.92508,0 0,-0.72613 -2.00952,0 0,-1.73933 c 0,-1.75622 1.11453,-2.0264 1.67179,-2.0264 0.18575,0 0.21952,0.0169 0.32085,0.0507 -0.25331,0.16886 -0.40529,0.45594 -0.40529,0.81056 0,0.67547 0.54038,0.97943 0.97943,0.97943 0.37151,0 0.97943,-0.2533 0.97943,-0.99632 0,-0.69235 -0.60792,-1.40159 -1.80688,-1.40159 -1.53669,0 -3.41111,0.64169 -3.41111,2.60055 l 0,1.72244 -1.24962,0 0,0.72613 1.24962,0 0,6.04544 -1.16518,0 0,0.72613 c 0.38839,-0.0338 1.65489,-0.0338 2.12772,-0.0338 0.48972,0 1.85754,0 2.26282,0.0338 l 0,-0.72613 -1.46914,0 0,-6.04544 z"
         inkscape:connector-curvature="0" />
      <path
         id="path27356"
         d="m 187.06,203.1855 c 0,-0.0507 0,-0.0844 -0.28708,-0.3715 -1.68867,-1.70556 -2.63432,-4.49186 -2.63432,-7.93675 0,-3.27602 0.79367,-6.0961 2.75253,-8.08873 0.16887,-0.15198 0.16887,-0.18575 0.16887,-0.23641 0,-0.10132 -0.0844,-0.1351 -0.15198,-0.1351 -0.21953,0 -1.60424,1.21584 -2.43169,2.87074 -0.86122,1.70556 -1.24961,3.51243 -1.24961,5.5895 0,1.50292 0.23641,3.51243 1.11452,5.31931 0.99631,2.0264 2.38102,3.12404 2.56678,3.12404 0.0675,0 0.15198,-0.0338 0.15198,-0.1351 z"
         inkscape:connector-curvature="0" />
      <path
         id="path27358"
         d="m 193.69282,194.91102 1.95886,-2.24593 c 0.18575,-0.21953 0.33773,-0.35462 1.73933,-0.35462 l 0,-0.72613 c -0.94566,0.0338 -0.97943,0.0338 -1.55358,0.0338 -0.48971,0 -1.21584,0 -1.68867,-0.0338 l 0,0.72613 c 0.32085,0 0.67547,0.0844 0.67547,0.20264 0,0.0338 -0.0844,0.15198 -0.11821,0.18575 l -1.46915,1.6549 -1.67178,-2.04329 0.70924,0 0,-0.72613 c -0.38839,0.0338 -1.53669,0.0338 -1.99263,0.0338 -0.5066,0 -1.41848,0 -1.89131,-0.0338 l 0,0.72613 1.19896,0 2.63432,3.20847 -2.19527,2.48235 c -0.20264,0.23641 -0.32085,0.35462 -1.72244,0.35462 l 0,0.72613 c 1.0132,-0.0338 1.04697,-0.0338 1.57046,-0.0338 0.48971,0 1.19896,0 1.67178,0.0338 l 0,-0.72613 c -0.32084,0 -0.67547,-0.0844 -0.67547,-0.20264 0,-0.0169 0,-0.0338 0.11822,-0.16887 l 1.68867,-1.9082 1.87442,2.27971 -0.70924,0 0,0.72613 c 0.40528,-0.0338 1.53669,-0.0338 2.00952,-0.0338 0.5066,0 1.40159,0 1.87442,0.0338 l 0,-0.72613 -1.18207,0 -2.85385,-3.44489 z"
         inkscape:connector-curvature="0" />
      <path
         id="path27360"
         d="m 202.56593,187.87673 c -0.25893,0.045 -0.49534,0.24767 -0.49534,0.52911 0,0.20264 0.13509,0.34899 0.38276,0.34899 0.16887,0 0.51786,-0.12383 0.51786,-0.63043 0,-0.69799 -0.73175,-0.97943 -1.42974,-0.97943 -1.50854,0 -1.98137,1.06949 -1.98137,1.64364 0,0.11257 0,0.51786 0.41654,0.83307 0.25893,0.20265 0.45031,0.23642 1.03572,0.349 0.39402,0.0788 1.03571,0.19138 1.03571,0.77678 0,0.29271 -0.21389,0.66421 -0.52911,0.87811 -0.41654,0.27019 -0.96817,0.28145 -1.1483,0.28145 -0.27019,0 -1.03572,-0.045 -1.31716,-0.49535 0.57415,-0.0225 0.65295,-0.48408 0.65295,-0.61917 0,-0.33774 -0.30396,-0.41654 -0.43905,-0.41654 -0.18013,0 -0.6417,0.13509 -0.6417,0.75427 0,0.66421 0.69799,1.09201 1.74496,1.09201 1.95886,0 2.3754,-1.38471 2.3754,-1.85754 0,-1.0132 -1.10327,-1.2271 -1.51981,-1.30591 -0.54037,-0.10132 -0.97942,-0.18012 -0.97942,-0.65295 0,-0.20264 0.19138,-0.94565 1.28338,-0.94565 0.4278,0 0.86686,0.12383 1.03572,0.41654 z"
         inkscape:connector-curvature="0" />
      <path
         id="path27362"
         d="m 207.3702,192.61443 c 0,-0.45594 -0.3884,-0.81056 -0.81056,-0.81056 -0.48972,0 -0.82745,0.38839 -0.82745,0.81056 0,0.5066 0.42217,0.82745 0.81056,0.82745 0.45594,0 0.82745,-0.35462 0.82745,-0.82745 z m -0.28708,6.29874 c 0,0.59103 0,1.78999 -1.03008,3.05649 -0.10133,0.1351 -0.10133,0.16887 -0.10133,0.20264 0,0.0844 0.0844,0.16887 0.16887,0.16887 0.11821,0 1.30027,-1.24962 1.30027,-3.22536 0,-0.62481 -0.0507,-1.67178 -0.8781,-1.67178 -0.48972,0 -0.81057,0.3715 -0.81057,0.81056 0,0.45594 0.32085,0.82745 0.82745,0.82745 0.32085,0 0.43906,-0.10132 0.52349,-0.16887 z"
         inkscape:connector-curvature="0" />
      <path
         id="path27364"
         d="m 219.15149,190.58803 c 0,-1.72245 -0.54038,-3.39423 -1.92509,-3.39423 -2.36413,0 -4.88025,4.9478 -4.88025,8.66288 0,0.77679 0.16886,3.39422 1.94197,3.39422 2.29659,0 4.86337,-4.82959 4.86337,-8.66287 z m -5.11667,2.38102 c 0.2533,-0.99631 0.60792,-2.4148 1.28339,-3.61375 0.55726,-1.0132 1.14829,-1.82377 1.89131,-1.82377 0.55726,0 0.92877,0.47283 0.92877,2.09395 0,0.60793 -0.0507,1.45226 -0.54038,3.34357 l -3.56309,0 z m 3.44488,0.5066 c -0.42216,1.6549 -0.77678,2.71876 -1.38471,3.78262 -0.48971,0.86123 -1.08074,1.6549 -1.78999,1.6549 -0.52348,0 -0.94565,-0.40528 -0.94565,-2.07706 0,-1.09764 0.27019,-2.24594 0.54037,-3.36046 l 3.57998,0 z"
         inkscape:connector-curvature="0" />
      <path
         id="path27366"
         d="m 224.59745,194.87725 c 0,-1.28339 -0.16887,-3.37734 -1.11452,-5.3362 -0.99632,-2.0264 -2.38103,-3.12404 -2.56678,-3.12404 -0.0675,0 -0.15198,0.0338 -0.15198,0.1351 0,0.0507 0,0.0844 0.28707,0.3715 1.68867,1.70556 2.63433,4.49187 2.63433,7.93675 0,3.27602 -0.79368,6.0961 -2.75253,8.08873 -0.16887,0.15198 -0.16887,0.18575 -0.16887,0.23641 0,0.10133 0.0844,0.1351 0.15198,0.1351 0.21953,0 1.60424,-1.21584 2.43169,-2.87074 0.86122,-1.72244 1.24961,-3.54621 1.24961,-5.57261 z"
         inkscape:connector-curvature="0" />
    </g>
    <g
       id="g27376"
       transform="matrix(0.74459876,0,0,0.74459876,56.361706,52.518216)">
      <path
         id="path27378"
         d="m -238.75221,81.02096 c -0.45595,0.6417 -1.11453,1.21584 -1.94197,1.21584 -0.20265,0 -1.01321,-0.0338 -1.26651,-0.81056 0.0507,0.0169 0.1351,0.0169 0.16887,0.0169 0.5066,0 0.84433,-0.43905 0.84433,-0.82744 0,-0.3884 -0.32084,-0.52349 -0.57414,-0.52349 -0.27019,0 -0.86122,0.20264 -0.86122,1.03009 0,0.86122 0.72612,1.45225 1.68867,1.45225 1.68867,0 3.39422,-1.55357 3.86705,-3.428 l 1.6549,-6.58581 c 0.0169,-0.0844 0.0507,-0.18575 0.0507,-0.28707 0,-0.25331 -0.20264,-0.42217 -0.45594,-0.42217 -0.15199,0 -0.50661,0.0676 -0.6417,0.57415 l -1.24962,4.96469 c -0.0844,0.30396 -0.0844,0.33773 -0.21952,0.52348 -0.33774,0.47283 -0.895,1.04698 -1.70556,1.04698 -0.94565,0 -1.03009,-0.92877 -1.03009,-1.38471 0,-0.96254 0.45594,-2.26282 0.91188,-3.47866 0.18576,-0.48972 0.28708,-0.72613 0.28708,-1.06386 0,-0.70924 -0.5066,-1.35094 -1.33405,-1.35094 -1.55358,0 -2.17839,2.44857 -2.17839,2.58367 0,0.0676 0.0675,0.15198 0.18576,0.15198 0.15198,0 0.16887,-0.0675 0.23641,-0.30396 0.40528,-1.41849 1.04698,-2.09396 1.70556,-2.09396 0.15198,0 0.43905,0 0.43905,0.55727 0,0.43905 -0.18575,0.92876 -0.43905,1.57046 -0.82745,2.21216 -0.82745,2.76942 -0.82745,3.1747 0,1.60424 1.1483,1.97574 1.99263,1.97574 0.48972,0 1.09764,-0.15198 1.68867,-0.77679 l 0.0169,0.0169 c -0.2533,0.99632 -0.42217,1.6549 -1.0132,2.48235 z"
         inkscape:connector-curvature="0" />
      <path
         id="path27380"
         d="m -229.98843,67.92434 c -0.25893,0.045 -0.49535,0.24768 -0.49535,0.52912 0,0.20264 0.1351,0.34899 0.38277,0.34899 0.16886,0 0.51786,-0.12383 0.51786,-0.63043 0,-0.69799 -0.73176,-0.97943 -1.42974,-0.97943 -1.50855,0 -1.98138,1.06949 -1.98138,1.64364 0,0.11257 0,0.51786 0.41654,0.83307 0.25893,0.20264 0.45031,0.23642 1.03572,0.349 0.39402,0.0788 1.03572,0.19138 1.03572,0.77678 0,0.29271 -0.2139,0.66421 -0.52912,0.87811 -0.41654,0.27019 -0.96817,0.28145 -1.1483,0.28145 -0.27018,0 -1.03571,-0.045 -1.31716,-0.49535 0.57415,-0.0225 0.65295,-0.48408 0.65295,-0.61917 0,-0.33774 -0.30396,-0.41654 -0.43905,-0.41654 -0.18013,0 -0.6417,0.13509 -0.6417,0.75427 0,0.66421 0.69799,1.09201 1.74496,1.09201 1.95886,0 2.3754,-1.38471 2.3754,-1.85754 0,-1.0132 -1.10326,-1.2271 -1.5198,-1.30591 -0.54038,-0.10132 -0.97943,-0.18012 -0.97943,-0.65295 0,-0.20264 0.19138,-0.94566 1.28339,-0.94566 0.42779,0 0.86685,0.12384 1.03572,0.41654 z"
         inkscape:connector-curvature="0" />
    </g>
    <g
       id="g27395"
       transform="translate(-354.85716,-93.928577)">
      <path
         id="path27397"
         d="m 145.04533,195.1981 c 0.28707,0 0.59103,0 0.59103,-0.33774 0,-0.33773 -0.30396,-0.33773 -0.59103,-0.33773 l -9.1357,0 c -0.28708,0 -0.59104,0 -0.59104,0.33773 0,0.33774 0.30396,0.33774 0.59104,0.33774 l 9.1357,0 z"
         inkscape:connector-curvature="0" />
      <path
         id="path27399"
         d="m 152.77015,187.36267 -2.34725,0.18575 0,0.48971 c 1.14829,0 1.28338,0.11821 1.28338,0.94566 l 0,8.84863 c 0,0.7599 -0.18575,0.7599 -1.28338,0.7599 l 0,0.48972 c 0.47282,-0.0338 1.30027,-0.0338 1.80687,-0.0338 0.5066,0 1.35094,0 1.82377,0.0338 l 0,-0.48972 c -1.08075,0 -1.28339,0 -1.28339,-0.7599 l 0,-10.46975 z"
         inkscape:connector-curvature="0" />
      <path
         id="path27401"
         d="m 162.20953,195.46828 c 0,-2.17838 -1.65489,-3.91771 -3.61375,-3.91771 -2.0264,0 -3.63064,1.78999 -3.63064,3.91771 0,2.1615 1.68867,3.78262 3.61375,3.78262 1.99263,0 3.63064,-1.65489 3.63064,-3.78262 z m -3.61375,3.41112 c -0.62481,0 -1.38471,-0.27019 -1.87442,-1.09764 -0.45594,-0.7599 -0.47283,-1.75622 -0.47283,-2.46546 0,-0.64169 0,-1.67178 0.52349,-2.43168 0.47282,-0.72613 1.21584,-0.99632 1.80687,-0.99632 0.65858,0 1.36783,0.30396 1.82377,0.96254 0.52348,0.77679 0.52348,1.84066 0.52348,2.46546 0,0.59104 0,1.63801 -0.43905,2.43169 -0.47283,0.81056 -1.24962,1.13141 -1.89131,1.13141 z"
         inkscape:connector-curvature="0" />
      <path
         id="path27403"
         d="m 164.73536,196.02554 c 0.79368,0.52349 1.46915,0.52349 1.6549,0.52349 1.5198,0 2.65121,-1.14829 2.65121,-2.44857 0,-0.45594 -0.13509,-1.09763 -0.67547,-1.63801 0.65858,-0.67547 1.45226,-0.67547 1.53669,-0.67547 0.0675,0 0.15198,0 0.21953,0.0338 -0.16887,0.0675 -0.2533,0.23642 -0.2533,0.42217 0,0.23641 0.16887,0.43905 0.43905,0.43905 0.1351,0 0.43906,-0.0844 0.43906,-0.45594 0,-0.30396 -0.23642,-0.77678 -0.82745,-0.77678 -0.87811,0 -1.53669,0.54037 -1.7731,0.79367 -0.5066,-0.38839 -1.09764,-0.60792 -1.73933,-0.60792 -1.51981,0 -2.65122,1.14829 -2.65122,2.44857 0,0.96254 0.59104,1.58735 0.75991,1.73933 -0.20264,0.2533 -0.5066,0.74302 -0.5066,1.4016 0,0.97943 0.59103,1.40159 0.72612,1.48603 -0.77679,0.21952 -1.55357,0.82744 -1.55357,1.70555 0,1.16518 1.58735,2.12773 3.66441,2.12773 2.00952,0 3.6813,-0.895 3.6813,-2.1615 0,-0.42217 -0.11821,-1.41848 -1.13141,-1.94197 -0.86122,-0.43906 -1.70555,-0.43906 -3.15781,-0.43906 -1.03009,0 -1.1483,0 -1.45226,-0.32084 -0.16886,-0.16887 -0.32084,-0.48972 -0.32084,-0.84434 0,-0.28707 0.10132,-0.57415 0.27018,-0.81056 z m 1.67179,0.16887 c -1.48603,0 -1.48603,-1.70556 -1.48603,-2.09395 0,-0.30396 0,-0.99631 0.28707,-1.45226 0.32085,-0.48971 0.82745,-0.65858 1.18207,-0.65858 1.48603,0 1.48603,1.70556 1.48603,2.09395 0,0.30396 0,0.99632 -0.28707,1.45226 -0.32085,0.48971 -0.82745,0.65858 -1.18207,0.65858 z m 0.45594,5.99478 c -1.62113,0 -2.85385,-0.82745 -2.85385,-1.78999 0,-0.13509 0.0338,-0.79367 0.67546,-1.23273 0.37151,-0.23641 0.52349,-0.23641 1.70556,-0.23641 1.4016,0 3.30979,0 3.30979,1.46914 0,0.99632 -1.28339,1.78999 -2.83696,1.78999 z"
         inkscape:connector-curvature="0" />
    </g>
    <g
       id="g27481"
       transform="translate(-24.000001,0)">
      <g
         id="g27405"
         transform="translate(-129.64286,-94.642863)">
        <path
           id="path27407"
           d="m 145.04533,195.1981 c 0.28707,0 0.59103,0 0.59103,-0.33774 0,-0.33773 -0.30396,-0.33773 -0.59103,-0.33773 l -9.1357,0 c -0.28708,0 -0.59104,0 -0.59104,0.33773 0,0.33774 0.30396,0.33774 0.59104,0.33774 l 9.1357,0 z"
           inkscape:connector-curvature="0" />
        <path
           id="path27409"
           d="m 152.77015,187.36267 -2.34725,0.18575 0,0.48971 c 1.14829,0 1.28338,0.11821 1.28338,0.94566 l 0,8.84863 c 0,0.7599 -0.18575,0.7599 -1.28338,0.7599 l 0,0.48972 c 0.47282,-0.0338 1.30027,-0.0338 1.80687,-0.0338 0.5066,0 1.35094,0 1.82377,0.0338 l 0,-0.48972 c -1.08075,0 -1.28339,0 -1.28339,-0.7599 l 0,-10.46975 z"
           inkscape:connector-curvature="0" />
        <path
           id="path27411"
           d="m 162.20953,195.46828 c 0,-2.17838 -1.65489,-3.91771 -3.61375,-3.91771 -2.0264,0 -3.63064,1.78999 -3.63064,3.91771 0,2.1615 1.68867,3.78262 3.61375,3.78262 1.99263,0 3.63064,-1.65489 3.63064,-3.78262 z m -3.61375,3.41112 c -0.62481,0 -1.38471,-0.27019 -1.87442,-1.09764 -0.45594,-0.7599 -0.47283,-1.75622 -0.47283,-2.46546 0,-0.64169 0,-1.67178 0.52349,-2.43168 0.47282,-0.72613 1.21584,-0.99632 1.80687,-0.99632 0.65858,0 1.36783,0.30396 1.82377,0.96254 0.52348,0.77679 0.52348,1.84066 0.52348,2.46546 0,0.59104 0,1.63801 -0.43905,2.43169 -0.47283,0.81056 -1.24962,1.13141 -1.89131,1.13141 z"
           inkscape:connector-curvature="0" />
        <path
           id="path27413"
           d="m 164.73536,196.02554 c 0.79368,0.52349 1.46915,0.52349 1.6549,0.52349 1.5198,0 2.65121,-1.14829 2.65121,-2.44857 0,-0.45594 -0.13509,-1.09763 -0.67547,-1.63801 0.65858,-0.67547 1.45226,-0.67547 1.53669,-0.67547 0.0675,0 0.15198,0 0.21953,0.0338 -0.16887,0.0675 -0.2533,0.23642 -0.2533,0.42217 0,0.23641 0.16887,0.43905 0.43905,0.43905 0.1351,0 0.43906,-0.0844 0.43906,-0.45594 0,-0.30396 -0.23642,-0.77678 -0.82745,-0.77678 -0.87811,0 -1.53669,0.54037 -1.7731,0.79367 -0.5066,-0.38839 -1.09764,-0.60792 -1.73933,-0.60792 -1.51981,0 -2.65122,1.14829 -2.65122,2.44857 0,0.96254 0.59104,1.58735 0.75991,1.73933 -0.20264,0.2533 -0.5066,0.74302 -0.5066,1.4016 0,0.97943 0.59103,1.40159 0.72612,1.48603 -0.77679,0.21952 -1.55357,0.82744 -1.55357,1.70555 0,1.16518 1.58735,2.12773 3.66441,2.12773 2.00952,0 3.6813,-0.895 3.6813,-2.1615 0,-0.42217 -0.11821,-1.41848 -1.13141,-1.94197 -0.86122,-0.43906 -1.70555,-0.43906 -3.15781,-0.43906 -1.03009,0 -1.1483,0 -1.45226,-0.32084 -0.16886,-0.16887 -0.32084,-0.48972 -0.32084,-0.84434 0,-0.28707 0.10132,-0.57415 0.27018,-0.81056 z m 1.67179,0.16887 c -1.48603,0 -1.48603,-1.70556 -1.48603,-2.09395 0,-0.30396 0,-0.99631 0.28707,-1.45226 0.32085,-0.48971 0.82745,-0.65858 1.18207,-0.65858 1.48603,0 1.48603,1.70556 1.48603,2.09395 0,0.30396 0,0.99632 -0.28707,1.45226 -0.32085,0.48971 -0.82745,0.65858 -1.18207,0.65858 z m 0.45594,5.99478 c -1.62113,0 -2.85385,-0.82745 -2.85385,-1.78999 0,-0.13509 0.0338,-0.79367 0.67546,-1.23273 0.37151,-0.23641 0.52349,-0.23641 1.70556,-0.23641 1.4016,0 3.30979,0 3.30979,1.46914 0,0.99632 -1.28339,1.78999 -2.83696,1.78999 z"
           inkscape:connector-curvature="0" />
      </g>
      <g
         id="g27435"
         transform="translate(-61.357158,-116)">
        <path
           inkscape:connector-curvature="0"
           d="m 116.6464,212.69835 c 0.33773,0 0.47283,0 0.47283,-0.32085 0,-0.16887 -0.1351,-0.16887 -0.43906,-0.16887 l -1.36782,0 c 0.32085,-1.73933 0.55726,-2.93828 0.69235,-3.47866 0.10132,-0.40528 0.45595,-0.79367 0.895,-0.79367 0.35462,0 0.70924,0.15198 0.87811,0.30396 -0.65858,0.0675 -0.86122,0.55726 -0.86122,0.84433 0,0.33774 0.2533,0.54038 0.57414,0.54038 0.33774,0 0.84434,-0.28708 0.84434,-0.92877 0,-0.70924 -0.70924,-1.09764 -1.45226,-1.09764 -0.72612,0 -1.43537,0.54038 -1.7731,1.19896 -0.30396,0.59103 -0.47283,1.19896 -0.86122,3.41111 l -1.13141,0 c -0.32085,0 -0.48972,0 -0.48972,0.30396 0,0.18576 0.10132,0.18576 0.43906,0.18576 l 1.08075,0 c -0.30396,1.57046 -0.99632,5.38685 -1.38471,7.19373 -0.28708,1.46914 -0.54038,2.70187 -1.38471,2.70187 -0.0507,0 -0.54038,0 -0.84434,-0.32084 0.86123,-0.0676 0.86123,-0.81057 0.86123,-0.82745 0,-0.33774 -0.25331,-0.54038 -0.57415,-0.54038 -0.33774,0 -0.84434,0.28708 -0.84434,0.92877 0,0.72613 0.74302,1.09764 1.4016,1.09764 1.72244,0 2.43168,-3.09027 2.61744,-3.9346 0.30396,-1.30028 1.13141,-5.79214 1.21584,-6.29874 l 1.43537,0 z"
           id="path27437" />
        <path
           inkscape:connector-curvature="0"
           d="m 120.11324,218.2597 c 0.88936,0 1.45225,0.65296 1.45225,1.83503 0,1.40722 -0.7993,1.82376 -1.39596,1.82376 -0.61918,0 -1.46352,-0.22516 -1.85754,-0.82182 0.40528,0 0.68673,-0.25893 0.68673,-0.63044 0,-0.36025 -0.25893,-0.61918 -0.61918,-0.61918 -0.30396,0 -0.61918,0.19139 -0.61918,0.6417 0,1.06949 1.14829,1.76747 2.43168,1.76747 1.49729,0 2.54427,-1.03571 2.54427,-2.16149 0,-0.9344 -0.74302,-1.78999 -1.89131,-2.03767 0.88936,-0.31521 1.55357,-1.08074 1.55357,-1.98137 0,-0.90062 -1.0132,-1.54232 -2.18401,-1.54232 -1.20459,0 -2.11647,0.65296 -2.11647,1.50855 0,0.41654 0.28145,0.59666 0.57415,0.59666 0.34899,0 0.57415,-0.24767 0.57415,-0.57415 0,-0.41653 -0.36025,-0.57414 -0.60792,-0.5854 0.47282,-0.61918 1.33967,-0.65295 1.54232,-0.65295 0.2927,0 1.14829,0.0901 1.14829,1.24961 0,0.78805 -0.32648,1.26088 -0.48408,1.441 -0.33774,0.34899 -0.59667,0.37151 -1.28339,0.41654 -0.2139,0.0112 -0.30396,0.0225 -0.30396,0.16887 0,0.1576 0.10132,0.1576 0.2927,0.1576 l 0.56289,0 z"
           id="path27439" />
      </g>
    </g>
    <path
       inkscape:connector-curvature="0"
       d="m -97.62996,98.301219 c 0.23641,0 0.54037,0 0.54037,-0.30396 0,-0.32085 -0.28707,-0.32085 -0.54037,-0.32085 l -9.94627,0 c -0.23642,0 -0.54038,0 -0.54038,0.30396 0,0.32085 0.28708,0.32085 0.54038,0.32085 l 9.94627,0 z m 0,3.140931 c 0.23641,0 0.54037,0 0.54037,-0.30396 0,-0.32085 -0.28707,-0.32085 -0.54037,-0.32085 l -9.94627,0 c -0.23642,0 -0.54038,0 -0.54038,0.30396 0,0.32085 0.28708,0.32085 0.54038,0.32085 l 9.94627,0 z"
       id="path27468" />
    <g
       id="g28387"
       transform="matrix(0.68866647,0,0,0.68866647,-22.93616,31.145878)">
      <g
         id="g27441">
        <rect
           style="fill:#ffffff;fill-opacity:1;stroke:#000000;stroke-width:0.82920182;stroke-miterlimit:4;stroke-dasharray:none;stroke-dashoffset:0;stroke-opacity:1"
           id="rect29735"
           width="39.320671"
           height="143.02213"
           x="-85.874634"
           y="31.167561" />
        <g
           transform="matrix(1.25,0,0,1.2500001,-76.759408,-57.821488)"
           id="g10729">
          <path
             inkscape:connector-curvature="0"
             d="m 5.8605946,82.170217 c 0.2701872,0 0.378262,0 0.378262,-0.256678 0,-0.135093 -0.1080748,-0.135093 -0.3512433,-0.135093 l -1.0942582,0 C 5.050033,80.386982 5.239164,79.427817 5.3472389,78.995517 5.428295,78.671293 5.7119916,78.360578 6.063235,78.360578 c 0.2836965,0 0.5673931,0.121584 0.7024867,0.243168 -0.5268651,0.05404 -0.6889774,0.445809 -0.6889774,0.675468 0,0.270187 0.2026404,0.4323 0.4593183,0.4323 0.2701872,0 0.675468,-0.22966 0.675468,-0.743015 0,-0.567393 -0.5673932,-0.878109 -1.161805,-0.878109 -0.5809025,0 -1.1482956,0.4323 -1.4184828,0.959165 -0.2431685,0.472827 -0.3782621,0.959164 -0.6889774,2.728891 l -0.9051271,0 c -0.2566778,0 -0.3917714,0 -0.3917714,0.243168 0,0.148603 0.081056,0.148603 0.3512433,0.148603 l 0.8645991,0 c -0.2431685,1.256371 -0.7970523,4.309486 -1.1077675,5.754987 -0.2296592,1.175315 -0.4322996,2.161498 -1.1077676,2.161498 -0.040528,0 -0.4322995,0 -0.67546796,-0.256678 0.68897736,-0.05404 0.68897736,-0.648449 0.68897736,-0.661958 0,-0.270188 -0.2026404,-0.4323 -0.4593182,-0.4323 -0.27018724,0 -0.67546804,0.229659 -0.67546804,0.743015 0,0.580902 0.59441184,0.878108 1.12127684,0.878108 1.3779548,0 1.9453479,-2.472213 2.0939508,-3.147681 0.2431685,-1.04022 0.9051272,-4.63371 0.972674,-5.038991 l 1.1482956,0 z"
             id="use9878" />
          <path
             inkscape:connector-curvature="0"
             d="m 10.759538,86.754379 c 0,-0.963667 -0.09907,-1.549073 -0.396275,-2.125472 C 9.9669889,83.836358 9.2374834,83.63822 8.7421402,83.63822 c -1.1347862,0 -1.5490732,0.846587 -1.6751606,1.098762 -0.3242246,0.657455 -0.3422371,1.549073 -0.3422371,2.017397 0,0.594412 0.027019,1.504043 0.4593182,2.224542 0.4142871,0.666462 1.0807488,0.83758 1.5580795,0.83758 0.4322996,0 1.2068362,-0.135094 1.6571478,-1.026711 0.333231,-0.64845 0.36025,-1.450005 0.36025,-2.035411 z m -2.0173978,2.809947 c -0.3062121,0 -0.9276427,-0.144099 -1.1167737,-1.089755 -0.099069,-0.513355 -0.099069,-1.359942 -0.099069,-1.828266 0,-0.621431 0,-1.251868 0.099069,-1.747211 0.189131,-0.918636 0.8916177,-1.008699 1.1167737,-1.008699 0.3062122,0 0.9276428,0.153106 1.1077676,0.972674 0.1080748,0.495343 0.1080748,1.170811 0.1080748,1.783236 0,0.531368 0,1.341929 -0.1080748,1.846279 -0.1891311,0.945655 -0.8105616,1.071742 -1.1077676,1.071742 z"
             id="use9880" />
        </g>
        <g
           transform="matrix(1.25,0,0,1.2500001,-98.498088,46.800172)"
           id="g10723">
          <path
             inkscape:connector-curvature="0"
             d="m 17.728228,82.170217 c 0.270187,0 0.378262,0 0.378262,-0.256678 0,-0.135093 -0.108075,-0.135093 -0.351243,-0.135093 l -1.094259,0 c 0.256678,-1.391464 0.445809,-2.350629 0.553884,-2.782929 0.08106,-0.324224 0.364753,-0.634939 0.715996,-0.634939 0.283697,0 0.567393,0.121584 0.702487,0.243168 -0.526865,0.05404 -0.688977,0.445809 -0.688977,0.675468 0,0.270187 0.20264,0.4323 0.459318,0.4323 0.270187,0 0.675468,-0.22966 0.675468,-0.743015 0,-0.567393 -0.567393,-0.878109 -1.161805,-0.878109 -0.580903,0 -1.148296,0.4323 -1.418483,0.959165 -0.243168,0.472827 -0.378262,0.959164 -0.688977,2.728891 l -0.905127,0 c -0.256678,0 -0.391772,0 -0.391772,0.243168 0,0.148603 0.08106,0.148603 0.351244,0.148603 l 0.864599,0 c -0.243169,1.256371 -0.797053,4.309486 -1.107768,5.754987 -0.229659,1.175315 -0.432299,2.161498 -1.107767,2.161498 -0.04053,0 -0.4323,0 -0.675468,-0.256678 0.688977,-0.05404 0.688977,-0.648449 0.688977,-0.661958 0,-0.270188 -0.202641,-0.4323 -0.459318,-0.4323 -0.270188,0 -0.675468,0.229659 -0.675468,0.743015 0,0.580902 0.594411,0.878108 1.121277,0.878108 1.377954,0 1.945347,-2.472213 2.09395,-3.147681 0.243169,-1.04022 0.905127,-4.63371 0.972674,-5.038991 l 1.148296,0 z"
             id="use9882" />
          <path
             inkscape:connector-curvature="0"
             d="m 23.059475,86.006862 c -0.009,-0.01801 -0.05404,-0.108075 -0.05404,-0.117082 0,-0.01801 0.153106,-0.126087 0.243168,-0.189131 0.711493,-0.522362 1.684167,-1.224848 1.981373,-1.413979 0.459318,-0.2882 0.792549,-0.477331 1.19783,-0.513356 0.07205,-0.009 0.198137,-0.01801 0.198137,-0.180125 -0.009,-0.06304 -0.06304,-0.117081 -0.126087,-0.117081 -0.009,0 -0.261181,0.02702 -0.324225,0.02702 l -0.360249,0 c -0.153107,0 -0.378263,0 -0.459319,-0.009 -0.06304,0 -0.414287,-0.01801 -0.47733,-0.01801 -0.06304,0 -0.189131,0 -0.189131,0.171119 0,0.009 0.009,0.117081 0.144099,0.126087 0.07205,0.009 0.21615,0.02702 0.21615,0.135094 0,0.144099 -0.180125,0.297206 -0.198137,0.306212 l -0.07205,0.06304 c -0.02702,0.02702 -0.06304,0.06304 -0.108075,0.09006 l -3.674546,2.665847 0.711493,-2.854978 c 0.08106,-0.324225 0.09907,-0.405281 0.756524,-0.405281 0.180125,0 0.2882,0 0.2882,-0.171119 0,-0.009 -0.009,-0.126087 -0.153106,-0.126087 -0.171119,0 -0.387268,0.01801 -0.558387,0.02702 l -0.567393,0 c -0.864599,0 -1.098761,-0.02702 -1.161805,-0.02702 -0.04503,0 -0.180125,0 -0.180125,0.171119 0,0.126087 0.108075,0.126087 0.261181,0.126087 0.297206,0 0.558387,0 0.558387,0.1441 0,0.03603 -0.009,0.04503 -0.03602,0.162112 l -1.206836,4.836351 c -0.08106,0.342237 -0.09907,0.414287 -0.765531,0.414287 -0.171118,0 -0.279193,0 -0.279193,0.171119 0,0.03602 0.02702,0.126087 0.1441,0.126087 0.171118,0 0.387268,-0.01801 0.558387,-0.02702 l 1.161805,0 c 0.144099,0.009 0.441305,0.02702 0.576399,0.02702 0.04503,0 0.180125,0 0.180125,-0.162112 0,-0.135094 -0.108075,-0.135094 -0.261181,-0.135094 -0.06304,0 -0.189131,0 -0.342237,-0.01801 -0.189131,-0.01801 -0.21615,-0.03602 -0.21615,-0.126088 0,-0.05404 0.06304,-0.279193 0.09006,-0.423293 l 0.342237,-1.359942 1.450005,-1.044724 1.080749,2.224541 c 0.03603,0.07205 0.135094,0.270187 0.171118,0.351244 0.05404,0.09006 0.05404,0.108074 0.05404,0.144099 0,0.243169 -0.333231,0.252175 -0.4323,0.252175 -0.09006,0 -0.216149,0 -0.216149,0.171119 0,0.009 0.009,0.126087 0.153106,0.126087 0.09006,0 0.432299,-0.01801 0.513355,-0.02702 l 0.522362,0 c 0.828574,0 0.801556,0.02702 0.918637,0.02702 0.03602,0 0.171118,0 0.171118,-0.171119 0,-0.126087 -0.126087,-0.126087 -0.180124,-0.126087 -0.351244,-0.009 -0.468325,-0.07205 -0.612425,-0.378262 l -1.431992,-2.94504 z"
             id="use9884" />
          <path
             inkscape:connector-curvature="0"
             d="m 33.224591,87.582954 c 0.1441,0 0.342237,0 0.342237,-0.207144 0,-0.207143 -0.198137,-0.207143 -0.342237,-0.207143 l -5.160575,0 c -0.1441,0 -0.342237,0 -0.342237,0.207143 0,0.207144 0.198137,0.207144 0.342237,0.207144 l 5.160575,0 z"
             id="use9886" />
          <path
             inkscape:connector-curvature="0"
             d="m 37.199948,83.890395 c 0,-0.243168 -0.01801,-0.252175 -0.261181,-0.252175 -0.369256,0.36025 -0.846586,0.5764 -1.702179,0.5764 l 0,0.297206 c 0.243168,0 0.729505,0 1.251867,-0.243169 l 0,4.620201 c 0,0.333231 -0.02702,0.441306 -0.882611,0.441306 l -0.315219,0 0,0.297206 c 0.369256,-0.02702 1.143793,-0.02702 1.549074,-0.02702 0.40528,0 1.188823,0 1.558079,0.02702 l 0,-0.297206 -0.315218,0 c -0.855593,0 -0.882612,-0.108075 -0.882612,-0.441306 l 0,-4.998463 z"
             id="use9888" />
        </g>
        <g
           transform="matrix(1.25,0,0,1.2500001,-128.8311,19.961587)"
           id="g11032">
          <path
             inkscape:connector-curvature="0"
             d="m 44.456838,86.95253 c 0,-0.391771 -0.324225,-0.661958 -0.64845,-0.661958 -0.391771,0 -0.661958,0.324224 -0.661958,0.648449 0,0.391772 0.324224,0.661959 0.648449,0.661959 0.391771,0 0.661959,-0.324225 0.661959,-0.64845 z"
             id="path11034" />
          <path
             inkscape:connector-curvature="0"
             d="m 50.38272,86.95253 c 0,-0.391771 -0.324224,-0.661958 -0.648449,-0.661958 -0.391772,0 -0.661959,0.324224 -0.661959,0.648449 0,0.391772 0.324225,0.661959 0.64845,0.661959 0.391771,0 0.661958,-0.324225 0.661958,-0.64845 z"
             id="path11036" />
          <path
             inkscape:connector-curvature="0"
             d="m 56.308594,86.95253 c 0,-0.391771 -0.324224,-0.661958 -0.648449,-0.661958 -0.391772,0 -0.661959,0.324224 -0.661959,0.648449 0,0.391772 0.324225,0.661959 0.64845,0.661959 0.391771,0 0.661958,-0.324225 0.661958,-0.64845 z"
             id="path11038" />
        </g>
        <g
           id="g27308"
           transform="translate(-185.35716,-116)">
          <path
             inkscape:connector-curvature="0"
             d="m 116.6464,212.69835 c 0.33773,0 0.47283,0 0.47283,-0.32085 0,-0.16887 -0.1351,-0.16887 -0.43906,-0.16887 l -1.36782,0 c 0.32085,-1.73933 0.55726,-2.93828 0.69235,-3.47866 0.10132,-0.40528 0.45595,-0.79367 0.895,-0.79367 0.35462,0 0.70924,0.15198 0.87811,0.30396 -0.65858,0.0675 -0.86122,0.55726 -0.86122,0.84433 0,0.33774 0.2533,0.54038 0.57414,0.54038 0.33774,0 0.84434,-0.28708 0.84434,-0.92877 0,-0.70924 -0.70924,-1.09764 -1.45226,-1.09764 -0.72612,0 -1.43537,0.54038 -1.7731,1.19896 -0.30396,0.59103 -0.47283,1.19896 -0.86122,3.41111 l -1.13141,0 c -0.32085,0 -0.48972,0 -0.48972,0.30396 0,0.18576 0.10132,0.18576 0.43906,0.18576 l 1.08075,0 c -0.30396,1.57046 -0.99632,5.38685 -1.38471,7.19373 -0.28708,1.46914 -0.54038,2.70187 -1.38471,2.70187 -0.0507,0 -0.54038,0 -0.84434,-0.32084 0.86123,-0.0676 0.86123,-0.81057 0.86123,-0.82745 0,-0.33774 -0.25331,-0.54038 -0.57415,-0.54038 -0.33774,0 -0.84434,0.28708 -0.84434,0.92877 0,0.72613 0.74302,1.09764 1.4016,1.09764 1.72244,0 2.43168,-3.09027 2.61744,-3.9346 0.30396,-1.30028 1.13141,-5.79214 1.21584,-6.29874 l 1.43537,0 z"
             id="use26469" />
          <path
             inkscape:connector-curvature="0"
             d="m 120.11324,218.2597 c 0.88936,0 1.45225,0.65296 1.45225,1.83503 0,1.40722 -0.7993,1.82376 -1.39596,1.82376 -0.61918,0 -1.46352,-0.22516 -1.85754,-0.82182 0.40528,0 0.68673,-0.25893 0.68673,-0.63044 0,-0.36025 -0.25893,-0.61918 -0.61918,-0.61918 -0.30396,0 -0.61918,0.19139 -0.61918,0.6417 0,1.06949 1.14829,1.76747 2.43168,1.76747 1.49729,0 2.54427,-1.03571 2.54427,-2.16149 0,-0.9344 -0.74302,-1.78999 -1.89131,-2.03767 0.88936,-0.31521 1.55357,-1.08074 1.55357,-1.98137 0,-0.90062 -1.0132,-1.54232 -2.18401,-1.54232 -1.20459,0 -2.11647,0.65296 -2.11647,1.50855 0,0.41654 0.28145,0.59666 0.57415,0.59666 0.34899,0 0.57415,-0.24767 0.57415,-0.57415 0,-0.41653 -0.36025,-0.57414 -0.60792,-0.5854 0.47282,-0.61918 1.33967,-0.65295 1.54232,-0.65295 0.2927,0 1.14829,0.0901 1.14829,1.24961 0,0.78805 -0.32648,1.26088 -0.48408,1.441 -0.33774,0.34899 -0.59667,0.37151 -1.28339,0.41654 -0.2139,0.0112 -0.30396,0.0225 -0.30396,0.16887 0,0.1576 0.10132,0.1576 0.2927,0.1576 l 0.56289,0 z"
             id="use26471" />
        </g>
        <g
           id="g27312"
           transform="matrix(1.25,0,0,1.2500001,-128.8311,-34.038416)">
          <path
             id="path27314"
             d="m 44.456838,86.95253 c 0,-0.391771 -0.324225,-0.661958 -0.64845,-0.661958 -0.391771,0 -0.661958,0.324224 -0.661958,0.648449 0,0.391772 0.324224,0.661959 0.648449,0.661959 0.391771,0 0.661959,-0.324225 0.661959,-0.64845 z"
             inkscape:connector-curvature="0" />
          <path
             id="path27316"
             d="m 50.38272,86.95253 c 0,-0.391771 -0.324224,-0.661958 -0.648449,-0.661958 -0.391772,0 -0.661959,0.324224 -0.661959,0.648449 0,0.391772 0.324225,0.661959 0.64845,0.661959 0.391771,0 0.661958,-0.324225 0.661958,-0.64845 z"
             inkscape:connector-curvature="0" />
          <path
             id="path27318"
             d="m 56.308594,86.95253 c 0,-0.391771 -0.324224,-0.661958 -0.648449,-0.661958 -0.391772,0 -0.661959,0.324224 -0.661959,0.648449 0,0.391772 0.324225,0.661959 0.64845,0.661959 0.391771,0 0.661958,-0.324225 0.661958,-0.64845 z"
             inkscape:connector-curvature="0" />
        </g>
      </g>
      <rect
         y="88.634171"
         x="-85.857132"
         height="23.214291"
         width="38.92857"
         id="rect27477"
         style="opacity:0.25;fill:#fb7f7f;fill-opacity:1;stroke:none;stroke-width:1;stroke-miterlimit:4;stroke-dasharray:none;stroke-dashoffset:0;stroke-opacity:1" />
    </g>
    <path
       id="path27479"
       d="m -27.629957,98.301219 c 0.23641,0 0.54037,0 0.54037,-0.30396 0,-0.32085 -0.28707,-0.32085 -0.54037,-0.32085 l -9.94627,0 c -0.23642,0 -0.54038,0 -0.54038,0.30396 0,0.32085 0.28708,0.32085 0.54038,0.32085 l 9.94627,0 z m 0,3.140931 c 0.23641,0 0.54037,0 0.54037,-0.30396 0,-0.32085 -0.28707,-0.32085 -0.54037,-0.32085 l -9.94627,0 c -0.23642,0 -0.54038,0 -0.54038,0.30396 0,0.32085 0.28708,0.32085 0.54038,0.32085 l 9.94627,0 z"
       inkscape:connector-curvature="0" />
  </g>
</svg>
