<?xml version="1.0" encoding="UTF-8" standalone="no"?>
<!-- Created with Inkscape (http://www.inkscape.org/) -->

<svg
   xmlns:dc="http://purl.org/dc/elements/1.1/"
   xmlns:cc="http://creativecommons.org/ns#"
   xmlns:rdf="http://www.w3.org/1999/02/22-rdf-syntax-ns#"
   xmlns:svg="http://www.w3.org/2000/svg"
   xmlns="http://www.w3.org/2000/svg"
   xmlns:sodipodi="http://sodipodi.sourceforge.net/DTD/sodipodi-0.dtd"
   xmlns:inkscape="http://www.inkscape.org/namespaces/inkscape"
   width="55.858585mm"
   height="27.311199mm"
   viewBox="0 0 197.92414 96.771965"
   id="svg7843"
   version="1.1"
   inkscape:version="0.91 r13725"
   sodipodi:docname="softmax.svg">
  <defs
     id="defs7845">
    <marker
       inkscape:stockid="Arrow1Mend"
       orient="auto"
       refY="0"
       refX="0"
       id="marker12256"
       style="overflow:visible"
       inkscape:isstock="true">
      <path
         id="path12258"
         d="M 0,0 5,-5 -12.5,0 5,5 0,0 Z"
         style="fill:#000000;fill-opacity:1;fill-rule:evenodd;stroke:#000000;stroke-width:1pt;stroke-opacity:1"
         transform="matrix(-0.4,0,0,-0.4,-4,0)"
         inkscape:connector-curvature="0" />
    </marker>
    <marker
       inkscape:isstock="true"
       style="overflow:visible"
       id="marker11632"
       refX="0"
       refY="0"
       orient="auto"
       inkscape:stockid="Arrow1Mend">
      <path
         transform="matrix(-0.4,0,0,-0.4,-4,0)"
         style="fill:#000000;fill-opacity:1;fill-rule:evenodd;stroke:#000000;stroke-width:1pt;stroke-opacity:1"
         d="M 0,0 5,-5 -12.5,0 5,5 0,0 Z"
         id="path11634"
         inkscape:connector-curvature="0" />
    </marker>
  </defs>
  <sodipodi:namedview
     id="base"
     pagecolor="#ffffff"
     bordercolor="#666666"
     borderopacity="1.0"
     inkscape:pageopacity="0.0"
     inkscape:pageshadow="2"
     inkscape:zoom="2.8"
     inkscape:cx="71.102117"
     inkscape:cy="-33.531866"
     inkscape:document-units="px"
     inkscape:current-layer="layer1"
     showgrid="false"
     inkscape:window-width="2495"
     inkscape:window-height="1416"
     inkscape:window-x="65"
     inkscape:window-y="24"
     inkscape:window-maximized="1"
     fit-margin-top="0"
     fit-margin-left="0"
     fit-margin-right="0"
     fit-margin-bottom="0" />
  <metadata
     id="metadata7848">
    <rdf:RDF>
      <cc:Work
         rdf:about="">
        <dc:format>image/svg+xml</dc:format>
        <dc:type
           rdf:resource="http://purl.org/dc/dcmitype/StillImage" />
        <dc:title></dc:title>
      </cc:Work>
    </rdf:RDF>
  </metadata>
  <g
     inkscape:label="Layer 1"
     inkscape:groupmode="layer"
     id="layer1"
     transform="translate(-44.500013,-20.790782)">
    <rect
       y="21.145144"
       x="44.854382"
       height="74.417473"
       width="22.076986"
       id="rect8686"
       style="fill:none;fill-opacity:1;stroke:#000000;stroke-width:0.70873785;stroke-miterlimit:4;stroke-dasharray:none;stroke-dashoffset:0;stroke-opacity:1" />
    <path
       inkscape:connector-curvature="0"
       d="m 55.701325,108.84858 1.95886,-2.24593 c 0.18575,-0.21953 0.33774,-0.35462 1.73933,-0.35462 l 0,-0.72613 c -0.94565,0.0338 -0.97943,0.0338 -1.55358,0.0338 -0.48971,0 -1.21584,0 -1.68866,-0.0338 l 0,0.72613 c 0.32084,0 0.67546,0.0844 0.67546,0.20264 0,0.0338 -0.0844,0.15198 -0.11825,0.18575 l -1.46915,1.6549 -1.67179,-2.04329 0.70925,0 0,-0.72613 c -0.3884,0.0338 -1.53669,0.0338 -1.99264,0.0338 -0.5066,0 -1.41847,0 -1.89131,-0.0338 l 0,0.72613 1.19896,0 2.63433,3.20847 -2.19528,2.48235 c -0.20263,0.23641 -0.32085,0.35462 -1.72243,0.35462 l 0,0.72613 c 1.0132,-0.0338 1.04697,-0.0338 1.57046,-0.0338 0.48971,0 1.19895,0 1.67179,0.0338 l 0,-0.72613 c -0.32085,0 -0.67548,-0.0844 -0.67548,-0.20264 0,-0.0169 0,-0.0338 0.11825,-0.16887 l 1.68866,-1.9082 1.87443,2.27971 -0.70924,0 0,0.72613 c 0.40528,-0.0338 1.53669,-0.0338 2.00951,-0.0338 0.50661,0 1.4016,0 1.87443,0.0338 l 0,-0.72613 -1.18206,0 -2.85387,-3.44489 z"
       id="path8726" />
    <g
       id="g11620"
       transform="translate(-177.2143,-153.92857)">
      <path
         id="path11607"
         d="m 234.72254,200.08596 c -0.54037,0.10132 -0.74301,0.5066 -0.74301,0.82744 0,0.40529 0.32084,0.54038 0.55725,0.54038 0.50661,0 0.86123,-0.43906 0.86123,-0.895 0,-0.70924 -0.81057,-1.03009 -1.5198,-1.03009 -1.03009,0 -1.60424,1.01321 -1.75622,1.33405 -0.3884,-1.2665 -1.43537,-1.33405 -1.73933,-1.33405 -1.72244,0 -2.63433,2.21216 -2.63433,2.58367 0,0.0675 0.0675,0.15198 0.18575,0.15198 0.1351,0 0.16888,-0.10132 0.20265,-0.16887 0.57415,-1.87442 1.70555,-2.22904 2.19526,-2.22904 0.75992,0 0.91189,0.70924 0.91189,1.11452 0,0.37151 -0.10137,0.7599 -0.30396,1.57046 l -0.57415,2.31348 c -0.2533,1.0132 -0.74301,1.94197 -1.63801,1.94197 -0.0844,0 -0.5066,0 -0.86122,-0.21952 0.60792,-0.11822 0.74302,-0.62481 0.74302,-0.82745 0,-0.33774 -0.2533,-0.54038 -0.57415,-0.54038 -0.40528,0 -0.84434,0.35462 -0.84434,0.895 0,0.70924 0.79367,1.03009 1.51981,1.03009 0.81055,0 1.3847,-0.6417 1.73933,-1.33405 0.27018,0.99631 1.11452,1.33405 1.73932,1.33405 1.72245,0 2.63433,-2.21216 2.63433,-2.58367 0,-0.0844 -0.0675,-0.15198 -0.16887,-0.15198 -0.15197,0 -0.16886,0.0844 -0.21952,0.21953 -0.45594,1.48603 -1.43538,2.17838 -2.19528,2.17838 -0.59103,0 -0.91187,-0.43905 -0.91187,-1.13141 0,-0.3715 0.0675,-0.64169 0.33772,-1.75621 l 0.59104,-2.29659 c 0.2533,-1.01321 0.82745,-1.75622 1.60424,-1.75622 0.0337,0 0.5066,0 0.86122,0.21953 z"
         inkscape:connector-curvature="0" />
      <path
         id="path11609"
         d="m 239.46912,202.48387 c 0,-0.24767 -0.18013,-0.42779 -0.43906,-0.42779 -0.2927,0 -0.61918,0.27018 -0.61918,0.60792 0,0.24767 0.18013,0.42779 0.43905,0.42779 0.2927,0 0.61919,-0.27018 0.61919,-0.60792 z m -1.64365,4.13161 -0.60791,1.55358 c -0.0563,0.16887 -0.11263,0.30396 -0.11263,0.49534 0,0.55164 0.42779,0.95692 1.02445,0.95692 1.09201,0 1.55358,-1.5761 1.55358,-1.72245 0,-0.11257 -0.09,-0.14635 -0.16887,-0.14635 -0.13508,0 -0.15761,0.0788 -0.19138,0.19138 -0.25893,0.90063 -0.72049,1.3622 -1.1708,1.3622 -0.1351,0 -0.27019,-0.0563 -0.27019,-0.36025 0,-0.27019 0.0788,-0.47283 0.22515,-0.82182 0.11262,-0.30396 0.22516,-0.60792 0.34899,-0.91188 l 0.349,-0.91188 c 0.10137,-0.25893 0.23641,-0.60793 0.23641,-0.79931 0,-0.56289 -0.45031,-0.95691 -1.02446,-0.95691 -1.092,0 -1.56484,1.57609 -1.56484,1.72244 0,0.10133 0.0789,0.14635 0.16887,0.14635 0.14635,0 0.1576,-0.0675 0.19138,-0.18012 0.31522,-1.06949 0.83307,-1.37345 1.17081,-1.37345 0.15761,0 0.27019,0.0563 0.27019,0.3715 0,0.11258 -0.0112,0.27019 -0.12388,0.60793 l -0.30396,0.77678 z"
         inkscape:connector-curvature="0" />
    </g>
    <g
       id="g53273"
       transform="translate(101.42858,-85.357143)">
      <path
         inkscape:connector-curvature="0"
         d="m 25.468715,195.30398 c 0.287074,0.0507 0.743015,0.15198 0.844335,0.16887 0.219527,0.0675 0.979429,0.33773 0.979429,1.14829 0,0.52349 -0.472828,1.89131 -2.431685,1.89131 -0.354621,0 -1.621124,-0.0507 -1.958854,-0.97943 0.67546,0.0844 1.0132,-0.43905 1.0132,-0.81056 0,-0.35462 -0.23641,-0.54037 -0.57415,-0.54037 -0.37151,0 -0.86122,0.28707 -0.86122,1.04697 0,0.99632 1.0132,1.62113 2.364137,1.62113 2.566779,0 3.32668,-1.89131 3.32668,-2.76942 0,-0.2533 0,-0.72613 -0.540374,-1.2665 -0.422168,-0.40528 -0.827449,-0.48972 -1.73933,-0.67547 -0.455941,-0.10133 -1.182069,-0.2533 -1.182069,-1.0132 0,-0.33774 0.30396,-1.55358 1.908197,-1.55358 0.709241,0 1.401596,0.27019 1.570463,0.87811 -0.743015,0 -0.776788,0.64169 -0.776788,0.65858 0,0.35462 0.320847,0.45594 0.472827,0.45594 0.236414,0 0.709242,-0.18575 0.709242,-0.89499 0,-0.70925 -0.641695,-1.43537 -1.958858,-1.43537 -2.212157,0 -2.803187,1.73933 -2.803187,2.43168 0,1.28339 1.249611,1.55358 1.638005,1.63801 z"
         id="use52465" />
      <path
         inkscape:connector-curvature="0"
         d="m 37.107449,194.03748 c 0,-1.60424 -1.046975,-2.80319 -2.583665,-2.80319 -2.229044,0 -4.424315,2.43168 -4.424315,4.81271 0,1.60423 1.046975,2.80319 2.583665,2.80319 2.245932,0 4.424315,-2.43169 4.424315,-4.81271 z m -4.407428,4.47497 c -0.844336,0 -1.469144,-0.67546 -1.469144,-1.85753 0,-0.77679 0.405281,-2.49924 0.878109,-3.34357 0.759902,-1.30028 1.705557,-1.73933 2.397912,-1.73933 0.827448,0 1.469143,0.67547 1.469143,1.85754 0,0.67546 -0.35462,2.48234 -0.996315,3.51243 -0.692355,1.13141 -1.621124,1.57046 -2.279705,1.57046 z"
         id="use52467" />
      <path
         inkscape:connector-curvature="0"
         d="m 44.887291,191.89287 c 0.337733,0 0.472827,0 0.472827,-0.32085 0,-0.16887 -0.135094,-0.16887 -0.439054,-0.16887 l -1.367822,0 c 0.320847,-1.73933 0.557261,-2.93828 0.692355,-3.47866 0.101325,-0.40528 0.45594,-0.79367 0.894995,-0.79367 0.35462,0 0.709241,0.15198 0.878107,0.30396 -0.658581,0.0675 -0.861221,0.55726 -0.861221,0.84433 0,0.33774 0.2533,0.54038 0.574148,0.54038 0.337733,0 0.844335,-0.28708 0.844335,-0.92877 0,-0.70924 -0.709242,-1.09764 -1.452257,-1.09764 -0.726127,0 -1.435368,0.54038 -1.773102,1.19896 -0.303961,0.59103 -0.472829,1.19895 -0.861223,3.41111 l -1.131408,0 c -0.320848,0 -0.489714,0 -0.489714,0.30396 0,0.18576 0.101325,0.18576 0.439054,0.18576 l 1.080748,0 c -0.30396,1.57046 -0.996315,5.38685 -1.38471,7.19373 -0.287073,1.46914 -0.540373,2.70187 -1.384708,2.70187 -0.05066,0 -0.540375,0 -0.844335,-0.32084 0.861221,-0.0675 0.861221,-0.81057 0.861221,-0.82745 0,-0.33774 -0.2533,-0.54038 -0.574148,-0.54038 -0.337733,0 -0.844335,0.28708 -0.844335,0.92877 0,0.72613 0.743015,1.09764 1.401597,1.09764 1.722443,0 2.431685,-3.09027 2.617438,-3.9346 0.30396,-1.30028 1.131409,-5.79214 1.215843,-6.29874 l 1.435369,0 z"
         id="use52469" />
      <path
         inkscape:connector-curvature="0"
         d="m 50.70321,191.89287 1.553577,0 c 0.320847,0 0.489715,0 0.489715,-0.30396 0,-0.18576 -0.101325,-0.18576 -0.439055,-0.18576 l -1.486029,0 0.624807,-2.46546 c 0.06755,-0.23641 0.06755,-0.27018 0.06755,-0.38839 0,-0.27019 -0.219526,-0.42217 -0.439053,-0.42217 -0.135094,0 -0.523488,0.0507 -0.658582,0.59104 l -0.658581,2.68498 -1.58735,0 c -0.337734,0 -0.489714,0 -0.489714,0.32085 0,0.16887 0.1182,0.16887 0.439054,0.16887 l 1.502916,0 -1.114522,4.45809 c -0.135094,0.59103 -0.185754,0.7599 -0.185754,0.97942 0,0.79368 0.557261,1.51981 1.502916,1.51981 1.705558,0 2.617439,-2.46546 2.617439,-2.58367 0,-0.10132 -0.06755,-0.15198 -0.168866,-0.15198 -0.03378,0 -0.101325,0 -0.135094,0.0676 -0.01689,0.0169 -0.03377,0.0338 -0.15198,0.30396 -0.354621,0.84434 -1.13141,2.02641 -2.110837,2.02641 -0.506602,0 -0.540375,-0.42217 -0.540375,-0.79368 0,-0.0169 0,-0.33773 0.05066,-0.54037 l 1.317163,-5.28554 z"
         id="use52471" />
      <path
         inkscape:connector-curvature="0"
         d="m 56.758505,193.73352 c 0.03377,-0.10133 0.455942,-0.94566 1.080749,-1.48603 0.439054,-0.40528 1.013201,-0.67547 1.671784,-0.67547 0.675467,0 0.911881,0.5066 0.911881,1.18207 0,0.10132 0,0.43905 -0.20264,1.23273 l -0.422167,1.73933 c -0.135094,0.5066 -0.455942,1.75621 -0.489715,1.94197 -0.06755,0.2533 -0.168867,0.69235 -0.168867,0.7599 0,0.23641 0.185754,0.42217 0.439054,0.42217 0.506601,0 0.591035,-0.3884 0.743015,-0.99632 l 1.013201,-4.03592 c 0.03377,-0.13509 0.911883,-2.24593 2.769419,-2.24593 0.67547,0 0.911884,0.5066 0.911884,1.18207 0,0.94565 -0.658583,2.7863 -1.03009,3.79951 -0.15198,0.40528 -0.236414,0.6248 -0.236414,0.92876 0,0.75991 0.523488,1.36783 1.33405,1.36783 1.570464,0 2.161497,-2.48235 2.161497,-2.58367 0,-0.0844 -0.06755,-0.15198 -0.168866,-0.15198 -0.15198,0 -0.168867,0.0507 -0.253301,0.33774 -0.388394,1.35093 -1.013201,2.06017 -1.68867,2.06017 -0.168866,0 -0.439054,-0.0169 -0.439054,-0.55726 0,-0.43905 0.20264,-0.97943 0.270188,-1.16518 0.30396,-0.81056 1.063861,-2.80319 1.063861,-3.78262 0,-1.0132 -0.591034,-1.7731 -1.874424,-1.7731 -1.13141,0 -2.043291,0.64169 -2.718758,1.63801 -0.05066,-0.91189 -0.607922,-1.63801 -1.874424,-1.63801 -1.502916,0 -2.296591,1.06386 -2.600553,1.48603 -0.05066,-0.96255 -0.743015,-1.48603 -1.48603,-1.48603 -0.489713,0 -0.878107,0.23641 -1.198955,0.8781 -0.303961,0.60793 -0.540375,1.63801 -0.540375,1.70556 0,0.0675 0.06755,0.15198 0.185754,0.15198 0.135094,0 0.151981,-0.0169 0.253301,-0.40528 0.2533,-0.99632 0.574148,-1.99263 1.249615,-1.99263 0.388395,0 0.523489,0.27019 0.523489,0.77679 0,0.37151 -0.168867,1.03009 -0.287075,1.55357 l -0.472827,1.82377 c -0.06755,0.32085 -0.2533,1.08075 -0.337734,1.38471 -0.1182,0.43905 -0.30396,1.23273 -0.30396,1.31716 0,0.23641 0.185754,0.42217 0.439054,0.42217 0.20264,0 0.439053,-0.10133 0.574147,-0.35462 0.03378,-0.0844 0.185754,-0.67547 0.270188,-1.01321 l 0.371507,-1.5198 0.557261,-2.22904 z"
         id="use52473" />
      <path
         inkscape:connector-curvature="0"
         d="m 72.825783,196.6718 c -0.08444,0.28708 -0.08444,0.32085 -0.320848,0.6417 -0.371507,0.47283 -1.114522,1.19895 -1.908197,1.19895 -0.692355,0 -1.080749,-0.6248 -1.080749,-1.62112 0,-0.92877 0.523487,-2.82008 0.844335,-3.52932 0.574147,-1.18207 1.367822,-1.78999 2.026404,-1.78999 1.114522,0 1.33405,1.38471 1.33405,1.5198 0,0.0169 -0.05066,0.23642 -0.06755,0.27019 l -0.827448,3.30979 z m 1.080748,-4.32299 c -0.185753,-0.43906 -0.641695,-1.11452 -1.519803,-1.11452 -1.908197,0 -3.968374,2.46545 -3.968374,4.96469 0,1.67178 0.979429,2.65121 2.127724,2.65121 0.928768,0 1.722443,-0.72613 2.195271,-1.28339 0.168867,0.99631 0.962541,1.28339 1.469142,1.28339 0.506602,0 0.911883,-0.30396 1.215843,-0.91188 0.270187,-0.57415 0.506601,-1.60424 0.506601,-1.67179 0,-0.0844 -0.06755,-0.15198 -0.168867,-0.15198 -0.15198,0 -0.168867,0.0844 -0.236414,0.33774 -0.2533,0.99631 -0.574148,2.06017 -1.266503,2.06017 -0.489713,0 -0.523487,-0.43905 -0.523487,-0.77678 0,-0.3884 0.05066,-0.57415 0.202641,-1.23273 0.1182,-0.42217 0.20264,-0.79368 0.337734,-1.28339 0.624807,-2.53301 0.776787,-3.14093 0.776787,-3.24225 0,-0.23641 -0.185753,-0.42217 -0.439053,-0.42217 -0.540375,0 -0.675468,0.59104 -0.709242,0.79368 z"
         id="use52475" />
      <path
         inkscape:connector-curvature="0"
         d="m 84.426945,191.79155 c -0.540374,0.10132 -0.743015,0.5066 -0.743015,0.82744 0,0.40529 0.320847,0.54038 0.557261,0.54038 0.506601,0 0.861223,-0.43905 0.861223,-0.895 0,-0.70924 -0.810563,-1.03008 -1.519804,-1.03008 -1.030089,0 -1.604236,1.0132 -1.756216,1.33404 -0.388394,-1.2665 -1.435371,-1.33404 -1.739331,-1.33404 -1.722444,0 -2.634325,2.21215 -2.634325,2.58366 0,0.0675 0.06755,0.15198 0.185753,0.15198 0.135093,0 0.168867,-0.10132 0.20264,-0.16887 0.574148,-1.87442 1.705557,-2.22904 2.195272,-2.22904 0.759901,0 0.911881,0.70924 0.911881,1.11452 0,0.37151 -0.101325,0.7599 -0.30396,1.57046 l -0.574149,2.31348 c -0.2533,1.0132 -0.743014,1.94197 -1.63801,1.94197 -0.08444,0 -0.5066,0 -0.861221,-0.21952 0.607921,-0.1182 0.743015,-0.62481 0.743015,-0.82745 0,-0.33774 -0.2533,-0.54038 -0.574148,-0.54038 -0.405281,0 -0.844335,0.35462 -0.844335,0.895 0,0.70924 0.793675,1.03009 1.519803,1.03009 0.810561,0 1.38471,-0.6417 1.73933,-1.33405 0.270187,0.99631 1.114523,1.33405 1.739331,1.33405 1.722444,0 2.634325,-2.21216 2.634325,-2.58367 0,-0.0844 -0.06755,-0.15198 -0.168866,-0.15198 -0.15198,0 -0.168868,0.0844 -0.219528,0.21953 -0.455941,1.48603 -1.435369,2.17838 -2.195271,2.17838 -0.591034,0 -0.911882,-0.43905 -0.911882,-1.13141 0,-0.3715 0.06755,-0.64169 0.337734,-1.75621 l 0.591035,-2.29659 c 0.2533,-1.01321 0.827448,-1.75622 1.604237,-1.75622 0.03377,0 0.506601,0 0.861221,0.21953 z"
         id="use52477" />
      <path
         inkscape:connector-curvature="0"
         d="m 91.30743,202.78479 c 0,-0.0507 0,-0.0844 -0.287075,-0.37151 -1.68867,-1.70556 -2.634325,-4.49186 -2.634325,-7.93675 0,-3.27602 0.793675,-6.0961 2.752532,-8.08873 0.168868,-0.15198 0.168868,-0.18575 0.168868,-0.23641 0,-0.10132 -0.08444,-0.13509 -0.151981,-0.13509 -0.219527,0 -1.604237,1.21584 -2.431685,2.87073 -0.861222,1.70556 -1.249615,3.51244 -1.249615,5.5895 0,1.50292 0.236413,3.51244 1.114522,5.31931 0.996315,2.02641 2.381024,3.12404 2.566778,3.12404 0.06755,0 0.151981,-0.0338 0.151981,-0.13509 z"
         id="use52479" />
      <path
         inkscape:connector-curvature="0"
         d="m 97.939681,194.51031 1.958859,-2.24594 c 0.18575,-0.21952 0.33773,-0.35462 1.73933,-0.35462 l 0,-0.72612 c -0.94566,0.0338 -0.97943,0.0338 -1.55358,0.0338 -0.489712,0 -1.215839,0 -1.688667,-0.0338 l 0,0.72612 c 0.320847,0 0.675468,0.0844 0.675468,0.20264 0,0.0338 -0.08444,0.15198 -0.118213,0.18576 l -1.469144,1.65489 -1.671783,-2.04329 0.709241,0 0,-0.72612 c -0.388395,0.0338 -1.53669,0.0338 -1.992631,0.0338 -0.506601,0 -1.418482,0 -1.89131,-0.0338 l 0,0.72612 1.198955,0 2.634326,3.20848 -2.195271,2.48234 c -0.202641,0.23642 -0.320847,0.35462 -1.722444,0.35462 l 0,0.72613 c 1.013203,-0.0338 1.046975,-0.0338 1.570464,-0.0338 0.489714,0 1.198955,0 1.671783,0.0338 l 0,-0.72613 c -0.320848,0 -0.675468,-0.0844 -0.675468,-0.20264 0,-0.0169 0,-0.0338 0.118213,-0.16887 l 1.68867,-1.90819 1.874424,2.2797 -0.709241,0 0,0.72613 c 0.405281,-0.0338 1.53669,-0.0338 2.009518,-0.0338 0.5066,0 1.4016,0 1.87443,0.0338 l 0,-0.72613 -1.18208,0 -2.853849,-3.44488 z"
         id="use52481" />
      <path
         inkscape:connector-curvature="0"
         d="m 107.0374,194.47653 c 0,-1.28339 -0.16887,-3.37734 -1.11453,-5.33619 -0.99631,-2.02641 -2.38102,-3.12404 -2.56678,-3.12404 -0.0675,0 -0.15198,0.0338 -0.15198,0.13509 0,0.0507 0,0.0844 0.28708,0.37151 1.68867,1.70555 2.63432,4.49186 2.63432,7.93675 0,3.27602 -0.79367,6.09609 -2.75253,8.08872 -0.16887,0.15198 -0.16887,0.18576 -0.16887,0.23642 0,0.10132 0.0844,0.13509 0.15198,0.13509 0.21953,0 1.60424,-1.21584 2.43169,-2.87074 0.86122,-1.72244 1.24962,-3.5462 1.24962,-5.57261 z"
         id="use52483" />
    </g>
    <g
       id="g53240"
       transform="translate(184.28573,-194.42857)">
      <path
         inkscape:connector-curvature="0"
         d="m 34.151686,234.29009 c 0,-0.3884 0,-0.40528 -0.33774,-0.40528 -0.40527,0.45594 -1.24961,1.08075 -2.98895,1.08075 l 0,0.48971 c 0.3884,0 1.23274,0 2.1615,-0.43905 l 0,8.79797 c 0,0.60792 -0.0506,0.81056 -1.53668,0.81056 l -0.52349,0 0,0.48971 c 0.45594,-0.0338 2.09395,-0.0338 2.65121,-0.0338 0.55726,0 2.17839,0 2.63433,0.0338 l 0,-0.48971 -0.52349,0 c -1.48603,0 -1.53669,-0.20264 -1.53669,-0.81056 l 0,-9.5241 z"
         id="use52487" />
      <rect
         height="0.67543983"
         width="49.430752"
         x="8.7076578"
         y="251.97905"
         id="rect52489" />
      <path
         inkscape:connector-curvature="0"
         d="m 15.816946,264.47422 -5.9947699,7.41327 c -0.1351,0.16886 -0.15198,0.20264 -0.15198,0.27018 0,0.18576 0.15198,0.18576 0.4559399,0.18576 l 13.99908,0 1.45225,-4.20479 -0.42217,0 c -0.42217,1.2665 -1.55357,2.29659 -2.98895,2.7863 -0.27018,0.0844 -1.43537,0.48972 -3.91771,0.48972 l -7.17685,0 5.85969,-7.2444 c 0.11821,-0.15198 0.15198,-0.20264 0.15198,-0.27018 0,-0.0675 -0.0169,-0.0844 -0.11822,-0.23642 l -5.48817,-7.53147 6.68713,0 c 1.92508,0 5.80902,0.11822 6.99109,3.27602 l 0.42216,0 -1.45225,-3.95148 -13.99907,0 c -0.4559399,0 -0.4728299,0.0169 -0.4728299,0.54037 l 6.1636499,8.47712 z"
         id="use52491" />
      <path
         inkscape:connector-curvature="0"
         d="m 29.818836,265.57214 c 0.0112,-0.0225 0.045,-0.16887 0.045,-0.18013 0,-0.0563 -0.045,-0.1576 -0.18012,-0.1576 -0.045,0 -0.39403,0.0338 -0.65297,0.0563 l -0.63042,0.045 c -0.24768,0.0225 -0.36025,0.0338 -0.36025,0.23641 0,0.15761 0.1576,0.15761 0.2927,0.15761 0.54037,0 0.54037,0.0675 0.54037,0.16887 0,0.0338 0,0.0563 -0.0562,0.25892 l -1.59861,6.40569 c -0.045,0.16887 -0.045,0.23642 -0.045,0.24767 0,0.19139 0.1576,0.349 0.3715,0.349 0.38276,0 0.47283,-0.36025 0.51786,-0.51786 0.11263,-0.47283 0.40528,-1.66616 0.52912,-2.13898 0.61917,0.0676 1.37345,0.28144 1.37345,0.92314 0,0.0563 0,0.11257 -0.0225,0.22515 -0.0338,0.14635 -0.0563,0.30396 -0.0563,0.36025 0,0.66421 0.49533,1.1483 1.1483,1.1483 0.47282,0 0.76552,-0.349 0.91187,-0.56289 0.27019,-0.41654 0.45031,-1.09201 0.45031,-1.15956 0,-0.11257 -0.0901,-0.14635 -0.16886,-0.14635 -0.1351,0 -0.15761,0.0675 -0.20265,0.27019 -0.14635,0.52912 -0.43905,1.28339 -0.96816,1.28339 -0.2927,0 -0.36025,-0.24767 -0.36025,-0.55163 0,-0.14636 0.0113,-0.28145 0.0675,-0.54038 0.0112,-0.045 0.0562,-0.22515 0.0562,-0.34899 0,-0.92314 -1.15956,-1.12578 -1.7337,-1.20458 0.41654,-0.24768 0.7993,-0.63044 0.93439,-0.77679 0.61918,-0.60792 1.12578,-1.02446 1.66616,-1.02446 0.14635,0 0.28144,0.0338 0.3715,0.14635 -0.60791,0.0788 -0.60791,0.60792 -0.60791,0.61918 0,0.24767 0.19137,0.41654 0.43905,0.41654 0.30396,0 0.6417,-0.24768 0.6417,-0.70925 0,-0.38276 -0.27019,-0.78804 -0.83309,-0.78804 -0.65295,0 -1.23835,0.49534 -1.88005,1.13704 -0.65295,0.64169 -0.9344,0.76553 -1.11453,0.84433 l 1.11453,-4.49186 z"
         id="use52493" />
      <path
         inkscape:connector-curvature="0"
         d="m 39.600446,264.20418 c 0.45594,0 1.60424,-0.0338 2.4148,-0.33774 1.28339,-0.48971 1.4016,-1.46914 1.4016,-1.7731 0,-0.74302 -0.6417,-1.41848 -1.75622,-1.41848 -1.7731,0 -4.32299,1.60423 -4.32299,4.61007 0,1.7731 1.0132,3.00583 2.54989,3.00583 2.29659,0 3.74885,-1.78999 3.74885,-2.00952 0,-0.10132 -0.10138,-0.18575 -0.16888,-0.18575 -0.0506,0 -0.0675,0.0169 -0.21952,0.16886 -1.08075,1.43537 -2.68499,1.68867 -3.32668,1.68867 -0.96255,0 -1.46915,-0.7599 -1.46915,-2.00951 0,-0.23642 0,-0.65858 0.2533,-1.73933 l 0.895,0 z m -0.81056,-0.33774 c 0.72613,-2.60055 2.33036,-2.85385 2.87074,-2.85385 0.74301,0 1.24961,0.43905 1.24961,1.08075 0,1.7731 -2.70186,1.7731 -3.41111,1.7731 l -0.70924,0 z"
         id="use52495" />
      <path
         inkscape:connector-curvature="0"
         d="m 49.881636,258.75175 c -0.49535,0.12383 -0.51786,0.56289 -0.51786,0.60792 0,0.24767 0.19139,0.41653 0.43905,0.41653 0.24767,0 0.63044,-0.19138 0.63044,-0.67546 0,-0.6417 -0.70924,-0.82182 -1.12578,-0.82182 -0.52911,0 -0.95691,0.3715 -1.21584,0.81056 -0.24767,-0.59666 -0.83308,-0.81056 -1.29465,-0.81056 -1.2271,0 -1.91382,1.40722 -1.91382,1.72244 0,0.10133 0.0788,0.14635 0.16886,0.14635 0.1351,0 0.15761,-0.0563 0.19139,-0.19138 0.25892,-0.82182 0.93439,-1.36219 1.5198,-1.36219 0.43905,0 0.65295,0.31521 0.65295,0.7205 0,0.22515 -0.13509,0.74301 -0.22515,1.10326 -0.0787,0.32648 -0.32648,1.32842 -0.38278,1.54232 -0.1576,0.60792 -0.56288,1.08075 -1.06948,1.08075 -0.045,0 -0.33774,0 -0.57415,-0.15761 0.51786,-0.12384 0.51786,-0.59667 0.51786,-0.60792 0,-0.25893 -0.20264,-0.41654 -0.45031,-0.41654 -0.30397,0 -0.63044,0.25893 -0.63044,0.68672 0,0.51786 0.55164,0.81057 1.12579,0.81057 0.59666,0 1.0132,-0.45032 1.21583,-0.81057 0.24768,0.55164 0.76553,0.81057 1.3059,0.81057 1.2271,0 1.90258,-1.40723 1.90258,-1.72245 0,-0.11257 -0.09,-0.14635 -0.16888,-0.14635 -0.13508,0 -0.1576,0.0788 -0.19137,0.19138 -0.22516,0.75428 -0.86685,1.3622 -1.5198,1.3622 -0.37151,0 -0.6417,-0.24767 -0.6417,-0.7205 0,-0.22516 0.0675,-0.48409 0.22515,-1.11452 0.0789,-0.33774 0.32649,-1.32842 0.38277,-1.54232 0.1576,-0.58541 0.55163,-1.06949 1.05823,-1.06949 0.0562,0 0.349,0 0.58541,0.15761 z"
         id="use52497" />
      <path
         inkscape:connector-curvature="0"
         d="m 53.778246,259.62295 c 0.009,-0.0338 0.0254,-0.0844 0.0254,-0.12665 0,-0.13509 -0.16886,-0.12665 -0.27019,-0.11821 l -0.94565,0.076 c -0.14354,0.009 -0.2533,0.0169 -0.2533,0.21953 0,0.12665 0.10975,0.12665 0.24485,0.12665 0.24486,0 0.30396,0.0253 0.41373,0.0591 0,0.10132 0,0.11821 -0.0337,0.2533 l -1.18207,4.71983 c -0.0337,0.13509 -0.0337,0.17731 -0.0337,0.1942 0,0.21108 0.16887,0.28707 0.29552,0.28707 0.0845,0 0.23641,-0.0338 0.34617,-0.1942 0.0591,-0.10976 0.39684,-1.51136 0.45595,-1.78154 0.5657,0.0422 1.17363,0.17731 1.17363,0.67547 0,0.0422 0,0.0844 -0.0254,0.17731 -0.0254,0.12665 -0.0254,0.17731 -0.0254,0.24485 0,0.55726 0.47282,0.87811 0.9541,0.87811 0.819,0 1.11452,-1.23273 1.11452,-1.30027 0,-0.0169 -0.009,-0.11822 -0.16042,-0.11822 -0.11825,0 -0.1351,0.0507 -0.17732,0.1942 -0.0845,0.30396 -0.32085,0.94566 -0.75146,0.94566 -0.32085,0 -0.32085,-0.36307 -0.32085,-0.45595 0,-0.13509 0,-0.14353 0.0422,-0.3124 0,-0.008 0.0422,-0.17731 0.0422,-0.27863 0,-0.65014 -0.73457,-0.85278 -1.38471,-0.91188 0.20265,-0.12665 0.37995,-0.26175 0.71769,-0.55726 0.42217,-0.37151 0.86122,-0.73457 1.32561,-0.73457 0.10975,0 0.21107,0.0253 0.28707,0.10976 -0.29552,0.0591 -0.42217,0.29552 -0.42217,0.47283 0,0.27018 0.21952,0.32929 0.33774,0.32929 0.18575,0 0.48971,-0.1351 0.48971,-0.55726 0,-0.36307 -0.27019,-0.63326 -0.68391,-0.63326 -0.53193,0 -1.03009,0.40528 -1.41849,0.74302 -0.43905,0.37995 -0.70079,0.59948 -1.0132,0.71768 l 0.8359,-3.34356 z"
         id="use52499" />
    </g>
    <g
       id="g53235"
       transform="translate(89.285721,-202.14286)">
      <path
         inkscape:connector-curvature="0"
         d="m 67.442396,252.62075 c 0.45594,0 1.60424,-0.0338 2.4148,-0.33774 1.28339,-0.48971 1.4016,-1.46914 1.4016,-1.7731 0,-0.74302 -0.6417,-1.41848 -1.75622,-1.41848 -1.7731,0 -4.32299,1.60423 -4.32299,4.61006 0,1.77311 1.0132,3.00584 2.54989,3.00584 2.29659,0 3.74885,-1.78999 3.74885,-2.00952 0,-0.10133 -0.10138,-0.18575 -0.16888,-0.18575 -0.0506,0 -0.0675,0.0169 -0.21952,0.16886 -1.08075,1.43537 -2.68499,1.68867 -3.32668,1.68867 -0.96253,0 -1.46915,-0.7599 -1.46915,-2.00951 0,-0.23642 0,-0.65859 0.25332,-1.73933 l 0.89498,0 z m -0.81056,-0.33774 c 0.72613,-2.60055 2.33036,-2.85385 2.87074,-2.85385 0.74302,0 1.24962,0.43905 1.24962,1.08075 0,1.7731 -2.70187,1.7731 -3.41111,1.7731 l -0.70925,0 z"
         id="use52503" />
      <path
         inkscape:connector-curvature="0"
         d="m 77.723586,245.07421 c -0.49535,0.12384 -0.51786,0.56289 -0.51786,0.60793 0,0.24767 0.19139,0.41653 0.43906,0.41653 0.24766,0 0.63043,-0.19138 0.63043,-0.67546 0,-0.6417 -0.70924,-0.82182 -1.12578,-0.82182 -0.52911,0 -0.95691,0.3715 -1.21584,0.81056 -0.24767,-0.59666 -0.83307,-0.81056 -1.29465,-0.81056 -1.2271,0 -1.91382,1.40722 -1.91382,1.72244 0,0.10132 0.0787,0.14635 0.16886,0.14635 0.1351,0 0.15761,-0.0563 0.19139,-0.19138 0.25892,-0.82182 0.9344,-1.36219 1.5198,-1.36219 0.43905,0 0.65295,0.31521 0.65295,0.72049 0,0.22516 -0.13509,0.74302 -0.22515,1.10327 -0.0789,0.32647 -0.32648,1.32842 -0.38276,1.54232 -0.15762,0.60792 -0.5629,1.08075 -1.0695,1.08075 -0.045,0 -0.33773,0 -0.57415,-0.15761 0.51786,-0.12384 0.51786,-0.59667 0.51786,-0.60792 0,-0.25893 -0.20264,-0.41654 -0.45031,-0.41654 -0.30397,0 -0.63044,0.25893 -0.63044,0.68672 0,0.51786 0.55164,0.81056 1.12579,0.81056 0.59666,0 1.0132,-0.45031 1.21583,-0.81056 0.24768,0.55164 0.76553,0.81056 1.3059,0.81056 1.2271,0 1.90258,-1.40722 1.90258,-1.72244 0,-0.11257 -0.09,-0.14635 -0.16886,-0.14635 -0.1351,0 -0.15762,0.0788 -0.19139,0.19138 -0.22516,0.75427 -0.86685,1.3622 -1.5198,1.3622 -0.37151,0 -0.6417,-0.24768 -0.6417,-0.7205 0,-0.22516 0.0675,-0.48409 0.22516,-1.11453 0.0787,-0.33773 0.32648,-1.32842 0.38276,-1.54231 0.15762,-0.58541 0.55163,-1.06949 1.05823,-1.06949 0.0562,0 0.349,0 0.58541,0.1576 z"
         id="use52505" />
      <path
         inkscape:connector-curvature="0"
         d="m 81.755286,246.01368 c 0,-0.20264 -0.15197,-0.33773 -0.34617,-0.33773 -0.22798,0 -0.47283,0.21953 -0.47283,0.46438 0,0.21109 0.15198,0.33774 0.33774,0.33774 0.27019,0 0.48126,-0.2533 0.48126,-0.46439 z m -0.5066,2.94673 c 0.0338,-0.0844 0.10975,-0.28707 0.14354,-0.36306 0.0254,-0.076 0.0591,-0.16042 0.0591,-0.30396 0,-0.47283 -0.42216,-0.73457 -0.84432,-0.73457 -0.86123,0 -1.27495,1.11452 -1.27495,1.30027 0,0.0422 0.0337,0.11822 0.15197,0.11822 0.11825,0 0.14354,-0.0507 0.16888,-0.12665 0.23641,-0.81901 0.68391,-1.01321 0.92032,-1.01321 0.16887,0 0.22797,0.10977 0.22797,0.30396 0,0.16887 -0.0506,0.29552 -0.0675,0.35463 l -0.43907,1.08074 c -0.10137,0.24486 -0.10137,0.26175 -0.21107,0.54882 -0.10975,0.2533 -0.15199,0.36307 -0.15199,0.5066 0,0.43061 0.3884,0.73457 0.85278,0.73457 0.85278,0 1.27495,-1.11452 1.27495,-1.30027 0,-0.0169 -0.009,-0.1182 -0.16043,-0.1182 -0.11825,0 -0.12665,0.0422 -0.17731,0.20264 -0.13509,0.43061 -0.48126,0.93721 -0.91188,0.93721 -0.15198,0 -0.22797,-0.10133 -0.22797,-0.30396 0,-0.16887 0.0506,-0.29552 0.16042,-0.55726 l 0.5066,-1.2665 z"
         id="use52507" />
    </g>
    <rect
       style="fill:none;fill-opacity:1;stroke:#000000;stroke-width:0.70873785;stroke-miterlimit:4;stroke-dasharray:none;stroke-dashoffset:0;stroke-opacity:1"
       id="rect53225"
       width="23.862682"
       height="74.417473"
       x="151.28297"
       y="21.145144" />
    <path
       style="fill:#000000;fill-opacity:1;stroke:none;stroke-width:1;stroke-miterlimit:4;stroke-dasharray:none;stroke-dashoffset:0;stroke-opacity:1"
       id="path53285"
       sodipodi:type="arc"
       sodipodi:cx="184.05525"
       sodipodi:cy="58.558071"
       sodipodi:rx="2.3214285"
       sodipodi:ry="2.3214285"
       sodipodi:start="0.012217305"
       sodipodi:end="0"
       sodipodi:open="true"
       d="m 186.37651,58.586432 a 2.3214285,2.3214285 0 0 1 -2.34253,2.29297 2.3214285,2.3214285 0 0 1 -2.30011,-2.335512 2.3214285,2.3214285 0 0 1 2.32847,-2.307237 2.3214285,2.3214285 0 0 1 2.31434,2.321418" />
  </g>
</svg>
