<?xml version="1.0" encoding="UTF-8" standalone="no"?>
<!-- Created with Inkscape (http://www.inkscape.org/) -->

<svg
   xmlns:dc="http://purl.org/dc/elements/1.1/"
   xmlns:cc="http://creativecommons.org/ns#"
   xmlns:rdf="http://www.w3.org/1999/02/22-rdf-syntax-ns#"
   xmlns:svg="http://www.w3.org/2000/svg"
   xmlns="http://www.w3.org/2000/svg"
   xmlns:sodipodi="http://sodipodi.sourceforge.net/DTD/sodipodi-0.dtd"
   xmlns:inkscape="http://www.inkscape.org/namespaces/inkscape"
   width="907.12952"
   height="82.545677"
   id="svg2"
   version="1.1"
   inkscape:version="0.91 r13725"
   sodipodi:docname="textcontext.svg">
  <defs
     id="defs4" />
  <sodipodi:namedview
     id="base"
     pagecolor="#ffffff"
     bordercolor="#666666"
     borderopacity="1.0"
     inkscape:pageopacity="0.0"
     inkscape:pageshadow="2"
     inkscape:zoom="1.4"
     inkscape:cx="281.1743"
     inkscape:cy="-62.348439"
     inkscape:document-units="px"
     inkscape:current-layer="layer1"
     showgrid="false"
     fit-margin-top="0"
     fit-margin-left="0"
     fit-margin-right="0"
     fit-margin-bottom="0"
     inkscape:window-width="2495"
     inkscape:window-height="1416"
     inkscape:window-x="65"
     inkscape:window-y="24"
     inkscape:window-maximized="1" />
  <metadata
     id="metadata7">
    <rdf:RDF>
      <cc:Work
         rdf:about="">
        <dc:format>image/svg+xml</dc:format>
        <dc:type
           rdf:resource="http://purl.org/dc/dcmitype/StillImage" />
        <dc:title></dc:title>
      </cc:Work>
    </rdf:RDF>
  </metadata>
  <g
     inkscape:label="Layer 1"
     inkscape:groupmode="layer"
     id="layer1"
     transform="translate(212.12946,-34.830128)">
    <rect
       style="opacity:0.98000004;fill:#ffffff;fill-opacity:1;stroke:none"
       id="rect3949"
       width="906.72174"
       height="81.450432"
       x="-211.72171"
       y="34.936657" />
    <rect
       style="opacity:0.98000004;fill:#ffcece;fill-opacity:1;stroke:none"
       id="rect3923"
       width="105.99365"
       height="47.336967"
       x="-141.64995"
       y="34.830128" />
    <path
       style="opacity:0.98000004;fill:#ceceff;fill-opacity:1;stroke:none"
       d="m -212.12946,34.900679 0,81.982861 c 160.206968,0.65628 320.41655,0.46691 480.62453,0.46691 l 0,-81.94041 -304.215849,0 0,44.017277 -105.607511,0 0,-44.526638 z"
       id="rect3919"
       inkscape:connector-curvature="0"
       sodipodi:nodetypes="ccccccccc" />
    <path
       inkscape:connector-curvature="0"
       id="path3002"
       style="font-size:23.29935455px;font-style:normal;font-weight:normal;line-height:125%;letter-spacing:0px;word-spacing:0px;fill:#0000ff;fill-opacity:1;stroke:none;font-family:Sans"
       d="m -204.21222,46.865461 19.51694,0 0,2.626982 -8.19,0 0,20.444109 -3.13693,0 0,-20.444109 -8.19001,0 0,-2.626982" />
    <path
       inkscape:connector-curvature="0"
       id="path3004"
       style="font-size:23.29935455px;font-style:normal;font-weight:normal;line-height:125%;letter-spacing:0px;word-spacing:0px;fill:#0000ff;fill-opacity:1;stroke:none;font-family:Sans"
       d="m -167.40355,59.490432 0,10.44612 -2.84332,0 0,-10.353403 c -2e-5,-1.63799 -0.31938,-2.863914 -0.95808,-3.677777 -0.63873,-0.813835 -1.5968,-1.220759 -2.87423,-1.220775 -1.53499,1.6e-5 -2.74546,0.489355 -3.63142,1.468021 -0.88596,0.978693 -1.32895,2.312786 -1.32894,4.002285 l 0,9.781649 -2.85878,0 0,-24.044621 2.85878,0 0,9.426234 c 0.67992,-1.040477 1.47831,-1.818268 2.39519,-2.33338 0.92716,-0.515077 1.99341,-0.772625 3.19874,-0.772642 1.98825,1.7e-5 3.49233,0.61813 4.51223,1.854341 1.01987,1.22594 1.52981,3.033921 1.52983,5.423948" />
    <path
       inkscape:connector-curvature="0"
       id="path3006"
       style="font-size:23.29935455px;font-style:normal;font-weight:normal;line-height:125%;letter-spacing:0px;word-spacing:0px;fill:#0000ff;fill-opacity:1;stroke:none;font-family:Sans"
       d="m -146.89763,60.57213 0,1.390756 -13.0731,0 c 0.12362,1.957366 0.71082,3.451139 1.76162,4.481324 1.06109,1.01989 2.53426,1.529834 4.41951,1.529831 1.09199,3e-6 2.14793,-0.133928 3.16784,-0.401774 1.03017,-0.267847 2.05006,-0.66962 3.05966,-1.205321 l 0,2.688794 c -1.01991,0.43268 -2.06555,0.76234 -3.13693,0.988982 -1.07141,0.226642 -2.15826,0.339962 -3.26055,0.339963 -2.76091,-1e-6 -4.95006,-0.803548 -6.56746,-2.410644 -1.60709,-1.607092 -2.41064,-3.78079 -2.41064,-6.521099 0,-2.83301 0.76234,-5.07882 2.28702,-6.737438 1.53498,-1.668891 3.60051,-2.503344 6.19659,-2.503361 2.32822,1.7e-5 4.1671,0.752056 5.51666,2.256114 1.35984,1.493789 2.03976,3.528412 2.03978,6.103873 m -2.84332,-0.834453 c -0.0206,-1.555575 -0.45845,-2.796952 -1.31349,-3.724135 -0.84477,-0.927155 -1.96768,-1.39074 -3.36872,-1.390755 -1.5865,1.5e-5 -2.85879,0.448146 -3.81686,1.344396 -0.94778,0.896278 -1.49377,2.158259 -1.638,3.785947 l 10.13707,-0.01546" />
    <path
       inkscape:connector-curvature="0"
       id="path3008"
       style="font-size:23.29935455px;font-style:normal;font-weight:normal;line-height:125%;letter-spacing:0px;word-spacing:0px;fill:#ff0000;fill-opacity:1;stroke:none;font-family:Sans"
       d="m -119.70063,53.293842 0,2.657889 c -0.80356,-0.442967 -1.61226,-0.772627 -2.42609,-0.988982 -0.80356,-0.226626 -1.61741,-0.339947 -2.44155,-0.339962 -1.84405,1.5e-5 -3.27601,0.587222 -4.29589,1.761624 -1.0199,1.164126 -1.52984,2.802125 -1.52983,4.914002 -1e-5,2.111895 0.50993,3.755046 1.52983,4.929457 1.01988,1.164117 2.45184,1.746174 4.29589,1.746171 0.82414,3e-6 1.63799,-0.108161 2.44155,-0.324509 0.81383,-0.22664 1.62253,-0.56145 2.42609,-1.004435 l 0,2.626983 c -0.79326,0.370868 -1.61741,0.649019 -2.47245,0.834453 -0.84477,0.185435 -1.74618,0.278151 -2.70425,0.278152 -2.60639,-1e-6 -4.67707,-0.819001 -6.21204,-2.457003 -1.53499,-1.637997 -2.30248,-3.84775 -2.30248,-6.629269 0,-2.822707 0.77264,-5.042763 2.31793,-6.660173 1.55558,-1.617381 3.68292,-2.42608 6.38202,-2.426097 0.87565,1.7e-5 1.73071,0.09273 2.56518,0.278152 0.83444,0.175149 1.64313,0.442998 2.42609,0.803547" />
    <path
       inkscape:connector-curvature="0"
       id="path3010"
       style="font-size:23.29935455px;font-style:normal;font-weight:normal;line-height:125%;letter-spacing:0px;word-spacing:0px;fill:#ff0000;fill-opacity:1;stroke:none;font-family:Sans"
       d="m -106.85931,61.236603 c -2.29735,8e-6 -3.88898,0.262706 -4.77493,0.788094 -0.88598,0.525405 -1.32896,1.421668 -1.32894,2.688794 -2e-5,1.00959 0.32964,1.813138 0.98897,2.410644 0.66961,0.58721 1.57618,0.880814 2.7197,0.880811 1.57618,3e-6 2.83816,-0.556299 3.78595,-1.668907 0.95806,-1.1229 1.4371,-2.611523 1.43711,-4.46587 l 0,-0.633566 -2.82786,0 m 5.67118,-1.174417 0,9.874366 -2.84332,0 0,-2.626983 c -0.64904,1.050795 -1.45772,1.828587 -2.42609,2.333379 -0.96839,0.49449 -2.15311,0.741736 -3.55416,0.741737 -1.77193,-1e-6 -3.18329,-0.494492 -4.23408,-1.483474 -1.04049,-0.999281 -1.56073,-2.333376 -1.56073,-4.002285 0,-1.947051 0.64901,-3.41507 1.94706,-4.40406 1.30833,-0.988972 3.25538,-1.483462 5.84117,-1.483473 l 3.98683,0 0,-0.27815 c -10e-6,-1.308329 -0.43269,-2.317913 -1.29803,-3.028757 -0.85507,-0.721118 -2.0604,-1.081684 -3.61597,-1.081699 -0.98899,1.5e-5 -1.95221,0.118484 -2.88968,0.355415 -0.93749,0.236958 -1.83889,0.592374 -2.70425,1.066246 l 0,-2.626983 c 1.04049,-0.401757 2.05008,-0.700512 3.02876,-0.896265 0.97868,-0.20602 1.93159,-0.30904 2.85878,-0.309057 2.50333,1.7e-5 4.37314,0.649037 5.60938,1.947059 1.23621,1.298052 1.85432,3.265712 1.85433,5.902984" />
    <path
       inkscape:connector-curvature="0"
       id="path3012"
       style="font-size:23.29935455px;font-style:normal;font-weight:normal;line-height:125%;letter-spacing:0px;word-spacing:0px;fill:#ff0000;fill-opacity:1;stroke:none;font-family:Sans"
       d="m -85.287144,55.287258 c -0.319376,-0.185418 -0.66964,-0.319343 -1.050805,-0.401773 -0.370869,-0.0927 -0.782949,-0.139061 -1.236226,-0.139076 -1.607095,1.5e-5 -2.843321,0.525411 -3.708677,1.57619 -0.855061,1.040503 -1.282585,2.539428 -1.282585,4.496777 l 0,9.117176 -2.858778,0 0,-17.307182 2.858778,0 0,2.688795 c 0.597501,-1.050778 1.375302,-1.828571 2.333376,-2.33338 0.958074,-0.515077 2.122188,-0.772625 3.492342,-0.772642 0.19573,1.7e-5 0.412066,0.01547 0.649021,0.04636 0.236927,0.02062 0.499635,0.05668 0.788097,0.108175 l 0.01548,2.920586" />
    <path
       inkscape:connector-curvature="0"
       id="path3014"
       style="font-size:23.29935455px;font-style:normal;font-weight:normal;line-height:125%;letter-spacing:0px;word-spacing:0px;fill:#ff0000;fill-opacity:1;stroke:none;font-family:Sans"
       d="m -72.801253,55.287258 c -0.319376,-0.185418 -0.66964,-0.319343 -1.050791,-0.401773 -0.370883,-0.0927 -0.782963,-0.139061 -1.236226,-0.139076 -1.607109,1.5e-5 -2.843335,0.525411 -3.708691,1.57619 -0.855061,1.040503 -1.282585,2.539428 -1.282585,4.496777 l 0,9.117176 -2.858778,0 0,-17.307182 2.858778,0 0,2.688795 c 0.597501,-1.050778 1.375302,-1.828571 2.333376,-2.33338 0.958074,-0.515077 2.122188,-0.772625 3.492342,-0.772642 0.19573,1.7e-5 0.412066,0.01547 0.649021,0.04636 0.236941,0.02062 0.499635,0.05668 0.788097,0.108175 l 0.01548,2.920586" />
    <path
       inkscape:connector-curvature="0"
       id="path3016"
       style="font-size:23.29935455px;font-style:normal;font-weight:normal;line-height:125%;letter-spacing:0px;word-spacing:0px;fill:#ff0000;fill-opacity:1;stroke:none;font-family:Sans"
       d="m -63.761345,54.622787 c -1.524687,1.5e-5 -2.730012,0.597523 -3.615961,1.792529 -0.885975,1.18473 -1.328956,2.812428 -1.328943,4.883097 -1.3e-5,2.070688 0.43782,3.703537 1.313486,4.898552 0.885962,1.184719 2.096435,1.777079 3.631418,1.777076 1.514364,3e-6 2.714541,-0.597508 3.600516,-1.79253 0.885949,-1.195015 1.32893,-2.822712 1.328943,-4.883098 -1.3e-5,-2.050065 -0.442994,-3.672612 -1.328943,-4.867644 -0.885975,-1.205307 -2.086152,-1.807967 -3.600516,-1.807982 m 0,-2.410644 c 2.472438,1.7e-5 4.414353,0.803565 5.825717,2.410644 1.411351,1.607108 2.117027,3.832316 2.11704,6.675626 -1.3e-5,2.833028 -0.705689,5.058234 -2.11704,6.675628 -1.411364,1.607096 -3.353279,2.410643 -5.825717,2.410644 -2.482762,-1e-6 -4.429824,-0.803548 -5.841175,-2.410644 -1.401056,-1.617394 -2.101583,-3.8426 -2.101583,-6.675628 0,-2.84331 0.700527,-5.068518 2.101583,-6.675626 1.411351,-1.607079 3.358413,-2.410627 5.841175,-2.410644" />
    <path
       inkscape:connector-curvature="0"
       id="path3018"
       style="font-size:23.29935455px;font-style:normal;font-weight:normal;line-height:125%;letter-spacing:0px;word-spacing:0px;fill:#ff0000;fill-opacity:1;stroke:none;font-family:Sans"
       d="m -48.308501,47.715367 0,4.914003 5.856632,0 0,2.209756 -5.856632,0 0,9.395328 c 0,1.411363 0.190582,2.317929 0.571761,2.7197 0.391461,0.401775 1.179558,0.602663 2.364277,0.602661 l 2.920594,0 0,2.379737 -2.920594,0 c -2.1943,0 -3.708678,-0.406924 -4.543133,-1.220774 -0.834456,-0.82415 -1.251684,-2.317923 -1.251684,-4.481324 l 0,-9.395328 -2.086125,0 0,-2.209756 2.086125,0 0,-4.914003 2.858779,0" />
    <path
       inkscape:connector-curvature="0"
       id="path3020"
       style="font-size:23.29935455px;font-style:normal;font-weight:normal;line-height:125%;letter-spacing:0px;word-spacing:0px;fill:#0000ff;fill-opacity:1;stroke:none;font-family:Sans"
       d="m -28.621577,52.62937 2.843321,0 0,17.307182 -2.843321,0 0,-17.307182 m 0,-6.737439 2.843321,0 0,3.600512 -2.843321,0 0,-3.600512" />
    <path
       inkscape:connector-curvature="0"
       id="path3022"
       style="font-size:23.29935455px;font-style:normal;font-weight:normal;line-height:125%;letter-spacing:0px;word-spacing:0px;fill:#0000ff;fill-opacity:1;stroke:none;font-family:Sans"
       d="m -8.8110348,53.139314 0,2.688795 c -0.8035679,-0.412063 -1.6380232,-0.721118 -2.5033662,-0.927172 -0.865371,-0.206022 -1.761629,-0.309041 -2.688788,-0.309056 -1.411378,1.5e-5 -2.472465,0.216355 -3.183289,0.649019 -0.700541,0.432694 -1.050805,1.081712 -1.050791,1.947058 -1.4e-5,0.659333 0.252385,1.179578 0.757182,1.560737 0.504797,0.370878 1.519526,0.726294 3.044213,1.066246 l 0.973531,0.21634 c 2.019162,0.432689 3.451118,1.045651 4.2958829,1.838888 0.8550473,0.782951 1.282571,1.880101 1.2825981,3.291455 -2.71e-5,1.607099 -0.6387386,2.879381 -1.9161616,3.816852 -1.2671404,0.937472 -3.0133114,1.406208 -5.2385124,1.406209 -0.927173,-1e-6 -1.895557,-0.09272 -2.905137,-0.278152 -0.999285,-0.175132 -2.055224,-0.442981 -3.167832,-0.803547 l 0,-2.93604 c 1.050792,0.546002 2.086139,0.958078 3.106029,1.236227 1.019877,0.267851 2.029457,0.401776 3.028756,0.401773 1.339239,3e-6 2.369425,-0.226638 3.090571,-0.679925 0.721119,-0.463582 1.081679,-1.1126 1.081693,-1.947057 -1.4e-5,-0.772637 -0.262708,-1.364995 -0.788097,-1.777076 -0.515107,-0.412071 -1.653467,-0.808693 -3.415069,-1.18987 l -0.988988,-0.231792 c -1.761629,-0.37086 -3.033917,-0.937463 -3.816853,-1.699812 -0.782949,-0.772633 -1.174423,-1.828576 -1.17441,-3.167833 -1.3e-5,-1.627685 0.576896,-2.884515 1.730714,-3.770494 1.153804,-0.885946 2.791801,-1.328927 4.914002,-1.328944 1.050792,1.7e-5 2.039767,0.07729 2.966953,0.231793 0.927146,0.154545 1.7822067,0.386337 2.5651692,0.695378" />
    <path
       inkscape:connector-curvature="0"
       id="path3024"
       style="font-size:23.29935455px;font-style:normal;font-weight:normal;line-height:125%;letter-spacing:0px;word-spacing:0px;fill:#0000ff;fill-opacity:1;stroke:none;font-family:Sans"
       d="m 14.600011,61.236603 c -2.297341,8e-6 -3.888978,0.262706 -4.7749266,0.788094 -0.8859757,0.525405 -1.3289568,1.421668 -1.3289568,2.688794 0,1.00959 0.3296584,1.813138 0.9889889,2.410644 0.6696125,0.58721 1.5761805,0.880814 2.7197025,0.880811 1.57618,3e-6 2.838159,-0.556299 3.785937,-1.668907 0.958074,-1.1229 1.437105,-2.611523 1.437118,-4.46587 l 0,-0.633566 -2.827863,0 m 5.671184,-1.174417 0,9.874366 -2.843321,0 0,-2.626983 c -0.649034,1.050795 -1.457723,1.828587 -2.426093,2.333379 -0.968383,0.49449 -2.153103,0.741736 -3.554158,0.741737 -1.771924,-1e-6 -3.1832886,-0.494492 -4.2340799,-1.483474 -1.0404955,-0.999281 -1.5607364,-2.333376 -1.5607364,-4.002285 0,-1.947051 0.649021,-3.41507 1.9470629,-4.40406 1.3083378,-0.988972 3.2553874,-1.483462 5.8411754,-1.483473 l 3.986829,0 0,-0.27815 c -1.3e-5,-1.308329 -0.432685,-2.317913 -1.298042,-3.028757 -0.855061,-0.721118 -2.060385,-1.081684 -3.61596,-1.081699 -0.988989,1.5e-5 -1.952211,0.118484 -2.8896796,0.355415 -0.9374823,0.236958 -1.8388882,0.592374 -2.704245,1.066246 l 0,-2.626983 c 1.0404819,-0.401757 2.0500625,-0.700512 3.0287555,-0.896265 0.9786661,-0.20602 1.9315921,-0.30904 2.8587781,-0.309057 2.50334,1.7e-5 4.373129,0.649037 5.609382,1.947059 1.236212,1.298052 1.854319,3.265712 1.854332,5.902984" />
    <path
       inkscape:connector-curvature="0"
       id="path3026"
       style="font-size:23.29935455px;font-style:normal;font-weight:normal;line-height:125%;letter-spacing:0px;word-spacing:0px;fill:#0000ff;fill-opacity:1;stroke:none;font-family:Sans"
       d="m 46.247437,55.287258 c -0.319376,-0.185418 -0.66964,-0.319343 -1.050791,-0.401773 -0.370883,-0.0927 -0.782963,-0.139061 -1.236226,-0.139076 -1.607109,1.5e-5 -2.843335,0.525411 -3.708692,1.57619 -0.85506,1.040503 -1.282584,2.539428 -1.282584,4.496777 l 0,9.117176 -2.858765,0 0,-17.307182 2.858765,0 0,2.688795 c 0.597514,-1.050778 1.375302,-1.828571 2.333389,-2.33338 0.958061,-0.515077 2.122175,-0.772625 3.492342,-0.772642 0.195717,1.7e-5 0.412053,0.01547 0.649008,0.04636 0.236941,0.02062 0.499635,0.05668 0.788096,0.108175 l 0.01548,2.920586" />
    <path
       inkscape:connector-curvature="0"
       id="path3028"
       style="font-size:23.29935455px;font-style:normal;font-weight:normal;line-height:125%;letter-spacing:0px;word-spacing:0px;fill:#0000ff;fill-opacity:1;stroke:none;font-family:Sans"
       d="m 55.287345,54.622787 c -1.524688,1.5e-5 -2.730012,0.597523 -3.615974,1.792529 -0.885962,1.18473 -1.328944,2.812428 -1.328944,4.883097 0,2.070688 0.437834,3.703537 1.3135,4.898552 0.885948,1.184719 2.096421,1.777079 3.631418,1.777076 1.514364,3e-6 2.714527,-0.597508 3.600503,-1.79253 0.885948,-1.195015 1.328929,-2.822712 1.328943,-4.883098 -1.4e-5,-2.050065 -0.442995,-3.672612 -1.328943,-4.867644 -0.885976,-1.205307 -2.086139,-1.807967 -3.600503,-1.807982 m 0,-2.410644 c 2.472438,1.7e-5 4.414339,0.803565 5.825717,2.410644 1.411338,1.607108 2.117027,3.832316 2.11704,6.675626 -1.3e-5,2.833028 -0.705702,5.058234 -2.11704,6.675628 -1.411378,1.607096 -3.353279,2.410643 -5.825717,2.410644 -2.482775,-1e-6 -4.429825,-0.803548 -5.841176,-2.410644 -1.401068,-1.617394 -2.101596,-3.8426 -2.101596,-6.675628 0,-2.84331 0.700528,-5.068518 2.101596,-6.675626 1.411351,-1.607079 3.358401,-2.410627 5.841176,-2.410644" />
    <path
       inkscape:connector-curvature="0"
       id="path3030"
       style="font-size:23.29935455px;font-style:normal;font-weight:normal;line-height:125%;letter-spacing:0px;word-spacing:0px;fill:#0000ff;fill-opacity:1;stroke:none;font-family:Sans"
       d="m 74.634314,54.622787 c -1.524687,1.5e-5 -2.730012,0.597523 -3.615974,1.792529 -0.885962,1.18473 -1.328943,2.812428 -1.328943,4.883097 0,2.070688 0.437833,3.703537 1.3135,4.898552 0.885948,1.184719 2.096421,1.777079 3.631417,1.777076 1.514364,3e-6 2.714528,-0.597508 3.600503,-1.79253 0.885949,-1.195015 1.32893,-2.822712 1.328943,-4.883098 -1.3e-5,-2.050065 -0.442994,-3.672612 -1.328943,-4.867644 -0.885975,-1.205307 -2.086139,-1.807967 -3.600503,-1.807982 m 0,-2.410644 c 2.472438,1.7e-5 4.41434,0.803565 5.825718,2.410644 1.411337,1.607108 2.117026,3.832316 2.11704,6.675626 -1.4e-5,2.833028 -0.705703,5.058234 -2.11704,6.675628 -1.411378,1.607096 -3.35328,2.410643 -5.825718,2.410644 -2.482761,-1e-6 -4.429824,-0.803548 -5.841175,-2.410644 -1.401068,-1.617394 -2.101596,-3.8426 -2.101596,-6.675628 0,-2.84331 0.700528,-5.068518 2.101596,-6.675626 1.411351,-1.607079 3.358414,-2.410627 5.841175,-2.410644" />
    <path
       inkscape:connector-curvature="0"
       id="path3032"
       style="font-size:23.29935455px;font-style:normal;font-weight:normal;line-height:125%;letter-spacing:0px;word-spacing:0px;fill:#0000ff;fill-opacity:1;stroke:none;font-family:Sans"
       d="m 90.087145,47.715367 0,4.914003 5.856632,0 0,2.209756 -5.856632,0 0,9.395328 c 0,1.411363 0.190582,2.317929 0.571761,2.7197 0.391461,0.401775 1.179558,0.602663 2.364277,0.602661 l 2.920594,0 0,2.379737 -2.920594,0 c -2.194314,0 -3.708691,-0.406924 -4.543133,-1.220774 -0.834456,-0.82415 -1.251684,-2.317923 -1.251684,-4.481324 l 0,-9.395328 -2.086125,0 0,-2.209756 2.086125,0 0,-4.914003 2.858779,0" />
    <path
       inkscape:connector-curvature="0"
       id="path3034"
       style="font-size:23.29935455px;font-style:normal;font-weight:normal;line-height:125%;letter-spacing:0px;word-spacing:0px;fill:#0000ff;fill-opacity:1;stroke:none;font-family:Sans"
       d="m 107.73427,52.62937 3.01332,0 5.40849,14.52567 5.40849,-14.52567 3.01331,0 -6.4902,17.307182 -3.86321,0 -6.4902,-17.307182" />
    <path
       inkscape:connector-curvature="0"
       id="path3036"
       style="font-size:23.29935455px;font-style:normal;font-weight:normal;line-height:125%;letter-spacing:0px;word-spacing:0px;fill:#0000ff;fill-opacity:1;stroke:none;font-family:Sans"
       d="m 143.30674,60.57213 0,1.390756 -13.07311,0 c 0.12361,1.957366 0.71083,3.451139 1.76163,4.481324 1.06109,1.01989 2.53425,1.529834 4.4195,1.529831 1.092,3e-6 2.14794,-0.133928 3.16785,-0.401774 1.03017,-0.267847 2.05005,-0.66962 3.05965,-1.205321 l 0,2.688794 c -1.0199,0.43268 -2.06554,0.76234 -3.13693,0.988982 -1.07141,0.226642 -2.15825,0.339962 -3.26055,0.339963 -2.76091,-1e-6 -4.95006,-0.803548 -6.56745,-2.410644 -1.6071,-1.607092 -2.41065,-3.78079 -2.41064,-6.521099 -1e-5,-2.83301 0.76233,-5.07882 2.28702,-6.737438 1.53497,-1.668891 3.6005,-2.503344 6.19659,-2.503361 2.32821,1.7e-5 4.1671,0.752056 5.51666,2.256114 1.35983,1.493789 2.03975,3.528412 2.03978,6.103873 m -2.84333,-0.834453 c -0.0207,-1.555575 -0.45844,-2.796952 -1.31349,-3.724135 -0.84476,-0.927155 -1.96767,-1.39074 -3.36872,-1.390755 -1.58651,1.5e-5 -2.85878,0.448146 -3.81685,1.344396 -0.94778,0.896278 -1.49378,2.158259 -1.638,3.785947 l 10.13706,-0.01546" />
    <path
       inkscape:connector-curvature="0"
       id="path3038"
       style="font-size:23.29935455px;font-style:normal;font-weight:normal;line-height:125%;letter-spacing:0px;word-spacing:0px;fill:#0000ff;fill-opacity:1;stroke:none;font-family:Sans"
       d="m 159.36222,61.082075 c -1e-5,-2.060368 -0.42755,-3.657161 -1.28258,-4.790381 -0.84478,-1.133194 -2.03465,-1.699798 -3.56962,-1.699813 -1.52469,1.5e-5 -2.71455,0.566619 -3.5696,1.699813 -0.84477,1.13322 -1.26714,2.730013 -1.26713,4.790381 -1e-5,2.050082 0.42236,3.641724 1.26713,4.774927 0.85505,1.133212 2.04491,1.699815 3.5696,1.699813 1.53497,2e-6 2.72484,-0.566601 3.56962,-1.699813 0.85503,-1.133203 1.28257,-2.724845 1.28258,-4.774927 m 2.84332,6.706532 c -1e-5,2.94634 -0.65418,5.135491 -1.96251,6.567458 -1.30836,1.442259 -3.31208,2.163391 -6.01116,2.163398 -0.99929,-7e-6 -1.94192,-0.07727 -2.82786,-0.231794 -0.88598,-0.144232 -1.74618,-0.370873 -2.58063,-0.679925 l 0,-2.766058 c 0.83445,0.45328 1.6586,0.788092 2.47245,1.004434 0.81385,0.216336 1.64315,0.324507 2.48791,0.324511 1.86463,-4e-6 3.26054,-0.489344 4.18772,-1.468021 0.92716,-0.968379 1.39075,-2.436398 1.39076,-4.40406 l 0,-1.406208 c -0.58722,1.01989 -1.33927,1.782229 -2.25612,2.287021 -0.91687,0.504793 -2.01402,0.757189 -3.29146,0.757189 -2.12219,0 -3.83231,-0.808698 -5.13034,-2.426096 -1.29804,-1.617394 -1.94706,-3.760186 -1.94706,-6.428381 0,-2.678483 0.64902,-4.826425 1.94706,-6.443835 1.29803,-1.617381 3.00815,-2.42608 5.13034,-2.426097 1.27744,1.7e-5 2.37459,0.252415 3.29146,0.75719 0.91685,0.504809 1.6689,1.267147 2.25612,2.28702 l 0,-2.626983 2.84332,0 0,15.159237" />
    <path
       inkscape:connector-curvature="0"
       id="path3040"
       style="font-size:23.29935455px;font-style:normal;font-weight:normal;line-height:125%;letter-spacing:0px;word-spacing:0px;fill:#0000ff;fill-opacity:1;stroke:none;font-family:Sans"
       d="m 182.86601,60.57213 0,1.390756 -13.07311,0 c 0.12361,1.957366 0.71082,3.451139 1.76163,4.481324 1.06109,1.01989 2.53425,1.529834 4.41951,1.529831 1.09199,3e-6 2.14793,-0.133928 3.16784,-0.401774 1.03017,-0.267847 2.05006,-0.66962 3.05965,-1.205321 l 0,2.688794 c -1.0199,0.43268 -2.06554,0.76234 -3.13693,0.988982 -1.07141,0.226642 -2.15825,0.339962 -3.26055,0.339963 -2.76091,-1e-6 -4.95006,-0.803548 -6.56745,-2.410644 -1.6071,-1.607092 -2.41064,-3.78079 -2.41064,-6.521099 0,-2.83301 0.76233,-5.07882 2.28702,-6.737438 1.53497,-1.668891 3.6005,-2.503344 6.19659,-2.503361 2.32821,1.7e-5 4.1671,0.752056 5.51666,2.256114 1.35983,1.493789 2.03975,3.528412 2.03978,6.103873 m -2.84332,-0.834453 c -0.0207,-1.555575 -0.45845,-2.796952 -1.3135,-3.724135 -0.84476,-0.927155 -1.96767,-1.39074 -3.36872,-1.390755 -1.58649,1.5e-5 -2.85878,0.448146 -3.81686,1.344396 -0.94777,0.896278 -1.49377,2.158259 -1.63799,3.785947 l 10.13707,-0.01546" />
    <path
       inkscape:connector-curvature="0"
       id="path3042"
       style="font-size:23.29935455px;font-style:normal;font-weight:normal;line-height:125%;letter-spacing:0px;word-spacing:0px;fill:#0000ff;fill-opacity:1;stroke:none;font-family:Sans"
       d="m 190.34518,47.715367 0,4.914003 5.85663,0 0,2.209756 -5.85663,0 0,9.395328 c 0,1.411363 0.19058,2.317929 0.57176,2.7197 0.39146,0.401775 1.17956,0.602663 2.36428,0.602661 l 2.92059,0 0,2.379737 -2.92059,0 c -2.19431,0 -3.70869,-0.406924 -4.54313,-1.220774 -0.83446,-0.82415 -1.25169,-2.317923 -1.25169,-4.481324 l 0,-9.395328 -2.08612,0 0,-2.209756 2.08612,0 0,-4.914003 2.85878,0" />
    <path
       inkscape:connector-curvature="0"
       id="path3044"
       style="font-size:23.29935455px;font-style:normal;font-weight:normal;line-height:125%;letter-spacing:0px;word-spacing:0px;fill:#0000ff;fill-opacity:1;stroke:none;font-family:Sans"
       d="m 207.82235,61.236603 c -2.29733,8e-6 -3.88898,0.262706 -4.77493,0.788094 -0.88596,0.525405 -1.32894,1.421668 -1.32894,2.688794 0,1.00959 0.32966,1.813138 0.98897,2.410644 0.66963,0.58721 1.5762,0.880814 2.71971,0.880811 1.57618,3e-6 2.83816,-0.556299 3.78595,-1.668907 0.95806,-1.1229 1.4371,-2.611523 1.43712,-4.46587 l 0,-0.633566 -2.82788,0 m 5.6712,-1.174417 0,9.874366 -2.84332,0 0,-2.626983 c -0.64904,1.050795 -1.45774,1.828587 -2.42611,2.333379 -0.96838,0.49449 -2.1531,0.741736 -3.55415,0.741737 -1.77193,-1e-6 -3.18328,-0.494492 -4.23408,-1.483474 -1.04049,-0.999281 -1.56073,-2.333376 -1.56073,-4.002285 0,-1.947051 0.64901,-3.41507 1.94705,-4.40406 1.30834,-0.988972 3.2554,-1.483462 5.84117,-1.483473 l 3.98685,0 0,-0.27815 c -2e-5,-1.308329 -0.4327,-2.317913 -1.29805,-3.028757 -0.85507,-0.721118 -2.06038,-1.081684 -3.61597,-1.081699 -0.98899,1.5e-5 -1.95221,0.118484 -2.88968,0.355415 -0.93747,0.236958 -1.83889,0.592374 -2.70424,1.066246 l 0,-2.626983 c 1.04049,-0.401757 2.05007,-0.700512 3.02875,-0.896265 0.97868,-0.20602 1.93161,-0.30904 2.85878,-0.309057 2.50335,1.7e-5 4.37314,0.649037 5.60938,1.947059 1.23621,1.298052 1.85432,3.265712 1.85435,5.902984" />
    <path
       inkscape:connector-curvature="0"
       id="path3046"
       style="font-size:23.29935455px;font-style:normal;font-weight:normal;line-height:125%;letter-spacing:0px;word-spacing:0px;fill:#0000ff;fill-opacity:1;stroke:none;font-family:Sans"
       d="m 231.78971,61.298413 c -1e-5,-2.091273 -0.4327,-3.729272 -1.29804,-4.914002 -0.85506,-1.195006 -2.03463,-1.792515 -3.5387,-1.79253 -1.50408,1.5e-5 -2.6888,0.597524 -3.55415,1.79253 -0.85506,1.18473 -1.28259,2.822729 -1.28258,4.914002 -1e-5,2.091292 0.42752,3.734442 1.28258,4.929457 0.86535,1.184721 2.05007,1.777079 3.55415,1.777076 1.50407,3e-6 2.68364,-0.592355 3.5387,-1.777076 0.86534,-1.195015 1.29803,-2.838165 1.29804,-4.929457 m -9.67347,-6.04206 c 0.5975,-1.030174 1.34954,-1.792513 2.25612,-2.28702 0.91685,-0.504775 2.00885,-0.757173 3.27599,-0.75719 2.10158,1.7e-5 3.80654,0.83447 5.11489,2.503361 1.31862,1.66892 1.97795,3.863222 1.97797,6.582909 -2e-5,2.719707 -0.65935,4.914008 -1.97797,6.582911 -1.30835,1.668907 -3.01331,2.50336 -5.11489,2.503361 -1.26714,-1e-6 -2.35914,-0.247247 -3.27599,-0.741737 -0.90658,-0.504792 -1.65862,-1.272282 -2.25612,-2.302473 l 0,2.596077 -2.85878,0 0,-24.044621 2.85878,0 0,9.364422" />
    <path
       inkscape:connector-curvature="0"
       id="path3048"
       style="font-size:23.29935455px;font-style:normal;font-weight:normal;line-height:125%;letter-spacing:0px;word-spacing:0px;fill:#0000ff;fill-opacity:1;stroke:none;font-family:Sans"
       d="m 239.4543,45.891931 2.84332,0 0,24.044621 -2.84332,0 0,-24.044621" />
    <path
       inkscape:connector-curvature="0"
       id="path3050"
       style="font-size:23.29935455px;font-style:normal;font-weight:normal;line-height:125%;letter-spacing:0px;word-spacing:0px;fill:#0000ff;fill-opacity:1;stroke:none;font-family:Sans"
       d="m 263.03535,60.57213 0,1.390756 -13.07311,0 c 0.12361,1.957366 0.71084,3.451139 1.76163,4.481324 1.06109,1.01989 2.53426,1.529834 4.41952,1.529831 1.09199,3e-6 2.14793,-0.133928 3.16783,-0.401774 1.03017,-0.267847 2.05006,-0.66962 3.05966,-1.205321 l 0,2.688794 c -1.01991,0.43268 -2.06554,0.76234 -3.13692,0.988982 -1.07141,0.226642 -2.15827,0.339962 -3.26055,0.339963 -2.76093,-1e-6 -4.95006,-0.803548 -6.56746,-2.410644 -1.6071,-1.607092 -2.41065,-3.78079 -2.41065,-6.521099 0,-2.83301 0.76235,-5.07882 2.28702,-6.737438 1.53499,-1.668891 3.60051,-2.503344 6.19659,-2.503361 2.32821,1.7e-5 4.1671,0.752056 5.51666,2.256114 1.35985,1.493789 2.03977,3.528412 2.03978,6.103873 m -2.84332,-0.834453 c -0.0206,-1.555575 -0.45845,-2.796952 -1.3135,-3.724135 -0.84476,-0.927155 -1.96766,-1.39074 -3.36871,-1.390755 -1.5865,1.5e-5 -2.85879,0.448146 -3.81685,1.344396 -0.94778,0.896278 -1.49378,2.158259 -1.63801,3.785947 l 10.13707,-0.01546" />
    <path
       inkscape:connector-curvature="0"
       id="path3052"
       style="font-size:23.29935455px;font-style:normal;font-weight:normal;line-height:125%;letter-spacing:0px;word-spacing:0px;fill:#000000;fill-opacity:1;stroke:none;font-family:Sans"
       d="m 277.48376,63.106396 0,-10.477026 2.84333,0 0,10.368857 c 0,1.638006 0.31936,2.869081 0.95807,3.693228 0.63871,0.813853 1.59679,1.220777 2.87424,1.220775 1.53497,2e-6 2.74544,-0.489338 3.63141,-1.46802 0.89625,-0.978675 1.34439,-2.312769 1.3444,-4.002286 l 0,-9.812554 2.84332,0 0,17.307182 -2.84332,0 0,-2.657889 c -0.69024,1.050795 -1.4938,1.833739 -2.41065,2.348832 -0.90658,0.504793 -1.96252,0.757189 -3.16783,0.75719 -1.98827,-1e-6 -3.4975,-0.618114 -4.52769,-1.854342 -1.03018,-1.236224 -1.54528,-3.044204 -1.54528,-5.423947 m 7.15467,-10.894253 0,0" />
    <path
       inkscape:connector-curvature="0"
       id="path3054"
       style="font-size:23.29935455px;font-style:normal;font-weight:normal;line-height:125%;letter-spacing:0px;word-spacing:0px;fill:#000000;fill-opacity:1;stroke:none;font-family:Sans"
       d="m 308.89937,53.139314 0,2.688795 c -0.80357,-0.412063 -1.63801,-0.721118 -2.50337,-0.927172 -0.86537,-0.206022 -1.76162,-0.309041 -2.68878,-0.309056 -1.41137,1.5e-5 -2.47247,0.216355 -3.18329,0.649019 -0.70053,0.432694 -1.05079,1.081712 -1.05079,1.947058 0,0.659333 0.25238,1.179578 0.75718,1.560737 0.5048,0.370878 1.51952,0.726294 3.04421,1.066246 l 0.97353,0.21634 c 2.01916,0.432689 3.45112,1.045651 4.2959,1.838888 0.85503,0.782951 1.28257,1.880101 1.28258,3.291455 -1e-5,1.607099 -0.63874,2.879381 -1.91616,3.816852 -1.26714,0.937472 -3.01331,1.406208 -5.23851,1.406209 -0.92717,-1e-6 -1.89556,-0.09272 -2.90512,-0.278152 -0.9993,-0.175132 -2.05524,-0.442981 -3.16785,-0.803547 l 0,-2.93604 c 1.05079,0.546002 2.08614,0.958078 3.10603,1.236227 1.01988,0.267851 2.02947,0.401776 3.02876,0.401773 1.33923,3e-6 2.36942,-0.226638 3.09057,-0.679925 0.72112,-0.463582 1.08168,-1.1126 1.08169,-1.947057 -1e-5,-0.772637 -0.26271,-1.364995 -0.7881,-1.777076 -0.5151,-0.412071 -1.65345,-0.808693 -3.41507,-1.18987 l -0.98898,-0.231792 c -1.76163,-0.37086 -3.03391,-0.937463 -3.81686,-1.699812 -0.78295,-0.772633 -1.17441,-1.828576 -1.17441,-3.167833 0,-1.627685 0.5769,-2.884515 1.73072,-3.770494 1.1538,-0.885946 2.79181,-1.328927 4.914,-1.328944 1.05079,1.7e-5 2.03977,0.07729 2.96695,0.231793 0.92716,0.154545 1.78221,0.386337 2.56517,0.695378" />
    <path
       inkscape:connector-curvature="0"
       id="path3056"
       style="font-size:23.29935455px;font-style:normal;font-weight:normal;line-height:125%;letter-spacing:0px;word-spacing:0px;fill:#000000;fill-opacity:1;stroke:none;font-family:Sans"
       d="m 314.07609,63.106396 0,-10.477026 2.84333,0 0,10.368857 c 0,1.638006 0.31936,2.869081 0.95807,3.693228 0.63871,0.813853 1.59679,1.220777 2.87424,1.220775 1.53496,2e-6 2.74544,-0.489338 3.63141,-1.46802 0.89625,-0.978675 1.34439,-2.312769 1.3444,-4.002286 l 0,-9.812554 2.84332,0 0,17.307182 -2.84332,0 0,-2.657889 c -0.69024,1.050795 -1.49378,1.833739 -2.41065,2.348832 -0.90658,0.504793 -1.96252,0.757189 -3.16783,0.75719 -1.98827,-1e-6 -3.4975,-0.618114 -4.52767,-1.854342 -1.0302,-1.236224 -1.5453,-3.044204 -1.5453,-5.423947 m 7.15467,-10.894253 0,0" />
    <path
       inkscape:connector-curvature="0"
       id="path3058"
       style="font-size:23.29935455px;font-style:normal;font-weight:normal;line-height:125%;letter-spacing:0px;word-spacing:0px;fill:#000000;fill-opacity:1;stroke:none;font-family:Sans"
       d="m 342.32387,61.236603 c -2.29734,8e-6 -3.88898,0.262706 -4.77493,0.788094 -0.88597,0.525405 -1.32895,1.421668 -1.32894,2.688794 -1e-5,1.00959 0.32964,1.813138 0.98897,2.410644 0.66962,0.58721 1.57618,0.880814 2.71971,0.880811 1.57618,3e-6 2.83816,-0.556299 3.78595,-1.668907 0.95806,-1.1229 1.43709,-2.611523 1.4371,-4.46587 l 0,-0.633566 -2.82786,0 m 5.67118,-1.174417 0,9.874366 -2.84332,0 0,-2.626983 c -0.64903,1.050795 -1.45772,1.828587 -2.42609,2.333379 -0.96838,0.49449 -2.1531,0.741736 -3.55416,0.741737 -1.77192,-1e-6 -3.18329,-0.494492 -4.23408,-1.483474 -1.04048,-0.999281 -1.56074,-2.333376 -1.56074,-4.002285 0,-1.947051 0.64903,-3.41507 1.94707,-4.40406 1.30834,-0.988972 3.25539,-1.483462 5.84117,-1.483473 l 3.98683,0 0,-0.27815 c -10e-6,-1.308329 -0.43268,-2.317913 -1.29803,-3.028757 -0.85507,-0.721118 -2.06039,-1.081684 -3.61597,-1.081699 -0.98899,1.5e-5 -1.95221,0.118484 -2.88968,0.355415 -0.93748,0.236958 -1.83889,0.592374 -2.70424,1.066246 l 0,-2.626983 c 1.04048,-0.401757 2.05007,-0.700512 3.02875,-0.896265 0.97867,-0.20602 1.93159,-0.30904 2.85878,-0.309057 2.50334,1.7e-5 4.37314,0.649037 5.60938,1.947059 1.23621,1.298052 1.85432,3.265712 1.85433,5.902984" />
    <path
       inkscape:connector-curvature="0"
       id="path3060"
       style="font-size:23.29935455px;font-style:normal;font-weight:normal;line-height:125%;letter-spacing:0px;word-spacing:0px;fill:#000000;fill-opacity:1;stroke:none;font-family:Sans"
       d="m 353.86714,45.891931 2.84332,0 0,24.044621 -2.84332,0 0,-24.044621" />
    <path
       inkscape:connector-curvature="0"
       id="path3062"
       style="font-size:23.29935455px;font-style:normal;font-weight:normal;line-height:125%;letter-spacing:0px;word-spacing:0px;fill:#000000;fill-opacity:1;stroke:none;font-family:Sans"
       d="m 362.64434,45.891931 2.84332,0 0,24.044621 -2.84332,0 0,-24.044621" />
    <path
       inkscape:connector-curvature="0"
       id="path3064"
       style="font-size:23.29935455px;font-style:normal;font-weight:normal;line-height:125%;letter-spacing:0px;word-spacing:0px;fill:#000000;fill-opacity:1;stroke:none;font-family:Sans"
       d="m 378.62259,71.543647 c -0.80355,2.060376 -1.58649,3.404771 -2.34883,4.033192 -0.76235,0.628409 -1.78224,0.942617 -3.05966,0.942624 l -2.27157,0 0,-2.379738 1.66891,0 c 0.78293,-4e-6 1.39074,-0.185438 1.82343,-0.556302 0.43268,-0.370872 0.91171,-1.246533 1.43712,-2.626984 l 0.50994,-1.298038 -7.00014,-17.029031 3.01331,0 5.40849,13.536688 5.4085,-13.536688 3.0133,0 -7.6028,18.914277" />
    <path
       inkscape:connector-curvature="0"
       id="path3066"
       style="font-size:23.29935455px;font-style:normal;font-weight:normal;line-height:125%;letter-spacing:0px;word-spacing:0px;fill:#000000;fill-opacity:1;stroke:none;font-family:Sans"
       d="m 406.93221,54.622787 c -1.5247,1.5e-5 -2.73001,0.597523 -3.61598,1.792529 -0.88596,1.18473 -1.32894,2.812428 -1.32894,4.883097 0,2.070688 0.43783,3.703537 1.3135,4.898552 0.88595,1.184719 2.09642,1.777079 3.63142,1.777076 1.51436,3e-6 2.71452,-0.597508 3.6005,-1.79253 0.88595,-1.195015 1.32893,-2.822712 1.32894,-4.883098 -10e-6,-2.050065 -0.44299,-3.672612 -1.32894,-4.867644 -0.88598,-1.205307 -2.08614,-1.807967 -3.6005,-1.807982 m 0,-2.410644 c 2.47244,1.7e-5 4.41434,0.803565 5.82571,2.410644 1.41134,1.607108 2.11702,3.832316 2.11704,6.675626 -2e-5,2.833028 -0.7057,5.058234 -2.11704,6.675628 -1.41137,1.607096 -3.35327,2.410643 -5.82571,2.410644 -2.48278,-1e-6 -4.42983,-0.803548 -5.84118,-2.410644 -1.40107,-1.617394 -2.10159,-3.8426 -2.10159,-6.675628 0,-2.84331 0.70052,-5.068518 2.10159,-6.675626 1.41135,-1.607079 3.3584,-2.410627 5.84118,-2.410644" />
    <path
       inkscape:connector-curvature="0"
       id="path3068"
       style="font-size:23.29935455px;font-style:normal;font-weight:normal;line-height:125%;letter-spacing:0px;word-spacing:0px;fill:#000000;fill-opacity:1;stroke:none;font-family:Sans"
       d="m 429.60153,55.287258 c -0.31936,-0.185418 -0.66963,-0.319343 -1.05079,-0.401773 -0.37089,-0.0927 -0.78295,-0.139061 -1.23623,-0.139076 -1.60711,1.5e-5 -2.84333,0.525411 -3.70868,1.57619 -0.85506,1.040503 -1.2826,2.539428 -1.28258,4.496777 l 0,9.117176 -2.85878,0 0,-17.307182 2.85878,0 0,2.688795 c 0.5975,-1.050778 1.37529,-1.828571 2.33337,-2.33338 0.95806,-0.515077 2.12218,-0.772625 3.49235,-0.772642 0.19573,1.7e-5 0.41206,0.01547 0.64902,0.04636 0.23692,0.02062 0.49962,0.05668 0.78809,0.108175 l 0.0155,2.920586" />
    <path
       inkscape:connector-curvature="0"
       id="path3070"
       style="font-size:23.29935455px;font-style:normal;font-weight:normal;line-height:125%;letter-spacing:0px;word-spacing:0px;fill:#000000;fill-opacity:1;stroke:none;font-family:Sans"
       d="m 440.48031,61.236603 c -2.29733,8e-6 -3.88896,0.262706 -4.77493,0.788094 -0.88596,0.525405 -1.32894,1.421668 -1.32894,2.688794 0,1.00959 0.32966,1.813138 0.98899,2.410644 0.66961,0.58721 1.57618,0.880814 2.71969,0.880811 1.57618,3e-6 2.83816,-0.556299 3.78595,-1.668907 0.95806,-1.1229 1.4371,-2.611523 1.43712,-4.46587 l 0,-0.633566 -2.82788,0 m 5.6712,-1.174417 0,9.874366 -2.84332,0 0,-2.626983 c -0.64904,1.050795 -1.45774,1.828587 -2.42611,2.333379 -0.96838,0.49449 -2.1531,0.741736 -3.55414,0.741737 -1.77194,-1e-6 -3.18329,-0.494492 -4.23408,-1.483474 -1.0405,-0.999281 -1.56074,-2.333376 -1.56074,-4.002285 0,-1.947051 0.64902,-3.41507 1.94706,-4.40406 1.30833,-0.988972 3.25539,-1.483462 5.84116,-1.483473 l 3.98685,0 0,-0.27815 c -2e-5,-1.308329 -0.4327,-2.317913 -1.29804,-3.028757 -0.85508,-0.721118 -2.06039,-1.081684 -3.61597,-1.081699 -0.98898,1.5e-5 -1.95222,0.118484 -2.88969,0.355415 -0.93747,0.236958 -1.83889,0.592374 -2.70424,1.066246 l 0,-2.626983 c 1.04049,-0.401757 2.05007,-0.700512 3.02875,-0.896265 0.97868,-0.20602 1.93161,-0.30904 2.85878,-0.309057 2.50335,1.7e-5 4.37314,0.649037 5.60938,1.947059 1.23621,1.298052 1.85433,3.265712 1.85435,5.902984" />
    <path
       inkscape:connector-curvature="0"
       id="path3072"
       style="font-size:23.29935455px;font-style:normal;font-weight:normal;line-height:125%;letter-spacing:0px;word-spacing:0px;fill:#000000;fill-opacity:1;stroke:none;font-family:Sans"
       d="m 466.41019,59.490432 0,10.44612 -2.84333,0 0,-10.353403 c -1e-5,-1.63799 -0.31936,-2.863914 -0.95808,-3.677777 -0.63872,-0.813835 -1.59679,-1.220759 -2.87422,-1.220775 -1.53499,1.6e-5 -2.74547,0.489355 -3.63142,1.468021 -0.88597,0.978693 -1.32895,2.312786 -1.32894,4.002285 l 0,9.781649 -2.85878,0 0,-17.307182 2.85878,0 0,2.688795 c 0.67991,-1.040477 1.47832,-1.818268 2.39519,-2.33338 0.92716,-0.515077 1.99341,-0.772625 3.19874,-0.772642 1.98824,1.7e-5 3.49232,0.61813 4.51223,1.854341 1.01986,1.22594 1.52981,3.033921 1.52983,5.423948" />
    <path
       inkscape:connector-curvature="0"
       id="path3074"
       style="font-size:23.29935455px;font-style:normal;font-weight:normal;line-height:125%;letter-spacing:0px;word-spacing:0px;fill:#000000;fill-opacity:1;stroke:none;font-family:Sans"
       d="m 483.50101,61.082075 c -2e-5,-2.060368 -0.42754,-3.657161 -1.28259,-4.790381 -0.84476,-1.133194 -2.03463,-1.699798 -3.5696,-1.699813 -1.5247,1.5e-5 -2.71457,0.566619 -3.56962,1.699813 -0.84475,1.13322 -1.26714,2.730013 -1.26712,4.790381 -2e-5,2.050082 0.42237,3.641724 1.26712,4.774927 0.85505,1.133212 2.04492,1.699815 3.56962,1.699813 1.53497,2e-6 2.72484,-0.566601 3.5696,-1.699813 0.85505,-1.133203 1.28257,-2.724845 1.28259,-4.774927 m 2.84332,6.706532 c -2e-5,2.94634 -0.65419,5.135491 -1.96251,6.567458 -1.30835,1.442259 -3.31207,2.163391 -6.01115,2.163398 -0.9993,-7e-6 -1.94192,-0.07727 -2.82788,-0.231794 -0.88596,-0.144232 -1.74617,-0.370873 -2.58063,-0.679925 l 0,-2.766058 c 0.83446,0.45328 1.65861,0.788092 2.47246,1.004434 0.81385,0.216336 1.64314,0.324507 2.48791,0.324511 1.86464,-4e-6 3.26054,-0.489344 4.18772,-1.468021 0.92716,-0.968379 1.39074,-2.436398 1.39076,-4.40406 l 0,-1.406208 c -0.58722,1.01989 -1.33926,1.782229 -2.25612,2.287021 -0.91688,0.504793 -2.01403,0.757189 -3.29145,0.757189 -2.1222,0 -3.83231,-0.808698 -5.13035,-2.426096 -1.29804,-1.617394 -1.94705,-3.760186 -1.94705,-6.428381 0,-2.678483 0.64901,-4.826425 1.94705,-6.443835 1.29804,-1.617381 3.00815,-2.42608 5.13035,-2.426097 1.27742,1.7e-5 2.37457,0.252415 3.29145,0.75719 0.91686,0.504809 1.6689,1.267147 2.25612,2.28702 l 0,-2.626983 2.84332,0 0,15.159237" />
    <path
       inkscape:connector-curvature="0"
       id="path3076"
       style="font-size:23.29935455px;font-style:normal;font-weight:normal;line-height:125%;letter-spacing:0px;word-spacing:0px;fill:#000000;fill-opacity:1;stroke:none;font-family:Sans"
       d="m 507.0048,60.57213 0,1.390756 -13.07311,0 c 0.1236,1.957366 0.71082,3.451139 1.76163,4.481324 1.06108,1.01989 2.53425,1.529834 4.41951,1.529831 1.09199,3e-6 2.14793,-0.133928 3.16783,-0.401774 1.03017,-0.267847 2.05006,-0.66962 3.05966,-1.205321 l 0,2.688794 c -1.01991,0.43268 -2.06554,0.76234 -3.13692,0.988982 -1.07141,0.226642 -2.15826,0.339962 -3.26055,0.339963 -2.76092,-1e-6 -4.95006,-0.803548 -6.56747,-2.410644 -1.60709,-1.607092 -2.41063,-3.78079 -2.41063,-6.521099 0,-2.83301 0.76233,-5.07882 2.28701,-6.737438 1.53499,-1.668891 3.60051,-2.503344 6.19659,-2.503361 2.32822,1.7e-5 4.1671,0.752056 5.51667,2.256114 1.35983,1.493789 2.03976,3.528412 2.03978,6.103873 m -2.84332,-0.834453 c -0.0206,-1.555575 -0.45846,-2.796952 -1.3135,-3.724135 -0.84477,-0.927155 -1.96767,-1.39074 -3.36871,-1.390755 -1.58651,1.5e-5 -2.8588,0.448146 -3.81686,1.344396 -0.94777,0.896278 -1.49378,2.158259 -1.63801,3.785947 l 10.13708,-0.01546" />
    <path
       inkscape:connector-curvature="0"
       id="path3078"
       style="font-size:23.29935455px;font-style:normal;font-weight:normal;line-height:125%;letter-spacing:0px;word-spacing:0px;fill:#000000;fill-opacity:1;stroke:none;font-family:Sans"
       d="m 521.74678,52.62937 2.84332,0 0,17.307182 -2.84332,0 0,-17.307182 m 0,-6.737439 2.84332,0 0,3.600512 -2.84332,0 0,-3.600512" />
    <path
       inkscape:connector-curvature="0"
       id="path3080"
       style="font-size:23.29935455px;font-style:normal;font-weight:normal;line-height:125%;letter-spacing:0px;word-spacing:0px;fill:#000000;fill-opacity:1;stroke:none;font-family:Sans"
       d="m 544.91064,59.490432 0,10.44612 -2.84332,0 0,-10.353403 c -2e-5,-1.63799 -0.31938,-2.863914 -0.95808,-3.677777 -0.63873,-0.813835 -1.59681,-1.220759 -2.87423,-1.220775 -1.53498,1.6e-5 -2.74546,0.489355 -3.63142,1.468021 -0.88596,0.978693 -1.32894,2.312786 -1.32894,4.002285 l 0,9.781649 -2.85878,0 0,-17.307182 2.85878,0 0,2.688795 c 0.67992,-1.040477 1.47831,-1.818268 2.39519,-2.33338 0.92716,-0.515077 1.99341,-0.772625 3.19875,-0.772642 1.98824,1.7e-5 3.49231,0.61813 4.51221,1.854341 1.01988,1.22594 1.52983,3.033921 1.52984,5.423948" />
    <path
       inkscape:connector-curvature="0"
       id="path3082"
       style="font-size:23.29935455px;font-style:normal;font-weight:normal;line-height:125%;letter-spacing:0px;word-spacing:0px;fill:#000000;fill-opacity:1;stroke:none;font-family:Sans"
       d="m 573.14292,53.293842 0,2.657889 c -0.80356,-0.442967 -1.61226,-0.772627 -2.4261,-0.988982 -0.80355,-0.226626 -1.6174,-0.339947 -2.44155,-0.339962 -1.84405,1.5e-5 -3.276,0.587222 -4.29588,1.761624 -1.01989,1.164126 -1.52984,2.802125 -1.52984,4.914002 0,2.111895 0.50995,3.755046 1.52984,4.929457 1.01988,1.164117 2.45183,1.746174 4.29588,1.746171 0.82415,3e-6 1.638,-0.108161 2.44155,-0.324509 0.81384,-0.22664 1.62254,-0.56145 2.4261,-1.004435 l 0,2.626983 c -0.79326,0.370868 -1.61741,0.649019 -2.47246,0.834453 -0.84476,0.185435 -1.74618,0.278151 -2.70424,0.278152 -2.60638,-1e-6 -4.67706,-0.819001 -6.21205,-2.457003 -1.53498,-1.637997 -2.30247,-3.84775 -2.30247,-6.629269 0,-2.822707 0.77264,-5.042763 2.31793,-6.660173 1.55558,-1.617381 3.68293,-2.42608 6.38202,-2.426097 0.87566,1.7e-5 1.7307,0.09273 2.56517,0.278152 0.83444,0.175149 1.64315,0.442998 2.4261,0.803547" />
    <path
       inkscape:connector-curvature="0"
       id="path3084"
       style="font-size:23.29935455px;font-style:normal;font-weight:normal;line-height:125%;letter-spacing:0px;word-spacing:0px;fill:#000000;fill-opacity:1;stroke:none;font-family:Sans"
       d="m 584.82532,54.622787 c -1.52469,1.5e-5 -2.73001,0.597523 -3.61596,1.792529 -0.88598,1.18473 -1.32896,2.812428 -1.32894,4.883097 -2e-5,2.070688 0.43782,3.703537 1.31348,4.898552 0.88596,1.184719 2.09644,1.777079 3.63142,1.777076 1.51436,3e-6 2.71454,-0.597508 3.60052,-1.79253 0.88594,-1.195015 1.32893,-2.822712 1.32894,-4.883098 -10e-6,-2.050065 -0.443,-3.672612 -1.32894,-4.867644 -0.88598,-1.205307 -2.08616,-1.807967 -3.60052,-1.807982 m 0,-2.410644 c 2.47244,1.7e-5 4.41435,0.803565 5.82572,2.410644 1.41135,1.607108 2.11702,3.832316 2.11704,6.675626 -2e-5,2.833028 -0.70569,5.058234 -2.11704,6.675628 -1.41137,1.607096 -3.35328,2.410643 -5.82572,2.410644 -2.48276,-1e-6 -4.42982,-0.803548 -5.84118,-2.410644 -1.40105,-1.617394 -2.10158,-3.8426 -2.10158,-6.675628 0,-2.84331 0.70053,-5.068518 2.10158,-6.675626 1.41136,-1.607079 3.35842,-2.410627 5.84118,-2.410644" />
    <path
       inkscape:connector-curvature="0"
       id="path3086"
       style="font-size:23.29935455px;font-style:normal;font-weight:normal;line-height:125%;letter-spacing:0px;word-spacing:0px;fill:#000000;fill-opacity:1;stroke:none;font-family:Sans"
       d="m 597.46572,45.891931 2.84332,0 0,24.044621 -2.84332,0 0,-24.044621" />
    <path
       inkscape:connector-curvature="0"
       id="path3088"
       style="font-size:23.29935455px;font-style:normal;font-weight:normal;line-height:125%;letter-spacing:0px;word-spacing:0px;fill:#000000;fill-opacity:1;stroke:none;font-family:Sans"
       d="m 612.94945,54.622787 c -1.5247,1.5e-5 -2.73001,0.597523 -3.61598,1.792529 -0.88596,1.18473 -1.32894,2.812428 -1.32894,4.883097 0,2.070688 0.43783,3.703537 1.3135,4.898552 0.88595,1.184719 2.09642,1.777079 3.63142,1.777076 1.51436,3e-6 2.71453,-0.597508 3.6005,-1.79253 0.88595,-1.195015 1.32893,-2.822712 1.32894,-4.883098 -10e-6,-2.050065 -0.44299,-3.672612 -1.32894,-4.867644 -0.88597,-1.205307 -2.08614,-1.807967 -3.6005,-1.807982 m 0,-2.410644 c 2.47244,1.7e-5 4.41434,0.803565 5.82572,2.410644 1.41133,1.607108 2.11701,3.832316 2.11704,6.675626 -3e-5,2.833028 -0.70571,5.058234 -2.11704,6.675628 -1.41138,1.607096 -3.35328,2.410643 -5.82572,2.410644 -2.48278,-1e-6 -4.42983,-0.803548 -5.84118,-2.410644 -1.40107,-1.617394 -2.10159,-3.8426 -2.10159,-6.675628 0,-2.84331 0.70052,-5.068518 2.10159,-6.675626 1.41135,-1.607079 3.3584,-2.410627 5.84118,-2.410644" />
    <path
       inkscape:connector-curvature="0"
       id="path3090"
       style="font-size:23.29935455px;font-style:normal;font-weight:normal;line-height:125%;letter-spacing:0px;word-spacing:0px;fill:#000000;fill-opacity:1;stroke:none;font-family:Sans"
       d="m 625.29632,63.106396 0,-10.477026 2.84332,0 0,10.368857 c 0,1.638006 0.31935,2.869081 0.95807,3.693228 0.63871,0.813853 1.59679,1.220777 2.87424,1.220775 1.53497,2e-6 2.74544,-0.489338 3.63142,-1.46802 0.89624,-0.978675 1.34437,-2.312769 1.34438,-4.002286 l 0,-9.812554 2.84334,0 0,17.307182 -2.84334,0 0,-2.657889 c -0.69023,1.050795 -1.49378,1.833739 -2.41063,2.348832 -0.90658,0.504793 -1.96252,0.757189 -3.16783,0.75719 -1.98828,-1e-6 -3.49751,-0.618114 -4.52769,-1.854342 -1.03019,-1.236224 -1.54528,-3.044204 -1.54528,-5.423947 m 7.15466,-10.894253 0,0" />
    <path
       inkscape:connector-curvature="0"
       id="path3092"
       style="font-size:23.29935455px;font-style:normal;font-weight:normal;line-height:125%;letter-spacing:0px;word-spacing:0px;fill:#000000;fill-opacity:1;stroke:none;font-family:Sans"
       d="m 655.70749,55.287258 c -0.31938,-0.185418 -0.66964,-0.319343 -1.0508,-0.401773 -0.37087,-0.0927 -0.78295,-0.139061 -1.23623,-0.139076 -1.6071,1.5e-5 -2.84332,0.525411 -3.70868,1.57619 -0.85506,1.040503 -1.2826,2.539428 -1.28258,4.496777 l 0,9.117176 -2.85878,0 0,-17.307182 2.85878,0 0,2.688795 c 0.5975,-1.050778 1.37529,-1.828571 2.33337,-2.33338 0.95808,-0.515077 2.12219,-0.772625 3.49235,-0.772642 0.19573,1.7e-5 0.41206,0.01547 0.64902,0.04636 0.23692,0.02062 0.49963,0.05668 0.78809,0.108175 l 0.0155,2.920586" />
    <path
       inkscape:connector-curvature="0"
       id="path3094"
       style="font-size:23.29935455px;font-style:normal;font-weight:normal;line-height:125%;letter-spacing:0px;word-spacing:0px;fill:#000000;fill-opacity:1;stroke:none;font-family:Sans"
       d="m 656.21742,66.01153 3.26055,0 0,3.925022 -3.26055,0 0,-3.925022" />
    <path
       inkscape:connector-curvature="0"
       id="path3096"
       style="font-size:23.29935455px;font-style:normal;font-weight:normal;line-height:125%;letter-spacing:0px;word-spacing:0px;fill:#000000;fill-opacity:1;stroke:none;font-family:Sans"
       d="m 666.29265,66.01153 3.26055,0 0,3.925022 -3.26055,0 0,-3.925022" />
    <path
       inkscape:connector-curvature="0"
       id="path3098"
       style="font-size:23.29935455px;font-style:normal;font-weight:normal;line-height:125%;letter-spacing:0px;word-spacing:0px;fill:#000000;fill-opacity:1;stroke:none;font-family:Sans"
       d="m 676.36795,66.01153 3.26054,0 0,3.925022 -3.26054,0 0,-3.925022" />
    <text
       xml:space="preserve"
       style="font-size:54.3318367px;font-style:normal;font-weight:normal;line-height:125%;letter-spacing:0px;word-spacing:0px;fill:#000000;fill-opacity:1;stroke:none;font-family:Sans"
       x="3.2392838"
       y="247.36563"
       id="text2989"
       sodipodi:linespacing="125%"><tspan
         sodipodi:role="line"
         id="tspan2991"
         x="3.2392838"
         y="247.36563" /></text>
    <text
       xml:space="preserve"
       style="font-size:27.24263573px;font-style:italic;font-weight:normal;line-height:125%;letter-spacing:0px;word-spacing:0px;fill:#000000;fill-opacity:1;stroke:none;font-family:Sans;-inkscape-font-specification:Sans Italic"
       x="-41.117321"
       y="112.88985"
       id="text3926"
       sodipodi:linespacing="125%"><tspan
         sodipodi:role="line"
         id="tspan3928"
         x="-41.117321"
         y="112.88985">context</tspan></text>
  </g>
</svg>
