<?xml version="1.0" encoding="UTF-8" standalone="no"?>
<!-- Created with Inkscape (http://www.inkscape.org/) -->

<svg
   xmlns:dc="http://purl.org/dc/elements/1.1/"
   xmlns:cc="http://creativecommons.org/ns#"
   xmlns:rdf="http://www.w3.org/1999/02/22-rdf-syntax-ns#"
   xmlns:svg="http://www.w3.org/2000/svg"
   xmlns="http://www.w3.org/2000/svg"
   xmlns:sodipodi="http://sodipodi.sourceforge.net/DTD/sodipodi-0.dtd"
   xmlns:inkscape="http://www.inkscape.org/namespaces/inkscape"
   width="389.4054"
   height="231.49518"
   id="svg2"
   version="1.1"
   inkscape:version="0.91 r13725"
   sodipodi:docname="unrolled_rnn_words.svg">
  <sodipodi:namedview
     id="base"
     pagecolor="#ffffff"
     bordercolor="#666666"
     borderopacity="1.0"
     inkscape:pageopacity="0.0"
     inkscape:pageshadow="2"
     inkscape:zoom="2.8"
     inkscape:cx="195.40278"
     inkscape:cy="147.77149"
     inkscape:document-units="px"
     inkscape:current-layer="layer1"
     showgrid="false"
     fit-margin-top="0"
     fit-margin-left="0"
     fit-margin-right="0"
     fit-margin-bottom="0"
     inkscape:window-width="2495"
     inkscape:window-height="1416"
     inkscape:window-x="65"
     inkscape:window-y="24"
     inkscape:window-maximized="1" />
  <defs
     id="defs4">
    <marker
       inkscape:isstock="true"
       style="overflow:visible"
       id="marker11598"
       refX="0"
       refY="0"
       orient="auto"
       inkscape:stockid="Arrow1Mend">
      <path
         transform="matrix(-0.4,0,0,-0.4,-4,0)"
         style="fill:#000000;fill-opacity:1;fill-rule:evenodd;stroke:#000000;stroke-width:1pt;stroke-opacity:1"
         d="M 0,0 5,-5 -12.5,0 5,5 0,0 Z"
         id="path11600"
         inkscape:connector-curvature="0" />
    </marker>
    <marker
       inkscape:stockid="Arrow1Mend"
       orient="auto"
       refY="0"
       refX="0"
       id="marker11442"
       style="overflow:visible"
       inkscape:isstock="true"
       inkscape:collect="always">
      <path
         inkscape:connector-curvature="0"
         id="path11444"
         d="M 0,0 5,-5 -12.5,0 5,5 0,0 Z"
         style="fill:#000000;fill-opacity:1;fill-rule:evenodd;stroke:#000000;stroke-width:1pt;stroke-opacity:1"
         transform="matrix(-0.4,0,0,-0.4,-4,0)" />
    </marker>
    <marker
       inkscape:isstock="true"
       style="overflow:visible"
       id="marker11268"
       refX="0"
       refY="0"
       orient="auto"
       inkscape:stockid="Arrow1Mend"
       inkscape:collect="always">
      <path
         transform="matrix(-0.4,0,0,-0.4,-4,0)"
         style="fill:#000000;fill-opacity:1;fill-rule:evenodd;stroke:#000000;stroke-width:1pt;stroke-opacity:1"
         d="M 0,0 5,-5 -12.5,0 5,5 0,0 Z"
         id="path11270"
         inkscape:connector-curvature="0" />
    </marker>
    <marker
       inkscape:stockid="Arrow1Mend"
       orient="auto"
       refY="0"
       refX="0"
       id="marker11985"
       style="overflow:visible"
       inkscape:isstock="true">
      <path
         inkscape:connector-curvature="0"
         id="path11987"
         d="M 0,0 5,-5 -12.5,0 5,5 0,0 Z"
         style="fill:#000000;fill-opacity:1;fill-rule:evenodd;stroke:#000000;stroke-width:1pt;stroke-opacity:1"
         transform="matrix(-0.4,0,0,-0.4,-4,0)" />
    </marker>
    <marker
       inkscape:isstock="true"
       style="overflow:visible"
       id="marker11691"
       refX="0"
       refY="0"
       orient="auto"
       inkscape:stockid="Arrow1Mend"
       inkscape:collect="always">
      <path
         transform="matrix(-0.4,0,0,-0.4,-4,0)"
         style="fill:#000000;fill-opacity:1;fill-rule:evenodd;stroke:#000000;stroke-width:1pt;stroke-opacity:1"
         d="M 0,0 5,-5 -12.5,0 5,5 0,0 Z"
         id="path11693"
         inkscape:connector-curvature="0" />
    </marker>
    <marker
       inkscape:isstock="true"
       style="overflow:visible"
       id="marker11529"
       refX="0"
       refY="0"
       orient="auto"
       inkscape:stockid="Arrow1Mend">
      <path
         transform="matrix(-0.4,0,0,-0.4,-4,0)"
         style="fill:#000000;fill-opacity:1;fill-rule:evenodd;stroke:#000000;stroke-width:1pt;stroke-opacity:1"
         d="M 0,0 5,-5 -12.5,0 5,5 0,0 Z"
         id="path11531"
         inkscape:connector-curvature="0" />
    </marker>
    <marker
       inkscape:stockid="Arrow1Mend"
       orient="auto"
       refY="0"
       refX="0"
       id="marker11415"
       style="overflow:visible"
       inkscape:isstock="true"
       inkscape:collect="always">
      <path
         inkscape:connector-curvature="0"
         id="path11417"
         d="M 0,0 5,-5 -12.5,0 5,5 0,0 Z"
         style="fill:#000000;fill-opacity:1;fill-rule:evenodd;stroke:#000000;stroke-width:1pt;stroke-opacity:1"
         transform="matrix(-0.4,0,0,-0.4,-4,0)" />
    </marker>
    <marker
       inkscape:isstock="true"
       style="overflow:visible"
       id="marker11168"
       refX="0"
       refY="0"
       orient="auto"
       inkscape:stockid="Arrow1Mend">
      <path
         transform="matrix(-0.4,0,0,-0.4,-4,0)"
         style="fill:#000000;fill-opacity:1;fill-rule:evenodd;stroke:#000000;stroke-width:1pt;stroke-opacity:1"
         d="M 0,0 5,-5 -12.5,0 5,5 0,0 Z"
         id="path11170"
         inkscape:connector-curvature="0" />
    </marker>
    <marker
       inkscape:isstock="true"
       style="overflow:visible"
       id="marker10776"
       refX="0"
       refY="0"
       orient="auto"
       inkscape:stockid="Arrow1Mend"
       inkscape:collect="always">
      <path
         transform="matrix(-0.4,0,0,-0.4,-4,0)"
         style="fill:#000000;fill-opacity:1;fill-rule:evenodd;stroke:#000000;stroke-width:1pt;stroke-opacity:1"
         d="M 0,0 5,-5 -12.5,0 5,5 0,0 Z"
         id="path10778"
         inkscape:connector-curvature="0" />
    </marker>
    <marker
       inkscape:isstock="true"
       style="overflow:visible"
       id="marker10724"
       refX="0"
       refY="0"
       orient="auto"
       inkscape:stockid="Arrow1Mend">
      <path
         transform="matrix(-0.4,0,0,-0.4,-4,0)"
         style="fill:#000000;fill-opacity:1;fill-rule:evenodd;stroke:#000000;stroke-width:1pt;stroke-opacity:1"
         d="M 0,0 5,-5 -12.5,0 5,5 0,0 Z"
         id="path10726"
         inkscape:connector-curvature="0" />
    </marker>
    <marker
       inkscape:stockid="Arrow1Mend"
       orient="auto"
       refY="0"
       refX="0"
       id="marker10673"
       style="overflow:visible"
       inkscape:isstock="true"
       inkscape:collect="always">
      <path
         id="path10426"
         d="M 0,0 5,-5 -12.5,0 5,5 0,0 Z"
         style="fill:#000000;fill-opacity:1;fill-rule:evenodd;stroke:#000000;stroke-width:1pt;stroke-opacity:1"
         transform="matrix(-0.4,0,0,-0.4,-4,0)"
         inkscape:connector-curvature="0" />
    </marker>
    <marker
       style="overflow:visible"
       id="Arrow1Mend"
       refX="0"
       refY="0"
       orient="auto"
       inkscape:stockid="Arrow1Mend">
      <path
         inkscape:connector-curvature="0"
         transform="matrix(-0.4,0,0,-0.4,-4,0)"
         style="fill-rule:evenodd;stroke:#000000;stroke-width:1pt"
         d="M 0,0 5,-5 -12.5,0 5,5 0,0 Z"
         id="path3954" />
    </marker>
    <marker
       style="overflow:visible"
       id="Arrow1Lend"
       refX="0"
       refY="0"
       orient="auto"
       inkscape:stockid="Arrow1Lend">
      <path
         inkscape:connector-curvature="0"
         transform="matrix(-0.8,0,0,-0.8,-10,0)"
         style="fill-rule:evenodd;stroke:#000000;stroke-width:1pt"
         d="M 0,0 5,-5 -12.5,0 5,5 0,0 Z"
         id="path3948" />
    </marker>
    <marker
       style="overflow:visible"
       id="Arrow1Mend5"
       refX="0"
       refY="0"
       orient="auto"
       inkscape:stockid="Arrow1Mend5">
      <path
         inkscape:connector-curvature="0"
         transform="matrix(-0.4,0,0,-0.4,-4,0)"
         style="fill:#ffffff;fill-rule:evenodd;stroke:#ffffff;stroke-width:1pt"
         d="M 0,0 5,-5 -12.5,0 5,5 0,0 Z"
         id="path4708" />
    </marker>
    <marker
       style="overflow:visible"
       id="Arrow1MendC"
       refX="0"
       refY="0"
       orient="auto"
       inkscape:stockid="Arrow1MendC">
      <path
         inkscape:connector-curvature="0"
         transform="matrix(-0.4,0,0,-0.4,-4,0)"
         style="fill:#ffffff;fill-rule:evenodd;stroke:#ffffff;stroke-width:1pt"
         d="M 0,0 5,-5 -12.5,0 5,5 0,0 Z"
         id="path4711" />
    </marker>
    <marker
       style="overflow:visible"
       id="Arrow1Mendl"
       refX="0"
       refY="0"
       orient="auto"
       inkscape:stockid="Arrow1Mendl">
      <path
         inkscape:connector-curvature="0"
         transform="matrix(-0.4,0,0,-0.4,-4,0)"
         style="fill:#ffffff;fill-rule:evenodd;stroke:#ffffff;stroke-width:1pt"
         d="M 0,0 5,-5 -12.5,0 5,5 0,0 Z"
         id="path4714" />
    </marker>
  </defs>
  <metadata
     id="metadata7">
    <rdf:RDF>
      <cc:Work
         rdf:about="">
        <dc:format>image/svg+xml</dc:format>
        <dc:type
           rdf:resource="http://purl.org/dc/dcmitype/StillImage" />
        <dc:title></dc:title>
      </cc:Work>
    </rdf:RDF>
  </metadata>
  <g
     transform="translate(25.438004,-80.77801)"
     id="layer1"
     inkscape:groupmode="layer"
     inkscape:label="Layer 1">
    <rect
       ry="6.8611145"
       y="230.23676"
       x="115.562"
       height="31.904974"
       width="107.40538"
       id="rect2985"
       style="opacity:0.98000004;fill:#aaffa7;fill-opacity:1;stroke:#000000;stroke-width:2;stroke-miterlimit:4;stroke-dasharray:none;stroke-dashoffset:0;stroke-opacity:1" />
    <rect
       style="opacity:0.98000004;fill:#babbff;fill-opacity:1;stroke:#000000;stroke-width:2;stroke-miterlimit:4;stroke-dasharray:none;stroke-dashoffset:0;stroke-opacity:1"
       id="rect2987"
       width="107.40538"
       height="31.904974"
       x="115.562"
       y="170.23676"
       ry="6.8611145" />
    <rect
       ry="6.8611145"
       y="110.23676"
       x="255.562"
       height="31.904974"
       width="107.40538"
       id="rect2989"
       style="opacity:0.98000004;fill:#ffb8b8;fill-opacity:1;stroke:#000000;stroke-width:2;stroke-miterlimit:4;stroke-dasharray:none;stroke-dashoffset:0;stroke-opacity:1" />
    <path
       inkscape:connector-curvature="0"
       id="path4573"
       d="m 169.73481,229.3404 0,-26.26397"
       style="fill:none;stroke:#000000;stroke-width:1px;stroke-linecap:butt;stroke-linejoin:miter;stroke-opacity:1;marker-start:none;marker-end:url(#marker10776)" />
    <path
       style="fill:none;stroke:#000000;stroke-width:1px;stroke-linecap:butt;stroke-linejoin:miter;stroke-opacity:1;marker-start:none;marker-end:url(#marker10673)"
       d="m 309.73481,169.3404 0,-26.26397"
       id="path4575"
       inkscape:connector-curvature="0" />
    <rect
       style="opacity:0.98000004;fill:#aaffa7;fill-opacity:1;stroke:#000000;stroke-width:2;stroke-miterlimit:4;stroke-dasharray:none;stroke-dashoffset:0;stroke-opacity:1"
       id="rect10884"
       width="107.40538"
       height="31.904974"
       x="-24.438004"
       y="230.23676"
       ry="6.8611145" />
    <rect
       ry="6.8611145"
       y="230.23676"
       x="255.562"
       height="31.904974"
       width="107.40538"
       id="rect10890"
       style="opacity:0.98000004;fill:#aaffa7;fill-opacity:1;stroke:#000000;stroke-width:2;stroke-miterlimit:4;stroke-dasharray:none;stroke-dashoffset:0;stroke-opacity:1" />
    <rect
       ry="6.8611145"
       y="170.23676"
       x="-24.438004"
       height="31.904974"
       width="107.40538"
       id="rect11292"
       style="opacity:0.98000004;fill:#babbff;fill-opacity:1;stroke:#000000;stroke-width:2;stroke-miterlimit:4;stroke-dasharray:none;stroke-dashoffset:0;stroke-opacity:1" />
    <rect
       style="opacity:0.98000004;fill:#babbff;fill-opacity:1;stroke:#000000;stroke-width:2;stroke-miterlimit:4;stroke-dasharray:none;stroke-dashoffset:0;stroke-opacity:1"
       id="rect11298"
       width="107.40538"
       height="31.904974"
       x="255.562"
       y="170.23676"
       ry="6.8611145" />
    <path
       style="fill:none;stroke:#000000;stroke-width:1px;stroke-linecap:butt;stroke-linejoin:miter;stroke-opacity:1;marker-start:none;marker-end:url(#marker11415)"
       d="m 29.73481,229.3404 0,-26.26397"
       id="path11413"
       inkscape:connector-curvature="0" />
    <path
       inkscape:connector-curvature="0"
       id="path11527"
       d="m 309.73481,229.3404 0,-26.26397"
       style="fill:none;stroke:#000000;stroke-width:1px;stroke-linecap:butt;stroke-linejoin:miter;stroke-opacity:1;marker-start:none;marker-end:url(#marker11529)" />
    <path
       inkscape:connector-curvature="0"
       id="path11689"
       d="m 82.054919,186.20841 31.889101,0"
       style="fill:none;stroke:#000000;stroke-width:1px;stroke-linecap:butt;stroke-linejoin:miter;stroke-opacity:1;marker-start:none;marker-end:url(#marker11691)"
       sodipodi:nodetypes="cc" />
    <path
       sodipodi:nodetypes="cc"
       style="fill:none;stroke:#000000;stroke-width:1px;stroke-linecap:butt;stroke-linejoin:miter;stroke-opacity:1;marker-start:none;marker-end:url(#marker11985)"
       d="m 223.48349,186.20841 29.74624,0"
       id="path11983"
       inkscape:connector-curvature="0" />
    <g
       id="g5781"
       transform="matrix(1.2703564,0,0,1.2703564,-80.6732,-161.2977)">
      <path
         inkscape:connector-curvature="0"
         d="m 86.415252,316.3232 c -0.54037,0.10132 -0.74301,0.5066 -0.74301,0.82744 0,0.40529 0.32085,0.54038 0.55726,0.54038 0.5066,0 0.86123,-0.43906 0.86123,-0.895 0,-0.70924 -0.81057,-1.03008 -1.51982,-1.03008 -1.03008,0 -1.60422,1.0132 -1.75621,1.33404 -0.38839,-1.2665 -1.43536,-1.33404 -1.73932,-1.33404 -1.72245,0 -2.63433,2.21215 -2.63433,2.58366 0,0.0675 0.0675,0.15198 0.18575,0.15198 0.13509,0 0.16886,-0.10132 0.20264,-0.16887 0.57415,-1.87442 1.70556,-2.22904 2.19527,-2.22904 0.7599,0 0.91188,0.70924 0.91188,1.11452 0,0.37151 -0.10125,0.7599 -0.30395,1.57046 l -0.57415,2.31348 c -0.2533,1.0132 -0.74301,1.94197 -1.63801,1.94197 -0.0844,0 -0.5066,0 -0.86123,-0.21952 0.60793,-0.11821 0.74301,-0.62481 0.74301,-0.82745 0,-0.33774 -0.2533,-0.54038 -0.57413,-0.54038 -0.40529,0 -0.84434,0.35462 -0.84434,0.895 0,0.70924 0.79367,1.03009 1.5198,1.03009 0.81056,0 1.38471,-0.6417 1.73932,-1.33405 0.27019,0.99631 1.11453,1.33405 1.73934,1.33405 1.72244,0 2.63433,-2.21216 2.63433,-2.58367 0,-0.0844 -0.0675,-0.15198 -0.16887,-0.15198 -0.15198,0 -0.16887,0.0844 -0.21953,0.21953 -0.45594,1.48603 -1.43537,2.17838 -2.19527,2.17838 -0.59103,0 -0.91188,-0.43905 -0.91188,-1.13141 0,-0.3715 0.0675,-0.64169 0.33773,-1.75621 l 0.59104,-2.29659 c 0.2533,-1.01321 0.82744,-1.75622 1.60424,-1.75622 0.0337,0 0.5066,0 0.86121,0.21953 z"
         id="use4903" />
      <path
         inkscape:connector-curvature="0"
         d="m 93.312066,322.15474 c 0,-1.20458 -0.12387,-1.93634 -0.49533,-2.65684 -0.49535,-0.99069 -1.40723,-1.23836 -2.02642,-1.23836 -1.41847,0 -1.93633,1.05824 -2.09395,1.37345 -0.405274,0.82182 -0.427784,1.93635 -0.427784,2.52175 0,0.74302 0.0337,1.88005 0.574154,2.78068 0.51785,0.83308 1.35092,1.04697 1.94758,1.04697 0.54038,0 1.50855,-0.16886 2.07144,-1.28339 0.41654,-0.81056 0.45031,-1.8125 0.45031,-2.54426 z m -2.52175,3.51244 c -0.38276,0 -1.15955,-0.18013 -1.39596,-1.3622 -0.12387,-0.64169 -0.12387,-1.69993 -0.12387,-2.28533 0,-0.77679 0,-1.56484 0.12387,-2.18402 0.23641,-1.14829 1.11453,-1.26087 1.39596,-1.26087 0.38278,0 1.15957,0.19138 1.38472,1.21584 0.1351,0.61918 0.1351,1.46352 0.1351,2.22905 0,0.66421 0,1.67741 -0.1351,2.30785 -0.23642,1.18206 -1.0132,1.33968 -1.38472,1.33968 z"
         id="use4905" />
    </g>
    <g
       id="g5763"
       transform="matrix(1.2703564,0,0,1.2703564,41.483367,-161.2977)">
      <path
         inkscape:connector-curvature="0"
         d="m 102.49562,316.3232 c -0.54037,0.10132 -0.74301,0.5066 -0.74301,0.82744 0,0.40529 0.32085,0.54038 0.55726,0.54038 0.5066,0 0.86123,-0.43906 0.86123,-0.895 0,-0.70924 -0.81056,-1.03008 -1.51981,-1.03008 -1.03009,0 -1.60423,1.0132 -1.756224,1.33404 -0.38838,-1.2665 -1.43536,-1.33404 -1.73932,-1.33404 -1.72245,0 -2.63433,2.21215 -2.63433,2.58366 0,0.0675 0.0675,0.15198 0.18575,0.15198 0.13509,0 0.16887,-0.10132 0.20264,-0.16887 0.57415,-1.87442 1.70556,-2.22904 2.19528,-2.22904 0.7599,0 0.91187,0.70924 0.91187,1.11452 0,0.37151 -0.10137,0.7599 -0.30395,1.57046 l -0.57415,2.31348 c -0.2533,1.0132 -0.74301,1.94197 -1.63801,1.94197 -0.0845,0 -0.5066,0 -0.86123,-0.21952 0.60793,-0.11821 0.74302,-0.62481 0.74302,-0.82745 0,-0.33774 -0.2533,-0.54038 -0.57414,-0.54038 -0.40529,0 -0.84434,0.35462 -0.84434,0.895 0,0.70924 0.79368,1.03009 1.5198,1.03009 0.81056,0 1.38471,-0.6417 1.73933,-1.33405 0.27018,0.99631 1.11452,1.33405 1.73933,1.33405 1.722444,0 2.634334,-2.21216 2.634334,-2.58367 0,-0.0844 -0.0675,-0.15198 -0.16886,-0.15198 -0.15199,0 -0.16888,0.0844 -0.21954,0.21953 -0.45594,1.48603 -1.43536,2.17838 -2.19526,2.17838 -0.591044,0 -0.911894,-0.43905 -0.911894,-1.13141 0,-0.3715 0.0675,-0.64169 0.33774,-1.75621 l 0.591034,-2.29659 c 0.2533,-1.01321 0.82744,-1.75622 1.60424,-1.75622 0.0337,0 0.5066,0 0.86121,0.21953 z"
         id="use4907" />
      <path
         inkscape:connector-curvature="0"
         d="m 107.42232,318.57476 c 0,-0.30396 -0.0225,-0.31522 -0.32647,-0.31522 -0.46158,0.45031 -1.05824,0.7205 -2.12773,0.7205 l 0,0.37151 c 0.30397,0 0.91189,0 1.56484,-0.30396 l 0,5.77525 c 0,0.41654 -0.0337,0.55163 -1.10326,0.55163 l -0.39403,0 0,0.37151 c 0.46157,-0.0338 1.42974,-0.0338 1.93634,-0.0338 0.5066,0 1.48603,0 1.9476,0.0338 l 0,-0.37151 -0.39402,0 c -1.06949,0 -1.10327,-0.13509 -1.10327,-0.55163 l 0,-6.24808 z"
         id="use4909" />
    </g>
    <g
       id="g5767"
       transform="matrix(1.2703564,0,0,1.2703564,163.12508,-161.2977)">
      <path
         inkscape:connector-curvature="0"
         d="m 118.57599,316.3232 c -0.54038,0.10132 -0.74302,0.5066 -0.74302,0.82744 0,0.40529 0.32085,0.54038 0.55727,0.54038 0.5066,0 0.86122,-0.43906 0.86122,-0.895 0,-0.70924 -0.81056,-1.03008 -1.5198,-1.03008 -1.0301,0 -1.60424,1.0132 -1.75622,1.33404 -0.38839,-1.2665 -1.43537,-1.33404 -1.73933,-1.33404 -1.72245,0 -2.63432,2.21215 -2.63432,2.58366 0,0.0675 0.0675,0.15198 0.18575,0.15198 0.1351,0 0.16886,-0.10132 0.20263,-0.16887 0.57415,-1.87442 1.70557,-2.22904 2.19528,-2.22904 0.7599,0 0.91187,0.70924 0.91187,1.11452 0,0.37151 -0.10137,0.7599 -0.30395,1.57046 l -0.57415,2.31348 c -0.2533,1.0132 -0.74301,1.94197 -1.63801,1.94197 -0.0845,0 -0.5066,0 -0.86122,-0.21952 0.60792,-0.11821 0.74301,-0.62481 0.74301,-0.82745 0,-0.33774 -0.2533,-0.54038 -0.57414,-0.54038 -0.40529,0 -0.84434,0.35462 -0.84434,0.895 0,0.70924 0.79368,1.03009 1.5198,1.03009 0.81057,0 1.38472,-0.6417 1.73933,-1.33405 0.27019,0.99631 1.11452,1.33405 1.73934,1.33405 1.72243,0 2.63432,-2.21216 2.63432,-2.58367 0,-0.0844 -0.0675,-0.15198 -0.16886,-0.15198 -0.15199,0 -0.16888,0.0844 -0.21954,0.21953 -0.45594,1.48603 -1.43536,2.17838 -2.19526,2.17838 -0.59104,0 -0.91189,-0.43905 -0.91189,-1.13141 0,-0.3715 0.0675,-0.64169 0.33774,-1.75621 l 0.59104,-2.29659 c 0.2533,-1.01321 0.82745,-1.75622 1.60423,-1.75622 0.0338,0 0.5066,0 0.86122,0.21953 z"
         id="use4911" />
      <path
         inkscape:connector-curvature="0"
         d="m 123.14244,323.44939 c 0.18012,-0.16887 0.65295,-0.54038 0.83307,-0.69799 0.69799,-0.64169 1.3622,-1.26087 1.3622,-2.28533 0,-1.33968 -1.12579,-2.20653 -2.53301,-2.20653 -1.35093,0 -2.2403,1.02446 -2.2403,2.02641 0,0.55163 0.43906,0.63043 0.59666,0.63043 0.23641,0 0.58541,-0.16886 0.58541,-0.59666 0,-0.58541 -0.56288,-0.58541 -0.69798,-0.58541 0.32647,-0.82182 1.08075,-1.10326 1.63238,-1.10326 1.04698,0 1.58735,0.88937 1.58735,1.83502 0,1.17081 -0.82182,2.02641 -2.15025,3.3886 l -1.41847,1.46351 c -0.1351,0.12384 -0.1351,0.14635 -0.1351,0.4278 l 4.44684,0 0.32647,-2.01515 -0.349,0 c -0.0337,0.22516 -0.12387,0.78805 -0.25892,1.00195 -0.0675,0.0901 -0.92314,0.0901 -1.10327,0.0901 l -2.00388,0 1.5198,-1.37346 z"
         id="use4913" />
    </g>
    <g
       id="g5797"
       transform="matrix(1.2703564,0,0,1.2703564,54.533677,-264.83833)">
      <path
         inkscape:connector-curvature="0"
         d="m 197.86382,310.96214 c -0.45593,0.6417 -1.11452,1.21584 -1.94197,1.21584 -0.20264,0 -1.0132,-0.0338 -1.2665,-0.81056 0.0506,0.0169 0.13509,0.0169 0.16886,0.0169 0.5066,0 0.84434,-0.43905 0.84434,-0.82745 0,-0.38839 -0.32085,-0.52348 -0.57415,-0.52348 -0.27019,0 -0.86121,0.20264 -0.86121,1.03008 0,0.86123 0.72612,1.45226 1.68866,1.45226 1.68867,0 3.39422,-1.55358 3.86705,-3.428 l 1.6549,-6.58581 c 0.0169,-0.0844 0.0506,-0.18576 0.0506,-0.28708 0,-0.2533 -0.20263,-0.42216 -0.45593,-0.42216 -0.15199,0 -0.5066,0.0675 -0.6417,0.57414 l -1.24962,4.96469 c -0.0844,0.30396 -0.0844,0.33774 -0.21952,0.52349 -0.33774,0.47283 -0.895,1.04698 -1.70556,1.04698 -0.94565,0 -1.03009,-0.92877 -1.03009,-1.38471 0,-0.96255 0.45594,-2.26282 0.91189,-3.47866 0.18575,-0.48972 0.28707,-0.72613 0.28707,-1.06387 0,-0.70924 -0.5066,-1.35093 -1.33405,-1.35093 -1.55357,0 -2.17839,2.44857 -2.17839,2.58366 0,0.0675 0.0675,0.15198 0.18575,0.15198 0.15199,0 0.16888,-0.0675 0.23642,-0.30396 0.40528,-1.41848 1.04697,-2.09395 1.70556,-2.09395 0.15197,0 0.43905,0 0.43905,0.55726 0,0.43906 -0.18575,0.92877 -0.43905,1.57047 -0.82745,2.21215 -0.82745,2.76942 -0.82745,3.1747 0,1.60423 1.1483,1.97574 1.99262,1.97574 0.48973,0 1.09764,-0.15198 1.68868,-0.77679 l 0.0169,0.0169 c -0.2533,0.99632 -0.42216,1.6549 -1.0132,2.48235 z"
         id="use4919" />
      <path
         inkscape:connector-curvature="0"
         d="m 204.65931,309.30725 c 0.18013,-0.16887 0.65296,-0.54038 0.83309,-0.69799 0.69797,-0.64169 1.36219,-1.26087 1.36219,-2.28533 0,-1.33968 -1.12578,-2.20653 -2.533,-2.20653 -1.35094,0 -2.2403,1.02446 -2.2403,2.02641 0,0.55163 0.43905,0.63043 0.59666,0.63043 0.23641,0 0.5854,-0.16886 0.5854,-0.59666 0,-0.58541 -0.56289,-0.58541 -0.69799,-0.58541 0.32648,-0.82182 1.08075,-1.10326 1.63239,-1.10326 1.04697,0 1.58735,0.88937 1.58735,1.83502 0,1.17081 -0.82183,2.02641 -2.15024,3.3886 l -1.41849,1.46351 c -0.13508,0.12384 -0.13508,0.14635 -0.13508,0.4278 l 4.44682,0 0.32648,-2.01515 -0.34899,0 c -0.0337,0.22516 -0.12388,0.78805 -0.25894,1.00195 -0.0675,0.0901 -0.92314,0.0901 -1.10326,0.0901 l -2.00389,0 1.5198,-1.37346 z"
         id="use4921" />
    </g>
    <rect
       style="opacity:0.98000004;fill:#ffb8b8;fill-opacity:1;stroke:#000000;stroke-width:2;stroke-miterlimit:4;stroke-dasharray:none;stroke-dashoffset:0;stroke-opacity:1"
       id="rect5801"
       width="107.40538"
       height="31.904974"
       x="115.562"
       y="110.23676"
       ry="6.8611145" />
    <path
       inkscape:connector-curvature="0"
       id="path5803"
       d="m 169.73481,169.3404 0,-26.26397"
       style="fill:none;stroke:#000000;stroke-width:1px;stroke-linecap:butt;stroke-linejoin:miter;stroke-opacity:1;marker-start:none;marker-end:url(#marker10673)" />
    <rect
       ry="6.8611145"
       y="110.23676"
       x="-24.438004"
       height="31.904974"
       width="107.40538"
       id="rect5809"
       style="opacity:0.98000004;fill:#ffb8b8;fill-opacity:1;stroke:#000000;stroke-width:2;stroke-miterlimit:4;stroke-dasharray:none;stroke-dashoffset:0;stroke-opacity:1" />
    <path
       style="fill:none;stroke:#000000;stroke-width:1px;stroke-linecap:butt;stroke-linejoin:miter;stroke-opacity:1;marker-start:none;marker-end:url(#marker10673)"
       d="m 29.73481,169.3404 0,-26.26397"
       id="path5811"
       inkscape:connector-curvature="0" />
    <g
       id="g5785"
       transform="matrix(1.2703564,0,0,1.2703564,-190.52729,-264.83833)">
      <path
         inkscape:connector-curvature="0"
         d="m 169.19389,310.96214 c -0.45594,0.6417 -1.11453,1.21584 -1.94198,1.21584 -0.20264,0 -1.0132,-0.0338 -1.2665,-0.81056 0.0506,0.0169 0.1351,0.0169 0.16888,0.0169 0.5066,0 0.84432,-0.43905 0.84432,-0.82745 0,-0.38839 -0.32084,-0.52348 -0.57414,-0.52348 -0.27018,0 -0.86122,0.20264 -0.86122,1.03008 0,0.86123 0.72612,1.45226 1.68866,1.45226 1.68868,0 3.39424,-1.55358 3.86706,-3.428 l 1.6549,-6.58581 c 0.0169,-0.0844 0.0506,-0.18576 0.0506,-0.28708 0,-0.2533 -0.20264,-0.42216 -0.45594,-0.42216 -0.15197,0 -0.5066,0.0675 -0.6417,0.57414 l -1.24961,4.96469 c -0.0844,0.30396 -0.0844,0.33774 -0.21953,0.52349 -0.33773,0.47283 -0.895,1.04698 -1.70555,1.04698 -0.94566,0 -1.0301,-0.92877 -1.0301,-1.38471 0,-0.96255 0.45595,-2.26282 0.91189,-3.47866 0.18575,-0.48972 0.28708,-0.72613 0.28708,-1.06387 0,-0.70924 -0.5066,-1.35093 -1.33405,-1.35093 -1.55358,0 -2.17839,2.44857 -2.17839,2.58366 0,0.0675 0.0675,0.15198 0.18575,0.15198 0.15199,0 0.16887,-0.0675 0.23642,-0.30396 0.40528,-1.41848 1.04698,-2.09395 1.70555,-2.09395 0.15199,0 0.43905,0 0.43905,0.55726 0,0.43906 -0.18575,0.92877 -0.43905,1.57047 -0.82745,2.21215 -0.82745,2.76942 -0.82745,3.1747 0,1.60423 1.1483,1.97574 1.99264,1.97574 0.48971,0 1.09764,-0.15198 1.68866,-0.77679 l 0.0169,0.0169 c -0.2533,0.99632 -0.42216,1.6549 -1.0132,2.48235 z"
         id="use4923" />
      <path
         id="path5779"
         d="m 178.59598,308.24629 c 0,-1.20458 -0.12387,-1.93634 -0.49533,-2.65684 -0.49535,-0.99069 -1.40723,-1.23836 -2.02642,-1.23836 -1.41847,0 -1.93633,1.05824 -2.09395,1.37345 -0.40527,0.82182 -0.42778,1.93635 -0.42778,2.52175 0,0.74302 0.0337,1.88005 0.57415,2.78068 0.51785,0.83308 1.35092,1.04697 1.94758,1.04697 0.54038,0 1.50855,-0.16886 2.07144,-1.28339 0.41654,-0.81056 0.45031,-1.8125 0.45031,-2.54426 z m -2.52175,3.51244 c -0.38276,0 -1.15955,-0.18013 -1.39596,-1.3622 -0.12387,-0.64169 -0.12387,-1.69993 -0.12387,-2.28533 0,-0.77679 0,-1.56484 0.12387,-2.18402 0.23641,-1.14829 1.11453,-1.26087 1.39596,-1.26087 0.38278,0 1.15957,0.19138 1.38472,1.21584 0.1351,0.61918 0.1351,1.46352 0.1351,2.22905 0,0.66421 0,1.67741 -0.1351,2.30785 -0.23642,1.18206 -1.0132,1.33968 -1.38472,1.33968 z"
         inkscape:connector-curvature="0" />
    </g>
    <g
       id="g5793"
       transform="matrix(1.2703564,0,0,1.2703564,-67.127303,-264.83833)">
      <path
         inkscape:connector-curvature="0"
         d="m 183.11611,310.96214 c -0.45594,0.6417 -1.11452,1.21584 -1.94197,1.21584 -0.20264,0 -1.0132,-0.0338 -1.2665,-0.81056 0.0506,0.0169 0.13508,0.0169 0.16886,0.0169 0.5066,0 0.84434,-0.43905 0.84434,-0.82745 0,-0.38839 -0.32085,-0.52348 -0.57415,-0.52348 -0.27019,0 -0.86122,0.20264 -0.86122,1.03008 0,0.86123 0.72613,1.45226 1.68867,1.45226 1.68867,0 3.39422,-1.55358 3.86706,-3.428 l 1.65489,-6.58581 c 0.0169,-0.0844 0.0506,-0.18576 0.0506,-0.28708 0,-0.2533 -0.20264,-0.42216 -0.45594,-0.42216 -0.15198,0 -0.5066,0.0675 -0.6417,0.57414 l -1.24961,4.96469 c -0.0844,0.30396 -0.0844,0.33774 -0.21952,0.52349 -0.33774,0.47283 -0.895,1.04698 -1.70557,1.04698 -0.94565,0 -1.03008,-0.92877 -1.03008,-1.38471 0,-0.96255 0.45593,-2.26282 0.91188,-3.47866 0.18575,-0.48972 0.28708,-0.72613 0.28708,-1.06387 0,-0.70924 -0.5066,-1.35093 -1.33405,-1.35093 -1.55358,0 -2.17839,2.44857 -2.17839,2.58366 0,0.0675 0.0675,0.15198 0.18575,0.15198 0.15199,0 0.16888,-0.0675 0.23641,-0.30396 0.40529,-1.41848 1.04698,-2.09395 1.70557,-2.09395 0.15197,0 0.43905,0 0.43905,0.55726 0,0.43906 -0.18575,0.92877 -0.43905,1.57047 -0.82745,2.21215 -0.82745,2.76942 -0.82745,3.1747 0,1.60423 1.1483,1.97574 1.99262,1.97574 0.48973,0 1.09764,-0.15198 1.68868,-0.77679 l 0.0169,0.0169 c -0.2533,0.99632 -0.42216,1.6549 -1.0132,2.48235 z"
         id="use4915" />
      <path
         inkscape:connector-curvature="0"
         d="m 190.27184,304.43262 c 0,-0.30396 -0.0225,-0.31522 -0.32648,-0.31522 -0.46157,0.45031 -1.05824,0.7205 -2.12772,0.7205 l 0,0.37151 c 0.30396,0 0.91187,0 1.56482,-0.30396 l 0,5.77525 c 0,0.41654 -0.0337,0.55163 -1.10326,0.55163 l -0.39403,0 0,0.37151 c 0.46158,-0.0338 1.42975,-0.0338 1.93635,-0.0338 0.5066,0 1.48603,0 1.9476,0.0338 l 0,-0.37151 -0.39402,0 c -1.06949,0 -1.10326,-0.13509 -1.10326,-0.55163 l 0,-6.24808 z"
         id="use4917" />
    </g>
    <g
       id="g10090"
       transform="matrix(1.2464977,0,0,1.2464977,-108.23884,-240.48176)">
      <path
         inkscape:connector-curvature="0"
         d="m 108.23455,335.61648 c 0.0169,-0.0675 0.0506,-0.16887 0.0506,-0.2533 0,-0.16887 -0.16886,-0.16887 -0.20264,-0.16887 -0.0169,0 -0.84434,0.0675 -0.92876,0.0844 -0.28708,0.0169 -0.54038,0.0507 -0.84434,0.0675 -0.42217,0.0338 -0.54037,0.0507 -0.54037,0.35462 0,0.16887 0.13508,0.16887 0.3715,0.16887 0.82745,0 0.84433,0.15198 0.84433,0.32085 0,0.10132 -0.0337,0.23641 -0.0506,0.28707 l -2.44857,9.7774 c -0.0675,0.2533 -0.0675,0.28707 -0.0675,0.38839 0,0.37151 0.28707,0.43906 0.45594,0.43906 0.28707,0 0.5066,-0.21953 0.59103,-0.40528 l 0.7599,-3.0565 c 0.0845,-0.3715 0.18575,-0.72612 0.27019,-1.09763 0.18575,-0.70924 0.18575,-0.72613 0.5066,-1.21584 0.32085,-0.48972 1.08075,-1.50292 2.38103,-1.50292 0.67547,0 0.91188,0.5066 0.91188,1.18207 0,0.94565 -0.65858,2.7863 -1.03008,3.79951 -0.15199,0.40528 -0.23642,0.6248 -0.23642,0.92876 0,0.75991 0.52349,1.36783 1.33404,1.36783 1.57048,0 2.1615,-2.48235 2.1615,-2.58367 0,-0.0844 -0.0675,-0.15198 -0.16886,-0.15198 -0.15199,0 -0.16886,0.0507 -0.2533,0.33774 -0.3884,1.35093 -1.0132,2.06017 -1.68868,2.06017 -0.16886,0 -0.43905,-0.0169 -0.43905,-0.55726 0,-0.43905 0.20264,-0.97943 0.27019,-1.16518 0.30396,-0.81056 1.06386,-2.80319 1.06386,-3.78262 0,-1.0132 -0.59103,-1.7731 -1.87442,-1.7731 -0.96254,0 -1.80688,0.45594 -2.49924,1.33404 l 1.30029,-5.18421 z"
         id="use4927" />
      <path
         inkscape:connector-curvature="0"
         d="m 118.51292,345.85545 c 0,-1.20458 -0.12387,-1.93634 -0.49533,-2.65684 -0.49535,-0.99069 -1.40723,-1.23836 -2.02642,-1.23836 -1.41847,0 -1.93633,1.05824 -2.09395,1.37345 -0.40527,0.82182 -0.42778,1.93635 -0.42778,2.52175 0,0.74302 0.0337,1.88005 0.57413,2.78068 0.51787,0.83308 1.35094,1.04697 1.9476,1.04697 0.54038,0 1.50855,-0.16886 2.07144,-1.28339 0.41654,-0.81056 0.45031,-1.8125 0.45031,-2.54426 z m -2.52175,3.51244 c -0.38276,0 -1.15955,-0.18013 -1.39596,-1.3622 -0.12387,-0.64169 -0.12387,-1.69993 -0.12387,-2.28533 0,-0.77679 0,-1.56484 0.12387,-2.18402 0.23641,-1.14829 1.11453,-1.26087 1.39596,-1.26087 0.38278,0 1.15957,0.19138 1.38472,1.21584 0.1351,0.61918 0.1351,1.46352 0.1351,2.22905 0,0.66421 0,1.67741 -0.1351,2.30785 -0.23642,1.18206 -1.0132,1.33968 -1.38472,1.33968 z"
         id="use4929" />
    </g>
    <g
       id="g10094"
       transform="matrix(1.2464977,0,0,1.2464977,10.332588,-240.48176)">
      <path
         inkscape:connector-curvature="0"
         d="m 124.43734,335.61648 c 0.0169,-0.0675 0.0506,-0.16887 0.0506,-0.2533 -10e-6,-0.16887 -0.16887,-0.16887 -0.20265,-0.16887 -0.0169,0 -0.84433,0.0675 -0.92876,0.0844 -0.28707,0.0169 -0.54037,0.0507 -0.84434,0.0675 -0.42217,0.0338 -0.54037,0.0507 -0.54037,0.35462 0,0.16887 0.13509,0.16887 0.3715,0.16887 0.82745,0 0.84434,0.15198 0.84434,0.32085 0,0.10132 -0.0337,0.23641 -0.0506,0.28707 l -2.44856,9.7774 c -0.0675,0.2533 -0.0675,0.28707 -0.0675,0.38839 0,0.37151 0.28707,0.43906 0.45594,0.43906 0.28707,0 0.5066,-0.21953 0.59103,-0.40528 l 0.7599,-3.0565 c 0.0844,-0.3715 0.18575,-0.72612 0.27019,-1.09763 0.18575,-0.70924 0.18575,-0.72613 0.5066,-1.21584 0.32085,-0.48972 1.08075,-1.50292 2.38103,-1.50292 0.67547,0 0.91188,0.5066 0.91188,1.18207 0,0.94565 -0.65858,2.7863 -1.03008,3.79951 -0.15199,0.40528 -0.23643,0.6248 -0.23643,0.92876 0,0.75991 0.52349,1.36783 1.33405,1.36783 1.57046,0 2.1615,-2.48235 2.1615,-2.58367 0,-0.0844 -0.0675,-0.15198 -0.16886,-0.15198 -0.15199,0 -0.16888,0.0507 -0.2533,0.33774 -0.3884,1.35093 -1.0132,2.06017 -1.68868,2.06017 -0.16886,0 -0.43905,-0.0169 -0.43905,-0.55726 0,-0.43905 0.20264,-0.97943 0.27019,-1.16518 0.30396,-0.81056 1.06386,-2.80319 1.06386,-3.78262 0,-1.0132 -0.59103,-1.7731 -1.87442,-1.7731 -0.96254,0 -1.80688,0.45594 -2.49924,1.33404 l 1.30028,-5.18421 z"
         id="use4931" />
      <path
         inkscape:connector-curvature="0"
         d="m 132.74561,342.27547 c 0,-0.30396 -0.0225,-0.31522 -0.32647,-0.31522 -0.46158,0.45031 -1.05824,0.7205 -2.12773,0.7205 l 0,0.37151 c 0.30396,0 0.91188,0 1.56484,-0.30396 l 0,5.77525 c 0,0.41654 -0.0337,0.55163 -1.10328,0.55163 l -0.39401,0 0,0.37151 c 0.46156,-0.0338 1.42974,-0.0338 1.93634,-0.0338 0.5066,0 1.48602,0 1.9476,0.0338 l 0,-0.37151 -0.39403,0 c -1.06948,0 -1.10326,-0.13509 -1.10326,-0.55163 l 0,-6.24808 z"
         id="use4933" />
    </g>
    <g
       id="g10098"
       transform="matrix(1.2464977,0,0,1.2464977,131.04687,-240.48176)">
      <path
         inkscape:connector-curvature="0"
         d="m 140.64014,335.61648 c 0.0169,-0.0675 0.0506,-0.16887 0.0506,-0.2533 -1e-5,-0.16887 -0.16887,-0.16887 -0.20265,-0.16887 -0.0169,0 -0.84433,0.0675 -0.92876,0.0844 -0.28707,0.0169 -0.54037,0.0507 -0.84434,0.0675 -0.42217,0.0338 -0.54037,0.0507 -0.54037,0.35462 0,0.16887 0.13509,0.16887 0.3715,0.16887 0.82745,0 0.84434,0.15198 0.84434,0.32085 0,0.10132 -0.0337,0.23641 -0.0506,0.28707 l -2.44856,9.7774 c -0.0675,0.2533 -0.0675,0.28707 -0.0675,0.38839 0,0.37151 0.28707,0.43906 0.45594,0.43906 0.28707,0 0.5066,-0.21953 0.59103,-0.40528 l 0.7599,-3.0565 c 0.0845,-0.3715 0.18575,-0.72612 0.27019,-1.09763 0.18575,-0.70924 0.18575,-0.72613 0.5066,-1.21584 0.32085,-0.48972 1.08075,-1.50292 2.38103,-1.50292 0.67547,0 0.91188,0.5066 0.91188,1.18207 0,0.94565 -0.65858,2.7863 -1.03008,3.79951 -0.15199,0.40528 -0.23643,0.6248 -0.23643,0.92876 0,0.75991 0.52349,1.36783 1.33405,1.36783 1.57046,0 2.1615,-2.48235 2.1615,-2.58367 0,-0.0844 -0.0675,-0.15198 -0.16886,-0.15198 -0.15199,0 -0.16888,0.0507 -0.2533,0.33774 -0.3884,1.35093 -1.0132,2.06017 -1.68868,2.06017 -0.16886,0 -0.43905,-0.0169 -0.43905,-0.55726 0,-0.43905 0.20264,-0.97943 0.27019,-1.16518 0.30396,-0.81056 1.06386,-2.80319 1.06386,-3.78262 0,-1.0132 -0.59103,-1.7731 -1.87442,-1.7731 -0.96254,0 -1.80688,0.45594 -2.49924,1.33404 l 1.30028,-5.18421 z"
         id="use4935" />
      <path
         inkscape:connector-curvature="0"
         d="m 148.58674,347.1501 c 0.18012,-0.16887 0.65296,-0.54038 0.83308,-0.69799 0.69798,-0.64169 1.36219,-1.26087 1.36219,-2.28533 0,-1.33968 -1.12577,-2.20653 -2.533,-2.20653 -1.35094,0 -2.2403,1.02446 -2.2403,2.02641 0,0.55163 0.43905,0.63043 0.59666,0.63043 0.23642,0 0.5854,-0.16886 0.5854,-0.59666 0,-0.58541 -0.56288,-0.58541 -0.69798,-0.58541 0.32647,-0.82182 1.08075,-1.10326 1.63238,-1.10326 1.04698,0 1.58735,0.88937 1.58735,1.83502 0,1.17081 -0.82182,2.02641 -2.15023,3.3886 l -1.41849,1.46351 c -0.13509,0.12384 -0.13509,0.14635 -0.13509,0.4278 l 4.44683,0 0.32647,-2.01515 -0.34899,0 c -0.0337,0.22516 -0.12387,0.78805 -0.25893,1.00195 -0.0675,0.0901 -0.92314,0.0901 -1.10327,0.0901 l -2.00388,0 1.5198,-1.37346 z"
         id="use4937" />
    </g>
    <path
       id="use10362"
       d="m 25.32119,280.69168 -0.83497,0 c -0.41748,2.96214 -1.15304,4.51278 -4.61218,4.51278 l -3.10129,0 0,-5.74534 1.17292,0 c 1.90849,0 2.10729,0.81508 2.10729,2.32597 l 0.83497,0 0,-5.50678 -0.83497,0 c 0,1.491 -0.1988,2.32596 -2.10729,2.32596 l -1.17292,0 0,-5.22846 3.10129,0 c 3.04166,0 3.6977,1.2922 3.9959,3.85674 l 0.83496,0 -0.57652,-4.71158 -12.0871,0 0,0.85484 2.10729,0 0,11.82865 -2.10729,0 0,0.85485 12.42506,0 0.85485,-5.36763 z"
       inkscape:connector-curvature="0" />
    <g
       id="g11768"
       transform="matrix(0.77659658,0,0,0.77659658,189.17224,-64.165919)">
      <path
         inkscape:connector-curvature="0"
         d="m -111.23962,339.75353 c 0.13916,-0.35785 0.17892,-0.47713 1.84885,-0.47713 l 0,-0.85483 c -0.99401,0.0398 -1.03377,0.0398 -2.16694,0.0398 -0.57652,0 -2.02776,0 -2.50489,-0.0398 l 0,0.85483 c 0.23856,0 1.98801,0 1.98801,0.27833 0,0.0199 0,0.0597 -0.0795,0.23856 l -3.33986,8.86653 -3.55853,-9.38342 1.88861,0 0,-0.85483 c -0.63617,0.0398 -2.48502,0.0398 -3.24046,0.0398 -0.61628,0 -2.54465,0 -3.02177,-0.0398 l 0,0.85483 1.66992,0 0.81509,2.14706 -2.72358,7.23636 -3.53865,-9.38342 1.86873,0 0,-0.85483 c -0.57653,0.0398 -2.52478,0.0398 -3.24046,0.0398 -0.63616,0 -2.52477,0 -3.02178,-0.0398 l 0,0.85483 1.66994,0 4.73145,12.48471 c 0.11929,0.33796 0.17892,0.47712 0.61629,0.47712 0.43736,0 0.497,-0.13916 0.61628,-0.45724 l 3.45914,-9.16473 3.47901,9.16473 c 0.11929,0.31808 0.17893,0.45724 0.61629,0.45724 0.37772,0 0.47712,-0.0795 0.61628,-0.45724 l 4.55254,-12.02746 z"
         id="use10364" />
      <path
         inkscape:connector-curvature="0"
         d="m -100.8821,339.8352 c 0,-1.61691 -1.00726,-1.96149 -2.18681,-1.96149 -1.39161,0 -2.12054,0.80845 -2.39887,1.2193 l 0,-4.43988 -2.41211,0.10607 0,0.68918 c 0.78195,0 0.87472,0 0.87472,0.51688 l 0,7.1966 -0.87472,0 0,0.68917 c 0.71568,-0.0398 1.17955,-0.0398 1.68318,-0.0398 0.51688,0 0.9675,0 1.68318,0.0398 l 0,-0.68917 -0.87473,0 0,-2.66394 c 0,-1.47113 1.27233,-2.06753 2.12055,-2.06753 0.46387,0 0.76869,0.22531 0.76869,1.25907 l 0,3.4724 -0.87472,0 0,0.68917 c 0.71568,-0.0398 1.17955,-0.0398 1.68318,-0.0398 0.51688,0 0.9675,0 1.68318,0.0398 l 0,-0.68917 -0.87472,0 0,-3.32661 z"
         id="use10366" />
    </g>
    <g
       id="g11772"
       transform="matrix(0.78745482,0,0,0.78745482,110.88474,-115.84775)">
      <path
         inkscape:connector-curvature="0"
         d="m -77.979398,339.75353 c 0.139168,-0.35785 0.17892,-0.47713 1.84885,-0.47713 l 0,-0.85483 c -0.994005,0.0398 -1.033766,0.0398 -2.166931,0.0398 -0.576523,0 -2.027769,0 -2.504892,-0.0398 l 0,0.85483 c 0.238561,0 1.98801,0 1.98801,0.27833 0,0.0199 0,0.0597 -0.07952,0.23856 l -3.339857,8.86653 -3.558536,-9.38342 1.888609,0 0,-0.85483 c -0.636163,0.0398 -2.485012,0.0398 -3.240456,0.0398 -0.616283,0 -2.544652,0 -3.021775,-0.0398 l 0,0.85483 1.669929,0 0.815083,2.14706 -2.723572,7.23636 -3.538657,-9.38342 1.868729,0 0,-0.85483 c -0.576524,0.0398 -2.524772,0.0398 -3.240455,0.0398 -0.636163,0 -2.524772,0 -3.021774,-0.0398 l 0,0.85483 1.669928,0 4.731461,12.48471 c 0.119287,0.33796 0.178922,0.47712 0.616284,0.47712 0.437362,0 0.497003,-0.13916 0.616283,-0.45724 l 3.459135,-9.16473 3.479017,9.16473 c 0.119286,0.31808 0.178922,0.45724 0.616284,0.45724 0.377721,0 0.477122,-0.0795 0.616282,-0.45724 l 4.552546,-12.02746 z"
         id="use10368" />
      <path
         inkscape:connector-curvature="0"
         d="m -67.701561,340.96174 c 0,-1.66993 -1.17955,-3.14106 -3.604922,-3.14106 -2.438625,0 -3.604924,1.48439 -3.604924,3.14106 0,1.57715 1.166299,2.98202 3.604924,2.98202 2.465131,0 3.604922,-1.41812 3.604922,-2.98202 z m -3.604922,2.35911 c -1.815716,0 -1.815716,-1.3651 -1.815716,-2.51815 0,-1.08678 0,-2.42537 1.815716,-2.42537 1.815715,0 1.815715,1.35185 1.815715,2.42537 0,1.15305 0,2.51815 -1.815715,2.51815 z"
         id="use10370" />
      <path
         inkscape:connector-curvature="0"
         d="m -61.996464,337.97973 0,0.68917 c 0.781952,0 0.874725,0 0.874725,0.51689 l 0,2.51814 c 0,1.00726 -0.702431,1.68318 -1.775955,1.68318 -1.073524,0 -1.113285,-0.30483 -1.113285,-0.98075 l 0,-4.53265 -2.491638,0.10607 0,0.68917 c 0.78195,0 0.874724,0 0.874724,0.51689 l 0,3.03502 c 0,1.48439 1.245818,1.72295 2.544652,1.72295 0.437362,0 1.325339,0 2.041023,-0.92775 l 0,0.92775 2.412118,-0.0928 0,-0.68917 c -0.78195,0 -0.874725,0 -0.874725,-0.51689 l 0,-4.77123 -2.491639,0.10607 z"
         id="use10372" />
      <path
         inkscape:connector-curvature="0"
         d="m -55.162681,338.65566 2.06753,0 0,-0.68919 -2.06753,0 0,-2.53139 -0.74219,0 c -0.01324,1.31208 -0.689176,2.63742 -2.014515,2.66393 l 0,0.55665 1.139791,0 0,3.56515 c 0,1.36511 1.073525,1.72295 2.200063,1.72295 1.007258,0 1.749449,-0.67593 1.749449,-1.72295 l 0,-0.67591 -0.742191,0 0,0.64941 c 0,0.91449 -0.503629,1.12654 -0.808457,1.12654 -0.768696,0 -0.78195,-0.70243 -0.78195,-1.06027 l 0,-3.60492 z"
         id="use10374" />
    </g>
    <g
       id="g11166"
       transform="translate(44.642857,-45.859494)">
      <path
         inkscape:connector-curvature="0"
         d="m -44.243544,350.84662 c 0.437362,1.19281 1.669928,1.41149 2.425372,1.41149 1.510886,0 2.405491,-1.31208 2.962134,-2.68382 0.457241,-1.15303 1.192805,-3.77721 1.192805,-4.95013 0,-1.21269 -0.616284,-1.33197 -0.795204,-1.33197 -0.477123,0 -0.914484,0.47712 -0.914484,0.87472 0,0.23856 0.139167,0.37772 0.238562,0.45725 0.17892,0.17892 0.695802,0.71568 0.695802,1.74945 0,0.67591 -0.556643,2.54464 -0.974124,3.47901 -0.556642,1.21269 -1.292206,2.00788 -2.325972,2.00788 -1.113285,0 -1.471126,-0.83496 -1.471126,-1.74944 0,-0.57652 0.178921,-1.27232 0.258441,-1.61029 l 0.834965,-3.33985 c 0.09941,-0.39761 0.27832,-1.09341 0.27832,-1.17293 0,-0.2982 -0.238562,-0.49701 -0.536762,-0.49701 -0.576523,0 -0.715684,0.49701 -0.834964,0.97413 -0.198802,0.77532 -1.033765,4.13507 -1.113285,4.57242 -0.07952,0.33797 -0.07952,0.55665 -0.07952,0.99401 0,0.47712 -0.636162,1.23256 -0.656043,1.27233 -0.218681,0.21867 -0.536763,0.55663 -1.153046,0.55663 -1.570527,0 -1.570527,-1.491 -1.570527,-1.82896 0,-0.63617 0.139167,-1.51089 1.033766,-3.87662 0.23856,-0.61629 0.33796,-0.87472 0.33796,-1.27233 0,-0.83496 -0.596403,-1.5904 -1.570528,-1.5904 -1.828968,0 -2.564531,2.88261 -2.564531,3.04165 0,0.0795 0.07952,0.17892 0.218681,0.17892 0.17892,0 0.198802,-0.0795 0.278321,-0.35784 0.497002,-1.74945 1.272327,-2.46513 2.007889,-2.46513 0.198802,0 0.516883,0.0199 0.516883,0.65604 0,0.0994 0,0.51689 -0.33796,1.39161 -0.934365,2.48501 -1.133167,3.30009 -1.133167,4.05554 0,2.08741 1.709688,2.46513 2.723573,2.46513 0.337963,0 1.232567,0 2.02777,-1.41149 z"
         id="use10376" />
      <path
         inkscape:connector-curvature="0"
         d="m -30.686973,350.81349 c 0,-1.41811 -0.14579,-2.27958 -0.583149,-3.1278 -0.58315,-1.1663 -1.656675,-1.45788 -2.385613,-1.45788 -1.669927,0 -2.279583,1.24583 -2.46513,1.61693 -0.477123,0.9675 -0.503629,2.27958 -0.503629,2.96875 0,0.87473 0.03976,2.21331 0.675922,3.27359 0.609657,0.98076 1.590409,1.23256 2.292837,1.23256 0.636164,0 1.775957,-0.19879 2.438627,-1.51087 0.490374,-0.95426 0.530135,-2.13381 0.530135,-2.99528 z m -2.968762,4.13507 c -0.450615,0 -1.365098,-0.21206 -1.643419,-1.60367 -0.14579,-0.75544 -0.14579,-2.00127 -0.14579,-2.69044 0,-0.91448 0,-1.84221 0.14579,-2.57115 0.278321,-1.35185 1.312084,-1.48439 1.643419,-1.48439 0.450618,0 1.365101,0.22532 1.630169,1.43138 0.159041,0.72892 0.159041,1.72293 0.159041,2.62416 0,0.78195 0,1.97476 -0.159041,2.71695 -0.278321,1.39161 -1.192806,1.57716 -1.630169,1.57716 z"
         id="use10378" />
    </g>
    <g
       id="g11170"
       transform="translate(159,-45.720339)">
      <path
         inkscape:connector-curvature="0"
         d="m -22.459931,350.84662 c 0.437365,1.19281 1.669936,1.41149 2.425374,1.41149 1.510888,0 2.405491,-1.31208 2.962136,-2.68382 0.457237,-1.15303 1.192803,-3.77721 1.192803,-4.95013 0,-1.21269 -0.616286,-1.33197 -0.795206,-1.33197 -0.477121,0 -0.914474,0.47712 -0.914474,0.87472 0,0.23856 0.139164,0.37772 0.23856,0.45725 0.178921,0.17892 0.695798,0.71568 0.695798,1.74945 0,0.67591 -0.556645,2.54464 -0.974126,3.47901 -0.556646,1.21269 -1.2922,2.00788 -2.325966,2.00788 -1.113291,0 -1.471132,-0.83496 -1.471132,-1.74944 0,-0.57652 0.17892,-1.27232 0.258444,-1.61029 l 0.834963,-3.33985 c 0.09936,-0.39761 0.278316,-1.09341 0.278316,-1.17293 0,-0.2982 -0.23856,-0.49701 -0.536761,-0.49701 -0.576518,0 -0.715682,0.49701 -0.834962,0.97413 -0.198805,0.77532 -1.033767,4.13507 -1.113279,4.57242 -0.07947,0.33797 -0.07947,0.55665 -0.07947,0.99401 0,0.47712 -0.636169,1.23256 -0.656053,1.27233 -0.218677,0.21867 -0.536762,0.55663 -1.153035,0.55663 -1.570529,0 -1.570529,-1.491 -1.570529,-1.82896 0,-0.63617 0.139165,-1.51089 1.033755,-3.87662 0.238573,-0.61629 0.337969,-0.87472 0.337969,-1.27233 0,-0.83496 -0.596402,-1.5904 -1.570528,-1.5904 -1.828973,0 -2.564532,2.88261 -2.564532,3.04165 0,0.0795 0.07952,0.17892 0.218681,0.17892 0.17892,0 0.1988,-0.0795 0.278321,-0.35784 0.497002,-1.74945 1.272324,-2.46513 2.00789,-2.46513 0.198804,0 0.516877,0.0199 0.516877,0.65604 0,0.0994 0,0.51689 -0.337957,1.39161 -0.93437,2.48501 -1.133163,3.30009 -1.133163,4.05554 0,2.08741 1.709681,2.46513 2.723575,2.46513 0.337957,0 1.23256,0 2.027766,-1.41149 z"
         id="use10380" />
      <path
         inkscape:connector-curvature="0"
         d="m -11.222717,346.59891 c 0,-0.35784 -0.02649,-0.3711 -0.384341,-0.3711 -0.54339,0.53015 -1.245828,0.84822 -2.504899,0.84822 l 0,0.43737 c 0.357841,0 1.073523,0 1.842229,-0.35784 l 0,6.79899 c 0,0.49037 -0.03979,0.64941 -1.29884,0.64941 l -0.463865,0 0,0.43737 c 0.54339,-0.0398 1.683181,-0.0398 2.279582,-0.0398 0.596402,0 1.749449,0 2.2928383,0.0398 l 0,-0.43737 -0.4638653,0 c -1.259071,0 -1.298839,-0.15904 -1.298839,-0.64941 l 0,-7.35564 z"
         id="use10382" />
    </g>
    <g
       id="g11178"
       transform="translate(273.14286,-259.42857)">
      <path
         inkscape:connector-curvature="0"
         d="m 21.108977,350.84662 c 0.437353,1.19281 1.669913,1.41149 2.425363,1.41149 1.510888,0 2.40549,-1.31208 2.962124,-2.68382 0.457249,-1.15303 1.192826,-3.77721 1.192826,-4.95013 0,-1.21269 -0.616297,-1.33197 -0.795217,-1.33197 -0.47711,0 -0.914487,0.47712 -0.914487,0.87472 0,0.23856 0.139212,0.37772 0.238561,0.45725 0.178932,0.17892 0.69581,0.71568 0.69581,1.74945 0,0.67591 -0.556646,2.54464 -0.974127,3.47901 -0.556645,1.21269 -1.292211,2.00788 -2.325966,2.00788 -1.113291,0 -1.471132,-0.83496 -1.471132,-1.74944 0,-0.57652 0.17892,-1.27232 0.258445,-1.61029 l 0.834962,-3.33985 c 0.09936,-0.39761 0.278317,-1.09341 0.278317,-1.17293 0,-0.2982 -0.238549,-0.49701 -0.53675,-0.49701 -0.576529,0 -0.715694,0.49701 -0.834974,0.97413 -0.198805,0.77532 -1.033755,4.13507 -1.113279,4.57242 -0.07946,0.33797 -0.07946,0.55665 -0.07946,0.99401 0,0.47712 -0.63617,1.23256 -0.656054,1.27233 -0.218677,0.21867 -0.53675,0.55663 -1.153035,0.55663 -1.570528,0 -1.570528,-1.491 -1.570528,-1.82896 0,-0.63617 0.139211,-1.51089 1.033766,-3.87662 0.238561,-0.61629 0.337969,-0.87472 0.337969,-1.27233 0,-0.83496 -0.596402,-1.5904 -1.570528,-1.5904 -1.828973,0 -2.564539,2.88261 -2.564539,3.04165 0,0.0795 0.07947,0.17892 0.218677,0.17892 0.17892,0 0.198804,-0.0795 0.278317,-0.35784 0.497005,-1.74945 1.272327,-2.46513 2.007893,-2.46513 0.198804,0 0.516877,0.0199 0.516877,0.65604 0,0.0994 0,0.51689 -0.337957,1.39161 -0.93437,2.48501 -1.133163,3.30009 -1.133163,4.05554 0,2.08741 1.709681,2.46513 2.723576,2.46513 0.337957,0 1.232559,0 2.027777,-1.41149 z"
         id="use10388" />
      <path
         inkscape:connector-curvature="0"
         d="m 31.537729,350.6147 c 1.047034,0 1.709692,0.76869 1.709692,2.1603 0,1.65667 -0.940986,2.14705 -1.643412,2.14705 -0.72895,0 -1.722949,-0.26508 -2.186814,-0.9675 0.477121,0 0.808462,-0.30483 0.808462,-0.7422 0,-0.42409 -0.30484,-0.72892 -0.728949,-0.72892 -0.357841,0 -0.728927,0.2253 -0.728927,0.75543 0,1.25908 1.351852,2.08078 2.862728,2.08078 1.762705,0 2.995276,-1.2193 2.995276,-2.54464 0,-1.10004 -0.87473,-2.10729 -2.226582,-2.39886 1.047023,-0.3711 1.828973,-1.27233 1.828973,-2.33261 0,-1.06027 -1.192803,-1.81572 -2.571155,-1.81572 -1.41812,0 -2.491642,0.76871 -2.491642,1.77596 0,0.49038 0.331329,0.70243 0.675925,0.70243 0.410853,0 0.675914,-0.29157 0.675914,-0.67592 0,-0.49037 -0.424109,-0.67592 -0.71567,-0.68917 0.556634,-0.72894 1.577144,-0.7687 1.815705,-0.7687 0.344585,0 1.351852,0.10607 1.351852,1.47112 0,0.92774 -0.384342,1.48439 -0.569902,1.69644 -0.397597,0.41085 -0.702426,0.43736 -1.510876,0.49037 -0.251817,0.0133 -0.357853,0.0265 -0.357853,0.19881 0,0.18555 0.119351,0.18555 0.344585,0.18555 l 0.66267,0 z"
         id="use10390" />
    </g>
    <g
       id="g11182"
       transform="translate(-1.14286,-43.813894)">
      <path
         inkscape:connector-curvature="0"
         d="m 39.393678,344.06751 2.803099,0 0,-0.57653 -2.803099,0 0,-3.65793 -0.437353,0 c -0.0199,1.86873 -0.735566,3.77721 -2.544655,3.83685 l 0,0.39761 1.689808,0 0,5.52667 c 0,2.20668 1.471132,2.66393 2.524771,2.66393 1.252443,0 1.908485,-1.23257 1.908485,-2.66393 l 0,-1.13317 -0.437353,0 0,1.09341 c 0,1.43136 -0.57653,2.26633 -1.351852,2.26633 -1.351851,0 -1.351851,-1.84885 -1.351851,-2.18682 l 0,-5.56642 z"
         id="use10392" />
      <path
         inkscape:connector-curvature="0"
         d="m 52.469813,347.22844 c 0,-1.84884 0,-2.40549 -0.457238,-3.04165 -0.576517,-0.77532 -1.510888,-0.8946 -2.186814,-0.8946 -1.70968,0 -2.504886,1.2922 -2.783203,1.90849 l -0.0199,0 0,-6.93816 -2.763331,0.21869 0,0.57652 c 1.351851,0 1.510888,0.13916 1.510888,1.11328 l 0,10.41718 c 0,0.8946 -0.218677,0.8946 -1.510888,0.8946 l 0,0.57652 c 0.516877,-0.0398 1.590412,-0.0398 2.147046,-0.0398 0.576529,0 1.650052,0 2.166929,0.0398 l 0,-0.57652 c -1.272327,0 -1.510876,0 -1.510876,-0.8946 l 0,-3.69771 c 0,-2.0874 1.371712,-3.20069 2.604295,-3.20069 1.232559,0 1.510888,1.01388 1.510888,2.22657 l 0,4.67183 c 0,0.8946 -0.2187,0.8946 -1.510888,0.8946 l 0,0.57652 c 0.516877,-0.0398 1.590389,-0.0398 2.147046,-0.0398 0.576517,0 1.65004,0 2.16693,0.0398 l 0,-0.57652 c -0.994011,0 -1.491016,0 -1.5109,-0.5964 l 0,-3.65795 z"
         id="use10394" />
      <path
         inkscape:connector-curvature="0"
         d="m 62.05203,347.44713 c 0.437353,0 0.477121,0 0.477121,-0.37773 0,-2.00789 -1.073523,-3.87662 -3.479025,-3.87662 -2.266314,0 -4.015775,2.04765 -4.015775,4.51278 0,2.62418 2.027777,4.55255 4.234463,4.55255 2.365735,0 3.260337,-2.14706 3.260337,-2.56454 0,-0.11928 -0.09948,-0.19879 -0.218677,-0.19879 -0.159048,0 -0.198816,0.0994 -0.23856,0.19879 -0.51689,1.66994 -1.848845,2.12718 -2.683819,2.12718 -0.834963,0 -2.842856,-0.55665 -2.842856,-3.99591 l 0,-0.37771 5.506791,0 z m -5.486919,-0.37773 c 0.159049,-3.12117 1.908497,-3.47901 2.465131,-3.47901 2.127185,0 2.246454,2.80309 2.266338,3.47901 l -4.731469,0 z"
         id="use10396" />
    </g>
    <g
       id="g11187"
       transform="translate(95.499999,-43.642859)">
      <path
         inkscape:connector-curvature="0"
         d="m 78.305657,343.29219 -0.397609,0 -0.735566,1.84885 c -0.357853,-0.75544 -1.133163,-1.84885 -2.644051,-1.84885 -2.186814,0 -4.254347,1.86873 -4.254347,4.4929 0,2.52477 1.908485,4.47302 4.075415,4.47302 1.073535,0 1.948253,-0.497 2.663947,-1.491 l 0,3.67781 c 0,0.89461 -0.218689,0.89461 -1.510888,0.89461 l 0,0.57651 c 0.516877,-0.0398 1.5904,-0.0398 2.147045,-0.0398 0.57653,0 1.650041,0 2.16693,0.0398 l 0,-0.57651 c -1.272327,0 -1.510876,0 -1.510876,-0.89461 l 0,-11.15273 z m -1.252455,6.10318 c 0,0.63617 -0.357841,1.21269 -0.81509,1.66994 -0.715682,0.73555 -1.47112,0.79519 -1.769321,0.79519 -1.510888,0 -2.683807,-1.86872 -2.683807,-4.07541 0,-2.38561 1.391596,-4.05555 2.862716,-4.05555 1.570528,0 2.405502,1.7097 2.405502,2.74346 l 0,2.92237 z"
         id="use10398" />
      <path
         inkscape:connector-curvature="0"
         d="m 85.894885,343.51087 0,0.57651 c 1.351828,0 1.510876,0.13917 1.510876,1.1133 l 0,3.55853 c 0,1.68981 -0.894602,3.10129 -2.385606,3.10129 -1.630168,0 -1.729577,-0.93436 -1.729577,-1.98801 l 0,-6.5803 -2.803087,0.21868 0,0.57651 c 1.510888,0 1.510888,0.0597 1.510888,1.82898 l 0,2.98202 c 0,1.23256 0,1.94824 0.596402,2.60428 0.477121,0.51689 1.292199,0.75545 2.306094,0.75545 0.337957,0 0.974126,0 1.650052,-0.57653 0.576518,-0.45724 0.894602,-1.21267 0.894602,-1.21267 l 0,1.7892 2.763332,-0.1988 0,-0.57652 c -1.351852,0 -1.510888,-0.13917 -1.510888,-1.11329 l 0,-7.07731 -2.803088,0.21868 z"
         id="use10400" />
      <path
         inkscape:connector-curvature="0"
         d="m 94.125239,339.81317 c 0,-0.51688 -0.417481,-0.97412 -0.974126,-0.97412 -0.516878,0 -0.954255,0.41748 -0.954255,0.95424 0,0.5964 0.477133,0.97413 0.954255,0.97413 0.616273,0 0.974126,-0.51689 0.974126,-0.95425 z m -2.743459,3.6977 0,0.57651 c 1.272327,0 1.451248,0.11929 1.451248,1.09341 l 0,5.4074 c 0,0.8946 -0.218677,0.8946 -1.510888,0.8946 l 0,0.57652 c 0.556657,-0.0398 1.510888,-0.0398 2.087417,-0.0398 0.218677,0 1.371724,0 2.04765,0.0398 l 0,-0.57652 c -1.292212,0 -1.371736,-0.0994 -1.371736,-0.87473 l 0,-7.31587 -2.703691,0.21868 z"
         id="use10402" />
      <path
         inkscape:connector-curvature="0"
         d="m 103.27007,344.70367 c -0.23856,0 -0.97413,0 -0.97413,0.81509 0,0.47712 0.33797,0.81508 0.81508,0.81508 0.45725,0 0.83497,-0.27832 0.83497,-0.85485 0,-1.33197 -1.3916,-2.28621 -3.0019,-2.28621 -2.325967,0 -4.174812,2.06754 -4.174812,4.57242 0,2.54466 1.908497,4.49291 4.154952,4.49291 2.62415,0 3.22056,-2.38562 3.22056,-2.56454 0,-0.17892 -0.13922,-0.17892 -0.1988,-0.17892 -0.17893,0 -0.1988,0.0597 -0.25843,0.2982 -0.43738,1.41149 -1.51089,2.0079 -2.58442,2.0079 -1.212689,0 -2.822974,-1.05364 -2.822974,-4.07542 0,-3.30009 1.689809,-4.11518 2.683804,-4.11518 0.75545,0 1.84885,0.2982 2.3061,1.07352 z"
         id="use10404" />
      <path
         inkscape:connector-curvature="0"
         d="m 109.751,346.79109 c 0,-0.0199 -0.13921,-0.17892 -0.13921,-0.19881 0,-0.0597 1.25244,-1.13316 1.41147,-1.29221 1.37173,-1.1928 2.24646,-1.21269 2.66394,-1.23256 l 0,-0.57653 c -0.39761,0.0398 -0.91448,0.0398 -1.51089,0.0398 -0.51689,0 -1.53076,0 -1.98801,-0.0398 l 0,0.57653 c 0.33796,0.0199 0.57652,0.19881 0.57652,0.51688 0,0.39761 -0.39761,0.75545 -0.41748,0.75545 l -2.84284,2.50489 0,-9.58221 -2.76334,0.21869 0,0.57652 c 1.35184,0 1.51089,0.13916 1.51089,1.11328 l 0,10.41718 c 0,0.8946 -0.2187,0.8946 -1.51089,0.8946 l 0,0.57652 c 0.55664,-0.0398 1.51089,-0.0398 2.10729,-0.0398 0.59641,0 1.55065,0 2.10728,0.0398 l 0,-0.57652 c -1.27233,0 -1.51087,0 -1.51087,-0.8946 l 0,-2.10729 1.27232,-1.11329 1.90849,2.74344 c 0.2982,0.4175 0.43735,0.63617 0.43735,0.91449 0,0.35784 -0.27832,0.45725 -0.69581,0.45725 l 0,0.57652 c 0.49702,-0.0398 1.47115,-0.0398 2.00791,-0.0398 0.85483,0 0.8946,0 1.74944,0.0398 l 0,-0.57652 c -0.53677,0 -1.15304,0 -1.70969,-0.81509 l -2.66393,-3.87661 z"
         id="use10406" />
    </g>
    <g
       id="g11201"
       transform="translate(142.07143,-257.28571)">
      <path
         inkscape:connector-curvature="0"
         d="m 183.30403,344.06751 2.24646,0 0,-0.57653 -2.28621,0 0,-2.32596 c 0,-1.78921 0.91448,-2.70369 1.72956,-2.70369 0.15905,0 0.45725,0.0398 0.69581,0.15903 -0.0795,0.0199 -0.57652,0.19881 -0.57652,0.77532 0,0.45725 0.31808,0.77533 0.77531,0.77533 0.47714,0 0.79522,-0.31808 0.79522,-0.7952 0,-0.73556 -0.71569,-1.31209 -1.66993,-1.31209 -1.39162,0 -2.96213,1.07353 -2.96213,3.1013 l 0,2.32596 -1.55067,0 0,0.57653 1.55067,0 0,6.52068 c 0,0.8946 -0.2187,0.8946 -1.5109,0.8946 l 0,0.57652 c 0.55665,-0.0398 1.65006,-0.0398 2.24646,-0.0398 0.53675,0 1.94825,0 2.40548,0.0398 l 0,-0.57652 -0.39759,0 c -1.45126,0 -1.49102,-0.21869 -1.49102,-0.93437 l 0,-6.48091 z"
         id="use10418" />
      <path
         inkscape:connector-curvature="0"
         d="m 194.95706,347.80497 c 0,-2.56454 -1.94826,-4.61219 -4.25434,-4.61219 -2.38563,0 -4.27423,2.10729 -4.27423,4.61219 0,2.54466 1.98801,4.45314 4.25435,4.45314 2.34584,0 4.27422,-1.94825 4.27422,-4.45314 z m -4.25434,4.01578 c -0.73558,0 -1.63018,-0.31809 -2.2067,-1.2922 -0.53676,-0.89462 -0.55663,-2.06754 -0.55663,-2.9025 0,-0.75545 0,-1.96814 0.61627,-2.86274 0.55665,-0.85485 1.43137,-1.17292 2.12718,-1.17292 0.77531,0 1.61028,0.35784 2.14704,1.13316 0.61629,0.91449 0.61629,2.16693 0.61629,2.9025 0,0.6958 0,1.92837 -0.51688,2.86273 -0.55666,0.95424 -1.47114,1.33197 -2.22657,1.33197 z"
         id="use10420" />
      <path
         inkscape:connector-curvature="0"
         d="m 200.58976,347.36761 c 0.57653,-0.75544 1.41148,-1.82898 1.7892,-2.24646 0.81508,-0.91447 1.74945,-1.05364 2.38561,-1.05364 l 0,-0.57653 c -0.85484,0.0398 -0.8946,0.0398 -1.66992,0.0398 -0.75544,0 -0.79521,0 -1.78921,-0.0398 l 0,0.57653 c 0.25844,0.0398 0.57652,0.15904 0.57652,0.61629 0,0.33796 -0.17892,0.55663 -0.2982,0.71568 l -1.27232,1.61028 -1.55064,-2.04765 c -0.0596,-0.0795 -0.17894,-0.25844 -0.17894,-0.39759 0,-0.11928 0.0994,-0.47714 0.69581,-0.49701 l 0,-0.57653 c -0.49701,0.0398 -1.51089,0.0398 -2.04766,0.0398 -0.65603,0 -0.6958,0 -1.90847,-0.0398 l 0,0.57653 c 1.01387,0 1.39159,0.0398 1.80908,0.57652 l 2.32596,3.04166 c 0.0397,0.0398 0.11935,0.15904 0.11935,0.21868 0,0.0597 -1.55065,2.00789 -1.74945,2.26633 -0.87473,1.07353 -1.74946,1.2922 -2.60429,1.31209 l 0,0.57652 c 0.75545,-0.0398 0.79519,-0.0398 1.65005,-0.0398 0.75544,0 0.7952,0 1.78921,0.0398 l 0,-0.57652 c -0.47714,-0.0597 -0.55665,-0.35784 -0.55665,-0.63617 0,-0.31807 0.13921,-0.47712 0.33797,-0.73556 0.2982,-0.41749 0.95423,-1.23257 1.43136,-1.84885 l 1.63017,2.12717 c 0.33797,0.43737 0.33797,0.47712 0.33797,0.5964 0,0.15904 -0.15905,0.47712 -0.69581,0.49701 l 0,0.57652 c 0.51688,-0.0398 1.491,-0.0398 2.04764,-0.0398 0.65605,0 0.69581,0 1.88861,0.0398 l 0,-0.57652 c -1.05364,0 -1.41148,-0.0398 -1.88861,-0.67593 l -2.60428,-3.43925 z"
         id="use10422" />
    </g>
    <g
       transform="translate(185.07143,-43.813894)"
       id="g11206">
      <path
         id="path11208"
         d="m 124.26677,338.26252 -2.76333,0.21869 0,0.57652 c 1.35185,0 1.51088,0.13916 1.51088,1.11328 l 0,11.8883 0.43738,0 c 0.0795,-0.15904 0.63615,-1.15305 0.71568,-1.2922 0.45723,0.73555 1.31209,1.491 2.5844,1.491 2.28622,0 4.29411,-1.92837 4.29411,-4.49291 0,-2.52477 -1.86873,-4.47301 -4.07541,-4.47301 -1.09342,0 -2.02778,0.49699 -2.70371,1.33197 l 0,-6.36164 z m 0.0397,7.43516 c 0,-0.35784 0,-0.39761 0.21869,-0.71568 0.47711,-0.71568 1.35184,-1.29221 2.32596,-1.29221 0.5964,0 2.68381,0.23856 2.68381,4.05554 0,1.33197 -0.19879,2.16693 -0.67591,2.88261 -0.39761,0.61629 -1.19282,1.23256 -2.18682,1.23256 -1.07353,0 -1.76933,-0.6958 -2.1073,-1.23256 -0.25843,-0.41748 -0.25843,-0.497 -0.25843,-0.83496 l 0,-4.0953 z"
         inkscape:connector-curvature="0" />
      <path
         id="path11210"
         d="m 135.07988,347.42725 c 0,-1.92837 0.7952,-3.73746 2.32598,-3.73746 0.15903,0 0.19879,0 0.27831,0.0199 -0.15905,0.0795 -0.47713,0.1988 -0.47713,0.73556 0,0.57653 0.45725,0.7952 0.77533,0.7952 0.39761,0 0.7952,-0.25843 0.7952,-0.7952 0,-0.5964 -0.53675,-1.15304 -1.3916,-1.15304 -1.68981,0 -2.26634,1.82896 -2.38562,2.20669 l -0.0199,0 0,-2.20669 -2.66394,0.21868 0,0.57652 c 1.35185,0 1.51089,0.13916 1.51089,1.11329 l 0,5.3875 c 0,0.89461 -0.21868,0.89461 -1.51089,0.89461 l 0,0.57652 c 0.55664,-0.0398 1.65006,-0.0398 2.24646,-0.0398 0.53676,0 1.94825,0 2.40549,0.0398 l 0,-0.57652 -0.39761,0 c -1.45125,0 -1.49101,-0.21869 -1.49101,-0.93437 l 0,-3.12117 z"
         inkscape:connector-curvature="0" />
      <path
         id="path11212"
         d="m 148.45589,347.80497 c 0,-2.56454 -1.94826,-4.61219 -4.25435,-4.61219 -2.38561,0 -4.27422,2.10729 -4.27422,4.61219 0,2.54466 1.98801,4.45314 4.25435,4.45314 2.34585,0 4.27422,-1.94825 4.27422,-4.45314 z m -4.25435,4.01578 c -0.73556,0 -1.63016,-0.31809 -2.20669,-1.2922 -0.53677,-0.89462 -0.55664,-2.06754 -0.55664,-2.9025 0,-0.75545 0,-1.96814 0.61627,-2.86274 0.55666,-0.85485 1.43138,-1.17292 2.12719,-1.17292 0.77532,0 1.61027,0.35784 2.14704,1.13316 0.61629,0.91449 0.61629,2.16693 0.61629,2.9025 0,0.6958 0,1.92837 -0.51689,2.86273 -0.55665,0.95424 -1.47112,1.33197 -2.22657,1.33197 z"
         inkscape:connector-curvature="0" />
      <path
         id="path11214"
         d="m 160.54962,345.3796 c 0.43735,-1.25245 1.31207,-1.29222 1.65004,-1.31209 l 0,-0.57653 c -0.49701,0.0398 -0.85485,0.0398 -1.47113,0.0398 -0.57652,0 -0.61628,0 -1.6898,-0.0398 l 0,0.57653 c 0.8946,0.0398 1.13316,0.57652 1.13316,0.95425 0,0.0199 0,0.15903 -0.0795,0.35784 l -1.82898,5.20859 -1.988,-5.62608 c -0.0994,-0.23856 -0.0994,-0.27831 -0.0994,-0.33795 0,-0.55665 0.73556,-0.55665 1.15305,-0.55665 l 0,-0.57653 c -0.55664,0.0398 -1.37173,0.0398 -1.94825,0.0398 -0.63617,0 -0.67593,0 -1.78921,-0.0398 l 0,0.57653 c 0.75545,0 1.01389,0.0398 1.23256,0.2982 0.0995,0.11928 0.33797,0.77533 0.47714,1.17292 l -1.68981,4.85075 -1.9085,-5.40738 c -0.0994,-0.25845 -0.0994,-0.2982 -0.0994,-0.37773 0,-0.53676 0.77532,-0.53676 1.15305,-0.53676 l 0,-0.57653 c -0.49701,0.0398 -1.49101,0.0398 -2.02778,0.0398 -0.55663,0 -0.5964,0 -1.84885,-0.0398 l 0,0.57653 c 1.0139,0 1.21269,0.0795 1.43138,0.71568 l 2.5049,7.11708 c 0.0795,0.21868 0.13921,0.35784 0.35783,0.35784 0.17892,0 0.27833,-0.0597 0.37772,-0.37772 l 1.98801,-5.66583 1.988,5.66583 c 0.0994,0.31808 0.19882,0.37772 0.37772,0.37772 0.21868,0 0.27833,-0.13916 0.35786,-0.35784 l 2.28621,-6.52067 z"
         inkscape:connector-curvature="0" />
      <path
         id="path11216"
         d="m 171.42733,347.22844 c 0,-1.84884 0,-2.40549 -0.45725,-3.04165 -0.57653,-0.77532 -1.51089,-0.8946 -2.18681,-0.8946 -1.92836,0 -2.68381,1.65004 -2.84285,2.04765 l -0.0199,0 0,-2.04765 -2.70372,0.21868 0,0.57651 c 1.35187,0 1.51092,0.13917 1.51092,1.1133 l 0,5.38751 c 0,0.8946 -0.21871,0.8946 -1.51092,0.8946 l 0,0.57652 c 0.5169,-0.0398 1.59042,-0.0398 2.14706,-0.0398 0.57653,0 1.65005,0 2.16694,0.0398 l 0,-0.57652 c -1.27232,0 -1.5109,0 -1.5109,-0.8946 l 0,-3.69771 c 0,-2.0874 1.37174,-3.20069 2.6043,-3.20069 1.23257,0 1.51089,1.01388 1.51089,2.22657 l 0,4.67183 c 0,0.8946 -0.21868,0.8946 -1.51089,0.8946 l 0,0.57652 c 0.51688,-0.0398 1.59041,-0.0398 2.14706,-0.0398 0.57651,0 1.65005,0 2.16693,0.0398 l 0,-0.57652 c -0.99402,0 -1.49101,0 -1.51089,-0.5964 l 0,-3.65795 z"
         inkscape:connector-curvature="0" />
    </g>
    <g
       transform="translate(281,-45.720339)"
       id="g11218">
      <path
         id="path11220"
         d="m -0.67464974,350.84662 c 0.43735333,1.19281 1.6699245,1.41149 2.42537914,1.41149 1.510888,0 2.4054904,-1.31208 2.962124,-2.68382 0.4572491,-1.15303 1.1928032,-3.77721 1.1928032,-4.95013 0,-1.21269 -0.6162856,-1.33197 -0.7951943,-1.33197 -0.477133,0 -0.9144864,0.47712 -0.9144864,0.87472 0,0.23856 0.1392114,0.37772 0.2385607,0.45725 0.1789087,0.17892 0.6958097,0.71568 0.6958097,1.74945 0,0.67591 -0.5566572,2.54464 -0.9741265,3.47901 -0.5566455,1.21269 -1.2922114,2.00788 -2.3259781,2.00788 -1.11328376,0 -1.4711365,-0.83496 -1.4711365,-1.74944 0,-0.57652 0.17892048,-1.27232 0.25844462,-1.61029 l 0.83496228,-3.33985 c 0.099361,-0.39761 0.2783333,-1.09341 0.2783333,-1.17293 0,-0.2982 -0.2385771,-0.49701 -0.536778,-0.49701 -0.57651758,0 -0.71568188,0.49701 -0.8349622,0.97413 -0.19879269,0.77532 -1.03375494,4.13507 -1.11327908,4.57242 -0.0794653,0.33797 -0.0794653,0.55665 -0.0794653,0.99401 0,0.47712 -0.63616952,1.23256 -0.65604172,1.27233 -0.2186885,0.21867 -0.5367615,0.55663 -1.153047,0.55663 -1.5705283,0 -1.5705283,-1.491 -1.5705283,-1.82896 0,-0.63617 0.1391643,-1.51089 1.0337668,-3.87662 0.2385606,-0.61629 0.337957,-0.87472 0.337957,-1.27233 0,-0.83496 -0.5964016,-1.5904 -1.5705282,-1.5904 -1.828961,0 -2.5645269,2.88261 -2.5645269,3.04165 0,0.0795 0.079465,0.17892 0.2186767,0.17892 0.1789205,0 0.1988044,-0.0795 0.2783168,-0.35784 0.4970052,-1.74945 1.2723273,-2.46513 2.0078932,-2.46513 0.1988045,0 0.5168893,0.0199 0.5168893,0.65604 0,0.0994 0,0.51689 -0.3379688,1.39161 -0.9343586,2.48501 -1.133163,3.30009 -1.133163,4.05554 0,2.08741 1.7096925,2.46513 2.7235752,2.46513 0.337957,0 1.2325594,0 2.02776542,-1.41149 z"
         inkscape:connector-curvature="0" />
      <path
         id="path11222"
         d="m 10.13846,352.33763 c 0.212061,-0.1988 0.768694,-0.63615 0.980755,-0.8217 0.821718,-0.75545 1.603668,-1.48439 1.603668,-2.69045 0,-1.57716 -1.325351,-2.59767 -2.9820199,-2.59767 -1.5904004,0 -2.6374231,1.20606 -2.6374231,2.38562 0,0.64942 0.5168893,0.7422 0.702426,0.7422 0.2783168,0 0.6891817,-0.19881 0.6891817,-0.70244 0,-0.68917 -0.6626698,-0.68917 -0.821718,-0.68917 0.3843529,-0.9675 1.2723273,-1.29884 1.9217529,-1.29884 1.2325714,0 1.8687294,1.04702 1.8687294,2.1603 0,1.37835 -0.967499,2.38562 -2.531411,3.98928 l -1.6699127,1.72293 C 7.10344,354.68348 7.10344,354.71 7.10344,355.04133 l 5.23509,0 0.384353,-2.37237 -0.410853,0 c -0.03967,0.26508 -0.145828,0.92775 -0.304841,1.17956 -0.07947,0.10607 -1.086767,0.10607 -1.298827,0.10607 l -2.3591066,0 1.7892046,-1.61691 z"
         inkscape:connector-curvature="0" />
    </g>
    <g
       transform="translate(16.357144,-257.29177)"
       id="g11224">
      <path
         id="path11226"
         d="m -22.459931,350.84662 c 0.437365,1.19281 1.669936,1.41149 2.425374,1.41149 1.510888,0 2.405491,-1.31208 2.962136,-2.68382 0.457237,-1.15303 1.192803,-3.77721 1.192803,-4.95013 0,-1.21269 -0.616286,-1.33197 -0.795206,-1.33197 -0.477121,0 -0.914474,0.47712 -0.914474,0.87472 0,0.23856 0.139164,0.37772 0.23856,0.45725 0.178921,0.17892 0.695798,0.71568 0.695798,1.74945 0,0.67591 -0.556645,2.54464 -0.974126,3.47901 -0.556646,1.21269 -1.2922,2.00788 -2.325966,2.00788 -1.113291,0 -1.471132,-0.83496 -1.471132,-1.74944 0,-0.57652 0.17892,-1.27232 0.258444,-1.61029 l 0.834963,-3.33985 c 0.09936,-0.39761 0.278316,-1.09341 0.278316,-1.17293 0,-0.2982 -0.23856,-0.49701 -0.536761,-0.49701 -0.576518,0 -0.715682,0.49701 -0.834962,0.97413 -0.198805,0.77532 -1.033767,4.13507 -1.113279,4.57242 -0.07947,0.33797 -0.07947,0.55665 -0.07947,0.99401 0,0.47712 -0.636169,1.23256 -0.656053,1.27233 -0.218677,0.21867 -0.536762,0.55663 -1.153035,0.55663 -1.570529,0 -1.570529,-1.491 -1.570529,-1.82896 0,-0.63617 0.139165,-1.51089 1.033755,-3.87662 0.238573,-0.61629 0.337969,-0.87472 0.337969,-1.27233 0,-0.83496 -0.596402,-1.5904 -1.570528,-1.5904 -1.828973,0 -2.564532,2.88261 -2.564532,3.04165 0,0.0795 0.07952,0.17892 0.218681,0.17892 0.17892,0 0.1988,-0.0795 0.278321,-0.35784 0.497002,-1.74945 1.272324,-2.46513 2.00789,-2.46513 0.198804,0 0.516877,0.0199 0.516877,0.65604 0,0.0994 0,0.51689 -0.337957,1.39161 -0.93437,2.48501 -1.133163,3.30009 -1.133163,4.05554 0,2.08741 1.709681,2.46513 2.723575,2.46513 0.337957,0 1.23256,0 2.027766,-1.41149 z"
         inkscape:connector-curvature="0" />
      <path
         id="path11228"
         d="m -11.222717,346.59891 c 0,-0.35784 -0.02649,-0.3711 -0.384341,-0.3711 -0.54339,0.53015 -1.245828,0.84822 -2.504899,0.84822 l 0,0.43737 c 0.357841,0 1.073523,0 1.842229,-0.35784 l 0,6.79899 c 0,0.49037 -0.03979,0.64941 -1.29884,0.64941 l -0.463865,0 0,0.43737 c 0.54339,-0.0398 1.683181,-0.0398 2.279582,-0.0398 0.596402,0 1.749449,0 2.2928383,0.0398 l 0,-0.43737 -0.4638653,0 c -1.259071,0 -1.298839,-0.15904 -1.298839,-0.64941 l 0,-7.35564 z"
         inkscape:connector-curvature="0" />
    </g>
    <g
       transform="translate(-49.142857,-255.21429)"
       id="g11230">
      <path
         id="path11232"
         d="m 78.305657,343.29219 -0.397609,0 -0.735566,1.84885 c -0.357853,-0.75544 -1.133163,-1.84885 -2.644051,-1.84885 -2.186814,0 -4.254347,1.86873 -4.254347,4.4929 0,2.52477 1.908485,4.47302 4.075415,4.47302 1.073535,0 1.948253,-0.497 2.663947,-1.491 l 0,3.67781 c 0,0.89461 -0.218689,0.89461 -1.510888,0.89461 l 0,0.57651 c 0.516877,-0.0398 1.5904,-0.0398 2.147045,-0.0398 0.57653,0 1.650041,0 2.16693,0.0398 l 0,-0.57651 c -1.272327,0 -1.510876,0 -1.510876,-0.89461 l 0,-11.15273 z m -1.252455,6.10318 c 0,0.63617 -0.357841,1.21269 -0.81509,1.66994 -0.715682,0.73555 -1.47112,0.79519 -1.769321,0.79519 -1.510888,0 -2.683807,-1.86872 -2.683807,-4.07541 0,-2.38561 1.391596,-4.05555 2.862716,-4.05555 1.570528,0 2.405502,1.7097 2.405502,2.74346 l 0,2.92237 z"
         inkscape:connector-curvature="0" />
      <path
         id="path11234"
         d="m 85.894885,343.51087 0,0.57651 c 1.351828,0 1.510876,0.13917 1.510876,1.1133 l 0,3.55853 c 0,1.68981 -0.894602,3.10129 -2.385606,3.10129 -1.630168,0 -1.729577,-0.93436 -1.729577,-1.98801 l 0,-6.5803 -2.803087,0.21868 0,0.57651 c 1.510888,0 1.510888,0.0597 1.510888,1.82898 l 0,2.98202 c 0,1.23256 0,1.94824 0.596402,2.60428 0.477121,0.51689 1.292199,0.75545 2.306094,0.75545 0.337957,0 0.974126,0 1.650052,-0.57653 0.576518,-0.45724 0.894602,-1.21267 0.894602,-1.21267 l 0,1.7892 2.763332,-0.1988 0,-0.57652 c -1.351852,0 -1.510888,-0.13917 -1.510888,-1.11329 l 0,-7.07731 -2.803088,0.21868 z"
         inkscape:connector-curvature="0" />
      <path
         id="path11236"
         d="m 94.125239,339.81317 c 0,-0.51688 -0.417481,-0.97412 -0.974126,-0.97412 -0.516878,0 -0.954255,0.41748 -0.954255,0.95424 0,0.5964 0.477133,0.97413 0.954255,0.97413 0.616273,0 0.974126,-0.51689 0.974126,-0.95425 z m -2.743459,3.6977 0,0.57651 c 1.272327,0 1.451248,0.11929 1.451248,1.09341 l 0,5.4074 c 0,0.8946 -0.218677,0.8946 -1.510888,0.8946 l 0,0.57652 c 0.556657,-0.0398 1.510888,-0.0398 2.087417,-0.0398 0.218677,0 1.371724,0 2.04765,0.0398 l 0,-0.57652 c -1.292212,0 -1.371736,-0.0994 -1.371736,-0.87473 l 0,-7.31587 -2.703691,0.21868 z"
         inkscape:connector-curvature="0" />
      <path
         id="path11238"
         d="m 103.27007,344.70367 c -0.23856,0 -0.97413,0 -0.97413,0.81509 0,0.47712 0.33797,0.81508 0.81508,0.81508 0.45725,0 0.83497,-0.27832 0.83497,-0.85485 0,-1.33197 -1.3916,-2.28621 -3.0019,-2.28621 -2.325967,0 -4.174812,2.06754 -4.174812,4.57242 0,2.54466 1.908497,4.49291 4.154952,4.49291 2.62415,0 3.22056,-2.38562 3.22056,-2.56454 0,-0.17892 -0.13922,-0.17892 -0.1988,-0.17892 -0.17893,0 -0.1988,0.0597 -0.25843,0.2982 -0.43738,1.41149 -1.51089,2.0079 -2.58442,2.0079 -1.212689,0 -2.822974,-1.05364 -2.822974,-4.07542 0,-3.30009 1.689809,-4.11518 2.683804,-4.11518 0.75545,0 1.84885,0.2982 2.3061,1.07352 z"
         inkscape:connector-curvature="0" />
      <path
         id="path11240"
         d="m 109.751,346.79109 c 0,-0.0199 -0.13921,-0.17892 -0.13921,-0.19881 0,-0.0597 1.25244,-1.13316 1.41147,-1.29221 1.37173,-1.1928 2.24646,-1.21269 2.66394,-1.23256 l 0,-0.57653 c -0.39761,0.0398 -0.91448,0.0398 -1.51089,0.0398 -0.51689,0 -1.53076,0 -1.98801,-0.0398 l 0,0.57653 c 0.33796,0.0199 0.57652,0.19881 0.57652,0.51688 0,0.39761 -0.39761,0.75545 -0.41748,0.75545 l -2.84284,2.50489 0,-9.58221 -2.76334,0.21869 0,0.57652 c 1.35184,0 1.51089,0.13916 1.51089,1.11328 l 0,10.41718 c 0,0.8946 -0.2187,0.8946 -1.51089,0.8946 l 0,0.57652 c 0.55664,-0.0398 1.51089,-0.0398 2.10729,-0.0398 0.59641,0 1.55065,0 2.10728,0.0398 l 0,-0.57652 c -1.27233,0 -1.51087,0 -1.51087,-0.8946 l 0,-2.10729 1.27232,-1.11329 1.90849,2.74344 c 0.2982,0.4175 0.43735,0.63617 0.43735,0.91449 0,0.35784 -0.27832,0.45725 -0.69581,0.45725 l 0,0.57652 c 0.49702,-0.0398 1.47115,-0.0398 2.00791,-0.0398 0.85483,0 0.8946,0 1.74944,0.0398 l 0,-0.57652 c -0.53677,0 -1.15304,0 -1.70969,-0.81509 l -2.66393,-3.87661 z"
         inkscape:connector-curvature="0" />
    </g>
    <g
       id="g11242"
       transform="translate(38.428574,-255.38532)">
      <path
         inkscape:connector-curvature="0"
         d="m 124.26677,338.26252 -2.76333,0.21869 0,0.57652 c 1.35185,0 1.51088,0.13916 1.51088,1.11328 l 0,11.8883 0.43738,0 c 0.0795,-0.15904 0.63615,-1.15305 0.71568,-1.2922 0.45723,0.73555 1.31209,1.491 2.5844,1.491 2.28622,0 4.29411,-1.92837 4.29411,-4.49291 0,-2.52477 -1.86873,-4.47301 -4.07541,-4.47301 -1.09342,0 -2.02778,0.49699 -2.70371,1.33197 l 0,-6.36164 z m 0.0397,7.43516 c 0,-0.35784 0,-0.39761 0.21869,-0.71568 0.47711,-0.71568 1.35184,-1.29221 2.32596,-1.29221 0.5964,0 2.68381,0.23856 2.68381,4.05554 0,1.33197 -0.19879,2.16693 -0.67591,2.88261 -0.39761,0.61629 -1.19282,1.23256 -2.18682,1.23256 -1.07353,0 -1.76933,-0.6958 -2.1073,-1.23256 -0.25843,-0.41748 -0.25843,-0.497 -0.25843,-0.83496 l 0,-4.0953 z"
         id="path11244" />
      <path
         inkscape:connector-curvature="0"
         d="m 135.07988,347.42725 c 0,-1.92837 0.7952,-3.73746 2.32598,-3.73746 0.15903,0 0.19879,0 0.27831,0.0199 -0.15905,0.0795 -0.47713,0.1988 -0.47713,0.73556 0,0.57653 0.45725,0.7952 0.77533,0.7952 0.39761,0 0.7952,-0.25843 0.7952,-0.7952 0,-0.5964 -0.53675,-1.15304 -1.3916,-1.15304 -1.68981,0 -2.26634,1.82896 -2.38562,2.20669 l -0.0199,0 0,-2.20669 -2.66394,0.21868 0,0.57652 c 1.35185,0 1.51089,0.13916 1.51089,1.11329 l 0,5.3875 c 0,0.89461 -0.21868,0.89461 -1.51089,0.89461 l 0,0.57652 c 0.55664,-0.0398 1.65006,-0.0398 2.24646,-0.0398 0.53676,0 1.94825,0 2.40549,0.0398 l 0,-0.57652 -0.39761,0 c -1.45125,0 -1.49101,-0.21869 -1.49101,-0.93437 l 0,-3.12117 z"
         id="path11246" />
      <path
         inkscape:connector-curvature="0"
         d="m 148.45589,347.80497 c 0,-2.56454 -1.94826,-4.61219 -4.25435,-4.61219 -2.38561,0 -4.27422,2.10729 -4.27422,4.61219 0,2.54466 1.98801,4.45314 4.25435,4.45314 2.34585,0 4.27422,-1.94825 4.27422,-4.45314 z m -4.25435,4.01578 c -0.73556,0 -1.63016,-0.31809 -2.20669,-1.2922 -0.53677,-0.89462 -0.55664,-2.06754 -0.55664,-2.9025 0,-0.75545 0,-1.96814 0.61627,-2.86274 0.55666,-0.85485 1.43138,-1.17292 2.12719,-1.17292 0.77532,0 1.61027,0.35784 2.14704,1.13316 0.61629,0.91449 0.61629,2.16693 0.61629,2.9025 0,0.6958 0,1.92837 -0.51689,2.86273 -0.55665,0.95424 -1.47112,1.33197 -2.22657,1.33197 z"
         id="path11248" />
      <path
         inkscape:connector-curvature="0"
         d="m 160.54962,345.3796 c 0.43735,-1.25245 1.31207,-1.29222 1.65004,-1.31209 l 0,-0.57653 c -0.49701,0.0398 -0.85485,0.0398 -1.47113,0.0398 -0.57652,0 -0.61628,0 -1.6898,-0.0398 l 0,0.57653 c 0.8946,0.0398 1.13316,0.57652 1.13316,0.95425 0,0.0199 0,0.15903 -0.0795,0.35784 l -1.82898,5.20859 -1.988,-5.62608 c -0.0994,-0.23856 -0.0994,-0.27831 -0.0994,-0.33795 0,-0.55665 0.73556,-0.55665 1.15305,-0.55665 l 0,-0.57653 c -0.55664,0.0398 -1.37173,0.0398 -1.94825,0.0398 -0.63617,0 -0.67593,0 -1.78921,-0.0398 l 0,0.57653 c 0.75545,0 1.01389,0.0398 1.23256,0.2982 0.0995,0.11928 0.33797,0.77533 0.47714,1.17292 l -1.68981,4.85075 -1.9085,-5.40738 c -0.0994,-0.25845 -0.0994,-0.2982 -0.0994,-0.37773 0,-0.53676 0.77532,-0.53676 1.15305,-0.53676 l 0,-0.57653 c -0.49701,0.0398 -1.49101,0.0398 -2.02778,0.0398 -0.55663,0 -0.5964,0 -1.84885,-0.0398 l 0,0.57653 c 1.0139,0 1.21269,0.0795 1.43138,0.71568 l 2.5049,7.11708 c 0.0795,0.21868 0.13921,0.35784 0.35783,0.35784 0.17892,0 0.27833,-0.0597 0.37772,-0.37772 l 1.98801,-5.66583 1.988,5.66583 c 0.0994,0.31808 0.19882,0.37772 0.37772,0.37772 0.21868,0 0.27833,-0.13916 0.35786,-0.35784 l 2.28621,-6.52067 z"
         id="path11250" />
      <path
         inkscape:connector-curvature="0"
         d="m 171.42733,347.22844 c 0,-1.84884 0,-2.40549 -0.45725,-3.04165 -0.57653,-0.77532 -1.51089,-0.8946 -2.18681,-0.8946 -1.92836,0 -2.68381,1.65004 -2.84285,2.04765 l -0.0199,0 0,-2.04765 -2.70372,0.21868 0,0.57651 c 1.35187,0 1.51092,0.13917 1.51092,1.1133 l 0,5.38751 c 0,0.8946 -0.21871,0.8946 -1.51092,0.8946 l 0,0.57652 c 0.5169,-0.0398 1.59042,-0.0398 2.14706,-0.0398 0.57653,0 1.65005,0 2.16694,0.0398 l 0,-0.57652 c -1.27232,0 -1.5109,0 -1.5109,-0.8946 l 0,-3.69771 c 0,-2.0874 1.37174,-3.20069 2.6043,-3.20069 1.23257,0 1.51089,1.01388 1.51089,2.22657 l 0,4.67183 c 0,0.8946 -0.21868,0.8946 -1.51089,0.8946 l 0,0.57652 c 0.51688,-0.0398 1.59041,-0.0398 2.14706,-0.0398 0.57651,0 1.65005,0 2.16693,0.0398 l 0,-0.57652 c -0.99402,0 -1.49101,0 -1.51089,-0.5964 l 0,-3.65795 z"
         id="path11252" />
    </g>
    <g
       id="g11254"
       transform="translate(136.35714,-257.29177)">
      <path
         inkscape:connector-curvature="0"
         d="m -0.67464974,350.84662 c 0.43735333,1.19281 1.6699245,1.41149 2.42537914,1.41149 1.510888,0 2.4054904,-1.31208 2.962124,-2.68382 0.4572491,-1.15303 1.1928032,-3.77721 1.1928032,-4.95013 0,-1.21269 -0.6162856,-1.33197 -0.7951943,-1.33197 -0.477133,0 -0.9144864,0.47712 -0.9144864,0.87472 0,0.23856 0.1392114,0.37772 0.2385607,0.45725 0.1789087,0.17892 0.6958097,0.71568 0.6958097,1.74945 0,0.67591 -0.5566572,2.54464 -0.9741265,3.47901 -0.5566455,1.21269 -1.2922114,2.00788 -2.3259781,2.00788 -1.11328376,0 -1.4711365,-0.83496 -1.4711365,-1.74944 0,-0.57652 0.17892048,-1.27232 0.25844462,-1.61029 l 0.83496228,-3.33985 c 0.099361,-0.39761 0.2783333,-1.09341 0.2783333,-1.17293 0,-0.2982 -0.2385771,-0.49701 -0.536778,-0.49701 -0.57651758,0 -0.71568188,0.49701 -0.8349622,0.97413 -0.19879269,0.77532 -1.03375494,4.13507 -1.11327908,4.57242 -0.0794653,0.33797 -0.0794653,0.55665 -0.0794653,0.99401 0,0.47712 -0.63616952,1.23256 -0.65604172,1.27233 -0.2186885,0.21867 -0.5367615,0.55663 -1.153047,0.55663 -1.5705283,0 -1.5705283,-1.491 -1.5705283,-1.82896 0,-0.63617 0.1391643,-1.51089 1.0337668,-3.87662 0.2385606,-0.61629 0.337957,-0.87472 0.337957,-1.27233 0,-0.83496 -0.5964016,-1.5904 -1.5705282,-1.5904 -1.828961,0 -2.5645269,2.88261 -2.5645269,3.04165 0,0.0795 0.079465,0.17892 0.2186767,0.17892 0.1789205,0 0.1988044,-0.0795 0.2783168,-0.35784 0.4970052,-1.74945 1.2723273,-2.46513 2.0078932,-2.46513 0.1988045,0 0.5168893,0.0199 0.5168893,0.65604 0,0.0994 0,0.51689 -0.3379688,1.39161 -0.9343586,2.48501 -1.133163,3.30009 -1.133163,4.05554 0,2.08741 1.7096925,2.46513 2.7235752,2.46513 0.337957,0 1.2325594,0 2.02776542,-1.41149 z"
         id="path11256" />
      <path
         inkscape:connector-curvature="0"
         d="m 10.13846,352.33763 c 0.212061,-0.1988 0.768694,-0.63615 0.980755,-0.8217 0.821718,-0.75545 1.603668,-1.48439 1.603668,-2.69045 0,-1.57716 -1.325351,-2.59767 -2.9820199,-2.59767 -1.5904004,0 -2.6374231,1.20606 -2.6374231,2.38562 0,0.64942 0.5168893,0.7422 0.702426,0.7422 0.2783168,0 0.6891817,-0.19881 0.6891817,-0.70244 0,-0.68917 -0.6626698,-0.68917 -0.821718,-0.68917 0.3843529,-0.9675 1.2723273,-1.29884 1.9217529,-1.29884 1.2325714,0 1.8687294,1.04702 1.8687294,2.1603 0,1.37835 -0.967499,2.38562 -2.531411,3.98928 l -1.6699127,1.72293 C 7.10344,354.68348 7.10344,354.71 7.10344,355.04133 l 5.23509,0 0.384353,-2.37237 -0.410853,0 c -0.03967,0.26508 -0.145828,0.92775 -0.304841,1.17956 -0.07947,0.10607 -1.086767,0.10607 -1.298827,0.10607 l -2.3591066,0 1.7892046,-1.61691 z"
         id="path11258" />
    </g>
    <path
       inkscape:connector-curvature="0"
       id="path11266"
       d="m 1.73481,289.3404 0,-26.26397"
       style="fill:none;stroke:#000000;stroke-width:1px;stroke-linecap:butt;stroke-linejoin:miter;stroke-opacity:1;marker-start:none;marker-end:url(#marker11268)" />
    <path
       style="fill:none;stroke:#000000;stroke-width:1px;stroke-linecap:butt;stroke-linejoin:miter;stroke-opacity:1;marker-start:none;marker-end:url(#marker11442)"
       d="m 137.73481,289.3404 0,-26.26397"
       id="path11440"
       inkscape:connector-curvature="0" />
    <path
       inkscape:connector-curvature="0"
       id="path11596"
       d="m 283.73481,289.3404 0,-26.26397"
       style="fill:none;stroke:#000000;stroke-width:1px;stroke-linecap:butt;stroke-linejoin:miter;stroke-opacity:1;marker-start:none;marker-end:url(#marker11598)" />
    <path
       inkscape:connector-curvature="0"
       d="m 161.32119,280.69168 -0.83497,0 c -0.41748,2.96214 -1.15304,4.51278 -4.61218,4.51278 l -3.10129,0 0,-5.74534 1.17292,0 c 1.90849,0 2.10729,0.81508 2.10729,2.32597 l 0.83497,0 0,-5.50678 -0.83497,0 c 0,1.491 -0.1988,2.32596 -2.10729,2.32596 l -1.17292,0 0,-5.22846 3.10129,0 c 3.04166,0 3.6977,1.2922 3.9959,3.85674 l 0.83496,0 -0.57652,-4.71158 -12.0871,0 0,0.85484 2.10729,0 0,11.82865 -2.10729,0 0,0.85485 12.42506,0 0.85485,-5.36763 z"
       id="path11764" />
    <path
       id="path11766"
       d="m 309.32119,280.69168 -0.83497,0 c -0.41748,2.96214 -1.15304,4.51278 -4.61218,4.51278 l -3.10129,0 0,-5.74534 1.17292,0 c 1.90849,0 2.10729,0.81508 2.10729,2.32597 l 0.83497,0 0,-5.50678 -0.83497,0 c 0,1.491 -0.1988,2.32596 -2.10729,2.32596 l -1.17292,0 0,-5.22846 3.10129,0 c 3.04166,0 3.6977,1.2922 3.9959,3.85674 l 0.83496,0 -0.57652,-4.71158 -12.0871,0 0,0.85484 2.10729,0 0,11.82865 -2.10729,0 0,0.85485 12.42506,0 0.85485,-5.36763 z"
       inkscape:connector-curvature="0" />
    <g
       transform="matrix(0.78745482,0,0,0.78745482,250.88474,-115.84775)"
       id="g11778">
      <path
         id="path11780"
         d="m -77.979398,339.75353 c 0.139168,-0.35785 0.17892,-0.47713 1.84885,-0.47713 l 0,-0.85483 c -0.994005,0.0398 -1.033766,0.0398 -2.166931,0.0398 -0.576523,0 -2.027769,0 -2.504892,-0.0398 l 0,0.85483 c 0.238561,0 1.98801,0 1.98801,0.27833 0,0.0199 0,0.0597 -0.07952,0.23856 l -3.339857,8.86653 -3.558536,-9.38342 1.888609,0 0,-0.85483 c -0.636163,0.0398 -2.485012,0.0398 -3.240456,0.0398 -0.616283,0 -2.544652,0 -3.021775,-0.0398 l 0,0.85483 1.669929,0 0.815083,2.14706 -2.723572,7.23636 -3.538657,-9.38342 1.868729,0 0,-0.85483 c -0.576524,0.0398 -2.524772,0.0398 -3.240455,0.0398 -0.636163,0 -2.524772,0 -3.021774,-0.0398 l 0,0.85483 1.669928,0 4.731461,12.48471 c 0.119287,0.33796 0.178922,0.47712 0.616284,0.47712 0.437362,0 0.497003,-0.13916 0.616283,-0.45724 l 3.459135,-9.16473 3.479017,9.16473 c 0.119286,0.31808 0.178922,0.45724 0.616284,0.45724 0.377721,0 0.477122,-0.0795 0.616282,-0.45724 l 4.552546,-12.02746 z"
         inkscape:connector-curvature="0" />
      <path
         id="path11782"
         d="m -67.701561,340.96174 c 0,-1.66993 -1.17955,-3.14106 -3.604922,-3.14106 -2.438625,0 -3.604924,1.48439 -3.604924,3.14106 0,1.57715 1.166299,2.98202 3.604924,2.98202 2.465131,0 3.604922,-1.41812 3.604922,-2.98202 z m -3.604922,2.35911 c -1.815716,0 -1.815716,-1.3651 -1.815716,-2.51815 0,-1.08678 0,-2.42537 1.815716,-2.42537 1.815715,0 1.815715,1.35185 1.815715,2.42537 0,1.15305 0,2.51815 -1.815715,2.51815 z"
         inkscape:connector-curvature="0" />
      <path
         id="path11784"
         d="m -61.996464,337.97973 0,0.68917 c 0.781952,0 0.874725,0 0.874725,0.51689 l 0,2.51814 c 0,1.00726 -0.702431,1.68318 -1.775955,1.68318 -1.073524,0 -1.113285,-0.30483 -1.113285,-0.98075 l 0,-4.53265 -2.491638,0.10607 0,0.68917 c 0.78195,0 0.874724,0 0.874724,0.51689 l 0,3.03502 c 0,1.48439 1.245818,1.72295 2.544652,1.72295 0.437362,0 1.325339,0 2.041023,-0.92775 l 0,0.92775 2.412118,-0.0928 0,-0.68917 c -0.78195,0 -0.874725,0 -0.874725,-0.51689 l 0,-4.77123 -2.491639,0.10607 z"
         inkscape:connector-curvature="0" />
      <path
         id="path11786"
         d="m -55.162681,338.65566 2.06753,0 0,-0.68919 -2.06753,0 0,-2.53139 -0.74219,0 c -0.01324,1.31208 -0.689176,2.63742 -2.014515,2.66393 l 0,0.55665 1.139791,0 0,3.56515 c 0,1.36511 1.073525,1.72295 2.200063,1.72295 1.007258,0 1.749449,-0.67593 1.749449,-1.72295 l 0,-0.67591 -0.742191,0 0,0.64941 c 0,0.91449 -0.503629,1.12654 -0.808457,1.12654 -0.768696,0 -0.78195,-0.70243 -0.78195,-1.06027 l 0,-3.60492 z"
         inkscape:connector-curvature="0" />
    </g>
    <g
       id="g11788"
       transform="matrix(0.78745482,0,0,0.78745482,390.88474,-115.84775)">
      <path
         inkscape:connector-curvature="0"
         d="m -77.979398,339.75353 c 0.139168,-0.35785 0.17892,-0.47713 1.84885,-0.47713 l 0,-0.85483 c -0.994005,0.0398 -1.033766,0.0398 -2.166931,0.0398 -0.576523,0 -2.027769,0 -2.504892,-0.0398 l 0,0.85483 c 0.238561,0 1.98801,0 1.98801,0.27833 0,0.0199 0,0.0597 -0.07952,0.23856 l -3.339857,8.86653 -3.558536,-9.38342 1.888609,0 0,-0.85483 c -0.636163,0.0398 -2.485012,0.0398 -3.240456,0.0398 -0.616283,0 -2.544652,0 -3.021775,-0.0398 l 0,0.85483 1.669929,0 0.815083,2.14706 -2.723572,7.23636 -3.538657,-9.38342 1.868729,0 0,-0.85483 c -0.576524,0.0398 -2.524772,0.0398 -3.240455,0.0398 -0.636163,0 -2.524772,0 -3.021774,-0.0398 l 0,0.85483 1.669928,0 4.731461,12.48471 c 0.119287,0.33796 0.178922,0.47712 0.616284,0.47712 0.437362,0 0.497003,-0.13916 0.616283,-0.45724 l 3.459135,-9.16473 3.479017,9.16473 c 0.119286,0.31808 0.178922,0.45724 0.616284,0.45724 0.377721,0 0.477122,-0.0795 0.616282,-0.45724 l 4.552546,-12.02746 z"
         id="path11790" />
      <path
         inkscape:connector-curvature="0"
         d="m -67.701561,340.96174 c 0,-1.66993 -1.17955,-3.14106 -3.604922,-3.14106 -2.438625,0 -3.604924,1.48439 -3.604924,3.14106 0,1.57715 1.166299,2.98202 3.604924,2.98202 2.465131,0 3.604922,-1.41812 3.604922,-2.98202 z m -3.604922,2.35911 c -1.815716,0 -1.815716,-1.3651 -1.815716,-2.51815 0,-1.08678 0,-2.42537 1.815716,-2.42537 1.815715,0 1.815715,1.35185 1.815715,2.42537 0,1.15305 0,2.51815 -1.815715,2.51815 z"
         id="path11792" />
      <path
         inkscape:connector-curvature="0"
         d="m -61.996464,337.97973 0,0.68917 c 0.781952,0 0.874725,0 0.874725,0.51689 l 0,2.51814 c 0,1.00726 -0.702431,1.68318 -1.775955,1.68318 -1.073524,0 -1.113285,-0.30483 -1.113285,-0.98075 l 0,-4.53265 -2.491638,0.10607 0,0.68917 c 0.78195,0 0.874724,0 0.874724,0.51689 l 0,3.03502 c 0,1.48439 1.245818,1.72295 2.544652,1.72295 0.437362,0 1.325339,0 2.041023,-0.92775 l 0,0.92775 2.412118,-0.0928 0,-0.68917 c -0.78195,0 -0.874725,0 -0.874725,-0.51689 l 0,-4.77123 -2.491639,0.10607 z"
         id="path11794" />
      <path
         inkscape:connector-curvature="0"
         d="m -55.162681,338.65566 2.06753,0 0,-0.68919 -2.06753,0 0,-2.53139 -0.74219,0 c -0.01324,1.31208 -0.689176,2.63742 -2.014515,2.66393 l 0,0.55665 1.139791,0 0,3.56515 c 0,1.36511 1.073525,1.72295 2.200063,1.72295 1.007258,0 1.749449,-0.67593 1.749449,-1.72295 l 0,-0.67591 -0.742191,0 0,0.64941 c 0,0.91449 -0.503629,1.12654 -0.808457,1.12654 -0.768696,0 -0.78195,-0.70243 -0.78195,-1.06027 l 0,-3.60492 z"
         id="path11796" />
    </g>
    <g
       transform="matrix(0.77659658,0,0,0.77659658,329.52939,-64.880205)"
       id="g11798">
      <path
         id="path11800"
         d="m -111.23962,339.75353 c 0.13916,-0.35785 0.17892,-0.47713 1.84885,-0.47713 l 0,-0.85483 c -0.99401,0.0398 -1.03377,0.0398 -2.16694,0.0398 -0.57652,0 -2.02776,0 -2.50489,-0.0398 l 0,0.85483 c 0.23856,0 1.98801,0 1.98801,0.27833 0,0.0199 0,0.0597 -0.0795,0.23856 l -3.33986,8.86653 -3.55853,-9.38342 1.88861,0 0,-0.85483 c -0.63617,0.0398 -2.48502,0.0398 -3.24046,0.0398 -0.61628,0 -2.54465,0 -3.02177,-0.0398 l 0,0.85483 1.66992,0 0.81509,2.14706 -2.72358,7.23636 -3.53865,-9.38342 1.86873,0 0,-0.85483 c -0.57653,0.0398 -2.52478,0.0398 -3.24046,0.0398 -0.63616,0 -2.52477,0 -3.02178,-0.0398 l 0,0.85483 1.66994,0 4.73145,12.48471 c 0.11929,0.33796 0.17892,0.47712 0.61629,0.47712 0.43736,0 0.497,-0.13916 0.61628,-0.45724 l 3.45914,-9.16473 3.47901,9.16473 c 0.11929,0.31808 0.17893,0.45724 0.61629,0.45724 0.37772,0 0.47712,-0.0795 0.61628,-0.45724 l 4.55254,-12.02746 z"
         inkscape:connector-curvature="0" />
      <path
         id="path11802"
         d="m -100.8821,339.8352 c 0,-1.61691 -1.00726,-1.96149 -2.18681,-1.96149 -1.39161,0 -2.12054,0.80845 -2.39887,1.2193 l 0,-4.43988 -2.41211,0.10607 0,0.68918 c 0.78195,0 0.87472,0 0.87472,0.51688 l 0,7.1966 -0.87472,0 0,0.68917 c 0.71568,-0.0398 1.17955,-0.0398 1.68318,-0.0398 0.51688,0 0.9675,0 1.68318,0.0398 l 0,-0.68917 -0.87473,0 0,-2.66394 c 0,-1.47113 1.27233,-2.06753 2.12055,-2.06753 0.46387,0 0.76869,0.22531 0.76869,1.25907 l 0,3.4724 -0.87472,0 0,0.68917 c 0.71568,-0.0398 1.17955,-0.0398 1.68318,-0.0398 0.51688,0 0.9675,0 1.68318,0.0398 l 0,-0.68917 -0.87472,0 0,-3.32661 z"
         inkscape:connector-curvature="0" />
    </g>
  </g>
</svg>
