<?xml version="1.0" encoding="UTF-8" standalone="no"?>
<!-- Created with Inkscape (http://www.inkscape.org/) -->

<svg
   xmlns:dc="http://purl.org/dc/elements/1.1/"
   xmlns:cc="http://creativecommons.org/ns#"
   xmlns:rdf="http://www.w3.org/1999/02/22-rdf-syntax-ns#"
   xmlns:svg="http://www.w3.org/2000/svg"
   xmlns="http://www.w3.org/2000/svg"
   xmlns:sodipodi="http://sodipodi.sourceforge.net/DTD/sodipodi-0.dtd"
   xmlns:inkscape="http://www.inkscape.org/namespaces/inkscape"
   width="65.577629mm"
   height="60.418285mm"
   viewBox="0 0 232.36168 214.08054"
   id="svg2"
   version="1.1"
   inkscape:version="0.91 r13725"
   sodipodi:docname="convmap2.svg">
  <defs
     id="defs4" />
  <sodipodi:namedview
     id="base"
     pagecolor="#ffffff"
     bordercolor="#666666"
     borderopacity="1.0"
     inkscape:pageopacity="0.0"
     inkscape:pageshadow="2"
     inkscape:zoom="5.6"
     inkscape:cx="191.36418"
     inkscape:cy="121.61856"
     inkscape:document-units="px"
     inkscape:current-layer="layer1"
     showgrid="false"
     fit-margin-top="0"
     fit-margin-left="0"
     fit-margin-right="0"
     fit-margin-bottom="0"
     inkscape:window-width="2495"
     inkscape:window-height="1416"
     inkscape:window-x="65"
     inkscape:window-y="24"
     inkscape:window-maximized="1" />
  <metadata
     id="metadata7">
    <rdf:RDF>
      <cc:Work
         rdf:about="">
        <dc:format>image/svg+xml</dc:format>
        <dc:type
           rdf:resource="http://purl.org/dc/dcmitype/StillImage" />
        <dc:title></dc:title>
      </cc:Work>
    </rdf:RDF>
  </metadata>
  <g
     inkscape:label="Layer 1"
     inkscape:groupmode="layer"
     id="layer1"
     transform="translate(2.9044313,-33.301061)">
    <path
       style="fill:none;fill-rule:evenodd;stroke:#000000;stroke-width:1px;stroke-linecap:butt;stroke-linejoin:miter;stroke-opacity:1"
       d="M 9.089844,80.157807 9.220703,246.01425 48.95703,198.88828 48.82617,34.671376 Z"
       id="path4153"
       inkscape:connector-curvature="0"
       sodipodi:nodetypes="ccccc" />
    <path
       sodipodi:nodetypes="ccccc"
       inkscape:connector-curvature="0"
       id="path5420"
       d="m 142.72159,116.18197 0.0343,106.31407 35.9326,-47.3297 -0.0343,-104.667445 z"
       style="fill:none;fill-rule:evenodd;stroke:#000000;stroke-width:0.5132969px;stroke-linecap:butt;stroke-linejoin:miter;stroke-opacity:1" />
    <path
       style="fill:none;fill-rule:evenodd;stroke:#000000;stroke-width:0.51255679px;stroke-linecap:butt;stroke-linejoin:miter;stroke-opacity:1"
       d="m 139.83294,116.17467 3.11389,0"
       id="path5439"
       inkscape:connector-curvature="0"
       sodipodi:nodetypes="cc" />
    <path
       style="fill:none;fill-rule:evenodd;stroke:#000000;stroke-width:0.51255679px;stroke-linecap:butt;stroke-linejoin:miter;stroke-opacity:1"
       d="m 139.77639,222.92793 3.11389,0"
       id="path5441"
       inkscape:connector-curvature="0"
       sodipodi:nodetypes="cc" />
    <path
       sodipodi:nodetypes="cccc"
       inkscape:connector-curvature="0"
       id="path5443"
       d="m 139.90481,223.04374 -0.0213,-107.18094 36.38716,-46.168396 2.71235,0"
       style="fill:none;fill-rule:evenodd;stroke:#000000;stroke-width:0.51255679px;stroke-linecap:butt;stroke-linejoin:miter;stroke-opacity:1" />
    <path
       sodipodi:nodetypes="cc"
       inkscape:connector-curvature="0"
       id="path5447"
       d="m 137.20945,116.17467 3.11389,0"
       style="fill:none;fill-rule:evenodd;stroke:#000000;stroke-width:0.51255679px;stroke-linecap:butt;stroke-linejoin:miter;stroke-opacity:1" />
    <path
       sodipodi:nodetypes="cc"
       inkscape:connector-curvature="0"
       id="path5449"
       d="m 137.1529,222.92793 3.1139,0"
       style="fill:none;fill-rule:evenodd;stroke:#000000;stroke-width:0.51255679px;stroke-linecap:butt;stroke-linejoin:miter;stroke-opacity:1" />
    <path
       style="fill:none;fill-rule:evenodd;stroke:#000000;stroke-width:0.51255679px;stroke-linecap:butt;stroke-linejoin:miter;stroke-opacity:1"
       d="m 137.28132,223.04374 -0.0213,-107.18094 36.38717,-46.168396 2.71234,0"
       id="path5451"
       inkscape:connector-curvature="0"
       sodipodi:nodetypes="cccc" />
    <g
       id="g5455"
       transform="translate(-80,0)">
      <path
         style="fill:none;fill-rule:evenodd;stroke:#000000;stroke-width:1px;stroke-linecap:butt;stroke-linejoin:miter;stroke-opacity:1"
         d="m 77.402938,80.216648 11.869292,0"
         id="path5457"
         inkscape:connector-curvature="0"
         sodipodi:nodetypes="cc" />
      <path
         style="fill:none;fill-rule:evenodd;stroke:#000000;stroke-width:1px;stroke-linecap:butt;stroke-linejoin:miter;stroke-opacity:1"
         d="m 77.187385,246.82134 11.869288,0"
         id="path5459"
         inkscape:connector-curvature="0"
         sodipodi:nodetypes="cc" />
      <path
         sodipodi:nodetypes="cccc"
         inkscape:connector-curvature="0"
         id="path5461"
         d="m 77.676882,246.93699 -0.08122,-167.031784 41.464148,-46.104145 10.33869,0"
         style="fill:none;fill-rule:evenodd;stroke:#000000;stroke-width:1px;stroke-linecap:butt;stroke-linejoin:miter;stroke-opacity:1" />
    </g>
    <g
       id="g5568"
       transform="translate(12,10)">
      <path
         style="fill:none;fill-rule:evenodd;stroke:#000000;stroke-width:1px;stroke-linecap:butt;stroke-linejoin:miter;stroke-opacity:1"
         d="m 75.155337,122.14395 0,22.34962"
         id="path5521"
         inkscape:connector-curvature="0" />
      <g
         id="g5558">
        <path
           style="fill:none;fill-rule:evenodd;stroke:#000000;stroke-width:1px;stroke-linecap:butt;stroke-linejoin:miter;stroke-opacity:1"
           d="m 75.236554,144.49357 10.606601,-10.6066"
           id="path5511"
           inkscape:connector-curvature="0" />
        <path
           inkscape:connector-curvature="0"
           id="path5513"
           d="m 75.236554,122.49357 10.606601,-10.6066"
           style="fill:none;fill-rule:evenodd;stroke:#000000;stroke-width:1px;stroke-linecap:butt;stroke-linejoin:miter;stroke-opacity:1" />
        <path
           style="fill:none;fill-rule:evenodd;stroke:#000000;stroke-width:1px;stroke-linecap:butt;stroke-linejoin:miter;stroke-opacity:1"
           d="m 85.646408,111.87609 0,22.34962"
           id="path5523"
           inkscape:connector-curvature="0" />
      </g>
    </g>
    <path
       style="fill:none;fill-rule:evenodd;stroke:#000000;stroke-width:1px;stroke-linecap:butt;stroke-linejoin:miter;stroke-opacity:1"
       d="m 71.236554,132.49357 10.606601,-10.6066"
       id="path5515"
       inkscape:connector-curvature="0" />
    <path
       style="fill:none;fill-rule:evenodd;stroke:#000000;stroke-width:1px;stroke-linecap:butt;stroke-linejoin:miter;stroke-opacity:1"
       d="m 71.155333,132.14395 0,22.34962"
       id="path5519"
       inkscape:connector-curvature="0" />
    <path
       style="fill:none;fill-rule:evenodd;stroke:#000000;stroke-width:1px;stroke-linecap:butt;stroke-linejoin:miter;stroke-opacity:1"
       d="m 71.229525,132.49222 7.991072,0"
       id="path5525"
       inkscape:connector-curvature="0" />
    <path
       inkscape:connector-curvature="0"
       id="path5527"
       d="m 81.542025,122.04579 8.571432,0"
       style="fill:none;fill-rule:evenodd;stroke:#000000;stroke-width:1px;stroke-linecap:butt;stroke-linejoin:miter;stroke-opacity:1"
       sodipodi:nodetypes="cc" />
    <path
       sodipodi:nodetypes="cc"
       style="fill:none;fill-rule:evenodd;stroke:#000000;stroke-width:1px;stroke-linecap:butt;stroke-linejoin:miter;stroke-opacity:1"
       d="m 70.604525,154.31365 9.151789,0"
       id="path5529"
       inkscape:connector-curvature="0" />
    <path
       inkscape:connector-curvature="0"
       id="path5575"
       d="m 79.236554,132.49357 10.606601,-10.6066"
       style="fill:none;fill-rule:evenodd;stroke:#000000;stroke-width:1px;stroke-linecap:butt;stroke-linejoin:miter;stroke-opacity:1" />
    <path
       inkscape:connector-curvature="0"
       id="path5577"
       d="m 79.155333,132.14395 0,22.34962"
       style="fill:none;fill-rule:evenodd;stroke:#000000;stroke-width:1px;stroke-linecap:butt;stroke-linejoin:miter;stroke-opacity:1" />
    <path
       inkscape:connector-curvature="0"
       id="path5579"
       d="m 79.229525,132.49222 7.991072,0"
       style="fill:none;fill-rule:evenodd;stroke:#000000;stroke-width:1px;stroke-linecap:butt;stroke-linejoin:miter;stroke-opacity:1" />
    <path
       sodipodi:nodetypes="cc"
       style="fill:none;fill-rule:evenodd;stroke:#000000;stroke-width:1px;stroke-linecap:butt;stroke-linejoin:miter;stroke-opacity:1"
       d="m 89.542025,122.04579 8.571432,0"
       id="path5581"
       inkscape:connector-curvature="0" />
    <path
       inkscape:connector-curvature="0"
       id="path5583"
       d="m 78.604525,154.31365 9.151789,0"
       style="fill:none;fill-rule:evenodd;stroke:#000000;stroke-width:1px;stroke-linecap:butt;stroke-linejoin:miter;stroke-opacity:1"
       sodipodi:nodetypes="cc" />
    <path
       inkscape:connector-curvature="0"
       id="path5595"
       d="M 87.236554,132.49357 97.84315,121.88697"
       style="fill:none;fill-rule:evenodd;stroke:#000000;stroke-width:1px;stroke-linecap:butt;stroke-linejoin:miter;stroke-opacity:1" />
    <path
       inkscape:connector-curvature="0"
       id="path5597"
       d="m 87.155333,132.14395 0,22.34962"
       style="fill:none;fill-rule:evenodd;stroke:#000000;stroke-width:1px;stroke-linecap:butt;stroke-linejoin:miter;stroke-opacity:1" />
    <path
       style="opacity:1;fill:#b2fdae;fill-opacity:1;stroke:none;stroke-width:2;stroke-miterlimit:4;stroke-dasharray:none;stroke-dashoffset:0;stroke-opacity:1"
       d="m -5.3510089,111.73569 0,-10.35715 3.3928572,0 3.3928571,0 0,10.35715 0,10.35714 -3.3928571,0 -3.3928572,0 0,-10.35714 z"
       id="path5605"
       inkscape:connector-curvature="0"
       transform="translate(77.095597,31.620395)" />
    <path
       style="opacity:1;fill:#fdedae;fill-opacity:1;stroke:none;stroke-width:2;stroke-miterlimit:4;stroke-dasharray:none;stroke-dashoffset:0;stroke-opacity:1"
       d="m 2.6847054,111.73569 0,-10.35715 3.3928572,0 3.3928571,0 0,10.35715 0,10.35714 -3.3928571,0 -3.3928572,0 0,-10.35714 z"
       id="path5617"
       inkscape:connector-curvature="0"
       transform="translate(77.095597,31.620395)" />
    <path
       style="opacity:1;fill:#fdaeae;fill-opacity:1;stroke:none;stroke-width:2;stroke-miterlimit:4;stroke-dasharray:none;stroke-dashoffset:0;stroke-opacity:1"
       d="m 8.131134,95.664259 4.640281,-4.642858 3.214286,0 3.214286,0 -4.640282,4.642858 -4.640281,4.642861 -3.2142857,0 -3.2142857,0 4.6402814,-4.642861 z"
       id="path5619"
       inkscape:connector-curvature="0"
       transform="translate(77.095597,31.620395)" />
    <path
       style="opacity:1;fill:#fdaeae;fill-opacity:1;stroke:none;stroke-width:2;stroke-miterlimit:4;stroke-dasharray:none;stroke-dashoffset:0;stroke-opacity:1"
       d="m 0.27399113,95.664259 4.64028147,-4.642858 3.125,0 3.1250004,0 -4.6402819,4.642858 -4.6402814,4.642861 -3.125,0 -3.1249999,0 4.64028133,-4.642861 z"
       id="path5621"
       inkscape:connector-curvature="0"
       transform="translate(77.095597,31.620395)" />
    <path
       style="opacity:1;fill:#fdaeae;fill-opacity:1;stroke:none;stroke-width:2;stroke-miterlimit:4;stroke-dasharray:none;stroke-dashoffset:0;stroke-opacity:1"
       d="m -5.3510089,111.73569 0,-10.35715 3.3928572,0 3.3928571,0 0,10.35715 0,10.35714 -3.3928571,0 -3.3928572,0 0,-10.35714 z"
       id="path5623"
       inkscape:connector-curvature="0"
       transform="translate(77.095597,31.620395)" />
    <path
       style="opacity:1;fill:#fdaeae;fill-opacity:1;stroke:none;stroke-width:2;stroke-miterlimit:4;stroke-dasharray:none;stroke-dashoffset:0;stroke-opacity:1"
       d="m 8.131134,95.664259 4.640281,-4.642858 3.214286,0 3.214286,0 -4.640282,4.642858 -4.640281,4.642861 -3.2142857,0 -3.2142857,0 4.6402814,-4.642861 z"
       id="path5625"
       inkscape:connector-curvature="0"
       transform="translate(77.095597,31.620395)" />
    <path
       style="opacity:1;fill:#fdaeae;fill-opacity:1;stroke:none;stroke-width:2;stroke-miterlimit:4;stroke-dasharray:none;stroke-dashoffset:0;stroke-opacity:1"
       d="m 8.131134,95.664259 4.640281,-4.642858 3.214286,0 3.214286,0 -4.640282,4.642858 -4.640281,4.642861 -3.2142857,0 -3.2142857,0 4.6402814,-4.642861 z"
       id="path5627"
       inkscape:connector-curvature="0"
       transform="translate(77.095597,31.620395)" />
    <path
       style="opacity:1;fill:#fdedae;fill-opacity:1;stroke:none;stroke-width:2;stroke-miterlimit:4;stroke-dasharray:none;stroke-dashoffset:0;stroke-opacity:1"
       d="m 8.131134,95.664259 4.640281,-4.642858 3.214286,0 3.214286,0 -4.640282,4.642858 -4.640281,4.642861 -3.2142857,0 -3.2142857,0 4.6402814,-4.642861 z"
       id="path5629"
       inkscape:connector-curvature="0"
       transform="translate(77.095597,31.620395)" />
    <path
       style="fill:none;fill-rule:evenodd;stroke:#000000;stroke-width:0.60000002;stroke-linecap:butt;stroke-linejoin:miter;stroke-miterlimit:4;stroke-dasharray:none;stroke-opacity:1"
       d="m 1.1720736,80.238743 0,166.607137"
       id="path4517"
       inkscape:connector-curvature="0" />
    <path
       inkscape:connector-curvature="0"
       id="path4519"
       d="m 5.1720736,80.238743 0,166.607137"
       style="fill:none;fill-rule:evenodd;stroke:#000000;stroke-width:0.60000002;stroke-linecap:butt;stroke-linejoin:miter;stroke-miterlimit:4;stroke-dasharray:none;stroke-opacity:1" />
    <path
       style="fill:none;fill-rule:evenodd;stroke:#000000;stroke-width:0.6;stroke-linecap:butt;stroke-linejoin:miter;stroke-opacity:1;stroke-miterlimit:4;stroke-dasharray:none"
       d="M 1.1848533,80.098063 42.704399,33.585089"
       id="path4525"
       inkscape:connector-curvature="0"
       sodipodi:nodetypes="cc" />
    <path
       sodipodi:nodetypes="cc"
       inkscape:connector-curvature="0"
       id="path4548"
       d="M 4.8455683,80.098063 46.365114,33.585089"
       style="fill:none;fill-rule:evenodd;stroke:#000000;stroke-width:0.6;stroke-linecap:butt;stroke-linejoin:miter;stroke-opacity:1;stroke-miterlimit:4;stroke-dasharray:none" />
    <path
       style="opacity:1;fill:#fdedae;fill-opacity:1;stroke:none;stroke-width:0.60000002;stroke-miterlimit:4;stroke-dasharray:none;stroke-dashoffset:0;stroke-opacity:1"
       d="m 143.13157,141.10352 c 0,-26.53432 -0.0267,-50.420485 -0.0593,-53.080354 l -0.0592,-4.836123 1.04139,0 1.0414,0 0,53.080357 0,53.08036 -0.98215,0 -0.98214,0 0,-48.24424 z"
       id="path4564"
       inkscape:connector-curvature="0"
       transform="translate(-2.9044313,33.301061)" />
    <path
       style="opacity:1;fill:#fdaeae;fill-opacity:1;stroke:none;stroke-width:0.60000002;stroke-miterlimit:4;stroke-dasharray:none;stroke-dashoffset:0;stroke-opacity:1"
       d="m 140.453,136.2674 0,-53.080357 1.02679,0 1.02678,0 0,53.080357 0,53.08036 -1.02678,0 -1.02679,0 0,-53.08036 z"
       id="path4568"
       inkscape:connector-curvature="0"
       transform="translate(-2.9044313,33.301061)" />
    <path
       style="opacity:1;fill:#fdaeae;fill-opacity:1;stroke:none;stroke-width:0.60000002;stroke-miterlimit:4;stroke-dasharray:none;stroke-dashoffset:0;stroke-opacity:1"
       d="m 147.53364,73.700435 c 3.84169,-4.873883 11.9801,-15.199776 18.08536,-22.946428 l 11.10047,-14.084822 0.93093,0 0.93094,0 -0.65573,0.825893 c -2.80163,3.528645 -35.26316,44.748583 -35.3503,44.888109 -0.10047,0.160887 -0.20788,0.178856 -1.06913,0.178856 l -0.95743,0 6.98489,-8.861608 z"
       id="path4570"
       inkscape:connector-curvature="0"
       transform="translate(-2.9044313,33.301061)" />
    <path
       style="opacity:1;fill:#fdedae;fill-opacity:1;stroke:none;stroke-width:0.60000002;stroke-miterlimit:4;stroke-dasharray:none;stroke-dashoffset:0;stroke-opacity:1"
       d="m 143.43515,82.243485 c 0.13994,-0.184152 8.26561,-10.5 18.05705,-22.924107 l 17.80263,-22.589286 1.11367,-0.02505 c 0.63244,-0.01423 1.10043,0.0096 1.08301,0.05511 -0.0169,0.04409 -8.12599,10.371208 -18.02027,22.949158 l -17.98959,22.868999 -1.15047,0 -1.15047,0 0.25444,-0.334821 z"
       id="path4921"
       inkscape:connector-curvature="0"
       transform="translate(-2.9044313,33.301061)" />
    <path
       style="opacity:1;fill:#fdedae;fill-opacity:1;stroke:none;stroke-width:0.60000002;stroke-miterlimit:4;stroke-dasharray:none;stroke-dashoffset:0;stroke-opacity:1"
       d="m 145.94834,137.73009 c -0.0118,-27.77991 -0.0218,-51.460726 -0.0223,-52.624036 l -8.9e-4,-2.115111 17.63393,-22.42575 c 9.69866,-12.334163 17.63844,-22.421426 17.64395,-22.41614 0.006,0.0053 0.0357,23.313182 0.067,51.795325 l 0.057,51.785712 -17.5947,23.16964 c -9.67708,12.74331 -17.63245,23.20782 -17.6786,23.25447 -0.0523,0.0529 -0.092,-18.9123 -0.10532,-50.42411 z"
       id="path4923"
       inkscape:connector-curvature="0"
       transform="translate(-2.9044313,33.301061)" />
    <path
       style="opacity:1;fill:#fdedae;fill-opacity:1;stroke:none;stroke-width:0.60000002;stroke-miterlimit:4;stroke-dasharray:none;stroke-dashoffset:0;stroke-opacity:1"
       d="m 90.68561,109.65583 0,-10.178574 4.642857,-4.640282 4.642857,-4.640281 0,10.178567 0,10.17857 -4.642857,4.64029 -4.642857,4.64028 0,-10.17857 z"
       id="path4925"
       inkscape:connector-curvature="0"
       transform="translate(-2.9044313,33.301061)" />
  </g>
</svg>
