<?xml version="1.0" encoding="UTF-8" standalone="no"?>
<!-- Created with Inkscape (http://www.inkscape.org/) -->

<svg
   xmlns:dc="http://purl.org/dc/elements/1.1/"
   xmlns:cc="http://creativecommons.org/ns#"
   xmlns:rdf="http://www.w3.org/1999/02/22-rdf-syntax-ns#"
   xmlns:svg="http://www.w3.org/2000/svg"
   xmlns="http://www.w3.org/2000/svg"
   xmlns:sodipodi="http://sodipodi.sourceforge.net/DTD/sodipodi-0.dtd"
   xmlns:inkscape="http://www.inkscape.org/namespaces/inkscape"
   width="12.911028mm"
   height="12.672627mm"
   viewBox="0 0 45.747737 44.90301"
   id="svg4755"
   version="1.1"
   inkscape:version="0.91 r13725"
   sodipodi:docname="kernel.svg">
  <defs
     id="defs4757" />
  <sodipodi:namedview
     id="base"
     pagecolor="#ffffff"
     bordercolor="#666666"
     borderopacity="1.0"
     inkscape:pageopacity="0.0"
     inkscape:pageshadow="2"
     inkscape:zoom="0.35"
     inkscape:cx="-186.41185"
     inkscape:cy="-328.97706"
     inkscape:document-units="px"
     inkscape:current-layer="layer1"
     showgrid="false"
     fit-margin-top="0"
     fit-margin-left="0"
     fit-margin-right="0"
     fit-margin-bottom="0"
     inkscape:window-width="2495"
     inkscape:window-height="1416"
     inkscape:window-x="65"
     inkscape:window-y="24"
     inkscape:window-maximized="1" />
  <metadata
     id="metadata4760">
    <rdf:RDF>
      <cc:Work
         rdf:about="">
        <dc:format>image/svg+xml</dc:format>
        <dc:type
           rdf:resource="http://purl.org/dc/dcmitype/StillImage" />
        <dc:title></dc:title>
      </cc:Work>
    </rdf:RDF>
  </metadata>
  <g
     inkscape:label="Layer 1"
     inkscape:groupmode="layer"
     id="layer1"
     transform="translate(-77.126132,-158.48213)">
    <g
       id="g5568"
       transform="translate(34.521607,58.538018)">
      <path
         style="fill:none;fill-rule:evenodd;stroke:#000000;stroke-width:1px;stroke-linecap:butt;stroke-linejoin:miter;stroke-opacity:1"
         d="m 75.155337,122.14395 0,22.34962"
         id="path5521"
         inkscape:connector-curvature="0" />
      <g
         id="g5558">
        <path
           style="fill:none;fill-rule:evenodd;stroke:#000000;stroke-width:1px;stroke-linecap:butt;stroke-linejoin:miter;stroke-opacity:1"
           d="m 75.236554,144.49357 10.606601,-10.6066"
           id="path5511"
           inkscape:connector-curvature="0" />
        <path
           inkscape:connector-curvature="0"
           id="path5513"
           d="m 75.236554,122.49357 10.606601,-10.6066"
           style="fill:none;fill-rule:evenodd;stroke:#000000;stroke-width:1px;stroke-linecap:butt;stroke-linejoin:miter;stroke-opacity:1" />
        <path
           style="fill:none;fill-rule:evenodd;stroke:#000000;stroke-width:1px;stroke-linecap:butt;stroke-linejoin:miter;stroke-opacity:1"
           d="m 85.646408,111.87609 0,22.34962"
           id="path5523"
           inkscape:connector-curvature="0" />
      </g>
    </g>
    <path
       style="fill:none;fill-rule:evenodd;stroke:#000000;stroke-width:1px;stroke-linecap:butt;stroke-linejoin:miter;stroke-opacity:1"
       d="m 77.758161,181.03159 10.606601,-10.6066"
       id="path5515"
       inkscape:connector-curvature="0" />
    <path
       style="fill:none;fill-rule:evenodd;stroke:#000000;stroke-width:1px;stroke-linecap:butt;stroke-linejoin:miter;stroke-opacity:1"
       d="m 77.67694,180.68197 0,22.34962"
       id="path5519"
       inkscape:connector-curvature="0" />
    <path
       style="fill:none;fill-rule:evenodd;stroke:#000000;stroke-width:1px;stroke-linecap:butt;stroke-linejoin:miter;stroke-opacity:1"
       d="m 77.751132,181.03024 7.991072,0"
       id="path5525"
       inkscape:connector-curvature="0" />
    <path
       inkscape:connector-curvature="0"
       id="path5527"
       d="m 88.063632,170.58381 8.571432,0"
       style="fill:none;fill-rule:evenodd;stroke:#000000;stroke-width:1px;stroke-linecap:butt;stroke-linejoin:miter;stroke-opacity:1"
       sodipodi:nodetypes="cc" />
    <path
       sodipodi:nodetypes="cc"
       style="fill:none;fill-rule:evenodd;stroke:#000000;stroke-width:1px;stroke-linecap:butt;stroke-linejoin:miter;stroke-opacity:1"
       d="m 77.126132,202.85167 9.151789,0"
       id="path5529"
       inkscape:connector-curvature="0" />
    <path
       inkscape:connector-curvature="0"
       id="path5575"
       d="m 85.758161,181.03159 10.606601,-10.6066"
       style="fill:none;fill-rule:evenodd;stroke:#000000;stroke-width:1px;stroke-linecap:butt;stroke-linejoin:miter;stroke-opacity:1" />
    <path
       inkscape:connector-curvature="0"
       id="path5577"
       d="m 85.67694,180.68197 0,22.34962"
       style="fill:none;fill-rule:evenodd;stroke:#000000;stroke-width:1px;stroke-linecap:butt;stroke-linejoin:miter;stroke-opacity:1" />
    <path
       inkscape:connector-curvature="0"
       id="path5579"
       d="m 85.751132,181.03024 7.991072,0"
       style="fill:none;fill-rule:evenodd;stroke:#000000;stroke-width:1px;stroke-linecap:butt;stroke-linejoin:miter;stroke-opacity:1" />
    <path
       sodipodi:nodetypes="cc"
       style="fill:none;fill-rule:evenodd;stroke:#000000;stroke-width:1px;stroke-linecap:butt;stroke-linejoin:miter;stroke-opacity:1"
       d="m 96.063632,170.58381 8.571428,0"
       id="path5581"
       inkscape:connector-curvature="0" />
    <path
       inkscape:connector-curvature="0"
       id="path5583"
       d="m 85.126132,202.85167 9.151789,0"
       style="fill:none;fill-rule:evenodd;stroke:#000000;stroke-width:1px;stroke-linecap:butt;stroke-linejoin:miter;stroke-opacity:1"
       sodipodi:nodetypes="cc" />
    <path
       style="fill:none;fill-rule:evenodd;stroke:#000000;stroke-width:1px;stroke-linecap:butt;stroke-linejoin:miter;stroke-opacity:1"
       d="m 93.758161,181.03159 10.606599,-10.6066"
       id="path5585"
       inkscape:connector-curvature="0" />
    <path
       style="fill:none;fill-rule:evenodd;stroke:#000000;stroke-width:1px;stroke-linecap:butt;stroke-linejoin:miter;stroke-opacity:1"
       d="m 93.67694,180.68197 0,22.34962"
       id="path5587"
       inkscape:connector-curvature="0" />
    <path
       style="fill:none;fill-rule:evenodd;stroke:#000000;stroke-width:1px;stroke-linecap:butt;stroke-linejoin:miter;stroke-opacity:1"
       d="m 93.751132,181.03024 7.991068,0"
       id="path5589"
       inkscape:connector-curvature="0" />
    <path
       inkscape:connector-curvature="0"
       id="path5591"
       d="m 104.06363,170.58381 8.57144,0"
       style="fill:none;fill-rule:evenodd;stroke:#000000;stroke-width:1px;stroke-linecap:butt;stroke-linejoin:miter;stroke-opacity:1"
       sodipodi:nodetypes="cc" />
    <path
       sodipodi:nodetypes="cc"
       style="fill:none;fill-rule:evenodd;stroke:#000000;stroke-width:1px;stroke-linecap:butt;stroke-linejoin:miter;stroke-opacity:1"
       d="m 93.126132,202.85167 9.151788,0"
       id="path5593"
       inkscape:connector-curvature="0" />
    <path
       inkscape:connector-curvature="0"
       id="path5595"
       d="m 101.75816,181.03159 10.6066,-10.6066"
       style="fill:none;fill-rule:evenodd;stroke:#000000;stroke-width:1px;stroke-linecap:butt;stroke-linejoin:miter;stroke-opacity:1" />
    <path
       inkscape:connector-curvature="0"
       id="path5597"
       d="m 101.67694,180.68197 0,22.34962"
       style="fill:none;fill-rule:evenodd;stroke:#000000;stroke-width:1px;stroke-linecap:butt;stroke-linejoin:miter;stroke-opacity:1" />
    <path
       inkscape:connector-curvature="0"
       id="path5599"
       d="m 101.75113,181.03024 7.99108,0"
       style="fill:none;fill-rule:evenodd;stroke:#000000;stroke-width:1px;stroke-linecap:butt;stroke-linejoin:miter;stroke-opacity:1" />
    <path
       sodipodi:nodetypes="cc"
       style="fill:none;fill-rule:evenodd;stroke:#000000;stroke-width:1px;stroke-linecap:butt;stroke-linejoin:miter;stroke-opacity:1"
       d="m 112.06363,170.58381 8.57144,0"
       id="path5601"
       inkscape:connector-curvature="0" />
    <path
       inkscape:connector-curvature="0"
       id="path5603"
       d="m 101.12613,202.85167 9.15179,0"
       style="fill:none;fill-rule:evenodd;stroke:#000000;stroke-width:1px;stroke-linecap:butt;stroke-linejoin:miter;stroke-opacity:1"
       sodipodi:nodetypes="cc" />
    <path
       style="opacity:1;fill:#b2fdae;fill-opacity:1;stroke:none;stroke-width:2;stroke-miterlimit:4;stroke-dasharray:none;stroke-dashoffset:0;stroke-opacity:1"
       d="m 78.266195,191.8941 0,-10.35715 3.392857,0 3.392857,0 0,10.35715 0,10.35714 -3.392857,0 -3.392857,0 0,-10.35714 z"
       id="path5605"
       inkscape:connector-curvature="0" />
    <path
       style="opacity:1;fill:#b2fdae;fill-opacity:1;stroke:none;stroke-width:2;stroke-miterlimit:4;stroke-dasharray:none;stroke-dashoffset:0;stroke-opacity:1"
       d="m 102.19477,191.8941 0,-10.35715 3.48214,0 3.48214,0 0,10.35715 0,10.35714 -3.48214,0 -3.48214,0 0,-10.35714 z"
       id="path5607"
       inkscape:connector-curvature="0" />
    <path
       style="opacity:1;fill:#b2fdae;fill-opacity:1;stroke:none;stroke-width:2;stroke-miterlimit:4;stroke-dasharray:none;stroke-dashoffset:0;stroke-opacity:1"
       d="m 107.81977,175.82267 4.64028,-4.64286 3.125,0 3.125,0 -4.64028,4.64286 -4.64028,4.64286 -3.125,0 -3.125,0 4.64028,-4.64286 z"
       id="path5609"
       inkscape:connector-curvature="0" />
    <path
       style="opacity:1;fill:#e2fdae;fill-opacity:1;stroke:none;stroke-width:2;stroke-miterlimit:4;stroke-dasharray:none;stroke-dashoffset:0;stroke-opacity:1"
       d="m 110.23048,191.62366 0,-10.17857 4.64286,-4.64028 4.64286,-4.64028 0,10.17857 0,10.17857 -4.64286,4.64028 -4.64286,4.64029 0,-10.17858 z"
       id="path5611"
       inkscape:connector-curvature="0" />
    <path
       style="opacity:1;fill:#e2fdae;fill-opacity:1;stroke:none;stroke-width:2;stroke-miterlimit:4;stroke-dasharray:none;stroke-dashoffset:0;stroke-opacity:1"
       d="m 94.337624,191.8941 0,-10.35715 3.392857,0 3.392859,0 0,10.35715 0,10.35714 -3.392859,0 -3.392857,0 0,-10.35714 z"
       id="path5613"
       inkscape:connector-curvature="0" />
    <path
       style="opacity:1;fill:#fdedae;fill-opacity:1;stroke:none;stroke-width:2;stroke-miterlimit:4;stroke-dasharray:none;stroke-dashoffset:0;stroke-opacity:1"
       d="m 99.784052,175.82267 4.640278,-4.64286 3.21429,0 3.21429,0 -4.64029,4.64286 -4.64028,4.64286 -3.214283,0 -3.214286,0 4.640281,-4.64286 z"
       id="path5615"
       inkscape:connector-curvature="0" />
    <path
       style="opacity:1;fill:#fdedae;fill-opacity:1;stroke:none;stroke-width:2;stroke-miterlimit:4;stroke-dasharray:none;stroke-dashoffset:0;stroke-opacity:1"
       d="m 86.301909,191.8941 0,-10.35715 3.392857,0 3.392857,0 0,10.35715 0,10.35714 -3.392857,0 -3.392857,0 0,-10.35714 z"
       id="path5617"
       inkscape:connector-curvature="0" />
    <path
       style="opacity:1;fill:#fdaeae;fill-opacity:1;stroke:none;stroke-width:2;stroke-miterlimit:4;stroke-dasharray:none;stroke-dashoffset:0;stroke-opacity:1"
       d="m 91.748338,175.82267 4.640281,-4.64286 3.214286,0 3.214285,0 -4.640281,4.64286 -4.640281,4.64286 -3.214286,0 -3.214285,0 4.640281,-4.64286 z"
       id="path5619"
       inkscape:connector-curvature="0" />
    <path
       style="opacity:1;fill:#fdaeae;fill-opacity:1;stroke:none;stroke-width:2;stroke-miterlimit:4;stroke-dasharray:none;stroke-dashoffset:0;stroke-opacity:1"
       d="m 83.891195,175.82267 4.640281,-4.64286 3.125,0 3.125001,0 -4.640282,4.64286 -4.640281,4.64286 -3.125,0 -3.125,0 4.640281,-4.64286 z"
       id="path5621"
       inkscape:connector-curvature="0" />
    <path
       style="opacity:1;fill:#fdaeae;fill-opacity:1;stroke:none;stroke-width:2;stroke-miterlimit:4;stroke-dasharray:none;stroke-dashoffset:0;stroke-opacity:1"
       d="m 78.266195,191.8941 0,-10.35715 3.392857,0 3.392857,0 0,10.35715 0,10.35714 -3.392857,0 -3.392857,0 0,-10.35714 z"
       id="path5623"
       inkscape:connector-curvature="0" />
    <path
       style="opacity:1;fill:#fdaeae;fill-opacity:1;stroke:none;stroke-width:2;stroke-miterlimit:4;stroke-dasharray:none;stroke-dashoffset:0;stroke-opacity:1"
       d="m 91.748338,175.82267 4.640281,-4.64286 3.214286,0 3.214285,0 -4.640281,4.64286 -4.640281,4.64286 -3.214286,0 -3.214285,0 4.640281,-4.64286 z"
       id="path5625"
       inkscape:connector-curvature="0" />
    <path
       style="opacity:1;fill:#fdaeae;fill-opacity:1;stroke:none;stroke-width:2;stroke-miterlimit:4;stroke-dasharray:none;stroke-dashoffset:0;stroke-opacity:1"
       d="m 91.748338,175.82267 4.640281,-4.64286 3.214286,0 3.214285,0 -4.640281,4.64286 -4.640281,4.64286 -3.214286,0 -3.214285,0 4.640281,-4.64286 z"
       id="path5627"
       inkscape:connector-curvature="0" />
    <path
       style="opacity:1;fill:#fdedae;fill-opacity:1;stroke:none;stroke-width:2;stroke-miterlimit:4;stroke-dasharray:none;stroke-dashoffset:0;stroke-opacity:1"
       d="m 91.748338,175.82267 4.640281,-4.64286 3.214286,0 3.214285,0 -4.640281,4.64286 -4.640281,4.64286 -3.214286,0 -3.214285,0 4.640281,-4.64286 z"
       id="path5629"
       inkscape:connector-curvature="0" />
    <path
       style="opacity:1;fill:#fdedae;fill-opacity:1;stroke:none;stroke-width:2;stroke-miterlimit:4;stroke-dasharray:none;stroke-dashoffset:0;stroke-opacity:1"
       d="m 94.337624,191.8941 0,-10.35715 3.392857,0 3.392859,0 0,10.35715 0,10.35714 -3.392859,0 -3.392857,0 0,-10.35714 z"
       id="path5631"
       inkscape:connector-curvature="0" />
    <path
       style="opacity:1;fill:#e2fdae;fill-opacity:1;stroke:none;stroke-width:2;stroke-miterlimit:4;stroke-dasharray:none;stroke-dashoffset:0;stroke-opacity:1"
       d="m 94.337624,191.8941 0,-10.35715 3.392857,0 3.392859,0 0,10.35715 0,10.35714 -3.392859,0 -3.392857,0 0,-10.35714 z"
       id="path5633"
       inkscape:connector-curvature="0" />
    <path
       style="opacity:1;fill:#e2fdae;fill-opacity:1;stroke:none;stroke-width:2;stroke-miterlimit:4;stroke-dasharray:none;stroke-dashoffset:0;stroke-opacity:1"
       d="m 99.784052,175.82267 4.640278,-4.64286 3.21429,0 3.21429,0 -4.64029,4.64286 -4.64028,4.64286 -3.214283,0 -3.214286,0 4.640281,-4.64286 z"
       id="path5635"
       inkscape:connector-curvature="0" />
    <path
       style="opacity:1;fill:#b2fdae;fill-opacity:1;stroke:none;stroke-width:2;stroke-miterlimit:4;stroke-dasharray:none;stroke-dashoffset:0;stroke-opacity:1"
       d="m 110.23048,191.62366 0,-10.17857 4.64286,-4.64028 4.64286,-4.64028 0,10.17857 0,10.17857 -4.64286,4.64028 -4.64286,4.64029 0,-10.17858 z"
       id="path5637"
       inkscape:connector-curvature="0" />
    <text
       xml:space="preserve"
       style="font-style:normal;font-weight:normal;font-size:9.00113106px;line-height:125%;font-family:sans-serif;letter-spacing:0px;word-spacing:0px;fill:#000000;fill-opacity:1;stroke:none;stroke-width:1px;stroke-linecap:butt;stroke-linejoin:miter;stroke-opacity:1"
       x="84.478416"
       y="165.16266"
       id="text6547"
       sodipodi:linespacing="125%"><tspan
         sodipodi:role="line"
         id="tspan6549"
         x="84.478416"
         y="165.16266">5x5x3x4</tspan></text>
  </g>
</svg>
