<?xml version="1.0" encoding="UTF-8" standalone="no"?>
<!-- Created with Inkscape (http://www.inkscape.org/) -->

<svg
   xmlns:dc="http://purl.org/dc/elements/1.1/"
   xmlns:cc="http://creativecommons.org/ns#"
   xmlns:rdf="http://www.w3.org/1999/02/22-rdf-syntax-ns#"
   xmlns:svg="http://www.w3.org/2000/svg"
   xmlns="http://www.w3.org/2000/svg"
   xmlns:sodipodi="http://sodipodi.sourceforge.net/DTD/sodipodi-0.dtd"
   xmlns:inkscape="http://www.inkscape.org/namespaces/inkscape"
   width="529.4054"
   height="260.22339"
   id="svg2"
   version="1.1"
   inkscape:version="0.91 r13725"
   sodipodi:docname="unrolled_rnn_one_output_2.svg">
  <sodipodi:namedview
     id="base"
     pagecolor="#ffffff"
     bordercolor="#666666"
     borderopacity="1.0"
     inkscape:pageopacity="0.0"
     inkscape:pageshadow="2"
     inkscape:zoom="2.8"
     inkscape:cx="226.65227"
     inkscape:cy="177.48402"
     inkscape:document-units="px"
     inkscape:current-layer="layer1"
     showgrid="false"
     fit-margin-top="0"
     fit-margin-left="0"
     fit-margin-right="0"
     fit-margin-bottom="0"
     inkscape:window-width="2495"
     inkscape:window-height="1416"
     inkscape:window-x="65"
     inkscape:window-y="24"
     inkscape:window-maximized="1" />
  <defs
     id="defs4">
    <marker
       inkscape:stockid="Arrow1Mend"
       orient="auto"
       refY="0"
       refX="0"
       id="marker15149"
       style="overflow:visible"
       inkscape:isstock="true">
      <path
         inkscape:connector-curvature="0"
         id="path15151"
         d="M 0,0 5,-5 -12.5,0 5,5 0,0 Z"
         style="fill:#000000;fill-opacity:1;fill-rule:evenodd;stroke:#000000;stroke-width:1pt;stroke-opacity:1"
         transform="matrix(-0.4,0,0,-0.4,-4,0)" />
    </marker>
    <marker
       inkscape:isstock="true"
       style="overflow:visible"
       id="marker14981"
       refX="0"
       refY="0"
       orient="auto"
       inkscape:stockid="Arrow1Mend">
      <path
         inkscape:connector-curvature="0"
         transform="matrix(-0.4,0,0,-0.4,-4,0)"
         style="fill:#000000;fill-opacity:1;fill-rule:evenodd;stroke:#000000;stroke-width:1pt;stroke-opacity:1"
         d="M 0,0 5,-5 -12.5,0 5,5 0,0 Z"
         id="path14983" />
    </marker>
    <marker
       inkscape:isstock="true"
       style="overflow:visible"
       id="marker14707"
       refX="0"
       refY="0"
       orient="auto"
       inkscape:stockid="Arrow1Mend">
      <path
         inkscape:connector-curvature="0"
         transform="matrix(-0.4,0,0,-0.4,-4,0)"
         style="fill:#000000;fill-opacity:1;fill-rule:evenodd;stroke:#000000;stroke-width:1pt;stroke-opacity:1"
         d="M 0,0 5,-5 -12.5,0 5,5 0,0 Z"
         id="path14709" />
    </marker>
    <marker
       inkscape:isstock="true"
       style="overflow:visible"
       id="marker14461"
       refX="0"
       refY="0"
       orient="auto"
       inkscape:stockid="Arrow1Mend">
      <path
         inkscape:connector-curvature="0"
         transform="matrix(-0.4,0,0,-0.4,-4,0)"
         style="fill:#000000;fill-opacity:1;fill-rule:evenodd;stroke:#000000;stroke-width:1pt;stroke-opacity:1"
         d="M 0,0 5,-5 -12.5,0 5,5 0,0 Z"
         id="path14463" />
    </marker>
    <marker
       inkscape:isstock="true"
       style="overflow:visible"
       id="marker13093"
       refX="0"
       refY="0"
       orient="auto"
       inkscape:stockid="Arrow1Mend">
      <path
         inkscape:connector-curvature="0"
         transform="matrix(-0.4,0,0,-0.4,-4,0)"
         style="fill:#000000;fill-opacity:1;fill-rule:evenodd;stroke:#000000;stroke-width:1pt;stroke-opacity:1"
         d="M 0,0 5,-5 -12.5,0 5,5 0,0 Z"
         id="path13095" />
    </marker>
    <marker
       inkscape:isstock="true"
       style="overflow:visible"
       id="marker11598"
       refX="0"
       refY="0"
       orient="auto"
       inkscape:stockid="Arrow1Mend">
      <path
         transform="matrix(-0.4,0,0,-0.4,-4,0)"
         style="fill:#000000;fill-opacity:1;fill-rule:evenodd;stroke:#000000;stroke-width:1pt;stroke-opacity:1"
         d="M 0,0 5,-5 -12.5,0 5,5 0,0 Z"
         id="path11600"
         inkscape:connector-curvature="0" />
    </marker>
    <marker
       inkscape:stockid="Arrow1Mend"
       orient="auto"
       refY="0"
       refX="0"
       id="marker11442"
       style="overflow:visible"
       inkscape:isstock="true"
       inkscape:collect="always">
      <path
         inkscape:connector-curvature="0"
         id="path11444"
         d="M 0,0 5,-5 -12.5,0 5,5 0,0 Z"
         style="fill:#000000;fill-opacity:1;fill-rule:evenodd;stroke:#000000;stroke-width:1pt;stroke-opacity:1"
         transform="matrix(-0.4,0,0,-0.4,-4,0)" />
    </marker>
    <marker
       inkscape:isstock="true"
       style="overflow:visible"
       id="marker11268"
       refX="0"
       refY="0"
       orient="auto"
       inkscape:stockid="Arrow1Mend"
       inkscape:collect="always">
      <path
         transform="matrix(-0.4,0,0,-0.4,-4,0)"
         style="fill:#000000;fill-opacity:1;fill-rule:evenodd;stroke:#000000;stroke-width:1pt;stroke-opacity:1"
         d="M 0,0 5,-5 -12.5,0 5,5 0,0 Z"
         id="path11270"
         inkscape:connector-curvature="0" />
    </marker>
    <marker
       inkscape:stockid="Arrow1Mend"
       orient="auto"
       refY="0"
       refX="0"
       id="marker11985"
       style="overflow:visible"
       inkscape:isstock="true">
      <path
         inkscape:connector-curvature="0"
         id="path11987"
         d="M 0,0 5,-5 -12.5,0 5,5 0,0 Z"
         style="fill:#000000;fill-opacity:1;fill-rule:evenodd;stroke:#000000;stroke-width:1pt;stroke-opacity:1"
         transform="matrix(-0.4,0,0,-0.4,-4,0)" />
    </marker>
    <marker
       inkscape:isstock="true"
       style="overflow:visible"
       id="marker11691"
       refX="0"
       refY="0"
       orient="auto"
       inkscape:stockid="Arrow1Mend"
       inkscape:collect="always">
      <path
         transform="matrix(-0.4,0,0,-0.4,-4,0)"
         style="fill:#000000;fill-opacity:1;fill-rule:evenodd;stroke:#000000;stroke-width:1pt;stroke-opacity:1"
         d="M 0,0 5,-5 -12.5,0 5,5 0,0 Z"
         id="path11693"
         inkscape:connector-curvature="0" />
    </marker>
    <marker
       inkscape:isstock="true"
       style="overflow:visible"
       id="marker11529"
       refX="0"
       refY="0"
       orient="auto"
       inkscape:stockid="Arrow1Mend">
      <path
         transform="matrix(-0.4,0,0,-0.4,-4,0)"
         style="fill:#000000;fill-opacity:1;fill-rule:evenodd;stroke:#000000;stroke-width:1pt;stroke-opacity:1"
         d="M 0,0 5,-5 -12.5,0 5,5 0,0 Z"
         id="path11531"
         inkscape:connector-curvature="0" />
    </marker>
    <marker
       inkscape:stockid="Arrow1Mend"
       orient="auto"
       refY="0"
       refX="0"
       id="marker11415"
       style="overflow:visible"
       inkscape:isstock="true"
       inkscape:collect="always">
      <path
         inkscape:connector-curvature="0"
         id="path11417"
         d="M 0,0 5,-5 -12.5,0 5,5 0,0 Z"
         style="fill:#000000;fill-opacity:1;fill-rule:evenodd;stroke:#000000;stroke-width:1pt;stroke-opacity:1"
         transform="matrix(-0.4,0,0,-0.4,-4,0)" />
    </marker>
    <marker
       inkscape:isstock="true"
       style="overflow:visible"
       id="marker11168"
       refX="0"
       refY="0"
       orient="auto"
       inkscape:stockid="Arrow1Mend">
      <path
         transform="matrix(-0.4,0,0,-0.4,-4,0)"
         style="fill:#000000;fill-opacity:1;fill-rule:evenodd;stroke:#000000;stroke-width:1pt;stroke-opacity:1"
         d="M 0,0 5,-5 -12.5,0 5,5 0,0 Z"
         id="path11170"
         inkscape:connector-curvature="0" />
    </marker>
    <marker
       inkscape:isstock="true"
       style="overflow:visible"
       id="marker10776"
       refX="0"
       refY="0"
       orient="auto"
       inkscape:stockid="Arrow1Mend"
       inkscape:collect="always">
      <path
         transform="matrix(-0.4,0,0,-0.4,-4,0)"
         style="fill:#000000;fill-opacity:1;fill-rule:evenodd;stroke:#000000;stroke-width:1pt;stroke-opacity:1"
         d="M 0,0 5,-5 -12.5,0 5,5 0,0 Z"
         id="path10778"
         inkscape:connector-curvature="0" />
    </marker>
    <marker
       inkscape:isstock="true"
       style="overflow:visible"
       id="marker10724"
       refX="0"
       refY="0"
       orient="auto"
       inkscape:stockid="Arrow1Mend">
      <path
         transform="matrix(-0.4,0,0,-0.4,-4,0)"
         style="fill:#000000;fill-opacity:1;fill-rule:evenodd;stroke:#000000;stroke-width:1pt;stroke-opacity:1"
         d="M 0,0 5,-5 -12.5,0 5,5 0,0 Z"
         id="path10726"
         inkscape:connector-curvature="0" />
    </marker>
    <marker
       style="overflow:visible"
       id="Arrow1Mend"
       refX="0"
       refY="0"
       orient="auto"
       inkscape:stockid="Arrow1Mend">
      <path
         inkscape:connector-curvature="0"
         transform="matrix(-0.4,0,0,-0.4,-4,0)"
         style="fill-rule:evenodd;stroke:#000000;stroke-width:1pt"
         d="M 0,0 5,-5 -12.5,0 5,5 0,0 Z"
         id="path3954" />
    </marker>
    <marker
       style="overflow:visible"
       id="Arrow1Lend"
       refX="0"
       refY="0"
       orient="auto"
       inkscape:stockid="Arrow1Lend">
      <path
         inkscape:connector-curvature="0"
         transform="matrix(-0.8,0,0,-0.8,-10,0)"
         style="fill-rule:evenodd;stroke:#000000;stroke-width:1pt"
         d="M 0,0 5,-5 -12.5,0 5,5 0,0 Z"
         id="path3948" />
    </marker>
    <marker
       style="overflow:visible"
       id="Arrow1Mend5"
       refX="0"
       refY="0"
       orient="auto"
       inkscape:stockid="Arrow1Mend5">
      <path
         inkscape:connector-curvature="0"
         transform="matrix(-0.4,0,0,-0.4,-4,0)"
         style="fill:#ffffff;fill-rule:evenodd;stroke:#ffffff;stroke-width:1pt"
         d="M 0,0 5,-5 -12.5,0 5,5 0,0 Z"
         id="path4708" />
    </marker>
    <marker
       style="overflow:visible"
       id="Arrow1MendC"
       refX="0"
       refY="0"
       orient="auto"
       inkscape:stockid="Arrow1MendC">
      <path
         inkscape:connector-curvature="0"
         transform="matrix(-0.4,0,0,-0.4,-4,0)"
         style="fill:#ffffff;fill-rule:evenodd;stroke:#ffffff;stroke-width:1pt"
         d="M 0,0 5,-5 -12.5,0 5,5 0,0 Z"
         id="path4711" />
    </marker>
    <marker
       style="overflow:visible"
       id="Arrow1Mendl"
       refX="0"
       refY="0"
       orient="auto"
       inkscape:stockid="Arrow1Mendl">
      <path
         inkscape:connector-curvature="0"
         transform="matrix(-0.4,0,0,-0.4,-4,0)"
         style="fill:#ffffff;fill-rule:evenodd;stroke:#ffffff;stroke-width:1pt"
         d="M 0,0 5,-5 -12.5,0 5,5 0,0 Z"
         id="path4714" />
    </marker>
  </defs>
  <metadata
     id="metadata7">
    <rdf:RDF>
      <cc:Work
         rdf:about="">
        <dc:format>image/svg+xml</dc:format>
        <dc:type
           rdf:resource="http://purl.org/dc/dcmitype/StillImage" />
        <dc:title></dc:title>
      </cc:Work>
    </rdf:RDF>
  </metadata>
  <g
     transform="translate(25.438004,-49.236763)"
     id="layer1"
     inkscape:groupmode="layer"
     inkscape:label="Layer 1">
    <rect
       ry="6.8611145"
       y="230.23676"
       x="115.562"
       height="31.904974"
       width="107.40538"
       id="rect2985"
       style="opacity:0.98000004;fill:#aaffa7;fill-opacity:1;stroke:#000000;stroke-width:2;stroke-miterlimit:4;stroke-dasharray:none;stroke-dashoffset:0;stroke-opacity:1" />
    <rect
       style="opacity:0.98000004;fill:#babbff;fill-opacity:1;stroke:#000000;stroke-width:2;stroke-miterlimit:4;stroke-dasharray:none;stroke-dashoffset:0;stroke-opacity:1"
       id="rect2987"
       width="107.40538"
       height="31.904974"
       x="115.562"
       y="170.23676"
       ry="6.8611145" />
    <path
       inkscape:connector-curvature="0"
       id="path4573"
       d="m 169.73481,229.3404 0,-26.26397"
       style="fill:none;stroke:#000000;stroke-width:1px;stroke-linecap:butt;stroke-linejoin:miter;stroke-opacity:1;marker-start:none;marker-end:url(#marker10776)" />
    <rect
       style="opacity:0.98000004;fill:#aaffa7;fill-opacity:1;stroke:#000000;stroke-width:2;stroke-miterlimit:4;stroke-dasharray:none;stroke-dashoffset:0;stroke-opacity:1"
       id="rect10884"
       width="107.40538"
       height="31.904974"
       x="-24.438004"
       y="230.23676"
       ry="6.8611145" />
    <rect
       ry="6.8611145"
       y="230.23676"
       x="255.562"
       height="31.904974"
       width="107.40538"
       id="rect10890"
       style="opacity:0.98000004;fill:#aaffa7;fill-opacity:1;stroke:#000000;stroke-width:2;stroke-miterlimit:4;stroke-dasharray:none;stroke-dashoffset:0;stroke-opacity:1" />
    <rect
       ry="6.8611145"
       y="170.23676"
       x="-24.438004"
       height="31.904974"
       width="107.40538"
       id="rect11292"
       style="opacity:0.98000004;fill:#babbff;fill-opacity:1;stroke:#000000;stroke-width:2;stroke-miterlimit:4;stroke-dasharray:none;stroke-dashoffset:0;stroke-opacity:1" />
    <rect
       style="opacity:0.98000004;fill:#babbff;fill-opacity:1;stroke:#000000;stroke-width:2;stroke-miterlimit:4;stroke-dasharray:none;stroke-dashoffset:0;stroke-opacity:1"
       id="rect11298"
       width="107.40538"
       height="31.904974"
       x="255.562"
       y="170.23676"
       ry="6.8611145" />
    <path
       style="fill:none;stroke:#000000;stroke-width:1px;stroke-linecap:butt;stroke-linejoin:miter;stroke-opacity:1;marker-start:none;marker-end:url(#marker11415)"
       d="m 29.73481,229.3404 0,-26.26397"
       id="path11413"
       inkscape:connector-curvature="0" />
    <path
       inkscape:connector-curvature="0"
       id="path11527"
       d="m 309.73481,229.3404 0,-26.26397"
       style="fill:none;stroke:#000000;stroke-width:1px;stroke-linecap:butt;stroke-linejoin:miter;stroke-opacity:1;marker-start:none;marker-end:url(#marker11529)" />
    <path
       inkscape:connector-curvature="0"
       id="path11689"
       d="m 82.054919,186.20841 31.889101,0"
       style="fill:none;stroke:#000000;stroke-width:1px;stroke-linecap:butt;stroke-linejoin:miter;stroke-opacity:1;marker-start:none;marker-end:url(#marker11691)"
       sodipodi:nodetypes="cc" />
    <path
       sodipodi:nodetypes="cc"
       style="fill:none;stroke:#000000;stroke-width:1px;stroke-linecap:butt;stroke-linejoin:miter;stroke-opacity:1;marker-start:none;marker-end:url(#marker11985)"
       d="m 223.48349,186.20841 29.74624,0"
       id="path11983"
       inkscape:connector-curvature="0" />
    <g
       id="g5781"
       transform="matrix(1.2703564,0,0,1.2703564,-80.6732,-161.2977)">
      <path
         inkscape:connector-curvature="0"
         d="m 86.415252,316.3232 c -0.54037,0.10132 -0.74301,0.5066 -0.74301,0.82744 0,0.40529 0.32085,0.54038 0.55726,0.54038 0.5066,0 0.86123,-0.43906 0.86123,-0.895 0,-0.70924 -0.81057,-1.03008 -1.51982,-1.03008 -1.03008,0 -1.60422,1.0132 -1.75621,1.33404 -0.38839,-1.2665 -1.43536,-1.33404 -1.73932,-1.33404 -1.72245,0 -2.63433,2.21215 -2.63433,2.58366 0,0.0675 0.0675,0.15198 0.18575,0.15198 0.13509,0 0.16886,-0.10132 0.20264,-0.16887 0.57415,-1.87442 1.70556,-2.22904 2.19527,-2.22904 0.7599,0 0.91188,0.70924 0.91188,1.11452 0,0.37151 -0.10125,0.7599 -0.30395,1.57046 l -0.57415,2.31348 c -0.2533,1.0132 -0.74301,1.94197 -1.63801,1.94197 -0.0844,0 -0.5066,0 -0.86123,-0.21952 0.60793,-0.11821 0.74301,-0.62481 0.74301,-0.82745 0,-0.33774 -0.2533,-0.54038 -0.57413,-0.54038 -0.40529,0 -0.84434,0.35462 -0.84434,0.895 0,0.70924 0.79367,1.03009 1.5198,1.03009 0.81056,0 1.38471,-0.6417 1.73932,-1.33405 0.27019,0.99631 1.11453,1.33405 1.73934,1.33405 1.72244,0 2.63433,-2.21216 2.63433,-2.58367 0,-0.0844 -0.0675,-0.15198 -0.16887,-0.15198 -0.15198,0 -0.16887,0.0844 -0.21953,0.21953 -0.45594,1.48603 -1.43537,2.17838 -2.19527,2.17838 -0.59103,0 -0.91188,-0.43905 -0.91188,-1.13141 0,-0.3715 0.0675,-0.64169 0.33773,-1.75621 l 0.59104,-2.29659 c 0.2533,-1.01321 0.82744,-1.75622 1.60424,-1.75622 0.0337,0 0.5066,0 0.86121,0.21953 z"
         id="use4903" />
      <path
         inkscape:connector-curvature="0"
         d="m 93.312066,322.15474 c 0,-1.20458 -0.12387,-1.93634 -0.49533,-2.65684 -0.49535,-0.99069 -1.40723,-1.23836 -2.02642,-1.23836 -1.41847,0 -1.93633,1.05824 -2.09395,1.37345 -0.405274,0.82182 -0.427784,1.93635 -0.427784,2.52175 0,0.74302 0.0337,1.88005 0.574154,2.78068 0.51785,0.83308 1.35092,1.04697 1.94758,1.04697 0.54038,0 1.50855,-0.16886 2.07144,-1.28339 0.41654,-0.81056 0.45031,-1.8125 0.45031,-2.54426 z m -2.52175,3.51244 c -0.38276,0 -1.15955,-0.18013 -1.39596,-1.3622 -0.12387,-0.64169 -0.12387,-1.69993 -0.12387,-2.28533 0,-0.77679 0,-1.56484 0.12387,-2.18402 0.23641,-1.14829 1.11453,-1.26087 1.39596,-1.26087 0.38278,0 1.15957,0.19138 1.38472,1.21584 0.1351,0.61918 0.1351,1.46352 0.1351,2.22905 0,0.66421 0,1.67741 -0.1351,2.30785 -0.23642,1.18206 -1.0132,1.33968 -1.38472,1.33968 z"
         id="use4905" />
    </g>
    <g
       id="g5763"
       transform="matrix(1.2703564,0,0,1.2703564,41.483367,-161.2977)">
      <path
         inkscape:connector-curvature="0"
         d="m 102.49562,316.3232 c -0.54037,0.10132 -0.74301,0.5066 -0.74301,0.82744 0,0.40529 0.32085,0.54038 0.55726,0.54038 0.5066,0 0.86123,-0.43906 0.86123,-0.895 0,-0.70924 -0.81056,-1.03008 -1.51981,-1.03008 -1.03009,0 -1.60423,1.0132 -1.756224,1.33404 -0.38838,-1.2665 -1.43536,-1.33404 -1.73932,-1.33404 -1.72245,0 -2.63433,2.21215 -2.63433,2.58366 0,0.0675 0.0675,0.15198 0.18575,0.15198 0.13509,0 0.16887,-0.10132 0.20264,-0.16887 0.57415,-1.87442 1.70556,-2.22904 2.19528,-2.22904 0.7599,0 0.91187,0.70924 0.91187,1.11452 0,0.37151 -0.10137,0.7599 -0.30395,1.57046 l -0.57415,2.31348 c -0.2533,1.0132 -0.74301,1.94197 -1.63801,1.94197 -0.0845,0 -0.5066,0 -0.86123,-0.21952 0.60793,-0.11821 0.74302,-0.62481 0.74302,-0.82745 0,-0.33774 -0.2533,-0.54038 -0.57414,-0.54038 -0.40529,0 -0.84434,0.35462 -0.84434,0.895 0,0.70924 0.79368,1.03009 1.5198,1.03009 0.81056,0 1.38471,-0.6417 1.73933,-1.33405 0.27018,0.99631 1.11452,1.33405 1.73933,1.33405 1.722444,0 2.634334,-2.21216 2.634334,-2.58367 0,-0.0844 -0.0675,-0.15198 -0.16886,-0.15198 -0.15199,0 -0.16888,0.0844 -0.21954,0.21953 -0.45594,1.48603 -1.43536,2.17838 -2.19526,2.17838 -0.591044,0 -0.911894,-0.43905 -0.911894,-1.13141 0,-0.3715 0.0675,-0.64169 0.33774,-1.75621 l 0.591034,-2.29659 c 0.2533,-1.01321 0.82744,-1.75622 1.60424,-1.75622 0.0337,0 0.5066,0 0.86121,0.21953 z"
         id="use4907" />
      <path
         inkscape:connector-curvature="0"
         d="m 107.42232,318.57476 c 0,-0.30396 -0.0225,-0.31522 -0.32647,-0.31522 -0.46158,0.45031 -1.05824,0.7205 -2.12773,0.7205 l 0,0.37151 c 0.30397,0 0.91189,0 1.56484,-0.30396 l 0,5.77525 c 0,0.41654 -0.0337,0.55163 -1.10326,0.55163 l -0.39403,0 0,0.37151 c 0.46157,-0.0338 1.42974,-0.0338 1.93634,-0.0338 0.5066,0 1.48603,0 1.9476,0.0338 l 0,-0.37151 -0.39402,0 c -1.06949,0 -1.10327,-0.13509 -1.10327,-0.55163 l 0,-6.24808 z"
         id="use4909" />
    </g>
    <g
       id="g5767"
       transform="matrix(1.2703564,0,0,1.2703564,163.12508,-161.2977)">
      <path
         inkscape:connector-curvature="0"
         d="m 118.57599,316.3232 c -0.54038,0.10132 -0.74302,0.5066 -0.74302,0.82744 0,0.40529 0.32085,0.54038 0.55727,0.54038 0.5066,0 0.86122,-0.43906 0.86122,-0.895 0,-0.70924 -0.81056,-1.03008 -1.5198,-1.03008 -1.0301,0 -1.60424,1.0132 -1.75622,1.33404 -0.38839,-1.2665 -1.43537,-1.33404 -1.73933,-1.33404 -1.72245,0 -2.63432,2.21215 -2.63432,2.58366 0,0.0675 0.0675,0.15198 0.18575,0.15198 0.1351,0 0.16886,-0.10132 0.20263,-0.16887 0.57415,-1.87442 1.70557,-2.22904 2.19528,-2.22904 0.7599,0 0.91187,0.70924 0.91187,1.11452 0,0.37151 -0.10137,0.7599 -0.30395,1.57046 l -0.57415,2.31348 c -0.2533,1.0132 -0.74301,1.94197 -1.63801,1.94197 -0.0845,0 -0.5066,0 -0.86122,-0.21952 0.60792,-0.11821 0.74301,-0.62481 0.74301,-0.82745 0,-0.33774 -0.2533,-0.54038 -0.57414,-0.54038 -0.40529,0 -0.84434,0.35462 -0.84434,0.895 0,0.70924 0.79368,1.03009 1.5198,1.03009 0.81057,0 1.38472,-0.6417 1.73933,-1.33405 0.27019,0.99631 1.11452,1.33405 1.73934,1.33405 1.72243,0 2.63432,-2.21216 2.63432,-2.58367 0,-0.0844 -0.0675,-0.15198 -0.16886,-0.15198 -0.15199,0 -0.16888,0.0844 -0.21954,0.21953 -0.45594,1.48603 -1.43536,2.17838 -2.19526,2.17838 -0.59104,0 -0.91189,-0.43905 -0.91189,-1.13141 0,-0.3715 0.0675,-0.64169 0.33774,-1.75621 l 0.59104,-2.29659 c 0.2533,-1.01321 0.82745,-1.75622 1.60423,-1.75622 0.0338,0 0.5066,0 0.86122,0.21953 z"
         id="use4911" />
      <path
         inkscape:connector-curvature="0"
         d="m 123.14244,323.44939 c 0.18012,-0.16887 0.65295,-0.54038 0.83307,-0.69799 0.69799,-0.64169 1.3622,-1.26087 1.3622,-2.28533 0,-1.33968 -1.12579,-2.20653 -2.53301,-2.20653 -1.35093,0 -2.2403,1.02446 -2.2403,2.02641 0,0.55163 0.43906,0.63043 0.59666,0.63043 0.23641,0 0.58541,-0.16886 0.58541,-0.59666 0,-0.58541 -0.56288,-0.58541 -0.69798,-0.58541 0.32647,-0.82182 1.08075,-1.10326 1.63238,-1.10326 1.04698,0 1.58735,0.88937 1.58735,1.83502 0,1.17081 -0.82182,2.02641 -2.15025,3.3886 l -1.41847,1.46351 c -0.1351,0.12384 -0.1351,0.14635 -0.1351,0.4278 l 4.44684,0 0.32647,-2.01515 -0.349,0 c -0.0337,0.22516 -0.12387,0.78805 -0.25892,1.00195 -0.0675,0.0901 -0.92314,0.0901 -1.10327,0.0901 l -2.00388,0 1.5198,-1.37346 z"
         id="use4913" />
    </g>
    <rect
       ry="6.8611145"
       y="110.23676"
       x="395.56201"
       height="31.904974"
       width="107.40538"
       id="rect5809"
       style="opacity:0.98000004;fill:#ffb8b8;fill-opacity:1;stroke:#000000;stroke-width:2;stroke-miterlimit:4;stroke-dasharray:none;stroke-dashoffset:0;stroke-opacity:1" />
    <path
       id="use4923"
       d="m 450.40925,130.19441 c -0.57921,0.81519 -1.41585,1.54455 -2.46701,1.54455 -0.25742,0 -1.28712,-0.0429 -1.6089,-1.0297 0.0643,0.0215 0.17162,0.0215 0.21454,0.0215 0.64356,0 1.07258,-0.55775 1.07258,-1.05115 0,-0.4934 -0.40758,-0.66501 -0.72936,-0.66501 -0.34322,0 -1.09406,0.25743 -1.09406,1.30857 0,1.09407 0.92244,1.84489 2.1452,1.84489 2.14523,0 4.3119,-1.9736 4.91255,-4.35478 l 2.10231,-8.36633 c 0.0215,-0.10722 0.0643,-0.23598 0.0643,-0.36469 0,-0.32179 -0.25742,-0.5363 -0.57921,-0.5363 -0.19305,0 -0.64356,0.0858 -0.81518,0.72936 l -1.58745,6.30693 c -0.10722,0.38614 -0.10722,0.42905 -0.27888,0.66502 -0.42904,0.60066 -1.13697,1.33004 -2.16666,1.33004 -1.20133,0 -1.30859,-1.17987 -1.30859,-1.75908 0,-1.22278 0.57921,-2.87459 1.15842,-4.41914 0.23597,-0.62211 0.36469,-0.92244 0.36469,-1.35149 0,-0.90099 -0.64356,-1.71616 -1.69471,-1.71616 -1.9736,0 -2.76734,3.11055 -2.76734,3.28217 0,0.0858 0.0858,0.19307 0.23597,0.19307 0.19308,0 0.21453,-0.0858 0.30034,-0.38614 0.51485,-1.80198 1.33004,-2.66007 2.16666,-2.66007 0.19308,0 0.55775,0 0.55775,0.70792 0,0.55777 -0.23597,1.17987 -0.55775,1.99506 -1.05116,2.81022 -1.05116,3.51815 -1.05116,4.033 0,2.03794 1.45875,2.50989 2.53136,2.50989 0.62211,0 1.3944,-0.19306 2.1452,-0.9868 l 0.0215,0.0215 c -0.32178,1.26569 -0.53629,2.10232 -1.28712,3.15347 z"
       inkscape:connector-curvature="0" />
    <g
       id="g10090"
       transform="matrix(1.2464977,0,0,1.2464977,-108.23884,-240.48176)">
      <path
         inkscape:connector-curvature="0"
         d="m 108.23455,335.61648 c 0.0169,-0.0675 0.0506,-0.16887 0.0506,-0.2533 0,-0.16887 -0.16886,-0.16887 -0.20264,-0.16887 -0.0169,0 -0.84434,0.0675 -0.92876,0.0844 -0.28708,0.0169 -0.54038,0.0507 -0.84434,0.0675 -0.42217,0.0338 -0.54037,0.0507 -0.54037,0.35462 0,0.16887 0.13508,0.16887 0.3715,0.16887 0.82745,0 0.84433,0.15198 0.84433,0.32085 0,0.10132 -0.0337,0.23641 -0.0506,0.28707 l -2.44857,9.7774 c -0.0675,0.2533 -0.0675,0.28707 -0.0675,0.38839 0,0.37151 0.28707,0.43906 0.45594,0.43906 0.28707,0 0.5066,-0.21953 0.59103,-0.40528 l 0.7599,-3.0565 c 0.0845,-0.3715 0.18575,-0.72612 0.27019,-1.09763 0.18575,-0.70924 0.18575,-0.72613 0.5066,-1.21584 0.32085,-0.48972 1.08075,-1.50292 2.38103,-1.50292 0.67547,0 0.91188,0.5066 0.91188,1.18207 0,0.94565 -0.65858,2.7863 -1.03008,3.79951 -0.15199,0.40528 -0.23642,0.6248 -0.23642,0.92876 0,0.75991 0.52349,1.36783 1.33404,1.36783 1.57048,0 2.1615,-2.48235 2.1615,-2.58367 0,-0.0844 -0.0675,-0.15198 -0.16886,-0.15198 -0.15199,0 -0.16886,0.0507 -0.2533,0.33774 -0.3884,1.35093 -1.0132,2.06017 -1.68868,2.06017 -0.16886,0 -0.43905,-0.0169 -0.43905,-0.55726 0,-0.43905 0.20264,-0.97943 0.27019,-1.16518 0.30396,-0.81056 1.06386,-2.80319 1.06386,-3.78262 0,-1.0132 -0.59103,-1.7731 -1.87442,-1.7731 -0.96254,0 -1.80688,0.45594 -2.49924,1.33404 l 1.30029,-5.18421 z"
         id="use4927" />
      <path
         inkscape:connector-curvature="0"
         d="m 118.51292,345.85545 c 0,-1.20458 -0.12387,-1.93634 -0.49533,-2.65684 -0.49535,-0.99069 -1.40723,-1.23836 -2.02642,-1.23836 -1.41847,0 -1.93633,1.05824 -2.09395,1.37345 -0.40527,0.82182 -0.42778,1.93635 -0.42778,2.52175 0,0.74302 0.0337,1.88005 0.57413,2.78068 0.51787,0.83308 1.35094,1.04697 1.9476,1.04697 0.54038,0 1.50855,-0.16886 2.07144,-1.28339 0.41654,-0.81056 0.45031,-1.8125 0.45031,-2.54426 z m -2.52175,3.51244 c -0.38276,0 -1.15955,-0.18013 -1.39596,-1.3622 -0.12387,-0.64169 -0.12387,-1.69993 -0.12387,-2.28533 0,-0.77679 0,-1.56484 0.12387,-2.18402 0.23641,-1.14829 1.11453,-1.26087 1.39596,-1.26087 0.38278,0 1.15957,0.19138 1.38472,1.21584 0.1351,0.61918 0.1351,1.46352 0.1351,2.22905 0,0.66421 0,1.67741 -0.1351,2.30785 -0.23642,1.18206 -1.0132,1.33968 -1.38472,1.33968 z"
         id="use4929" />
    </g>
    <g
       id="g10094"
       transform="matrix(1.2464977,0,0,1.2464977,10.332588,-240.48176)">
      <path
         inkscape:connector-curvature="0"
         d="m 124.43734,335.61648 c 0.0169,-0.0675 0.0506,-0.16887 0.0506,-0.2533 -10e-6,-0.16887 -0.16887,-0.16887 -0.20265,-0.16887 -0.0169,0 -0.84433,0.0675 -0.92876,0.0844 -0.28707,0.0169 -0.54037,0.0507 -0.84434,0.0675 -0.42217,0.0338 -0.54037,0.0507 -0.54037,0.35462 0,0.16887 0.13509,0.16887 0.3715,0.16887 0.82745,0 0.84434,0.15198 0.84434,0.32085 0,0.10132 -0.0337,0.23641 -0.0506,0.28707 l -2.44856,9.7774 c -0.0675,0.2533 -0.0675,0.28707 -0.0675,0.38839 0,0.37151 0.28707,0.43906 0.45594,0.43906 0.28707,0 0.5066,-0.21953 0.59103,-0.40528 l 0.7599,-3.0565 c 0.0844,-0.3715 0.18575,-0.72612 0.27019,-1.09763 0.18575,-0.70924 0.18575,-0.72613 0.5066,-1.21584 0.32085,-0.48972 1.08075,-1.50292 2.38103,-1.50292 0.67547,0 0.91188,0.5066 0.91188,1.18207 0,0.94565 -0.65858,2.7863 -1.03008,3.79951 -0.15199,0.40528 -0.23643,0.6248 -0.23643,0.92876 0,0.75991 0.52349,1.36783 1.33405,1.36783 1.57046,0 2.1615,-2.48235 2.1615,-2.58367 0,-0.0844 -0.0675,-0.15198 -0.16886,-0.15198 -0.15199,0 -0.16888,0.0507 -0.2533,0.33774 -0.3884,1.35093 -1.0132,2.06017 -1.68868,2.06017 -0.16886,0 -0.43905,-0.0169 -0.43905,-0.55726 0,-0.43905 0.20264,-0.97943 0.27019,-1.16518 0.30396,-0.81056 1.06386,-2.80319 1.06386,-3.78262 0,-1.0132 -0.59103,-1.7731 -1.87442,-1.7731 -0.96254,0 -1.80688,0.45594 -2.49924,1.33404 l 1.30028,-5.18421 z"
         id="use4931" />
      <path
         inkscape:connector-curvature="0"
         d="m 132.74561,342.27547 c 0,-0.30396 -0.0225,-0.31522 -0.32647,-0.31522 -0.46158,0.45031 -1.05824,0.7205 -2.12773,0.7205 l 0,0.37151 c 0.30396,0 0.91188,0 1.56484,-0.30396 l 0,5.77525 c 0,0.41654 -0.0337,0.55163 -1.10328,0.55163 l -0.39401,0 0,0.37151 c 0.46156,-0.0338 1.42974,-0.0338 1.93634,-0.0338 0.5066,0 1.48602,0 1.9476,0.0338 l 0,-0.37151 -0.39403,0 c -1.06948,0 -1.10326,-0.13509 -1.10326,-0.55163 l 0,-6.24808 z"
         id="use4933" />
    </g>
    <g
       id="g10098"
       transform="matrix(1.2464977,0,0,1.2464977,131.04687,-240.48176)">
      <path
         inkscape:connector-curvature="0"
         d="m 140.64014,335.61648 c 0.0169,-0.0675 0.0506,-0.16887 0.0506,-0.2533 -1e-5,-0.16887 -0.16887,-0.16887 -0.20265,-0.16887 -0.0169,0 -0.84433,0.0675 -0.92876,0.0844 -0.28707,0.0169 -0.54037,0.0507 -0.84434,0.0675 -0.42217,0.0338 -0.54037,0.0507 -0.54037,0.35462 0,0.16887 0.13509,0.16887 0.3715,0.16887 0.82745,0 0.84434,0.15198 0.84434,0.32085 0,0.10132 -0.0337,0.23641 -0.0506,0.28707 l -2.44856,9.7774 c -0.0675,0.2533 -0.0675,0.28707 -0.0675,0.38839 0,0.37151 0.28707,0.43906 0.45594,0.43906 0.28707,0 0.5066,-0.21953 0.59103,-0.40528 l 0.7599,-3.0565 c 0.0845,-0.3715 0.18575,-0.72612 0.27019,-1.09763 0.18575,-0.70924 0.18575,-0.72613 0.5066,-1.21584 0.32085,-0.48972 1.08075,-1.50292 2.38103,-1.50292 0.67547,0 0.91188,0.5066 0.91188,1.18207 0,0.94565 -0.65858,2.7863 -1.03008,3.79951 -0.15199,0.40528 -0.23643,0.6248 -0.23643,0.92876 0,0.75991 0.52349,1.36783 1.33405,1.36783 1.57046,0 2.1615,-2.48235 2.1615,-2.58367 0,-0.0844 -0.0675,-0.15198 -0.16886,-0.15198 -0.15199,0 -0.16888,0.0507 -0.2533,0.33774 -0.3884,1.35093 -1.0132,2.06017 -1.68868,2.06017 -0.16886,0 -0.43905,-0.0169 -0.43905,-0.55726 0,-0.43905 0.20264,-0.97943 0.27019,-1.16518 0.30396,-0.81056 1.06386,-2.80319 1.06386,-3.78262 0,-1.0132 -0.59103,-1.7731 -1.87442,-1.7731 -0.96254,0 -1.80688,0.45594 -2.49924,1.33404 l 1.30028,-5.18421 z"
         id="use4935" />
      <path
         inkscape:connector-curvature="0"
         d="m 148.58674,347.1501 c 0.18012,-0.16887 0.65296,-0.54038 0.83308,-0.69799 0.69798,-0.64169 1.36219,-1.26087 1.36219,-2.28533 0,-1.33968 -1.12577,-2.20653 -2.533,-2.20653 -1.35094,0 -2.2403,1.02446 -2.2403,2.02641 0,0.55163 0.43905,0.63043 0.59666,0.63043 0.23642,0 0.5854,-0.16886 0.5854,-0.59666 0,-0.58541 -0.56288,-0.58541 -0.69798,-0.58541 0.32647,-0.82182 1.08075,-1.10326 1.63238,-1.10326 1.04698,0 1.58735,0.88937 1.58735,1.83502 0,1.17081 -0.82182,2.02641 -2.15023,3.3886 l -1.41849,1.46351 c -0.13509,0.12384 -0.13509,0.14635 -0.13509,0.4278 l 4.44683,0 0.32647,-2.01515 -0.34899,0 c -0.0337,0.22516 -0.12387,0.78805 -0.25893,1.00195 -0.0675,0.0901 -0.92314,0.0901 -1.10327,0.0901 l -2.00388,0 1.5198,-1.37346 z"
         id="use4937" />
    </g>
    <g
       id="g11166"
       transform="translate(44.642857,-45.859494)">
      <path
         inkscape:connector-curvature="0"
         d="m -44.243544,350.84662 c 0.437362,1.19281 1.669928,1.41149 2.425372,1.41149 1.510886,0 2.405491,-1.31208 2.962134,-2.68382 0.457241,-1.15303 1.192805,-3.77721 1.192805,-4.95013 0,-1.21269 -0.616284,-1.33197 -0.795204,-1.33197 -0.477123,0 -0.914484,0.47712 -0.914484,0.87472 0,0.23856 0.139167,0.37772 0.238562,0.45725 0.17892,0.17892 0.695802,0.71568 0.695802,1.74945 0,0.67591 -0.556643,2.54464 -0.974124,3.47901 -0.556642,1.21269 -1.292206,2.00788 -2.325972,2.00788 -1.113285,0 -1.471126,-0.83496 -1.471126,-1.74944 0,-0.57652 0.178921,-1.27232 0.258441,-1.61029 l 0.834965,-3.33985 c 0.09941,-0.39761 0.27832,-1.09341 0.27832,-1.17293 0,-0.2982 -0.238562,-0.49701 -0.536762,-0.49701 -0.576523,0 -0.715684,0.49701 -0.834964,0.97413 -0.198802,0.77532 -1.033765,4.13507 -1.113285,4.57242 -0.07952,0.33797 -0.07952,0.55665 -0.07952,0.99401 0,0.47712 -0.636162,1.23256 -0.656043,1.27233 -0.218681,0.21867 -0.536763,0.55663 -1.153046,0.55663 -1.570527,0 -1.570527,-1.491 -1.570527,-1.82896 0,-0.63617 0.139167,-1.51089 1.033766,-3.87662 0.23856,-0.61629 0.33796,-0.87472 0.33796,-1.27233 0,-0.83496 -0.596403,-1.5904 -1.570528,-1.5904 -1.828968,0 -2.564531,2.88261 -2.564531,3.04165 0,0.0795 0.07952,0.17892 0.218681,0.17892 0.17892,0 0.198802,-0.0795 0.278321,-0.35784 0.497002,-1.74945 1.272327,-2.46513 2.007889,-2.46513 0.198802,0 0.516883,0.0199 0.516883,0.65604 0,0.0994 0,0.51689 -0.33796,1.39161 -0.934365,2.48501 -1.133167,3.30009 -1.133167,4.05554 0,2.08741 1.709688,2.46513 2.723573,2.46513 0.337963,0 1.232567,0 2.02777,-1.41149 z"
         id="use10376" />
      <path
         inkscape:connector-curvature="0"
         d="m -30.686973,350.81349 c 0,-1.41811 -0.14579,-2.27958 -0.583149,-3.1278 -0.58315,-1.1663 -1.656675,-1.45788 -2.385613,-1.45788 -1.669927,0 -2.279583,1.24583 -2.46513,1.61693 -0.477123,0.9675 -0.503629,2.27958 -0.503629,2.96875 0,0.87473 0.03976,2.21331 0.675922,3.27359 0.609657,0.98076 1.590409,1.23256 2.292837,1.23256 0.636164,0 1.775957,-0.19879 2.438627,-1.51087 0.490374,-0.95426 0.530135,-2.13381 0.530135,-2.99528 z m -2.968762,4.13507 c -0.450615,0 -1.365098,-0.21206 -1.643419,-1.60367 -0.14579,-0.75544 -0.14579,-2.00127 -0.14579,-2.69044 0,-0.91448 0,-1.84221 0.14579,-2.57115 0.278321,-1.35185 1.312084,-1.48439 1.643419,-1.48439 0.450618,0 1.365101,0.22532 1.630169,1.43138 0.159041,0.72892 0.159041,1.72293 0.159041,2.62416 0,0.78195 0,1.97476 -0.159041,2.71695 -0.278321,1.39161 -1.192806,1.57716 -1.630169,1.57716 z"
         id="use10378" />
    </g>
    <g
       id="g11170"
       transform="translate(159,-45.720339)">
      <path
         inkscape:connector-curvature="0"
         d="m -22.459931,350.84662 c 0.437365,1.19281 1.669936,1.41149 2.425374,1.41149 1.510888,0 2.405491,-1.31208 2.962136,-2.68382 0.457237,-1.15303 1.192803,-3.77721 1.192803,-4.95013 0,-1.21269 -0.616286,-1.33197 -0.795206,-1.33197 -0.477121,0 -0.914474,0.47712 -0.914474,0.87472 0,0.23856 0.139164,0.37772 0.23856,0.45725 0.178921,0.17892 0.695798,0.71568 0.695798,1.74945 0,0.67591 -0.556645,2.54464 -0.974126,3.47901 -0.556646,1.21269 -1.2922,2.00788 -2.325966,2.00788 -1.113291,0 -1.471132,-0.83496 -1.471132,-1.74944 0,-0.57652 0.17892,-1.27232 0.258444,-1.61029 l 0.834963,-3.33985 c 0.09936,-0.39761 0.278316,-1.09341 0.278316,-1.17293 0,-0.2982 -0.23856,-0.49701 -0.536761,-0.49701 -0.576518,0 -0.715682,0.49701 -0.834962,0.97413 -0.198805,0.77532 -1.033767,4.13507 -1.113279,4.57242 -0.07947,0.33797 -0.07947,0.55665 -0.07947,0.99401 0,0.47712 -0.636169,1.23256 -0.656053,1.27233 -0.218677,0.21867 -0.536762,0.55663 -1.153035,0.55663 -1.570529,0 -1.570529,-1.491 -1.570529,-1.82896 0,-0.63617 0.139165,-1.51089 1.033755,-3.87662 0.238573,-0.61629 0.337969,-0.87472 0.337969,-1.27233 0,-0.83496 -0.596402,-1.5904 -1.570528,-1.5904 -1.828973,0 -2.564532,2.88261 -2.564532,3.04165 0,0.0795 0.07952,0.17892 0.218681,0.17892 0.17892,0 0.1988,-0.0795 0.278321,-0.35784 0.497002,-1.74945 1.272324,-2.46513 2.00789,-2.46513 0.198804,0 0.516877,0.0199 0.516877,0.65604 0,0.0994 0,0.51689 -0.337957,1.39161 -0.93437,2.48501 -1.133163,3.30009 -1.133163,4.05554 0,2.08741 1.709681,2.46513 2.723575,2.46513 0.337957,0 1.23256,0 2.027766,-1.41149 z"
         id="use10380" />
      <path
         inkscape:connector-curvature="0"
         d="m -11.222717,346.59891 c 0,-0.35784 -0.02649,-0.3711 -0.384341,-0.3711 -0.54339,0.53015 -1.245828,0.84822 -2.504899,0.84822 l 0,0.43737 c 0.357841,0 1.073523,0 1.842229,-0.35784 l 0,6.79899 c 0,0.49037 -0.03979,0.64941 -1.29884,0.64941 l -0.463865,0 0,0.43737 c 0.54339,-0.0398 1.683181,-0.0398 2.279582,-0.0398 0.596402,0 1.749449,0 2.2928383,0.0398 l 0,-0.43737 -0.4638653,0 c -1.259071,0 -1.298839,-0.15904 -1.298839,-0.64941 l 0,-7.35564 z"
         id="use10382" />
    </g>
    <g
       transform="translate(281,-45.720339)"
       id="g11218">
      <path
         id="path11220"
         d="m -0.67464974,350.84662 c 0.43735333,1.19281 1.6699245,1.41149 2.42537914,1.41149 1.510888,0 2.4054904,-1.31208 2.962124,-2.68382 0.4572491,-1.15303 1.1928032,-3.77721 1.1928032,-4.95013 0,-1.21269 -0.6162856,-1.33197 -0.7951943,-1.33197 -0.477133,0 -0.9144864,0.47712 -0.9144864,0.87472 0,0.23856 0.1392114,0.37772 0.2385607,0.45725 0.1789087,0.17892 0.6958097,0.71568 0.6958097,1.74945 0,0.67591 -0.5566572,2.54464 -0.9741265,3.47901 -0.5566455,1.21269 -1.2922114,2.00788 -2.3259781,2.00788 -1.11328376,0 -1.4711365,-0.83496 -1.4711365,-1.74944 0,-0.57652 0.17892048,-1.27232 0.25844462,-1.61029 l 0.83496228,-3.33985 c 0.099361,-0.39761 0.2783333,-1.09341 0.2783333,-1.17293 0,-0.2982 -0.2385771,-0.49701 -0.536778,-0.49701 -0.57651758,0 -0.71568188,0.49701 -0.8349622,0.97413 -0.19879269,0.77532 -1.03375494,4.13507 -1.11327908,4.57242 -0.0794653,0.33797 -0.0794653,0.55665 -0.0794653,0.99401 0,0.47712 -0.63616952,1.23256 -0.65604172,1.27233 -0.2186885,0.21867 -0.5367615,0.55663 -1.153047,0.55663 -1.5705283,0 -1.5705283,-1.491 -1.5705283,-1.82896 0,-0.63617 0.1391643,-1.51089 1.0337668,-3.87662 0.2385606,-0.61629 0.337957,-0.87472 0.337957,-1.27233 0,-0.83496 -0.5964016,-1.5904 -1.5705282,-1.5904 -1.828961,0 -2.5645269,2.88261 -2.5645269,3.04165 0,0.0795 0.079465,0.17892 0.2186767,0.17892 0.1789205,0 0.1988044,-0.0795 0.2783168,-0.35784 0.4970052,-1.74945 1.2723273,-2.46513 2.0078932,-2.46513 0.1988045,0 0.5168893,0.0199 0.5168893,0.65604 0,0.0994 0,0.51689 -0.3379688,1.39161 -0.9343586,2.48501 -1.133163,3.30009 -1.133163,4.05554 0,2.08741 1.7096925,2.46513 2.7235752,2.46513 0.337957,0 1.2325594,0 2.02776542,-1.41149 z"
         inkscape:connector-curvature="0" />
      <path
         id="path11222"
         d="m 10.13846,352.33763 c 0.212061,-0.1988 0.768694,-0.63615 0.980755,-0.8217 0.821718,-0.75545 1.603668,-1.48439 1.603668,-2.69045 0,-1.57716 -1.325351,-2.59767 -2.9820199,-2.59767 -1.5904004,0 -2.6374231,1.20606 -2.6374231,2.38562 0,0.64942 0.5168893,0.7422 0.702426,0.7422 0.2783168,0 0.6891817,-0.19881 0.6891817,-0.70244 0,-0.68917 -0.6626698,-0.68917 -0.821718,-0.68917 0.3843529,-0.9675 1.2723273,-1.29884 1.9217529,-1.29884 1.2325714,0 1.8687294,1.04702 1.8687294,2.1603 0,1.37835 -0.967499,2.38562 -2.531411,3.98928 l -1.6699127,1.72293 C 7.10344,354.68348 7.10344,354.71 7.10344,355.04133 l 5.23509,0 0.384353,-2.37237 -0.410853,0 c -0.03967,0.26508 -0.145828,0.92775 -0.304841,1.17956 -0.07947,0.10607 -1.086767,0.10607 -1.298827,0.10607 l -2.3591066,0 1.7892046,-1.61691 z"
         inkscape:connector-curvature="0" />
    </g>
    <path
       inkscape:connector-curvature="0"
       id="path11266"
       d="m 1.73481,289.3404 0,-26.26397"
       style="fill:none;stroke:#000000;stroke-width:1px;stroke-linecap:butt;stroke-linejoin:miter;stroke-opacity:1;marker-start:none;marker-end:url(#marker11268)" />
    <path
       style="fill:none;stroke:#000000;stroke-width:1px;stroke-linecap:butt;stroke-linejoin:miter;stroke-opacity:1;marker-start:none;marker-end:url(#marker11442)"
       d="m 137.73481,289.3404 0,-26.26397"
       id="path11440"
       inkscape:connector-curvature="0" />
    <path
       inkscape:connector-curvature="0"
       id="path11596"
       d="m 283.73481,289.3404 0,-26.26397"
       style="fill:none;stroke:#000000;stroke-width:1px;stroke-linecap:butt;stroke-linejoin:miter;stroke-opacity:1;marker-start:none;marker-end:url(#marker11598)" />
    <rect
       style="opacity:0.98000004;fill:#aaffa7;fill-opacity:1;stroke:#000000;stroke-width:2;stroke-miterlimit:4;stroke-dasharray:none;stroke-dashoffset:0;stroke-opacity:1"
       id="rect13585"
       width="107.40538"
       height="31.904974"
       x="395.56201"
       y="230.23676"
       ry="6.8611145" />
    <rect
       ry="6.8611145"
       y="170.23676"
       x="395.56201"
       height="31.904974"
       width="107.40538"
       id="rect13587"
       style="opacity:0.98000004;fill:#babbff;fill-opacity:1;stroke:#000000;stroke-width:2;stroke-miterlimit:4;stroke-dasharray:none;stroke-dashoffset:0;stroke-opacity:1" />
    <path
       style="fill:none;stroke:#000000;stroke-width:1px;stroke-linecap:butt;stroke-linejoin:miter;stroke-opacity:1;marker-start:none;marker-end:url(#marker11529)"
       d="m 449.73481,229.3404 0,-26.26397"
       id="path13589"
       inkscape:connector-curvature="0" />
    <path
       inkscape:connector-curvature="0"
       id="path13591"
       d="m 363.48349,186.20841 29.74624,0"
       style="fill:none;stroke:#000000;stroke-width:1px;stroke-linecap:butt;stroke-linejoin:miter;stroke-opacity:1;marker-start:none;marker-end:url(#marker11985)"
       sodipodi:nodetypes="cc" />
    <path
       style="fill:none;stroke:#000000;stroke-width:1px;stroke-linecap:butt;stroke-linejoin:miter;stroke-opacity:1;marker-start:none;marker-end:url(#marker11598)"
       d="m 423.73481,289.3404 0,-26.26397"
       id="path14705"
       inkscape:connector-curvature="0" />
    <path
       style="fill:none;stroke:#000000;stroke-width:1px;stroke-linecap:butt;stroke-linejoin:miter;stroke-opacity:1;marker-start:none;marker-end:url(#marker15149)"
       d="m 447.73481,169.3404 0,-26.26397"
       id="path15147"
       inkscape:connector-curvature="0" />
    <path
       id="use15541"
       d="m 23.330792,277.43475 -0.687214,0 c -0.343607,2.43797 -0.949012,3.71423 -3.79605,3.71423 l -2.552508,0 0,-4.7287 0.965369,0 c 1.570783,0 1.734399,0.67086 1.734399,1.91439 l 0.687224,0 0,-4.53235 -0.687224,0 c 0,1.22717 -0.163616,1.91438 -1.734399,1.91438 l -0.965369,0 0,-4.30327 2.552508,0 c 2.503431,0 3.043385,1.06355 3.288818,3.17428 l 0.687214,0 -0.474502,-3.87786 -9.948261,0 0,0.70358 1.7344,0 0,9.73555 -1.7344,0 0,0.70358 10.226416,0 0.703579,-4.41781 z"
       inkscape:connector-curvature="0" />
    <g
       id="g16361"
       transform="matrix(0.7609049,0,0,0.7609049,196.17493,217.12594)">
      <path
         inkscape:connector-curvature="0"
         d="m -124.17927,-28.600314 c 0.11821,-0.30396 0.15198,-0.405281 1.57046,-0.405281 l 0,-0.726128 c -0.84433,0.03377 -0.87811,0.03377 -1.84065,0.03377 -0.48971,0 -1.72244,0 -2.12772,-0.03377 l 0,0.726128 c 0.20264,0 1.68867,0 1.68867,0.236414 0,0.01689 0,0.05066 -0.0675,0.202641 l -2.83697,7.531468 -3.02272,-7.970523 1.60424,0 0,-0.726128 c -0.54038,0.03377 -2.11084,0.03377 -2.75253,0.03377 -0.52349,0 -2.1615,0 -2.56678,-0.03377 l 0,0.726128 1.41848,0 0.69236,1.823764 -2.31348,6.146759 -3.00583,-7.970523 1.58735,0 0,-0.726128 c -0.48972,0.03377 -2.14462,0.03377 -2.75254,0.03377 -0.54037,0 -2.14461,0 -2.56678,-0.03377 l 0,0.726128 1.41849,0 4.01903,10.604849 c 0.10133,0.287073 0.15198,0.40528 0.52349,0.40528 0.37151,0 0.42217,-0.1182 0.52349,-0.388394 l 2.93828,-7.784769 2.95518,7.784769 c 0.10132,0.270187 0.15198,0.388394 0.52348,0.388394 0.32085,0 0.40528,-0.06755 0.52349,-0.388394 l 3.86706,-10.216454 z"
         id="use15543" />
      <path
         inkscape:connector-curvature="0"
         d="m -115.38131,-28.530938 c 0,-1.373452 -0.85559,-1.666155 -1.85753,-1.666155 -1.18207,0 -1.80125,0.686726 -2.03767,1.035718 l 0,-3.771363 -2.04891,0.09006 0,0.585406 c 0.66421,0 0.74301,0 0.74301,0.439054 l 0,6.112986 -0.74301,0 0,0.585405 c 0.60792,-0.03377 1.00194,-0.03377 1.42974,-0.03377 0.43905,0 0.82182,0 1.42974,0.03377 l 0,-0.585405 -0.74302,0 0,-2.262818 c 0,-1.249616 1.08075,-1.756217 1.80125,-1.756217 0.39402,0 0.65295,0.191383 0.65295,1.069491 l 0,2.949544 -0.74301,0 0,0.585405 c 0.60792,-0.03377 1.00194,-0.03377 1.42974,-0.03377 0.43905,0 0.82182,0 1.42974,0.03377 l 0,-0.585405 -0.74302,0 0,-2.825708 z"
         id="use15545" />
    </g>
    <g
       id="g16365"
       transform="matrix(0.79982271,0,0,0.79982271,543.76468,177.82629)">
      <path
         inkscape:connector-curvature="0"
         d="m -95.927119,-28.600314 c 0.118213,-0.30396 0.15198,-0.405281 1.570464,-0.405281 l 0,-0.726128 c -0.844335,0.03377 -0.878109,0.03377 -1.840651,0.03377 -0.489714,0 -1.722443,0 -2.127724,-0.03377 l 0,0.726128 c 0.20264,0 1.68867,0 1.68867,0.236414 0,0.01689 0,0.05066 -0.06755,0.202641 l -2.836966,7.531468 -3.022724,-7.970523 1.60424,0 0,-0.726128 c -0.54037,0.03377 -2.11084,0.03377 -2.75253,0.03377 -0.52349,0 -2.1615,0 -2.56678,-0.03377 l 0,0.726128 1.41848,0 0.69236,1.823764 -2.31348,6.146759 -3.00583,-7.970523 1.58735,0 0,-0.726128 c -0.48972,0.03377 -2.14461,0.03377 -2.75254,0.03377 -0.54037,0 -2.14461,0 -2.56677,-0.03377 l 0,0.726128 1.41848,0 4.01903,10.604849 c 0.10133,0.287073 0.15198,0.40528 0.52349,0.40528 0.37151,0 0.42217,-0.1182 0.52349,-0.388394 l 2.93828,-7.784769 2.95518,7.784769 c 0.10132,0.270187 0.15198,0.388394 0.52349,0.388394 0.320843,0 0.405276,-0.06755 0.523484,-0.388394 l 3.867057,-10.216454 z"
         id="use15547" />
      <path
         inkscape:connector-curvature="0"
         d="m -87.19684,-27.574025 c 0,-1.418483 -1.001944,-2.668099 -3.062121,-2.668099 -2.071435,0 -3.062121,1.260874 -3.062121,2.668099 0,1.339678 0.990686,2.533005 3.062121,2.533005 2.093951,0 3.062121,-1.204585 3.062121,-2.533005 z m -3.062121,2.003888 c -1.542319,0 -1.542319,-1.159553 -1.542319,-2.138982 0,-0.923139 0,-2.060177 1.542319,-2.060177 1.542319,0 1.542319,1.148295 1.542319,2.060177 0,0.979429 0,2.138982 -1.542319,2.138982 z"
         id="use15549" />
      <path
         inkscape:connector-curvature="0"
         d="m -82.350774,-30.10703 0,0.585405 c 0.664212,0 0.743015,0 0.743015,0.439055 l 0,2.138982 c 0,0.855592 -0.596663,1.42974 -1.508545,1.42974 -0.911881,0 -0.945655,-0.258929 -0.945655,-0.833077 l 0,-3.850168 -2.116466,0.09006 0,0.585406 c 0.66421,0 0.743015,0 0.743015,0.439054 l 0,2.578036 c 0,1.260874 1.058233,1.463514 2.161498,1.463514 0.371507,0 1.12578,0 1.733701,-0.788046 l 0,0.788046 2.048919,-0.0788 0,-0.585405 c -0.66421,0 -0.743015,0 -0.743015,-0.439054 l 0,-4.052808 -2.116467,0.09006 z"
         id="use15551" />
      <path
         inkscape:connector-curvature="0"
         d="m -76.54597,-29.532882 1.756216,0 0,-0.585406 -1.756216,0 0,-2.15024 -0.630437,0 c -0.01125,1.114522 -0.585405,2.240302 -1.711185,2.262818 l 0,0.472828 0.96817,0 0,3.028348 c 0,1.159553 0.911882,1.463514 1.868795,1.463514 0.855592,0 1.48603,-0.574148 1.48603,-1.463514 l 0,-0.574148 -0.630438,0 0,0.551632 c 0,0.776788 -0.427796,0.956913 -0.686725,0.956913 -0.652952,0 -0.66421,-0.596663 -0.66421,-0.900624 l 0,-3.062121 z"
         id="use15553" />
    </g>
    <g
       id="g16351"
       transform="matrix(1.2488275,0,0,1.2488275,533.31035,214.30723)">
      <path
         inkscape:connector-curvature="0"
         d="m -68.334817,-29.444649 c 0.01689,-0.06755 0.05066,-0.168867 0.05066,-0.2533 0,-0.168867 -0.168867,-0.168867 -0.202641,-0.168867 -0.01689,0 -0.844335,0.06755 -0.928769,0.08443 -0.287074,0.01689 -0.540374,0.05066 -0.844335,0.06755 -0.422167,0.03377 -0.540374,0.05066 -0.540374,0.354621 0,0.168867 0.135094,0.168867 0.371508,0.168867 0.827447,0 0.844335,0.15198 0.844335,0.320847 0,0.10132 -0.03378,0.236414 -0.05066,0.287074 l -2.448572,9.777399 c -0.06755,0.2533 -0.06755,0.287074 -0.06755,0.388394 0,0.371508 0.287074,0.439055 0.455941,0.439055 0.287074,0 0.506602,-0.219527 0.591034,-0.405281 l 0.759903,-3.056493 c 0.08444,-0.371508 0.185753,-0.726128 0.270186,-1.097636 0.185754,-0.709241 0.185754,-0.726128 0.506601,-1.215842 0.320848,-0.489714 1.080749,-1.502916 2.381025,-1.502916 0.675468,0 0.911881,0.506601 0.911881,1.182069 0,0.945655 -0.658581,2.786305 -1.030088,3.799507 -0.15198,0.405281 -0.236414,0.624808 -0.236414,0.928768 0,0.759903 0.523489,1.367824 1.33405,1.367824 1.570462,0 2.161497,-2.482346 2.161497,-2.583666 0,-0.08443 -0.06755,-0.15198 -0.168867,-0.15198 -0.15198,0 -0.168866,0.05066 -0.2533,0.337734 -0.388394,1.350936 -1.013203,2.060177 -1.68867,2.060177 -0.168868,0 -0.439054,-0.01689 -0.439054,-0.55726 0,-0.439055 0.20264,-0.979429 0.270186,-1.165182 0.303962,-0.810563 1.063863,-2.803193 1.063863,-3.782622 0,-1.013202 -0.591035,-1.773103 -1.874424,-1.773103 -0.962542,0 -1.806877,0.455941 -2.499231,1.334049 l 1.300275,-5.184217 z"
         id="use15555" />
      <path
         inkscape:connector-curvature="0"
         d="m -60.713286,-19.374543 c 0.889366,0 1.452256,0.652953 1.452256,1.835022 0,1.407225 -0.799304,1.823763 -1.395967,1.823763 -0.619179,0 -1.463514,-0.225156 -1.857538,-0.821818 0.405281,0 0.686726,-0.25893 0.686726,-0.630438 0,-0.360249 -0.258928,-0.619179 -0.619178,-0.619179 -0.303962,0 -0.619179,0.191383 -0.619179,0.641695 0,1.069492 1.148295,1.767474 2.431685,1.767474 1.497286,0 2.544262,-1.035717 2.544262,-2.161497 0,-0.934398 -0.743015,-1.78999 -1.891311,-2.037662 0.889366,-0.315218 1.553578,-1.080749 1.553578,-1.981373 0,-0.900624 -1.013203,-1.542318 -2.184014,-1.542318 -1.204585,0 -2.116466,0.652952 -2.116466,1.508545 0,0.416539 0.281445,0.596663 0.574147,0.596663 0.348993,0 0.574148,-0.247671 0.574148,-0.574147 0,-0.416539 -0.360249,-0.574148 -0.607922,-0.585406 0.472828,-0.619179 1.339679,-0.652952 1.542319,-0.652952 0.292704,0 1.148296,0.09006 1.148296,1.249615 0,0.788046 -0.326476,1.260874 -0.484086,1.440998 -0.337734,0.348993 -0.596662,0.371508 -1.283389,0.416539 -0.213897,0.01125 -0.30396,0.02251 -0.30396,0.168868 0,0.157608 0.101325,0.157608 0.292703,0.157608 l 0.56289,0 z"
         id="use15557" />
    </g>
    <g
       id="g16347"
       transform="matrix(1.2488275,0,0,1.2488275,510.81035,271.72029)">
      <path
         inkscape:connector-curvature="0"
         d="m -48.872895,-25.03722 c -0.54037,0.10132 -0.74301,0.506601 -0.74301,0.827448 0,0.405281 0.32084,0.540375 0.55726,0.540375 0.5066,0 0.86122,-0.439055 0.86122,-0.894995 0,-0.709242 -0.81056,-1.030089 -1.5198,-1.030089 -1.03009,0 -1.60424,1.013202 -1.75622,1.334049 -0.3884,-1.266502 -1.43537,-1.334049 -1.73933,-1.334049 -1.722445,0 -2.634327,2.212158 -2.634327,2.583665 0,0.06755 0.06755,0.15198 0.185753,0.15198 0.135094,0 0.168868,-0.10132 0.20264,-0.168867 0.574149,-1.874423 1.705558,-2.229044 2.195274,-2.229044 0.7599,0 0.91188,0.709241 0.91188,1.114522 0,0.371507 -0.10132,0.759902 -0.30396,1.570463 l -0.57415,2.313478 c -0.2533,1.013203 -0.743014,1.94197 -1.638009,1.94197 -0.08444,0 -0.506601,0 -0.861221,-0.219526 0.607921,-0.118213 0.743014,-0.624809 0.743014,-0.827449 0,-0.337734 -0.2533,-0.540374 -0.574148,-0.540374 -0.40528,0 -0.844335,0.35462 -0.844335,0.894995 0,0.709242 0.793675,1.030089 1.519804,1.030089 0.810561,0 1.384705,-0.641695 1.739335,-1.33405 0.27018,0.996315 1.11452,1.33405 1.73933,1.33405 1.72244,0 2.63432,-2.212158 2.63432,-2.583666 0,-0.08443 -0.0675,-0.15198 -0.16887,-0.15198 -0.15198,0 -0.16886,0.08443 -0.21952,0.219527 -0.45594,1.48603 -1.43537,2.178384 -2.19527,2.178384 -0.59104,0 -0.91189,-0.439054 -0.91189,-1.131409 0,-0.371507 0.0676,-0.641693 0.33774,-1.756216 l 0.59103,-2.296591 c 0.2533,-1.013202 0.82745,-1.756217 1.60424,-1.756217 0.0338,0 0.5066,0 0.86122,0.219527 z"
         id="use15559" />
      <path
         inkscape:connector-curvature="0"
         d="m -44.632925,-19.374543 c 0.88937,0 1.45226,0.652953 1.45226,1.835022 0,1.407225 -0.79931,1.823763 -1.39597,1.823763 -0.61918,0 -1.46351,-0.225156 -1.85754,-0.821818 0.40528,0 0.68673,-0.25893 0.68673,-0.630438 0,-0.360249 -0.25893,-0.619179 -0.61918,-0.619179 -0.30396,0 -0.61918,0.191383 -0.61918,0.641695 0,1.069492 1.1483,1.767474 2.43169,1.767474 1.49728,0 2.54426,-1.035717 2.54426,-2.161497 0,-0.934398 -0.74302,-1.78999 -1.89131,-2.037662 0.88937,-0.315218 1.55358,-1.080749 1.55358,-1.981373 0,-0.900624 -1.01321,-1.542318 -2.18402,-1.542318 -1.20458,0 -2.11646,0.652952 -2.11646,1.508545 0,0.416539 0.28144,0.596663 0.57414,0.596663 0.349,0 0.57415,-0.247671 0.57415,-0.574147 0,-0.416539 -0.36025,-0.574148 -0.60792,-0.585406 0.47283,-0.619179 1.33968,-0.652952 1.54232,-0.652952 0.2927,0 1.14829,0.09006 1.14829,1.249615 0,0.788046 -0.32647,1.260874 -0.48408,1.440998 -0.33773,0.348993 -0.59666,0.371508 -1.28339,0.416539 -0.2139,0.01125 -0.30396,0.02251 -0.30396,0.168868 0,0.157608 0.10132,0.157608 0.2927,0.157608 l 0.56289,0 z"
         id="use15561" />
    </g>
    <g
       id="g16343"
       transform="matrix(1.2121483,0,0,1.2121483,461.91538,327.92983)">
      <path
         inkscape:connector-curvature="0"
         d="m -34.987805,-19.177535 c 0.37151,1.013202 1.41848,1.198956 2.06018,1.198956 1.28339,0 2.04329,-1.114522 2.51612,-2.279705 0.38839,-0.979429 1.0132,-3.208473 1.0132,-4.204788 0,-1.030089 -0.52349,-1.131409 -0.67547,-1.131409 -0.40528,0 -0.77679,0.405281 -0.77679,0.743015 0,0.20264 0.11822,0.320847 0.20264,0.388394 0.15198,0.15198 0.59104,0.607921 0.59104,1.486029 0,0.574148 -0.47283,2.161498 -0.82745,2.955173 -0.47283,1.030089 -1.09764,1.705556 -1.97574,1.705556 -0.94566,0 -1.24962,-0.709241 -1.24962,-1.486029 0,-0.489714 0.15198,-1.080749 0.21953,-1.367823 l 0.70924,-2.836965 c 0.0844,-0.337734 0.23641,-0.928769 0.23641,-0.996316 0,-0.2533 -0.20264,-0.422167 -0.45594,-0.422167 -0.48971,0 -0.60792,0.422167 -0.70924,0.827448 -0.16887,0.658581 -0.87811,3.512434 -0.94565,3.883941 -0.0675,0.287074 -0.0675,0.472828 -0.0675,0.844335 0,0.405281 -0.54038,1.046976 -0.55727,1.080749 -0.18575,0.185753 -0.45594,0.472827 -0.97942,0.472827 -1.33405,0 -1.33405,-1.266502 -1.33405,-1.553576 0,-0.540374 0.11821,-1.283389 0.87811,-3.292906 0.20264,-0.523488 0.28707,-0.743015 0.28707,-1.080749 0,-0.709242 -0.5066,-1.350936 -1.33405,-1.350936 -1.55358,0 -2.17838,2.448571 -2.17838,2.583665 0,0.06755 0.0675,0.15198 0.18575,0.15198 0.15198,0 0.16887,-0.06755 0.23641,-0.30396 0.42217,-1.48603 1.08075,-2.093951 1.70556,-2.093951 0.16887,0 0.43905,0.01689 0.43905,0.557261 0,0.08443 0,0.439054 -0.28707,1.182069 -0.79367,2.110837 -0.96254,2.803192 -0.96254,3.444887 0,1.773104 1.45225,2.093951 2.31348,2.093951 0.28707,0 1.04697,0 1.72244,-1.198956 z"
         id="use15563" />
      <path
         inkscape:connector-curvature="0"
         d="m -26.129311,-19.374543 c 0.88936,0 1.45225,0.652953 1.45225,1.835022 0,1.407225 -0.7993,1.823763 -1.39597,1.823763 -0.61917,0 -1.46351,-0.225156 -1.85753,-0.821818 0.40528,0 0.68672,-0.25893 0.68672,-0.630438 0,-0.360249 -0.25892,-0.619179 -0.61917,-0.619179 -0.30397,0 -0.619184,0.191383 -0.619184,0.641695 0,1.069492 1.148294,1.767474 2.431684,1.767474 1.49728,0 2.54426,-1.035717 2.54426,-2.161497 0,-0.934398 -0.74301,-1.78999 -1.8913,-2.037662 0.88936,-0.315218 1.55357,-1.080749 1.55357,-1.981373 0,-0.900624 -1.01321,-1.542318 -2.18401,-1.542318 -1.20459,0 -2.11647,0.652952 -2.11647,1.508545 0,0.416539 0.28145,0.596663 0.57415,0.596663 0.34898,0 0.57415,-0.247671 0.57415,-0.574147 0,-0.416539 -0.36025,-0.574148 -0.60793,-0.585406 0.47283,-0.619179 1.33968,-0.652952 1.54233,-0.652952 0.2927,0 1.14828,0.09006 1.14828,1.249615 0,0.788046 -0.32647,1.260874 -0.48407,1.440998 -0.33774,0.348993 -0.59668,0.371508 -1.2834,0.416539 -0.21389,0.01125 -0.30395,0.02251 -0.30395,0.168868 0,0.157608 0.10125,0.157608 0.2927,0.157608 l 0.56289,0 z"
         id="use15565" />
    </g>
    <path
       id="use15567"
       d="m 45.79319,296.16384 c 0,-0.71108 0.05759,-0.90326 1.499011,-0.90326 l 0.422791,0 0,-0.55732 c -0.461223,0.0385 -2.113999,0.0385 -2.690541,0.0385 -0.576543,0 -2.248506,0 -2.709752,-0.0385 l 0,0.55732 0.422802,0 c 1.441357,0 1.499011,0.19218 1.499011,0.90326 l 0,10.20482 c 0,0.71107 -0.05759,0.90325 -1.499011,0.90325 l -0.422802,0 0,0.55733 c 0.461246,-0.0385 2.113998,-0.0385 2.690541,-0.0385 0.576543,0 2.248529,0 2.709752,0.0385 l 0,-0.55733 -0.422791,0 c -1.441357,0 -1.499011,-0.19218 -1.499011,-0.90325 l 0,-10.20482 z"
       inkscape:connector-curvature="0" />
    <g
       id="g16326"
       transform="translate(178.21428,-33.214286)">
      <path
         inkscape:connector-curvature="0"
         d="m -3.5497954,328.70326 0,0.55732 c 1.3068268,0 1.4605791,0.13453 1.4605791,1.07622 l 0,4.24721 c -0.4035914,-0.55734 -1.2299619,-1.22997 -2.4022696,-1.22997 -2.2293068,0 -4.1511312,1.88338 -4.1511312,4.3433 0,2.4407 1.8257264,4.32408 3.9397246,4.32408 1.4605791,0 2.3061829,-0.9609 2.5752325,-1.32605 l 0,1.32605 2.70976291,-0.19218 0,-0.55733 c -1.30683813,0 -1.46057911,-0.13453 -1.46057911,-1.07622 l 0,-11.70384 -2.6713192,0.21141 z m 1.4221354,10.87746 c 0,0.34592 0,0.40358 -0.2690496,0.82638 -0.4612457,0.67263 -1.2491838,1.22996 -2.2100849,1.22996 -0.4996667,0 -2.5752325,-0.19218 -2.5752325,-3.9205 0,-1.3837 0.2306172,-2.15243 0.6534077,-2.78663 0.3843695,-0.59576 1.1530972,-1.19153 2.1139982,-1.19153 1.1915182,0 1.8641591,0.86482 2.0563553,1.17231 0.2306058,0.32671 0.2306058,0.36515 0.2306058,0.71107 l 0,3.95894 z"
         id="use15569" />
      <path
         inkscape:connector-curvature="0"
         d="m 9.9589596,337.71656 c 0,-2.47915 -1.883381,-4.45861 -4.1126764,-4.45861 -2.306183,0 -4.1319097,2.03713 -4.1319097,4.45861 0,2.45992 1.9218248,4.30486 4.1126878,4.30486 2.2677392,0 4.1318983,-1.88338 4.1318983,-4.30486 z m -4.1126764,3.88206 c -0.7110734,0 -1.5758877,-0.30748 -2.1332087,-1.24917 -0.5189,-0.86482 -0.5381219,-1.99869 -0.5381219,-2.80585 0,-0.7303 0,-1.9026 0.5957648,-2.76742 0.5381105,-0.82637 1.3837143,-1.13387 2.0563439,-1.13387 0.7495057,0 1.5566658,0.34593 2.0755658,1.09544 0.5957534,0.88403 0.5957534,2.09477 0.5957534,2.80585 0,0.67263 0,1.86416 -0.4996781,2.7674 -0.5380991,0.92248 -1.4221354,1.28762 -2.1524192,1.28762 z"
         id="use15571" />
      <path
         inkscape:connector-curvature="0"
         d="m 19.098781,337.15923 c 0,-1.78729 0,-2.3254 -0.442013,-2.94037 -0.557321,-0.74951 -1.460579,-0.86482 -2.113998,-0.86482 -1.864159,0 -2.594443,1.5951 -2.748196,1.97947 l -0.01923,0 0,-1.97947 -2.613665,0.2114 0,0.55733 c 1.306838,0 1.460579,0.13452 1.460579,1.07621 l 0,5.20812 c 0,0.86481 -0.211395,0.86481 -1.460579,0.86481 l 0,0.55733 c 0.499667,-0.0385 1.537456,-0.0385 2.075555,-0.0385 0.557321,0 1.59511,0 2.094776,0.0385 l 0,-0.55733 c -1.229962,0 -1.460579,0 -1.460579,-0.86481 l 0,-3.57458 c 0,-2.0179 1.326049,-3.09412 2.51759,-3.09412 1.191518,0 1.460568,0.98012 1.460568,2.15243 l 0,4.51627 c 0,0.86481 -0.211407,0.86481 -1.460568,0.86481 l 0,0.55733 c 0.499667,-0.0385 1.537432,-0.0385 2.075554,-0.0385 0.557321,0 1.595098,0 2.094777,0.0385 l 0,-0.55733 c -0.960913,0 -1.441369,0 -1.460591,-0.57654 l 0,-3.53614 z"
         id="use15573" />
      <path
         inkscape:connector-curvature="0"
         d="m 24.383776,329.97165 c 0.01923,0.13453 0.03835,0.23062 0.03835,0.48046 0,0.26905 0,1.82571 -1.32606,3.15177 -0.172963,0.17297 -0.172963,0.2114 -0.172963,0.26905 0,0.096 0.09605,0.19219 0.192185,0.19219 0.172963,0 1.691185,-1.42215 1.691185,-3.61301 0,-1.19153 -0.442013,-1.96026 -1.21074,-1.96026 -0.557321,0 -0.922458,0.4228 -0.922458,0.92248 0,0.51889 0.365137,0.94168 0.94168,0.94168 0.5189,0 0.768727,-0.36514 0.768727,-0.38436 z"
         id="use15575" />
      <path
         inkscape:connector-curvature="0"
         d="m 29.457342,334.10355 2.709763,0 0,-0.55732 -2.709763,0 0,-3.53615 -0.42279,0 c -0.01923,1.80651 -0.711074,3.65146 -2.459924,3.70911 l 0,0.38436 1.63353,0 0,5.34264 c 0,2.13322 1.422159,2.57523 2.440714,2.57523 1.21074,0 1.844937,-1.19153 1.844937,-2.57523 l 0,-1.09543 -0.422802,0 0,1.057 c 0,1.3837 -0.557321,2.19086 -1.306827,2.19086 -1.306838,0 -1.306838,-1.78728 -1.306838,-2.11399 l 0,-5.38108 z"
         id="use15577" />
    </g>
    <g
       id="g16333"
       transform="translate(278.92857,-33.928571)">
      <path
         inkscape:connector-curvature="0"
         d="m 48.371204,337.15923 c 0,-1.78729 0,-2.3254 -0.442013,-2.94037 -0.557332,-0.74951 -1.46059,-0.86482 -2.113998,-0.86482 -1.652764,0 -2.42148,1.24918 -2.690529,1.84494 l -0.01923,0 0,-6.70713 -2.671319,0.21141 0,0.55732 c 1.306827,0 1.460579,0.13453 1.460579,1.07622 l 0,10.0703 c 0,0.86481 -0.211406,0.86481 -1.460579,0.86481 l 0,0.55733 c 0.499667,-0.0385 1.537444,-0.0385 2.075555,-0.0385 0.557332,0 1.595098,0 2.094776,0.0385 l 0,-0.55733 c -1.229962,0 -1.460568,0 -1.460568,-0.86481 l 0,-3.57458 c 0,-2.0179 1.326037,-3.09412 2.517567,-3.09412 1.191518,0 1.460568,0.98014 1.460568,2.15243 l 0,4.51627 c 0,0.86481 -0.211396,0.86481 -1.460568,0.86481 l 0,0.55733 c 0.499678,-0.0385 1.537444,-0.0385 2.075554,-0.0385 0.557321,0 1.59511,0 2.094777,0.0385 l 0,-0.55733 c -0.960913,0 -1.441358,0 -1.460579,-0.57654 l 0,-3.53613 z"
         id="use15579" />
      <path
         inkscape:connector-curvature="0"
         d="m 57.692,336.698 c 0,-1.03779 0,-1.8065 -0.845593,-2.55602 -0.672641,-0.61497 -1.537455,-0.88402 -2.383048,-0.88402 -1.575899,0 -2.786639,1.03777 -2.786639,2.28695 0,0.55733 0.365148,0.82638 0.80716,0.82638 0.461246,0 0.78795,-0.32671 0.78795,-0.78794 0,-0.78795 -0.691852,-0.78795 -0.980123,-0.78795 0.442024,-0.80716 1.364492,-1.15309 2.133209,-1.15309 0.884036,0 2.0179,0.73029 2.0179,2.45993 l 0,0.76872 c -3.862838,0.0577 -5.323417,1.67198 -5.323417,3.15177 0,1.51823 1.768061,1.99869 2.940369,1.99869 1.268406,0 2.13322,-0.76873 2.498368,-1.6912 0.07682,0.90326 0.672629,1.59511 1.499011,1.59511 0.40358,0 1.518234,-0.26906 1.518234,-1.8065 l 0,-1.07622 -0.422802,0 0,1.07622 c 0,1.09543 -0.461235,1.24917 -0.730284,1.24917 -0.730295,0 -0.730295,-1.01855 -0.730295,-1.30683 l 0,-3.36318 z m -1.249184,2.42148 c 0,1.88338 -1.402914,2.51758 -2.229296,2.51758 -0.94169,0 -1.72964,-0.69185 -1.72964,-1.61433 0,-2.53679 3.267096,-2.76741 3.958936,-2.80584 l 0,1.90259 z"
         id="use15581" />
      <path
         inkscape:connector-curvature="0"
         d="m 62.911329,334.10355 2.709751,0 0,-0.55732 -2.709751,0 0,-3.53615 -0.422802,0 c -0.01923,1.80651 -0.711062,3.65146 -2.459924,3.70911 l 0,0.38436 1.633542,0 0,5.34264 c 0,2.13322 1.422135,2.57523 2.440702,2.57523 1.210751,0 1.844949,-1.19153 1.844949,-2.57523 l 0,-1.09543 -0.422802,0 0,1.057 c 0,1.3837 -0.557333,2.19086 -1.306838,2.19086 -1.306827,0 -1.306827,-1.78728 -1.306827,-2.11399 l 0,-5.38108 z"
         id="use15583" />
      <path
         inkscape:connector-curvature="0"
         d="m 74.36053,337.37063 c 0.422802,0 0.461223,0 0.461223,-0.36514 0,-1.94104 -1.037765,-3.74754 -3.363159,-3.74754 -2.190874,0 -3.882059,1.97946 -3.882059,4.36252 0,2.53679 1.960246,4.40095 4.093454,4.40095 2.28695,0 3.151764,-2.07555 3.151764,-2.47913 0,-0.11531 -0.09605,-0.19219 -0.211395,-0.19219 -0.153729,0 -0.192173,0.096 -0.230606,0.19219 -0.499666,1.61432 -1.787294,2.05633 -2.594443,2.05633 -0.807171,0 -2.748195,-0.5381 -2.748195,-3.86284 l 0,-0.36515 5.323416,0 z m -5.304205,-0.36514 c 0.153741,-3.01725 1.844937,-3.36318 2.383047,-3.36318 2.056344,0 2.171641,2.70976 2.190863,3.36318 l -4.57391,0 z"
         id="use15585" />
    </g>
    <g
       id="g16339"
       transform="translate(382.35714,-34.642857)">
      <path
         inkscape:connector-curvature="0"
         d="m 84.980141,329.99087 c 0,-0.49968 -0.403591,-0.94169 -0.941691,-0.94169 -0.499666,0 -0.922468,0.40358 -0.922468,0.92247 0,0.57654 0.461223,0.94169 0.922468,0.94169 0.595765,0 0.941691,-0.49968 0.941691,-0.92247 z m -2.652097,3.57457 0,0.55733 c 1.229962,0 1.402913,0.11531 1.402913,1.057 l 0,5.22733 c 0,0.86481 -0.211395,0.86481 -1.460579,0.86481 l 0,0.55733 c 0.53811,-0.0385 1.460579,-0.0385 2.0179,-0.0385 0.211395,0 1.32606,0 1.979479,0.0385 l 0,-0.55733 c -1.249184,0 -1.32606,-0.096 -1.32606,-0.84559 l 0,-7.07228 -2.613653,0.2114 z"
         id="use15587" />
      <path
         inkscape:connector-curvature="0"
         d="m 90.092174,334.10355 2.709762,0 0,-0.55732 -2.709762,0 0,-3.53615 -0.422802,0 c -0.01923,1.80651 -0.711074,3.65146 -2.459924,3.70911 l 0,0.38436 1.633553,0 0,5.34264 c 0,2.13322 1.422135,2.57523 2.440702,2.57523 1.21074,0 1.844937,-1.19153 1.844937,-2.57523 l 0,-1.09543 -0.422802,0 0,1.057 c 0,1.3837 -0.557321,2.19086 -1.306838,2.19086 -1.306826,0 -1.306826,-1.78728 -1.306826,-2.11399 l 0,-5.38108 z"
         id="use15589" />
    </g>
    <path
       inkscape:connector-curvature="0"
       d="m 162.25936,277.43475 -0.68721,0 c -0.34361,2.43797 -0.94901,3.71423 -3.79605,3.71423 l -2.55251,0 0,-4.7287 0.96537,0 c 1.57078,0 1.7344,0.67086 1.7344,1.91439 l 0.68722,0 0,-4.53235 -0.68722,0 c 0,1.22717 -0.16362,1.91438 -1.7344,1.91438 l -0.96537,0 0,-4.30327 2.55251,0 c 2.50343,0 3.04338,1.06355 3.28882,3.17428 l 0.68721,0 -0.4745,-3.87786 -9.94826,0 0,0.70358 1.7344,0 0,9.73555 -1.7344,0 0,0.70358 10.22641,0 0.70358,-4.41781 z"
       id="path16355" />
    <path
       id="path16357"
       d="m 305.47364,277.43475 -0.68721,0 c -0.34361,2.43797 -0.94901,3.71423 -3.79605,3.71423 l -2.55251,0 0,-4.7287 0.96537,0 c 1.57078,0 1.7344,0.67086 1.7344,1.91439 l 0.68722,0 0,-4.53235 -0.68722,0 c 0,1.22717 -0.16362,1.91438 -1.7344,1.91438 l -0.96537,0 0,-4.30327 2.55251,0 c 2.50343,0 3.04338,1.06355 3.28882,3.17428 l 0.68721,0 -0.4745,-3.87786 -9.94826,0 0,0.70358 1.7344,0 0,9.73555 -1.7344,0 0,0.70358 10.22641,0 0.70358,-4.41781 z"
       inkscape:connector-curvature="0" />
    <path
       inkscape:connector-curvature="0"
       d="m 444.75935,277.43475 -0.68721,0 c -0.34361,2.43797 -0.94901,3.71423 -3.79605,3.71423 l -2.55251,0 0,-4.7287 0.96537,0 c 1.57078,0 1.7344,0.67086 1.7344,1.91439 l 0.68722,0 0,-4.53235 -0.68722,0 c 0,1.22717 -0.16362,1.91438 -1.7344,1.91438 l -0.96537,0 0,-4.30327 2.55251,0 c 2.50343,0 3.04338,1.06355 3.28882,3.17428 l 0.68721,0 -0.4745,-3.87786 -9.94826,0 0,0.70358 1.7344,0 0,9.73555 -1.7344,0 0,0.70358 10.22641,0 0.70358,-4.41781 z"
       id="path16359" />
    <g
       transform="matrix(0.7609049,0,0,0.7609049,336.17493,217.12594)"
       id="g16371">
      <path
         id="path16373"
         d="m -124.17927,-28.600314 c 0.11821,-0.30396 0.15198,-0.405281 1.57046,-0.405281 l 0,-0.726128 c -0.84433,0.03377 -0.87811,0.03377 -1.84065,0.03377 -0.48971,0 -1.72244,0 -2.12772,-0.03377 l 0,0.726128 c 0.20264,0 1.68867,0 1.68867,0.236414 0,0.01689 0,0.05066 -0.0675,0.202641 l -2.83697,7.531468 -3.02272,-7.970523 1.60424,0 0,-0.726128 c -0.54038,0.03377 -2.11084,0.03377 -2.75253,0.03377 -0.52349,0 -2.1615,0 -2.56678,-0.03377 l 0,0.726128 1.41848,0 0.69236,1.823764 -2.31348,6.146759 -3.00583,-7.970523 1.58735,0 0,-0.726128 c -0.48972,0.03377 -2.14462,0.03377 -2.75254,0.03377 -0.54037,0 -2.14461,0 -2.56678,-0.03377 l 0,0.726128 1.41849,0 4.01903,10.604849 c 0.10133,0.287073 0.15198,0.40528 0.52349,0.40528 0.37151,0 0.42217,-0.1182 0.52349,-0.388394 l 2.93828,-7.784769 2.95518,7.784769 c 0.10132,0.270187 0.15198,0.388394 0.52348,0.388394 0.32085,0 0.40528,-0.06755 0.52349,-0.388394 l 3.86706,-10.216454 z"
         inkscape:connector-curvature="0" />
      <path
         id="path16375"
         d="m -115.38131,-28.530938 c 0,-1.373452 -0.85559,-1.666155 -1.85753,-1.666155 -1.18207,0 -1.80125,0.686726 -2.03767,1.035718 l 0,-3.771363 -2.04891,0.09006 0,0.585406 c 0.66421,0 0.74301,0 0.74301,0.439054 l 0,6.112986 -0.74301,0 0,0.585405 c 0.60792,-0.03377 1.00194,-0.03377 1.42974,-0.03377 0.43905,0 0.82182,0 1.42974,0.03377 l 0,-0.585405 -0.74302,0 0,-2.262818 c 0,-1.249616 1.08075,-1.756217 1.80125,-1.756217 0.39402,0 0.65295,0.191383 0.65295,1.069491 l 0,2.949544 -0.74301,0 0,0.585405 c 0.60792,-0.03377 1.00194,-0.03377 1.42974,-0.03377 0.43905,0 0.82182,0 1.42974,0.03377 l 0,-0.585405 -0.74302,0 0,-2.825708 z"
         inkscape:connector-curvature="0" />
    </g>
    <g
       id="g16377"
       transform="matrix(0.7609049,0,0,0.7609049,476.17493,217.12594)">
      <path
         inkscape:connector-curvature="0"
         d="m -124.17927,-28.600314 c 0.11821,-0.30396 0.15198,-0.405281 1.57046,-0.405281 l 0,-0.726128 c -0.84433,0.03377 -0.87811,0.03377 -1.84065,0.03377 -0.48971,0 -1.72244,0 -2.12772,-0.03377 l 0,0.726128 c 0.20264,0 1.68867,0 1.68867,0.236414 0,0.01689 0,0.05066 -0.0675,0.202641 l -2.83697,7.531468 -3.02272,-7.970523 1.60424,0 0,-0.726128 c -0.54038,0.03377 -2.11084,0.03377 -2.75253,0.03377 -0.52349,0 -2.1615,0 -2.56678,-0.03377 l 0,0.726128 1.41848,0 0.69236,1.823764 -2.31348,6.146759 -3.00583,-7.970523 1.58735,0 0,-0.726128 c -0.48972,0.03377 -2.14462,0.03377 -2.75254,0.03377 -0.54037,0 -2.14461,0 -2.56678,-0.03377 l 0,0.726128 1.41849,0 4.01903,10.604849 c 0.10133,0.287073 0.15198,0.40528 0.52349,0.40528 0.37151,0 0.42217,-0.1182 0.52349,-0.388394 l 2.93828,-7.784769 2.95518,7.784769 c 0.10132,0.270187 0.15198,0.388394 0.52348,0.388394 0.32085,0 0.40528,-0.06755 0.52349,-0.388394 l 3.86706,-10.216454 z"
         id="path16379" />
      <path
         inkscape:connector-curvature="0"
         d="m -115.38131,-28.530938 c 0,-1.373452 -0.85559,-1.666155 -1.85753,-1.666155 -1.18207,0 -1.80125,0.686726 -2.03767,1.035718 l 0,-3.771363 -2.04891,0.09006 0,0.585406 c 0.66421,0 0.74301,0 0.74301,0.439054 l 0,6.112986 -0.74301,0 0,0.585405 c 0.60792,-0.03377 1.00194,-0.03377 1.42974,-0.03377 0.43905,0 0.82182,0 1.42974,0.03377 l 0,-0.585405 -0.74302,0 0,-2.262818 c 0,-1.249616 1.08075,-1.756217 1.80125,-1.756217 0.39402,0 0.65295,0.191383 0.65295,1.069491 l 0,2.949544 -0.74301,0 0,0.585405 c 0.60792,-0.03377 1.00194,-0.03377 1.42974,-0.03377 0.43905,0 0.82182,0 1.42974,0.03377 l 0,-0.585405 -0.74302,0 0,-2.825708 z"
         id="path16381" />
    </g>
  </g>
</svg>
