<?xml version="1.0" encoding="UTF-8" standalone="no"?>
<!-- Created with Inkscape (http://www.inkscape.org/) -->

<svg
   xmlns:dc="http://purl.org/dc/elements/1.1/"
   xmlns:cc="http://creativecommons.org/ns#"
   xmlns:rdf="http://www.w3.org/1999/02/22-rdf-syntax-ns#"
   xmlns:svg="http://www.w3.org/2000/svg"
   xmlns="http://www.w3.org/2000/svg"
   xmlns:sodipodi="http://sodipodi.sourceforge.net/DTD/sodipodi-0.dtd"
   xmlns:inkscape="http://www.inkscape.org/namespaces/inkscape"
   width="117.7948mm"
   height="14.29264mm"
   viewBox="0 0 417.38314 50.643211"
   id="svg7760"
   version="1.1"
   inkscape:version="0.91 r13725"
   sodipodi:docname="softmax_derivative.svg">
  <defs
     id="defs7762" />
  <sodipodi:namedview
     id="base"
     pagecolor="#ffffff"
     bordercolor="#666666"
     borderopacity="1.0"
     inkscape:pageopacity="0.0"
     inkscape:pageshadow="2"
     inkscape:zoom="2.8"
     inkscape:cx="128.58477"
     inkscape:cy="48.926536"
     inkscape:document-units="px"
     inkscape:current-layer="layer1"
     showgrid="false"
     fit-margin-top="0"
     fit-margin-left="0"
     fit-margin-right="0"
     fit-margin-bottom="0"
     inkscape:window-width="2495"
     inkscape:window-height="1416"
     inkscape:window-x="65"
     inkscape:window-y="24"
     inkscape:window-maximized="1" />
  <metadata
     id="metadata7765">
    <rdf:RDF>
      <cc:Work
         rdf:about="">
        <dc:format>image/svg+xml</dc:format>
        <dc:type
           rdf:resource="http://purl.org/dc/dcmitype/StillImage" />
        <dc:title></dc:title>
      </cc:Work>
    </rdf:RDF>
  </metadata>
  <g
     inkscape:label="Layer 1"
     inkscape:groupmode="layer"
     id="layer1"
     transform="translate(9.598732,-18.452257)">
    <path
       id="use58481"
       d="m 116.0174,49.979767 c 0,-1.85753 -1.28338,-4.71138 -4.22167,-6.19741 1.82376,-0.97942 4.00215,-2.95517 4.20479,-6.11299 l 0.0169,-0.10137 0,-11.70248 c 0,-1.38471 0,-1.68867 0.13509,-2.33036 0.30396,-1.35094 1.11452,-3.02272 3.25914,-4.28922 0.13509,-0.0844 0.15198,-0.10138 0.15198,-0.40529 -1e-5,-0.3715 -0.0169,-0.38839 -0.3884,-0.38839 -0.30396,0 -0.33774,0 -0.79368,0.27019 -3.78262,2.14461 -4.00214,5.28554 -4.00214,5.87657 l 0,12.00644 c 0,1.21584 0,2.58366 -0.87811,4.13724 -0.77679,1.38471 -1.68867,2.07706 -2.4148,2.56679 -0.23641,0.15197 -0.2533,0.16886 -0.2533,0.45593 0,0.30397 0.0169,0.32085 0.15198,0.40528 1.43537,0.94566 2.97206,2.44857 3.34357,5.20111 0.0507,0.3715 0.0507,0.40527 0.0507,0.60791 l 0,12.96899 c 0,1.36782 0.84433,4.20479 4.10346,5.92724 0.3884,0.21952 0.42217,0.21952 0.69236,0.21952 0.37151,0 0.38839,-0.0169 0.38839,-0.3884 0,-0.30396 -0.0169,-0.32084 -0.0844,-0.35461 -0.72613,-0.45595 -2.93828,-1.79 -3.39422,-4.72828 -0.0676,-0.43906 -0.0676,-0.47283 -0.0676,-0.69236 l 0,-12.9521 z"
       inkscape:connector-curvature="0" />
    <g
       id="g10041"
       transform="translate(-105,-103.21429)">
      <path
         inkscape:connector-curvature="0"
         d="m 103.06783,134.37045 c -0.10132,-0.94566 -0.69235,-2.07707 -2.21216,-2.07707 -2.381021,0 -4.812706,2.4148 -4.812706,5.09979 0,1.03008 0.709243,2.97205 3.005834,2.97205 3.985262,0 5.690822,-5.80902 5.690822,-8.1225 0,-2.43168 -1.36783,-4.30611 -3.52932,-4.30611 -2.448577,0 -3.174704,2.14461 -3.174704,2.60055 0,0.15198 0.101325,0.52349 0.574147,0.52349 0.591035,0 0.844335,-0.54037 0.844335,-0.82745 0,-0.52348 -0.523487,-0.52348 -0.743015,-0.52348 0.692355,-1.24962 1.975747,-1.36783 2.431687,-1.36783 1.48603,0 2.43168,1.18207 2.43168,3.07338 0,1.08075 -0.32084,2.33037 -0.48971,2.95518 l -0.0169,0 z m -3.968372,5.53883 c -1.58735,0 -1.857537,-1.24961 -1.857537,-1.95885 0,-0.74302 0.472827,-2.48235 0.726127,-3.10716 0.219528,-0.5066 1.18207,-2.21215 2.938282,-2.21215 1.53669,0 1.89131,1.33404 1.89131,2.24593 0,1.24961 -1.09763,5.03223 -3.698182,5.03223 z"
         id="use8871" />
      <path
         inkscape:connector-curvature="0"
         d="m 110.58734,132.86753 c 0,-0.30396 0,-0.38839 -0.16887,-0.38839 -0.13509,0 -0.45594,0.3715 -0.57415,0.52348 -0.52348,-0.42216 -1.04697,-0.52348 -1.58735,-0.52348 -2.04329,0 -2.65121,1.11452 -2.65121,2.04329 0,0.18575 0,0.77678 0.6417,1.36782 0.54037,0.47283 1.11452,0.59103 1.89131,0.74301 0.92876,0.18576 1.14829,0.23642 1.57046,0.57415 0.30396,0.2533 0.52349,0.62481 0.52349,1.09764 0,0.72612 -0.42217,1.53669 -1.9082,1.53669 -1.11452,0 -1.92508,-0.6417 -2.29659,-2.33037 -0.0675,-0.30396 -0.0675,-0.32085 -0.0844,-0.33773 -0.0338,-0.0675 -0.10133,-0.0675 -0.15198,-0.0675 -0.18575,0 -0.18575,0.0844 -0.18575,0.3884 l 0,2.29659 c 0,0.30396 0,0.38839 0.16886,0.38839 0.0844,0 0.10133,-0.0169 0.3884,-0.37151 0.0844,-0.1182 0.0844,-0.15198 0.33773,-0.42216 0.64169,0.79367 1.55358,0.79367 1.84065,0.79367 1.7731,0 2.65121,-0.97943 2.65121,-2.31348 0,-0.91188 -0.55726,-1.45225 -0.70924,-1.60423 -0.60792,-0.52349 -1.06386,-0.62481 -2.17838,-0.82745 -0.5066,-0.10132 -1.73933,-0.33774 -1.73933,-1.35094 0,-0.52349 0.35462,-1.30027 1.87442,-1.30027 1.84065,0 1.94197,1.57046 1.97575,2.09395 0.0169,0.13509 0.13509,0.13509 0.18575,0.13509 0.18576,0 0.18576,-0.0844 0.18576,-0.38839 l 0,-1.75622 z"
         id="use8873" />
      <path
         inkscape:connector-curvature="0"
         d="m 119.32157,136.39685 c 0,-2.17838 -1.6549,-3.91771 -3.61376,-3.91771 -2.0264,0 -3.63064,1.78999 -3.63064,3.91771 0,2.1615 1.68867,3.78262 3.61376,3.78262 1.99263,0 3.63064,-1.6549 3.63064,-3.78262 z m -3.61376,3.41111 c -0.6248,0 -1.38471,-0.27018 -1.87442,-1.09763 -0.45594,-0.7599 -0.47283,-1.75622 -0.47283,-2.46546 0,-0.6417 0,-1.67178 0.52349,-2.43169 0.47283,-0.72612 1.21584,-0.99631 1.80688,-0.99631 0.65858,0 1.36782,0.30396 1.82376,0.96254 0.52349,0.77679 0.52349,1.84065 0.52349,2.46546 0,0.59103 0,1.63801 -0.43906,2.43168 -0.47282,0.81057 -1.24961,1.13141 -1.89131,1.13141 z"
         id="use8875" />
      <path
         inkscape:connector-curvature="0"
         d="m 122.74239,133.22215 1.9082,0 0,-0.48971 -1.94197,0 0,-1.97575 c 0,-1.5198 0.77679,-2.29659 1.46914,-2.29659 0.1351,0 0.3884,0.0338 0.59104,0.13509 -0.0675,0.0169 -0.48972,0.16887 -0.48972,0.65859 0,0.38839 0.27019,0.65858 0.65858,0.65858 0.40528,0 0.67547,-0.27019 0.67547,-0.67547 0,-0.62481 -0.60792,-1.11452 -1.41848,-1.11452 -1.18207,0 -2.51612,0.91188 -2.51612,2.63432 l 0,1.97575 -1.31716,0 0,0.48971 1.31716,0 0,5.53884 c 0,0.7599 -0.18575,0.7599 -1.28339,0.7599 l 0,0.48971 c 0.47283,-0.0338 1.4016,-0.0338 1.9082,-0.0338 0.45594,0 1.65489,0 2.04329,0.0338 l 0,-0.48971 -0.33774,0 c -1.23272,0 -1.2665,-0.18575 -1.2665,-0.79368 l 0,-5.50506 z"
         id="use8877" />
      <path
         inkscape:connector-curvature="0"
         d="m 127.72706,133.22215 2.38102,0 0,-0.48971 -2.38102,0 0,-3.10716 -0.37151,0 c -0.0169,1.58735 -0.62481,3.20848 -2.1615,3.25914 l 0,0.33773 1.43537,0 0,4.6945 c 0,1.87443 1.24962,2.26282 2.14461,2.26282 1.06386,0 1.62113,-1.04697 1.62113,-2.26282 l 0,-0.96254 -0.37151,0 0,0.92877 c 0,1.21584 -0.48972,1.92508 -1.1483,1.92508 -1.14829,0 -1.14829,-1.57046 -1.14829,-1.85753 l 0,-4.72828 z"
         id="use8879" />
      <path
         inkscape:connector-curvature="0"
         d="m 143.42804,135.90714 c 0,-1.57047 0,-2.0433 -0.3884,-2.58367 -0.48971,-0.65858 -1.28339,-0.7599 -1.85754,-0.7599 -1.40159,0 -2.11083,1.0132 -2.38102,1.67178 -0.23641,-1.30027 -1.1483,-1.67178 -2.21216,-1.67178 -1.63801,0 -2.2797,1.40159 -2.4148,1.73933 l -0.0169,0 0,-1.73933 -2.29659,0.18575 0,0.48972 c 1.1483,0 1.28339,0.1182 1.28339,0.94565 l 0,4.5763 c 0,0.7599 -0.18575,0.7599 -1.28339,0.7599 l 0,0.48971 c 0.43906,-0.0338 1.35094,-0.0338 1.82377,-0.0338 0.48971,0 1.40159,0 1.84065,0.0338 l 0,-0.48971 c -1.08075,0 -1.28339,0 -1.28339,-0.7599 l 0,-3.14093 c 0,-1.7731 1.16518,-2.71876 2.21216,-2.71876 1.04697,0 1.28339,0.86122 1.28339,1.89131 l 0,3.96838 c 0,0.7599 -0.18576,0.7599 -1.28339,0.7599 l 0,0.48971 c 0.43905,-0.0338 1.35093,-0.0338 1.82376,-0.0338 0.48971,0 1.4016,0 1.84065,0.0338 l 0,-0.48971 c -1.08075,0 -1.28339,0 -1.28339,-0.7599 l 0,-3.14093 c 0,-1.7731 1.16518,-2.71876 2.21216,-2.71876 1.04697,0 1.28339,0.86122 1.28339,1.89131 l 0,3.96838 c 0,0.7599 -0.18576,0.7599 -1.28339,0.7599 l 0,0.48971 c 0.43905,-0.0338 1.35093,-0.0338 1.82376,-0.0338 0.48972,0 1.4016,0 1.84065,0.0338 l 0,-0.48971 c -0.84433,0 -1.2665,0 -1.28339,-0.5066 l 0,-3.10715 z"
         id="use8881" />
      <path
         inkscape:connector-curvature="0"
         d="m 151.61752,135.50185 c 0,-0.91188 0,-1.58735 -0.74302,-2.24593 -0.59103,-0.54037 -1.35093,-0.77678 -2.09395,-0.77678 -1.38471,0 -2.44857,0.91188 -2.44857,2.00951 0,0.48972 0.32085,0.72613 0.70924,0.72613 0.40528,0 0.69235,-0.28707 0.69235,-0.69235 0,-0.69236 -0.60792,-0.69236 -0.86122,-0.69236 0.3884,-0.70924 1.19896,-1.0132 1.87443,-1.0132 0.77679,0 1.7731,0.64169 1.7731,2.1615 l 0,0.67546 c -3.39423,0.0507 -4.67762,1.46915 -4.67762,2.76942 0,1.33405 1.55358,1.75622 2.58367,1.75622 1.11452,0 1.87442,-0.67547 2.19527,-1.48603 0.0676,0.79368 0.59104,1.4016 1.31716,1.4016 0.35462,0 1.33405,-0.23642 1.33405,-1.58735 l 0,-0.94566 -0.3715,0 0,0.94566 c 0,0.96254 -0.40529,1.09763 -0.6417,1.09763 -0.64169,0 -0.64169,-0.89499 -0.64169,-1.14829 l 0,-2.95518 z m -1.09764,2.12773 c 0,1.6549 -1.23273,2.21216 -1.95886,2.21216 -0.82745,0 -1.5198,-0.60792 -1.5198,-1.41849 0,-2.22904 2.87074,-2.43168 3.47866,-2.46545 l 0,1.67178 z"
         id="use8883" />
      <path
         inkscape:connector-curvature="0"
         d="m 158.09483,136.02534 c 0.48972,-0.64169 1.19896,-1.55357 1.51981,-1.90819 0.69235,-0.77679 1.48603,-0.895 2.0264,-0.895 l 0,-0.48971 c -0.72613,0.0338 -0.7599,0.0338 -1.41848,0.0338 -0.6417,0 -0.67547,0 -1.51981,-0.0338 l 0,0.48971 c 0.21953,0.0338 0.48972,0.13509 0.48972,0.52349 0,0.28707 -0.15198,0.47283 -0.2533,0.60792 l -1.08075,1.36782 -1.31716,-1.73933 c -0.0507,-0.0675 -0.15198,-0.21953 -0.15198,-0.33773 0,-0.10132 0.0844,-0.40528 0.59103,-0.42217 l 0,-0.48971 c -0.42217,0.0338 -1.28339,0.0338 -1.73933,0.0338 -0.55726,0 -0.59103,0 -1.62112,-0.0338 l 0,0.48971 c 0.86122,0 1.18207,0.0338 1.53669,0.48971 l 1.97574,2.58367 c 0.0338,0.0338 0.10133,0.13509 0.10133,0.18575 0,0.0507 -1.31717,1.70556 -1.48603,1.92509 -0.74302,0.91188 -1.48603,1.09763 -2.21216,1.11452 l 0,0.48971 c 0.64169,-0.0338 0.67547,-0.0338 1.40159,-0.0338 0.6417,0 0.67547,0 1.51981,0.0338 l 0,-0.48971 c -0.40529,-0.0507 -0.47283,-0.30396 -0.47283,-0.54038 0,-0.27018 0.11821,-0.40528 0.28707,-0.6248 0.2533,-0.35462 0.81056,-1.04698 1.21584,-1.57047 l 1.38471,1.80688 c 0.28708,0.37151 0.28708,0.40528 0.28708,0.5066 0,0.1351 -0.1351,0.40528 -0.59104,0.42217 l 0,0.48971 c 0.43905,-0.0338 1.2665,-0.0338 1.73933,-0.0338 0.55726,0 0.59104,0 1.60424,0.0338 l 0,-0.48971 c -0.895,0 -1.19896,-0.0338 -1.60424,-0.57415 l -2.21216,-2.9214 z"
         id="use8885" />
      <path
         inkscape:connector-curvature="0"
         d="m 167.58094,144.11407 c 0,-0.0507 0,-0.0844 -0.28707,-0.37151 -1.68867,-1.70555 -2.63433,-4.49186 -2.63433,-7.93674 0,-3.27602 0.79368,-6.0961 2.75254,-8.08873 0.16886,-0.15198 0.16886,-0.18576 0.16886,-0.23642 0,-0.10132 -0.0844,-0.13509 -0.15198,-0.13509 -0.21952,0 -1.60423,1.21584 -2.43168,2.87074 -0.86122,1.70555 -1.24962,3.51243 -1.24962,5.5895 0,1.50291 0.23642,3.51243 1.11452,5.31931 0.99632,2.0264 2.38103,3.12403 2.56678,3.12403 0.0676,0 0.15198,-0.0338 0.15198,-0.13509 z"
         id="use8887" />
      <path
         inkscape:connector-curvature="0"
         d="m 174.2146,135.83959 1.95886,-2.24593 c 0.18575,-0.21953 0.33773,-0.35462 1.73933,-0.35462 l 0,-0.72613 c -0.94565,0.0338 -0.97943,0.0338 -1.55358,0.0338 -0.48971,0 -1.21584,0 -1.68867,-0.0338 l 0,0.72613 c 0.32085,0 0.67547,0.0844 0.67547,0.20264 0,0.0338 -0.0844,0.15198 -0.11821,0.18575 l -1.46914,1.6549 -1.67179,-2.04329 0.70924,0 0,-0.72613 c -0.38839,0.0338 -1.53669,0.0338 -1.99263,0.0338 -0.5066,0 -1.41848,0 -1.89131,-0.0338 l 0,0.72613 1.19896,0 2.63432,3.20847 -2.19527,2.48234 c -0.20263,0.23642 -0.32084,0.35463 -1.72244,0.35463 l 0,0.72612 c 1.01321,-0.0338 1.04698,-0.0338 1.57047,-0.0338 0.48971,0 1.19895,0 1.67178,0.0338 l 0,-0.72612 c -0.32084,0 -0.67547,-0.0844 -0.67547,-0.20264 0,-0.0169 0,-0.0338 0.11822,-0.16887 l 1.68867,-1.9082 1.87442,2.27971 -0.70924,0 0,0.72612 c 0.40528,-0.0338 1.53669,-0.0338 2.00952,-0.0338 0.5066,0 1.40159,0 1.87442,0.0338 l 0,-0.72612 -1.18207,0 -2.85385,-3.44489 z"
         id="use8889" />
      <path
         inkscape:connector-curvature="0"
         d="m 183.31231,135.80582 c 0,-1.28339 -0.16886,-3.37734 -1.11452,-5.3362 -0.99631,-2.02641 -2.38102,-3.12404 -2.56678,-3.12404 -0.0676,0 -0.15198,0.0338 -0.15198,0.13509 0,0.0507 0,0.0844 0.28708,0.37151 1.68867,1.70556 2.63432,4.49186 2.63432,7.93675 0,3.27602 -0.79367,6.0961 -2.75253,8.08873 -0.16887,0.15198 -0.16887,0.18575 -0.16887,0.23641 0,0.10133 0.0844,0.13509 0.15198,0.13509 0.21953,0 1.60424,-1.21584 2.43169,-2.87073 0.86122,-1.72245 1.24961,-3.54621 1.24961,-5.57261 z"
         id="use8891" />
      <path
         inkscape:connector-curvature="0"
         d="m 188.3347,135.51875 c 0,-0.24768 -0.18013,-0.4278 -0.43905,-0.4278 -0.29271,0 -0.61918,0.27019 -0.61918,0.60792 0,0.24767 0.18012,0.4278 0.43905,0.4278 0.2927,0 0.61918,-0.27019 0.61918,-0.60792 z m -1.64364,4.13161 -0.60792,1.55357 c -0.0563,0.16887 -0.11258,0.30396 -0.11258,0.49535 0,0.55163 0.4278,0.95691 1.02446,0.95691 1.09201,0 1.55358,-1.57609 1.55358,-1.72244 0,-0.11258 -0.0901,-0.14635 -0.16887,-0.14635 -0.13509,0 -0.15761,0.0788 -0.19138,0.19138 -0.25893,0.90062 -0.7205,1.36219 -1.17081,1.36219 -0.13509,0 -0.27019,-0.0563 -0.27019,-0.36025 0,-0.27018 0.0788,-0.47283 0.22516,-0.82182 0.11257,-0.30396 0.22516,-0.60792 0.34899,-0.91188 l 0.34899,-0.91188 c 0.10133,-0.25893 0.23642,-0.60792 0.23642,-0.7993 0,-0.56289 -0.45032,-0.95692 -1.02446,-0.95692 -1.09201,0 -1.56484,1.5761 -1.56484,1.72245 0,0.10132 0.0788,0.14635 0.16887,0.14635 0.14635,0 0.15761,-0.0675 0.19138,-0.18013 0.31522,-1.06949 0.83308,-1.37345 1.17081,-1.37345 0.15761,0 0.27019,0.0563 0.27019,0.37151 0,0.11258 -0.0113,0.27019 -0.12384,0.60792 l -0.30396,0.77679 z"
         id="use8893" />
      <rect
         height="0.67543983"
         width="94.354858"
         x="95.401268"
         y="146.87518"
         id="rect8895" />
      <path
         inkscape:connector-curvature="0"
         d="m 137.3135,157.37787 c -0.10133,-0.94565 -0.69236,-2.07706 -2.21216,-2.07706 -2.38102,0 -4.81271,2.4148 -4.81271,5.09978 0,1.03009 0.70924,2.97206 3.00583,2.97206 3.98527,0 5.69082,-5.80902 5.69082,-8.1225 0,-2.43168 -1.36782,-4.30611 -3.52932,-4.30611 -2.44857,0 -3.1747,2.14461 -3.1747,2.60055 0,0.15198 0.10133,0.52349 0.57415,0.52349 0.59104,0 0.84434,-0.54037 0.84434,-0.82745 0,-0.52349 -0.52349,-0.52349 -0.74302,-0.52349 0.69236,-1.24961 1.97574,-1.36782 2.43169,-1.36782 1.48603,0 2.43168,1.18207 2.43168,3.07338 0,1.08075 -0.32085,2.33037 -0.48971,2.95517 l -0.0169,0 z m -3.96838,5.53884 c -1.58734,0 -1.85753,-1.24961 -1.85753,-1.95886 0,-0.74301 0.47283,-2.48234 0.72613,-3.10715 0.21952,-0.5066 1.18206,-2.21216 2.93828,-2.21216 1.53669,0 1.89131,1.33405 1.89131,2.24594 0,1.24961 -1.09763,5.03223 -3.69819,5.03223 z"
         id="use8897" />
      <path
         inkscape:connector-curvature="0"
         d="m 144.98499,158.84702 1.95885,-2.24593 c 0.18576,-0.21953 0.33774,-0.35462 1.73933,-0.35462 l 0,-0.72613 c -0.94565,0.0338 -0.97943,0.0338 -1.55357,0.0338 -0.48972,0 -1.21585,0 -1.68867,-0.0338 l 0,0.72613 c 0.32084,0 0.67546,0.0844 0.67546,0.20264 0,0.0338 -0.0844,0.15198 -0.11821,0.18575 l -1.46914,1.6549 -1.67178,-2.04329 0.70924,0 0,-0.72613 c -0.3884,0.0338 -1.53669,0.0338 -1.99263,0.0338 -0.5066,0 -1.41849,0 -1.89131,-0.0338 l 0,0.72613 1.19895,0 2.63433,3.20847 -2.19527,2.48234 c -0.20264,0.23642 -0.32085,0.35462 -1.72245,0.35462 l 0,0.72613 c 1.01321,-0.0338 1.04698,-0.0338 1.57047,-0.0338 0.48971,0 1.19895,0 1.67178,0.0338 l 0,-0.72613 c -0.32085,0 -0.67547,-0.0844 -0.67547,-0.20264 0,-0.0169 0,-0.0338 0.11821,-0.16886 l 1.68867,-1.9082 1.87443,2.2797 -0.70924,0 0,0.72613 c 0.40528,-0.0338 1.53669,-0.0338 2.00951,-0.0338 0.50661,0 1.4016,0 1.87443,0.0338 l 0,-0.72613 -1.18207,0 -2.85385,-3.44488 z"
         id="use8899" />
      <path
         inkscape:connector-curvature="0"
         d="m 153.97012,158.52616 c 0,-0.21389 -0.16887,-0.42779 -0.43906,-0.42779 -0.33773,0 -0.63043,0.31522 -0.63043,0.60792 0,0.2139 0.16886,0.42779 0.43905,0.42779 0.33773,0 0.63044,-0.31521 0.63044,-0.60792 z m -2.35288,7.58776 c -0.16887,0.68673 -0.7205,1.41848 -1.40723,1.41848 -0.18012,0 -0.34899,-0.045 -0.37151,-0.0563 0.349,-0.16886 0.39403,-0.47282 0.39403,-0.57414 0,-0.27019 -0.20264,-0.41654 -0.43906,-0.41654 -0.32647,0 -0.63043,0.28144 -0.63043,0.65295 0,0.4278 0.41654,0.70924 1.05823,0.70924 0.68673,0 1.92508,-0.4278 2.26282,-1.77873 l 1.0132,-4.03029 c 0.0338,-0.1351 0.0563,-0.22516 0.0563,-0.39403 0,-0.61918 -0.49534,-1.05823 -1.1483,-1.05823 -1.19332,0 -1.89131,1.57609 -1.89131,1.72244 0,0.10133 0.0788,0.14635 0.16887,0.14635 0.12384,0 0.13509,-0.0338 0.2139,-0.20264 0.33773,-0.77678 0.91188,-1.35093 1.47477,-1.35093 0.23641,0 0.37151,0.15761 0.37151,0.52911 0,0.15761 -0.0338,0.31522 -0.0676,0.47283 l -1.05824,4.21042 z"
         id="use8901" />
      <path
         inkscape:connector-curvature="0"
         d="m 207.53347,145.96331 c 0.23641,0 0.54038,0 0.54038,-0.30396 0,-0.32085 -0.28708,-0.32085 -0.54038,-0.32085 l -9.94626,0 c -0.23641,0 -0.54038,0 -0.54038,0.30396 0,0.32085 0.28708,0.32085 0.54038,0.32085 l 9.94626,0 z m 0,3.14093 c 0.23641,0 0.54038,0 0.54038,-0.30396 0,-0.32085 -0.28708,-0.32085 -0.54038,-0.32085 l -9.94626,0 c -0.23641,0 -0.54038,0 -0.54038,0.30396 0,0.32085 0.28708,0.32085 0.54038,0.32085 l 9.94626,0 z"
         id="use8903" />
    </g>
    <g
       id="g10247"
       transform="translate(-285.53572,-118.39286)">
      <g
         id="g10086">
        <path
           id="use8951"
           d="m 415.11039,144.29153 c 0,-0.30396 0,-0.3884 -0.16888,-0.3884 -0.13509,0 -0.45594,0.37151 -0.57414,0.52349 -0.52348,-0.42217 -1.04697,-0.52349 -1.58735,-0.52349 -2.0433,0 -2.65121,1.11452 -2.65121,2.04329 0,0.18576 0,0.77679 0.64169,1.36783 0.54037,0.47282 1.11452,0.59103 1.89131,0.74301 0.92876,0.18575 1.1483,0.23641 1.57046,0.57415 0.30397,0.2533 0.52349,0.62481 0.52349,1.09763 0,0.72613 -0.42216,1.53669 -1.9082,1.53669 -1.11451,0 -1.92507,-0.64169 -2.29659,-2.33036 -0.0675,-0.30396 -0.0675,-0.32085 -0.0844,-0.33773 -0.0337,-0.0676 -0.10138,-0.0676 -0.15198,-0.0676 -0.18575,0 -0.18575,0.0844 -0.18575,0.38839 l 0,2.29659 c 0,0.30396 0,0.3884 0.16887,0.3884 0.0844,0 0.10137,-0.0169 0.3884,-0.37151 0.0844,-0.11821 0.0844,-0.15198 0.33772,-0.42217 0.6417,0.79368 1.55358,0.79368 1.84065,0.79368 1.77311,0 2.65121,-0.97943 2.65121,-2.31348 0,-0.91188 -0.55726,-1.45226 -0.70923,-1.60424 -0.60793,-0.52349 -1.06387,-0.62481 -2.17839,-0.82745 -0.5066,-0.10132 -1.73933,-0.33773 -1.73933,-1.35093 0,-0.52349 0.35462,-1.30028 1.87443,-1.30028 1.84065,0 1.94196,1.57046 1.97574,2.09395 0.0169,0.13509 0.1351,0.13509 0.18575,0.13509 0.18576,0 0.18576,-0.0844 0.18576,-0.38839 l 0,-1.75622 z"
           inkscape:connector-curvature="0" />
        <path
           id="use8953"
           d="m 423.84504,147.82085 c 0,-2.17839 -1.65489,-3.91772 -3.61375,-3.91772 -2.0264,0 -3.63064,1.78999 -3.63064,3.91772 0,2.16149 1.68867,3.78262 3.61375,3.78262 1.99264,0 3.63064,-1.6549 3.63064,-3.78262 z m -3.61375,3.41111 c -0.6248,0 -1.38472,-0.27019 -1.87443,-1.09764 -0.45594,-0.7599 -0.47282,-1.75621 -0.47282,-2.46545 0,-0.6417 0,-1.67179 0.52348,-2.43169 0.47283,-0.72613 1.21584,-0.99631 1.80688,-0.99631 0.65859,0 1.36782,0.30396 1.82376,0.96254 0.52349,0.77679 0.52349,1.84065 0.52349,2.46546 0,0.59103 0,1.63801 -0.43905,2.43168 -0.47283,0.81056 -1.24961,1.13141 -1.89131,1.13141 z"
           inkscape:connector-curvature="0" />
        <path
           id="use8955"
           d="m 427.26601,144.64615 1.90819,0 0,-0.48972 -1.94196,0 0,-1.97574 c 0,-1.5198 0.77678,-2.29659 1.46913,-2.29659 0.1351,0 0.3884,0.0338 0.59104,0.13509 -0.0675,0.0169 -0.48971,0.16887 -0.48971,0.65858 0,0.3884 0.27019,0.65858 0.65857,0.65858 0.40529,0 0.67548,-0.27018 0.67548,-0.67546 0,-0.62481 -0.60793,-1.11453 -1.41849,-1.11453 -1.18206,0 -2.51611,0.91189 -2.51611,2.63433 l 0,1.97574 -1.31716,0 0,0.48972 1.31716,0 0,5.53883 c 0,0.75991 -0.18576,0.75991 -1.2834,0.75991 l 0,0.48971 c 0.47284,-0.0338 1.4016,-0.0338 1.9082,-0.0338 0.45595,0 1.6549,0 2.0433,0.0338 l 0,-0.48971 -0.33774,0 c -1.23274,0 -1.2665,-0.18576 -1.2665,-0.79368 l 0,-5.50506 z"
           inkscape:connector-curvature="0" />
        <path
           id="use8957"
           d="m 432.25039,144.64615 2.38102,0 0,-0.48972 -2.38102,0 0,-3.10715 -0.3715,0 c -0.0169,1.58735 -0.62482,3.20847 -2.1615,3.25913 l 0,0.33774 1.43537,0 0,4.6945 c 0,1.87442 1.24961,2.26282 2.1446,2.26282 1.06386,0 1.62113,-1.04698 1.62113,-2.26282 l 0,-0.96254 -0.3715,0 0,0.92877 c 0,1.21584 -0.48972,1.92508 -1.1483,1.92508 -1.1483,0 -1.1483,-1.57046 -1.1483,-1.85754 l 0,-4.72827 z"
           inkscape:connector-curvature="0" />
        <path
           id="use8959"
           d="m 447.9508,147.33113 c 0,-1.57046 0,-2.04329 -0.38839,-2.58366 -0.48971,-0.65858 -1.28339,-0.7599 -1.85754,-0.7599 -1.4016,0 -2.11083,1.0132 -2.38102,1.67178 -0.23641,-1.30028 -1.1483,-1.67178 -2.21216,-1.67178 -1.63802,0 -2.2797,1.40159 -2.4148,1.73933 l -0.0169,0 0,-1.73933 -2.29659,0.18575 0,0.48971 c 1.1483,0 1.28339,0.1182 1.28339,0.94566 l 0,4.57629 c 0,0.75991 -0.18575,0.75991 -1.28339,0.75991 l 0,0.48971 c 0.43905,-0.0338 1.35094,-0.0338 1.82377,-0.0338 0.48971,0 1.4016,0 1.84065,0.0338 l 0,-0.48971 c -1.08075,0 -1.28339,0 -1.28339,-0.75991 l 0,-3.14092 c 0,-1.7731 1.16519,-2.71876 2.21216,-2.71876 1.04698,0 1.28339,0.86122 1.28339,1.89131 l 0,3.96837 c 0,0.75991 -0.18575,0.75991 -1.28339,0.75991 l 0,0.48971 c 0.43905,-0.0338 1.35094,-0.0338 1.82376,-0.0338 0.48972,0 1.40159,0 1.84065,0.0338 l 0,-0.48971 c -1.08075,0 -1.28338,0 -1.28338,-0.75991 l 0,-3.14092 c 0,-1.7731 1.16517,-2.71876 2.21215,-2.71876 1.04697,0 1.28338,0.86122 1.28338,1.89131 l 0,3.96837 c 0,0.75991 -0.18575,0.75991 -1.28338,0.75991 l 0,0.48971 c 0.43906,-0.0338 1.35093,-0.0338 1.82376,-0.0338 0.48971,0 1.4016,0 1.84065,0.0338 l 0,-0.48971 c -0.84433,0 -1.2665,0 -1.28339,-0.5066 l 0,-3.10716 z"
           inkscape:connector-curvature="0" />
        <path
           id="use8961"
           d="m 456.14084,146.92585 c 0,-0.91188 0,-1.58735 -0.74302,-2.24593 -0.59103,-0.54037 -1.35093,-0.77679 -2.09395,-0.77679 -1.38471,0 -2.44857,0.91188 -2.44857,2.00952 0,0.48971 0.32085,0.72613 0.70925,0.72613 0.40527,0 0.69235,-0.28708 0.69235,-0.69236 0,-0.69235 -0.60793,-0.69235 -0.86123,-0.69235 0.3884,-0.70924 1.19897,-1.0132 1.87443,-1.0132 0.77679,0 1.7731,0.64169 1.7731,2.16149 l 0,0.67547 c -3.39423,0.0507 -4.67761,1.46914 -4.67761,2.76942 0,1.33405 1.55357,1.75622 2.58366,1.75622 1.11452,0 1.87442,-0.67547 2.19527,-1.48603 0.0675,0.79367 0.59104,1.40159 1.31717,1.40159 0.35462,0 1.33405,-0.23641 1.33405,-1.58735 l 0,-0.94565 -0.37152,0 0,0.94565 c 0,0.96255 -0.40527,1.09764 -0.64168,1.09764 -0.6417,0 -0.6417,-0.895 -0.6417,-1.1483 l 0,-2.95517 z m -1.09764,2.12773 c 0,1.65489 -1.23273,2.21215 -1.95885,2.21215 -0.82745,0 -1.5198,-0.60792 -1.5198,-1.41848 0,-2.22904 2.87074,-2.43168 3.47865,-2.46546 l 0,1.67179 z"
           inkscape:connector-curvature="0" />
        <path
           id="use8963"
           d="m 462.6183,147.44934 c 0.48971,-0.6417 1.19895,-1.55358 1.5198,-1.9082 0.69235,-0.77679 1.48602,-0.89499 2.0264,-0.89499 l 0,-0.48972 c -0.72613,0.0338 -0.7599,0.0338 -1.41848,0.0338 -0.6417,0 -0.67547,0 -1.5198,-0.0338 l 0,0.48972 c 0.21953,0.0338 0.48972,0.13509 0.48972,0.52348 0,0.28708 -0.15199,0.47283 -0.2533,0.60793 l -1.08075,1.36782 -1.31717,-1.73933 c -0.0506,-0.0676 -0.15198,-0.21953 -0.15198,-0.33774 0,-0.10132 0.0844,-0.40528 0.59103,-0.42216 l 0,-0.48972 c -0.42216,0.0338 -1.28338,0.0338 -1.73932,0.0338 -0.55726,0 -0.59104,0 -1.62113,-0.0338 l 0,0.48972 c 0.86123,0 1.18207,0.0338 1.53669,0.48971 l 1.97574,2.58367 c 0.0337,0.0338 0.10137,0.13509 0.10137,0.18575 0,0.0507 -1.31716,1.70556 -1.48602,1.92508 -0.74301,0.91189 -1.48604,1.09764 -2.21216,1.11453 l 0,0.48971 c 0.6417,-0.0338 0.67547,-0.0338 1.4016,-0.0338 0.64168,0 0.67546,0 1.5198,0.0338 l 0,-0.48971 c -0.40528,-0.0507 -0.47283,-0.30396 -0.47283,-0.54038 0,-0.27019 0.11825,-0.40528 0.28708,-0.62481 0.2533,-0.35462 0.81056,-1.04697 1.21583,-1.57046 l 1.38472,1.80688 c 0.28707,0.37151 0.28707,0.40528 0.28707,0.5066 0,0.13509 -0.1351,0.40528 -0.59104,0.42217 l 0,0.48971 c 0.43905,-0.0338 1.2665,-0.0338 1.73933,-0.0338 0.55726,0 0.59104,0 1.60424,0.0338 l 0,-0.48971 c -0.89499,0 -1.19895,-0.0338 -1.60424,-0.57415 l -2.21215,-2.9214 z"
           inkscape:connector-curvature="0" />
        <path
           id="use8965"
           d="m 472.10442,155.53807 c 0,-0.0507 0,-0.0844 -0.28707,-0.37151 -1.68866,-1.70556 -2.63433,-4.49186 -2.63433,-7.93675 0,-3.27602 0.79368,-6.0961 2.75254,-8.08873 0.16886,-0.15198 0.16886,-0.18575 0.16886,-0.23641 0,-0.10132 -0.0844,-0.13509 -0.15197,-0.13509 -0.21953,0 -1.60424,1.21584 -2.43169,2.87073 -0.86122,1.70556 -1.24961,3.51244 -1.24961,5.5895 0,1.50292 0.23641,3.51244 1.11452,5.31931 0.99632,2.02641 2.38103,3.12404 2.56678,3.12404 0.0675,0 0.15197,-0.0338 0.15197,-0.13509 z"
           inkscape:connector-curvature="0" />
        <path
           id="use8967"
           d="m 478.7381,147.26359 1.95885,-2.24594 c 0.18576,-0.21952 0.33774,-0.35462 1.73934,-0.35462 l 0,-0.72612 c -0.94567,0.0338 -0.97943,0.0338 -1.55358,0.0338 -0.48971,0 -1.21585,0 -1.68867,-0.0338 l 0,0.72612 c 0.32085,0 0.67547,0.0844 0.67547,0.20264 0,0.0338 -0.0844,0.15198 -0.11825,0.18576 l -1.46914,1.65489 -1.67178,-2.04329 0.70923,0 0,-0.72612 c -0.38838,0.0338 -1.53668,0.0338 -1.99262,0.0338 -0.5066,0 -1.41849,0 -1.89131,-0.0338 l 0,0.72612 1.19895,0 2.63432,3.20848 -2.19526,2.48234 c -0.20265,0.23642 -0.32085,0.35462 -1.72245,0.35462 l 0,0.72613 c 1.0132,-0.0338 1.04697,-0.0338 1.57046,-0.0338 0.48971,0 1.19896,0 1.67179,0.0338 l 0,-0.72613 c -0.32085,0 -0.67546,-0.0844 -0.67546,-0.20264 0,-0.0169 0,-0.0338 0.11825,-0.16886 l 1.68867,-1.9082 1.87443,2.2797 -0.70925,0 0,0.72613 c 0.40528,-0.0338 1.53668,-0.0338 2.00952,-0.0338 0.5066,0 1.40159,0 1.87443,0.0338 l 0,-0.72613 -1.18208,0 -2.85385,-3.44488 z"
           inkscape:connector-curvature="0" />
        <path
           id="use8969"
           d="m 487.83581,147.22981 c 0,-1.28339 -0.16887,-3.37734 -1.11452,-5.33619 -0.99632,-2.02641 -2.38103,-3.12404 -2.56678,-3.12404 -0.0675,0 -0.15199,0.0338 -0.15199,0.13509 0,0.0507 0,0.0844 0.28708,0.37151 1.68867,1.70555 2.63432,4.49186 2.63432,7.93675 0,3.27602 -0.79367,6.09609 -2.75253,8.08872 -0.16887,0.15199 -0.16887,0.18576 -0.16887,0.23642 0,0.10132 0.0844,0.13509 0.15199,0.13509 0.21953,0 1.60423,-1.21584 2.43168,-2.87074 0.86122,-1.72244 1.24962,-3.5462 1.24962,-5.57261 z"
           inkscape:connector-curvature="0" />
        <path
           id="use8971"
           d="m 492.8582,146.94273 c 0,-0.24767 -0.18013,-0.42779 -0.43906,-0.42779 -0.2927,0 -0.61918,0.27018 -0.61918,0.60792 0,0.24767 0.18013,0.42779 0.43905,0.42779 0.2927,0 0.61919,-0.27018 0.61919,-0.60792 z m -1.64365,4.13161 -0.60791,1.55358 c -0.0562,0.16887 -0.11263,0.30396 -0.11263,0.49534 0,0.55164 0.4278,0.95692 1.02446,0.95692 1.09202,0 1.55358,-1.57609 1.55358,-1.72245 0,-0.11257 -0.0901,-0.14635 -0.16886,-0.14635 -0.13509,0 -0.15762,0.0788 -0.19139,0.19139 -0.25893,0.90062 -0.7205,1.36219 -1.1708,1.36219 -0.1351,0 -0.27019,-0.0563 -0.27019,-0.36025 0,-0.27019 0.0788,-0.47283 0.22515,-0.82182 0.11263,-0.30396 0.22515,-0.60792 0.34899,-0.91188 l 0.349,-0.91188 c 0.10137,-0.25893 0.23641,-0.60792 0.23641,-0.79931 0,-0.56289 -0.45031,-0.95691 -1.02446,-0.95691 -1.09201,0 -1.56484,1.57609 -1.56484,1.72244 0,0.10133 0.0788,0.14635 0.16888,0.14635 0.14635,0 0.1576,-0.0675 0.19137,-0.18012 0.31523,-1.06949 0.83308,-1.37345 1.17081,-1.37345 0.15762,0 0.27019,0.0563 0.27019,0.37151 0,0.11257 -0.0113,0.27018 -0.12387,0.60792 l -0.30397,0.77678 z"
           inkscape:connector-curvature="0" />
      </g>
      <path
         inkscape:connector-curvature="0"
         d="m 502.58209,155.53807 c 0,-0.0507 0,-0.0844 -0.28707,-0.37151 -1.68867,-1.70556 -2.63432,-4.49186 -2.63432,-7.93675 0,-3.27602 0.79367,-6.0961 2.75252,-8.08873 0.16887,-0.15198 0.16887,-0.18575 0.16887,-0.23641 0,-0.10132 -0.0844,-0.13509 -0.15198,-0.13509 -0.21952,0 -1.60424,1.21584 -2.43169,2.87073 -0.86121,1.70556 -1.24961,3.51244 -1.24961,5.5895 0,1.50292 0.23641,3.51244 1.11453,5.31931 0.99631,2.02641 2.38102,3.12404 2.56677,3.12404 0.0675,0 0.15198,-0.0338 0.15198,-0.13509 z"
         id="use8973" />
      <path
         inkscape:connector-curvature="0"
         d="m 508.3869,140.61023 c 0,-0.3884 0,-0.40528 -0.33774,-0.40528 -0.40527,0.45594 -1.24961,1.08074 -2.98895,1.08074 l 0,0.48972 c 0.3884,0 1.23274,0 2.1615,-0.43906 l 0,8.79797 c 0,0.60793 -0.0506,0.81057 -1.53669,0.81057 l -0.52348,0 0,0.48971 c 0.45593,-0.0338 2.09395,-0.0338 2.65121,-0.0338 0.55726,0 2.17839,0 2.63432,0.0338 l 0,-0.48971 -0.52348,0 c -1.48603,0 -1.53669,-0.20264 -1.53669,-0.81057 l 0,-9.52409 z"
         id="use8975" />
      <path
         inkscape:connector-curvature="0"
         d="m 523.7524,147.55066 c 0.28707,0 0.59104,0 0.59104,-0.33773 0,-0.33774 -0.30397,-0.33774 -0.59104,-0.33774 l -9.1357,0 c -0.28708,0 -0.59104,0 -0.59104,0.33774 0,0.33773 0.30396,0.33773 0.59104,0.33773 l 9.1357,0 z"
         id="use8977" />
      <path
         inkscape:connector-curvature="0"
         d="m 532.1296,144.29153 c 0,-0.30396 0,-0.3884 -0.16888,-0.3884 -0.13508,0 -0.45593,0.37151 -0.57415,0.52349 -0.52348,-0.42217 -1.04697,-0.52349 -1.58735,-0.52349 -2.04328,0 -2.65121,1.11452 -2.65121,2.04329 0,0.18576 0,0.77679 0.6417,1.36783 0.54038,0.47282 1.11453,0.59103 1.89131,0.74301 0.92877,0.18575 1.14829,0.23641 1.57047,0.57415 0.30396,0.2533 0.52348,0.62481 0.52348,1.09763 0,0.72613 -0.42216,1.53669 -1.9082,1.53669 -1.11452,0 -1.92508,-0.64169 -2.29658,-2.33036 -0.0675,-0.30396 -0.0675,-0.32085 -0.0845,-0.33773 -0.0337,-0.0676 -0.10138,-0.0676 -0.15198,-0.0676 -0.18576,0 -0.18576,0.0844 -0.18576,0.38839 l 0,2.29659 c 0,0.30396 0,0.3884 0.16887,0.3884 0.0844,0 0.10138,-0.0169 0.38839,-0.37151 0.0844,-0.11821 0.0844,-0.15198 0.33774,-0.42217 0.6417,0.79368 1.55357,0.79368 1.84065,0.79368 1.7731,0 2.65121,-0.97943 2.65121,-2.31348 0,-0.91188 -0.55726,-1.45226 -0.70924,-1.60424 -0.60792,-0.52349 -1.06386,-0.62481 -2.17838,-0.82745 -0.5066,-0.10132 -1.73933,-0.33773 -1.73933,-1.35093 0,-0.52349 0.35461,-1.30028 1.87441,-1.30028 1.84065,0 1.94198,1.57046 1.97575,2.09395 0.0169,0.13509 0.13509,0.13509 0.18575,0.13509 0.18577,0 0.18577,-0.0844 0.18577,-0.38839 l 0,-1.75622 z"
         id="use8979" />
      <path
         inkscape:connector-curvature="0"
         d="m 540.86284,147.82085 c 0,-2.17839 -1.6549,-3.91772 -3.61375,-3.91772 -2.02642,0 -3.63065,1.78999 -3.63065,3.91772 0,2.16149 1.68867,3.78262 3.61376,3.78262 1.99262,0 3.63064,-1.6549 3.63064,-3.78262 z m -3.61375,3.41111 c -0.62482,0 -1.38472,-0.27019 -1.87443,-1.09764 -0.45595,-0.7599 -0.47282,-1.75621 -0.47282,-2.46545 0,-0.6417 0,-1.67179 0.52348,-2.43169 0.47283,-0.72613 1.21584,-0.99631 1.80688,-0.99631 0.65857,0 1.36782,0.30396 1.82376,0.96254 0.52349,0.77679 0.52349,1.84065 0.52349,2.46546 0,0.59103 0,1.63801 -0.43906,2.43168 -0.47283,0.81056 -1.24962,1.13141 -1.8913,1.13141 z"
         id="use8981" />
      <path
         inkscape:connector-curvature="0"
         d="m 544.2838,144.64615 1.9082,0 0,-0.48972 -1.94198,0 0,-1.97574 c 0,-1.5198 0.77679,-2.29659 1.46915,-2.29659 0.13509,0 0.38839,0.0338 0.59103,0.13509 -0.0675,0.0169 -0.48971,0.16887 -0.48971,0.65858 0,0.3884 0.27018,0.65858 0.65858,0.65858 0.40528,0 0.67547,-0.27018 0.67547,-0.67546 0,-0.62481 -0.60793,-1.11453 -1.41848,-1.11453 -1.18207,0 -2.51612,0.91189 -2.51612,2.63433 l 0,1.97574 -1.31717,0 0,0.48972 1.31717,0 0,5.53883 c 0,0.75991 -0.18575,0.75991 -1.28339,0.75991 l 0,0.48971 c 0.47282,-0.0338 1.4016,-0.0338 1.9082,-0.0338 0.45594,0 1.65489,0 2.04329,0.0338 l 0,-0.48971 -0.33774,0 c -1.23273,0 -1.2665,-0.18576 -1.2665,-0.79368 l 0,-5.50506 z"
         id="use8983" />
      <path
         inkscape:connector-curvature="0"
         d="m 549.2696,144.64615 2.38102,0 0,-0.48972 -2.38102,0 0,-3.10715 -0.3715,0 c -0.0169,1.58735 -0.62481,3.20847 -2.1615,3.25913 l 0,0.33774 1.43536,0 0,4.6945 c 0,1.87442 1.24963,2.26282 2.14461,2.26282 1.06387,0 1.62113,-1.04698 1.62113,-2.26282 l 0,-0.96254 -0.3715,0 0,0.92877 c 0,1.21584 -0.48973,1.92508 -1.1483,1.92508 -1.1483,0 -1.1483,-1.57046 -1.1483,-1.85754 l 0,-4.72827 z"
         id="use8985" />
      <path
         inkscape:connector-curvature="0"
         d="m 564.97001,147.33113 c 0,-1.57046 0,-2.04329 -0.38839,-2.58366 -0.48972,-0.65858 -1.2834,-0.7599 -1.85753,-0.7599 -1.4016,0 -2.11084,1.0132 -2.38103,1.67178 -0.23642,-1.30028 -1.1483,-1.67178 -2.21216,-1.67178 -1.63801,0 -2.2797,1.40159 -2.4148,1.73933 l -0.0169,0 0,-1.73933 -2.29658,0.18575 0,0.48971 c 1.1483,0 1.28338,0.1182 1.28338,0.94566 l 0,4.57629 c 0,0.75991 -0.18575,0.75991 -1.28338,0.75991 l 0,0.48971 c 0.43905,-0.0338 1.35093,-0.0338 1.82376,-0.0338 0.48971,0 1.4016,0 1.84065,0.0338 l 0,-0.48971 c -1.08075,0 -1.28339,0 -1.28339,-0.75991 l 0,-3.14092 c 0,-1.7731 1.16518,-2.71876 2.21215,-2.71876 1.04699,0 1.2834,0.86122 1.2834,1.89131 l 0,3.96837 c 0,0.75991 -0.18576,0.75991 -1.2834,0.75991 l 0,0.48971 c 0.43906,-0.0338 1.35094,-0.0338 1.82378,-0.0338 0.48971,0 1.40158,0 1.84065,0.0338 l 0,-0.48971 c -1.08075,0 -1.2834,0 -1.2834,-0.75991 l 0,-3.14092 c 0,-1.7731 1.16518,-2.71876 2.21216,-2.71876 1.04697,0 1.28339,0.86122 1.28339,1.89131 l 0,3.96837 c 0,0.75991 -0.18575,0.75991 -1.28339,0.75991 l 0,0.48971 c 0.43905,-0.0338 1.35094,-0.0338 1.82376,-0.0338 0.48971,0 1.4016,0 1.84065,0.0338 l 0,-0.48971 c -0.84434,0 -1.2665,0 -1.28339,-0.5066 l 0,-3.10716 z"
         id="use8987" />
      <path
         inkscape:connector-curvature="0"
         d="m 573.16005,146.92585 c 0,-0.91188 0,-1.58735 -0.74301,-2.24593 -0.59104,-0.54037 -1.35094,-0.77679 -2.09395,-0.77679 -1.38472,0 -2.44858,0.91188 -2.44858,2.00952 0,0.48971 0.32085,0.72613 0.70924,0.72613 0.40529,0 0.69236,-0.28708 0.69236,-0.69236 0,-0.69235 -0.60792,-0.69235 -0.86122,-0.69235 0.3884,-0.70924 1.19896,-1.0132 1.87442,-1.0132 0.77679,0 1.7731,0.64169 1.7731,2.16149 l 0,0.67547 c -3.39422,0.0507 -4.67761,1.46914 -4.67761,2.76942 0,1.33405 1.55357,1.75622 2.58366,1.75622 1.11453,0 1.87443,-0.67547 2.19528,-1.48603 0.0675,0.79367 0.59103,1.40159 1.31716,1.40159 0.35462,0 1.33405,-0.23641 1.33405,-1.58735 l 0,-0.94565 -0.37151,0 0,0.94565 c 0,0.96255 -0.40528,1.09764 -0.64169,1.09764 -0.6417,0 -0.6417,-0.895 -0.6417,-1.1483 l 0,-2.95517 z m -1.09764,2.12773 c 0,1.65489 -1.23272,2.21215 -1.95885,2.21215 -0.82745,0 -1.51981,-0.60792 -1.51981,-1.41848 0,-2.22904 2.87075,-2.43168 3.47866,-2.46546 l 0,1.67179 z"
         id="use8989" />
      <path
         inkscape:connector-curvature="0"
         d="m 579.63751,147.44934 c 0.48971,-0.6417 1.19895,-1.55358 1.5198,-1.9082 0.69235,-0.77679 1.48603,-0.89499 2.0264,-0.89499 l 0,-0.48972 c -0.72612,0.0338 -0.7599,0.0338 -1.41847,0.0338 -0.6417,0 -0.67548,0 -1.51982,-0.0338 l 0,0.48972 c 0.21954,0.0338 0.48973,0.13509 0.48973,0.52348 0,0.28708 -0.15199,0.47283 -0.25331,0.60793 l -1.08074,1.36782 -1.31716,-1.73933 c -0.0506,-0.0676 -0.15199,-0.21953 -0.15199,-0.33774 0,-0.10132 0.0844,-0.40528 0.59104,-0.42216 l 0,-0.48972 c -0.42217,0.0338 -1.28339,0.0338 -1.73934,0.0338 -0.55725,0 -0.59103,0 -1.62111,-0.0338 l 0,0.48972 c 0.86121,0 1.18206,0.0338 1.53668,0.48971 l 1.97574,2.58367 c 0.0337,0.0338 0.10138,0.13509 0.10138,0.18575 0,0.0507 -1.31717,1.70556 -1.48603,1.92508 -0.74302,0.91189 -1.48604,1.09764 -2.21216,1.11453 l 0,0.48971 c 0.6417,-0.0338 0.67546,-0.0338 1.4016,-0.0338 0.64169,0 0.67546,0 1.5198,0.0338 l 0,-0.48971 c -0.40529,-0.0507 -0.47283,-0.30396 -0.47283,-0.54038 0,-0.27019 0.11825,-0.40528 0.28708,-0.62481 0.2533,-0.35462 0.81056,-1.04697 1.21584,-1.57046 l 1.38471,1.80688 c 0.28707,0.37151 0.28707,0.40528 0.28707,0.5066 0,0.13509 -0.1351,0.40528 -0.59103,0.42217 l 0,0.48971 c 0.43905,-0.0338 1.2665,-0.0338 1.73932,-0.0338 0.55726,0 0.59104,0 1.60424,0.0338 l 0,-0.48971 c -0.89499,0 -1.19895,-0.0338 -1.60424,-0.57415 l -2.2122,-2.9214 z"
         id="use8991" />
      <path
         inkscape:connector-curvature="0"
         d="m 589.12364,155.53807 c 0,-0.0507 0,-0.0844 -0.28708,-0.37151 -1.68866,-1.70556 -2.63432,-4.49186 -2.63432,-7.93675 0,-3.27602 0.79367,-6.0961 2.75253,-8.08873 0.16887,-0.15198 0.16887,-0.18575 0.16887,-0.23641 0,-0.10132 -0.0844,-0.13509 -0.15198,-0.13509 -0.21952,0 -1.60424,1.21584 -2.43169,2.87073 -0.86122,1.70556 -1.24961,3.51244 -1.24961,5.5895 0,1.50292 0.23641,3.51244 1.11451,5.31931 0.99633,2.02641 2.38103,3.12404 2.56679,3.12404 0.0675,0 0.15198,-0.0338 0.15198,-0.13509 z"
         id="use8993" />
      <path
         inkscape:connector-curvature="0"
         d="m 595.75589,147.26359 1.95886,-2.24594 c 0.18575,-0.21952 0.33774,-0.35462 1.73932,-0.35462 l 0,-0.72612 c -0.94565,0.0338 -0.97942,0.0338 -1.55357,0.0338 -0.48971,0 -1.21584,0 -1.68866,-0.0338 l 0,0.72612 c 0.32083,0 0.67546,0.0844 0.67546,0.20264 0,0.0338 -0.0845,0.15198 -0.11825,0.18576 l -1.46914,1.65489 -1.67179,-2.04329 0.70925,0 0,-0.72612 c -0.3884,0.0338 -1.5367,0.0338 -1.99263,0.0338 -0.5066,0 -1.41848,0 -1.89132,-0.0338 l 0,0.72612 1.19897,0 2.63432,3.20848 -2.19527,2.48234 c -0.20264,0.23642 -0.32085,0.35462 -1.72244,0.35462 l 0,0.72613 c 1.0132,-0.0338 1.04697,-0.0338 1.57046,-0.0338 0.48971,0 1.19895,0 1.67178,0.0338 l 0,-0.72613 c -0.32084,0 -0.67547,-0.0844 -0.67547,-0.20264 0,-0.0169 0,-0.0338 0.11825,-0.16886 l 1.68867,-1.9082 1.87442,2.2797 -0.70924,0 0,0.72613 c 0.40528,-0.0338 1.53669,-0.0338 2.00952,-0.0338 0.5066,0 1.4016,0 1.87442,0.0338 l 0,-0.72613 -1.18207,0 -2.85385,-3.44488 z"
         id="use8995" />
      <path
         inkscape:connector-curvature="0"
         d="m 604.8536,147.22981 c 0,-1.28339 -0.16886,-3.37734 -1.11453,-5.33619 -0.99631,-2.02641 -2.38102,-3.12404 -2.56677,-3.12404 -0.0675,0 -0.15198,0.0338 -0.15198,0.13509 0,0.0507 0,0.0844 0.28707,0.37151 1.68867,1.70555 2.63433,4.49186 2.63433,7.93675 0,3.27602 -0.79367,6.09609 -2.75253,8.08872 -0.16887,0.15199 -0.16887,0.18576 -0.16887,0.23642 0,0.10132 0.0844,0.13509 0.15198,0.13509 0.21952,0 1.60424,-1.21584 2.43169,-2.87074 0.86122,-1.72244 1.24961,-3.5462 1.24961,-5.57261 z"
         id="use8997" />
      <path
         inkscape:connector-curvature="0"
         d="m 609.87736,146.94273 c 0,-0.24767 -0.18012,-0.42779 -0.43905,-0.42779 -0.29271,0 -0.61919,0.27018 -0.61919,0.60792 0,0.24767 0.18013,0.42779 0.43907,0.42779 0.2927,0 0.61917,-0.27018 0.61917,-0.60792 z m -1.64364,4.13161 -0.60792,1.55358 c -0.0562,0.16887 -0.11263,0.30396 -0.11263,0.49534 0,0.55164 0.4278,0.95692 1.02447,0.95692 1.092,0 1.55357,-1.57609 1.55357,-1.72245 0,-0.11257 -0.09,-0.14635 -0.16887,-0.14635 -0.13509,0 -0.1576,0.0788 -0.19138,0.19139 -0.25894,0.90062 -0.7205,1.36219 -1.17081,1.36219 -0.1351,0 -0.27019,-0.0563 -0.27019,-0.36025 0,-0.27019 0.0788,-0.47283 0.22515,-0.82182 0.11263,-0.30396 0.22516,-0.60792 0.349,-0.91188 l 0.34899,-0.91188 c 0.10137,-0.25893 0.23641,-0.60792 0.23641,-0.79931 0,-0.56289 -0.45031,-0.95691 -1.02446,-0.95691 -1.092,0 -1.56483,1.57609 -1.56483,1.72244 0,0.10133 0.0788,0.14635 0.16887,0.14635 0.14635,0 0.15761,-0.0675 0.19138,-0.18012 0.31522,-1.06949 0.83308,-1.37345 1.17082,-1.37345 0.1576,0 0.27018,0.0563 0.27018,0.37151 0,0.11257 -0.0113,0.27018 -0.12387,0.60792 l -0.30396,0.77678 z"
         id="use8999" />
      <path
         inkscape:connector-curvature="0"
         d="m 616.06072,147.22981 c 0,-1.28339 -0.16886,-3.37734 -1.11452,-5.33619 -0.99631,-2.02641 -2.38103,-3.12404 -2.56678,-3.12404 -0.0675,0 -0.15197,0.0338 -0.15197,0.13509 0,0.0507 0,0.0844 0.28706,0.37151 1.68868,1.70555 2.63433,4.49186 2.63433,7.93675 0,3.27602 -0.79367,6.09609 -2.75253,8.08872 -0.16886,0.15199 -0.16886,0.18576 -0.16886,0.23642 0,0.10132 0.0844,0.13509 0.15197,0.13509 0.21953,0 1.60424,-1.21584 2.43169,-2.87074 0.86123,-1.72244 1.24961,-3.5462 1.24961,-5.57261 z"
         id="use9001" />
    </g>
    <g
       id="g10311"
       transform="translate(284.86302,-117.70308)">
      <path
         inkscape:connector-curvature="0"
         d="m 72.676277,170.35375 c 0,-0.69236 -0.557261,-1.21584 -1.215842,-1.21584 -0.692355,0 -1.215843,0.57415 -1.215843,1.21584 0,0.64169 0.523488,1.21584 1.215843,1.21584 0.658581,0 1.215842,-0.52349 1.215842,-1.21584 z m -2.972059,3.05649 0,0.72613 c 0.996315,0 1.114522,0 1.114522,0.65858 l 0,5.35309 -1.165182,0 0,0.72612 c 0.388394,-0.0338 1.553576,-0.0338 2.009517,-0.0338 0.472828,0 1.553577,0 1.958857,0.0338 l 0,-0.72612 -1.046975,0 0,-6.87289 -2.870739,0.13509 z"
         id="use9003" />
      <path
         inkscape:connector-curvature="0"
         d="m 77.852051,174.1026 1.925084,0 0,-0.72613 -2.009518,0 0,-1.73933 c 0,-1.75622 1.114523,-2.02641 1.671784,-2.02641 0.185753,0 0.219527,0.0169 0.320847,0.0507 -0.253301,0.16887 -0.405281,0.45595 -0.405281,0.81057 0,0.67546 0.540375,0.97943 0.979429,0.97943 0.371507,0 0.979428,-0.25331 0.979428,-0.99632 0,-0.69235 -0.607921,-1.4016 -1.806877,-1.4016 -1.536689,0 -3.411113,0.6417 -3.411113,2.60056 l 0,1.72244 -1.249616,0 0,0.72613 1.249616,0 0,6.04544 -1.165182,0 0,0.72612 c 0.388394,-0.0338 1.654896,-0.0338 2.127724,-0.0338 0.489714,0 1.857537,0 2.262818,0.0338 l 0,-0.72612 -1.469143,0 0,-6.04544 z"
         id="use9005" />
      <path
         inkscape:connector-curvature="0"
         d="m 93.214587,178.45937 c 0,-0.0844 -0.06755,-0.15198 -0.168868,-0.15198 -0.15198,0 -0.168866,0.0507 -0.2533,0.33773 -0.439055,1.53669 -1.131408,2.06018 -1.68867,2.06018 -0.202641,0 -0.439055,-0.0507 -0.439055,-0.55726 0,-0.45595 0.202642,-0.96255 0.388395,-1.46915 l 1.182069,-3.14092 c 0.05066,-0.1351 0.168866,-0.43906 0.168866,-0.7599 0,-0.70925 -0.5066,-1.35094 -1.334048,-1.35094 -1.553577,0 -2.178384,2.44857 -2.178384,2.58366 0,0.0676 0.06755,0.15198 0.185754,0.15198 0.15198,0 0.168866,-0.0676 0.236413,-0.30396 0.40528,-1.41848 1.046975,-2.09395 1.705557,-2.09395 0.15198,0 0.439053,0.0169 0.439053,0.55726 0,0.43906 -0.219526,0.99632 -0.35462,1.36783 l -1.182068,3.14092 c -0.101325,0.27019 -0.202642,0.54038 -0.202642,0.84434 0,0.7599 0.523488,1.36782 1.33405,1.36782 1.553577,0 2.161498,-2.46546 2.161498,-2.58366 z m -0.135094,-8.12251 c 0,-0.2533 -0.20264,-0.55726 -0.574147,-0.55726 -0.388395,0 -0.827449,0.37151 -0.827449,0.81056 0,0.42217 0.354621,0.55726 0.557261,0.55726 0.455941,0 0.844335,-0.43905 0.844335,-0.81056 z"
         id="use9007" />
      <path
         inkscape:connector-curvature="0"
         d="m 109.40569,169.44187 c 0.1351,-0.23642 0.1351,-0.27019 0.1351,-0.32085 0,-0.11821 -0.10133,-0.33773 -0.33774,-0.33773 -0.20264,0 -0.2533,0.10132 -0.37151,0.33773 l -7.58212,14.74209 c -0.1351,0.23641 -0.1351,0.27019 -0.1351,0.32085 0,0.13509 0.11821,0.33773 0.33774,0.33773 0.20264,0 0.2533,-0.10132 0.3715,-0.33773 l 7.58213,-14.74209 z"
         id="use9009" />
      <path
         inkscape:connector-curvature="0"
         d="m 110.16559,175.40287 c 0.23642,0 0.54038,0 0.54038,-0.30396 0,-0.32084 -0.28708,-0.32084 -0.54038,-0.32084 l -9.94626,0 c -0.236417,0 -0.540377,0 -0.540377,0.30396 0,0.32084 0.287074,0.32084 0.540377,0.32084 l 9.94626,0 z m 0,3.14093 c 0.23642,0 0.54038,0 0.54038,-0.30396 0,-0.32085 -0.28708,-0.32085 -0.54038,-0.32085 l -9.94626,0 c -0.236417,0 -0.540377,0 -0.540377,0.30396 0,0.32085 0.287074,0.32085 0.540377,0.32085 l 9.94626,0 z"
         id="use9011" />
      <path
         inkscape:connector-curvature="0"
         d="m 122.22847,175.52108 c 0.0675,-0.27019 0.0675,-0.5066 0.0675,-0.57415 0,-0.97943 -0.72613,-1.5198 -1.48603,-1.5198 -1.70556,0 -2.61744,2.46546 -2.61744,2.58366 0,0.0844 0.0675,0.15198 0.16886,0.15198 0.1351,0 0.15198,-0.0676 0.23642,-0.23641 0.67547,-1.63801 1.5198,-2.1615 2.1615,-2.1615 0.35462,0 0.54037,0.18576 0.54037,0.77679 0,0.40528 -0.0507,0.57415 -0.11821,0.87811 l -1.60424,6.36629 c -0.32085,1.24961 -1.11452,2.19527 -2.04329,2.19527 -0.0675,0 -0.42217,0 -0.74302,-0.16887 0.40529,-0.0844 0.72613,-0.40528 0.72613,-0.81056 0,-0.27019 -0.20264,-0.54038 -0.57414,-0.54038 -0.43906,0 -0.84434,0.37151 -0.84434,0.87811 0,0.69236 0.74301,0.97943 1.43537,0.97943 1.16518,0 2.70187,-0.86122 3.12404,-2.54989 l 1.57046,-6.24808 z m 0.69235,-5.18422 c 0,-0.42216 -0.35462,-0.55726 -0.55726,-0.55726 -0.45594,0 -0.84434,0.43906 -0.84434,0.81056 0,0.2533 0.20264,0.55726 0.57415,0.55726 0.3884,0 0.82745,-0.3715 0.82745,-0.81056 z"
         id="use9013" />
    </g>
    <g
       id="g10304"
       transform="translate(229.66476,-145.94674)">
      <path
         inkscape:connector-curvature="0"
         d="m 127.87454,170.35375 c 0,-0.69236 -0.55726,-1.21584 -1.21585,-1.21584 -0.69235,0 -1.21584,0.57415 -1.21584,1.21584 0,0.64169 0.52349,1.21584 1.21584,1.21584 0.65859,0 1.21585,-0.52349 1.21585,-1.21584 z m -2.97206,3.05649 0,0.72613 c 0.99631,0 1.11452,0 1.11452,0.65858 l 0,5.35309 -1.16518,0 0,0.72612 c 0.38839,-0.0338 1.55357,-0.0338 2.00951,-0.0338 0.47283,0 1.55358,0 1.95886,0.0338 l 0,-0.72612 -1.04697,0 0,-6.87289 -2.87074,0.13509 z"
         id="use9015" />
      <path
         inkscape:connector-curvature="0"
         d="m 133.05031,174.1026 1.92508,0 0,-0.72613 -2.00951,0 0,-1.73933 c 0,-1.75622 1.11452,-2.02641 1.67178,-2.02641 0.18575,0 0.21953,0.0169 0.32085,0.0507 -0.2533,0.16887 -0.40528,0.45595 -0.40528,0.81057 0,0.67546 0.54037,0.97943 0.97942,0.97943 0.37151,0 0.97943,-0.25331 0.97943,-0.99632 0,-0.69235 -0.60792,-1.4016 -1.80687,-1.4016 -1.53669,0 -3.41112,0.6417 -3.41112,2.60056 l 0,1.72244 -1.24961,0 0,0.72613 1.24961,0 0,6.04544 -1.16518,0 0,0.72612 c 0.38839,-0.0338 1.6549,-0.0338 2.12772,-0.0338 0.48972,0 1.85754,0 2.26282,0.0338 l 0,-0.72612 -1.46914,0 0,-6.04544 z"
         id="use9017" />
      <path
         inkscape:connector-curvature="0"
         d="m 148.41285,178.45937 c 0,-0.0844 -0.0675,-0.15198 -0.16887,-0.15198 -0.15198,0 -0.16887,0.0507 -0.2533,0.33773 -0.43906,1.53669 -1.13141,2.06018 -1.68867,2.06018 -0.20264,0 -0.43906,-0.0507 -0.43906,-0.55726 0,-0.45595 0.20264,-0.96255 0.3884,-1.46915 l 1.18207,-3.14092 c 0.0507,-0.1351 0.16886,-0.43906 0.16886,-0.7599 0,-0.70925 -0.5066,-1.35094 -1.33405,-1.35094 -1.55357,0 -2.17838,2.44857 -2.17838,2.58366 0,0.0676 0.0675,0.15198 0.18575,0.15198 0.15198,0 0.16887,-0.0676 0.23642,-0.30396 0.40528,-1.41848 1.04697,-2.09395 1.70555,-2.09395 0.15198,0 0.43906,0.0169 0.43906,0.55726 0,0.43906 -0.21953,0.99632 -0.35462,1.36783 l -1.18207,3.14092 c -0.10133,0.27019 -0.20264,0.54038 -0.20264,0.84434 0,0.7599 0.52349,1.36782 1.33405,1.36782 1.55357,0 2.1615,-2.46546 2.1615,-2.58366 z m -0.1351,-8.12251 c 0,-0.2533 -0.20264,-0.55726 -0.57415,-0.55726 -0.38839,0 -0.82744,0.37151 -0.82744,0.81056 0,0.42217 0.35462,0.55726 0.55726,0.55726 0.45594,0 0.84433,-0.43905 0.84433,-0.81056 z"
         id="use9019" />
      <path
         inkscape:connector-curvature="0"
         d="m 165.36385,175.40287 c 0.23642,0 0.54038,0 0.54038,-0.30396 0,-0.32084 -0.28708,-0.32084 -0.54038,-0.32084 l -9.94626,0 c -0.23642,0 -0.54038,0 -0.54038,0.30396 0,0.32084 0.28708,0.32084 0.54038,0.32084 l 9.94626,0 z m 0,3.14093 c 0.23642,0 0.54038,0 0.54038,-0.30396 0,-0.32085 -0.28708,-0.32085 -0.54038,-0.32085 l -9.94626,0 c -0.23642,0 -0.54038,0 -0.54038,0.30396 0,0.32085 0.28708,0.32085 0.54038,0.32085 l 9.94626,0 z"
         id="use9021" />
      <path
         inkscape:connector-curvature="0"
         d="m 177.4273,175.52108 c 0.0675,-0.27019 0.0675,-0.5066 0.0675,-0.57415 0,-0.97943 -0.72613,-1.5198 -1.48603,-1.5198 -1.70556,0 -2.61744,2.46546 -2.61744,2.58366 0,0.0844 0.0675,0.15198 0.16887,0.15198 0.13509,0 0.15198,-0.0676 0.23641,-0.23641 0.67547,-1.63801 1.5198,-2.1615 2.1615,-2.1615 0.35462,0 0.54037,0.18576 0.54037,0.77679 0,0.40528 -0.0507,0.57415 -0.11821,0.87811 l -1.60424,6.36629 c -0.32084,1.24961 -1.11452,2.19527 -2.04329,2.19527 -0.0675,0 -0.42217,0 -0.74301,-0.16887 0.40528,-0.0844 0.72613,-0.40528 0.72613,-0.81056 0,-0.27019 -0.20264,-0.54038 -0.57415,-0.54038 -0.43906,0 -0.84434,0.37151 -0.84434,0.87811 0,0.69236 0.74302,0.97943 1.43537,0.97943 1.16518,0 2.70187,-0.86122 3.12404,-2.54989 l 1.57047,-6.24808 z m 0.69235,-5.18422 c 0,-0.42216 -0.35462,-0.55726 -0.55726,-0.55726 -0.45594,0 -0.84434,0.43906 -0.84434,0.81056 0,0.2533 0.20265,0.55726 0.57415,0.55726 0.3884,0 0.82745,-0.3715 0.82745,-0.81056 z"
         id="use9023" />
    </g>
    <g
       id="g10276">
      <g
         transform="translate(-75,-90)"
         id="g10146">
        <g
           id="g10060">
          <path
             inkscape:connector-curvature="0"
             d="m 219.2247,144.29153 c 0,-0.30396 0,-0.3884 -0.16887,-0.3884 -0.1351,0 -0.45593,0.37151 -0.57415,0.52349 -0.52348,-0.42217 -1.04697,-0.52349 -1.58735,-0.52349 -2.04328,0 -2.65121,1.11452 -2.65121,2.04329 0,0.18576 0,0.77679 0.6417,1.36783 0.54038,0.47282 1.11451,0.59103 1.8913,0.74301 0.92878,0.18575 1.1483,0.23641 1.57048,0.57415 0.30395,0.2533 0.52348,0.62481 0.52348,1.09763 0,0.72613 -0.42217,1.53669 -1.9082,1.53669 -1.11452,0 -1.92508,-0.64169 -2.2966,-2.33036 -0.0675,-0.30396 -0.0675,-0.32085 -0.0844,-0.33773 -0.0337,-0.0676 -0.10138,-0.0676 -0.15199,-0.0676 -0.18575,0 -0.18575,0.0844 -0.18575,0.38839 l 0,2.29659 c 0,0.30396 0,0.3884 0.16886,0.3884 0.0844,0 0.10138,-0.0169 0.3884,-0.37151 0.0844,-0.11821 0.0844,-0.15198 0.33774,-0.42217 0.64169,0.79368 1.55358,0.79368 1.84065,0.79368 1.7731,0 2.65121,-0.97943 2.65121,-2.31348 0,-0.91188 -0.55726,-1.45226 -0.70925,-1.60424 -0.60791,-0.52349 -1.06386,-0.62481 -2.17837,-0.82745 -0.5066,-0.10132 -1.73934,-0.33773 -1.73934,-1.35093 0,-0.52349 0.35463,-1.30028 1.87443,-1.30028 1.84065,0 1.94197,1.57046 1.97575,2.09395 0.0169,0.13509 0.13508,0.13509 0.18575,0.13509 0.18575,0 0.18575,-0.0844 0.18575,-0.38839 l 0,-1.75622 z"
             id="use8905" />
          <path
             inkscape:connector-curvature="0"
             d="m 227.95932,147.82085 c 0,-2.17839 -1.6549,-3.91772 -3.61375,-3.91772 -2.02639,0 -3.63062,1.78999 -3.63062,3.91772 0,2.16149 1.68866,3.78262 3.61374,3.78262 1.99262,0 3.63063,-1.6549 3.63063,-3.78262 z m -3.61375,3.41111 c -0.6248,0 -1.3847,-0.27019 -1.87441,-1.09764 -0.45594,-0.7599 -0.47283,-1.75621 -0.47283,-2.46545 0,-0.6417 0,-1.67179 0.52349,-2.43169 0.47283,-0.72613 1.21584,-0.99631 1.80687,-0.99631 0.65857,0 1.36782,0.30396 1.82376,0.96254 0.52349,0.77679 0.52349,1.84065 0.52349,2.46546 0,0.59103 0,1.63801 -0.43905,2.43168 -0.47283,0.81056 -1.24963,1.13141 -1.89132,1.13141 z"
             id="use8907" />
          <path
             inkscape:connector-curvature="0"
             d="m 231.38029,144.64615 1.9082,0 0,-0.48972 -1.94198,0 0,-1.97574 c 0,-1.5198 0.7768,-2.29659 1.46915,-2.29659 0.13509,0 0.38839,0.0338 0.59104,0.13509 -0.0675,0.0169 -0.48971,0.16887 -0.48971,0.65858 0,0.3884 0.27017,0.65858 0.65857,0.65858 0.40528,0 0.67546,-0.27018 0.67546,-0.67546 0,-0.62481 -0.60791,-1.11453 -1.41847,-1.11453 -1.18208,0 -2.51613,0.91189 -2.51613,2.63433 l 0,1.97574 -1.31716,0 0,0.48972 1.31716,0 0,5.53883 c 0,0.75991 -0.18575,0.75991 -1.28338,0.75991 l 0,0.48971 c 0.47282,-0.0338 1.4016,-0.0338 1.9082,-0.0338 0.45593,0 1.6549,0 2.04328,0.0338 l 0,-0.48971 -0.33772,0 c -1.23274,0 -1.26651,-0.18576 -1.26651,-0.79368 l 0,-5.50506 z"
             id="use8909" />
          <path
             inkscape:connector-curvature="0"
             d="m 236.36467,144.64615 2.38103,0 0,-0.48972 -2.38103,0 0,-3.10715 -0.3715,0 c -0.0169,1.58735 -0.62481,3.20847 -2.1615,3.25913 l 0,0.33774 1.43537,0 0,4.6945 c 0,1.87442 1.24962,2.26282 2.14461,2.26282 1.06386,0 1.62112,-1.04698 1.62112,-2.26282 l 0,-0.96254 -0.3715,0 0,0.92877 c 0,1.21584 -0.48972,1.92508 -1.1483,1.92508 -1.1483,0 -1.1483,-1.57046 -1.1483,-1.85754 l 0,-4.72827 z"
             id="use8911" />
          <path
             inkscape:connector-curvature="0"
             d="m 252.0665,147.33113 c 0,-1.57046 0,-2.04329 -0.38839,-2.58366 -0.48971,-0.65858 -1.28339,-0.7599 -1.85754,-0.7599 -1.4016,0 -2.11083,1.0132 -2.38102,1.67178 -0.23641,-1.30028 -1.1483,-1.67178 -2.21216,-1.67178 -1.63802,0 -2.2797,1.40159 -2.4148,1.73933 l -0.0169,0 0,-1.73933 -2.29659,0.18575 0,0.48971 c 1.1483,0 1.28339,0.1182 1.28339,0.94566 l 0,4.57629 c 0,0.75991 -0.18575,0.75991 -1.28339,0.75991 l 0,0.48971 c 0.43907,-0.0338 1.35094,-0.0338 1.82377,-0.0338 0.48971,0 1.4016,0 1.84065,0.0338 l 0,-0.48971 c -1.08075,0 -1.28339,0 -1.28339,-0.75991 l 0,-3.14092 c 0,-1.7731 1.16519,-2.71876 2.21216,-2.71876 1.04698,0 1.28339,0.86122 1.28339,1.89131 l 0,3.96837 c 0,0.75991 -0.18575,0.75991 -1.28339,0.75991 l 0,0.48971 c 0.43905,-0.0338 1.35094,-0.0338 1.82376,-0.0338 0.48972,0 1.4016,0 1.84065,0.0338 l 0,-0.48971 c -1.08075,0 -1.28338,0 -1.28338,-0.75991 l 0,-3.14092 c 0,-1.7731 1.16517,-2.71876 2.21215,-2.71876 1.04697,0 1.2834,0.86122 1.2834,1.89131 l 0,3.96837 c 0,0.75991 -0.18577,0.75991 -1.2834,0.75991 l 0,0.48971 c 0.43906,-0.0338 1.35093,-0.0338 1.82376,-0.0338 0.48972,0 1.4016,0 1.84065,0.0338 l 0,-0.48971 c -0.84433,0 -1.2665,0 -1.28339,-0.5066 l 0,-3.10716 z"
             id="use8913" />
          <path
             inkscape:connector-curvature="0"
             d="m 260.25515,146.92585 c 0,-0.91188 0,-1.58735 -0.74301,-2.24593 -0.59104,-0.54037 -1.35094,-0.77679 -2.09395,-0.77679 -1.38472,0 -2.44858,0.91188 -2.44858,2.00952 0,0.48971 0.32085,0.72613 0.70924,0.72613 0.40529,0 0.69235,-0.28708 0.69235,-0.69236 0,-0.69235 -0.60791,-0.69235 -0.86121,-0.69235 0.38838,-0.70924 1.19895,-1.0132 1.87442,-1.0132 0.77679,0 1.7731,0.64169 1.7731,2.16149 l 0,0.67547 c -3.39422,0.0507 -4.67761,1.46914 -4.67761,2.76942 0,1.33405 1.55357,1.75622 2.58366,1.75622 1.11453,0 1.87443,-0.67547 2.19528,-1.48603 0.0675,0.79367 0.59102,1.40159 1.31716,1.40159 0.35461,0 1.33405,-0.23641 1.33405,-1.58735 l 0,-0.94565 -0.37151,0 0,0.94565 c 0,0.96255 -0.40529,1.09764 -0.6417,1.09764 -0.64169,0 -0.64169,-0.895 -0.64169,-1.1483 l 0,-2.95517 z m -1.09764,2.12773 c 0,1.65489 -1.23272,2.21215 -1.95886,2.21215 -0.82745,0 -1.5198,-0.60792 -1.5198,-1.41848 0,-2.22904 2.87074,-2.43168 3.47866,-2.46546 l 0,1.67179 z"
             id="use8915" />
          <path
             inkscape:connector-curvature="0"
             d="m 266.7326,147.44934 c 0.48971,-0.6417 1.19896,-1.55358 1.51981,-1.9082 0.69235,-0.77679 1.48603,-0.89499 2.0264,-0.89499 l 0,-0.48972 c -0.72612,0.0338 -0.7599,0.0338 -1.41849,0.0338 -0.64168,0 -0.67546,0 -1.5198,-0.0338 l 0,0.48972 c 0.21953,0.0338 0.48972,0.13509 0.48972,0.52348 0,0.28708 -0.15198,0.47283 -0.2533,0.60793 l -1.08075,1.36782 -1.31717,-1.73933 c -0.0506,-0.0676 -0.15197,-0.21953 -0.15197,-0.33774 0,-0.10132 0.0844,-0.40528 0.59104,-0.42216 l 0,-0.48972 c -0.42218,0.0338 -1.2834,0.0338 -1.73934,0.0338 -0.55726,0 -0.59104,0 -1.62113,-0.0338 l 0,0.48972 c 0.86123,0 1.18208,0.0338 1.53669,0.48971 l 1.97575,2.58367 c 0.0337,0.0338 0.10138,0.13509 0.10138,0.18575 0,0.0507 -1.31717,1.70556 -1.48604,1.92508 -0.74301,0.91189 -1.48603,1.09764 -2.21215,1.11453 l 0,0.48971 c 0.64169,-0.0338 0.67546,-0.0338 1.40159,-0.0338 0.6417,0 0.67547,0 1.51981,0.0338 l 0,-0.48971 c -0.40529,-0.0507 -0.47284,-0.30396 -0.47284,-0.54038 0,-0.27019 0.11825,-0.40528 0.28708,-0.62481 0.2533,-0.35462 0.81056,-1.04697 1.21585,-1.57046 l 1.3847,1.80688 c 0.28707,0.37151 0.28707,0.40528 0.28707,0.5066 0,0.13509 -0.13509,0.40528 -0.59102,0.42217 l 0,0.48971 c 0.43905,-0.0338 1.2665,-0.0338 1.73932,-0.0338 0.55726,0 0.59104,0 1.60424,0.0338 l 0,-0.48971 c -0.895,0 -1.19896,-0.0338 -1.60424,-0.57415 l -2.21216,-2.9214 z"
             id="use8917" />
          <path
             inkscape:connector-curvature="0"
             d="m 276.22011,155.53807 c 0,-0.0507 0,-0.0844 -0.28707,-0.37151 -1.68868,-1.70556 -2.63433,-4.49186 -2.63433,-7.93675 0,-3.27602 0.79368,-6.0961 2.75253,-8.08873 0.16887,-0.15198 0.16887,-0.18575 0.16887,-0.23641 0,-0.10132 -0.0844,-0.13509 -0.15199,-0.13509 -0.21952,0 -1.60423,1.21584 -2.43167,2.87073 -0.86123,1.70556 -1.24963,3.51244 -1.24963,5.5895 0,1.50292 0.23642,3.51244 1.11453,5.31931 0.99631,2.02641 2.38102,3.12404 2.56677,3.12404 0.0675,0 0.15199,-0.0338 0.15199,-0.13509 z"
             id="use8919" />
          <path
             inkscape:connector-curvature="0"
             d="m 282.85236,147.26359 1.95885,-2.24594 c 0.18576,-0.21952 0.33774,-0.35462 1.73934,-0.35462 l 0,-0.72612 c -0.94566,0.0338 -0.97943,0.0338 -1.55358,0.0338 -0.48971,0 -1.21585,0 -1.68867,-0.0338 l 0,0.72612 c 0.32085,0 0.67547,0.0844 0.67547,0.20264 0,0.0338 -0.0845,0.15198 -0.11825,0.18576 l -1.46913,1.65489 -1.67179,-2.04329 0.70924,0 0,-0.72612 c -0.38839,0.0338 -1.53669,0.0338 -1.99263,0.0338 -0.5066,0 -1.41849,0 -1.89131,-0.0338 l 0,0.72612 1.19895,0 2.63432,3.20848 -2.19526,2.48234 c -0.20264,0.23642 -0.32085,0.35462 -1.72245,0.35462 l 0,0.72613 c 1.0132,-0.0338 1.04698,-0.0338 1.57046,-0.0338 0.48972,0 1.19897,0 1.67179,0.0338 l 0,-0.72613 c -0.32085,0 -0.67546,-0.0844 -0.67546,-0.20264 0,-0.0169 0,-0.0338 0.11825,-0.16886 l 1.68867,-1.9082 1.87443,2.2797 -0.70925,0 0,0.72613 c 0.40529,-0.0338 1.53669,-0.0338 2.00952,-0.0338 0.5066,0 1.40159,0 1.87443,0.0338 l 0,-0.72613 -1.18208,0 -2.85385,-3.44488 z"
             id="use8921" />
          <path
             inkscape:connector-curvature="0"
             d="m 291.95007,147.22981 c 0,-1.28339 -0.16887,-3.37734 -1.11452,-5.33619 -0.99631,-2.02641 -2.38103,-3.12404 -2.56678,-3.12404 -0.0675,0 -0.15198,0.0338 -0.15198,0.13509 0,0.0507 0,0.0844 0.28707,0.37151 1.68868,1.70555 2.63433,4.49186 2.63433,7.93675 0,3.27602 -0.79368,6.09609 -2.75253,8.08872 -0.16887,0.15199 -0.16887,0.18576 -0.16887,0.23642 0,0.10132 0.0844,0.13509 0.15198,0.13509 0.21953,0 1.60424,-1.21584 2.43168,-2.87074 0.86122,-1.72244 1.24962,-3.5462 1.24962,-5.57261 z"
             id="use8923" />
          <path
             inkscape:connector-curvature="0"
             d="m 296.97246,146.94273 c 0,-0.24767 -0.18012,-0.42779 -0.43906,-0.42779 -0.2927,0 -0.61918,0.27018 -0.61918,0.60792 0,0.24767 0.18013,0.42779 0.43905,0.42779 0.2927,0 0.61919,-0.27018 0.61919,-0.60792 z m -1.64365,4.13161 -0.60791,1.55358 c -0.0563,0.16887 -0.11263,0.30396 -0.11263,0.49534 0,0.55164 0.42779,0.95692 1.02445,0.95692 1.09202,0 1.55358,-1.57609 1.55358,-1.72245 0,-0.11257 -0.0901,-0.14635 -0.16886,-0.14635 -0.13509,0 -0.15762,0.0788 -0.19139,0.19139 -0.25893,0.90062 -0.7205,1.36219 -1.1708,1.36219 -0.1351,0 -0.27019,-0.0563 -0.27019,-0.36025 0,-0.27019 0.0788,-0.47283 0.22515,-0.82182 0.11263,-0.30396 0.22516,-0.60792 0.34899,-0.91188 l 0.349,-0.91188 c 0.10137,-0.25893 0.23641,-0.60792 0.23641,-0.79931 0,-0.56289 -0.45031,-0.95691 -1.02446,-0.95691 -1.092,0 -1.56484,1.57609 -1.56484,1.72244 0,0.10133 0.0787,0.14635 0.16888,0.14635 0.14635,0 0.1576,-0.0675 0.19137,-0.18012 0.31523,-1.06949 0.83308,-1.37345 1.17081,-1.37345 0.15762,0 0.27019,0.0563 0.27019,0.37151 0,0.11257 -0.0113,0.27018 -0.12387,0.60792 l -0.30397,0.77678 z"
             id="use8925" />
        </g>
        <g
           id="g10073">
          <path
             inkscape:connector-curvature="0"
             d="m 306.74704,144.29153 c 0,-0.30396 0,-0.3884 -0.16887,-0.3884 -0.1351,0 -0.45595,0.37151 -0.57415,0.52349 -0.52348,-0.42217 -1.04697,-0.52349 -1.58735,-0.52349 -2.04328,0 -2.65121,1.11452 -2.65121,2.04329 0,0.18576 0,0.77679 0.64169,1.36783 0.54037,0.47282 1.11452,0.59103 1.89131,0.74301 0.92878,0.18575 1.1483,0.23641 1.57046,0.57415 0.30397,0.2533 0.52349,0.62481 0.52349,1.09763 0,0.72613 -0.42216,1.53669 -1.90819,1.53669 -1.11452,0 -1.92508,-0.64169 -2.2966,-2.33036 -0.0675,-0.30396 -0.0675,-0.32085 -0.0844,-0.33773 -0.0337,-0.0676 -0.10138,-0.0676 -0.15199,-0.0676 -0.18575,0 -0.18575,0.0844 -0.18575,0.38839 l 0,2.29659 c 0,0.30396 0,0.3884 0.16886,0.3884 0.0845,0 0.10138,-0.0169 0.3884,-0.37151 0.0844,-0.11821 0.0844,-0.15198 0.33774,-0.42217 0.64169,0.79368 1.55358,0.79368 1.84065,0.79368 1.7731,0 2.6512,-0.97943 2.6512,-2.31348 0,-0.91188 -0.55725,-1.45226 -0.70924,-1.60424 -0.60792,-0.52349 -1.06386,-0.62481 -2.17838,-0.82745 -0.5066,-0.10132 -1.73933,-0.33773 -1.73933,-1.35093 0,-0.52349 0.35463,-1.30028 1.87443,-1.30028 1.84065,0 1.94197,1.57046 1.97573,2.09395 0.0169,0.13509 0.1351,0.13509 0.18577,0.13509 0.18575,0 0.18575,-0.0844 0.18575,-0.38839 l 0,-1.75622 z"
             id="use8927" />
          <path
             inkscape:connector-curvature="0"
             d="m 315.4817,147.82085 c 0,-2.17839 -1.6549,-3.91772 -3.61376,-3.91772 -2.0264,0 -3.63064,1.78999 -3.63064,3.91772 0,2.16149 1.68867,3.78262 3.61376,3.78262 1.99263,0 3.63064,-1.6549 3.63064,-3.78262 z m -3.61376,3.41111 c -0.6248,0 -1.3847,-0.27019 -1.87442,-1.09764 -0.45595,-0.7599 -0.47283,-1.75621 -0.47283,-2.46545 0,-0.6417 0,-1.67179 0.52348,-2.43169 0.47284,-0.72613 1.21585,-0.99631 1.80689,-0.99631 0.65858,0 1.36781,0.30396 1.82376,0.96254 0.52349,0.77679 0.52349,1.84065 0.52349,2.46546 0,0.59103 0,1.63801 -0.43906,2.43168 -0.47283,0.81056 -1.24961,1.13141 -1.89131,1.13141 z"
             id="use8929" />
          <path
             inkscape:connector-curvature="0"
             d="m 318.90266,144.64615 1.9082,0 0,-0.48972 -1.94197,0 0,-1.97574 c 0,-1.5198 0.77678,-2.29659 1.46913,-2.29659 0.1351,0 0.3884,0.0338 0.59104,0.13509 -0.0675,0.0169 -0.48971,0.16887 -0.48971,0.65858 0,0.3884 0.27019,0.65858 0.65859,0.65858 0.40527,0 0.67546,-0.27018 0.67546,-0.67546 0,-0.62481 -0.60793,-1.11453 -1.41849,-1.11453 -1.18206,0 -2.51611,0.91189 -2.51611,2.63433 l 0,1.97574 -1.31716,0 0,0.48972 1.31716,0 0,5.53883 c 0,0.75991 -0.18575,0.75991 -1.28339,0.75991 l 0,0.48971 c 0.47283,-0.0338 1.40159,-0.0338 1.9082,-0.0338 0.45594,0 1.65489,0 2.04329,0.0338 l 0,-0.48971 -0.33774,0 c -1.23272,0 -1.2665,-0.18576 -1.2665,-0.79368 l 0,-5.50506 z"
             id="use8931" />
          <path
             inkscape:connector-curvature="0"
             d="m 323.88705,144.64615 2.38102,0 0,-0.48972 -2.38102,0 0,-3.10715 -0.37151,0 c -0.0169,1.58735 -0.6248,3.20847 -2.1615,3.25913 l 0,0.33774 1.43537,0 0,4.6945 c 0,1.87442 1.24961,2.26282 2.14461,2.26282 1.06387,0 1.62113,-1.04698 1.62113,-2.26282 l 0,-0.96254 -0.37151,0 0,0.92877 c 0,1.21584 -0.48972,1.92508 -1.1483,1.92508 -1.14829,0 -1.14829,-1.57046 -1.14829,-1.85754 l 0,-4.72827 z"
             id="use8933" />
          <path
             inkscape:connector-curvature="0"
             d="m 339.58885,147.33113 c 0,-1.57046 0,-2.04329 -0.38839,-2.58366 -0.48971,-0.65858 -1.28339,-0.7599 -1.85754,-0.7599 -1.4016,0 -2.11083,1.0132 -2.38102,1.67178 -0.23641,-1.30028 -1.1483,-1.67178 -2.21216,-1.67178 -1.63802,0 -2.2797,1.40159 -2.4148,1.73933 l -0.0169,0 0,-1.73933 -2.29659,0.18575 0,0.48971 c 1.1483,0 1.28339,0.1182 1.28339,0.94566 l 0,4.57629 c 0,0.75991 -0.18575,0.75991 -1.28339,0.75991 l 0,0.48971 c 0.43905,-0.0338 1.35094,-0.0338 1.82377,-0.0338 0.48971,0 1.4016,0 1.84065,0.0338 l 0,-0.48971 c -1.08075,0 -1.28339,0 -1.28339,-0.75991 l 0,-3.14092 c 0,-1.7731 1.16519,-2.71876 2.21216,-2.71876 1.04698,0 1.28339,0.86122 1.28339,1.89131 l 0,3.96837 c 0,0.75991 -0.18576,0.75991 -1.28339,0.75991 l 0,0.48971 c 0.43905,-0.0338 1.35093,-0.0338 1.82376,-0.0338 0.48972,0 1.40159,0 1.84065,0.0338 l 0,-0.48971 c -1.08075,0 -1.28338,0 -1.28338,-0.75991 l 0,-3.14092 c 0,-1.7731 1.16517,-2.71876 2.21215,-2.71876 1.04697,0 1.28338,0.86122 1.28338,1.89131 l 0,3.96837 c 0,0.75991 -0.18575,0.75991 -1.28338,0.75991 l 0,0.48971 c 0.43906,-0.0338 1.35093,-0.0338 1.82376,-0.0338 0.48971,0 1.4016,0 1.84065,0.0338 l 0,-0.48971 c -0.84433,0 -1.2665,0 -1.28339,-0.5066 l 0,-3.10716 z"
             id="use8935" />
          <path
             inkscape:connector-curvature="0"
             d="m 347.7775,146.92585 c 0,-0.91188 0,-1.58735 -0.74303,-2.24593 -0.59102,-0.54037 -1.35092,-0.77679 -2.09395,-0.77679 -1.3847,0 -2.44856,0.91188 -2.44856,2.00952 0,0.48971 0.32084,0.72613 0.70924,0.72613 0.40527,0 0.69235,-0.28708 0.69235,-0.69236 0,-0.69235 -0.60791,-0.69235 -0.86121,-0.69235 0.38838,-0.70924 1.19895,-1.0132 1.87441,-1.0132 0.7768,0 1.77311,0.64169 1.77311,2.16149 l 0,0.67547 c -3.39422,0.0507 -4.67762,1.46914 -4.67762,2.76942 0,1.33405 1.55358,1.75622 2.58367,1.75622 1.11451,0 1.87443,-0.67547 2.19526,-1.48603 0.0675,0.79367 0.59104,1.40159 1.31717,1.40159 0.35462,0 1.33405,-0.23641 1.33405,-1.58735 l 0,-0.94565 -0.3715,0 0,0.94565 c 0,0.96255 -0.40529,1.09764 -0.6417,1.09764 -0.64169,0 -0.64169,-0.895 -0.64169,-1.1483 l 0,-2.95517 z m -1.09764,2.12773 c 0,1.65489 -1.23274,2.21215 -1.95886,2.21215 -0.82745,0 -1.5198,-0.60792 -1.5198,-1.41848 0,-2.22904 2.87074,-2.43168 3.47866,-2.46546 l 0,1.67179 z"
             id="use8937" />
          <path
             inkscape:connector-curvature="0"
             d="m 354.25495,147.44934 c 0.48971,-0.6417 1.19896,-1.55358 1.5198,-1.9082 0.69236,-0.77679 1.48604,-0.89499 2.02641,-0.89499 l 0,-0.48972 c -0.72614,0.0338 -0.7599,0.0338 -1.41849,0.0338 -0.6417,0 -0.67546,0 -1.5198,-0.0338 l 0,0.48972 c 0.21953,0.0338 0.48972,0.13509 0.48972,0.52348 0,0.28708 -0.15198,0.47283 -0.2533,0.60793 l -1.08075,1.36782 -1.31717,-1.73933 c -0.0506,-0.0676 -0.15197,-0.21953 -0.15197,-0.33774 0,-0.10132 0.0844,-0.40528 0.59102,-0.42216 l 0,-0.48972 c -0.42216,0.0338 -1.28338,0.0338 -1.73932,0.0338 -0.55726,0 -0.59104,0 -1.62113,-0.0338 l 0,0.48972 c 0.86123,0 1.18208,0.0338 1.53669,0.48971 l 1.97575,2.58367 c 0.0337,0.0338 0.10125,0.13509 0.10125,0.18575 0,0.0507 -1.31716,1.70556 -1.48602,1.92508 -0.74302,0.91189 -1.48603,1.09764 -2.21217,1.11453 l 0,0.48971 c 0.6417,-0.0338 0.67548,-0.0338 1.4016,-0.0338 0.6417,0 0.67548,0 1.5198,0.0338 l 0,-0.48971 c -0.40527,-0.0507 -0.47282,-0.30396 -0.47282,-0.54038 0,-0.27019 0.11825,-0.40528 0.28707,-0.62481 0.2533,-0.35462 0.81057,-1.04697 1.21584,-1.57046 l 1.38471,1.80688 c 0.28708,0.37151 0.28708,0.40528 0.28708,0.5066 0,0.13509 -0.13509,0.40528 -0.59104,0.42217 l 0,0.48971 c 0.43906,-0.0338 1.26651,-0.0338 1.73934,-0.0338 0.55726,0 0.59104,0 1.60424,0.0338 l 0,-0.48971 c -0.895,0 -1.19897,-0.0338 -1.60424,-0.57415 l -2.21216,-2.9214 z"
             id="use8939" />
          <path
             inkscape:connector-curvature="0"
             d="m 363.74106,155.53807 c 0,-0.0507 0,-0.0844 -0.28707,-0.37151 -1.68868,-1.70556 -2.63433,-4.49186 -2.63433,-7.93675 0,-3.27602 0.79368,-6.0961 2.75254,-8.08873 0.16886,-0.15198 0.16886,-0.18575 0.16886,-0.23641 0,-0.10132 -0.0844,-0.13509 -0.15199,-0.13509 -0.21952,0 -1.60422,1.21584 -2.43167,2.87073 -0.86123,1.70556 -1.24963,3.51244 -1.24963,5.5895 0,1.50292 0.23643,3.51244 1.11453,5.31931 0.99631,2.02641 2.38102,3.12404 2.56677,3.12404 0.0675,0 0.15199,-0.0338 0.15199,-0.13509 z"
             id="use8941" />
          <path
             inkscape:connector-curvature="0"
             d="m 370.37472,147.26359 1.95887,-2.24594 c 0.18575,-0.21952 0.33773,-0.35462 1.73932,-0.35462 l 0,-0.72612 c -0.94565,0.0338 -0.97942,0.0338 -1.55357,0.0338 -0.48972,0 -1.21584,0 -1.68867,-0.0338 l 0,0.72612 c 0.32084,0 0.67547,0.0844 0.67547,0.20264 0,0.0338 -0.0845,0.15198 -0.11825,0.18576 l -1.46915,1.65489 -1.67179,-2.04329 0.70925,0 0,-0.72612 c -0.3884,0.0338 -1.53669,0.0338 -1.99264,0.0338 -0.5066,0 -1.41847,0 -1.89131,-0.0338 l 0,0.72612 1.19896,0 2.63433,3.20848 -2.19528,2.48234 c -0.20264,0.23642 -0.32084,0.35462 -1.72244,0.35462 l 0,0.72613 c 1.0132,-0.0338 1.04698,-0.0338 1.57047,-0.0338 0.48971,0 1.19895,0 1.67178,0.0338 l 0,-0.72613 c -0.32085,0 -0.67547,-0.0844 -0.67547,-0.20264 0,-0.0169 0,-0.0338 0.11825,-0.16886 l 1.68866,-1.9082 1.87443,2.2797 -0.70924,0 0,0.72613 c 0.40527,-0.0338 1.53669,-0.0338 2.00951,-0.0338 0.5066,0 1.4016,0 1.87443,0.0338 l 0,-0.72613 -1.18207,0 -2.85386,-3.44488 z"
             id="use8943" />
          <path
             inkscape:connector-curvature="0"
             d="m 379.47244,147.22981 c 0,-1.28339 -0.16887,-3.37734 -1.11453,-5.33619 -0.99631,-2.02641 -2.38102,-3.12404 -2.56677,-3.12404 -0.0675,0 -0.15198,0.0338 -0.15198,0.13509 0,0.0507 0,0.0844 0.28708,0.37151 1.68866,1.70555 2.63432,4.49186 2.63432,7.93675 0,3.27602 -0.79367,6.09609 -2.75254,8.08872 -0.16886,0.15199 -0.16886,0.18576 -0.16886,0.23642 0,0.10132 0.0844,0.13509 0.15198,0.13509 0.21952,0 1.60423,-1.21584 2.43168,-2.87074 0.86123,-1.72244 1.24962,-3.5462 1.24962,-5.57261 z"
             id="use8945" />
          <path
             inkscape:connector-curvature="0"
             d="m 385.78947,146.94273 c 0,-0.2139 -0.16887,-0.42779 -0.43905,-0.42779 -0.33773,0 -0.63043,0.31521 -0.63043,0.60792 0,0.2139 0.16886,0.42779 0.43905,0.42779 0.33773,0 0.63043,-0.31522 0.63043,-0.60792 z m -2.35288,7.58776 c -0.16887,0.68673 -0.7205,1.41848 -1.40723,1.41848 -0.18012,0 -0.34899,-0.045 -0.3715,-0.0563 0.34899,-0.16886 0.39403,-0.47282 0.39403,-0.57414 0,-0.27019 -0.20265,-0.41654 -0.43907,-0.41654 -0.32647,0 -0.63043,0.28144 -0.63043,0.65295 0,0.4278 0.41653,0.70924 1.05823,0.70924 0.68673,0 1.92509,-0.4278 2.26282,-1.77873 l 1.01321,-4.03029 c 0.0337,-0.1351 0.0563,-0.22516 0.0563,-0.39403 0,-0.61918 -0.49535,-1.05823 -1.1483,-1.05823 -1.19333,0 -1.89131,1.57609 -1.89131,1.72244 0,0.10133 0.0789,0.14635 0.16887,0.14635 0.12388,0 0.13509,-0.0338 0.21389,-0.20264 0.33774,-0.77678 0.91189,-1.35093 1.47477,-1.35093 0.23642,0 0.37152,0.15761 0.37152,0.52911 0,0.15761 -0.0337,0.31522 -0.0675,0.47283 l -1.05824,4.21042 z"
             id="use8947" />
        </g>
      </g>
      <path
         id="path10215"
         d="m 135.7524,57.514946 c 0.28707,0 0.59104,0 0.59104,-0.33773 0,-0.33774 -0.30397,-0.33774 -0.59104,-0.33774 l -9.1357,0 c -0.28708,0 -0.59104,0 -0.59104,0.33774 0,0.33773 0.30396,0.33773 0.59104,0.33773 l 9.1357,0 z"
         inkscape:connector-curvature="0" />
    </g>
  </g>
</svg>
