<?xml version="1.0" encoding="utf-8" standalone="no"?>
<!DOCTYPE svg PUBLIC "-//W3C//DTD SVG 1.1//EN"
  "http://www.w3.org/Graphics/SVG/1.1/DTD/svg11.dtd">
<!-- Created with matplotlib (http://matplotlib.org/) -->
<svg height="576pt" version="1.1" viewBox="0 0 576 576" width="576pt" xmlns="http://www.w3.org/2000/svg" xmlns:xlink="http://www.w3.org/1999/xlink">
 <defs>
  <style type="text/css">
*{stroke-linecap:butt;stroke-linejoin:round;}
  </style>
 </defs>
 <g id="figure_1">
  <g id="patch_1">
   <path d="M 0 576 
L 576 576 
L 576 0 
L 0 0 
z
" style="fill:#ffffff;"/>
  </g>
  <g id="axes_1">
   <g id="patch_2">
    <path d="M 72 504 
L 518.4 504 
L 518.4 69.12 
L 72 69.12 
z
" style="fill:#ffffff;"/>
   </g>
   <g id="PathCollection_1">
    <path clip-path="url(#pc005c874e8)" d="M 73.992766 442.501818 
L 76.509091 439.999185 
L 78.075531 438.109091 
L 81.018182 435.175217 
L 82.25112 433.716364 
L 85.527273 430.439588 
L 86.493025 429.323636 
L 90.036364 425.763557 
L 90.772808 424.930909 
L 94.545455 421.121962 
L 95.074934 420.538182 
L 99.054545 416.477001 
L 99.359564 416.145455 
L 103.563636 411.799785 
L 103.60779 411.752727 
L 107.00427 407.36 
L 108.072727 406.294205 
L 110.561229 402.967273 
L 112.581818 400.947289 
L 114.406674 398.574545 
L 117.090909 395.884452 
L 118.459761 394.181818 
L 121.6 391.009744 
L 122.597896 389.789091 
L 126.109091 386.215444 
L 126.800316 385.396364 
L 130.618182 381.471079 
L 131.028672 381.003636 
L 135.127273 376.726049 
L 135.23186 376.610909 
L 138.586242 372.218182 
L 139.636364 371.166101 
L 142.048369 367.825455 
L 144.145455 365.718838 
L 145.855811 363.432727 
L 148.654545 360.609933 
L 149.878541 359.04 
L 153.163636 355.706964 
L 154.028128 354.647273 
L 157.672727 350.912816 
L 158.233978 350.254545 
L 162.181818 346.107734 
L 162.397276 345.861818 
L 165.716304 341.469091 
L 166.690909 340.48054 
L 168.916943 337.076364 
L 171.2 334.738217 
L 172.586396 332.683636 
L 175.709091 329.440415 
L 176.541676 328.290909 
L 180.218182 324.395917 
L 180.613171 323.898182 
L 184.355463 319.505455 
L 184.727273 319.130151 
L 187.220046 315.112727 
L 189.236364 313.069139 
L 190.803138 310.72 
L 193.745455 307.703221 
L 194.70963 306.327273 
L 198.254545 302.617288 
L 198.784361 301.934545 
L 202.763636 297.630389 
L 202.838853 297.541818 
L 205.22627 293.149091 
L 207.272727 291.031064 
L 208.490485 288.756364 
L 211.781818 285.237755 
L 212.352524 284.363636 
L 215.768042 279.970909 
L 216.290909 279.431068 
L 218.010011 275.578182 
L 220.8 272.647879 
L 221.643001 271.185455 
L 225.309091 267.155862 
L 225.578332 266.792727 
L 227.917112 262.4 
L 229.818182 260.444949 
L 231.056542 258.007273 
L 234.327273 254.578029 
L 234.975357 253.614545 
L 238.836364 249.39391 
L 238.980186 249.221818 
L 241.315781 244.829091 
L 243.345455 242.747851 
L 245.15307 240.436364 
L 247.854545 237.694661 
L 249.615118 236.043636 
L 252.363636 233.358826 
L 254.63551 231.650909 
L 256.872727 229.544168 
L 261.381818 227.523913 
L 264.583578 227.258182 
L 265.890909 226.960173 
L 270.4 226.169444 
L 274.909091 225.53153 
L 279.418182 226.811328 
L 280.188751 227.258182 
L 283.927273 230.078497 
L 285.119778 231.650909 
L 287.30749 236.043636 
L 288.436364 239.155315 
L 289.181457 240.436364 
L 291.350994 244.829091 
L 292.634107 249.221818 
L 292.945455 250.751301 
L 293.989538 253.614545 
L 295.26392 258.007273 
L 296.250545 262.4 
L 296.983469 266.792727 
L 297.454545 269.604526 
L 298.056073 271.185455 
L 299.562122 275.578182 
L 300.591045 279.970909 
L 301.325918 284.363636 
L 301.963636 287.996676 
L 302.266351 288.756364 
L 304.045776 293.149091 
L 305.165146 297.541818 
L 306.065367 301.934545 
L 306.472727 303.581337 
L 307.877469 306.327273 
L 309.781097 310.72 
L 310.981818 314.085847 
L 311.667087 315.112727 
L 314.267318 319.505455 
L 315.490909 322.075234 
L 316.914397 323.898182 
L 319.664073 328.290909 
L 320 328.793999 
L 323.244817 332.683636 
L 324.509091 334.394989 
L 326.926192 337.076364 
L 329.018182 339.446098 
L 330.975299 341.469091 
L 333.527273 344.07523 
L 335.476192 345.861818 
L 338.036364 348.005919 
L 341.16702 350.254545 
L 342.545455 351.069333 
L 347.054545 353.898706 
L 348.106939 354.647273 
L 351.563636 356.485631 
L 355.196378 359.04 
L 356.072727 359.519725 
L 360.581818 362.163574 
L 365.090909 363.072454 
L 369.6 359.512224 
L 369.827581 359.04 
L 371.67382 354.647273 
L 374.109091 350.81408 
L 374.319833 350.254545 
L 375.895073 345.861818 
L 378.208454 341.469091 
L 378.618182 340.629253 
L 379.343813 337.076364 
L 380.163055 332.683636 
L 381.055032 328.290909 
L 382.24626 323.898182 
L 383.127273 321.190754 
L 383.355224 319.505455 
L 383.80553 315.112727 
L 384.246163 310.72 
L 384.550496 306.327273 
L 384.798848 301.934545 
L 384.922232 297.541818 
L 384.884902 293.149091 
L 384.749609 288.756364 
L 384.452931 284.363636 
L 384.058054 279.970909 
L 383.686605 275.578182 
L 383.279055 271.185455 
L 383.127273 269.77844 
L 382.189042 266.792727 
L 381.10494 262.4 
L 380.308818 258.007273 
L 379.582265 253.614545 
L 378.95684 249.221818 
L 378.618182 247.019679 
L 377.686219 244.829091 
L 376.228631 240.436364 
L 375.216546 236.043636 
L 374.476258 231.650909 
L 374.109091 229.671646 
L 372.896831 227.258182 
L 371.303301 222.865455 
L 370.294976 218.472727 
L 369.6 215.093657 
L 369.024812 214.08 
L 366.856342 209.687273 
L 365.569089 205.294545 
L 365.090909 203.59394 
L 363.46338 200.901818 
L 361.70042 196.509091 
L 360.581818 192.206309 
L 360.528422 192.116364 
L 357.97571 187.723636 
L 356.401054 183.330909 
L 356.072727 181.687795 
L 355.023019 178.938182 
L 353.996404 174.545455 
L 353.640002 170.152727 
L 353.319846 165.76 
L 353.156113 161.367273 
L 353.245461 156.974545 
L 353.700669 152.581818 
L 354.712193 148.189091 
L 356.072727 144.998785 
L 356.246143 143.796364 
L 356.857759 139.403636 
L 357.644055 135.010909 
L 359.079113 130.618182 
L 360.581818 127.72806 
L 360.840362 126.225455 
L 361.410876 121.832727 
L 362.129894 117.44 
L 363.408949 113.047273 
L 365.090909 109.637789 
L 365.244909 108.654545 
L 365.713089 104.261818 
L 366.205605 99.869091 
L 367.004174 95.476364 
L 368.594008 91.083636 
L 369.6 89.298365 
L 369.989184 86.690909 
L 370.459372 82.298182 
L 371.149748 77.905455 
L 372.621297 73.512727 
L 374.109091 70.820853 
L 374.384939 69.12 
L 374.109091 69.12 
L 369.6 69.12 
L 365.090909 69.12 
L 360.581818 69.12 
L 356.072727 69.12 
L 351.563636 69.12 
L 347.054545 69.12 
L 342.545455 69.12 
L 338.036364 69.12 
L 333.527273 69.12 
L 329.018182 69.12 
L 324.509091 69.12 
L 320 69.12 
L 315.490909 69.12 
L 310.981818 69.12 
L 306.472727 69.12 
L 301.963636 69.12 
L 297.454545 69.12 
L 292.945455 69.12 
L 288.436364 69.12 
L 283.927273 69.12 
L 279.418182 69.12 
L 274.909091 69.12 
L 270.4 69.12 
L 265.890909 69.12 
L 261.381818 69.12 
L 256.872727 69.12 
L 252.363636 69.12 
L 247.854545 69.12 
L 243.345455 69.12 
L 238.836364 69.12 
L 234.327273 69.12 
L 229.818182 69.12 
L 225.309091 69.12 
L 220.8 69.12 
L 216.290909 69.12 
L 211.781818 69.12 
L 207.272727 69.12 
L 202.763636 69.12 
L 198.254545 69.12 
L 193.745455 69.12 
L 189.236364 69.12 
L 184.727273 69.12 
L 180.218182 69.12 
L 175.709091 69.12 
L 171.2 69.12 
L 166.690909 69.12 
L 162.181818 69.12 
L 157.672727 69.12 
L 153.163636 69.12 
L 148.654545 69.12 
L 144.145455 69.12 
L 139.636364 69.12 
L 135.127273 69.12 
L 130.618182 69.12 
L 126.109091 69.12 
L 121.6 69.12 
L 117.090909 69.12 
L 112.581818 69.12 
L 108.072727 69.12 
L 103.563636 69.12 
L 99.054545 69.12 
L 94.545455 69.12 
L 90.036364 69.12 
L 85.527273 69.12 
L 81.018182 69.12 
L 76.509091 69.12 
L 72 69.12 
L 72 73.512727 
L 72 77.905455 
L 72 82.298182 
L 72 86.690909 
L 72 91.083636 
L 72 95.476364 
L 72 99.869091 
L 72 104.261818 
L 72 108.654545 
L 72 113.047273 
L 72 117.44 
L 72 121.832727 
L 72 126.225455 
L 72 130.618182 
L 72 135.010909 
L 72 139.403636 
L 72 143.796364 
L 72 148.189091 
L 72 152.581818 
L 72 156.974545 
L 72 161.367273 
L 72 165.76 
L 72 170.152727 
L 72 174.545455 
L 72 178.938182 
L 72 183.330909 
L 72 187.723636 
L 72 192.116364 
L 72 196.509091 
L 72 200.901818 
L 72 205.294545 
L 72 209.687273 
L 72 214.08 
L 72 218.472727 
L 72 222.865455 
L 72 227.258182 
L 72 231.650909 
L 72 236.043636 
L 72 240.436364 
L 72 244.829091 
L 72 249.221818 
L 72 253.614545 
L 72 258.007273 
L 72 262.4 
L 72 266.792727 
L 72 271.185455 
L 72 275.578182 
L 72 279.970909 
L 72 284.363636 
L 72 288.756364 
L 72 293.149091 
L 72 297.541818 
L 72 301.934545 
L 72 306.327273 
L 72 310.72 
L 72 315.112727 
L 72 319.505455 
L 72 323.898182 
L 72 328.290909 
L 72 332.683636 
L 72 337.076364 
L 72 341.469091 
L 72 345.861818 
L 72 350.254545 
L 72 354.647273 
L 72 359.04 
L 72 363.432727 
L 72 367.825455 
L 72 372.218182 
L 72 376.610909 
L 72 381.003636 
L 72 385.396364 
L 72 389.789091 
L 72 394.181818 
L 72 398.574545 
L 72 402.967273 
L 72 407.36 
L 72 411.752727 
L 72 416.145455 
L 72 420.538182 
L 72 424.930909 
L 72 429.323636 
L 72 433.716364 
L 72 438.109091 
L 72 442.501818 
L 72 444.953915 
z
" style="fill:#9c1127;fill-opacity:0.5;"/>
   </g>
   <g id="PathCollection_2">
    <path clip-path="url(#pc005c874e8)" d="M 72.313686 446.894545 
L 76.243692 442.501818 
L 76.509091 442.237864 
L 79.930863 438.109091 
L 81.018182 437.025016 
L 83.814462 433.716364 
L 85.527273 432.003227 
L 87.84621 429.323636 
L 90.036364 427.123135 
L 91.975301 424.930909 
L 94.545455 422.336026 
L 96.176071 420.538182 
L 99.054545 417.600708 
L 100.393359 416.145455 
L 103.563636 412.8684 
L 104.610443 411.752727 
L 108.072727 408.107851 
L 108.786535 407.36 
L 112.581818 403.252083 
L 112.857571 402.967273 
L 116.509422 398.574545 
L 117.090909 397.991789 
L 120.15398 394.181818 
L 121.6 392.721139 
L 123.996976 389.789091 
L 126.109091 387.639409 
L 128.002007 385.396364 
L 130.618182 382.706581 
L 132.113639 381.003636 
L 135.127273 377.858397 
L 136.260424 376.610909 
L 139.636364 373.004769 
L 140.368585 372.218182 
L 144.145455 368.067934 
L 144.376353 367.825455 
L 147.865471 363.432727 
L 148.654545 362.63687 
L 151.45884 359.04 
L 153.163636 357.310325 
L 155.336141 354.647273 
L 157.672727 352.253079 
L 159.376706 350.254545 
L 162.181818 347.308055 
L 163.448932 345.861818 
L 166.690909 342.321633 
L 167.456781 341.469091 
L 171.2 337.182838 
L 171.298804 337.076364 
L 174.32043 332.683636 
L 175.709091 331.241378 
L 177.846109 328.290909 
L 180.218182 325.77787 
L 181.709852 323.898182 
L 184.727273 320.601048 
L 185.668019 319.505455 
L 189.236364 315.416462 
L 189.512782 315.112727 
L 192.639045 310.72 
L 193.745455 309.585591 
L 196.028673 306.327273 
L 198.254545 303.997753 
L 199.855618 301.934545 
L 202.763636 298.789106 
L 203.822873 297.541818 
L 207.272727 293.411962 
L 207.504783 293.149091 
L 209.950083 288.756364 
L 211.781818 286.798142 
L 213.37129 284.363636 
L 216.290909 280.996769 
L 217.113504 279.970909 
L 219.90961 275.578182 
L 220.8 274.643013 
L 222.793077 271.185455 
L 225.309091 268.419971 
L 226.51559 266.792727 
L 229.818182 262.75693 
L 230.128961 262.4 
L 232.499362 258.007273 
L 234.327273 256.090774 
L 235.9929 253.614545 
L 238.836364 250.506231 
L 239.909787 249.221818 
L 243.345455 245.08283 
L 243.593441 244.829091 
L 247.257419 240.436364 
L 247.854545 239.830345 
L 251.892509 236.043636 
L 252.363636 235.583429 
L 256.872727 231.96483 
L 257.605802 231.650909 
L 261.381818 229.352705 
L 265.890909 228.849859 
L 270.4 228.508348 
L 274.909091 228.513145 
L 279.418182 230.340335 
L 280.90574 231.650909 
L 283.635324 236.043636 
L 283.927273 236.650559 
L 285.939503 240.436364 
L 287.759072 244.829091 
L 288.436364 246.469189 
L 289.801482 249.221818 
L 291.261956 253.614545 
L 292.198614 258.007273 
L 292.945455 261.290054 
L 293.332679 262.4 
L 294.61712 266.792727 
L 295.694833 271.185455 
L 296.627284 275.578182 
L 297.454545 279.520821 
L 297.61208 279.970909 
L 298.922946 284.363636 
L 300.080922 288.756364 
L 301.197476 293.149091 
L 301.963636 296.373449 
L 302.405341 297.541818 
L 303.877421 301.934545 
L 305.238296 306.327273 
L 306.472727 309.979945 
L 306.878272 310.72 
L 309.192609 315.112727 
L 310.981818 319.398593 
L 311.051873 319.505455 
L 313.78846 323.898182 
L 315.490909 326.730077 
L 316.688298 328.290909 
L 319.71767 332.683636 
L 320 333.042435 
L 323.398866 337.076364 
L 324.509091 338.361687 
L 327.443122 341.469091 
L 329.018182 343.057651 
L 331.826662 345.861818 
L 333.527273 347.606705 
L 336.486292 350.254545 
L 338.036364 351.578686 
L 342.320696 354.647273 
L 342.545455 354.8 
L 347.054545 357.364041 
L 349.517912 359.04 
L 351.563636 360.237925 
L 356.072727 363.139586 
L 356.495779 363.432727 
L 360.581818 365.768902 
L 365.090909 367.178476 
L 369.6 364.610078 
L 370.28423 363.432727 
L 372.534991 359.04 
L 374.109091 356.395307 
L 374.839009 354.647273 
L 376.664622 350.254545 
L 378.618182 346.752893 
L 379.00671 345.861818 
L 380.433859 341.469091 
L 381.644142 337.076364 
L 383.043305 332.683636 
L 383.127273 332.406792 
L 383.850861 328.290909 
L 384.585595 323.898182 
L 385.338453 319.505455 
L 386.041355 315.112727 
L 386.783728 310.72 
L 387.219105 306.327273 
L 387.622067 301.934545 
L 387.636364 301.583494 
L 387.71598 297.541818 
L 387.636364 293.758021 
L 387.610787 293.149091 
L 387.245772 288.756364 
L 386.621529 284.363636 
L 385.888983 279.970909 
L 385.28934 275.578182 
L 384.720018 271.185455 
L 384.16826 266.792727 
L 383.600658 262.4 
L 383.127273 259.234195 
L 382.78129 258.007273 
L 381.473159 253.614545 
L 380.476312 249.221818 
L 379.654412 244.829091 
L 378.818763 240.436364 
L 378.618182 239.679957 
L 377.170105 236.043636 
L 375.943299 231.650909 
L 375.000102 227.258182 
L 374.109091 223.541395 
L 373.794324 222.865455 
L 372.061357 218.472727 
L 370.860038 214.08 
L 369.661648 209.687273 
L 369.6 209.516982 
L 367.479389 205.294545 
L 366.02481 200.901818 
L 365.090909 198.037765 
L 364.264615 196.509091 
L 362.421351 192.116364 
L 361.021176 187.723636 
L 360.581818 186.512574 
L 358.843283 183.330909 
L 357.520113 178.938182 
L 356.761745 174.545455 
L 356.456582 170.152727 
L 356.172827 165.76 
L 356.072727 164.336963 
L 355.728426 161.367273 
L 355.724894 156.974545 
L 356.072727 154.811705 
L 356.262553 152.581818 
L 356.827022 148.189091 
L 357.450131 143.796364 
L 358.193229 139.403636 
L 359.586144 135.010909 
L 360.581818 132.878744 
L 361.157863 130.618182 
L 361.929834 126.225455 
L 362.739331 121.832727 
L 364.019757 117.44 
L 365.090909 115.008315 
L 365.553177 113.047273 
L 366.228514 108.654545 
L 366.812717 104.261818 
L 367.627659 99.869091 
L 369.120938 95.476364 
L 369.6 94.43064 
L 370.30608 91.083636 
L 370.955929 86.690909 
L 371.624319 82.298182 
L 372.894421 77.905455 
L 374.109091 75.412787 
L 374.618227 73.512727 
L 375.315202 69.12 
L 374.384939 69.12 
L 374.109091 70.820853 
L 372.621297 73.512727 
L 371.149748 77.905455 
L 370.459372 82.298182 
L 369.989184 86.690909 
L 369.6 89.298365 
L 368.594008 91.083636 
L 367.004174 95.476364 
L 366.205605 99.869091 
L 365.713089 104.261818 
L 365.244909 108.654545 
L 365.090909 109.637789 
L 363.408949 113.047273 
L 362.129894 117.44 
L 361.410876 121.832727 
L 360.840362 126.225455 
L 360.581818 127.72806 
L 359.079113 130.618182 
L 357.644055 135.010909 
L 356.857759 139.403636 
L 356.246143 143.796364 
L 356.072727 144.998785 
L 354.712193 148.189091 
L 353.700669 152.581818 
L 353.245461 156.974545 
L 353.156113 161.367273 
L 353.319846 165.76 
L 353.640002 170.152727 
L 353.996404 174.545455 
L 355.023019 178.938182 
L 356.072727 181.687795 
L 356.401054 183.330909 
L 357.97571 187.723636 
L 360.528422 192.116364 
L 360.581818 192.206309 
L 361.70042 196.509091 
L 363.46338 200.901818 
L 365.090909 203.59394 
L 365.569089 205.294545 
L 366.856342 209.687273 
L 369.024812 214.08 
L 369.6 215.093657 
L 370.294976 218.472727 
L 371.303301 222.865455 
L 372.896831 227.258182 
L 374.109091 229.671646 
L 374.476258 231.650909 
L 375.216546 236.043636 
L 376.228631 240.436364 
L 377.686219 244.829091 
L 378.618182 247.019679 
L 378.95684 249.221818 
L 379.582265 253.614545 
L 380.308818 258.007273 
L 381.10494 262.4 
L 382.189042 266.792727 
L 383.127273 269.77844 
L 383.279055 271.185455 
L 383.686605 275.578182 
L 384.058054 279.970909 
L 384.452931 284.363636 
L 384.749609 288.756364 
L 384.884902 293.149091 
L 384.922232 297.541818 
L 384.798848 301.934545 
L 384.550496 306.327273 
L 384.246163 310.72 
L 383.80553 315.112727 
L 383.355224 319.505455 
L 383.127273 321.190754 
L 382.24626 323.898182 
L 381.055032 328.290909 
L 380.163055 332.683636 
L 379.343813 337.076364 
L 378.618182 340.629253 
L 378.208454 341.469091 
L 375.895073 345.861818 
L 374.319833 350.254545 
L 374.109091 350.81408 
L 371.67382 354.647273 
L 369.827581 359.04 
L 369.6 359.512224 
L 365.090909 363.072454 
L 360.581818 362.163574 
L 356.072727 359.519725 
L 355.196378 359.04 
L 351.563636 356.485631 
L 348.106939 354.647273 
L 347.054545 353.898706 
L 342.545455 351.069333 
L 341.16702 350.254545 
L 338.036364 348.005919 
L 335.476192 345.861818 
L 333.527273 344.07523 
L 330.975299 341.469091 
L 329.018182 339.446098 
L 326.926192 337.076364 
L 324.509091 334.394989 
L 323.244817 332.683636 
L 320 328.793999 
L 319.664073 328.290909 
L 316.914397 323.898182 
L 315.490909 322.075234 
L 314.267318 319.505455 
L 311.667087 315.112727 
L 310.981818 314.085847 
L 309.781097 310.72 
L 307.877469 306.327273 
L 306.472727 303.581337 
L 306.065367 301.934545 
L 305.165146 297.541818 
L 304.045776 293.149091 
L 302.266351 288.756364 
L 301.963636 287.996676 
L 301.325918 284.363636 
L 300.591045 279.970909 
L 299.562122 275.578182 
L 298.056073 271.185455 
L 297.454545 269.604526 
L 296.983469 266.792727 
L 296.250545 262.4 
L 295.26392 258.007273 
L 293.989538 253.614545 
L 292.945455 250.751301 
L 292.634107 249.221818 
L 291.350994 244.829091 
L 289.181457 240.436364 
L 288.436364 239.155315 
L 287.30749 236.043636 
L 285.119778 231.650909 
L 283.927273 230.078497 
L 280.188751 227.258182 
L 279.418182 226.811328 
L 274.909091 225.53153 
L 270.4 226.169444 
L 265.890909 226.960173 
L 264.583578 227.258182 
L 261.381818 227.523913 
L 256.872727 229.544168 
L 254.63551 231.650909 
L 252.363636 233.358826 
L 249.615118 236.043636 
L 247.854545 237.694661 
L 245.15307 240.436364 
L 243.345455 242.747851 
L 241.315781 244.829091 
L 238.980186 249.221818 
L 238.836364 249.39391 
L 234.975357 253.614545 
L 234.327273 254.578029 
L 231.056542 258.007273 
L 229.818182 260.444949 
L 227.917112 262.4 
L 225.578332 266.792727 
L 225.309091 267.155862 
L 221.643001 271.185455 
L 220.8 272.647879 
L 218.010011 275.578182 
L 216.290909 279.431068 
L 215.768042 279.970909 
L 212.352524 284.363636 
L 211.781818 285.237755 
L 208.490485 288.756364 
L 207.272727 291.031064 
L 205.22627 293.149091 
L 202.838853 297.541818 
L 202.763636 297.630389 
L 198.784361 301.934545 
L 198.254545 302.617288 
L 194.70963 306.327273 
L 193.745455 307.703221 
L 190.803138 310.72 
L 189.236364 313.069139 
L 187.220046 315.112727 
L 184.727273 319.130151 
L 184.355463 319.505455 
L 180.613171 323.898182 
L 180.218182 324.395917 
L 176.541676 328.290909 
L 175.709091 329.440415 
L 172.586396 332.683636 
L 171.2 334.738217 
L 168.916943 337.076364 
L 166.690909 340.48054 
L 165.716304 341.469091 
L 162.397276 345.861818 
L 162.181818 346.107734 
L 158.233978 350.254545 
L 157.672727 350.912816 
L 154.028128 354.647273 
L 153.163636 355.706964 
L 149.878541 359.04 
L 148.654545 360.609933 
L 145.855811 363.432727 
L 144.145455 365.718838 
L 142.048369 367.825455 
L 139.636364 371.166101 
L 138.586242 372.218182 
L 135.23186 376.610909 
L 135.127273 376.726049 
L 131.028672 381.003636 
L 130.618182 381.471079 
L 126.800316 385.396364 
L 126.109091 386.215444 
L 122.597896 389.789091 
L 121.6 391.009744 
L 118.459761 394.181818 
L 117.090909 395.884452 
L 114.406674 398.574545 
L 112.581818 400.947289 
L 110.561229 402.967273 
L 108.072727 406.294205 
L 107.00427 407.36 
L 103.60779 411.752727 
L 103.563636 411.799785 
L 99.359564 416.145455 
L 99.054545 416.477001 
L 95.074934 420.538182 
L 94.545455 421.121962 
L 90.772808 424.930909 
L 90.036364 425.763557 
L 86.493025 429.323636 
L 85.527273 430.439588 
L 82.25112 433.716364 
L 81.018182 435.175217 
L 78.075531 438.109091 
L 76.509091 439.999185 
L 73.992766 442.501818 
L 72 444.953915 
L 72 446.894545 
L 72 447.2142 
z
" style="fill:#da6853;fill-opacity:0.5;"/>
   </g>
   <g id="PathCollection_3">
    <path clip-path="url(#pc005c874e8)" d="M 73.361572 446.894545 
L 76.509091 443.498992 
L 77.491481 442.501818 
L 81.018182 438.616931 
L 81.52185 438.109091 
L 85.377805 433.716364 
L 85.527273 433.566867 
L 89.199396 429.323636 
L 90.036364 428.482714 
L 93.177795 424.930909 
L 94.545455 423.550089 
L 97.277207 420.538182 
L 99.054545 418.724414 
L 101.427155 416.145455 
L 103.563636 413.937014 
L 105.613096 411.752727 
L 108.072727 409.163381 
L 109.794017 407.36 
L 112.581818 404.342556 
L 113.913365 402.967273 
L 117.090909 399.425845 
L 117.922168 398.574545 
L 121.6 394.374064 
L 121.789832 394.181818 
L 125.396057 389.789091 
L 126.109091 389.063375 
L 129.203697 385.396364 
L 130.618182 383.942082 
L 133.198607 381.003636 
L 135.127273 378.990746 
L 137.288989 376.610909 
L 139.636364 374.10347 
L 141.391347 372.218182 
L 144.145455 369.191806 
L 145.446549 367.825455 
L 148.654545 364.172813 
L 149.371111 363.432727 
L 153.039138 359.04 
L 153.163636 358.913685 
L 156.644155 354.647273 
L 157.672727 353.593341 
L 160.519433 350.254545 
L 162.181818 348.508376 
L 164.500587 345.861818 
L 166.690909 343.470023 
L 168.488424 341.469091 
L 171.2 338.364144 
L 172.395004 337.076364 
L 175.709091 332.955145 
L 175.966128 332.683636 
L 179.150543 328.290909 
L 180.218182 327.159823 
L 182.806532 323.898182 
L 184.727273 321.79939 
L 186.696993 319.505455 
L 189.236364 316.595571 
L 190.585851 315.112727 
L 193.745455 311.242308 
L 194.235457 310.72 
L 197.347717 306.327273 
L 198.254545 305.378218 
L 200.926874 301.934545 
L 202.763636 299.947823 
L 204.806893 297.541818 
L 207.272727 294.589943 
L 208.544671 293.149091 
L 211.409681 288.756364 
L 211.781818 288.358529 
L 214.390056 284.363636 
L 216.290909 282.171596 
L 218.055551 279.970909 
L 220.8 276.255698 
L 221.411613 275.578182 
L 223.943152 271.185455 
L 225.309091 269.68408 
L 227.452847 266.792727 
L 229.818182 263.902267 
L 231.126206 262.4 
L 233.942181 258.007273 
L 234.327273 257.603518 
L 237.010444 253.614545 
L 238.836364 251.618552 
L 240.839388 249.221818 
L 243.345455 246.202731 
L 244.687949 244.829091 
L 247.854545 241.308045 
L 248.787472 240.436364 
L 252.363636 237.028183 
L 253.570588 236.043636 
L 256.872727 233.251542 
L 260.610561 231.650909 
L 261.381818 231.181497 
L 265.890909 230.541927 
L 270.4 230.182946 
L 274.909091 230.775135 
L 276.666414 231.650909 
L 279.418182 233.789933 
L 281.061962 236.043636 
L 283.257367 240.436364 
L 283.927273 241.836917 
L 285.400372 244.829091 
L 287.275112 249.221818 
L 288.436364 251.895646 
L 289.14231 253.614545 
L 290.295829 258.007273 
L 291.367415 262.4 
L 292.408396 266.792727 
L 292.945455 268.686103 
L 293.713334 271.185455 
L 294.841447 275.578182 
L 295.840889 279.970909 
L 296.78453 284.363636 
L 297.454545 286.781786 
L 298.08759 288.756364 
L 299.46286 293.149091 
L 300.588484 297.541818 
L 301.746326 301.934545 
L 301.963636 302.511207 
L 303.448094 306.327273 
L 305.039474 310.72 
L 306.472727 313.899363 
L 307.144999 315.112727 
L 309.239098 319.505455 
L 310.981818 323.141524 
L 311.456518 323.898182 
L 314.263194 328.290909 
L 315.490909 330.038539 
L 317.498339 332.683636 
L 320 335.862871 
L 321.022453 337.076364 
L 324.509091 341.112896 
L 324.845412 341.469091 
L 329.018182 345.677626 
L 329.202657 345.861818 
L 333.487702 350.254545 
L 333.527273 350.294922 
L 338.036364 354.148876 
L 338.73222 354.647273 
L 342.545455 357.238439 
L 345.330485 359.04 
L 347.054545 360.149591 
L 351.563636 362.896206 
L 352.375584 363.432727 
L 356.072727 365.687396 
L 359.394611 367.825455 
L 360.581818 368.587089 
L 365.090909 370.140387 
L 369.6 368.390562 
L 370.011716 367.825455 
L 372.548924 363.432727 
L 374.109091 360.700288 
L 374.896143 359.04 
L 376.738431 354.647273 
L 378.618182 350.888297 
L 378.937613 350.254545 
L 380.83927 345.861818 
L 382.395833 341.469091 
L 383.127273 339.219768 
L 383.731887 337.076364 
L 384.713318 332.683636 
L 385.520351 328.290909 
L 386.37418 323.898182 
L 387.321681 319.505455 
L 387.636364 317.940157 
L 388.110691 315.112727 
L 388.665521 310.72 
L 388.922251 306.327273 
L 389.066282 301.934545 
L 389.081542 297.541818 
L 388.95863 293.149091 
L 388.767191 288.756364 
L 388.378368 284.363636 
L 387.705811 279.970909 
L 387.636364 279.577892 
L 386.892074 275.578182 
L 386.160981 271.185455 
L 385.50891 266.792727 
L 384.911726 262.4 
L 384.284273 258.007273 
L 383.314231 253.614545 
L 383.127273 252.982202 
L 381.995784 249.221818 
L 380.98583 244.829091 
L 380.119629 240.436364 
L 378.991406 236.043636 
L 378.618182 234.993226 
L 377.41034 231.650909 
L 376.282469 227.258182 
L 375.253693 222.865455 
L 374.109091 219.15011 
L 373.827738 218.472727 
L 372.288695 214.08 
L 371.038641 209.687273 
L 369.6 205.713304 
L 369.389689 205.294545 
L 367.57167 200.901818 
L 366.131856 196.509091 
L 365.090909 193.840722 
L 364.277813 192.116364 
L 362.642648 187.723636 
L 361.074844 183.330909 
L 360.581818 181.966395 
L 359.387633 178.938182 
L 358.430378 174.545455 
L 358.029184 170.152727 
L 357.733505 165.76 
L 357.429612 161.367273 
L 357.343432 156.974545 
L 357.574984 152.581818 
L 358.047875 148.189091 
L 358.65412 143.796364 
L 359.528698 139.403636 
L 360.581818 136.688677 
L 361.185855 135.010909 
L 362.217636 130.618182 
L 363.019307 126.225455 
L 364.067785 121.832727 
L 365.090909 119.021373 
L 365.610326 117.44 
L 366.564509 113.047273 
L 367.212118 108.654545 
L 367.912345 104.261818 
L 369.049713 99.869091 
L 369.6 98.404531 
L 370.461135 95.476364 
L 371.280834 91.083636 
L 371.922674 86.690909 
L 372.789266 82.298182 
L 374.109091 78.834257 
L 374.473227 77.905455 
L 375.577598 73.512727 
L 376.245465 69.12 
L 375.315202 69.12 
L 374.618227 73.512727 
L 374.109091 75.412787 
L 372.894421 77.905455 
L 371.624319 82.298182 
L 370.955929 86.690909 
L 370.30608 91.083636 
L 369.6 94.43064 
L 369.120938 95.476364 
L 367.627659 99.869091 
L 366.812717 104.261818 
L 366.228514 108.654545 
L 365.553177 113.047273 
L 365.090909 115.008315 
L 364.019757 117.44 
L 362.739331 121.832727 
L 361.929834 126.225455 
L 361.157863 130.618182 
L 360.581818 132.878744 
L 359.586144 135.010909 
L 358.193229 139.403636 
L 357.450131 143.796364 
L 356.827022 148.189091 
L 356.262553 152.581818 
L 356.072727 154.811705 
L 355.724894 156.974545 
L 355.728426 161.367273 
L 356.072727 164.336963 
L 356.172827 165.76 
L 356.456582 170.152727 
L 356.761745 174.545455 
L 357.520113 178.938182 
L 358.843283 183.330909 
L 360.581818 186.512574 
L 361.021176 187.723636 
L 362.421351 192.116364 
L 364.264615 196.509091 
L 365.090909 198.037765 
L 366.02481 200.901818 
L 367.479389 205.294545 
L 369.6 209.516982 
L 369.661648 209.687273 
L 370.860038 214.08 
L 372.061357 218.472727 
L 373.794324 222.865455 
L 374.109091 223.541395 
L 375.000102 227.258182 
L 375.943299 231.650909 
L 377.170105 236.043636 
L 378.618182 239.679957 
L 378.818763 240.436364 
L 379.654412 244.829091 
L 380.476312 249.221818 
L 381.473159 253.614545 
L 382.78129 258.007273 
L 383.127273 259.234195 
L 383.600658 262.4 
L 384.16826 266.792727 
L 384.720018 271.185455 
L 385.28934 275.578182 
L 385.888983 279.970909 
L 386.621529 284.363636 
L 387.245772 288.756364 
L 387.610787 293.149091 
L 387.636364 293.758021 
L 387.71598 297.541818 
L 387.636364 301.583494 
L 387.622067 301.934545 
L 387.219105 306.327273 
L 386.783728 310.72 
L 386.041355 315.112727 
L 385.338453 319.505455 
L 384.585595 323.898182 
L 383.850861 328.290909 
L 383.127273 332.406792 
L 383.043305 332.683636 
L 381.644142 337.076364 
L 380.433859 341.469091 
L 379.00671 345.861818 
L 378.618182 346.752893 
L 376.664622 350.254545 
L 374.839009 354.647273 
L 374.109091 356.395307 
L 372.534991 359.04 
L 370.28423 363.432727 
L 369.6 364.610078 
L 365.090909 367.178476 
L 360.581818 365.768902 
L 356.495779 363.432727 
L 356.072727 363.139586 
L 351.563636 360.237925 
L 349.517912 359.04 
L 347.054545 357.364041 
L 342.545455 354.8 
L 342.320696 354.647273 
L 338.036364 351.578686 
L 336.486292 350.254545 
L 333.527273 347.606705 
L 331.826662 345.861818 
L 329.018182 343.057651 
L 327.443122 341.469091 
L 324.509091 338.361687 
L 323.398866 337.076364 
L 320 333.042435 
L 319.71767 332.683636 
L 316.688298 328.290909 
L 315.490909 326.730077 
L 313.78846 323.898182 
L 311.051873 319.505455 
L 310.981818 319.398593 
L 309.192609 315.112727 
L 306.878272 310.72 
L 306.472727 309.979945 
L 305.238296 306.327273 
L 303.877421 301.934545 
L 302.405341 297.541818 
L 301.963636 296.373449 
L 301.197476 293.149091 
L 300.080922 288.756364 
L 298.922946 284.363636 
L 297.61208 279.970909 
L 297.454545 279.520821 
L 296.627284 275.578182 
L 295.694833 271.185455 
L 294.61712 266.792727 
L 293.332679 262.4 
L 292.945455 261.290054 
L 292.198614 258.007273 
L 291.261956 253.614545 
L 289.801482 249.221818 
L 288.436364 246.469189 
L 287.759072 244.829091 
L 285.939503 240.436364 
L 283.927273 236.650559 
L 283.635324 236.043636 
L 280.90574 231.650909 
L 279.418182 230.340335 
L 274.909091 228.513145 
L 270.4 228.508348 
L 265.890909 228.849859 
L 261.381818 229.352705 
L 257.605802 231.650909 
L 256.872727 231.96483 
L 252.363636 235.583429 
L 251.892509 236.043636 
L 247.854545 239.830345 
L 247.257419 240.436364 
L 243.593441 244.829091 
L 243.345455 245.08283 
L 239.909787 249.221818 
L 238.836364 250.506231 
L 235.9929 253.614545 
L 234.327273 256.090774 
L 232.499362 258.007273 
L 230.128961 262.4 
L 229.818182 262.75693 
L 226.51559 266.792727 
L 225.309091 268.419971 
L 222.793077 271.185455 
L 220.8 274.643013 
L 219.90961 275.578182 
L 217.113504 279.970909 
L 216.290909 280.996769 
L 213.37129 284.363636 
L 211.781818 286.798142 
L 209.950083 288.756364 
L 207.504783 293.149091 
L 207.272727 293.411962 
L 203.822873 297.541818 
L 202.763636 298.789106 
L 199.855618 301.934545 
L 198.254545 303.997753 
L 196.028673 306.327273 
L 193.745455 309.585591 
L 192.639045 310.72 
L 189.512782 315.112727 
L 189.236364 315.416462 
L 185.668019 319.505455 
L 184.727273 320.601048 
L 181.709852 323.898182 
L 180.218182 325.77787 
L 177.846109 328.290909 
L 175.709091 331.241378 
L 174.32043 332.683636 
L 171.298804 337.076364 
L 171.2 337.182838 
L 167.456781 341.469091 
L 166.690909 342.321633 
L 163.448932 345.861818 
L 162.181818 347.308055 
L 159.376706 350.254545 
L 157.672727 352.253079 
L 155.336141 354.647273 
L 153.163636 357.310325 
L 151.45884 359.04 
L 148.654545 362.63687 
L 147.865471 363.432727 
L 144.376353 367.825455 
L 144.145455 368.067934 
L 140.368585 372.218182 
L 139.636364 373.004769 
L 136.260424 376.610909 
L 135.127273 377.858397 
L 132.113639 381.003636 
L 130.618182 382.706581 
L 128.002007 385.396364 
L 126.109091 387.639409 
L 123.996976 389.789091 
L 121.6 392.721139 
L 120.15398 394.181818 
L 117.090909 397.991789 
L 116.509422 398.574545 
L 112.857571 402.967273 
L 112.581818 403.252083 
L 108.786535 407.36 
L 108.072727 408.107851 
L 104.610443 411.752727 
L 103.563636 412.8684 
L 100.393359 416.145455 
L 99.054545 417.600708 
L 96.176071 420.538182 
L 94.545455 422.336026 
L 91.975301 424.930909 
L 90.036364 427.123135 
L 87.84621 429.323636 
L 85.527273 432.003227 
L 83.814462 433.716364 
L 81.018182 437.025016 
L 79.930863 438.109091 
L 76.509091 442.237864 
L 76.243692 442.501818 
L 72.313686 446.894545 
L 72 447.2142 
L 72 448.282026 
z
" style="fill:#f9c4a9;fill-opacity:0.5;"/>
   </g>
   <g id="PathCollection_4">
    <path clip-path="url(#pc005c874e8)" d="M 74.409459 446.894545 
L 76.509091 444.629455 
L 78.605184 442.501818 
L 81.018182 439.843746 
L 82.738589 438.109091 
L 85.527273 434.959275 
L 86.765756 433.716364 
L 90.036364 429.928641 
L 90.641513 429.323636 
L 94.380288 424.930909 
L 94.545455 424.764153 
L 98.378344 420.538182 
L 99.054545 419.848121 
L 102.46095 416.145455 
L 103.563636 415.005628 
L 106.615749 411.752727 
L 108.072727 410.218912 
L 110.8015 407.36 
L 112.581818 405.433029 
L 114.969159 402.967273 
L 117.090909 400.602545 
L 119.071168 398.574545 
L 121.6 395.686346 
L 123.085636 394.181818 
L 126.109091 390.551941 
L 126.865879 389.789091 
L 130.405388 385.396364 
L 130.618182 385.177583 
L 134.283575 381.003636 
L 135.127273 380.123094 
L 138.317553 376.610909 
L 139.636364 375.202171 
L 142.41411 372.218182 
L 144.145455 370.315678 
L 146.516744 367.825455 
L 148.654545 365.391343 
L 150.550917 363.432727 
L 153.163636 360.330491 
L 154.427861 359.04 
L 157.672727 355.011279 
L 158.032186 354.647273 
L 161.66216 350.254545 
L 162.181818 349.708696 
L 165.552243 345.861818 
L 166.690909 344.618413 
L 169.520068 341.469091 
L 171.2 339.545449 
L 173.491205 337.076364 
L 175.709091 334.318321 
L 177.256641 332.683636 
L 180.218182 328.612917 
L 180.528058 328.290909 
L 183.903213 323.898182 
L 184.727273 322.997733 
L 187.725967 319.505455 
L 189.236364 317.77468 
L 191.65892 315.112727 
L 193.745455 312.556785 
L 195.468633 310.72 
L 198.254545 306.861083 
L 198.764257 306.327273 
L 201.99813 301.934545 
L 202.763636 301.106541 
L 205.790913 297.541818 
L 207.272727 295.767923 
L 209.58456 293.149091 
L 211.781818 289.901481 
L 212.835219 288.756364 
L 215.408821 284.363636 
L 216.290909 283.346424 
L 218.997597 279.970909 
L 220.8 277.530964 
L 222.562829 275.578182 
L 225.093228 271.185455 
L 225.309091 270.948188 
L 228.390104 266.792727 
L 229.818182 265.047603 
L 232.123452 262.4 
L 234.327273 259.101494 
L 235.352377 258.007273 
L 238.027987 253.614545 
L 238.836364 252.730873 
L 241.768989 249.221818 
L 243.345455 247.322632 
L 245.782457 244.829091 
L 247.854545 242.525066 
L 250.090002 240.436364 
L 252.363636 238.26953 
L 255.09235 236.043636 
L 256.872727 234.538254 
L 261.381818 232.96048 
L 265.890909 232.322939 
L 270.4 231.954008 
L 274.909091 233.339071 
L 278.205383 236.043636 
L 279.418182 237.574475 
L 280.965754 240.436364 
L 282.950855 244.829091 
L 283.927273 246.726922 
L 285.03363 249.221818 
L 286.848985 253.614545 
L 288.378514 258.007273 
L 288.436364 258.165096 
L 289.547913 262.4 
L 290.578976 266.792727 
L 291.71856 271.185455 
L 292.945455 275.176263 
L 293.05561 275.578182 
L 294.137134 279.970909 
L 295.061786 284.363636 
L 296.150845 288.756364 
L 297.454545 292.324161 
L 297.728243 293.149091 
L 298.951301 297.541818 
L 300.012081 301.934545 
L 301.599365 306.327273 
L 301.963636 307.064938 
L 303.373468 310.72 
L 305.179826 315.112727 
L 306.472727 317.522324 
L 307.457563 319.505455 
L 309.417957 323.898182 
L 310.981818 326.408374 
L 312.208858 328.290909 
L 315.246798 332.683636 
L 315.490909 332.991261 
L 318.602014 337.076364 
L 320 338.629005 
L 322.456876 341.469091 
L 324.509091 343.591669 
L 326.765281 345.861818 
L 329.018182 348.135913 
L 331.092641 350.254545 
L 333.527273 352.738783 
L 335.746084 354.647273 
L 338.036364 356.61062 
L 341.609741 359.04 
L 342.545455 359.75229 
L 347.054545 362.575658 
L 348.437981 363.432727 
L 351.563636 365.471366 
L 355.520944 367.825455 
L 356.072727 368.196916 
L 360.581818 371.032453 
L 363.557319 372.218182 
L 365.090909 372.961931 
L 367.685001 372.218182 
L 369.6 371.62201 
L 372.366028 367.825455 
L 374.109091 364.732384 
L 374.813048 363.432727 
L 376.776365 359.04 
L 378.618182 354.693227 
L 378.6434 354.647273 
L 380.852086 350.254545 
L 382.67183 345.861818 
L 383.127273 344.615169 
L 384.342423 341.469091 
L 385.433815 337.076364 
L 386.346989 332.683636 
L 387.189842 328.290909 
L 387.636364 326.199528 
L 388.250604 323.898182 
L 389.175177 319.505455 
L 389.765635 315.112727 
L 390.215468 310.72 
L 390.446461 306.327273 
L 390.503478 301.934545 
L 390.447104 297.541818 
L 390.29342 293.149091 
L 390.107791 288.756364 
L 389.773028 284.363636 
L 389.227742 279.970909 
L 388.554135 275.578182 
L 387.636364 271.372994 
L 387.601944 271.185455 
L 386.849561 266.792727 
L 386.222794 262.4 
L 385.629518 258.007273 
L 384.807253 253.614545 
L 383.597209 249.221818 
L 383.127273 247.923219 
L 382.317249 244.829091 
L 381.420496 240.436364 
L 380.433822 236.043636 
L 378.94977 231.650909 
L 378.618182 230.87331 
L 377.564837 227.258182 
L 376.563846 222.865455 
L 375.41975 218.472727 
L 374.109091 215.160337 
L 373.717352 214.08 
L 372.415634 209.687273 
L 371.051556 205.294545 
L 369.6 202.040101 
L 369.11853 200.901818 
L 367.667726 196.509091 
L 366.128552 192.116364 
L 365.090909 189.813211 
L 364.264119 187.723636 
L 362.785932 183.330909 
L 361.297765 178.938182 
L 360.581818 176.501166 
L 360.099011 174.545455 
L 359.601786 170.152727 
L 359.294184 165.76 
L 358.99618 161.367273 
L 358.821489 156.974545 
L 358.887416 152.581818 
L 359.268727 148.189091 
L 359.858108 143.796364 
L 360.581818 140.546657 
L 360.955492 139.403636 
L 362.425368 135.010909 
L 363.277409 130.618182 
L 364.108779 126.225455 
L 365.090909 122.72516 
L 365.470759 121.832727 
L 366.809316 117.44 
L 367.575841 113.047273 
L 368.195722 108.654545 
L 369.011973 104.261818 
L 369.6 102.215253 
L 370.493848 99.869091 
L 371.574169 95.476364 
L 372.255588 91.083636 
L 372.889419 86.690909 
L 373.954214 82.298182 
L 374.109091 81.891701 
L 375.671897 77.905455 
L 376.53697 73.512727 
L 377.175727 69.12 
L 376.245465 69.12 
L 375.577598 73.512727 
L 374.473227 77.905455 
L 374.109091 78.834257 
L 372.789266 82.298182 
L 371.922674 86.690909 
L 371.280834 91.083636 
L 370.461135 95.476364 
L 369.6 98.404531 
L 369.049713 99.869091 
L 367.912345 104.261818 
L 367.212118 108.654545 
L 366.564509 113.047273 
L 365.610326 117.44 
L 365.090909 119.021373 
L 364.067785 121.832727 
L 363.019307 126.225455 
L 362.217636 130.618182 
L 361.185855 135.010909 
L 360.581818 136.688677 
L 359.528698 139.403636 
L 358.65412 143.796364 
L 358.047875 148.189091 
L 357.574984 152.581818 
L 357.343432 156.974545 
L 357.429612 161.367273 
L 357.733505 165.76 
L 358.029184 170.152727 
L 358.430378 174.545455 
L 359.387633 178.938182 
L 360.581818 181.966395 
L 361.074844 183.330909 
L 362.642648 187.723636 
L 364.277813 192.116364 
L 365.090909 193.840722 
L 366.131856 196.509091 
L 367.57167 200.901818 
L 369.389689 205.294545 
L 369.6 205.713304 
L 371.038641 209.687273 
L 372.288695 214.08 
L 373.827738 218.472727 
L 374.109091 219.15011 
L 375.253693 222.865455 
L 376.282469 227.258182 
L 377.41034 231.650909 
L 378.618182 234.993226 
L 378.991406 236.043636 
L 380.119629 240.436364 
L 380.98583 244.829091 
L 381.995784 249.221818 
L 383.127273 252.982202 
L 383.314231 253.614545 
L 384.284273 258.007273 
L 384.911726 262.4 
L 385.50891 266.792727 
L 386.160981 271.185455 
L 386.892074 275.578182 
L 387.636364 279.577892 
L 387.705811 279.970909 
L 388.378368 284.363636 
L 388.767191 288.756364 
L 388.95863 293.149091 
L 389.081542 297.541818 
L 389.066282 301.934545 
L 388.922251 306.327273 
L 388.665521 310.72 
L 388.110691 315.112727 
L 387.636364 317.940157 
L 387.321681 319.505455 
L 386.37418 323.898182 
L 385.520351 328.290909 
L 384.713318 332.683636 
L 383.731887 337.076364 
L 383.127273 339.219768 
L 382.395833 341.469091 
L 380.83927 345.861818 
L 378.937613 350.254545 
L 378.618182 350.888297 
L 376.738431 354.647273 
L 374.896143 359.04 
L 374.109091 360.700288 
L 372.548924 363.432727 
L 370.011716 367.825455 
L 369.6 368.390562 
L 365.090909 370.140387 
L 360.581818 368.587089 
L 359.394611 367.825455 
L 356.072727 365.687396 
L 352.375584 363.432727 
L 351.563636 362.896206 
L 347.054545 360.149591 
L 345.330485 359.04 
L 342.545455 357.238439 
L 338.73222 354.647273 
L 338.036364 354.148876 
L 333.527273 350.294922 
L 333.487702 350.254545 
L 329.202657 345.861818 
L 329.018182 345.677626 
L 324.845412 341.469091 
L 324.509091 341.112896 
L 321.022453 337.076364 
L 320 335.862871 
L 317.498339 332.683636 
L 315.490909 330.038539 
L 314.263194 328.290909 
L 311.456518 323.898182 
L 310.981818 323.141524 
L 309.239098 319.505455 
L 307.144999 315.112727 
L 306.472727 313.899363 
L 305.039474 310.72 
L 303.448094 306.327273 
L 301.963636 302.511207 
L 301.746326 301.934545 
L 300.588484 297.541818 
L 299.46286 293.149091 
L 298.08759 288.756364 
L 297.454545 286.781786 
L 296.78453 284.363636 
L 295.840889 279.970909 
L 294.841447 275.578182 
L 293.713334 271.185455 
L 292.945455 268.686103 
L 292.408396 266.792727 
L 291.367415 262.4 
L 290.295829 258.007273 
L 289.14231 253.614545 
L 288.436364 251.895646 
L 287.275112 249.221818 
L 285.400372 244.829091 
L 283.927273 241.836917 
L 283.257367 240.436364 
L 281.061962 236.043636 
L 279.418182 233.789933 
L 276.666414 231.650909 
L 274.909091 230.775135 
L 270.4 230.182946 
L 265.890909 230.541927 
L 261.381818 231.181497 
L 260.610561 231.650909 
L 256.872727 233.251542 
L 253.570588 236.043636 
L 252.363636 237.028183 
L 248.787472 240.436364 
L 247.854545 241.308045 
L 244.687949 244.829091 
L 243.345455 246.202731 
L 240.839388 249.221818 
L 238.836364 251.618552 
L 237.010444 253.614545 
L 234.327273 257.603518 
L 233.942181 258.007273 
L 231.126206 262.4 
L 229.818182 263.902267 
L 227.452847 266.792727 
L 225.309091 269.68408 
L 223.943152 271.185455 
L 221.411613 275.578182 
L 220.8 276.255698 
L 218.055551 279.970909 
L 216.290909 282.171596 
L 214.390056 284.363636 
L 211.781818 288.358529 
L 211.409681 288.756364 
L 208.544671 293.149091 
L 207.272727 294.589943 
L 204.806893 297.541818 
L 202.763636 299.947823 
L 200.926874 301.934545 
L 198.254545 305.378218 
L 197.347717 306.327273 
L 194.235457 310.72 
L 193.745455 311.242308 
L 190.585851 315.112727 
L 189.236364 316.595571 
L 186.696993 319.505455 
L 184.727273 321.79939 
L 182.806532 323.898182 
L 180.218182 327.159823 
L 179.150543 328.290909 
L 175.966128 332.683636 
L 175.709091 332.955145 
L 172.395004 337.076364 
L 171.2 338.364144 
L 168.488424 341.469091 
L 166.690909 343.470023 
L 164.500587 345.861818 
L 162.181818 348.508376 
L 160.519433 350.254545 
L 157.672727 353.593341 
L 156.644155 354.647273 
L 153.163636 358.913685 
L 153.039138 359.04 
L 149.371111 363.432727 
L 148.654545 364.172813 
L 145.446549 367.825455 
L 144.145455 369.191806 
L 141.391347 372.218182 
L 139.636364 374.10347 
L 137.288989 376.610909 
L 135.127273 378.990746 
L 133.198607 381.003636 
L 130.618182 383.942082 
L 129.203697 385.396364 
L 126.109091 389.063375 
L 125.396057 389.789091 
L 121.789832 394.181818 
L 121.6 394.374064 
L 117.922168 398.574545 
L 117.090909 399.425845 
L 113.913365 402.967273 
L 112.581818 404.342556 
L 109.794017 407.36 
L 108.072727 409.163381 
L 105.613096 411.752727 
L 103.563636 413.937014 
L 101.427155 416.145455 
L 99.054545 418.724414 
L 97.277207 420.538182 
L 94.545455 423.550089 
L 93.177795 424.930909 
L 90.036364 428.482714 
L 89.199396 429.323636 
L 85.527273 433.566867 
L 85.377805 433.716364 
L 81.52185 438.109091 
L 81.018182 438.616931 
L 77.491481 442.501818 
L 76.509091 443.498992 
L 73.361572 446.894545 
L 72 448.282026 
L 72 449.349851 
z
" style="fill:#f6f7f7;fill-opacity:0.5;"/>
   </g>
   <g id="PathCollection_5">
    <path clip-path="url(#pc005c874e8)" d="M 75.457345 446.894545 
L 76.509091 445.759918 
L 79.718887 442.501818 
L 81.018182 441.070561 
L 83.955328 438.109091 
L 85.527273 436.333581 
L 88.135165 433.716364 
L 90.036364 431.514567 
L 92.227819 429.323636 
L 94.545455 426.561677 
L 96.180674 424.930909 
L 99.054545 421.429447 
L 99.950187 420.538182 
L 103.494745 416.145455 
L 103.563636 416.074243 
L 107.618402 411.752727 
L 108.072727 411.274442 
L 111.808982 407.36 
L 112.581818 406.523502 
L 116.024953 402.967273 
L 117.090909 401.779246 
L 120.220168 398.574545 
L 121.6 396.998628 
L 124.381441 394.181818 
L 126.109091 392.107648 
L 128.409226 389.789091 
L 130.618182 386.99998 
L 132.209561 385.396364 
L 135.127273 381.567902 
L 135.689452 381.003636 
L 139.346118 376.610909 
L 139.636364 376.300872 
L 143.436873 372.218182 
L 144.145455 371.43955 
L 147.58694 367.825455 
L 148.654545 366.609873 
L 151.730722 363.432727 
L 153.163636 361.731344 
L 155.8002 359.04 
L 157.672727 356.715131 
L 159.71475 354.647273 
L 162.181818 351.445259 
L 163.364183 350.254545 
L 166.603898 345.861818 
L 166.690909 345.766804 
L 170.551712 341.469091 
L 171.2 340.726755 
L 174.587406 337.076364 
L 175.709091 335.681497 
L 178.547155 332.683636 
L 180.218182 330.386764 
L 182.235076 328.290909 
L 184.727273 324.537304 
L 185.349392 323.898182 
L 188.754941 319.505455 
L 189.236364 318.953789 
L 192.731989 315.112727 
L 193.745455 313.871263 
L 196.701809 310.72 
L 198.254545 308.569221 
L 200.395282 306.327273 
L 202.763636 302.656132 
L 203.462457 301.934545 
L 206.774933 297.541818 
L 207.272727 296.945903 
L 210.624449 293.149091 
L 211.781818 291.438466 
L 214.249102 288.756364 
L 216.290909 284.737038 
L 216.64223 284.363636 
L 219.939644 279.970909 
L 220.8 278.80623 
L 223.714046 275.578182 
L 225.309091 272.808978 
L 226.848931 271.185455 
L 229.327361 266.792727 
L 229.818182 266.19294 
L 233.120697 262.4 
L 234.327273 260.594093 
L 236.750696 258.007273 
L 238.836364 254.146607 
L 239.354011 253.614545 
L 242.698589 249.221818 
L 243.345455 248.442532 
L 246.876966 244.829091 
L 247.854545 243.742087 
L 251.392533 240.436364 
L 252.363636 239.510876 
L 256.614111 236.043636 
L 256.872727 235.824965 
L 261.381818 234.722263 
L 265.890909 234.273116 
L 270.4 234.410359 
L 274.788961 236.043636 
L 274.909091 236.141388 
L 278.116056 240.436364 
L 279.418182 242.524252 
L 280.350275 244.829091 
L 282.247968 249.221818 
L 283.927273 252.252546 
L 284.468931 253.614545 
L 285.837573 258.007273 
L 287.234528 262.4 
L 288.436364 265.450517 
L 288.749557 266.792727 
L 289.715387 271.185455 
L 290.731785 275.578182 
L 292.040738 279.970909 
L 292.945455 282.466583 
L 293.339041 284.363636 
L 294.240434 288.756364 
L 295.446703 293.149091 
L 297.173753 297.541818 
L 297.454545 298.214037 
L 298.277836 301.934545 
L 299.466474 306.327273 
L 301.480682 310.72 
L 301.963636 311.539104 
L 303.254949 315.112727 
L 305.232323 319.505455 
L 306.472727 321.579528 
L 307.454383 323.898182 
L 309.80143 328.290909 
L 310.981818 329.942797 
L 312.690131 332.683636 
L 315.490909 336.213124 
L 316.148329 337.076364 
L 320 341.354132 
L 320.099448 341.469091 
L 324.228907 345.861818 
L 324.509091 346.146679 
L 328.483131 350.254545 
L 329.018182 350.792079 
L 332.689524 354.647273 
L 333.527273 355.491738 
L 338.023778 359.04 
L 338.036364 359.050797 
L 342.545455 362.479467 
L 344.127475 363.432727 
L 347.054545 365.577157 
L 351.096707 367.825455 
L 351.563636 368.15277 
L 356.072727 371.087376 
L 358.019087 372.218182 
L 360.581818 374.013041 
L 365.090909 375.937949 
L 369.6 375.225477 
L 372.289351 372.218182 
L 374.109091 369.230956 
L 374.955609 367.825455 
L 377.075911 363.432727 
L 378.618182 359.167815 
L 378.692122 359.04 
L 381.078492 354.647273 
L 382.766558 350.254545 
L 383.127273 349.373956 
L 385.018139 345.861818 
L 386.279868 341.469091 
L 387.135742 337.076364 
L 387.636364 334.517204 
L 388.286957 332.683636 
L 389.455956 328.290909 
L 390.337643 323.898182 
L 391.004206 319.505455 
L 391.420578 315.112727 
L 391.765415 310.72 
L 391.97067 306.327273 
L 391.940674 301.934545 
L 391.812665 297.541818 
L 391.62821 293.149091 
L 391.448392 288.756364 
L 391.167689 284.363636 
L 390.749673 279.970909 
L 390.267632 275.578182 
L 389.615467 271.185455 
L 388.678181 266.792727 
L 387.636364 263.099024 
L 387.533862 262.4 
L 386.974764 258.007273 
L 386.300275 253.614545 
L 385.437636 249.221818 
L 384.120702 244.829091 
L 383.127273 242.384333 
L 382.721362 240.436364 
L 381.876239 236.043636 
L 380.826528 231.650909 
L 379.117292 227.258182 
L 378.618182 226.20741 
L 377.874 222.865455 
L 376.978725 218.472727 
L 375.696655 214.08 
L 374.109091 210.743702 
L 373.792627 209.687273 
L 372.682689 205.294545 
L 371.19531 200.901818 
L 369.6 197.706493 
L 369.203597 196.509091 
L 367.97483 192.116364 
L 366.357844 187.723636 
L 365.090909 185.152068 
L 364.497019 183.330909 
L 363.283471 178.938182 
L 362.309387 174.545455 
L 361.609066 170.152727 
L 361.1086 165.76 
L 360.581818 161.653034 
L 360.562748 161.367273 
L 360.299546 156.974545 
L 360.199848 152.581818 
L 360.489579 148.189091 
L 360.581818 147.489592 
L 361.564231 143.796364 
L 362.722914 139.403636 
L 363.664881 135.010909 
L 364.337181 130.618182 
L 365.090909 126.759949 
L 365.354618 126.225455 
L 367.123437 121.832727 
L 368.008306 117.44 
L 368.587173 113.047273 
L 369.179326 108.654545 
L 369.6 106.550574 
L 370.626673 104.261818 
L 371.951921 99.869091 
L 372.687204 95.476364 
L 373.230342 91.083636 
L 373.856165 86.690909 
L 374.109091 85.672679 
L 375.712815 82.298182 
L 376.870566 77.905455 
L 377.496341 73.512727 
L 378.10599 69.12 
L 377.175727 69.12 
L 376.53697 73.512727 
L 375.671897 77.905455 
L 374.109091 81.891701 
L 373.954214 82.298182 
L 372.889419 86.690909 
L 372.255588 91.083636 
L 371.574169 95.476364 
L 370.493848 99.869091 
L 369.6 102.215253 
L 369.011973 104.261818 
L 368.195722 108.654545 
L 367.575841 113.047273 
L 366.809316 117.44 
L 365.470759 121.832727 
L 365.090909 122.72516 
L 364.108779 126.225455 
L 363.277409 130.618182 
L 362.425368 135.010909 
L 360.955492 139.403636 
L 360.581818 140.546657 
L 359.858108 143.796364 
L 359.268727 148.189091 
L 358.887416 152.581818 
L 358.821489 156.974545 
L 358.99618 161.367273 
L 359.294184 165.76 
L 359.601786 170.152727 
L 360.099011 174.545455 
L 360.581818 176.501166 
L 361.297765 178.938182 
L 362.785932 183.330909 
L 364.264119 187.723636 
L 365.090909 189.813211 
L 366.128552 192.116364 
L 367.667726 196.509091 
L 369.11853 200.901818 
L 369.6 202.040101 
L 371.051556 205.294545 
L 372.415634 209.687273 
L 373.717352 214.08 
L 374.109091 215.160337 
L 375.41975 218.472727 
L 376.563846 222.865455 
L 377.564837 227.258182 
L 378.618182 230.87331 
L 378.94977 231.650909 
L 380.433822 236.043636 
L 381.420496 240.436364 
L 382.317249 244.829091 
L 383.127273 247.923219 
L 383.597209 249.221818 
L 384.807253 253.614545 
L 385.629518 258.007273 
L 386.222794 262.4 
L 386.849561 266.792727 
L 387.601944 271.185455 
L 387.636364 271.372994 
L 388.554135 275.578182 
L 389.227742 279.970909 
L 389.773028 284.363636 
L 390.107791 288.756364 
L 390.29342 293.149091 
L 390.447104 297.541818 
L 390.503478 301.934545 
L 390.446461 306.327273 
L 390.215468 310.72 
L 389.765635 315.112727 
L 389.175177 319.505455 
L 388.250604 323.898182 
L 387.636364 326.199528 
L 387.189842 328.290909 
L 386.346989 332.683636 
L 385.433815 337.076364 
L 384.342423 341.469091 
L 383.127273 344.615169 
L 382.67183 345.861818 
L 380.852086 350.254545 
L 378.6434 354.647273 
L 378.618182 354.693227 
L 376.776365 359.04 
L 374.813048 363.432727 
L 374.109091 364.732384 
L 372.366028 367.825455 
L 369.6 371.62201 
L 367.685001 372.218182 
L 365.090909 372.961931 
L 363.557319 372.218182 
L 360.581818 371.032453 
L 356.072727 368.196916 
L 355.520944 367.825455 
L 351.563636 365.471366 
L 348.437981 363.432727 
L 347.054545 362.575658 
L 342.545455 359.75229 
L 341.609741 359.04 
L 338.036364 356.61062 
L 335.746084 354.647273 
L 333.527273 352.738783 
L 331.092641 350.254545 
L 329.018182 348.135913 
L 326.765281 345.861818 
L 324.509091 343.591669 
L 322.456876 341.469091 
L 320 338.629005 
L 318.602014 337.076364 
L 315.490909 332.991261 
L 315.246798 332.683636 
L 312.208858 328.290909 
L 310.981818 326.408374 
L 309.417957 323.898182 
L 307.457563 319.505455 
L 306.472727 317.522324 
L 305.179826 315.112727 
L 303.373468 310.72 
L 301.963636 307.064938 
L 301.599365 306.327273 
L 300.012081 301.934545 
L 298.951301 297.541818 
L 297.728243 293.149091 
L 297.454545 292.324161 
L 296.150845 288.756364 
L 295.061786 284.363636 
L 294.137134 279.970909 
L 293.05561 275.578182 
L 292.945455 275.176263 
L 291.71856 271.185455 
L 290.578976 266.792727 
L 289.547913 262.4 
L 288.436364 258.165096 
L 288.378514 258.007273 
L 286.848985 253.614545 
L 285.03363 249.221818 
L 283.927273 246.726922 
L 282.950855 244.829091 
L 280.965754 240.436364 
L 279.418182 237.574475 
L 278.205383 236.043636 
L 274.909091 233.339071 
L 270.4 231.954008 
L 265.890909 232.322939 
L 261.381818 232.96048 
L 256.872727 234.538254 
L 255.09235 236.043636 
L 252.363636 238.26953 
L 250.090002 240.436364 
L 247.854545 242.525066 
L 245.782457 244.829091 
L 243.345455 247.322632 
L 241.768989 249.221818 
L 238.836364 252.730873 
L 238.027987 253.614545 
L 235.352377 258.007273 
L 234.327273 259.101494 
L 232.123452 262.4 
L 229.818182 265.047603 
L 228.390104 266.792727 
L 225.309091 270.948188 
L 225.093228 271.185455 
L 222.562829 275.578182 
L 220.8 277.530964 
L 218.997597 279.970909 
L 216.290909 283.346424 
L 215.408821 284.363636 
L 212.835219 288.756364 
L 211.781818 289.901481 
L 209.58456 293.149091 
L 207.272727 295.767923 
L 205.790913 297.541818 
L 202.763636 301.106541 
L 201.99813 301.934545 
L 198.764257 306.327273 
L 198.254545 306.861083 
L 195.468633 310.72 
L 193.745455 312.556785 
L 191.65892 315.112727 
L 189.236364 317.77468 
L 187.725967 319.505455 
L 184.727273 322.997733 
L 183.903213 323.898182 
L 180.528058 328.290909 
L 180.218182 328.612917 
L 177.256641 332.683636 
L 175.709091 334.318321 
L 173.491205 337.076364 
L 171.2 339.545449 
L 169.520068 341.469091 
L 166.690909 344.618413 
L 165.552243 345.861818 
L 162.181818 349.708696 
L 161.66216 350.254545 
L 158.032186 354.647273 
L 157.672727 355.011279 
L 154.427861 359.04 
L 153.163636 360.330491 
L 150.550917 363.432727 
L 148.654545 365.391343 
L 146.516744 367.825455 
L 144.145455 370.315678 
L 142.41411 372.218182 
L 139.636364 375.202171 
L 138.317553 376.610909 
L 135.127273 380.123094 
L 134.283575 381.003636 
L 130.618182 385.177583 
L 130.405388 385.396364 
L 126.865879 389.789091 
L 126.109091 390.551941 
L 123.085636 394.181818 
L 121.6 395.686346 
L 119.071168 398.574545 
L 117.090909 400.602545 
L 114.969159 402.967273 
L 112.581818 405.433029 
L 110.8015 407.36 
L 108.072727 410.218912 
L 106.615749 411.752727 
L 103.563636 415.005628 
L 102.46095 416.145455 
L 99.054545 419.848121 
L 98.378344 420.538182 
L 94.545455 424.764153 
L 94.380288 424.930909 
L 90.641513 429.323636 
L 90.036364 429.928641 
L 86.765756 433.716364 
L 85.527273 434.959275 
L 82.738589 438.109091 
L 81.018182 439.843746 
L 78.605184 442.501818 
L 76.509091 444.629455 
L 74.409459 446.894545 
L 72 449.349851 
L 72 450.417676 
z
" style="fill:#b6d7e8;fill-opacity:0.5;"/>
   </g>
   <g id="PathCollection_6">
    <path clip-path="url(#pc005c874e8)" d="M 73.026562 451.287273 
L 76.505231 446.894545 
L 76.509091 446.890381 
L 80.83259 442.501818 
L 81.018182 442.297377 
L 85.172067 438.109091 
L 85.527273 437.707886 
L 89.504574 433.716364 
L 90.036364 433.100493 
L 93.814125 429.323636 
L 94.545455 428.4521 
L 98.076259 424.930909 
L 99.054545 423.738987 
L 102.271064 420.538182 
L 103.563636 418.89659 
L 106.328224 416.145455 
L 108.072727 413.867703 
L 110.200851 411.752727 
L 112.581818 408.571097 
L 113.801464 407.36 
L 117.080746 402.967273 
L 117.090909 402.955946 
L 121.369168 398.574545 
L 121.6 398.310911 
L 125.677245 394.181818 
L 126.109091 393.663356 
L 129.952573 389.789091 
L 130.618182 388.948668 
L 134.143378 385.396364 
L 135.127273 384.105351 
L 138.217517 381.003636 
L 139.636364 379.076142 
L 142.099156 376.610909 
L 144.145455 373.71152 
L 145.638487 372.218182 
L 148.654545 367.842517 
L 148.671622 367.825455 
L 152.910527 363.432727 
L 153.163636 363.132196 
L 157.172539 359.04 
L 157.672727 358.418982 
L 161.397315 354.647273 
L 162.181818 353.629063 
L 165.532676 350.254545 
L 166.690909 348.63799 
L 169.454037 345.861818 
L 171.2 343.185166 
L 172.898783 341.469091 
L 175.683606 337.076364 
L 175.709091 337.044673 
L 179.837669 332.683636 
L 180.218182 332.160611 
L 183.942094 328.290909 
L 184.727273 327.108318 
L 187.852003 323.898182 
L 189.236364 321.659254 
L 191.347856 319.505455 
L 193.745455 315.482538 
L 194.109773 315.112727 
L 197.934985 310.72 
L 198.254545 310.277359 
L 202.026306 306.327273 
L 202.763636 305.184351 
L 205.910912 301.934545 
L 207.272727 299.60838 
L 209.287584 297.541818 
L 211.664337 293.149091 
L 211.781818 292.975451 
L 215.662985 288.756364 
L 216.290909 287.520286 
L 219.260893 284.363636 
L 220.8 280.535687 
L 221.338646 279.970909 
L 224.865262 275.578182 
L 225.309091 274.807638 
L 228.744573 271.185455 
L 229.818182 268.799438 
L 231.757691 266.792727 
L 234.117943 262.4 
L 234.327273 262.086692 
L 238.149014 258.007273 
L 238.836364 256.734957 
L 241.872244 253.614545 
L 243.345455 250.724393 
L 244.86507 249.221818 
L 247.854545 245.494583 
L 248.58066 244.829091 
L 252.363636 241.814512 
L 254.122516 240.436364 
L 256.872727 239.013065 
L 261.381818 237.493635 
L 265.890909 236.785392 
L 270.4 238.422503 
L 273.042604 240.436364 
L 274.909091 242.448637 
L 276.125481 244.829091 
L 278.256457 249.221818 
L 279.418182 251.194977 
L 280.269659 253.614545 
L 282.144539 258.007273 
L 283.927273 261.425928 
L 284.145704 262.4 
L 285.082388 266.792727 
L 286.370236 271.185455 
L 288.212467 275.578182 
L 288.436364 276.107212 
L 289.03061 279.970909 
L 289.85001 284.363636 
L 291.109836 288.756364 
L 292.945455 292.56731 
L 293.062698 293.149091 
L 293.900092 297.541818 
L 295.006768 301.934545 
L 297.025006 306.327273 
L 297.454545 307.063084 
L 298.339825 310.72 
L 300.118564 315.112727 
L 301.963636 317.96116 
L 302.458602 319.505455 
L 304.090094 323.898182 
L 306.472727 327.353642 
L 306.870303 328.290909 
L 309.042467 332.683636 
L 310.981818 335.172479 
L 312.142739 337.076364 
L 315.490909 340.902772 
L 315.949142 341.469091 
L 320 345.683156 
L 320.165027 345.861818 
L 324.451388 350.254545 
L 324.509091 350.312028 
L 328.639015 354.647273 
L 329.018182 355.026852 
L 332.812971 359.04 
L 333.527273 359.757088 
L 338.036364 363.241611 
L 338.331784 363.432727 
L 342.545455 366.842149 
L 344.205544 367.825455 
L 347.054545 370.048813 
L 351.204697 372.218182 
L 351.563636 372.483749 
L 356.072727 375.578612 
L 357.982951 376.610909 
L 360.581818 378.516411 
L 365.090909 380.61976 
L 369.6 380.416886 
L 373.566548 376.610909 
L 374.109091 375.907916 
L 376.558271 372.218182 
L 378.216091 367.825455 
L 378.618182 366.599188 
L 380.529237 363.432727 
L 382.312112 359.04 
L 383.127273 356.46288 
L 384.253363 354.647273 
L 386.379485 350.254545 
L 387.534355 345.861818 
L 387.636364 345.338651 
L 389.366355 341.469091 
L 390.548724 337.076364 
L 391.373992 332.683636 
L 391.939907 328.290909 
L 392.145455 326.612248 
L 393.062342 323.898182 
L 394.097262 319.505455 
L 394.614682 315.112727 
L 394.974551 310.72 
L 395.140702 306.327273 
L 395.054474 301.934545 
L 394.870571 297.541818 
L 394.592924 293.149091 
L 394.279121 288.756364 
L 393.720773 284.363636 
L 392.706717 279.970909 
L 392.145455 277.934416 
L 391.981128 275.578182 
L 391.643001 271.185455 
L 391.200018 266.792727 
L 390.627261 262.4 
L 389.832871 258.007273 
L 388.324466 253.614545 
L 387.636364 252.07441 
L 387.278063 249.221818 
L 386.657494 244.829091 
L 385.718797 240.436364 
L 383.963186 236.043636 
L 383.127273 234.418314 
L 382.703286 231.650909 
L 381.911969 227.258182 
L 380.605554 222.865455 
L 378.618182 218.941636 
L 378.537701 218.472727 
L 377.883987 214.08 
L 376.858756 209.687273 
L 374.912418 205.294545 
L 374.109091 203.856797 
L 373.511571 200.901818 
L 372.379636 196.509091 
L 370.390928 192.116364 
L 369.6 190.709576 
L 368.942901 187.723636 
L 367.747177 183.330909 
L 365.717011 178.938182 
L 365.090909 177.252815 
L 364.740332 174.545455 
L 364.335246 170.152727 
L 364.119607 165.76 
L 363.865655 161.367273 
L 363.57625 156.974545 
L 363.334847 152.581818 
L 363.57118 148.189091 
L 364.026998 143.796364 
L 364.490335 139.403636 
L 364.904394 135.010909 
L 365.090909 133.506115 
L 366.516437 130.618182 
L 368.031125 126.225455 
L 368.776114 121.832727 
L 369.207296 117.44 
L 369.598505 113.047273 
L 369.6 113.035952 
L 371.755163 108.654545 
L 372.83339 104.261818 
L 373.409995 99.869091 
L 373.800239 95.476364 
L 374.109091 92.234355 
L 374.705964 91.083636 
L 376.55732 86.690909 
L 377.562444 82.298182 
L 378.069235 77.905455 
L 378.455713 73.512727 
L 378.618182 72.310477 
L 380.475993 69.12 
L 378.618182 69.12 
L 378.10599 69.12 
L 377.496341 73.512727 
L 376.870566 77.905455 
L 375.712815 82.298182 
L 374.109091 85.672679 
L 373.856165 86.690909 
L 373.230342 91.083636 
L 372.687204 95.476364 
L 371.951921 99.869091 
L 370.626673 104.261818 
L 369.6 106.550574 
L 369.179326 108.654545 
L 368.587173 113.047273 
L 368.008306 117.44 
L 367.123437 121.832727 
L 365.354618 126.225455 
L 365.090909 126.759949 
L 364.337181 130.618182 
L 363.664881 135.010909 
L 362.722914 139.403636 
L 361.564231 143.796364 
L 360.581818 147.489592 
L 360.489579 148.189091 
L 360.199848 152.581818 
L 360.299546 156.974545 
L 360.562748 161.367273 
L 360.581818 161.653034 
L 361.1086 165.76 
L 361.609066 170.152727 
L 362.309387 174.545455 
L 363.283471 178.938182 
L 364.497019 183.330909 
L 365.090909 185.152068 
L 366.357844 187.723636 
L 367.97483 192.116364 
L 369.203597 196.509091 
L 369.6 197.706493 
L 371.19531 200.901818 
L 372.682689 205.294545 
L 373.792627 209.687273 
L 374.109091 210.743702 
L 375.696655 214.08 
L 376.978725 218.472727 
L 377.874 222.865455 
L 378.618182 226.20741 
L 379.117292 227.258182 
L 380.826528 231.650909 
L 381.876239 236.043636 
L 382.721362 240.436364 
L 383.127273 242.384333 
L 384.120702 244.829091 
L 385.437636 249.221818 
L 386.300275 253.614545 
L 386.974764 258.007273 
L 387.533862 262.4 
L 387.636364 263.099024 
L 388.678181 266.792727 
L 389.615467 271.185455 
L 390.267632 275.578182 
L 390.749673 279.970909 
L 391.167689 284.363636 
L 391.448392 288.756364 
L 391.62821 293.149091 
L 391.812665 297.541818 
L 391.940674 301.934545 
L 391.97067 306.327273 
L 391.765415 310.72 
L 391.420578 315.112727 
L 391.004206 319.505455 
L 390.337643 323.898182 
L 389.455956 328.290909 
L 388.286957 332.683636 
L 387.636364 334.517204 
L 387.135742 337.076364 
L 386.279868 341.469091 
L 385.018139 345.861818 
L 383.127273 349.373956 
L 382.766558 350.254545 
L 381.078492 354.647273 
L 378.692122 359.04 
L 378.618182 359.167815 
L 377.075911 363.432727 
L 374.955609 367.825455 
L 374.109091 369.230956 
L 372.289351 372.218182 
L 369.6 375.225477 
L 365.090909 375.937949 
L 360.581818 374.013041 
L 358.019087 372.218182 
L 356.072727 371.087376 
L 351.563636 368.15277 
L 351.096707 367.825455 
L 347.054545 365.577157 
L 344.127475 363.432727 
L 342.545455 362.479467 
L 338.036364 359.050797 
L 338.023778 359.04 
L 333.527273 355.491738 
L 332.689524 354.647273 
L 329.018182 350.792079 
L 328.483131 350.254545 
L 324.509091 346.146679 
L 324.228907 345.861818 
L 320.099448 341.469091 
L 320 341.354132 
L 316.148329 337.076364 
L 315.490909 336.213124 
L 312.690131 332.683636 
L 310.981818 329.942797 
L 309.80143 328.290909 
L 307.454383 323.898182 
L 306.472727 321.579528 
L 305.232323 319.505455 
L 303.254949 315.112727 
L 301.963636 311.539104 
L 301.480682 310.72 
L 299.466474 306.327273 
L 298.277836 301.934545 
L 297.454545 298.214037 
L 297.173753 297.541818 
L 295.446703 293.149091 
L 294.240434 288.756364 
L 293.339041 284.363636 
L 292.945455 282.466583 
L 292.040738 279.970909 
L 290.731785 275.578182 
L 289.715387 271.185455 
L 288.749557 266.792727 
L 288.436364 265.450517 
L 287.234528 262.4 
L 285.837573 258.007273 
L 284.468931 253.614545 
L 283.927273 252.252546 
L 282.247968 249.221818 
L 280.350275 244.829091 
L 279.418182 242.524252 
L 278.116056 240.436364 
L 274.909091 236.141388 
L 274.788961 236.043636 
L 270.4 234.410359 
L 265.890909 234.273116 
L 261.381818 234.722263 
L 256.872727 235.824965 
L 256.614111 236.043636 
L 252.363636 239.510876 
L 251.392533 240.436364 
L 247.854545 243.742087 
L 246.876966 244.829091 
L 243.345455 248.442532 
L 242.698589 249.221818 
L 239.354011 253.614545 
L 238.836364 254.146607 
L 236.750696 258.007273 
L 234.327273 260.594093 
L 233.120697 262.4 
L 229.818182 266.19294 
L 229.327361 266.792727 
L 226.848931 271.185455 
L 225.309091 272.808978 
L 223.714046 275.578182 
L 220.8 278.80623 
L 219.939644 279.970909 
L 216.64223 284.363636 
L 216.290909 284.737038 
L 214.249102 288.756364 
L 211.781818 291.438466 
L 210.624449 293.149091 
L 207.272727 296.945903 
L 206.774933 297.541818 
L 203.462457 301.934545 
L 202.763636 302.656132 
L 200.395282 306.327273 
L 198.254545 308.569221 
L 196.701809 310.72 
L 193.745455 313.871263 
L 192.731989 315.112727 
L 189.236364 318.953789 
L 188.754941 319.505455 
L 185.349392 323.898182 
L 184.727273 324.537304 
L 182.235076 328.290909 
L 180.218182 330.386764 
L 178.547155 332.683636 
L 175.709091 335.681497 
L 174.587406 337.076364 
L 171.2 340.726755 
L 170.551712 341.469091 
L 166.690909 345.766804 
L 166.603898 345.861818 
L 163.364183 350.254545 
L 162.181818 351.445259 
L 159.71475 354.647273 
L 157.672727 356.715131 
L 155.8002 359.04 
L 153.163636 361.731344 
L 151.730722 363.432727 
L 148.654545 366.609873 
L 147.58694 367.825455 
L 144.145455 371.43955 
L 143.436873 372.218182 
L 139.636364 376.300872 
L 139.346118 376.610909 
L 135.689452 381.003636 
L 135.127273 381.567902 
L 132.209561 385.396364 
L 130.618182 386.99998 
L 128.409226 389.789091 
L 126.109091 392.107648 
L 124.381441 394.181818 
L 121.6 396.998628 
L 120.220168 398.574545 
L 117.090909 401.779246 
L 116.024953 402.967273 
L 112.581818 406.523502 
L 111.808982 407.36 
L 108.072727 411.274442 
L 107.618402 411.752727 
L 103.563636 416.074243 
L 103.494745 416.145455 
L 99.950187 420.538182 
L 99.054545 421.429447 
L 96.180674 424.930909 
L 94.545455 426.561677 
L 92.227819 429.323636 
L 90.036364 431.514567 
L 88.135165 433.716364 
L 85.527273 436.333581 
L 83.955328 438.109091 
L 81.018182 441.070561 
L 79.718887 442.501818 
L 76.509091 445.759918 
L 75.457345 446.894545 
L 72 450.417676 
L 72 451.287273 
L 72 452.301504 
z
" style="fill:#4c99c6;fill-opacity:0.5;"/>
   </g>
   <g id="PathCollection_7">
    <path clip-path="url(#pc005c874e8)" d="M 76.509091 504 
L 81.018182 504 
L 85.527273 504 
L 90.036364 504 
L 94.545455 504 
L 99.054545 504 
L 103.563636 504 
L 108.072727 504 
L 112.581818 504 
L 117.090909 504 
L 121.6 504 
L 126.109091 504 
L 130.618182 504 
L 135.127273 504 
L 139.636364 504 
L 144.145455 504 
L 148.654545 504 
L 153.163636 504 
L 157.672727 504 
L 162.181818 504 
L 166.690909 504 
L 171.2 504 
L 175.709091 504 
L 180.218182 504 
L 184.727273 504 
L 189.236364 504 
L 193.745455 504 
L 198.254545 504 
L 202.763636 504 
L 207.272727 504 
L 211.781818 504 
L 216.290909 504 
L 220.8 504 
L 225.309091 504 
L 229.818182 504 
L 234.327273 504 
L 238.836364 504 
L 243.345455 504 
L 247.854545 504 
L 252.363636 504 
L 256.872727 504 
L 261.381818 504 
L 265.890909 504 
L 270.4 504 
L 274.909091 504 
L 279.418182 504 
L 283.927273 504 
L 288.436364 504 
L 292.945455 504 
L 297.454545 504 
L 301.963636 504 
L 306.472727 504 
L 310.981818 504 
L 315.490909 504 
L 320 504 
L 324.509091 504 
L 329.018182 504 
L 333.527273 504 
L 338.036364 504 
L 342.545455 504 
L 347.054545 504 
L 351.563636 504 
L 356.072727 504 
L 360.581818 504 
L 365.090909 504 
L 369.6 504 
L 374.109091 504 
L 378.618182 504 
L 383.127273 504 
L 387.636364 504 
L 392.145455 504 
L 396.654545 504 
L 401.163636 504 
L 405.672727 504 
L 410.181818 504 
L 414.690909 504 
L 419.2 504 
L 423.709091 504 
L 428.218182 504 
L 432.727273 504 
L 437.236364 504 
L 441.745455 504 
L 446.254545 504 
L 450.763636 504 
L 455.272727 504 
L 459.781818 504 
L 464.290909 504 
L 468.8 504 
L 473.309091 504 
L 477.818182 504 
L 482.327273 504 
L 486.836364 504 
L 491.345455 504 
L 495.854545 504 
L 500.363636 504 
L 504.872727 504 
L 509.381818 504 
L 513.890909 504 
L 518.4 504 
L 518.4 499.607273 
L 518.4 495.214545 
L 518.4 490.821818 
L 518.4 486.429091 
L 518.4 482.036364 
L 518.4 477.643636 
L 518.4 473.250909 
L 518.4 468.858182 
L 518.4 464.465455 
L 518.4 460.072727 
L 518.4 455.68 
L 518.4 451.287273 
L 518.4 446.894545 
L 518.4 442.501818 
L 518.4 438.109091 
L 518.4 433.716364 
L 518.4 429.323636 
L 518.4 424.930909 
L 518.4 420.538182 
L 518.4 416.145455 
L 518.4 411.752727 
L 518.4 407.36 
L 518.4 402.967273 
L 518.4 398.574545 
L 518.4 394.181818 
L 518.4 389.789091 
L 518.4 385.396364 
L 518.4 381.003636 
L 518.4 376.610909 
L 518.4 372.218182 
L 518.4 367.825455 
L 518.4 363.432727 
L 518.4 359.04 
L 518.4 354.647273 
L 518.4 350.254545 
L 518.4 345.861818 
L 518.4 341.469091 
L 518.4 337.076364 
L 518.4 332.683636 
L 518.4 328.290909 
L 518.4 323.898182 
L 518.4 319.505455 
L 518.4 315.112727 
L 518.4 310.72 
L 518.4 306.327273 
L 518.4 301.934545 
L 518.4 297.541818 
L 518.4 293.149091 
L 518.4 288.756364 
L 518.4 284.363636 
L 518.4 279.970909 
L 518.4 275.578182 
L 518.4 271.185455 
L 518.4 266.792727 
L 518.4 262.4 
L 518.4 258.007273 
L 518.4 253.614545 
L 518.4 249.221818 
L 518.4 244.829091 
L 518.4 240.436364 
L 518.4 236.043636 
L 518.4 231.650909 
L 518.4 227.258182 
L 518.4 222.865455 
L 518.4 218.472727 
L 518.4 214.08 
L 518.4 209.687273 
L 518.4 205.294545 
L 518.4 200.901818 
L 518.4 196.509091 
L 518.4 192.116364 
L 518.4 187.723636 
L 518.4 183.330909 
L 518.4 178.938182 
L 518.4 174.545455 
L 518.4 170.152727 
L 518.4 165.76 
L 518.4 161.367273 
L 518.4 156.974545 
L 518.4 152.581818 
L 518.4 148.189091 
L 518.4 143.796364 
L 518.4 139.403636 
L 518.4 135.010909 
L 518.4 130.618182 
L 518.4 126.225455 
L 518.4 121.832727 
L 518.4 117.44 
L 518.4 113.047273 
L 518.4 108.654545 
L 518.4 104.261818 
L 518.4 99.869091 
L 518.4 95.476364 
L 518.4 91.083636 
L 518.4 86.690909 
L 518.4 82.298182 
L 518.4 77.905455 
L 518.4 73.512727 
L 518.4 69.12 
L 513.890909 69.12 
L 509.381818 69.12 
L 504.872727 69.12 
L 500.363636 69.12 
L 495.854545 69.12 
L 491.345455 69.12 
L 486.836364 69.12 
L 482.327273 69.12 
L 477.818182 69.12 
L 473.309091 69.12 
L 468.8 69.12 
L 464.290909 69.12 
L 459.781818 69.12 
L 455.272727 69.12 
L 450.763636 69.12 
L 446.254545 69.12 
L 441.745455 69.12 
L 437.236364 69.12 
L 432.727273 69.12 
L 428.218182 69.12 
L 423.709091 69.12 
L 419.2 69.12 
L 414.690909 69.12 
L 410.181818 69.12 
L 405.672727 69.12 
L 401.163636 69.12 
L 396.654545 69.12 
L 392.145455 69.12 
L 387.636364 69.12 
L 383.127273 69.12 
L 380.475993 69.12 
L 378.618182 72.310477 
L 378.455713 73.512727 
L 378.069235 77.905455 
L 377.562444 82.298182 
L 376.55732 86.690909 
L 374.705964 91.083636 
L 374.109091 92.234355 
L 373.800239 95.476364 
L 373.409995 99.869091 
L 372.83339 104.261818 
L 371.755163 108.654545 
L 369.6 113.035952 
L 369.598505 113.047273 
L 369.207296 117.44 
L 368.776114 121.832727 
L 368.031125 126.225455 
L 366.516437 130.618182 
L 365.090909 133.506115 
L 364.904394 135.010909 
L 364.490335 139.403636 
L 364.026998 143.796364 
L 363.57118 148.189091 
L 363.334847 152.581818 
L 363.57625 156.974545 
L 363.865655 161.367273 
L 364.119607 165.76 
L 364.335246 170.152727 
L 364.740332 174.545455 
L 365.090909 177.252815 
L 365.717011 178.938182 
L 367.747177 183.330909 
L 368.942901 187.723636 
L 369.6 190.709576 
L 370.390928 192.116364 
L 372.379636 196.509091 
L 373.511571 200.901818 
L 374.109091 203.856797 
L 374.912418 205.294545 
L 376.858756 209.687273 
L 377.883987 214.08 
L 378.537701 218.472727 
L 378.618182 218.941636 
L 380.605554 222.865455 
L 381.911969 227.258182 
L 382.703286 231.650909 
L 383.127273 234.418314 
L 383.963186 236.043636 
L 385.718797 240.436364 
L 386.657494 244.829091 
L 387.278063 249.221818 
L 387.636364 252.07441 
L 388.324466 253.614545 
L 389.832871 258.007273 
L 390.627261 262.4 
L 391.200018 266.792727 
L 391.643001 271.185455 
L 391.981128 275.578182 
L 392.145455 277.934416 
L 392.706717 279.970909 
L 393.720773 284.363636 
L 394.279121 288.756364 
L 394.592924 293.149091 
L 394.870571 297.541818 
L 395.054474 301.934545 
L 395.140702 306.327273 
L 394.974551 310.72 
L 394.614682 315.112727 
L 394.097262 319.505455 
L 393.062342 323.898182 
L 392.145455 326.612248 
L 391.939907 328.290909 
L 391.373992 332.683636 
L 390.548724 337.076364 
L 389.366355 341.469091 
L 387.636364 345.338651 
L 387.534355 345.861818 
L 386.379485 350.254545 
L 384.253363 354.647273 
L 383.127273 356.46288 
L 382.312112 359.04 
L 380.529237 363.432727 
L 378.618182 366.599188 
L 378.216091 367.825455 
L 376.558271 372.218182 
L 374.109091 375.907916 
L 373.566548 376.610909 
L 369.6 380.416886 
L 365.090909 380.61976 
L 360.581818 378.516411 
L 357.982951 376.610909 
L 356.072727 375.578612 
L 351.563636 372.483749 
L 351.204697 372.218182 
L 347.054545 370.048813 
L 344.205544 367.825455 
L 342.545455 366.842149 
L 338.331784 363.432727 
L 338.036364 363.241611 
L 333.527273 359.757088 
L 332.812971 359.04 
L 329.018182 355.026852 
L 328.639015 354.647273 
L 324.509091 350.312028 
L 324.451388 350.254545 
L 320.165027 345.861818 
L 320 345.683156 
L 315.949142 341.469091 
L 315.490909 340.902772 
L 312.142739 337.076364 
L 310.981818 335.172479 
L 309.042467 332.683636 
L 306.870303 328.290909 
L 306.472727 327.353642 
L 304.090094 323.898182 
L 302.458602 319.505455 
L 301.963636 317.96116 
L 300.118564 315.112727 
L 298.339825 310.72 
L 297.454545 307.063084 
L 297.025006 306.327273 
L 295.006768 301.934545 
L 293.900092 297.541818 
L 293.062698 293.149091 
L 292.945455 292.56731 
L 291.109836 288.756364 
L 289.85001 284.363636 
L 289.03061 279.970909 
L 288.436364 276.107212 
L 288.212467 275.578182 
L 286.370236 271.185455 
L 285.082388 266.792727 
L 284.145704 262.4 
L 283.927273 261.425928 
L 282.144539 258.007273 
L 280.269659 253.614545 
L 279.418182 251.194977 
L 278.256457 249.221818 
L 276.125481 244.829091 
L 274.909091 242.448637 
L 273.042604 240.436364 
L 270.4 238.422503 
L 265.890909 236.785392 
L 261.381818 237.493635 
L 256.872727 239.013065 
L 254.122516 240.436364 
L 252.363636 241.814512 
L 248.58066 244.829091 
L 247.854545 245.494583 
L 244.86507 249.221818 
L 243.345455 250.724393 
L 241.872244 253.614545 
L 238.836364 256.734957 
L 238.149014 258.007273 
L 234.327273 262.086692 
L 234.117943 262.4 
L 231.757691 266.792727 
L 229.818182 268.799438 
L 228.744573 271.185455 
L 225.309091 274.807638 
L 224.865262 275.578182 
L 221.338646 279.970909 
L 220.8 280.535687 
L 219.260893 284.363636 
L 216.290909 287.520286 
L 215.662985 288.756364 
L 211.781818 292.975451 
L 211.664337 293.149091 
L 209.287584 297.541818 
L 207.272727 299.60838 
L 205.910912 301.934545 
L 202.763636 305.184351 
L 202.026306 306.327273 
L 198.254545 310.277359 
L 197.934985 310.72 
L 194.109773 315.112727 
L 193.745455 315.482538 
L 191.347856 319.505455 
L 189.236364 321.659254 
L 187.852003 323.898182 
L 184.727273 327.108318 
L 183.942094 328.290909 
L 180.218182 332.160611 
L 179.837669 332.683636 
L 175.709091 337.044673 
L 175.683606 337.076364 
L 172.898783 341.469091 
L 171.2 343.185166 
L 169.454037 345.861818 
L 166.690909 348.63799 
L 165.532676 350.254545 
L 162.181818 353.629063 
L 161.397315 354.647273 
L 157.672727 358.418982 
L 157.172539 359.04 
L 153.163636 363.132196 
L 152.910527 363.432727 
L 148.671622 367.825455 
L 148.654545 367.842517 
L 145.638487 372.218182 
L 144.145455 373.71152 
L 142.099156 376.610909 
L 139.636364 379.076142 
L 138.217517 381.003636 
L 135.127273 384.105351 
L 134.143378 385.396364 
L 130.618182 388.948668 
L 129.952573 389.789091 
L 126.109091 393.663356 
L 125.677245 394.181818 
L 121.6 398.310911 
L 121.369168 398.574545 
L 117.090909 402.955946 
L 117.080746 402.967273 
L 113.801464 407.36 
L 112.581818 408.571097 
L 110.200851 411.752727 
L 108.072727 413.867703 
L 106.328224 416.145455 
L 103.563636 418.89659 
L 102.271064 420.538182 
L 99.054545 423.738987 
L 98.076259 424.930909 
L 94.545455 428.4521 
L 93.814125 429.323636 
L 90.036364 433.100493 
L 89.504574 433.716364 
L 85.527273 437.707886 
L 85.172067 438.109091 
L 81.018182 442.297377 
L 80.83259 442.501818 
L 76.509091 446.890381 
L 76.505231 446.894545 
L 73.026562 451.287273 
L 72 452.301504 
L 72 455.68 
L 72 460.072727 
L 72 464.465455 
L 72 468.858182 
L 72 473.250909 
L 72 477.643636 
L 72 482.036364 
L 72 486.429091 
L 72 490.821818 
L 72 495.214545 
L 72 499.607273 
L 72 504 
z
" style="fill:#195696;fill-opacity:0.5;"/>
   </g>
   <g id="PathCollection_8">
    <defs>
     <path d="M 0 3.872983 
C 1.027127 3.872983 2.012324 3.464901 2.738613 2.738613 
C 3.464901 2.012324 3.872983 1.027127 3.872983 0 
C 3.872983 -1.027127 3.464901 -2.012324 2.738613 -2.738613 
C 2.012324 -3.464901 1.027127 -3.872983 0 -3.872983 
C -1.027127 -3.872983 -2.012324 -3.464901 -2.738613 -2.738613 
C -3.464901 -2.012324 -3.872983 -1.027127 -3.872983 0 
C -3.872983 1.027127 -3.464901 2.012324 -2.738613 2.738613 
C -2.012324 3.464901 -1.027127 3.872983 0 3.872983 
z
" id="C0_0_cedf2a39b3"/>
    </defs>
    <g clip-path="url(#pc005c874e8)">
     <use style="fill:#0000ff;fill-opacity:0.7;stroke:#000000;stroke-opacity:0.7;" x="249.695512" xlink:href="#C0_0_cedf2a39b3" y="300.095614"/>
    </g>
    <g clip-path="url(#pc005c874e8)">
     <use style="fill:#0000ff;fill-opacity:0.7;stroke:#000000;stroke-opacity:0.7;" x="330.080977" xlink:href="#C0_0_cedf2a39b3" y="414.06492"/>
    </g>
    <g clip-path="url(#pc005c874e8)">
     <use style="fill:#ff0000;fill-opacity:0.7;stroke:#000000;stroke-opacity:0.7;" x="188.841182" xlink:href="#C0_0_cedf2a39b3" y="178.937686"/>
    </g>
    <g clip-path="url(#pc005c874e8)">
     <use style="fill:#0000ff;fill-opacity:0.7;stroke:#000000;stroke-opacity:0.7;" x="296.152383" xlink:href="#C0_0_cedf2a39b3" y="377.877891"/>
    </g>
    <g clip-path="url(#pc005c874e8)">
     <use style="fill:#ff0000;fill-opacity:0.7;stroke:#000000;stroke-opacity:0.7;" x="145.387577" xlink:href="#C0_0_cedf2a39b3" y="322.980918"/>
    </g>
    <g clip-path="url(#pc005c874e8)">
     <use style="fill:#0000ff;fill-opacity:0.7;stroke:#000000;stroke-opacity:0.7;" x="295.871974" xlink:href="#C0_0_cedf2a39b3" y="401.200657"/>
    </g>
    <g clip-path="url(#pc005c874e8)">
     <use style="fill:#0000ff;fill-opacity:0.7;stroke:#000000;stroke-opacity:0.7;" x="435.724941" xlink:href="#C0_0_cedf2a39b3" y="310.312857"/>
    </g>
    <g clip-path="url(#pc005c874e8)">
     <use style="fill:#ff0000;fill-opacity:0.7;stroke:#000000;stroke-opacity:0.7;" x="306.670121" xlink:href="#C0_0_cedf2a39b3" y="185.300084"/>
    </g>
    <g clip-path="url(#pc005c874e8)">
     <use style="fill:#0000ff;fill-opacity:0.7;stroke:#000000;stroke-opacity:0.7;" x="376.71155" xlink:href="#C0_0_cedf2a39b3" y="421.737738"/>
    </g>
    <g clip-path="url(#pc005c874e8)">
     <use style="fill:#0000ff;fill-opacity:0.7;stroke:#000000;stroke-opacity:0.7;" x="348.032694" xlink:href="#C0_0_cedf2a39b3" y="427.384861"/>
    </g>
    <g clip-path="url(#pc005c874e8)">
     <use style="fill:#0000ff;fill-opacity:0.7;stroke:#000000;stroke-opacity:0.7;" x="357.976899" xlink:href="#C0_0_cedf2a39b3" y="413.527273"/>
    </g>
    <g clip-path="url(#pc005c874e8)">
     <use style="fill:#ff0000;fill-opacity:0.7;stroke:#000000;stroke-opacity:0.7;" x="327.031127" xlink:href="#C0_0_cedf2a39b3" y="173.302918"/>
    </g>
    <g clip-path="url(#pc005c874e8)">
     <use style="fill:#ff0000;fill-opacity:0.7;stroke:#000000;stroke-opacity:0.7;" x="324.959757" xlink:href="#C0_0_cedf2a39b3" y="305.264458"/>
    </g>
    <g clip-path="url(#pc005c874e8)">
     <use style="fill:#0000ff;fill-opacity:0.7;stroke:#000000;stroke-opacity:0.7;" x="391.603552" xlink:href="#C0_0_cedf2a39b3" y="381.006556"/>
    </g>
    <g clip-path="url(#pc005c874e8)">
     <use style="fill:#ff0000;fill-opacity:0.7;stroke:#000000;stroke-opacity:0.7;" x="250.629049" xlink:href="#C0_0_cedf2a39b3" y="168.877719"/>
    </g>
    <g clip-path="url(#pc005c874e8)">
     <use style="fill:#0000ff;fill-opacity:0.7;stroke:#000000;stroke-opacity:0.7;" x="273.825264" xlink:href="#C0_0_cedf2a39b3" y="394.849288"/>
    </g>
    <g clip-path="url(#pc005c874e8)">
     <use style="fill:#ff0000;fill-opacity:0.7;stroke:#000000;stroke-opacity:0.7;" x="172.603658" xlink:href="#C0_0_cedf2a39b3" y="266.463973"/>
    </g>
    <g clip-path="url(#pc005c874e8)">
     <use style="fill:#ff0000;fill-opacity:0.7;stroke:#000000;stroke-opacity:0.7;" x="243.934722" xlink:href="#C0_0_cedf2a39b3" y="204.732337"/>
    </g>
    <g clip-path="url(#pc005c874e8)">
     <use style="fill:#0000ff;fill-opacity:0.7;stroke:#000000;stroke-opacity:0.7;" x="433.485558" xlink:href="#C0_0_cedf2a39b3" y="305.164335"/>
    </g>
    <g clip-path="url(#pc005c874e8)">
     <use style="fill:#ff0000;fill-opacity:0.7;stroke:#000000;stroke-opacity:0.7;" x="363.486699" xlink:href="#C0_0_cedf2a39b3" y="289.392511"/>
    </g>
    <g clip-path="url(#pc005c874e8)">
     <use style="fill:#0000ff;fill-opacity:0.7;stroke:#000000;stroke-opacity:0.7;" x="245.182929" xlink:href="#C0_0_cedf2a39b3" y="260.855782"/>
    </g>
    <g clip-path="url(#pc005c874e8)">
     <use style="fill:#ff0000;fill-opacity:0.7;stroke:#000000;stroke-opacity:0.7;" x="356.923268" xlink:href="#C0_0_cedf2a39b3" y="335.546733"/>
    </g>
    <g clip-path="url(#pc005c874e8)">
     <use style="fill:#0000ff;fill-opacity:0.7;stroke:#000000;stroke-opacity:0.7;" x="251.617633" xlink:href="#C0_0_cedf2a39b3" y="304.71761"/>
    </g>
    <g clip-path="url(#pc005c874e8)">
     <use style="fill:#0000ff;fill-opacity:0.7;stroke:#000000;stroke-opacity:0.7;" x="424.3955" xlink:href="#C0_0_cedf2a39b3" y="214.420408"/>
    </g>
    <g clip-path="url(#pc005c874e8)">
     <use style="fill:#0000ff;fill-opacity:0.7;stroke:#000000;stroke-opacity:0.7;" x="470.375873" xlink:href="#C0_0_cedf2a39b3" y="261.459106"/>
    </g>
    <g clip-path="url(#pc005c874e8)">
     <use style="fill:#ff0000;fill-opacity:0.7;stroke:#000000;stroke-opacity:0.7;" x="202.816226" xlink:href="#C0_0_cedf2a39b3" y="201.112302"/>
    </g>
    <g clip-path="url(#pc005c874e8)">
     <use style="fill:#ff0000;fill-opacity:0.7;stroke:#000000;stroke-opacity:0.7;" x="198.42018" xlink:href="#C0_0_cedf2a39b3" y="136.871846"/>
    </g>
    <g clip-path="url(#pc005c874e8)">
     <use style="fill:#ff0000;fill-opacity:0.7;stroke:#000000;stroke-opacity:0.7;" x="139.292316" xlink:href="#C0_0_cedf2a39b3" y="228.821695"/>
    </g>
    <g clip-path="url(#pc005c874e8)">
     <use style="fill:#ff0000;fill-opacity:0.7;stroke:#000000;stroke-opacity:0.7;" x="169.321254" xlink:href="#C0_0_cedf2a39b3" y="220.401842"/>
    </g>
    <g clip-path="url(#pc005c874e8)">
     <use style="fill:#ff0000;fill-opacity:0.7;stroke:#000000;stroke-opacity:0.7;" x="284.949626" xlink:href="#C0_0_cedf2a39b3" y="190.11808"/>
    </g>
   </g>
   <g id="matplotlib.axis_1"/>
   <g id="matplotlib.axis_2"/>
   <g id="patch_3">
    <path d="M 72 504 
L 72 69.12 
" style="fill:none;stroke:#000000;stroke-linecap:square;stroke-linejoin:miter;stroke-width:0.8;"/>
   </g>
   <g id="patch_4">
    <path d="M 518.4 504 
L 518.4 69.12 
" style="fill:none;stroke:#000000;stroke-linecap:square;stroke-linejoin:miter;stroke-width:0.8;"/>
   </g>
   <g id="patch_5">
    <path d="M 72 504 
L 518.4 504 
" style="fill:none;stroke:#000000;stroke-linecap:square;stroke-linejoin:miter;stroke-width:0.8;"/>
   </g>
   <g id="patch_6">
    <path d="M 72 69.12 
L 518.4 69.12 
" style="fill:none;stroke:#000000;stroke-linecap:square;stroke-linejoin:miter;stroke-width:0.8;"/>
   </g>
  </g>
 </g>
 <defs>
  <clipPath id="pc005c874e8">
   <rect height="434.88" width="446.4" x="72" y="69.12"/>
  </clipPath>
 </defs>
</svg>
